<?xml version="1.0" encoding="UTF-8" standalone="no"?>
<svg
   width="32"
   height="32"
   version="1.1"
   id="svg12"
   sodipodi:docname="applications.svg"
   inkscape:version="1.3 (0e150ed6c4, 2023-07-21)"
   xmlns:inkscape="http://www.inkscape.org/namespaces/inkscape"
   xmlns:sodipodi="http://sodipodi.sourceforge.net/DTD/sodipodi-0.dtd"
   xmlns:xlink="http://www.w3.org/1999/xlink"
   xmlns="http://www.w3.org/2000/svg"
   xmlns:svg="http://www.w3.org/2000/svg"
   xmlns:rdf="http://www.w3.org/1999/02/22-rdf-syntax-ns#"
   xmlns:cc="http://creativecommons.org/ns#"
   xmlns:dc="http://purl.org/dc/elements/1.1/">
  <metadata
     id="metadata18">
    <rdf:RDF>
      <cc:Work
         rdf:about="">
        <dc:format>image/svg+xml</dc:format>
        <dc:type
           rdf:resource="http://purl.org/dc/dcmitype/StillImage" />
      </cc:Work>
    </rdf:RDF>
  </metadata>
  <defs
     id="defs16">
    <linearGradient
       inkscape:collect="always"
       id="linearGradient851">
      <stop
         style="stop-color:#ffc299;stop-opacity:1"
         offset="0"
         id="stop845" />
      <stop
         style="stop-color:#ff67ff;stop-opacity:1"
         offset="1"
         id="stop847" />
    </linearGradient>
    <linearGradient
       inkscape:collect="always"
       xlink:href="#linearGradient851"
       id="linearGradient2"
       x1="29"
       y1="-99"
       x2="49"
       y2="-90"
       gradientUnits="userSpaceOnUse"
       gradientTransform="translate(-26,115.00001)" />
    <linearGradient
       inkscape:collect="always"
       xlink:href="#linearGradient851"
       id="linearGradient3"
       x1="7.9998097"
       y1="16"
       x2="24.000191"
       y2="16"
       gradientUnits="userSpaceOnUse" />
    <linearGradient
       inkscape:collect="always"
       xlink:href="#linearGradient851"
       id="linearGradient4"
       x1="12.840668"
       y1="15.96107"
       x2="19.238361"
       y2="15.96107"
       gradientUnits="userSpaceOnUse" />
    <linearGradient
       inkscape:collect="always"
       xlink:href="#linearGradient851"
       id="linearGradient1130"
       x1="11"
       y1="1"
       x2="19.521629"
       y2="16.211727"
       gradientUnits="userSpaceOnUse" />
    <linearGradient
       inkscape:collect="always"
       xlink:href="#linearGradient851"
       id="linearGradient6"
       x1="4.9998436"
       y1="10.999999"
       x2="17.000156"
       y2="10.999999"
       gradientUnits="userSpaceOnUse" />
    <linearGradient
       inkscape:collect="always"
       xlink:href="#linearGradient851"
       id="linearGradient7"
       x1="8.6303854"
       y1="10.970925"
       x2="13.428636"
       y2="10.970925"
       gradientUnits="userSpaceOnUse" />
  </defs>
  <sodipodi:namedview
     pagecolor="#280b17"
     bordercolor="#000000"
     borderopacity="1"
     objecttolerance="10"
     gridtolerance="10"
     guidetolerance="10"
     inkscape:pageopacity="0"
     inkscape:pageshadow="2"
     inkscape:window-width="1920"
     inkscape:window-height="994"
     id="namedview14"
     showgrid="true"
     inkscape:zoom="8"
     inkscape:cx="22.25"
     inkscape:cy="19.8125"
     inkscape:window-x="0"
     inkscape:window-y="0"
     inkscape:window-maximized="1"
     inkscape:current-layer="svg12"
     inkscape:document-rotation="0"
     inkscape:pagecheckerboard="true"
     inkscape:showpageshadow="true"
     inkscape:deskcolor="#280b17">
    <inkscape:grid
       type="xygrid"
       id="grid844"
       originx="0"
       originy="-3e-07"
       spacingy="1"
       spacingx="1"
       units="px"
       visible="true" />
  </sodipodi:namedview>
  <g
     id="applications-other">
    <path
       style="clip-rule:evenodd;fill:#ffffc1;fill-opacity:0;fill-rule:evenodd;stroke-width:1.00213;stroke-linejoin:round;stroke-miterlimit:1.41421"
       d="M 0,0 V 32 H 32 V 0 Z"
       id="rect817"
       inkscape:connector-curvature="0" />
    <path
       d="m 15.985308,29.000001 c -0.695195,0 -1.390382,-0.06043 -2.085568,-0.181302 C 6.8269348,27.67045 2.0210537,20.992477 3.1696308,13.921681 c 0.544058,-3.41453 2.418049,-6.4362401 5.229042,-8.4607801 2.8109842,-2.02454 6.2567012,-2.84041 9.6722012,-2.2965 7.072804,1.14825 11.908908,7.8262201 10.760329,14.8970191 -0.211576,1.359769 -0.634735,2.659103 -1.269474,3.867786 -0.151127,0.302171 -0.302254,0.574124 -0.48361,0.846078 -0.272034,0.423039 -0.816092,0.574125 -1.239253,0.302171 -0.423163,-0.271954 -0.57429,-0.815861 -0.302254,-1.2389 0.151126,-0.241737 0.272024,-0.483473 0.42316,-0.72521 0.54406,-1.02738 0.906763,-2.17563 1.088118,-3.323879 0.967219,-6.073635 -3.173694,-11.8450951 -9.279268,-12.8120351 -2.96212,-0.48348 -5.894,0.21152 -8.3422812,1.96411 -2.418049,1.75259 -4.020006,4.3210401 -4.503616,7.2823101 -0.997451,6.073633 3.173684,11.845094 9.2490392,12.81204 2.599406,0.423039 5.259262,-0.09065 7.495966,-1.420202 0.423153,-0.241737 0.99744,-0.120869 1.239246,0.302171 0.241805,0.423039 0.120907,0.997163 -0.302254,1.2389 -1.99489,1.208683 -4.292043,1.843241 -6.619414,1.843241 z"
       id="path2-53"
       style="fill:url(#linearGradient2)" />
    <path
       d="m 16.000193,9.6026944 a 0.79971176,0.79971176 0 0 0 -0.799702,0.7996996 c 0,1.353119 -1.636199,2.031281 -2.593469,1.074014 a 0.79971176,0.79971176 0 1 0 -1.13078,1.130774 c 0.957242,0.957269 0.279999,2.593472 -1.074009,2.593472 a 0.79971472,0.79971472 0 1 0 0,1.599426 c 1.353121,0 2.031277,1.6362 1.074009,2.593472 a 0.79971176,0.79971176 0 0 0 1.13078,1.130781 c 0.95727,-0.95724 2.593469,-0.279998 2.593469,1.074008 a 0.79971476,0.79971476 0 1 0 1.599429,0 c 0,-1.35312 1.636201,-2.031276 2.593468,-1.074008 a 0.79971176,0.79971176 0 1 0 1.130781,-1.130781 c -0.957242,-0.95724 -0.279998,-2.593472 1.074009,-2.593472 a 0.79971472,0.79971472 0 1 0 0,-1.599426 c -1.353121,0 -2.031276,-1.636203 -1.074009,-2.593472 A 0.79971176,0.79971176 0 0 0 19.393388,11.476408 C 18.436153,12.433645 16.79992,11.756406 16.79992,10.402394 A 0.79971176,0.79971176 0 0 0 16.000193,9.6026944 Z m -2.392734,0.6213896 a 2.3991355,2.3991355 0 0 1 4.785481,0 2.3991355,2.3991355 0 0 1 3.382775,3.383576 2.3991355,2.3991355 0 0 1 8e-4,4.78548 2.3991355,2.3991355 0 0 1 -3.383575,3.382776 2.3991355,2.3991355 0 0 1 -4.785481,0 2.3991355,2.3991355 0 0 1 -3.383575,-3.382776 2.3991355,2.3991355 0 0 1 0,-4.78548 2.3991355,2.3991355 0 0 1 3.383575,-3.383576 z"
       id="path1"
       style="fill:url(#linearGradient3);stroke-width:0.799716" />
    <path
       d="m 16.000193,14.400966 a 1.5994238,1.5994238 0 1 0 0,3.198844 1.5994238,1.5994238 0 0 0 0,-3.198844 z M 13.73861,13.738805 a 3.1988472,3.1988472 0 1 1 4.523168,4.523171 3.1988472,3.1988472 0 0 1 -4.523168,-4.523171 z"
       id="path2-3"
       style="fill:url(#linearGradient4);stroke-width:0.799716" />
  </g>
  <g
     id="22-22-applications-other"
     transform="translate(32,9.9999997)">
    <path
       style="clip-rule:evenodd;fill:#ffffc1;fill-opacity:0;fill-rule:evenodd;stroke-width:0.688964;stroke-linejoin:round;stroke-miterlimit:1.41421"
       d="M 0,0 V 22 H 22 V 0 Z"
       id="rect817-5"
       inkscape:connector-curvature="0" />
    <path
       d="m 10.988683,20.999998 c -0.534733,0 -1.0695158,-0.0467 -1.6042298,-0.13947 -5.4406131,-0.88329 -9.13746911,-6.02017 -8.2539761,-11.45928 0.418494,-2.6264998 1.860106,-4.9509298 4.022347,-6.5082398 2.16232,-1.55735 4.8128881,-2.18493016 7.4401579,-1.76655 5.440618,0.88323 9.160693,6.02018 8.277175,11.4592198 -0.162753,1.046 -0.488266,2.04546 -0.97652,2.97528 -0.116252,0.23239 -0.232505,0.44159 -0.372007,0.65077 -0.209257,0.32541 -0.627769,0.44165 -0.953272,0.23252 -0.325513,-0.20925 -0.441762,-0.62764 -0.232504,-0.95308 0.116247,-0.18593 0.209247,-0.37192 0.325507,-0.55786 0.418508,-0.79031 0.697506,-1.67356 0.837014,-2.55683 0.744015,-4.6719898 -2.441303,-9.1115498 -7.137902,-9.8554298 -2.278521,-0.37189 -4.5338529,0.1627 -6.4171779,1.51088 -1.859977,1.34819 -3.092299,3.32384 -3.464276,5.6017698 -0.767293,4.67203 2.441296,9.11161 7.1146361,9.85542 1.9995638,0.32544 4.0456018,-0.0694 5.7661388,-1.09242 0.325497,-0.18595 0.767258,-0.0929 0.953264,0.23239 0.186002,0.32544 0.09301,0.76713 -0.232508,0.95307 -1.534523,0.92968 -3.301564,1.41784 -5.091867,1.41784 z"
       id="path2-53-6"
       style="fill:url(#linearGradient1130);fill-opacity:1;stroke-width:0.232469" />
    <path
       d="m 11.000145,6.2020329 a 0.59978126,0.59978126 0 0 0 -0.599773,0.599773 c 0,1.0148353 -1.2271479,1.5234557 -1.945096,0.8055079 A 0.59978126,0.59978126 0 1 0 7.6071941,8.4553899 C 8.3251214,9.1733393 7.817192,10.400487 6.8016905,10.400487 a 0.5997852,0.5997852 0 1 0 0,1.19957 c 1.0148356,0 1.5234525,1.227136 0.8055036,1.945083 a 0.59978126,0.59978126 0 0 0 0.8480819,0.848088 c 0.7179481,-0.717923 1.945096,-0.21 1.945096,0.805505 a 0.59978346,0.59978346 0 1 0 1.199558,0 c 0,-1.014837 1.227153,-1.523449 1.945098,-0.805505 a 0.59978126,0.59978126 0 1 0 0.848089,-0.848088 c -0.717934,-0.717925 -0.209998,-1.945083 0.805493,-1.945083 a 0.5997852,0.5997852 0 1 0 0,-1.19957 c -1.014835,0 -1.52344,-1.2271477 -0.805493,-1.9450971 A 0.59978126,0.59978126 0 0 0 13.545028,7.6073137 C 12.827107,8.3252404 11.59993,7.8173119 11.59993,6.8018059 A 0.59978126,0.59978126 0 0 0 11.000145,6.2020329 Z M 9.2056016,6.6680771 a 1.7993439,1.7993439 0 0 1 3.5890984,0 1.7993439,1.7993439 0 0 1 2.53707,2.5376679 1.7993439,1.7993439 0 0 1 6e-4,3.5891 1.7993439,1.7993439 0 0 1 -2.53767,2.537076 1.7993439,1.7993439 0 0 1 -3.5890984,0 1.7993439,1.7993439 0 0 1 -2.5376723,-2.537076 1.7993439,1.7993439 0 0 1 0,-3.5891 1.7993439,1.7993439 0 0 1 2.5376723,-2.5376679 z"
       id="path1-6"
       style="fill:url(#linearGradient6);stroke-width:0.59979" />
    <path
       d="m 11.000145,9.8007232 a 1.1995623,1.1995623 0 1 0 0,2.3991168 1.1995623,1.1995623 0 0 0 0,-2.3991168 z M 9.3039619,9.3041066 A 2.3991253,2.3991253 0 1 1 12.696332,12.696471 2.3991253,2.3991253 0 0 1 9.3039619,9.3041066 Z"
       id="path2"
       style="fill:url(#linearGradient7);stroke-width:0.59979" />
  </g>
</svg>
