<?xml version="1.0" encoding="UTF-8" standalone="no"?>
<svg
   width="32"
   height="32"
   version="1.1"
   id="svg12"
   sodipodi:docname="audacious.svg"
   inkscape:version="1.3 (0e150ed6c4, 2023-07-21)"
   xmlns:inkscape="http://www.inkscape.org/namespaces/inkscape"
   xmlns:sodipodi="http://sodipodi.sourceforge.net/DTD/sodipodi-0.dtd"
   xmlns="http://www.w3.org/2000/svg"
   xmlns:svg="http://www.w3.org/2000/svg"
   xmlns:rdf="http://www.w3.org/1999/02/22-rdf-syntax-ns#"
   xmlns:cc="http://creativecommons.org/ns#"
   xmlns:dc="http://purl.org/dc/elements/1.1/">
  <metadata
     id="metadata18">
    <rdf:RDF>
      <cc:Work
         rdf:about="">
        <dc:format>image/svg+xml</dc:format>
        <dc:type
           rdf:resource="http://purl.org/dc/dcmitype/StillImage" />
      </cc:Work>
    </rdf:RDF>
  </metadata>
  <defs
     id="defs16" />
  <sodipodi:namedview
     pagecolor="#280b17"
     bordercolor="#000000"
     borderopacity="1"
     objecttolerance="10"
     gridtolerance="10"
     guidetolerance="10"
     inkscape:pageopacity="0"
     inkscape:pageshadow="2"
     inkscape:window-width="1920"
     inkscape:window-height="994"
     id="namedview14"
     showgrid="true"
     inkscape:zoom="9.8125003"
     inkscape:cx="21.299362"
     inkscape:cy="28.076432"
     inkscape:window-x="0"
     inkscape:window-y="0"
     inkscape:window-maximized="1"
     inkscape:current-layer="svg12"
     inkscape:lockguides="false"
     inkscape:document-rotation="0"
     inkscape:showpageshadow="true"
     inkscape:pagecheckerboard="true"
     inkscape:deskcolor="#280b17">
    <inkscape:grid
       id="grid1"
       units="px"
       originx="0"
       originy="0"
       spacingx="1"
       spacingy="1"
       empcolor="#0099e5"
       empopacity="0.30196078"
       color="#0099e5"
       opacity="0.14901961"
       empspacing="5"
       dotted="false"
       gridanglex="30"
       gridanglez="30"
       visible="true" />
  </sodipodi:namedview>
  <g
     id="audacious">
    <rect
       style="opacity:0.00100002;fill:#d1d5e9;fill-opacity:1"
       width="32"
       height="32"
       x="0"
       y="0"
       id="rect7" />
    <path
       style="color:#d5c289;fill:#d3dae3;fill-opacity:1;stroke-width:1.5"
       class="ColorScheme-Text"
       d="m 15.999999,4 c -6.636,0 -12,5.364 -12,11.999999 0,6.636001 5.364,12.000001 12,12.000001 6.636,0 12,-5.364 12,-12.000001 C 27.999999,9.364 22.635999,4 15.999999,4 Z m 0,1.5 c 5.80498,0 10.5,4.695 10.5,10.499999 0,5.804981 -4.69502,10.500001 -10.5,10.500001 -5.80502,0 -10.5,-4.69502 -10.5,-10.500001 C 5.499999,10.195 10.194979,5.5 15.999999,5.5 Z m 1.12498,8.578498 v 0 0 0 0 0 c 0,0 -0.05091,0.012 0,0 z m -1.171491,6.750005 z"
       id="path58"
       sodipodi:nodetypes="ssssssssssccccccccccccccccc" />
    <path
       d="M 11.952606,20.949735 C 11.18673,20.248315 10.8,19.330781 10.8,18.193341 c 0,-0.754496 0.200956,-1.417999 0.599055,-1.994307 0.398115,-0.576296 0.944073,-1.019896 1.637909,-1.327004 0.693836,-0.31092 1.459707,-0.466358 2.301411,-0.466358 1.167775,0 2.161135,0.170624 2.987672,0.508058 v -0.485311 c 0,-0.618 -0.231298,-1.122267 -0.697629,-1.505196 -0.466348,-0.382919 -1.088154,-0.576317 -1.869194,-0.576317 -0.530805,0 -1.042641,0.12134 -1.539321,0.364002 -0.49668,0.242675 -0.906171,0.564932 -1.228435,0.963042 l -1.861614,-1.45974 c 0.545968,-0.708998 1.232232,-1.254976 2.058771,-1.637911 C 14.015158,10.193365 14.917525,10 15.888142,10 c 1.728905,0 3.040746,0.398125 3.943117,1.194299 0.898568,0.796214 1.349761,1.963992 1.349761,3.49953 v 6.953532 h -2.854973 v -1.152604 h -0.178212 c -0.341245,0.443604 -0.784831,0.803791 -1.338385,1.084358 -0.55356,0.280583 -1.19052,0.420854 -1.914686,0.420854 -1.194305,0.0038 -2.17251,-0.348834 -2.942177,-1.050234 z m 5.634102,-2.013268 c 0.492897,-0.538384 0.743126,-1.167765 0.743126,-1.891929 -0.754492,-0.352636 -1.54312,-0.530806 -2.369656,-0.530806 -1.505208,0 -2.259719,0.561133 -2.259719,1.683407 0,0.45876 0.163051,0.830324 0.485311,1.118478 0.326093,0.288164 0.788622,0.432222 1.395254,0.432222 0.845501,-0.0038 1.512794,-0.272999 2.005684,-0.811372 z"
       id="path4"
       style="fill:#d3dae3;fill-opacity:1;stroke-width:0.379139" />
  </g>
  <g
     id="22-22-audacious">
    <rect
       style="opacity:0.00100002;fill:#d1d5e9;fill-opacity:1"
       width="22"
       height="22"
       x="32"
       y="10.000001"
       id="rect2" />
    <path
       d="m 42.999999,13.000001 c -2.1217,0 -4.1567,0.8429 -5.6568,2.34315 -1.5003,1.50038 -2.3432,3.53518 -2.3432,5.65685 0,2.12167 0.8429,4.15669 2.3432,5.65685 1.5003,1.50025 3.5351,2.34315 5.6568,2.34315 2.1217,0 4.1567,-0.8429 5.6568,-2.34315 1.5003,-1.50038 2.3432,-3.53518 2.3432,-5.65685 0,-2.12095 -0.8462,-4.1545 -2.346,-5.65404 -1.4997,-1.49976 -3.5333,-2.343399 -5.654,-2.34596 z m 0,14.746 c -1.736,0 -3.600499,-0.89002 -4.827999,-2.11754 -1.2275,-1.22753 -1.917,-2.89238 -1.917,-4.62827 0,-1.73589 0.6895,-3.40084 1.917,-4.62827 1.2276,-1.22753 3.092099,-2.11692 4.827999,-2.11692 1.7359,0 3.600501,0.88939 4.828001,2.11692 1.2275,1.22752 1.917,2.89238 1.917,4.62827 0,1.73536 -0.692,3.39897 -1.919,4.6264 -1.2271,1.22703 -3.090701,2.11748 -4.826201,2.11941 z"
       id="path2"
       style="fill:#d3dae3;fill-opacity:1;stroke-width:0.0311689"
       sodipodi:nodetypes="ccscscsccccssscsccc" />
    <path
       d="M 40.277211,24.300158 C 39.760775,23.832522 39.5,23.220808 39.5,22.462473 c 0,-0.503013 0.135505,-0.945364 0.403949,-1.329596 0.26845,-0.384209 0.636595,-0.679957 1.104453,-0.884706 0.467858,-0.20729 0.984289,-0.310922 1.551854,-0.310922 0.787444,0 1.457273,0.113753 2.014614,0.338723 v -0.323555 c 0,-0.412019 -0.155973,-0.748214 -0.470415,-1.003508 -0.314464,-0.255291 -0.733754,-0.384234 -1.26042,-0.384234 -0.357918,0 -0.703052,0.0809 -1.037966,0.242679 -0.334915,0.161796 -0.611042,0.37664 -0.828345,0.64206 L 39.72242,18.476209 c 0.368152,-0.472686 0.830907,-0.836691 1.388251,-1.091991 0.557333,-0.2553 1.165807,-0.384217 1.820307,-0.384217 1.165808,0 2.050392,0.265429 2.658867,0.796236 C 46.195752,18.327069 46.5,19.105626 46.5,20.129365 v 4.635899 h -1.92513 v -0.768439 h -0.120174 c -0.2301,0.295751 -0.529214,0.535885 -0.902479,0.722938 -0.373269,0.187062 -0.802776,0.280586 -1.291088,0.280586 -0.805327,0.0026 -1.464942,-0.23257 -1.983933,-0.700191 z m 3.799111,-1.342243 c 0.33237,-0.358934 0.501097,-0.778535 0.501097,-1.261337 -0.50875,-0.235111 -1.040536,-0.353887 -1.597871,-0.353887 -1.014974,0 -1.523746,0.374108 -1.523746,1.122322 0,0.305854 0.109945,0.553568 0.327248,0.745688 0.219889,0.192115 0.531772,0.288157 0.940824,0.288157 0.570133,-0.0026 1.020096,-0.182008 1.352448,-0.540943 z"
       id="path4-3"
       style="fill:#d3dae3;fill-opacity:1;stroke-width:0.25421" />
  </g>
</svg>
