<?xml version="1.0" encoding="UTF-8" standalone="no"?>
<svg
   width="32"
   height="32"
   version="1.1"
   id="svg12"
   sodipodi:docname="bookmarks.svg"
   inkscape:version="1.3 (0e150ed6c4, 2023-07-21)"
   xmlns:inkscape="http://www.inkscape.org/namespaces/inkscape"
   xmlns:sodipodi="http://sodipodi.sourceforge.net/DTD/sodipodi-0.dtd"
   xmlns:xlink="http://www.w3.org/1999/xlink"
   xmlns="http://www.w3.org/2000/svg"
   xmlns:svg="http://www.w3.org/2000/svg"
   xmlns:rdf="http://www.w3.org/1999/02/22-rdf-syntax-ns#"
   xmlns:cc="http://creativecommons.org/ns#"
   xmlns:dc="http://purl.org/dc/elements/1.1/">
  <metadata
     id="metadata18">
    <rdf:RDF>
      <cc:Work
         rdf:about="">
        <dc:format>image/svg+xml</dc:format>
        <dc:type
           rdf:resource="http://purl.org/dc/dcmitype/StillImage" />
      </cc:Work>
    </rdf:RDF>
  </metadata>
  <defs
     id="defs16">
    <linearGradient
       inkscape:collect="always"
       id="linearGradient2">
      <stop
         style="stop-color:#ffdd55;stop-opacity:1"
         offset="0"
         id="stop1" />
      <stop
         style="stop-color:#bc5fd3;stop-opacity:1"
         offset="1"
         id="stop2" />
    </linearGradient>
    <linearGradient
       inkscape:collect="always"
       xlink:href="#linearGradient2"
       id="linearGradient907"
       gradientUnits="userSpaceOnUse"
       x1="407.28168"
       y1="396.52484"
       x2="231.58122"
       y2="254.28494"
       gradientTransform="matrix(0.0540696,0,0,0.05333298,2.1581696,1.8468643)" />
    <linearGradient
       inkscape:collect="always"
       xlink:href="#linearGradient2"
       id="linearGradient17"
       x1="6.6509614"
       y1="6.9721899"
       x2="28.999998"
       y2="28.999996"
       gradientUnits="userSpaceOnUse"
       gradientTransform="rotate(-90,15.999999,15.999998)" />
    <linearGradient
       inkscape:collect="always"
       xlink:href="#linearGradient2"
       id="linearGradient4"
       x1="245.99751"
       y1="348.18445"
       x2="266.02679"
       y2="348.18445"
       gradientUnits="userSpaceOnUse"
       gradientTransform="matrix(0.04992692,0,0,0.04991236,3.1772576,3.1212928)" />
    <linearGradient
       inkscape:collect="always"
       xlink:href="#linearGradient2"
       id="linearGradient5"
       gradientUnits="userSpaceOnUse"
       x1="245.99751"
       y1="348.18445"
       x2="266.02679"
       y2="348.18445"
       gradientTransform="matrix(0.03840528,0,0,0.03839416,1.1363389,1.0933003)" />
    <linearGradient
       inkscape:collect="always"
       xlink:href="#linearGradient2"
       id="linearGradient7"
       gradientUnits="userSpaceOnUse"
       gradientTransform="matrix(0.041592,0,0,0.04102533,0.35243894,0.11296204)"
       x1="407.28168"
       y1="396.52484"
       x2="231.58122"
       y2="254.28494" />
    <linearGradient
       inkscape:collect="always"
       xlink:href="#linearGradient2"
       id="linearGradient9"
       gradientUnits="userSpaceOnUse"
       gradientTransform="matrix(0,-0.76923108,0.76923108,0,-1.3077008,23.307696)"
       x1="6.6509614"
       y1="6.9721899"
       x2="28.999998"
       y2="28.999996" />
  </defs>
  <sodipodi:namedview
     pagecolor="#280b17"
     bordercolor="#000000"
     borderopacity="1"
     objecttolerance="10"
     gridtolerance="10"
     guidetolerance="10"
     inkscape:pageopacity="0"
     inkscape:pageshadow="2"
     inkscape:window-width="1920"
     inkscape:window-height="994"
     id="namedview14"
     showgrid="true"
     inkscape:zoom="7.9595449"
     inkscape:cx="25.127065"
     inkscape:cy="13.757068"
     inkscape:window-x="0"
     inkscape:window-y="0"
     inkscape:window-maximized="1"
     inkscape:current-layer="svg12"
     inkscape:document-rotation="0"
     inkscape:showpageshadow="2"
     inkscape:pagecheckerboard="true"
     inkscape:deskcolor="#280b17">
    <inkscape:grid
       type="xygrid"
       id="grid879"
       originx="0"
       originy="0"
       spacingy="1"
       spacingx="1"
       units="px"
       visible="true" />
  </sodipodi:namedview>
  <g
     id="g997" />
  <g
     id="g999"
     transform="translate(32,10)" />
  <g
     id="bookmarks">
    <rect
       y="0"
       x="0"
       height="32"
       width="32"
       id="rect820"
       style="clip-rule:evenodd;fill:#2020ff;fill-opacity:0;fill-rule:evenodd;stroke-linejoin:round;stroke-miterlimit:1.41421" />
    <path
       d="m 16.190909,20.057505 c -0.244043,-0.128375 -0.545951,-0.03459 -0.674263,0.209432 -0.128362,0.243972 -0.03455,0.545742 0.209493,0.674067 l 0.0033,0.0017 c 0.07394,0.03888 0.152972,0.0573 0.230907,0.0573 0.179238,0 0.352285,-0.09748 0.441704,-0.26758 0.128312,-0.243922 0.0329,-0.54659 -0.211141,-0.674915 z"
       id="path14-7"
       style="clip-rule:evenodd;fill:url(#linearGradient4);fill-opacity:1;fill-rule:evenodd;stroke-width:0.0499196;stroke-linejoin:round;stroke-miterlimit:1.41421" />
    <path
       d="m 24.473505,13.572493 c -0.06364,-0.193065 -0.232824,-0.333811 -0.436504,-0.362984 L 18.818581,12.461567 16.484829,7.7972782 C 16.393776,7.6152526 16.205776,7.5 15.999987,7.5 c -0.205789,0 -0.393735,0.1152526 -0.484842,0.2972782 l -2.333752,4.6642888 -5.2184193,0.747942 c -0.2036802,0.02923 -0.372918,0.169919 -0.4365039,0.362984 -0.063586,0.193066 -0.010543,0.405011 0.1368502,0.546717 l 3.776059,3.630642 -0.891392,5.12658 c -0.03482,0.200105 0.04856,0.402344 0.215089,0.521649 0.16648,0.119306 0.387192,0.135093 0.569407,0.04059 l 3.321928,-1.722655 c 0.264346,-0.137013 0.365943,-0.459517 0.226984,-0.720209 -0.138904,-0.260692 -0.465917,-0.360851 -0.730156,-0.223892 l -2.352243,1.219779 0.75427,-4.337785 c 0.03012,-0.173012 -0.02806,-0.349544 -0.155504,-0.47205 L 9.2026815,14.109823 13.618221,13.476921 c 0.176105,-0.02523 0.328311,-0.134346 0.40709,-0.291732 l 1.974676,-3.9466404 1.974676,3.9466404 c 0.07883,0.157492 0.231256,0.266665 0.407523,0.291785 l 4.415161,0.632849 -3.195081,3.072033 c -0.127442,0.122506 -0.185621,0.299038 -0.155504,0.47205 l 0.754271,4.337785 -2.267517,-1.175832 c -0.264292,-0.13712 -0.591251,-0.0368 -0.73021,0.223891 -0.138959,0.260692 -0.03736,0.583197 0.226984,0.720262 l 3.237255,1.678709 c 0.0791,0.04107 0.165453,0.06128 0.251532,0.06128 0.112086,0 0.223632,-0.03435 0.317821,-0.10192 0.166535,-0.119359 0.24991,-0.321597 0.215089,-0.521649 l -0.891391,-5.12658 3.776058,-3.630642 c 0.147394,-0.141706 0.20049,-0.353651 0.136851,-0.546717 z"
       id="path20"
       style="clip-rule:evenodd;fill:url(#linearGradient907);fill-opacity:1;fill-rule:evenodd;stroke-width:0.0537;stroke-linejoin:round;stroke-miterlimit:1.41421" />
    <path
       d="m 15.98531,28.999997 c -0.6952,0 -1.39038,-0.0604 -2.08557,-0.1813 -7.0728098,-1.14825 -11.8786798,-7.82622 -10.7301098,-14.89702 0.54406,-3.41453 2.41805,-6.4362398 5.22904,-8.4607798 2.8109798,-2.02454 6.2567098,-2.8404 9.6721998,-2.2965 7.07281,1.14825 11.90891,7.8262198 10.76033,14.8970198 -0.21158,1.35977 -0.63473,2.6591 -1.26947,3.86779 -0.15113,0.30217 -0.30226,0.57412 -0.48361,0.84607 -0.27203,0.42304 -0.81609,0.57413 -1.23926,0.30217 -0.42315,-0.27195 -0.57428,-0.81586 -0.30225,-1.2389 0.15113,-0.24173 0.27203,-0.48347 0.42316,-0.72521 0.54406,-1.02738 0.90677,-2.17563 1.08812,-3.32387 0.96722,-6.07364 -3.17369,-11.8450998 -9.27927,-12.8120398 -2.96212,-0.48348 -5.894,0.21151 -8.3422798,1.96411 -2.41805,1.75259 -4.02001,4.3210398 -4.50362,7.2823098 -0.99745,6.07363 3.17369,11.84509 9.2490498,12.81204 2.5994,0.42304 5.25926,-0.0907 7.49596,-1.4202 0.42315,-0.24174 0.99744,-0.12087 1.23925,0.30217 0.2418,0.42304 0.1209,0.99716 -0.30226,1.2389 -1.99489,1.20868 -4.29204,1.84324 -6.61941,1.84324 z"
       id="path2-75"
       style="fill:url(#linearGradient17);stroke-width:0.302213" />
  </g>
  <g
     id="22-22-bookmarks"
     transform="translate(32,10)">
    <rect
       y="0"
       x="0"
       height="22"
       width="22"
       id="rect820-6"
       style="clip-rule:evenodd;fill:#2020ff;fill-opacity:0;fill-rule:evenodd;stroke-width:0.6875;stroke-linejoin:round;stroke-miterlimit:1.41421" />
    <path
       d="m 11.146829,14.121168 c -0.187725,-0.09875 -0.419962,-0.02661 -0.518664,0.161102 -0.09874,0.187671 -0.02658,0.419802 0.161149,0.518513 l 0.0025,0.0013 c 0.05688,0.02987 0.117674,0.04404 0.177624,0.04404 0.137875,0 0.270988,-0.07498 0.339772,-0.205831 0.0987,-0.187632 0.02531,-0.420454 -0.162416,-0.519166 z"
       id="path14-7-3"
       style="clip-rule:evenodd;fill:url(#linearGradient5);fill-opacity:1;fill-rule:evenodd;stroke-width:0.0383997;stroke-linejoin:round;stroke-miterlimit:1.41421" />
    <path
       d="M 17.518081,9.1326679 C 17.469127,8.9841563 17.338986,8.8758904 17.182309,8.8534496 L 13.16814,8.2781103 11.372946,4.6901991 C 11.302905,4.5501795 11.15829,4.4615238 10.999991,4.4615238 c -0.158299,0 -0.302873,0.088656 -0.372956,0.2286753 L 8.8318416,8.2781103 4.8176729,8.8534496 C 4.6609958,8.8759314 4.5308129,8.9841563 4.4819007,9.1326679 4.4329885,9.2811796 4.4737902,9.4442143 4.58717,9.5532186 l 2.9046605,2.7927994 -0.6856857,3.943519 c -0.026785,0.153927 0.03735,0.309495 0.165453,0.401269 0.1280617,0.09177 0.2978403,0.103917 0.4380053,0.03122 L 9.9649324,15.396908 C 10.168276,15.291514 10.246427,15.043433 10.139536,14.842902 10.032686,14.64237 9.7811374,14.565324 9.5778773,14.670677 l -1.8094184,0.938291 0.5802084,-3.336755 c 0.023167,-0.133086 -0.021586,-0.26888 -0.1196186,-0.363115 L 5.7712943,9.5459981 9.1678633,9.0591506 C 9.3033285,9.0397456 9.42041,8.9558078 9.4810095,8.834742 L 10.999991,5.7988676 12.518972,8.834742 c 0.06064,0.1211478 0.177889,0.2051267 0.313479,0.2244496 l 3.396278,0.4868065 -2.457754,2.3630999 c -0.09803,0.09423 -0.142786,0.230029 -0.119619,0.363115 l 0.580209,3.336755 -1.744244,-0.904486 c -0.203302,-0.105476 -0.454809,-0.02831 -0.5617,0.172224 -0.106892,0.200532 -0.02874,0.448612 0.174603,0.554048 l 2.490196,1.291313 c 0.06085,0.03159 0.127272,0.04714 0.193486,0.04714 0.08622,0 0.172025,-0.02642 0.244478,-0.0784 0.128103,-0.09181 0.192238,-0.247383 0.165453,-0.401269 l -0.685686,-3.943519 2.904661,-2.7927994 c 0.11338,-0.1090043 0.154223,-0.272039 0.105269,-0.4205507 z"
       id="path20-9"
       style="clip-rule:evenodd;fill:url(#linearGradient7);fill-opacity:1;fill-rule:evenodd;stroke-width:0.0413077;stroke-linejoin:round;stroke-miterlimit:1.41421" />
    <path
       d="M 10.988701,21 C 10.453923,21 9.9191649,20.95348 9.3844139,20.860536 3.9437809,19.977273 0.24695294,14.84036 1.1304889,9.4012983 c 0.418492,-2.626576 1.86002,-4.950973 4.022332,-6.508308 2.162283,-1.557332 4.812859,-2.18491204 7.4401461,-1.766532 5.440631,0.883254 9.160716,6.020172 8.277183,11.4592437 -0.162751,1.045989 -0.488249,2.045458 -0.976506,2.975222 -0.116265,0.232437 -0.232518,0.44163 -0.372009,0.650824 -0.209263,0.325414 -0.627763,0.44164 -0.953285,0.23244 -0.325498,-0.20919 -0.441752,-0.627581 -0.232498,-0.953001 0.116249,-0.185937 0.209249,-0.371885 0.325504,-0.557853 0.418516,-0.790284 0.697526,-1.673567 0.837016,-2.556827 0.744017,-4.6720187 -2.44129,-9.1116057 -7.137892,-9.8554057 -2.278567,-0.371921 -4.5338481,0.162689 -6.4171511,1.510838 -1.860028,1.348162 -3.092308,3.323891 -3.464318,5.601783 -0.767278,4.6720257 2.441292,9.1116137 7.114659,9.8554237 1.9995341,0.32541 4.0455821,-0.0697 5.7661171,-1.092454 0.325515,-0.185966 0.767265,-0.09298 0.953275,0.232425 0.186,0.325419 0.09296,0.767048 -0.232514,0.953 C 14.546024,20.511883 12.778977,21 10.988701,21 Z"
       id="path2-75-4"
       style="fill:url(#linearGradient9);stroke-width:0.232481" />
  </g>
</svg>
