<?xml version="1.0" encoding="UTF-8" standalone="no"?>
<svg
   width="32"
   height="32"
   version="1.1"
   id="svg12"
   sodipodi:docname="compass.svg"
   inkscape:version="1.3 (0e150ed6c4, 2023-07-21)"
   xmlns:inkscape="http://www.inkscape.org/namespaces/inkscape"
   xmlns:sodipodi="http://sodipodi.sourceforge.net/DTD/sodipodi-0.dtd"
   xmlns:xlink="http://www.w3.org/1999/xlink"
   xmlns="http://www.w3.org/2000/svg"
   xmlns:svg="http://www.w3.org/2000/svg"
   xmlns:rdf="http://www.w3.org/1999/02/22-rdf-syntax-ns#"
   xmlns:cc="http://creativecommons.org/ns#"
   xmlns:dc="http://purl.org/dc/elements/1.1/">
  <metadata
     id="metadata18">
    <rdf:RDF>
      <cc:Work
         rdf:about="">
        <dc:format>image/svg+xml</dc:format>
        <dc:type
           rdf:resource="http://purl.org/dc/dcmitype/StillImage" />
      </cc:Work>
    </rdf:RDF>
  </metadata>
  <defs
     id="defs16">
    <linearGradient
       inkscape:collect="always"
       id="linearGradient856">
      <stop
         style="stop-color:#00d4aa;stop-opacity:1"
         offset="0"
         id="stop852" />
      <stop
         style="stop-color:#00ccff;stop-opacity:1"
         offset="1"
         id="stop854" />
    </linearGradient>
    <linearGradient
       inkscape:collect="always"
       xlink:href="#linearGradient856"
       id="linearGradient858"
       x1="2.9999999"
       y1="15.999999"
       x2="28.999974"
       y2="15.999999"
       gradientUnits="userSpaceOnUse" />
    <linearGradient
       inkscape:collect="always"
       xlink:href="#linearGradient856"
       id="linearGradient866"
       x1="3.0654509"
       y1="8.8791552"
       x2="14.692717"
       y2="8.8791552"
       gradientUnits="userSpaceOnUse" />
    <linearGradient
       inkscape:collect="always"
       xlink:href="#linearGradient856"
       id="linearGradient874"
       x1="17.306961"
       y1="8.8791294"
       x2="28.934505"
       y2="8.8791294"
       gradientUnits="userSpaceOnUse" />
    <linearGradient
       inkscape:collect="always"
       xlink:href="#linearGradient856"
       id="linearGradient882"
       x1="17.307102"
       y1="23.120808"
       x2="28.934511"
       y2="23.120808"
       gradientUnits="userSpaceOnUse" />
    <linearGradient
       inkscape:collect="always"
       xlink:href="#linearGradient856"
       id="linearGradient890"
       x1="3.0654571"
       y1="23.120808"
       x2="14.692723"
       y2="23.120808"
       gradientUnits="userSpaceOnUse" />
    <linearGradient
       inkscape:collect="always"
       xlink:href="#linearGradient856"
       id="linearGradient898"
       x1="8.5819607"
       y1="10.71858"
       x2="12.855199"
       y2="10.71858"
       gradientUnits="userSpaceOnUse" />
    <linearGradient
       inkscape:collect="always"
       xlink:href="#linearGradient856"
       id="linearGradient906"
       x1="19.144903"
       y1="10.718556"
       x2="23.418003"
       y2="10.718556"
       gradientUnits="userSpaceOnUse" />
    <linearGradient
       inkscape:collect="always"
       xlink:href="#linearGradient856"
       id="linearGradient914"
       x1="8.5819559"
       y1="21.281391"
       x2="12.855225"
       y2="21.281391"
       gradientUnits="userSpaceOnUse" />
    <linearGradient
       inkscape:collect="always"
       xlink:href="#linearGradient856"
       id="linearGradient922"
       x1="19.144903"
       y1="21.281395"
       x2="23.418007"
       y2="21.281395"
       gradientUnits="userSpaceOnUse" />
    <linearGradient
       inkscape:collect="always"
       xlink:href="#linearGradient856"
       id="linearGradient930"
       x1="0.99999994"
       y1="10.999999"
       x2="20.999989"
       y2="10.999999"
       gradientUnits="userSpaceOnUse" />
    <linearGradient
       inkscape:collect="always"
       xlink:href="#linearGradient856"
       id="linearGradient938"
       x1="1.050347"
       y1="5.5224247"
       x2="9.9943991"
       y2="5.5224247"
       gradientUnits="userSpaceOnUse" />
    <linearGradient
       inkscape:collect="always"
       xlink:href="#linearGradient856"
       id="linearGradient946"
       x1="12.005357"
       y1="5.5224042"
       x2="20.949631"
       y2="5.5224042"
       gradientUnits="userSpaceOnUse" />
    <linearGradient
       inkscape:collect="always"
       xlink:href="#linearGradient856"
       id="linearGradient954"
       x1="12.005467"
       y1="16.477547"
       x2="20.949633"
       y2="16.477547"
       gradientUnits="userSpaceOnUse" />
    <linearGradient
       inkscape:collect="always"
       xlink:href="#linearGradient856"
       id="linearGradient962"
       x1="1.05035"
       y1="16.477547"
       x2="9.9944048"
       y2="16.477547"
       gradientUnits="userSpaceOnUse" />
    <linearGradient
       inkscape:collect="always"
       xlink:href="#linearGradient856"
       id="linearGradient970"
       x1="5.2938027"
       y1="15.062615"
       x2="8.5809422"
       y2="15.062615"
       gradientUnits="userSpaceOnUse" />
    <linearGradient
       inkscape:collect="always"
       xlink:href="#linearGradient856"
       id="linearGradient978"
       x1="5.2938032"
       y1="6.9373617"
       x2="8.580924"
       y2="6.9373617"
       gradientUnits="userSpaceOnUse" />
    <linearGradient
       inkscape:collect="always"
       xlink:href="#linearGradient856"
       id="linearGradient986"
       x1="13.41916"
       y1="6.9373507"
       x2="16.706158"
       y2="6.9373507"
       gradientUnits="userSpaceOnUse" />
    <linearGradient
       inkscape:collect="always"
       xlink:href="#linearGradient856"
       id="linearGradient994"
       x1="13.41916"
       y1="15.062609"
       x2="16.706156"
       y2="15.062609"
       gradientUnits="userSpaceOnUse" />
  </defs>
  <sodipodi:namedview
     pagecolor="#280b17"
     bordercolor="#000000"
     borderopacity="1"
     objecttolerance="10"
     gridtolerance="10"
     guidetolerance="10"
     inkscape:pageopacity="0"
     inkscape:pageshadow="2"
     inkscape:window-width="1920"
     inkscape:window-height="994"
     id="namedview14"
     showgrid="true"
     inkscape:zoom="9.8125003"
     inkscape:cx="24.560509"
     inkscape:cy="18.598726"
     inkscape:window-x="0"
     inkscape:window-y="0"
     inkscape:window-maximized="1"
     inkscape:current-layer="svg12"
     inkscape:document-rotation="0"
     inkscape:lockguides="false"
     inkscape:showpageshadow="2"
     inkscape:pagecheckerboard="true"
     inkscape:deskcolor="#280b17">
    <inkscape:grid
       type="xygrid"
       id="grid880"
       originx="32"
       originy="9.9999997"
       spacingy="1"
       spacingx="1"
       units="px"
       visible="true" />
  </sodipodi:namedview>
  <g
     id="compass">
    <path
       style="clip-rule:evenodd;fill:#ffffc1;fill-opacity:0;fill-rule:evenodd;stroke-width:1.00213;stroke-linejoin:round;stroke-miterlimit:1.41421"
       d="M 0,0 V 32 H 32 V 0 Z"
       id="rect817"
       inkscape:connector-curvature="0" />
    <path
       d="m 23.192659,8.6092933 -4.047755,2.9611067 0.21127,1.073544 1.073354,0.211201 2.961141,-4.0478247 a 0.14169401,0.14169401 0 0 0 -0.19801,-0.198027 z"
       id="path4-36"
       style="stroke-width:0.288888;fill-opacity:1.0;fill:url(#linearGradient906)" />
    <path
       d="m 23.390669,23.19266 -2.961141,-4.047879 -1.073354,0.211201 -0.21127,1.073616 4.047755,2.961072 a 0.14168535,0.14168535 0 0 0 0.19801,-0.19801 z"
       id="path6-7"
       style="stroke-width:0.288888;fill-opacity:1.0;fill:url(#linearGradient922)" />
    <path
       d="M 8.609293,8.8073203 11.570454,12.8552 12.643984,12.643944 12.855199,11.570472 8.80732,8.6092933 a 0.14169979,0.14169979 0 0 0 -0.198027,0.198027 z"
       id="path8"
       style="stroke-width:0.288888;fill-opacity:1.0;fill:url(#linearGradient898)" />
    <path
       d="m 8.80732,23.39067 4.047905,-2.961176 -0.211253,-1.073509 -1.073495,-0.211218 -2.961193,4.047905 A 0.14169112,0.14169112 0 0 0 8.80732,23.39067 Z"
       id="path10"
       style="stroke-width:0.288888;fill-opacity:1.0;fill:url(#linearGradient914)" />
    <path
       d="m 27.442107,14.399176 1.492398,0.293666 A 13.003554,13.003554 0 0 0 17.306961,3.0654164 l 0.293684,1.4924382 a 11.577537,11.577537 0 0 1 9.841462,9.8413214 z"
       id="path12"
       style="stroke-width:0.288888;fill-opacity:1.0;fill:url(#linearGradient874)" />
    <path
       d="M 17.307103,28.934529 A 13.003482,13.003482 0 0 0 28.934511,17.307087 l -1.492398,0.293666 a 11.577595,11.577595 0 0 1 -9.841326,9.841338 z"
       id="path14"
       style="stroke-width:0.288888;fill-opacity:1.0;fill:url(#linearGradient882)" />
    <path
       d="M 14.399105,4.5578719 14.692717,3.0654337 A 13.003517,13.003517 0 0 0 3.065451,14.692877 L 4.557848,14.39921 a 11.577557,11.577557 0 0 1 9.841257,-9.8413381 z"
       id="path16"
       style="stroke-width:0.288888;fill-opacity:1.0;fill:url(#linearGradient866)" />
    <path
       d="M 4.557854,17.600753 3.065457,17.307087 A 13.003499,13.003499 0 0 0 14.692723,28.934529 L 14.399105,27.442091 A 11.577557,11.577557 0 0 1 4.557854,17.600753 Z"
       id="path18"
       style="stroke-width:0.288888;fill-opacity:1.0;fill:url(#linearGradient890)" />
    <path
       d="m 3.114328,16.139012 10.650812,2.095828 2.095828,10.65083 a 0.14168823,0.14168823 0 0 0 0.278043,0 l 2.095811,-10.65083 10.650812,-2.095828 a 0.14168535,0.14168535 0 0 0 0,-0.278043 L 18.234822,13.765158 16.139011,3.1143281 a 0.14168823,0.14168823 0 0 0 -0.278043,0 L 13.76514,13.765158 3.114328,15.860969 a 0.14168823,0.14168823 0 0 0 0,0.278043 z m 11.479667,-0.364106 a 1.4238879,1.4238879 0 1 1 1.630923,1.631096 1.4299343,1.4299343 0 0 1 -1.630923,-1.631096 z"
       id="path20"
       style="fill:url(#linearGradient858);stroke-width:0.288888;fill-opacity:1" />
  </g>
  <g
     id="22-22-compass"
     transform="translate(32,9.9999997)">
    <path
       style="clip-rule:evenodd;fill:#ffffc1;fill-opacity:0;fill-rule:evenodd;stroke-width:0.688964;stroke-linejoin:round;stroke-miterlimit:1.41421"
       d="M 0,0 V 22 H 22 V 0 Z"
       id="rect817-5"
       inkscape:connector-curvature="0" />
    <path
       d="m 16.532821,5.3148375 -3.113661,2.2777781 0.162516,0.8258028 0.825655,0.162463 2.277801,-3.1137119 a 0.10899542,0.10899542 0 0 0 -0.152311,-0.152332 z"
       id="path4-36-5"
       style="stroke-width:0.222226;fill-opacity:1.0;fill:url(#linearGradient986)" />
    <path
       d="m 16.685132,16.532817 -2.277801,-3.113753 -0.825655,0.162462 -0.162516,0.825859 3.113661,2.277747 a 0.10898874,0.10898874 0 0 0 0.152311,-0.152315 z"
       id="path6-7-3"
       style="stroke-width:0.222226;fill-opacity:1.0;fill:url(#linearGradient994)" />
    <path
       d="M 5.31484,5.4671695 7.59266,8.5809235 8.41845,8.4184184 8.580924,7.5926705 5.467174,5.3148375 A 0.10899984,0.10899984 0 0 0 5.31484,5.4671695 Z"
       id="path8-5"
       style="stroke-width:0.222226;fill-opacity:1.0;fill:url(#linearGradient978)" />
    <path
       d="M 5.467174,16.685132 8.580942,14.407304 8.418444,13.581529 7.592677,13.419053 5.314832,16.532826 a 0.10899316,0.10899316 0 0 0 0.152342,0.152306 z"
       id="path10-6"
       style="stroke-width:0.222226;fill-opacity:1.0;fill:url(#linearGradient970)" />
    <path
       d="M 19.801629,9.768598 20.94963,9.994495 A 10.002735,10.002735 0 0 0 12.005357,1.0503135 l 0.22591,1.148035 a 8.9057993,8.9057993 0 0 1 7.570362,7.5702495 z"
       id="path12-2"
       style="stroke-width:0.222226;fill-opacity:1.0;fill:url(#linearGradient946)" />
    <path
       d="m 12.005467,20.94964 a 10.002684,10.002684 0 0 0 8.944165,-8.944187 l -1.147999,0.225897 a 8.9058446,8.9058446 0 0 1 -7.570256,7.570261 z"
       id="path14-9"
       style="stroke-width:0.222226;fill-opacity:1.0;fill:url(#linearGradient954)" />
    <path
       d="M 9.768541,2.1983595 9.994399,1.0503275 A 10.002701,10.002701 0 0 0 1.050347,9.994522 L 2.198344,9.768624 A 8.9058173,8.9058173 0 0 1 9.768541,2.1983595 Z"
       id="path16-1"
       style="stroke-width:0.222226;fill-opacity:1.0;fill:url(#linearGradient938)" />
    <path
       d="M 2.198349,12.23135 1.05035,12.005453 A 10.002694,10.002694 0 0 0 9.994405,20.94964 L 9.768541,19.801611 A 8.9058173,8.9058173 0 0 1 2.198349,12.23135 Z"
       id="path18-2"
       style="stroke-width:0.222226;fill:url(#linearGradient962);fill-opacity:1.0" />
    <path
       d="m 1.087944,11.106933 8.192939,1.612176 1.612172,8.192947 a 0.10899096,0.10899096 0 0 0 0.213878,0 l 1.612163,-8.192947 8.192939,-1.612176 a 0.10898874,0.10898874 0 0 0 0,-0.213879 L 12.719096,9.2808907 11.106933,1.0879415 a 0.10899096,0.10899096 0 0 0 -0.213878,0 L 9.280883,9.2808907 1.087944,10.893054 a 0.10899096,0.10899096 0 0 0 0,0.213879 z m 8.830518,-0.280081 a 1.0952984,1.0952984 0 1 1 1.254558,1.25469 1.0999496,1.0999496 0 0 1 -1.254558,-1.25469 z"
       id="path20-7"
       style="fill:url(#linearGradient930);stroke-width:0.222226;fill-opacity:1.0" />
  </g>
</svg>
