<?xml version="1.0" encoding="UTF-8" standalone="no"?>
<svg
   width="32"
   height="32"
   version="1.1"
   id="svg22"
   sodipodi:docname="computer.svg"
   inkscape:version="1.3 (0e150ed6c4, 2023-07-21)"
   xmlns:inkscape="http://www.inkscape.org/namespaces/inkscape"
   xmlns:sodipodi="http://sodipodi.sourceforge.net/DTD/sodipodi-0.dtd"
   xmlns:xlink="http://www.w3.org/1999/xlink"
   xmlns="http://www.w3.org/2000/svg"
   xmlns:svg="http://www.w3.org/2000/svg"
   xmlns:rdf="http://www.w3.org/1999/02/22-rdf-syntax-ns#"
   xmlns:cc="http://creativecommons.org/ns#"
   xmlns:dc="http://purl.org/dc/elements/1.1/">
  <metadata
     id="metadata28">
    <rdf:RDF>
      <cc:Work
         rdf:about="">
        <dc:format>image/svg+xml</dc:format>
        <dc:type
           rdf:resource="http://purl.org/dc/dcmitype/StillImage" />
      </cc:Work>
    </rdf:RDF>
  </metadata>
  <defs
     id="defs26">
    <linearGradient
       id="linearGradient1"
       inkscape:collect="always">
      <stop
         style="stop-color:#7f2aff;stop-opacity:1"
         offset="0"
         id="stop1" />
      <stop
         style="stop-color:#00b5b5;stop-opacity:1;"
         offset="1"
         id="stop2" />
    </linearGradient>
    <linearGradient
       inkscape:collect="always"
       xlink:href="#linearGradient4-6"
       id="linearGradient916"
       gradientUnits="userSpaceOnUse"
       gradientTransform="matrix(0.11026884,0,0,0.1206031,-38.836667,-2.717592)"
       x1="417.91367"
       y1="254.69986"
       x2="642.39966"
       y2="83.85688" />
    <linearGradient
       inkscape:collect="always"
       xlink:href="#linearGradient1"
       id="linearGradient2"
       x1="1.0000001"
       y1="29.000002"
       x2="30.999998"
       y2="3"
       gradientUnits="userSpaceOnUse" />
    <linearGradient
       inkscape:collect="always"
       xlink:href="#linearGradient1"
       id="linearGradient4"
       x1="4.1579232"
       y1="19.250053"
       x2="27.842009"
       y2="19.250053"
       gradientUnits="userSpaceOnUse" />
    <linearGradient
       inkscape:collect="always"
       xlink:href="#linearGradient1"
       id="linearGradient6"
       x1="15.210519"
       y1="21.687557"
       x2="16.789412"
       y2="21.687557"
       gradientUnits="userSpaceOnUse" />
    <linearGradient
       inkscape:collect="always"
       xlink:href="#linearGradient1"
       id="linearGradient6-8"
       x1="15.210519"
       y1="21.687557"
       x2="16.789412"
       y2="21.687557"
       gradientUnits="userSpaceOnUse"
       gradientTransform="matrix(0.63335461,0,0,0.61542623,0.86634201,2.1529198)" />
    <linearGradient
       inkscape:collect="always"
       xlink:href="#linearGradient1"
       id="linearGradient2-3"
       x1="1.0000001"
       y1="29.000002"
       x2="30.999998"
       y2="3"
       gradientUnits="userSpaceOnUse"
       gradientTransform="matrix(0.73333318,0,0,0.76923012,-0.7333368,-1.307672)" />
    <linearGradient
       id="linearGradient4-6"
       inkscape:collect="always"
       gradientTransform="matrix(2.7996816,0,0,0.20148787,-0.7333368,-1.307672)"
       x1="1.0891033"
       y1="70.39003"
       x2="7.2927814"
       y2="70.39003"
       gradientUnits="userSpaceOnUse">
      <stop
         style="stop-color:#7f2aff;stop-opacity:1"
         offset="0"
         id="stop3" />
      <stop
         style="stop-color:#00b5b5;stop-opacity:1;"
         offset="1"
         id="stop4" />
    </linearGradient>
    <linearGradient
       inkscape:collect="always"
       xlink:href="#linearGradient1"
       id="linearGradient5"
       x1="4.1579232"
       y1="19.250053"
       x2="27.842009"
       y2="19.250053"
       gradientUnits="userSpaceOnUse" />
    <linearGradient
       inkscape:collect="always"
       xlink:href="#linearGradient4-6"
       id="linearGradient3"
       gradientUnits="userSpaceOnUse"
       gradientTransform="matrix(0.07580987,0,0,0.08040208,-26.700194,-1.478392)"
       x1="409.2103"
       y1="254.69978"
       x2="642.39917"
       y2="55.699951" />
    <linearGradient
       inkscape:collect="always"
       xlink:href="#linearGradient4-6"
       id="linearGradient7"
       gradientUnits="userSpaceOnUse"
       gradientTransform="matrix(2.7996816,0,0,0.20148787,-0.7333368,-1.307672)"
       x1="1.0891033"
       y1="70.39003"
       x2="7.2927814"
       y2="70.39003" />
  </defs>
  <sodipodi:namedview
     pagecolor="#280b17"
     bordercolor="#000000"
     borderopacity="1"
     objecttolerance="10"
     gridtolerance="10"
     guidetolerance="10"
     inkscape:pageopacity="0"
     inkscape:pageshadow="2"
     inkscape:window-width="1920"
     inkscape:window-height="994"
     id="namedview24"
     showgrid="true"
     inkscape:zoom="8"
     inkscape:cx="31.125"
     inkscape:cy="12.9375"
     inkscape:window-x="0"
     inkscape:window-y="0"
     inkscape:window-maximized="1"
     inkscape:current-layer="svg22"
     inkscape:document-rotation="0"
     inkscape:lockguides="false"
     inkscape:showpageshadow="2"
     inkscape:pagecheckerboard="true"
     inkscape:deskcolor="#280b17">
    <inkscape:grid
       id="grid1"
       units="px"
       originx="0"
       originy="-3.5144043e-07"
       spacingx="1"
       spacingy="1"
       empcolor="#0099e5"
       empopacity="0.30196078"
       color="#0099e5"
       opacity="0.14901961"
       empspacing="5"
       dotted="false"
       gridanglex="30"
       gridanglez="30"
       visible="true" />
  </sodipodi:namedview>
  <g
     id="computer-laptop"
     transform="translate(32,1.3e-5)">
    <rect
       style="opacity:0.00100002"
       width="32"
       height="32"
       x="0"
       y="-6.058992e-14"
       id="rect17" />
    <path
       style="fill:url(#linearGradient916);stroke-width:0.115307"
       inkscape:connector-curvature="0"
       d="M 29.044822,22.162806 V 20.860291 13.081394 5.302497 C 29.044822,4.590949 28.515528,4 27.864939,4 H 4.1571278 C 3.5065439,4 2.9662409,4.578892 2.9662409,5.302497 v 7.778897 7.778897 1.302515 L 0,26 c 0,1.073394 0.7939374,2 1.7753228,2 H 30.224679 c 0.981415,0 1.775322,-0.926606 1.775322,-2 z M 18.38182,27.348724 h -4.741569 c -0.1655,0 -0.297652,-0.144669 -0.297652,-0.325612 0,-0.180929 0.132454,-0.325636 0.297652,-0.325636 h 4.741569 c 0.165494,0 0.297644,0.144707 0.297644,0.325636 0,0.180943 -0.132346,0.325612 -0.297644,0.325612 z M 11,25.999987 l 1,-1 h 8 l 1,1 z m 16,-6 C 27,20.627111 26.91663,21 26.343205,21 H 5.667816 C 5.1054428,21 5,20.627111 5,19.999987 V 7.9999866 c 0,-2 0,-2 2,-2 h 18 c 2,0 2,0 2,2 z"
       id="path1015-9"
       sodipodi:nodetypes="cccssssccccssccssssssscccccsssssssss" />
  </g>
  <g
     id="computer">
    <rect
       style="opacity:0.00100002"
       width="32"
       height="32"
       x="0"
       y="0"
       id="rect12" />
    <ellipse
       cx="15.999966"
       cy="21.687557"
       id="circle2-3"
       style="fill:url(#linearGradient6);stroke-width:0.0688278"
       rx="0.78944683"
       ry="0.81247818" />
    <path
       d="M 28.631522,3 H 3.3684086 C 2.0626597,3 1.0000001,4.0928237 1.0000001,5.4375045 V 22.500106 C 1.0000001,23.844019 2.0626597,25 3.3684086,25 H 10.274 c 0.436584,0 0.989081,-0.526504 0.989081,-0.974987 C 11.263081,23.57653 10.710584,23 10.274,23 H 3.3684086 C 2.9326388,23 3,22.947821 3,22.500176 V 5.4375045 C 3,4.9897896 3.5642302,5 4,5 h 24 c 0.43577,0 1,0.5523549 1,1 v 16 c 0,0.447715 -0.56423,1 -1,1 H 14 c -1,0 -1.15789,0.676579 -1.15789,1.125062 v 3.249983 h -0.789447 c -0.436584,0 -0.789447,0.363995 -0.789447,0.812478 0,0.448483 0.352863,0.812479 0.789447,0.812479 h 7.89474 c 0.436584,0 0.789447,-0.363996 0.789447,-0.812479 0,-0.448483 -0.352863,-0.812478 -0.789447,-0.812478 L 19,27.375013 V 25 l 9.63159,-0.06246 c 1.30579,-0.0085 2.368409,-1.093662 2.368409,-2.437505 V 5.4375045 C 30.999931,4.0928237 29.937271,3 28.631522,3 Z M 17,27 h -2 v -2 h 2 z"
       id="path4-6"
       sodipodi:nodetypes="sssssssssssssssssscssssssccsscsccccc"
       style="fill:url(#linearGradient2);stroke-width:0.0688278" />
    <path
       d="M 27.052561,18.437575 H 4.9473701 c -0.4365839,0 -0.7894468,0.363995 -0.7894468,0.812478 0,0.448483 0.3528629,0.812479 0.7894468,0.812479 H 27.052561 c 0.436584,0 0.789447,-0.363996 0.789447,-0.812479 0,-0.448483 -0.352863,-0.812478 -0.789447,-0.812478 z"
       id="path6-7"
       style="fill:url(#linearGradient4);stroke-width:0.0688278" />
  </g>
  <g
     id="22-22-computer"
     transform="translate(0,-21.999987)">
    <rect
       style="opacity:0.00100002"
       width="22"
       height="22"
       x="0"
       y="3.5144043e-07"
       id="rect7" />
    <ellipse
       cx="11"
       cy="15.500008"
       id="circle2-3-1"
       style="fill:url(#linearGradient6-8);stroke-width:0.0429711"
       rx="0.5"
       ry="0.5000205" />
    <path
       d="M 20.263121,1.000014 H 1.7368332 C 0.7792834,1.000014 0,1.840645 0,2.875018 V 16.000083 C 0,17.445847 1,18 1.7368332,18 H 6.9473308 C 7.2674923,18 7.5262584,17.844988 7.5262584,17.5 7.5262584,17.155012 7.3201616,16.999987 7,16.999987 H 2 c -1,0 -1,-0.655696 -1,-1 V 2.9999866 c 0,-0.344395 0,-1 1,-1 h 18 c 0.599811,0 1,0.3244448 1,1 V 15.691816 c 0,0.573694 0,1.308171 -1,1.308171 H 10 c -1,0 -0.938738,0.660495 -1,1 v 1.750045 H 8.1052854 c -0.3201614,0 -0.5789273,0.28 -0.5789273,0.624989 C 7.5263581,20.720004 7.785124,21 8.1052854,21 h 5.7894756 c 0.320161,0 0.578927,-0.279996 0.578927,-0.624979 0,-0.344989 -0.258766,-0.624989 -0.578927,-0.624989 L 13,19.75 v -1.750013 h 7 c 1.288816,0 2,-0.866265 2,-1.899987 V 2.875002 C 21.999949,1.84063 21.220661,0.999998 20.263121,1 Z M 12,19.461537 h -1.733334 v -1.46155 H 12 Z"
       id="path4-6-2"
       sodipodi:nodetypes="cssssssssssssssssscssssssccsscscccccc"
       style="fill:url(#linearGradient2-3);stroke-width:0.0516945" />
    <path
       d="M 19.105214,13 H 2.8947381 C 2.5745757,13 2.31581,13.155056 2.31581,13.500045 2.31581,13.845034 2.5745757,14 2.894738,14 h 16.210476 c 0.320158,0 0.578923,-0.154966 0.578923,-0.499955 C 19.684137,13.155056 19.425372,13 19.105214,13 Z"
       id="path6-7-9"
       style="fill:url(#linearGradient7);stroke-width:0.0516945"
       sodipodi:nodetypes="sssssss" />
  </g>
  <g
     id="22-22-computer-laptop"
     transform="translate(32,-21.999987)">
    <rect
       style="opacity:0.00100002"
       width="22"
       height="22"
       x="0"
       y="3.5144043e-07"
       id="rect2" />
    <path
       style="fill:url(#linearGradient3);stroke-width:0.0780657"
       inkscape:connector-curvature="0"
       d="M 19.968322,15.108542 V 14.240199 13.059126 9.054272 3.868337 C 19.968322,3.393967 19.604424,3 19.15714,3 H 2.8580291 C 2.410753,3 2.0392956,3.385932 2.0392956,3.868337 v 5.185935 5.185927 0.868343 L 4.76e-6,17.666666 C 4.76e-6,18.382264 0.54583646,19 1.2205385,19 H 20.779472 c 0.674724,0 1.220533,-0.617736 1.220533,-1.333334 z m -7.330823,3.457274 H 9.3776744 c -0.1137808,0 -0.2046358,-0.09645 -0.2046358,-0.217075 0,-0.12062 0.09106,-0.21709 0.2046358,-0.21709 h 3.2598246 c 0.113785,0 0.204638,0.09648 0.204638,0.21709 0,0.120628 -0.091,0.217075 -0.204638,0.217075 z M 7.5625035,17.666658 8.2500029,16.999991 h 5.5000011 l 0.687497,0.666667 z M 19,13.999987 c 0,1 0,1 -1,1 H 4 c -1,0 -1,0 -1,-1 V 4.9999866 c 0,-1 0,-1 1,-1 h 14 c 1,0 1,0 1,1 z"
       id="path1015-9-4"
       sodipodi:nodetypes="ccccssssccccssccssssssscccccsssssscss" />
  </g>
</svg>
