<?xml version="1.0" encoding="UTF-8" standalone="no"?>
<svg
   inkscape:version="1.3 (0e150ed6c4, 2023-07-21)"
   sodipodi:docname="configure.svg"
   viewBox="0 0 32 32"
   version="1.1"
   height="32"
   width="32"
   id="svg"
   xmlns:inkscape="http://www.inkscape.org/namespaces/inkscape"
   xmlns:sodipodi="http://sodipodi.sourceforge.net/DTD/sodipodi-0.dtd"
   xmlns="http://www.w3.org/2000/svg"
   xmlns:svg="http://www.w3.org/2000/svg"
   xmlns:rdf="http://www.w3.org/1999/02/22-rdf-syntax-ns#"
   xmlns:cc="http://creativecommons.org/ns#"
   xmlns:dc="http://purl.org/dc/elements/1.1/">
  <sodipodi:namedview
     inkscape:bbox-nodes="true"
     inkscape:snap-bbox="true"
     inkscape:current-layer="svg"
     inkscape:window-maximized="1"
     inkscape:window-y="0"
     inkscape:window-x="0"
     inkscape:cy="17.789863"
     inkscape:cx="31.270763"
     inkscape:zoom="8.1226033"
     showgrid="true"
     id="namedview15"
     inkscape:window-height="994"
     inkscape:window-width="1920"
     inkscape:pageshadow="2"
     inkscape:pageopacity="0"
     guidetolerance="10"
     gridtolerance="10"
     objecttolerance="10"
     borderopacity="1"
     bordercolor="#000000"
     pagecolor="#280b17"
     inkscape:pagecheckerboard="true"
     inkscape:snap-center="true"
     inkscape:snap-object-midpoints="true"
     inkscape:snap-nodes="true"
     inkscape:showpageshadow="true"
     inkscape:deskcolor="#280b17">
    <inkscape:grid
       id="grid1"
       units="px"
       originx="0"
       originy="0"
       spacingx="1"
       spacingy="1"
       empcolor="#0099e5"
       empopacity="0.30196078"
       color="#0099e5"
       opacity="0.14902"
       empspacing="5"
       dotted="false"
       gridanglex="30"
       gridanglez="30"
       visible="true" />
  </sodipodi:namedview>
  <metadata
     id="metadata23">
    <rdf:RDF>
      <cc:Work
         rdf:about="">
        <dc:format>image/svg+xml</dc:format>
        <dc:type
           rdf:resource="http://purl.org/dc/dcmitype/StillImage" />
      </cc:Work>
    </rdf:RDF>
  </metadata>
  <defs
     id="defs3">
    <style
       type="text/css"
       id="current-color-scheme">.ColorScheme-Text { color:#333333; }&#10;.ColorScheme-Highlight { color:#5294e2; }&#10;.ColorScheme-ButtonBackground { color:#f5f5f5; }&#10;</style>
  </defs>
  <g
     id="configure">
    <rect
       style="opacity:0.003;fill:#000000;fill-opacity:1;stroke-width:1.45455"
       x="0"
       y="0"
       width="32"
       height="32"
       fill="none"
       id="rect15-0" />
    <path
       id="path1458"
       d="M 16.000002,12 C 13.802708,12 12,13.802704 12,16 c 0,2.197295 1.802708,4 4.000002,4 C 18.197297,20 20,18.197295 20,16 20,13.802704 18.197297,12 16.000002,12 Z m 0,1.999999 L 16,14 v 0 0 z"
       style="color:#333333;fill:#d3dae3;fill-opacity:1;stroke-width:1.00002"
       sodipodi:nodetypes="sssssccccc" />
    <path
       d="m 15.263924,4 c -0.889331,-1.5e-5 -1.741379,0.345785 -2.368768,0.958767 -0.627386,0.612917 -0.97938,1.44486 -0.975117,2.309567 V 7.247004 C 11.911325,7.848275 11.431111,8.307573 10.813451,8.31017 10.637458,8.30747 10.465695,8.26145 10.313837,8.173814 l -0.0084,-0.0039 -0.0065,-0.0039 C 8.7050476,7.27817 6.6401895,7.820324 5.7232617,9.367677 l -0.7735219,1.235744 -0.00665,0.01036 c -0.9158433,1.545463 -0.3651485,3.551836 1.220542,4.44868 h 0.00205 v 0.002 c 0.34531,0.193822 0.5565806,0.547506 0.5565806,0.935328 0,0.387648 -0.2112746,0.741513 -0.5565806,0.935333 -1.586123,0.892141 -2.1385104,2.896952 -1.2227356,4.440157 l 0.00205,0.002 0.7253156,1.2187 c 0.4324893,0.758815 1.1598771,1.318236 2.0181551,1.555332 0.8582841,0.237271 1.7789381,0.132335 2.5572201,-0.291888 l 0.0084,-0.0039 0.0084,-0.0039 c 0.251327,-0.142605 0.54914,-0.18185 0.830494,-0.108663 0.281201,0.07315 0.519388,0.252811 0.663955,0.498561 l 0.0039,0.0065 0.0039,0.0084 c 0.0913,0.14951 0.140575,0.318238 0.142434,0.492168 v -0.01036 C 11.907741,26.526752 13.422857,28 15.262579,28 h 1.463771 c 1.833746,1.69e-4 3.348321,-1.464219 3.357031,-3.247027 v -0.0039 -0.0065 c -0.0012,-0.286443 0.114179,-0.558388 0.322117,-0.760622 0.206204,-0.200493 0.484029,-0.310563 0.775708,-0.311067 0.184096,0.0076 0.363559,0.05589 0.523715,0.144882 l -0.002,-0.002 c 1.588485,0.889845 3.649961,0.355051 4.573188,-1.184608 l 0.766947,-1.242137 0.0039,-0.0065 c 0.447805,-0.747416 0.569001,-1.637606 0.339646,-2.47362 h 0.002 c -0.229228,-0.835822 -0.793473,-1.549975 -1.564505,-1.981318 -0.254268,-0.142213 -0.439282,-0.376099 -0.51495,-0.651962 -0.07561,-0.275511 -0.03588,-0.567541 0.111756,-0.813888 l 0.002,-0.0039 0.002,-0.0039 c 0.0944,-0.160335 0.231505,-0.291541 0.396624,-0.383508 l 0.0039,-0.002 0.0039,-0.0039 c 1.5763,-0.896475 2.125814,-2.889468 1.220542,-4.431636 l 0.146816,0.541172 V 10.869548 L 27.047988,10.615873 26.320487,9.390779 C 25.403546,7.843487 23.338702,7.301299 21.745109,8.189127 l -0.0039,0.0019 -0.0065,0.0039 C 21.482376,8.339359 21.183015,8.379378 20.899647,8.307847 20.616259,8.236277 20.375031,8.05916 20.22688,7.81355 l -0.002,-0.002 -0.002,-0.002 C 20.13158,7.660032 20.084506,7.489237 20.08262,7.31525 l -0.002,0.04264 C 20.106827,6.476946 19.765807,5.622642 19.134081,4.990793 18.502616,4.358201 17.632426,4.001057 16.72613,4.001435 Z m 0,2.181728 h 1.465959 c 0.300736,-1.28e-4 0.587922,0.118371 0.797625,0.32811 0.209686,0.209724 0.322016,0.491793 0.313355,0.784058 v 0.02133 0.02133 c 0.0054,0.557065 0.163678,1.10155 0.45578,1.580897 3.68e-4,6.02e-4 -3.64e-4,0.0014 0,0.002 0.449358,0.741712 1.182877,1.281401 2.040078,1.497808 0.859228,0.216899 1.774841,0.09296 2.539681,-0.345156 l -0.01316,0.0065 c 0.543113,-0.302577 1.203852,-0.128915 1.516361,0.398422 l 0.576305,0.96942 v 0.01036 l 0.146812,0.251409 c 0.308302,0.525203 0.13364,1.162672 -0.403191,1.467978 l 0.0084,-0.0039 c -0.509189,0.283614 -0.929947,0.69608 -1.222729,1.191003 -0.446074,0.746698 -0.570774,1.637003 -0.341838,2.471486 0.229243,0.835779 0.79101,1.550029 1.562375,1.981454 0.25436,0.142298 0.439335,0.374147 0.514952,0.649832 v 0.002 c 0.07539,0.274687 0.03502,0.565519 -0.111756,0.811758 -3.78e-4,6.35e-4 3.76e-4,0.0014 0,0.002 l -0.766945,1.240005 -0.0039,0.0065 c -0.314275,0.525308 -0.972498,0.697595 -1.514167,0.39416 l -0.002,-0.002 h -0.002 C 22.333428,21.649897 21.78731,21.500273 21.226977,21.485619 h -0.01316 -0.01316 c -0.891959,-0.0038 -1.74877,0.338898 -2.379724,0.952374 -0.63068,0.613391 -0.98354,1.446632 -0.979496,2.313825 v -0.01036 c -0.0026,0.607361 -0.486292,1.076049 -1.110972,1.075992 h -1.465953 c -0.627108,0 -1.110973,-0.470609 -1.110974,-1.080211 v -0.0065 -0.0039 c -0.0053,-0.554257 -0.164434,-1.09705 -0.453592,-1.574505 -0.441702,-0.746579 -1.168876,-1.294358 -2.024737,-1.516982 -0.858322,-0.223283 -1.774226,-0.105343 -2.5418787,0.33024 l 0.01752,-0.0084 c -0.2582937,0.140794 -0.5632642,0.17673 -0.8480211,0.09804 v -0.002 C 8.0181186,21.974542 7.7780613,21.791568 7.6345423,21.539756 l -0.004,-0.01036 -0.7428549,-1.242059 v -0.002 c -0.308578,-0.522325 -0.133257,-1.15767 0.4031934,-1.459405 1.035803,-0.582034 1.6763233,-1.661991 1.6763233,-2.825169 0,-1.162197 -0.6399633,-2.240635 -1.6741348,-2.823036 -0.5395864,-0.305182 -0.7158039,-0.946034 -0.4053819,-1.47224 3.935e-4,-6.73e-4 -4.029e-4,-0.0013 0,-0.002 l 0.7735163,-1.235743 0.00665,-0.01036 C 7.9803301,9.930078 8.6411733,9.756409 9.1842218,10.058962 l -0.015303,-0.0084 c 0.4933402,0.284696 1.0561532,0.439635 1.6303122,0.445293 h 0.0039 0.0065 c 1.821615,1.85e-4 3.328709,-1.446183 3.35484,-3.217196 v -0.0084 -0.01036 c -0.0013,-0.285058 0.112971,-0.558448 0.319836,-0.760544 0.206798,-0.202049 0.486902,-0.315333 0.780092,-0.315327 z"
       id="path1715"
       style="color:#333333;fill:#d3dae3;fill-opacity:1;stroke-width:1.10631" />
  </g>
  <g
     id="22-22-configure"
     transform="translate(32,10)">
    <rect
       id="rect5384"
       fill="none"
       height="22"
       width="22"
       y="0"
       x="0" />
    <path
       id="path1458-8"
       d="M 11.000001,8.5 C 9.6266923,8.5 8.5,9.6266907 8.5,11.000001 8.5,12.373314 9.6266923,13.5 11.000001,13.5 12.373308,13.5 13.5,12.373314 13.5,11.000001 13.5,9.6266907 12.373308,8.5 11.000001,8.5 Z m 0,1.2500007 -10e-7,1e-6 v 0 0 z"
       style="color:#333333;stroke-width:0.625011;fill:#d3dae3;fill-opacity:1"
       sodipodi:nodetypes="sssssccccc" />
    <path
       d="m 10.50347,3.0027372 c -0.5991801,-1.1e-5 -1.1732383,0.230478 -1.5959343,0.639056 -0.422693,0.408537 -0.659844,0.963059 -0.656974,1.539427 v -0.01414 c -0.0068,0.400774 -0.3294079,0.706911 -0.7455499,0.708647 -0.118576,-0.0025 -0.234297,-0.03252 -0.336614,-0.09085 l -0.0065,-0.0031 -0.0046,-0.0032 c -1.07387,-0.591783 -2.465044,-0.230417 -3.082816,0.800959 l -0.521155,0.823674 -0.0048,0.008 c -0.617037,1.030114 -0.246019,2.367446 0.822325,2.9652248 h 0.0021 v 0.002 c 0.232648,0.129188 0.374985,0.364932 0.374985,0.623434 0,0.258383 -0.14234,0.494244 -0.374985,0.623435 -1.068638,0.594653 -1.440801,1.930941 -0.823809,2.959549 l 0.0021,0.002 0.488675,0.812311 c 0.291384,0.505782 0.781451,0.87866 1.359708,1.036695 0.578265,0.158151 1.198544,0.08823 1.722903,-0.194555 l 0.0065,-0.0032 0.0065,-0.0032 c 0.169328,-0.09507 0.369976,-0.121209 0.559534,-0.07248 0.189458,0.04876 0.349932,0.168515 0.447335,0.332316 l 0.0031,0.0046 0.0032,0.0065 c 0.06155,0.09966 0.09469,0.212118 0.09597,0.328055 v -0.008 C 8.2450217,18.018018 9.2658127,19 10.505306,19 h 0.986203 c 1.235463,1.08e-4 2.25589,-0.975962 2.261763,-2.164278 v -0.0032 -0.0046 c -0.0012,-0.190927 0.07687,-0.372189 0.217023,-0.506986 0.138928,-0.133637 0.32611,-0.207002 0.522622,-0.207338 0.124034,0.0057 0.244947,0.03729 0.352849,0.09659 l -0.002,-0.002 c 1.070226,0.593117 2.45912,0.236657 3.08114,-0.789588 l 0.516719,-0.827938 0.0032,-0.0046 c 0.301701,-0.498181 0.383353,-1.091536 0.228832,-1.648769 h 0.002 c -0.15444,-0.55711 -0.534593,-1.033123 -1.054071,-1.320631 -0.171308,-0.09481 -0.295959,-0.250686 -0.346941,-0.43456 -0.05097,-0.183641 -0.02414,-0.378292 0.07527,-0.542489 l 0.002,-0.0032 0.002,-0.0031 c 0.06367,-0.106867 0.155977,-0.194319 0.267222,-0.255622 l 0.0032,-0.002 0.0031,-0.0032 c 1.062017,-0.5975348 1.432246,-1.9259468 0.822328,-2.9538668 l 0.09892,0.360712 v -0.2015 l -0.100183,-0.169085 -0.490145,-0.816577 c -0.617782,-1.031333 -2.008951,-1.392721 -3.082615,-0.800951 l -0.0032,0.0019 -0.0046,0.0032 c -0.170003,0.09627 -0.371696,0.122947 -0.562613,0.07529 -0.190932,-0.04762 -0.353454,-0.165762 -0.45327,-0.329475 l -0.002,-0.002 -0.002,-0.002 c -0.06155,-0.09966 -0.09318,-0.2135 -0.09453,-0.329473 l -0.002,0.02834 c 0.01759,-0.587186 -0.212104,-1.156613 -0.637723,-1.577768 -0.425678,-0.421438 -1.011961,-0.659483 -1.622564,-0.659237 z m 0,1.45421 h 0.987673 c 0.202618,-8.5e-5 0.396109,0.07897 0.537393,0.218698 0.141271,0.139794 0.216954,0.327803 0.211117,0.522608 v 0.01414 0.01415 c 0.0044,0.371306 0.110278,0.734224 0.307076,1.053731 2.54e-4,4e-4 -2.39e-4,0.0014 0,0.002 0.302751,0.494385 0.796953,0.854108 1.374482,0.998353 0.578898,0.144574 1.195782,0.06192 1.711084,-0.230056 l -0.0083,0.0046 c 0.365915,-0.201683 0.811081,-0.0859 1.021631,0.265568 l 0.388279,0.646156 v 0.008 l 0.09892,0.167573 c 0.207715,0.350065 0.08999,0.774971 -0.271648,0.978468 l 0.0065,-0.0032 c -0.343058,0.189038 -0.626536,0.463969 -0.823798,0.793851 -0.300538,0.4977058 -0.384553,1.0911328 -0.230311,1.6473518 0.154452,0.557078 0.532936,1.033157 1.052637,1.320718 0.17137,0.09487 0.295997,0.249384 0.346947,0.433139 v 0.002 c 0.05086,0.183088 0.02351,0.376938 -0.07527,0.541067 -2.54e-4,4.21e-4 2.58e-4,0.0014 0,0.002 l -0.516718,0.826516 -0.0031,0.0046 c -0.211739,0.35014 -0.65521,0.464977 -1.020154,0.262724 l -0.002,-0.002 h -0.002 c -0.327772,-0.180364 -0.695712,-0.280096 -1.07323,-0.289864 h -0.0083 -0.0083 c -0.600949,-0.0032 -1.178214,0.22589 -1.603314,0.634799 -0.424912,0.40885 -0.66265,0.964239 -0.659926,1.542259 v -0.008 c -0.0024,0.40483 -0.327631,0.717231 -0.748505,0.717194 h -0.9876 c -0.422508,0 -0.7485083,-0.313681 -0.7485083,-0.720007 v -0.0046 -0.0032 c -0.0044,-0.369429 -0.110783,-0.731228 -0.305608,-1.049464 -0.297586,-0.497634 -0.787515,-0.862744 -1.3641429,-1.01114 -0.578286,-0.148824 -1.195363,-0.07016 -1.712562,0.220121 l 0.01186,-0.0065 c -0.174024,0.09381 -0.379496,0.117794 -0.571346,0.06527 v -0.002 c -0.191822,-0.05239 -0.353558,-0.174411 -0.45025,-0.342253 l -0.0032,-0.0079 -0.500492,-0.827883 v -0.002 c -0.207896,-0.348149 -0.08977,-0.771634 0.271648,-0.972753 0.697865,-0.38795 1.129404,-1.107786 1.129404,-1.883092 0,-0.774653 -0.431166,-1.4934748 -1.127927,-1.8816668 -0.36354,-0.20342 -0.482264,-0.630575 -0.273125,-0.98131 2.69e-4,-4.46e-4 -2.66e-4,-0.0013 0,-0.002 l 0.52115,-0.823673 0.0047,-0.008 c 0.210526,-0.351472 0.655761,-0.467228 1.021633,-0.265566 l -0.0104,-0.0065 c 0.332382,0.189757 0.71157,0.29304 1.098405,0.296808 h 0.0031 0.0046 c 1.2272929,1.21e-4 2.2426809,-0.963938 2.2602879,-2.144389 v -0.0065 -0.0079 c -0.0013,-0.189997 0.07614,-0.372224 0.2154842,-0.506929 0.1393281,-0.134679 0.3280481,-0.210186 0.5255771,-0.210183 z"
       id="path1715-9"
       style="color:#333333;stroke-width:0.741367;fill:#d3dae3;fill-opacity:1" />
  </g>
  <g
     id="16-16-configure"
     transform="translate(54,16)">
    <rect
       style="stroke-width:0.727273"
       x="0"
       y="0"
       width="16"
       height="16"
       fill="none"
       id="rect15-2" />
    <path
       id="path1458-7"
       d="M 8.0122792,6 C 6.9068848,6 6,6.901353 6,8.0000024 6,9.0986514 6.9068848,10 8.0122792,10 9.1176678,10 10.02455,9.0986514 10.02455,8.0000024 10.02455,6.901353 9.1176678,6 8.0122792,6 Z m 0,0.9999985 z"
       style="color:#333333;stroke-width:0.501543;fill:#d3dae3;fill-opacity:1"
       sodipodi:nodetypes="sssssccccc" />
    <path
       d="m 7.5676303,1 c -0.52189,-1.4e-5 -1.021908,0.201678 -1.390087,0.559204 -0.368172,0.357495 -0.574734,0.842733 -0.572232,1.347083 v -0.0124 c -0.0057,0.350694 -0.2869239,0.618593 -0.6493909,0.620102 -0.103269,-0.002 -0.204074,-0.02845 -0.293192,-0.07947 l -0.0056,-0.0025 -0.0039,-0.0025 C 3.7178784,2.91168 2.5061395,3.227892 1.9680465,4.130397 l -0.453925,0.720763 -0.0041,0.0075 c -0.53744998,0.901401 -0.214285,2.071638 0.716264,2.594722 h 0.0019 v 0.0018 c 0.202643,0.113048 0.326627,0.319334 0.326627,0.545538 0,0.226101 -0.123986,0.432488 -0.326627,0.545539 -0.930797,0.520351 -1.25495798,1.689671 -0.717543,2.589756 l 0.0019,0.0013 0.425645,0.710815 c 0.253805,0.442585 0.680662,0.768872 1.1843299,0.90716 0.503675,0.138392 1.043954,0.07719 1.500675,-0.170245 l 0.0056,-0.0023 0.0056,-0.0023 c 0.147491,-0.08319 0.322259,-0.106066 0.48737,-0.06337 0.165018,0.04266 0.304797,0.147449 0.3896299,0.290787 l 0.0025,0.0037 0.0025,0.0048 c 0.05363,0.08719 0.08246,0.185616 0.0836,0.287059 v -0.0059 c 3.06e-4,1.043172 0.889432,1.902456 1.969052,1.902456 h 0.8589949 c 1.076119,9.9e-5 1.9649268,-0.854018 1.9700388,-1.893855 v -0.0022 -0.0037 c -0.0012,-0.167071 0.067,-0.325685 0.189031,-0.443638 0.121013,-0.116937 0.284045,-0.18114 0.455214,-0.181433 0.108046,0.0045 0.21335,0.03259 0.307337,0.0845 l -0.0018,-0.0011 c 0.932188,0.519008 2.14194,0.207086 2.683724,-0.69093 l 0.450076,-0.72449 0.0025,-0.0038 c 0.262792,-0.435942 0.333917,-0.955149 0.199319,-1.442761 h 0.0018 C 14.550703,9.209066 14.219583,8.792537 13.767108,8.54095 13.617892,8.45798 13.509323,8.321586 13.464913,8.160681 13.420543,7.99999 13.443913,7.82967 13.530453,7.685979 l 0.0018,-0.0025 0.0018,-0.0025 c 0.05545,-0.09351 0.135853,-0.170038 0.232751,-0.223687 l 0.0025,-0.0018 0.0024,-0.0025 c 0.925031,-0.522875 1.247504,-1.685307 0.716257,-2.584788 l 0.08619,0.315643 V 5.0074 L 14.486681,4.859479 14.059757,4.144929 C 13.521606,3.242507 12.309871,2.926272 11.374695,3.444103 l -0.0025,0.0017 -0.0039,0.0025 c -0.148081,0.08428 -0.323762,0.10758 -0.490051,0.0659 C 10.711943,3.472483 10.57038,3.369157 10.48344,3.225902 l -0.0018,-0.0018 -0.0018,-0.0018 C 10.42621,3.135082 10.39867,3.035476 10.39751,2.933997 l -0.0018,0.02487 C 10.41104,2.445046 10.210964,1.946764 9.8402462,1.578236 9.4696752,1.209273 8.9590152,1.000966 8.4271672,1.001187 Z m 0,1.272508 h 0.8602849 c 0.17648,-6.9e-5 0.345014,0.06909 0.468075,0.191374 0.123051,0.122318 0.18897,0.28684 0.183886,0.457306 v 0.01241 0.0124 c 0.0033,0.324915 0.09607,0.642491 0.267469,0.922076 2.17e-4,3.48e-4 -2.15e-4,0.0014 0,0.0018 0.263703,0.43261 0.6941618,0.747388 1.1971948,0.873599 0.504231,0.12652 1.041556,0.05417 1.490388,-0.201315 l -0.0076,0.0039 c 0.318723,-0.176477 0.706465,-0.07516 0.889857,0.232383 l 0.338198,0.565422 v 0.0074 l 0.08619,0.146634 c 0.180925,0.306335 0.0784,0.678142 -0.236604,0.856214 l 0.0056,-0.0025 c -0.298814,0.165421 -0.54573,0.405994 -0.717546,0.69466 -0.261772,0.435524 -0.334953,0.954799 -0.200606,1.441516 0.134531,0.487473 0.464199,0.904064 0.91687,1.155702 0.149261,0.08302 0.257812,0.21822 0.302185,0.379017 v 0.0015 c 0.04431,0.160216 0.02053,0.329843 -0.06549,0.473465 -2.29e-4,3.7e-4 2.17e-4,8.01e-4 0,0.0014 l -0.450078,0.723242 -0.0024,0.0038 c -0.184491,0.306323 -0.57076,0.406814 -0.888632,0.229832 l -0.0018,-0.0013 h -0.0018 c -0.28546,-0.158027 -0.605945,-0.245295 -0.93477,-0.253843 h -0.0066 -0.0065 c -0.523438,-0.0024 -1.026246,0.197666 -1.3965138,0.55548 -0.370108,0.357765 -0.577176,0.843758 -0.574806,1.349557 v -0.0059 c -0.002,0.35425 -0.285376,0.627615 -0.651961,0.627582 H 7.5698533 c -0.368012,0 -0.651967,-0.274487 -0.651967,-0.630041 v -0.0037 -0.0022 c -0.0033,-0.323233 -0.09649,-0.639822 -0.26616,-0.9183 -0.259212,-0.435451 -0.685939,-0.754947 -1.188195,-0.884796 -0.5036949,-0.130229 -1.0411819,-0.06142 -1.4916739,0.192614 l 0.01042,-0.0051 c -0.151577,0.0821 -0.330545,0.103085 -0.497654,0.05717 v -0.0012 c -0.167001,-0.04584 -0.307876,-0.152566 -0.392102,-0.299439 l -0.0025,-0.0063 -0.4359619,-0.72448 v -0.0014 c -0.181091,-0.304651 -0.07818,-0.67522 0.2366099,-0.851214 0.607849,-0.339474 0.983727,-0.96937 0.983727,-1.647801 0,-0.677855 -0.375556,-1.306868 -0.982443,-1.646556 C 2.5753035,6.176572 2.4718905,5.802791 2.6540595,5.495881 c 2.27e-4,-3.95e-4 -2.38e-4,-0.0013 0,-0.0018 l 0.4539259,-0.72076 0.004,-0.0075 c 0.183373,-0.307558 0.571184,-0.40885 0.889864,-0.232386 l -0.0089,-0.0056 c 0.289512,0.166051 0.61979,0.256414 0.956729,0.259721 h 0.0025 0.0039 c 1.0689989,1.09e-4 1.9534179,-0.8435 1.9687509,-1.876461 v -0.0056 -0.0075 c -0.0013,-0.166262 0.06635,-0.325716 0.187691,-0.443591 0.121356,-0.117847 0.285735,-0.183919 0.457789,-0.183918 z"
       id="path1715-3"
       style="color:#333333;stroke-width:0.647238;fill:#d3dae3;fill-opacity:1" />
  </g>
</svg>
