<?xml version="1.0" encoding="UTF-8" standalone="no"?>
<svg
   width="32"
   height="32"
   version="1"
   id="svg12"
   sodipodi:docname="kate.svg"
   inkscape:version="1.3 (0e150ed6c4, 2023-07-21)"
   xmlns:inkscape="http://www.inkscape.org/namespaces/inkscape"
   xmlns:sodipodi="http://sodipodi.sourceforge.net/DTD/sodipodi-0.dtd"
   xmlns="http://www.w3.org/2000/svg"
   xmlns:svg="http://www.w3.org/2000/svg"
   xmlns:rdf="http://www.w3.org/1999/02/22-rdf-syntax-ns#"
   xmlns:cc="http://creativecommons.org/ns#"
   xmlns:dc="http://purl.org/dc/elements/1.1/">
  <g
     id="22-22-kate"
     transform="translate(32,10)"
     style="fill:#d3dae3;fill-opacity:1">
    <rect
       style="opacity:0.00100002;fill:#d3dae3;fill-opacity:1"
       width="22"
       height="22"
       x="0"
       y="0"
       id="rect2" />
    <path
       d="m 15.172545,5.000151 c -0.05869,-0.0015 -0.119019,0.01407 -0.175791,0.04588 -0.03047,0.01845 -0.162198,0.159861 -0.291726,0.314 L 14.469172,5.6432 14.383741,5.59113 c -0.119615,-0.07044 -0.235006,-0.08596 -0.342647,-0.0424 -0.07429,0.02992 -0.248782,0.230888 -1.392766,1.588999 -0.722016,0.856165 -1.309068,1.563395 -1.307282,1.574308 0.0029,0.0084 0.294525,0.213494 0.649101,0.451188 L 12.638426,9.59824 13.49139,8.583642 c 0.469413,-0.558115 0.859956,-1.009835 0.869325,-1.003582 0.03033,0.01992 0.08562,0.458466 0.07472,0.599396 -0.0078,0.07686 -0.03631,0.214955 -0.06981,0.306621 -0.05932,0.163846 -0.0657,0.173446 -1.123213,1.434952 -0.584841,0.697351 -1.071799,1.289729 -1.080515,1.313128 -0.02468,0.06455 0.0043,0.185311 0.05758,0.254566 0.09142,0.116749 0.317771,0.153632 0.446159,0.0704 0.08873,-0.05783 2.183213,-2.574962 2.249792,-2.706236 C 15.109977,8.478469 15.150281,7.999 15.027164,7.527239 14.978897,7.340012 14.914989,7.16001 14.852983,7.032087 c -0.01842,-0.03444 0.01147,-0.07962 0.207907,-0.314693 0.185076,-0.224382 0.227548,-0.287461 0.230853,-0.3455 0.0088,-0.123679 -0.03457,-0.192575 -0.170897,-0.286842 l -0.126538,-0.08811 0.25144,-0.301507 C 15.45181,5.446085 15.496418,5.380901 15.49965,5.32278 15.508479,5.137528 15.348835,5.001722 15.172574,5 Z m -4.23579,4.181544 c -0.0078,0.0015 -0.775465,0.913374 -1.7107296,2.025449 -1.5043635,1.790799 -1.7183039,2.055912 -1.857054,2.283702 -0.275579,0.453553 -0.5755493,1.145065 -0.7747975,1.77677 -0.1291931,0.405211 -0.1356345,0.368547 0.044644,0.282427 C 7.1940382,15.28232 7.919282,14.847719 8.3412734,14.528138 8.7539361,14.215347 8.824188,14.135783 10.57219,12.057367 L 12.25336,10.056142 11.600113,9.618175 C 11.240829,9.377327 10.943185,9.180883 10.937004,9.181695 Z m 0.189033,4.634873 c -0.08268,-0.006 -0.167624,-0.003 -0.222746,0.0077 v 0.0013 c -0.261204,0.04931 -0.552163,0.251333 -0.692631,0.484178 -0.03752,0.06052 -0.0981,0.19751 -0.135581,0.300786 -0.03467,0.105154 -0.06815,0.192912 -0.07076,0.19512 -0.020034,0.02215 -0.5198061,0.129543 -0.8134407,0.174618 -0.6903404,0.107799 -0.8788798,0.147965 -0.9466026,0.203938 -0.1329562,0.109675 -0.03006,0.220141 0.1585835,0.170933 0.04986,-0.01388 0.2634738,-0.05143 0.4691897,-0.0829 0.2061309,-0.03117 0.5196709,-0.08978 0.6976486,-0.125436 0.1783653,-0.03816 0.3293233,-0.06327 0.3368718,-0.05645 0.00883,0.0066 -0.021759,0.134379 -0.069772,0.284591 l -0.085512,0.269247 -0.1889706,0.07409 c -0.1030777,0.04056 -0.2508347,0.109661 -0.3286687,0.156981 -0.236046,0.138979 -0.2816114,0.313583 -0.1158709,0.4255 0.090484,0.06052 0.3414873,0.05825 0.4971207,-0.0035 0.1379687,-0.05593 0.2156332,-0.134225 0.3237639,-0.338174 0.057604,-0.105538 0.1030963,-0.161224 0.1380003,-0.16799 0.02814,-0.0068 0.27704,-0.05176 0.553041,-0.103458 0.276384,-0.0493 0.527182,-0.0967 0.559575,-0.103413 0.05241,-0.01099 0.05805,-0.0066 0.04302,0.03591 -0.0095,0.02709 -0.05563,0.10584 -0.103532,0.17533 -0.04759,0.0695 -0.08549,0.152143 -0.08549,0.185588 0,0.06949 0.06565,0.13908 0.118331,0.121046 0.02011,-0.0065 0.04717,-0.01361 0.06004,-0.01361 0.01243,0 0.06809,-0.03596 0.123208,-0.08068 0.103065,-0.083 0.351715,-0.489162 0.351715,-0.574425 0,-0.04225 0.03731,-0.05331 0.06001,-0.01947 0.0088,0.01099 0.06468,0.03125 0.127347,0.04439 0.08796,0.01996 0.113407,0.03531 0.113407,0.07117 0,0.06948 0.128389,0.170837 0.241589,0.190736 0.08792,0.01389 0.200938,-0.0035 0.321277,-0.04683 0.043,-0.01609 0.0454,-0.01099 0.03072,0.04683 -0.0096,0.03609 -0.08317,0.150517 -0.161046,0.256049 -0.165737,0.21971 -0.366453,0.569307 -0.419054,0.724054 -0.04286,0.132201 -0.02474,0.231055 0.05242,0.278057 0.07029,0.04055 0.185541,0.02135 0.245685,-0.03693 0.05235,-0.05156 0.339329,-0.591397 0.444521,-0.837759 0.07539,-0.172774 0.110197,-0.219981 0.28101,-0.381523 0.140555,-0.132165 0.186395,-0.163669 0.156139,-0.11222 -0.04994,0.09657 -0.04772,0.17024 0.0087,0.214959 0.117806,0.09649 0.288611,0.0035 0.437132,-0.239903 0.08792,-0.143453 0.153385,-0.185661 0.479857,-0.322797 l 0.170093,-0.06966 -0.01753,0.08286 c -0.0094,0.04457 -0.06807,0.172777 -0.128233,0.282445 -0.118196,0.221971 -0.140122,0.363234 -0.06976,0.484178 0.04733,0.08304 0.09772,0.08572 0.328668,0.01422 0.321429,-0.09652 0.740657,-0.31905 0.849638,-0.446731 0.148052,-0.179573 0.193551,-0.351889 0.103519,-0.410114 -0.09293,-0.06043 -0.145525,-0.03583 -0.263737,0.118846 -0.158243,0.210757 -0.353845,0.374773 -0.542363,0.45779 -0.08792,0.04052 -0.165768,0.0669 -0.173382,0.06019 -0.0094,-0.0088 0.190575,-0.491008 0.29827,-0.717491 0.02248,-0.04677 0.04142,-0.105421 0.04142,-0.129835 0,-0.06274 -0.08817,-0.134233 -0.163512,-0.134233 -0.035,0 -0.201536,0.06021 -0.367297,0.136428 -0.344136,0.152504 -0.32129,0.165952 -0.233365,-0.121052 0.05241,-0.176915 0.03496,-0.224185 -0.08549,-0.235484 -0.11567,-0.011 -0.160651,0.02236 -0.26619,0.190734 -0.06772,0.114195 -0.157867,0.20864 -0.331185,0.352164 -0.228422,0.188153 -0.238679,0.19477 -0.291692,0.161344 -0.08043,-0.05156 -0.125662,-0.04438 -0.321286,0.04264 -0.191003,0.08525 -0.254004,0.09655 -0.301554,0.04457 -0.0404,-0.04251 0.02284,-0.06497 0.372218,-0.125439 0.339068,-0.05821 0.381266,-0.07448 0.381266,-0.137201 0,-0.101034 -0.09301,-0.196902 -0.258856,-0.261901 -0.286511,-0.114147 -0.318345,-0.121332 -0.443719,-0.09243 -0.135472,0.03112 -0.336632,0.20398 -0.36401,0.311805 -0.02814,0.112281 -0.113357,0.07845 -0.113357,-0.04465 0,-0.05156 -0.07073,-0.181415 -0.110976,-0.203934 -0.08539,-0.05156 -0.223087,0.0608 -0.328607,0.267029 l -0.08296,0.159177 -0.185676,0.03591 c -0.241084,0.04683 -0.94157,0.172386 -1.03457,0.188553 -0.06011,0.0088 -0.07018,0.006 -0.05755,-0.02736 0.0094,-0.02208 0.0398,-0.120486 0.06974,-0.221531 0.07774,-0.277948 0.100949,-0.314243 0.213632,-0.349929 0.135459,-0.04247 0.59299,-0.217717 0.710751,-0.271424 0.05532,-0.02509 0.167768,-0.100754 0.25063,-0.167991 C 11.622669,14.273955 11.6625,14.078688 11.48156,13.93524 11.43159,13.89708 11.365977,13.857 11.336113,13.84568 11.289623,13.82956 11.20997,13.81872 11.127448,13.81525 Z m -0.253093,0.261896 c 0.0347,-0.0029 0.07598,-0.0013 0.128172,0.0035 0.132937,0.0066 0.186043,0.01812 0.223465,0.0535 0.04994,0.04443 0.04986,0.04658 0.0079,0.132053 -0.03046,0.05367 -0.100196,0.116831 -0.188153,0.170918 -0.153114,0.09428 -0.633174,0.266633 -0.648264,0.235447 -0.01995,-0.05156 0.133656,-0.35895 0.231688,-0.45776 0.09788,-0.09914 0.143535,-0.131192 0.248186,-0.136419 z m -1.2892773,1.877288 c 0.019657,0.002 0.019699,0.0164 0.00538,0.04376 -0.033268,0.05596 -0.118458,0.09647 -0.1660368,0.08067 -0.055309,-0.01996 -0.040138,-0.04651 0.04777,-0.08725 0.057989,-0.02609 0.095894,-0.03891 0.1149901,-0.03783 z"
       class="ColorScheme-Text "
       id="path14466-5-6"
       style="color:#e5e9ef;fill:#d3dae3;fill-opacity:1;stroke-width:0.634194" />
    <path
       d="m 6.2040398,19 h 9.5919342 c 1.21585,-0.0035 2.200639,-0.90258 2.204036,-2.013077 V 5.0130838 c -0.0035,-1.110511 -0.78414,-2.009988 -1.99999,-2.013084 H 6.0000198 c -1.217244,-3e-6 -2.000013,0.901289 -2.00001,2.013089 V 16.986923 c 0,1.111787 0.986795,2.01308 2.20403,2.013077 z M 5.0000198,4.9999998 c 6e-6,-0.667073 0.269667,-0.999996 1,-1 H 16.00002 c 0.730354,0 0.999993,0.332925 1,1 V 17 H 5.0000198 Z"
       id="path3728-1"
       style="fill:#d3dae3;fill-opacity:1;stroke-width:0.842515"
       sodipodi:nodetypes="cccccccccccscccc" />
  </g>
  <style
     id="current-color-scheme"
     type="text/css">.ColorScheme-Text { color:#e5e9ef; }&#10;</style>
  <metadata
     id="metadata18">
    <rdf:RDF>
      <cc:Work
         rdf:about="">
        <dc:format>image/svg+xml</dc:format>
        <dc:type
           rdf:resource="http://purl.org/dc/dcmitype/StillImage" />
      </cc:Work>
    </rdf:RDF>
  </metadata>
  <defs
     id="defs16" />
  <sodipodi:namedview
     pagecolor="#280b17"
     bordercolor="#000000"
     borderopacity="1"
     objecttolerance="10"
     gridtolerance="10"
     guidetolerance="10"
     inkscape:pageopacity="0"
     inkscape:pageshadow="2"
     inkscape:window-width="1920"
     inkscape:window-height="994"
     id="namedview14"
     showgrid="true"
     inkscape:zoom="9.8125003"
     inkscape:cx="20.178343"
     inkscape:cy="18.089171"
     inkscape:window-x="0"
     inkscape:window-y="0"
     inkscape:window-maximized="1"
     inkscape:current-layer="svg12"
     inkscape:document-rotation="0"
     inkscape:showpageshadow="true"
     inkscape:lockguides="false"
     inkscape:pagecheckerboard="true"
     inkscape:deskcolor="#280b17">
    <inkscape:grid
       id="grid1"
       units="px"
       originx="0"
       originy="0"
       spacingx="1"
       spacingy="1"
       empcolor="#0099e5"
       empopacity="0.30196078"
       color="#0099e5"
       opacity="0.14902"
       empspacing="5"
       dotted="false"
       gridanglex="30"
       gridanglez="30"
       visible="true" />
  </sodipodi:namedview>
  <g
     id="kate">
    <rect
       style="opacity:0.00100002;fill:#d3dae3;fill-opacity:1"
       width="32"
       height="32"
       x="0"
       y="0"
       id="rect7" />
    <path
       d="M 9.1486185,27.999999 H 22.851386 C 24.588307,27.995354 25.995156,26.646138 26,24.980373 V 7.0196255 C 25.9952,5.3538595 24.588307,4.0046445 22.851386,3.9999995 H 9.1486185 c -1.738938,-3e-6 -3.148621,1.351935 -3.148618,3.019633 V 24.980373 c 1e-6,1.667695 1.409683,3.019629 3.148618,3.019626 z M 7.0000005,6.9999985 c 6e-6,-1.000609 0.956647,-1.999995 2,-2 H 23 c 1.043355,0 1.999993,0.999387 2,2 V 24.999999 H 7.0000005 Z"
       id="path3728"
       style="fill:#d3dae3;fill-opacity:1;stroke-width:1.23337"
       sodipodi:nodetypes="cccccccccccscccc" />
    <path
       style="color:#eff0f1;fill:currentColor;fill-opacity:1;stroke:none;stroke-width:0.0465068;stroke-linecap:butt;stroke-linejoin:miter;stroke-miterlimit:4;stroke-dasharray:none;stroke-opacity:1"
       d="M 13.714226,11.873276 C 13.15941,9.980686 10.02408,10.439939 9.5,10.39885 10.088221,10.098817 10.619798,9.851505 11.832452,8.9488681 14.168538,7.2100047 16.641828,7.5892274 17.880395,8.2797727 14.494351,8.4120339 15.139422,10.30753 15.638149,11.30628 c -0.634243,0.189299 -1.635431,0.475063 -1.923923,0.566996 z"
       id="path905"
       inkscape:connector-curvature="0"
       class="ColorScheme-Text" />
    <path
       sodipodi:nodetypes="cssscccccsssc"
       inkscape:connector-curvature="0"
       id="path907"
       d="m 22.072373,9.2689842 c -1.219322,1.6548988 -3.24656,3.8907918 -5.465249,4.1853248 -2.218706,0.294518 -4.333872,-0.03183 -4.823835,1.666118 -0.451196,1.563588 1.13574,3.02342 2.781664,2.671588 1.75837,-0.375875 1.378621,-2.423735 0.416858,-3.818262 0.730546,-0.04305 0.594663,-0.0319 1.83351,-0.09608 1.846557,1.617335 2.458631,2.078452 5.684679,4.438131 -2.486065,-0.267541 -3.390866,-0.513194 -5.173964,-1.609124 0.461924,1.191375 1.449208,3.895304 1.663067,5.99332 -1.028415,-1.518448 -1.418306,-2.076481 -3.012102,-3.171939 -2.041546,-1.403196 -3.694961,-1.450701 -4.651948,-3.518057 -0.954905,-2.062884 0.309042,-3.548873 2.570791,-4.1924 3.232194,-0.91966 6.017168,-1.791576 8.176529,-2.5486255 z"
       style="fill:#eff0f1;fill-opacity:1;stroke:none;stroke-width:0.0465068;stroke-linecap:butt;stroke-linejoin:miter;stroke-miterlimit:4;stroke-dasharray:none;stroke-opacity:1" />
    <path
       sodipodi:nodetypes="cccc"
       inkscape:connector-curvature="0"
       id="path909"
       d="m 14.981811,13.973753 c 0.730546,-0.04305 0.594663,-0.0319 1.83351,-0.09608 1.846557,1.617335 2.458631,2.078452 5.684679,4.438131 -3.242627,-0.238351 -5.696076,-1.221031 -7.518189,-4.342057 z"
       style="fill:#eff0f1;fill-opacity:1;stroke:none;stroke-width:0.0465068;stroke-linecap:butt;stroke-linejoin:miter;stroke-miterlimit:4;stroke-dasharray:none;stroke-opacity:1" />
    <path
       style="color:#eff0f1;fill:currentColor;fill-opacity:1;stroke:none;stroke-width:0.0465068;stroke-linecap:butt;stroke-linejoin:miter;stroke-miterlimit:4;stroke-dasharray:none;stroke-opacity:1"
       d="m 22.072373,9.2689842 c -1.219322,1.6548988 -3.24656,3.8907918 -5.465249,4.1853248 -2.218706,0.294518 -4.333872,-0.03183 -4.823835,1.666118 -0.451196,1.563588 1.13574,3.02342 2.781664,2.671588 1.75837,-0.375875 1.378621,-2.423735 0.416858,-3.818262 0.730546,-0.04305 0.594663,-0.0319 1.83351,-0.09608 1.846557,1.617335 2.458631,2.078452 5.684679,4.438131 -2.486065,-0.267541 -3.390866,-0.513194 -5.173964,-1.609124 0.461924,1.191375 1.449208,3.895304 1.663067,5.99332 -1.028415,-1.518448 -1.418306,-2.076481 -3.012102,-3.171939 -2.041546,-1.403196 -3.694961,-1.450701 -4.651948,-3.518057 -0.954905,-2.062884 0.309042,-3.548873 2.570791,-4.1924 3.232194,-0.91966 6.017168,-1.791576 8.176529,-2.5486255 z"
       id="path911"
       inkscape:connector-curvature="0"
       sodipodi:nodetypes="cssscccccsssc"
       class="ColorScheme-Text" />
    <path
       style="color:#eff0f1;fill:currentColor;fill-opacity:1;stroke:none;stroke-width:0.0465068;stroke-linecap:butt;stroke-linejoin:miter;stroke-miterlimit:4;stroke-dasharray:none;stroke-opacity:1"
       d="m 14.981811,13.973753 c 0.730546,-0.04305 0.594663,-0.0319 1.83351,-0.09608 1.846557,1.617335 2.458631,2.078452 5.684679,4.438131 -3.242627,-0.238351 -5.696076,-1.221031 -7.518189,-4.342057 z"
       id="path913"
       inkscape:connector-curvature="0"
       sodipodi:nodetypes="cccc"
       class="ColorScheme-Text" />
    <path
       sodipodi:nodetypes="ccccc"
       inkscape:connector-curvature="0"
       id="path915"
       d="M 9.5,10.39885 C 10.088221,10.098817 10.619798,9.851505 11.832452,8.9488681 14.168538,7.2100047 16.641828,7.5892274 17.880395,8.2797727 14.494351,8.4120339 14.93063,9.1052705 14.918136,9.6487277 12.66845,9.1614652 12.011574,9.82443 9.5,10.39885 Z"
       style="color:#eff0f1;fill:currentColor;fill-opacity:1;stroke:none;stroke-width:0.0465068;stroke-linecap:butt;stroke-linejoin:miter;stroke-miterlimit:4;stroke-dasharray:none;stroke-opacity:1"
       class="ColorScheme-Text " />
    <path
       inkscape:connector-curvature="0"
       id="path917"
       d="M 17.880395,8.2797727 C 14.494351,8.4120339 15.139422,10.30753 15.638149,11.30628 15.243017,11.424227 14.814755,11.558565 14.28654,11.70222 12.155272,7.800101 16.140905,7.2924592 17.880395,8.2797727 Z"
       style="color:#eff0f1;fill:currentColor;fill-opacity:1;stroke:none;stroke-width:0.0465068;stroke-linecap:butt;stroke-linejoin:miter;stroke-miterlimit:4;stroke-dasharray:none;stroke-opacity:1"
       sodipodi:nodetypes="cccc"
       class="ColorScheme-Text" />
    <path
       sodipodi:nodetypes="cscc"
       style="color:#eff0f1;fill:currentColor;fill-opacity:1;stroke:none;stroke-width:0.0465068;stroke-linecap:butt;stroke-linejoin:miter;stroke-miterlimit:4;stroke-dasharray:none;stroke-opacity:1"
       d="M 11.934776,16.982113 C 10.277835,14.789858 10.58377,12.780464 13.828302,11.736451 17.03012,10.706187 19.913012,10.026034 22.072373,9.2689842 16.24504,11.550443 8.9481019,13.07491 11.934776,16.982113 Z"
       id="path919"
       inkscape:connector-curvature="0"
       class="ColorScheme-Text " />
  </g>
</svg>
