<?xml version="1.0" encoding="UTF-8" standalone="no"?>
<svg
   width="32"
   height="32"
   version="1.1"
   id="svg12"
   sodipodi:docname="konversation.svg"
   inkscape:version="1.3 (0e150ed6c4, 2023-07-21)"
   xmlns:inkscape="http://www.inkscape.org/namespaces/inkscape"
   xmlns:sodipodi="http://sodipodi.sourceforge.net/DTD/sodipodi-0.dtd"
   xmlns="http://www.w3.org/2000/svg"
   xmlns:svg="http://www.w3.org/2000/svg"
   xmlns:rdf="http://www.w3.org/1999/02/22-rdf-syntax-ns#"
   xmlns:cc="http://creativecommons.org/ns#"
   xmlns:dc="http://purl.org/dc/elements/1.1/">
  <style
     id="current-color-scheme"
     type="text/css">.ColorScheme-Text { color:#d6dbf1; }&#10;</style>
  <metadata
     id="metadata18">
    <rdf:RDF>
      <cc:Work
         rdf:about="">
        <dc:format>image/svg+xml</dc:format>
        <dc:type
           rdf:resource="http://purl.org/dc/dcmitype/StillImage" />
      </cc:Work>
    </rdf:RDF>
  </metadata>
  <defs
     id="defs16" />
  <sodipodi:namedview
     pagecolor="#280b17"
     bordercolor="#000000"
     borderopacity="1"
     objecttolerance="10"
     gridtolerance="10"
     guidetolerance="10"
     inkscape:pageopacity="0"
     inkscape:pageshadow="2"
     inkscape:window-width="1920"
     inkscape:window-height="994"
     id="namedview14"
     showgrid="true"
     inkscape:zoom="13.876971"
     inkscape:cx="28.320301"
     inkscape:cy="21.438396"
     inkscape:window-x="0"
     inkscape:window-y="0"
     inkscape:window-maximized="1"
     inkscape:current-layer="svg12"
     inkscape:document-rotation="0"
     inkscape:pagecheckerboard="true"
     inkscape:showpageshadow="true"
     inkscape:lockguides="true"
     inkscape:deskcolor="#280b17">
    <inkscape:grid
       id="grid1"
       units="px"
       originx="0"
       originy="0"
       spacingx="1"
       spacingy="1"
       empcolor="#0099e5"
       empopacity="0.30196078"
       color="#0099e5"
       opacity="0.14902"
       empspacing="5"
       dotted="false"
       gridanglex="30"
       gridanglez="30"
       visible="true" />
  </sodipodi:namedview>
  <g
     id="22-22-konversation"
     style="fill:#d3dae3;fill-opacity:1">
    <rect
       style="opacity:0.00100002;fill:#d3dae3;fill-opacity:1"
       width="22"
       height="22"
       x="32"
       y="10"
       id="rect2-3" />
    <path
       d="m 37,16 h 12 v 1 H 37 Z"
       id="path1550-6-5"
       style="stroke-width:0.03996;fill-opacity:1;fill:#d3dae3"
       sodipodi:nodetypes="ccccc"
       class="ColorScheme-Text" />
    <path
       d="m 37,19 h 12 v 1 H 37 Z"
       id="path1552-7-6"
       style="stroke-width:0.03996;fill-opacity:1;fill:#d3dae3"
       sodipodi:nodetypes="ccccc"
       class="ColorScheme-Text" />
    <path
       d="m 37,22 h 8 v 1 h -8 z"
       id="path1554-5-2"
       style="stroke-width:0.03996;fill-opacity:1;fill:#d3dae3"
       sodipodi:nodetypes="ccccc"
       class="ColorScheme-Text" />
    <path
       d="M 51,25.571432 V 14.428586 C 51,13.642872 50.4,13 49.666668,13 H 36.333335 C 35.6,13 35,13.642872 35,14.428586 V 25.571432 C 35,26.357149 35.6,27 36.333335,27 H 40 l 3,3 3,-3 h 3.666668 C 50.4,27 51,26.357149 51,25.571432 Z M 37,26 c -1,0 -1,0 -1,-1 V 15 c 0,-1 0,-1 1,-1 h 12 c 1,0 1,0 1,1 v 10 c 0,1 0,1 -1,1 z"
       id="path2-3-3-3-0-6"
       style="stroke-width:0.345031;fill-opacity:1;fill:#d3dae3"
       sodipodi:nodetypes="ssssssscccsscscccsscc"
       class="ColorScheme-Text" />
  </g>
  <g
     id="konversation"
     style="fill:#d3dae3;fill-opacity:1">
    <rect
       style="opacity:0.00100002;fill:#d3dae3;fill-opacity:1"
       width="32"
       height="32"
       x="0"
       y="0"
       id="rect7-7" />
    <path
       d="m 8,9 h 16 v 1 H 8 Z"
       id="path1550-6"
       style="stroke-width:0.0588196;fill-opacity:1;fill:#d3dae3"
       sodipodi:nodetypes="ccccc"
       class="ColorScheme-Text" />
    <path
       d="m 8,13 h 16 v 1 H 8 Z"
       id="path1552-7"
       style="stroke-width:0.0588196;fill-opacity:1;fill:#d3dae3"
       sodipodi:nodetypes="ccccc"
       class="ColorScheme-Text" />
    <path
       d="m 8,17 h 10 v 1 H 8 Z"
       id="path1554-5"
       style="stroke-width:0.0588196;fill-opacity:1;fill:#d3dae3"
       sodipodi:nodetypes="ccccc"
       class="ColorScheme-Text" />
    <path
       d="M 27.999997,23.755108 V 6.244921 C 27.999997,5.010227 27.099997,4 26,4 H 6 C 4.899997,4 3.999998,5.010227 3.999998,6.244921 V 23.755108 C 3.999998,24.989803 4.899997,26 6,26 h 5 l 5,3 5,-3 h 5 c 1.099998,0 1.999998,-1.010197 1.999997,-2.244892 z M 6,25 C 5.450006,25 5.000006,24.372431 5.000006,23.755108 V 6.244921 C 5.000006,5.627548 5.450006,5 6,5 h 19.999999 c 0.549998,0 0.999998,0.627548 0.999998,1.244921 v 17.510187 c 0,0.617323 -0.45,1.244892 -0.999998,1.244892 z"
       id="path2-3-3-3-5"
       style="stroke-width:0.529727;fill-opacity:1;fill:#d3dae3"
       sodipodi:nodetypes="ssssssscccsssssssssss"
       class="ColorScheme-Text" />
    <path
       d="m 8,21 h 8 v 1 H 8 Z"
       id="path1554-5-3"
       style="stroke-width:0.0526098;fill-opacity:1;fill:#d3dae3"
       sodipodi:nodetypes="ccccc"
       class="ColorScheme-Text" />
  </g>
</svg>
