<?xml version="1.0" encoding="UTF-8" standalone="no"?>
<svg
   width="32"
   height="32"
   viewBox="0 0 32 32"
   version="1.1"
   id="svg830"
   inkscape:version="1.3 (0e150ed6c4, 2023-07-21)"
   sodipodi:docname="notifications.svg"
   xmlns:inkscape="http://www.inkscape.org/namespaces/inkscape"
   xmlns:sodipodi="http://sodipodi.sourceforge.net/DTD/sodipodi-0.dtd"
   xmlns="http://www.w3.org/2000/svg"
   xmlns:svg="http://www.w3.org/2000/svg"
   xmlns:rdf="http://www.w3.org/1999/02/22-rdf-syntax-ns#"
   xmlns:cc="http://creativecommons.org/ns#"
   xmlns:dc="http://purl.org/dc/elements/1.1/">
  <defs
     id="defs824" />
  <sodipodi:namedview
     id="base"
     pagecolor="#280b17"
     bordercolor="#000000"
     borderopacity="1"
     inkscape:pageopacity="0.0"
     inkscape:pageshadow="2"
     inkscape:zoom="5.1170452"
     inkscape:cx="30.095493"
     inkscape:cy="56.184769"
     inkscape:document-units="px"
     inkscape:current-layer="layer1"
     showgrid="true"
     units="px"
     inkscape:snap-intersection-paths="true"
     inkscape:object-paths="true"
     inkscape:snap-smooth-nodes="true"
     inkscape:object-nodes="true"
     inkscape:window-width="1920"
     inkscape:window-height="994"
     inkscape:window-x="0"
     inkscape:window-y="0"
     inkscape:window-maximized="1"
     inkscape:snap-global="true"
     showguides="true"
     inkscape:document-rotation="0"
     inkscape:lockguides="true"
     inkscape:pagecheckerboard="true"
     inkscape:showpageshadow="true"
     inkscape:deskcolor="#280b17">
    <inkscape:grid
       id="grid1"
       units="px"
       originx="0"
       originy="0"
       spacingx="1"
       spacingy="1"
       empcolor="#0099e5"
       empopacity="0.30196078"
       color="#0099e5"
       opacity="0.14902"
       empspacing="5"
       dotted="false"
       gridanglex="30"
       gridanglez="30"
       visible="true" />
  </sodipodi:namedview>
  <metadata
     id="metadata827">
    <rdf:RDF>
      <cc:Work
         rdf:about="">
        <dc:format>image/svg+xml</dc:format>
        <dc:type
           rdf:resource="http://purl.org/dc/dcmitype/StillImage" />
      </cc:Work>
    </rdf:RDF>
  </metadata>
  <style
     type="text/css"
     id="current-color-scheme">.ColorScheme-Text { color:#d6dbf1; }&#10;</style>
  <g
     inkscape:label="Layer 1"
     inkscape:groupmode="layer"
     id="layer1"
     transform="translate(-8.7833323,-295.45642)">
    <g
       id="22-22-notifications"
       transform="matrix(3.7795276,0,0,3.7795276,8.7447527,-737.07204)"
       style="fill:#d3dae3;fill-opacity:1">
      <rect
         ry="1.2988282e-06"
         y="297.00232"
         x="0.01020753"
         height="5.8208332"
         width="5.8208332"
         id="rect1383-2"
         style="opacity:0.003;fill:#d3dae3;fill-opacity:1;stroke:none;stroke-width:0.10795;stroke-miterlimit:4;stroke-dasharray:none;stroke-opacity:1" />
      <path
         d="m 4.6846825,297.79664 -3.5281149,10e-4 v 0 c -0.17630498,0 -0.3526101,0.17633 -0.3526101,0.35265 l 0.00201,2.48291 c 0,0.17632 0.17630512,0.33787 0.35261,0.33787 v 0 h 0.9682966 l 0.6754037,0.99552 3.4e-5,-3e-5 c 0.026161,0.0393 0.070175,0.0628 0.1173396,0.0628 0.047165,0 0.091171,-0.0235 0.1173415,-0.0628 l 0.6773812,-0.99549 h 0.79375 0.176556 c 0.176305,0 0.3526102,-0.16153 0.3526092,-0.33787 l 1.6e-6,-2.48448 c 0,-0.17632 -0.1763052,-0.35265 -0.3526102,-0.35265 z m 0.088025,2.64526 c 0,0.26459 0,0.26459 -0.2645833,0.26459 H 3.5802303 c -0.047165,-3e-5 -0.1441616,0.15343 -0.1703543,0.19273 l -0.4902537,0.73576 -0.4903294,-0.73533 c -0.026195,-0.0392 -0.096506,-0.19316 -0.1436688,-0.19316 H 1.3331242 c -0.2645834,0 -0.2645834,0 -0.2645834,-0.26459 v -2.11666 c 0,-0.26459 0,-0.26459 0.2645834,-0.26459 h 3.1749999 c 0.2645833,0 0.2645833,0 0.2645833,0.26459 z"
         id="path2-3-6"
         style="fill:#d3dae3;fill-opacity:1;stroke-width:0.00806008"
         sodipodi:nodetypes="ccccccccccscccccccccccccccccccccc"
         class="ColorScheme-Text" />
      <path
         d="m 1.5977075,298.8544 h 2.6458332 v 0.26458 H 1.5977075 Z"
         id="path4-5-2"
         style="fill:#d3dae3;fill-opacity:1;stroke-width:0.00806045"
         class="ColorScheme-Text"
         sodipodi:nodetypes="ccccc" />
      <path
         d="m 1.5977075,299.64815 h 1.5874999 v 0.26458 H 1.5977075 Z"
         id="path8-2-1"
         style="fill:#d3dae3;fill-opacity:1;stroke-width:0.00806045"
         class="ColorScheme-Text"
         sodipodi:nodetypes="ccccc" />
    </g>
    <g
       id="notifications-disabled"
       transform="matrix(3.7795278,0,0,3.7795278,0.7833313,-709.01633)"
       style="fill:#d3dae3;fill-opacity:1">
      <rect
         ry="1.2988289e-06"
         y="274.2334"
         x="2.1166668"
         height="8.4666662"
         width="8.4666662"
         id="rect891-7-2"
         style="opacity:0.003;fill:#d3dae3;fill-opacity:1;stroke:none;stroke-width:0.10795;stroke-miterlimit:4;stroke-dasharray:none;stroke-opacity:1" />
      <path
         d="m 9.3927081,274.63027 c -0.2105263,0 -0.4123849,0.0836 -0.5612606,0.23249 -0.1488704,0.14887 -0.2324894,0.35073 -0.2324894,0.56126 0,0.21052 0.083619,0.41238 0.2324894,0.56126 0.1488784,0.14887 0.3507343,0.23249 0.5612606,0.23249 0.2105289,0 0.4123849,-0.0836 0.5612606,-0.23249 0.1488703,-0.14888 0.2324893,-0.35074 0.2324893,-0.56126 -2.11e-4,-0.21043 -0.08394,-0.4122 -0.2327883,-0.56097 -0.1487672,-0.14885 -0.3505305,-0.23254 -0.5609616,-0.23278 z m 0,1.27 c -0.1263147,0 -0.2474251,-0.0502 -0.3367881,-0.13946 -0.089284,-0.0894 -0.1394619,-0.21048 -0.1394619,-0.33679 0,-0.12632 0.050178,-0.24743 0.1394619,-0.33679 0.08936,-0.0893 0.2104734,-0.13946 0.3367881,-0.13946 0.1263174,0 0.2474251,0.0502 0.3367881,0.13946 0.089284,0.0894 0.1394619,0.21047 0.1394619,0.33679 0,0.12631 -0.050178,0.24742 -0.1394619,0.33679 -0.08936,0.0893 -0.2104707,0.13946 -0.3367881,0.13946 z"
         id="path4-3"
         style="fill:#da4453;fill-opacity:1;stroke-width:0.00907158" />
      <circle
         id="circle-transparent-6-5"
         cx="9.3928432"
         cy="275.42426"
         r="0.49610263"
         style="fill:#da4453;fill-opacity:1;stroke-width:0.0620144" />
      <path
         d="m 7.9374998,275.29173 -4.2335844,0.002 v 0 c -0.264459,0 -0.5289153,0.2645 -0.5289153,0.52899 v 3.96678 c 0,0.26461 0.2647103,0.52921 0.5291666,0.52921 v 0 h 1.5874999 l 0.8808164,1.22877 5.03e-5,-5e-5 c 0.039243,0.0589 0.1052618,0.0943 0.1760114,0.0943 0.070747,0 0.1367552,-0.0353 0.1760114,-0.0943 l 0.8837771,-1.22872 h 1.5874999 v 0 c 0.264459,0 0.5291667,-0.2646 0.5291667,-0.52921 v -2.91059 l -1.5875,-1.32296 z m 1.3229166,4.23359 c 0,0.5292 -0.2645833,0.5292 -0.5291666,0.5292 H 7.4083332 c -0.070747,-5e-5 -0.2645833,0 -0.2645833,0 l -0.79375,1.13776 L 5.55625,280.05452 H 5.2916666 3.96875 c -0.2645833,0 -0.5291666,0 -0.5291666,-0.5292 v -3.43979 c 0,-0.5292 0.2645833,-0.5292 0.5291666,-0.5292 h 3.9687498 l 1.5875,1.32299 H 9.2604164 Z"
         id="path2-3-3-3"
         style="color:#d6dbf1;fill:#d3dae3;fill-opacity:1;stroke-width:0.0120904"
         sodipodi:nodetypes="ccccccccccsccccccccccccccccscccccc"
         class="ColorScheme-Text" />
      <path
         d="m 4.4979167,276.35006 h 3.7041665 v 0.26458 H 4.4979167 Z"
         id="path4-5-6-6"
         style="color:#d6dbf1;fill:#d3dae3;fill-opacity:1;stroke-width:0.0120953"
         class="ColorScheme-Text"
         sodipodi:nodetypes="ccccc" />
      <path
         d="m 4.4979167,277.67298 h 3.7041665 v 0.26458 H 4.4979167 Z"
         id="path6-6-7-7"
         style="color:#d6dbf1;fill:#d3dae3;fill-opacity:1;stroke-width:0.0120953"
         class="ColorScheme-Text"
         sodipodi:nodetypes="ccccc" />
      <path
         d="m 4.4979167,278.99589 h 2.3812499 v 0.2646 H 4.4979167 Z"
         id="path8-2-5-5"
         style="color:#d6dbf1;fill:#d3dae3;fill-opacity:1;stroke-width:0.0120953"
         class="ColorScheme-Text"
         sodipodi:nodetypes="ccccc" />
    </g>
    <g
       id="notifications"
       transform="matrix(3.7795278,0,0,3.7795278,0.7833322,-773.06331)"
       style="fill:#d3dae3;fill-opacity:1">
      <rect
         ry="1.2988289e-06"
         y="282.71249"
         x="2.1166666"
         height="8.4666662"
         width="8.4666662"
         id="rect891-7"
         style="opacity:0.003;fill:#d3dae3;fill-opacity:1;stroke:none;stroke-width:0.10795;stroke-miterlimit:4;stroke-dasharray:none;stroke-opacity:1" />
      <path
         d="m 8.9960869,283.77123 -5.2921717,0.002 v 0 c -0.264459,0 -0.5289153,0.26448 -0.5289153,0.52896 v 3.96655 c 0,0.26458 0.2647103,0.52916 0.5291666,0.52916 v 0 h 1.5874999 l 0.8808164,1.22871 5.03e-5,-5e-5 c 0.039243,0.0589 0.1052618,0.0943 0.1760114,0.0943 0.070747,0 0.1367552,-0.0353 0.1760114,-0.0943 L 7.408333,288.7979 h 1.5874999 v 0 c 0.264459,0 0.5291667,-0.26458 0.5291667,-0.52916 l 3e-6,-3.96896 c 0,-0.26447 -0.2644567,-0.52896 -0.5289157,-0.52896 z m 0.2643293,4.23304 c 0,0.52917 -0.2645833,0.52917 -0.5291666,0.52917 H 7.408333 c -0.070747,-5e-5 -0.2645833,0 -0.2645833,0 l -0.79375,1.13771 -0.7937499,-1.13771 H 5.2916664 3.9687498 c -0.2645833,0 -0.5291666,0 -0.5291666,-0.52917 v -3.43958 c 0,-0.52917 0.2645833,-0.52917 0.5291666,-0.52917 h 4.7624998 c 0.2645833,0 0.5321723,0.009 0.5291666,0.52917 z"
         id="path2-3-3"
         style="color:#d6dbf1;fill:#d3dae3;fill-opacity:1;stroke-width:0.01209"
         sodipodi:nodetypes="ccccccccccscccccccccccccccscccccc"
         class="ColorScheme-Text" />
      <path
         d="M 4.4979165,284.82927 H 8.202083 v 0.26459 H 4.4979165 Z"
         id="path4-5-6"
         style="color:#d6dbf1;fill:#d3dae3;fill-opacity:1;stroke-width:0.0120953"
         class="ColorScheme-Text"
         sodipodi:nodetypes="ccccc" />
      <path
         d="M 4.4979165,286.15219 H 8.202083 v 0.26458 H 4.4979165 Z"
         id="path6-6-7"
         style="color:#d6dbf1;fill:#d3dae3;fill-opacity:1;stroke-width:0.0120953"
         class="ColorScheme-Text"
         sodipodi:nodetypes="ccccc" />
      <path
         d="m 4.4979165,287.47511 h 2.3812499 v 0.26459 H 4.4979165 Z"
         id="path8-2-5"
         style="color:#d6dbf1;fill:#d3dae3;fill-opacity:1;stroke-width:0.0120953"
         class="ColorScheme-Text"
         sodipodi:nodetypes="ccccc" />
    </g>
    <g
       id="22-22-notifications-disabled"
       transform="matrix(3.7795276,0,0,3.7795276,8.7833323,-737.06328)"
       style="fill:#d3dae3;fill-opacity:1">
      <rect
         ry="1.2988282e-06"
         y="291.17917"
         x="8.8817842e-16"
         height="5.8208332"
         width="5.8208332"
         id="rect1383"
         style="opacity:0.003;fill:#d3dae3;fill-opacity:1;stroke:none;stroke-width:0.10795;stroke-miterlimit:4;stroke-dasharray:none;stroke-opacity:1" />
      <path
         d="m 4.9080223,291.57604 c -0.1438562,0 -0.2818055,0.0571 -0.3835281,0.15887 -0.1017238,0.10169 -0.1588693,0.23967 -0.1588693,0.38352 0,0.14384 0.057147,0.28182 0.1588693,0.38355 0.101725,0.10172 0.2396719,0.15885 0.3835281,0.15885 0.143857,0 0.281804,-0.0571 0.3835275,-0.15885 0.101722,-0.10173 0.1588692,-0.23971 0.1588692,-0.38355 -1.356e-4,-0.14378 -0.057362,-0.28167 -0.1590621,-0.38334 -0.1016732,-0.10171 -0.2395286,-0.15885 -0.3833346,-0.15905 z m 0,0.86781 c -0.086327,0 -0.1690852,-0.0345 -0.2301321,-0.0953 -0.061013,-0.061 -0.095306,-0.14381 -0.095306,-0.23015 0,-0.0864 0.034289,-0.16909 0.095306,-0.23015 0.061042,-0.0609 0.1438074,-0.0953 0.2301321,-0.0953 0.086324,0 0.1690853,0.0346 0.2301315,0.0953 0.061023,0.061 0.095307,0.14386 0.095307,0.23015 0,0.0864 -0.034289,0.16911 -0.095307,0.23015 -0.061051,0.0609 -0.1438074,0.0953 -0.2301315,0.0953 z"
         id="path4-7-0-7"
         style="fill:#da4453;fill-opacity:1;stroke-width:0.00619882" />
      <ellipse
         id="circle-transparent-6-3-6-5"
         cx="4.9080634"
         cy="292.11844"
         style="fill:#da4453;fill-opacity:1;stroke-width:0.0423756"
         rx="0.33900425"
         ry="0.33900526" />
      <path
         d="m 3.7041666,291.97292 -2.5578064,0.002 v 0 c -0.17630508,0 -0.35261022,0.17633 -0.35261022,0.35265 l 0.00201,2.48291 c 0,0.17632 0.17630514,0.33787 0.35261012,0.33787 v 0 h 0.9682966 l 0.6754037,0.99552 3.4e-5,-3e-5 c 0.026161,0.0393 0.070175,0.0628 0.1173396,0.0628 0.047165,0 0.091171,-0.0235 0.1173415,-0.0628 l 0.6773812,-0.99549 h 0.79375 0.176556 c 0.176305,0 0.3526102,-0.16153 0.3526092,-0.33787 l 1.3e-6,-1.77879 H 4.7624999 l -0.79375,-0.79375 v -0.26458 z m 1.0583335,2.64582 c 0,0.26459 0,0.26459 -0.2645833,0.26459 H 3.5700229 c -0.047165,-3e-5 -0.1441616,0.15343 -0.1703543,0.19273 l -0.4902537,0.73576 -0.4903294,-0.73533 c -0.026195,-0.0392 -0.096506,-0.19316 -0.1436688,-0.19316 H 1.3229168 c -0.2645834,0 -0.2645834,0 -0.2645834,-0.26459 v -2.11666 c 0,-0.26459 0,-0.26459 0.2645834,-0.26459 l 2.6458331,1e-5 0.79375,0.79375 z"
         id="path2-3-6-3"
         style="color:#d6dbf1;fill:#d3dae3;fill-opacity:1;stroke-width:0.00806008"
         sodipodi:nodetypes="ccccccccccscccccccccccccccccccccccc"
         class="ColorScheme-Text" />
      <path
         d="m 1.5977075,293.03357 h 2.6458332 v 0.26458 H 1.5977075 Z"
         id="path4-5-2-6"
         style="color:#d6dbf1;fill:#d3dae3;fill-opacity:1;stroke-width:0.00806045"
         class="ColorScheme-Text"
         sodipodi:nodetypes="ccccc" />
      <path
         d="m 1.5977075,293.82732 h 1.5874999 v 0.26458 H 1.5977075 Z"
         id="path8-2-1-7"
         style="color:#d6dbf1;fill:#d3dae3;fill-opacity:1;stroke-width:0.00806045"
         class="ColorScheme-Text"
         sodipodi:nodetypes="ccccc" />
    </g>
  </g>
</svg>
