<?xml version="1.0" encoding="UTF-8" standalone="no"?>
<svg
   width="32"
   height="32"
   viewBox="0 0 32 32"
   version="1.1"
   id="svg867"
   inkscape:version="1.3 (0e150ed6c4, 2023-07-21)"
   sodipodi:docname="redshift.svg"
   xmlns:inkscape="http://www.inkscape.org/namespaces/inkscape"
   xmlns:sodipodi="http://sodipodi.sourceforge.net/DTD/sodipodi-0.dtd"
   xmlns="http://www.w3.org/2000/svg"
   xmlns:svg="http://www.w3.org/2000/svg"
   xmlns:rdf="http://www.w3.org/1999/02/22-rdf-syntax-ns#"
   xmlns:cc="http://creativecommons.org/ns#"
   xmlns:dc="http://purl.org/dc/elements/1.1/">
  <defs
     id="defs3871">
    <style
       type="text/css"
       id="current-color-scheme">&#10;      .ColorScheme-Text {&#10;        color:#31363b;&#10;      }&#10;      </style>
  </defs>
  <sodipodi:namedview
     inkscape:object-paths="true"
     guideopacity="0.62745098"
     guidecolor="#0000ff"
     inkscape:bbox-nodes="true"
     inkscape:snap-intersection-paths="true"
     inkscape:snap-bbox="true"
     id="base"
     pagecolor="#280b17"
     bordercolor="#000000"
     borderopacity="1"
     inkscape:pageopacity="0.0"
     inkscape:pageshadow="2"
     inkscape:zoom="5.6284625"
     inkscape:cx="11.19311"
     inkscape:cy="38.109875"
     inkscape:document-units="px"
     inkscape:current-layer="layer1"
     inkscape:document-rotation="0"
     showgrid="true"
     inkscape:window-width="1920"
     inkscape:window-height="994"
     inkscape:window-x="0"
     inkscape:window-y="0"
     inkscape:window-maximized="1"
     units="px"
     inkscape:snap-bbox-edge-midpoints="false"
     inkscape:lockguides="false"
     inkscape:pagecheckerboard="true"
     inkscape:showpageshadow="2"
     inkscape:deskcolor="#280b17">
    <inkscape:grid
       opacity="0.419608"
       color="#3f3fff"
       type="xygrid"
       id="grid1448"
       originx="0"
       originy="0"
       spacingy="1"
       spacingx="1"
       units="px"
       visible="true" />
  </sodipodi:namedview>
  <metadata
     id="metadata864">
    <rdf:RDF>
      <cc:Work
         rdf:about="">
        <dc:format>image/svg+xml</dc:format>
        <dc:type
           rdf:resource="http://purl.org/dc/dcmitype/StillImage" />
      </cc:Work>
    </rdf:RDF>
  </metadata>
  <g
     inkscape:label="Layer 1"
     inkscape:groupmode="layer"
     id="layer1">
    <g
       id="22-22-redshift-status-off"
       style="fill:#d3dae3;fill-opacity:1">
      <rect
         style="opacity:0.003;fill:#d3dae3;fill-opacity:1"
         id="rect1467-9-7-9-9-4-67"
         width="22"
         height="22"
         x="-22"
         y="10" />
      <path
         d="m -12.525244,27.032674 c -0.104877,0 -0.207286,-0.01018 -0.308461,-0.02467 v 1.258517 h 3.0846043 v 0.616922 h -3.0846043 v 0.30846 c 0,0.169962 0.138499,0.308461 0.308461,0.308461 h 3.0846043 c 0.169962,0 0.30846,-0.138499 0.30846,-0.308461 V 27.008 c -0.101174,0.0145 -0.203584,0.02467 -0.30846,0.02467 z"
         id="path14-7-5"
         style="fill:#d3dae3;fill-opacity:1;stroke-width:0.30846" />
      <path
         d="M -5.7497187,15.843721 C -6.6867657,13.808636 -8.7209817,12.503532 -10.961422,12.5 c -3.174343,0.0049 -5.74357,2.582368 -5.738571,5.75671 0.0035,2.240458 1.308637,4.274676 3.34372,5.211721 v 1.484807 c 0,0.264539 0.21443,0.478969 0.478968,0.478969 h 3.8317623 c 0.26454,0 0.478969,-0.21443 0.478969,-0.478969 v -1.484807 c 2.88334,-1.327647 4.144499,-4.741372 2.816855,-7.62471 z m -0.752042,4.142145 c -0.486753,1.24748 -1.473523,2.23425 -2.721002,2.721003 h 0.005 c -0.184247,0.0711 -0.305996,0.247959 -0.306565,0.445444 v 1.321954 h -2.8739683 v -1.321954 c -5.92e-4,-0.197485 -0.12234,-0.374348 -0.306564,-0.445444 -2.464356,-0.961564 -3.682587,-3.738795 -2.721024,-6.203125 0.961561,-2.464334 3.738779,-3.682565 6.2031093,-2.721002 2.464332,0.961563 3.682562,3.738779 2.721002,6.203124 z"
         id="path2-5-9"
         style="fill:#d3dae3;fill-opacity:1;stroke-width:0.0299356" />
    </g>
    <g
       id="redshift-status-off"
       style="fill:#d3dae3;fill-opacity:1">
      <rect
         style="opacity:0.003;fill:#d3dae3;fill-opacity:1;stroke-width:1"
         id="rect1033"
         width="32"
         height="32"
         x="32"
         y="0" />
      <path
         d="m 45.5,24 c -0.17,0 -0.335999,0.02909 -0.499998,3e-6 V 26 H 50 v 2 h -4.999998 v 0.381186 C 45.000002,28.722152 45.224499,29 45.5,29 h 5.000003 c 0.2755,0 0.499999,-0.277848 0.499999,-0.618812 v -4.381182 c -0.163999,0.02907 -0.33,-6e-6 -0.499999,-6e-6 z"
         id="path14-36"
         style="fill:#d3dae3;fill-opacity:1;stroke-width:0.556243"
         sodipodi:nodetypes="scccccsssscss" />
      <path
         d="M 56.171633,8.1711526 C 54.702209,5.0238411 51.512264,3.0054627 47.998925,3 c -4.977834,0.00769 -9.006753,3.9936999 -8.998914,8.902908 0.0055,3.464924 2.052132,6.610897 5.243436,8.060061 v 2.296293 C 44.243447,22.668379 44.579703,23 44.994542,23 h 6.00876 c 0.414839,0 0.751095,-0.331621 0.751095,-0.740738 V 19.962969 C 56.27589,17.90973 58.253572,12.630314 56.171633,8.1711526 Z m -1.179312,6.4059354 c -0.763297,1.929265 -2.310698,3.455329 -4.266926,4.208106 h 0.0075 c -0.288926,0.109954 -0.479847,0.383473 -0.48074,0.688889 v 2.04444 h -4.506766 v -2.04444 c -6.02e-4,-0.305416 -0.191522,-0.578935 -0.480413,-0.688889 -3.864465,-1.487083 -5.774829,-5.782147 -4.266958,-9.5932989 1.507866,-3.8111567 5.862949,-5.6951826 9.727377,-4.2081006 3.864429,1.487082 5.774791,5.7821225 4.266926,9.5932935 z"
         id="path2-7"
         style="fill:#d3dae3;fill-opacity:1;stroke-width:0.0466186" />
    </g>
    <g
       id="redshift-status-on">
      <rect
         y="0"
         x="3.5527137e-15"
         height="32"
         width="32"
         id="rect910"
         style="opacity:0.003;fill:#d3dae3;fill-opacity:1;stroke-width:1" />
      <path
         d="m 13.499998,24 c -0.17,0 -0.335999,0.02909 -0.499998,3e-6 V 26 h 4.999998 v 2 H 13 v 0.381186 C 13,28.722152 13.224497,29 13.499998,29 h 5.000003 C 18.775501,29 19,28.722152 19,28.381188 V 24.000006 C 18.836001,24.029076 18.67,24 18.500001,24 Z"
         id="path14"
         style="fill:#d3dae3;fill-opacity:1;stroke-width:0.556243"
         sodipodi:nodetypes="scccccsssscss" />
      <path
         d="M 24.171633,8.1711526 C 22.702209,5.0238411 19.512264,3.0054627 15.998925,3 11.021091,3.00769 6.992172,6.9936999 7.0000114,11.902908 c 0.00547,3.464924 2.052132,6.610897 5.2434356,8.060061 v 2.296293 C 12.243447,22.668379 12.579703,23 12.994542,23 h 6.00876 c 0.414839,0 0.751095,-0.331621 0.751095,-0.740738 V 19.962969 C 24.27589,17.90973 26.253572,12.630314 24.171633,8.1711526 Z m -1.179312,6.4059354 c -0.763297,1.929265 -2.310698,3.455329 -4.266926,4.208106 h 0.0075 c -0.288926,0.109954 -0.479847,0.383473 -0.48074,0.688889 v 2.04444 h -4.506766 v -2.04444 C 13.744787,19.168667 13.553867,18.895148 13.264976,18.785194 9.4005107,17.298111 7.4901472,13.003047 8.9980177,9.1918951 10.505884,5.3807384 14.860967,3.4967125 18.725395,4.9837945 c 3.864429,1.487082 5.774791,5.7821225 4.266926,9.5932935 z"
         id="path2"
         style="fill:#d3dae3;fill-opacity:1;stroke-width:0.0466186" />
      <g
         id="g2"
         transform="matrix(0.19800196,0,0,-0.19800194,-100.35823,134.07215)"
         style="stroke-width:1.06622">
        <path
           d="m 602.64951,605.78548 c -14.214,0 -25.729,11.521 -25.729,25.729 0,4.67901 1.343,9.00701 3.526,12.78301 -11.847,-3.418 -20.562,-14.213 -20.562,-27.16 0,-15.67801 12.709,-28.39501 28.388,-28.39501 12.947,0 23.752,8.723 27.168,20.563 -3.785,-2.178 -8.111,-3.52 -12.791,-3.52"
           fill-opacity="1"
           fill-rule="nonzero"
           stroke="none"
           id="path1"
           style="fill:#d3dae3;fill-opacity:1" />
      </g>
    </g>
    <g
       id="22-22-redshift-status-on">
      <rect
         y="10"
         x="-44"
         height="22"
         width="22"
         id="rect1467-9-7-9-9-4"
         style="opacity:0.003;fill:#d3dae3;fill-opacity:1" />
      <path
         d="m -34.525244,27.032674 c -0.104877,0 -0.207286,-0.01018 -0.308461,-0.02467 v 1.258517 h 3.084604 v 0.616922 h -3.084604 v 0.30846 c 0,0.169962 0.138499,0.308461 0.308461,0.308461 h 3.084604 c 0.169962,0 0.30846,-0.138499 0.30846,-0.308461 V 27.008 c -0.101174,0.0145 -0.203584,0.02467 -0.30846,0.02467 z"
         id="path14-7"
         style="fill:#d3dae3;fill-opacity:1;stroke-width:0.30846" />
      <path
         d="m -27.749719,15.843721 c -0.937047,-2.035085 -2.971263,-3.340189 -5.211703,-3.343721 -3.174343,0.0049 -5.74357,2.582368 -5.738571,5.75671 0.0035,2.240458 1.308637,4.274676 3.34372,5.211721 v 1.484807 c 0,0.264539 0.21443,0.478969 0.478968,0.478969 h 3.831762 c 0.26454,0 0.478969,-0.21443 0.478969,-0.478969 v -1.484807 c 2.88334,-1.327647 4.144499,-4.741372 2.816855,-7.62471 z m -0.752042,4.142145 c -0.486753,1.24748 -1.473523,2.23425 -2.721002,2.721003 h 0.005 c -0.184247,0.0711 -0.305996,0.247959 -0.306565,0.445444 v 1.321954 h -2.873968 v -1.321954 c -5.92e-4,-0.197485 -0.12234,-0.374348 -0.306564,-0.445444 -2.464356,-0.961564 -3.682587,-3.738795 -2.721024,-6.203125 0.961561,-2.464334 3.738779,-3.682565 6.203109,-2.721002 2.464332,0.961563 3.682562,3.738779 2.721002,6.203124 z"
         id="path2-5"
         style="fill:#d3dae3;fill-opacity:1;stroke-width:0.0299356" />
      <path
         d="m -31.111561,19.652565 c -1.790971,0 -3.241877,-1.451661 -3.241877,-3.241896 0,-0.589547 0.169213,-1.134894 0.444275,-1.610669 -1.49273,0.430675 -2.590837,1.790851 -2.590837,3.422195 0,1.97545 1.601355,3.577805 3.57692,3.577805 1.631338,0 2.992783,-1.099105 3.4232,-2.59096 -0.476913,0.274422 -1.021996,0.443525 -1.611682,0.443525"
         fill-opacity="1"
         fill-rule="nonzero"
         stroke="none"
         id="path1-7"
         style="fill:#d3dae3;fill-opacity:1;stroke-width:0.134352" />
    </g>
  </g>
</svg>
