<?xml version="1.0" encoding="UTF-8" standalone="no"?>
<svg
   inkscape:version="1.3 (0e150ed6c4, 2023-07-21)"
   sodipodi:docname="view.svg"
   id="svg873"
   version="1.1"
   height="32"
   width="32"
   xmlns:inkscape="http://www.inkscape.org/namespaces/inkscape"
   xmlns:sodipodi="http://sodipodi.sourceforge.net/DTD/sodipodi-0.dtd"
   xmlns:xlink="http://www.w3.org/1999/xlink"
   xmlns="http://www.w3.org/2000/svg"
   xmlns:svg="http://www.w3.org/2000/svg"
   xmlns:rdf="http://www.w3.org/1999/02/22-rdf-syntax-ns#"
   xmlns:cc="http://creativecommons.org/ns#"
   xmlns:dc="http://purl.org/dc/elements/1.1/">
  <metadata
     id="metadata879">
    <rdf:RDF>
      <cc:Work
         rdf:about="">
        <dc:format>image/svg+xml</dc:format>
        <dc:type
           rdf:resource="http://purl.org/dc/dcmitype/StillImage" />
      </cc:Work>
    </rdf:RDF>
  </metadata>
  <defs
     id="defs877">
    <linearGradient
       inkscape:collect="always"
       id="linearGradient4">
      <stop
         style="stop-color:#aa87de;stop-opacity:1"
         offset="0"
         id="stop2" />
      <stop
         style="stop-color:#ff80e5;stop-opacity:1"
         offset="1"
         id="stop3" />
    </linearGradient>
    <linearGradient
       id="_lgradient_0"
       x1="0"
       y1="0.5"
       x2="1"
       y2="0.5"
       gradientTransform="matrix(27.999994,0,0,27.999998,1.9766191,1.9139856)"
       gradientUnits="userSpaceOnUse">
      <stop
         offset="0%"
         stop-opacity="1"
         style="stop-color:rgb(105,227,255)"
         id="stop33" />
      <stop
         offset="100%"
         stop-opacity="1"
         style="stop-color:rgb(0,255,194)"
         id="stop35" />
    </linearGradient>
    <linearGradient
       gradientUnits="userSpaceOnUse"
       y2="499.98923"
       x2="990.013"
       y1="499.98923"
       x1="9.9975004"
       id="linearGradient920"
       xlink:href="#_lgradient_0-3"
       inkscape:collect="always" />
    <linearGradient
       id="_lgradient_0-3"
       x1="0"
       y1="0.5"
       x2="1"
       y2="0.5"
       gradientTransform="matrix(27.999994,0,0,27.999998,1.9766191,1.9139856)"
       gradientUnits="userSpaceOnUse">
      <stop
         offset="0%"
         stop-opacity="1"
         style="stop-color:#ff8fc3;stop-opacity:1"
         id="stop33-6" />
      <stop
         offset="100%"
         stop-opacity="1"
         style="stop-color:rgb(0,255,194)"
         id="stop35-7" />
    </linearGradient>
    <linearGradient
       inkscape:collect="always"
       xlink:href="#_lgradient_0-3"
       id="linearGradient870"
       gradientUnits="userSpaceOnUse"
       x1="9.9975004"
       y1="499.98923"
       x2="990.013"
       y2="499.98923" />
    <linearGradient
       inkscape:collect="always"
       xlink:href="#linearGradient4"
       id="linearGradient2-3"
       x1="36"
       y1="-103.00001"
       x2="55"
       y2="-86.000008"
       gradientUnits="userSpaceOnUse"
       gradientTransform="rotate(90,-28.500004,-54.500004)" />
    <linearGradient
       inkscape:collect="always"
       xlink:href="#linearGradient4"
       id="linearGradient2"
       x1="15"
       y1="15.000006"
       x2="22"
       y2="15.000006"
       gradientUnits="userSpaceOnUse" />
  </defs>
  <sodipodi:namedview
     inkscape:current-layer="svg873"
     inkscape:window-maximized="1"
     inkscape:window-y="0"
     inkscape:window-x="0"
     inkscape:cy="25.801647"
     inkscape:cx="1.6592699"
     inkscape:zoom="6.026747"
     showgrid="true"
     id="namedview875"
     inkscape:window-height="994"
     inkscape:window-width="1920"
     inkscape:pageshadow="2"
     inkscape:pageopacity="0"
     guidetolerance="10"
     gridtolerance="10"
     objecttolerance="10"
     borderopacity="1"
     inkscape:document-rotation="0"
     bordercolor="#000000"
     pagecolor="#280b17"
     inkscape:lockguides="true"
     inkscape:showpageshadow="2"
     inkscape:pagecheckerboard="true"
     inkscape:deskcolor="#280b17">
    <inkscape:grid
       type="xygrid"
       id="grid853"
       originx="0"
       originy="0"
       spacingy="1"
       spacingx="1"
       units="px"
       visible="true" />
  </sodipodi:namedview>
  <g
     style="clip-rule:evenodd;fill:url(#linearGradient920);fill-opacity:1;fill-rule:evenodd;stroke-linejoin:round;stroke-miterlimit:1.41421"
     id="g10"
     transform="matrix(0.02856847,0,0,0.02856847,-24.124545,-5.089149)">
    <g
       style="fill:url(#linearGradient870);fill-opacity:1"
       transform="matrix(0.1,0,0,-0.1,0,511)"
       id="g8" />
  </g>
  <g
     id="view-refresh"
     transform="translate(32,16)">
    <path
       id="path836"
       style="opacity:0.00100002"
       d="M 0,0 H 16 V 16 H 0 Z" />
    <path
       d="m 12.805684,5.5015446 c -0.201978,-0.315589 -0.618559,-0.429207 -0.934152,-0.227223 -0.328212,0.201973 -0.429194,0.618557 -0.227221,0.959391 0.454451,0.744794 0.68167,1.65369 0.593307,2.613087 C 12.035643,10.8792 10.369331,12.495023 8.3242995,12.633878 5.8500799,12.797983 3.7924339,10.828704 3.8176811,8.3797276 c 0.02525,-2.272249 1.8809157,-4.140546 4.1405375,-4.178411 0.1262354,0 0.2398448,0 0.3660809,0.01259 v 0.530193 c 0,0.214591 0.239855,0.340831 0.416585,0.227219 l 1.9692785,-1.224492 c 0.164108,-0.100983 0.164108,-0.353452 0,-0.454448 l -1.9819045,-1.24973 c -0.176726,-0.113623 -0.416574,0.01261 -0.416574,0.227217 v 0.555435 c -0.088348,0 -0.1767379,0 -0.2777216,0 -3.2190186,0 -5.8194793,2.73933 -5.5670071,6.008839 0.2019783,2.7393184 2.4111065,4.9484504 5.1378049,5.1504304 3.2695103,0.23985 6.0214573,-2.347994 6.0214573,-5.5670114 0,-1.073006 -0.302965,-2.070263 -0.820534,-2.916048 z"
       id="path1"
       style="fill:#d3dae3;fill-opacity:1;stroke-width:0.126235" />
    <circle
       cx="8.033968"
       cy="8.4176149"
       r="1.8051747"
       id="circle1"
       style="fill:#d3dae3;fill-opacity:1;stroke-width:0.126235" />
  </g>
  <g
     id="view-history">
    <rect
       ry="0.91472864"
       y="0"
       x="0"
       height="32"
       width="32"
       id="rect817-5"
       style="clip-rule:evenodd;fill:#ffff96;fill-opacity:0;fill-rule:evenodd;stroke-width:1.04154;stroke-linejoin:round;stroke-miterlimit:1.41421;stroke-dasharray:none"
       rx="0.91472864" />
    <path
       d="M 3,15.985308 C 3,15.290113 3.06043,14.594926 3.181303,13.89974 4.329551,6.8269349 11.007525,2.0210539 18.078321,3.1696309 c 3.41453,0.544058 6.436239,2.418049 8.460779,5.229042 2.02454,2.8109841 2.84041,6.2567011 2.2965,9.6722011 -1.14825,7.072804 -7.826219,11.908908 -14.897018,10.760329 -1.359769,-0.211576 -2.659103,-0.634735 -3.867786,-1.269474 -0.302171,-0.151127 -0.574125,-0.302254 -0.846079,-0.48361 -0.423038,-0.272034 -0.574124,-0.816092 -0.30217,-1.239253 0.271954,-0.423163 0.815861,-0.57429 1.2389,-0.302254 0.241737,0.151126 0.483473,0.272024 0.72521,0.42316 1.02738,0.54406 2.17563,0.906763 3.323879,1.088118 6.073634,0.967219 11.845094,-3.173694 12.812034,-9.279268 0.48348,-2.96212 -0.21152,-5.894 -1.96411,-8.3422811 C 23.30587,7.0082919 20.73742,5.4063349 17.77615,4.9227249 11.702518,3.9252739 5.931056,8.0964089 4.964111,14.171764 4.541072,16.77117 5.054761,19.431026 6.384313,21.66773 6.62605,22.090883 6.505181,22.66517 6.082141,22.906976 5.659103,23.148781 5.084979,23.027883 4.843242,22.604722 3.634559,20.609832 3,18.312679 3,15.985308 Z"
       id="path2-53"
       style="fill:url(#linearGradient2-3)" />
    <path
       d="m 20.865,22.000011 c -0.289052,0 -0.591906,-0.160928 -0.810995,-0.381905 L 15.331392,17.302253 C 15.127035,17.096255 15,16.809739 15,16.493266 v 0 -0.0037 -7.3386561 C 15,8.3294063 15.414433,8 16.038556,8 c 0.62412,0 1.038557,0.3504135 1.038557,1.1509099 V 16.015803 L 21.445518,20 c 0.44001,0.44757 0.705591,1.140125 0.289482,1.61 -0.345373,0.39 -0.560213,0.39 -0.87,0.390001"
       id="path6"
       style="color:#d1d5e9;fill:url(#linearGradient2);stroke-width:0.0185679"
       sodipodi:nodetypes="cccsccsssccsc"
       class="ColorScheme-Text" />
  </g>
</svg>
