<?xml version="1.0" encoding="UTF-8" standalone="no"?>
<svg
   width="32"
   height="32"
   version="1.1"
   id="svg12"
   sodipodi:docname="vlc.svg"
   inkscape:version="1.3 (0e150ed6c4, 2023-07-21)"
   xmlns:inkscape="http://www.inkscape.org/namespaces/inkscape"
   xmlns:sodipodi="http://sodipodi.sourceforge.net/DTD/sodipodi-0.dtd"
   xmlns="http://www.w3.org/2000/svg"
   xmlns:svg="http://www.w3.org/2000/svg"
   xmlns:rdf="http://www.w3.org/1999/02/22-rdf-syntax-ns#"
   xmlns:cc="http://creativecommons.org/ns#"
   xmlns:dc="http://purl.org/dc/elements/1.1/">
  <metadata
     id="metadata18">
    <rdf:RDF>
      <cc:Work
         rdf:about="">
        <dc:format>image/svg+xml</dc:format>
        <dc:type
           rdf:resource="http://purl.org/dc/dcmitype/StillImage" />
      </cc:Work>
    </rdf:RDF>
  </metadata>
  <defs
     id="defs16" />
  <sodipodi:namedview
     pagecolor="#280b17"
     bordercolor="#000000"
     borderopacity="1"
     objecttolerance="10"
     gridtolerance="10"
     guidetolerance="10"
     inkscape:pageopacity="0"
     inkscape:pageshadow="2"
     inkscape:window-width="1920"
     inkscape:window-height="994"
     id="namedview14"
     showgrid="true"
     inkscape:zoom="9.8125"
     inkscape:cx="23.541401"
     inkscape:cy="19.210191"
     inkscape:window-x="0"
     inkscape:window-y="0"
     inkscape:window-maximized="1"
     inkscape:current-layer="svg12"
     inkscape:document-rotation="0"
     inkscape:lockguides="false"
     showguides="true"
     inkscape:showpageshadow="true"
     inkscape:pagecheckerboard="true"
     inkscape:deskcolor="#280b17">
    <inkscape:grid
       id="grid1"
       units="px"
       originx="0"
       originy="0"
       spacingx="1"
       spacingy="1"
       empcolor="#0099e5"
       empopacity="0.30196078"
       color="#0099e5"
       opacity="0.14901961"
       empspacing="5"
       dotted="false"
       gridanglex="30"
       gridanglez="30"
       visible="true" />
  </sodipodi:namedview>
  <g
     id="vlc">
    <rect
       style="opacity:0.00100002"
       width="32"
       height="32"
       x="0"
       y="0"
       id="rect7" />
    <path
       class="st1"
       d="m 13.773844,7.715492 c 1.411771,0.301254 2.823537,0.301254 4.235306,0 0.325803,-0.100556 0.434394,-0.301251 0.434394,-0.602511 0,0 0,0 0,0 L 17.791955,5.104614 C 17.574756,4.502088 16.923177,4 16.271594,4 h -0.542985 c -0.760192,0 -1.303172,0.401678 -1.52037,1.104614 l -0.651592,2.008367 c -0.217198,0.200842 0,0.502093 0.217197,0.602511 0,-0.100556 0,-0.100556 0,0 z m 1.303176,-2.41005 c 0.108522,-0.200828 0.325793,-0.401676 0.542987,-0.401676 h 0.54298 c 0.217196,0 0.434394,0.100546 0.542993,0.401676 l 0.542993,1.506272 c -0.868789,0.100566 -1.737558,0.100566 -2.60634,0 z"
       id="path4"
       style="fill:#d3dae3;fill-opacity:1;stroke-width:1.04426" />
    <path
       class="st1"
       d="m 15.945797,17.958205 c 2.389156,0 4.995508,-0.50209 5.321298,-1.807533 0,-0.10052 0,-0.200833 0,-0.30126 l -1.303171,-4.117166 c -0.108575,-0.30126 -0.434398,-0.401678 -0.651596,-0.30126 0,0 0,0 0,0 -2.171957,0.602526 -4.561104,0.602526 -6.733056,0 -0.325805,-0.100589 -0.543,0.100543 -0.651591,0.30126 0,0 0,0 0,0 l -1.303178,4.217593 c 0,0.100558 0,0.200833 0,0.301245 0.325794,1.205031 2.932143,1.707121 5.321294,1.707121 z m -3.149326,-5.422606 c 2.063358,0.502088 4.235305,0.502088 6.298664,0 l 1.085985,3.514656 c -0.325784,0.401674 -1.846166,0.903762 -4.235322,0.903762 -2.38915,0 -3.909524,-0.502088 -4.23531,-0.903762 z"
       id="path5"
       style="fill:#d3dae3;fill-opacity:1;stroke-width:1.04426" />
    <path
       class="st1"
       d="m 27.782959,25.590038 -2.389152,-5.62345 c -0.217184,-0.60251 -0.868774,-1.004197 -1.520369,-1.004197 h -1.520372 c -0.325788,0 -0.542988,0.200841 -0.542988,0.502096 0,0.100488 0,0.200838 0.108642,0.200838 0,0.100456 0.108604,0.20084 0.108604,0.301263 0,0.903761 -2.60636,2.008378 -5.972873,2.008378 -3.366546,0 -5.97288,-1.104617 -5.97288,-2.008378 0,-0.100426 0,-0.200839 0.108606,-0.301263 0.108516,-0.200838 0,-0.502093 -0.2171974,-0.702934 -0.1085785,0 -0.1085785,-0.1005 -0.2171965,-0.1005 h -1.52049 c -0.651588,0 -1.303164,0.401668 -1.520364,1.004189 L 4.325786,25.489523 C 4,25.790786 4,25.991616 4,26.192445 4,27.196641 4.868789,28 5.954771,28 v 0 h 20.090598 c 1.085975,0 1.954747,-0.803359 1.954747,-1.807555 -0.108644,-0.20083 -0.108644,-0.40166 -0.217185,-0.602493 z M 25.936801,26.99589 H 5.954802 c -0.542989,0 -0.868789,-0.301261 -0.868789,-0.803356 v 0 c 0,-0.100364 0,-0.200833 0.108579,-0.200833 l 2.3891531,-5.623444 c 0.108539,-0.200838 0.325795,-0.301263 0.542992,-0.301263 h 0.868782 c 0,1.707118 3.0407239,3.012564 7.0588459,3.012564 4.018126,0 7.058854,-1.305446 7.058854,-3.012564 h 0.868782 c 0.217195,0 0.434396,0.100415 0.543,0.301263 l 2.280532,5.623444 v 0 c 0,0.100366 0.108673,0.200833 0,0.301265 0,0.401663 -0.434393,0.702924 -0.868779,0.702924 z"
       id="path6"
       style="fill:#d3dae3;fill-opacity:1;stroke-width:1.04426" />
  </g>
  <g
     id="22-22-vlc"
     transform="translate(32,10)">
    <rect
       style="opacity:0.00100002"
       width="22"
       height="22"
       x="0"
       y="0"
       id="rect2" />
    <path
       class="st1"
       d="m 9.515862,5.476989 c 0.941175,0.200836 1.882352,0.200836 2.82353,0 0.217196,-0.06699 0.289595,-0.200837 0.289595,-0.401674 0,0 0,0 0,0 L 12.194594,3.7364 C 12.049794,3.334726 11.615403,3 11.181018,3 H 10.819036 C 10.312239,3 9.950255,3.26778 9.805457,3.7364 L 9.371066,5.075315 c -0.144799,0.133888 0,0.334724 0.144796,0.401674 0,-0.06699 0,-0.06699 0,0 z m 0.868782,-1.606693 c 0.07235,-0.133896 0.217192,-0.26779 0.361987,-0.26779 h 0.361989 c 0.144797,0 0.289594,0.06698 0.361986,0.26779 l 0.361999,1.00418 c -0.579187,0.067 -1.158365,0.067 -1.737553,0 z"
       id="path4-3"
       style="fill:#d3dae3;fill-opacity:1;stroke-width:0.696182" />
    <path
       class="st1"
       d="m 10.963829,12.305445 c 1.592759,0 3.330323,-0.334727 3.54752,-1.205025 0,-0.06696 0,-0.133892 0,-0.200838 L 13.642569,8.15481 c -0.0724,-0.200834 -0.289597,-0.267781 -0.434396,-0.200834 0,0 0,0 0,0 -1.447974,0.401676 -3.040729,0.401676 -4.488694,0 -0.2172,-0.06699 -0.361997,0.06697 -0.434391,0.200834 0,0 0,0 0,0 L 7.41631,10.966527 c 0,0.067 0,0.133892 0,0.200841 0.217187,0.803348 1.954755,1.138077 3.547519,1.138077 z M 8.864278,8.690376 c 1.375572,0.334727 2.823531,0.334727 4.1991,0 l 0.723988,2.343103 c -0.217194,0.267777 -1.230778,0.602503 -2.823536,0.602503 -1.592764,0 -2.606347,-0.334726 -2.823535,-0.602503 z"
       id="path5-6"
       style="fill:#d3dae3;fill-opacity:1;stroke-width:0.696182" />
    <path
       class="st1"
       d="M 18.855235,17.393314 17.262474,13.64436 c -0.144788,-0.401678 -0.579181,-0.669465 -1.013575,-0.669465 h -1.013576 c -0.217195,0 -0.361994,0.133894 -0.361994,0.33473 0,0.06695 0,0.133897 0.07245,0.133897 0,0.06693 0.0724,0.133883 0.0724,0.200838 0,0.602501 -1.73757,1.338908 -3.981904,1.338908 -2.24436,0 -3.981912,-0.736407 -3.981912,-1.338908 0,-0.06693 0,-0.133896 0.07242,-0.200838 0.07235,-0.133897 0,-0.334733 -0.1448,-0.468627 -0.0724,0 -0.0724,-0.06695 -0.144797,-0.06695 H 5.823521 c -0.434386,0 -0.868773,0.267781 -1.013571,0.669458 L 3.217196,17.326352 C 3,17.527194 3,17.66108 3,17.794965 3,18.464428 3.579187,19 4.303172,19 v 0 h 13.393687 c 0.72398,0 1.303167,-0.535572 1.303167,-1.205035 -0.07245,-0.133885 -0.07245,-0.267771 -0.144793,-0.401657 z m -1.230762,0.937227 H 4.303184 c -0.361997,0 -0.579188,-0.200839 -0.579188,-0.535569 v 0 c 0,-0.06688 0,-0.13389 0.07238,-0.13389 l 1.592761,-3.74895 c 0.07236,-0.133884 0.217196,-0.200839 0.361995,-0.200839 h 0.579182 c 0,1.138075 2.027144,2.008371 4.705886,2.008371 2.678736,0 4.705886,-0.870296 4.705886,-2.008371 h 0.57919 c 0.144795,0 0.289595,0.0669 0.361996,0.200839 l 1.520345,3.74895 v 0 c 0,0.06689 0.07247,0.13389 0,0.200847 0,0.267773 -0.289593,0.468612 -0.57918,0.468612 z"
       id="path6-7"
       style="fill:#d3dae3;fill-opacity:1;stroke-width:0.696182" />
  </g>
</svg>
