<?xml version="1.0" encoding="UTF-8" standalone="no"?>
<svg
   inkscape:version="1.3 (0e150ed6c4, 2023-07-21)"
   sodipodi:docname="window.svg"
   viewBox="0 0 22 22"
   version="1.1"
   height="22"
   width="22"
   id="svg"
   xmlns:inkscape="http://www.inkscape.org/namespaces/inkscape"
   xmlns:sodipodi="http://sodipodi.sourceforge.net/DTD/sodipodi-0.dtd"
   xmlns="http://www.w3.org/2000/svg"
   xmlns:svg="http://www.w3.org/2000/svg"
   xmlns:rdf="http://www.w3.org/1999/02/22-rdf-syntax-ns#"
   xmlns:cc="http://creativecommons.org/ns#"
   xmlns:dc="http://purl.org/dc/elements/1.1/">
  <metadata
     id="metadata60">
    <rdf:RDF>
      <cc:Work
         rdf:about="">
        <dc:format>image/svg+xml</dc:format>
        <dc:type
           rdf:resource="http://purl.org/dc/dcmitype/StillImage" />
      </cc:Work>
    </rdf:RDF>
  </metadata>
  <sodipodi:namedview
     inkscape:document-rotation="0"
     inkscape:lockguides="false"
     inkscape:current-layer="svg"
     inkscape:window-maximized="1"
     inkscape:window-y="0"
     inkscape:window-x="0"
     inkscape:cy="0.061869485"
     inkscape:cx="31.677176"
     inkscape:zoom="8.0815284"
     showgrid="true"
     id="namedview58"
     inkscape:window-height="994"
     inkscape:window-width="1920"
     inkscape:pageshadow="2"
     inkscape:pageopacity="0"
     guidetolerance="10"
     gridtolerance="10"
     objecttolerance="10"
     borderopacity="1"
     bordercolor="#000000"
     pagecolor="#280b17"
     inkscape:showpageshadow="true"
     inkscape:pagecheckerboard="true"
     inkscape:deskcolor="#280b17">
    <inkscape:grid
       id="grid1"
       units="px"
       originx="-2.3139172e-06"
       originy="-42"
       spacingx="1"
       spacingy="1"
       empcolor="#0099e5"
       empopacity="0.30196078"
       color="#0099e5"
       opacity="0.14901961"
       empspacing="5"
       dotted="false"
       gridanglex="30"
       gridanglez="30"
       visible="true" />
  </sodipodi:namedview>
  <defs
     id="defs4">
    <linearGradient
       id="linearGradient5606"
       inkscape:swatch="solid">
      <stop
         style="stop-color:#000000"
         offset="0"
         id="stop5608" />
    </linearGradient>
  </defs>
  <rect
     id="rect16"
     y="-28.230003"
     x="-38.32999"
     height="22"
     width="22"
     style="fill:#cfd8dc;fill-opacity:0" />
  <g
     transform="translate(31.999998,-32)"
     id="22-22-window-close"
     style="fill:#d3dae3;fill-opacity:1">
    <rect
       id="rect18"
       y="0"
       x="0"
       height="22"
       width="22"
       style="opacity:0.00100002;fill:#d3dae3;fill-opacity:1" />
    <g
       id="g24"
       transform="matrix(1.7493122,0,0,1.7499488,-107.95048,-909.47286)"
       style="fill:#d3dae3;fill-opacity:1">
      <g
         id="g22"
         transform="translate(19,-242)"
         style="fill:#d3dae3;fill-opacity:1">
        <path
           id="path20"
           d="m 45.571203,764.57141 h 0.857142 c 0.0089,-1.1e-4 0.01782,-4e-4 0.02679,0 0.21853,0.01 0.437032,0.11021 0.589286,0.26785 l 1.955357,1.95536 1.982143,-1.95536 c 0.227678,-0.19757 0.382861,-0.26185 0.589285,-0.26785 h 0.857143 v 0.85714 c 0,0.24555 -0.02943,0.47199 -0.214285,0.64286 l -1.955357,1.95535 1.928571,1.92858 c 0.161304,0.16128 0.241064,0.38867 0.241071,0.61607 v 0.85714 h -0.857143 c -0.2274,-10e-6 -0.454788,-0.0798 -0.616071,-0.24107 l -1.955357,-1.95536 -1.955357,1.95536 c -0.161288,0.1613 -0.388684,0.24107 -0.616076,0.24107 h -0.857142 v -0.85714 c -3e-6,-0.22739 0.07977,-0.45479 0.241071,-0.61607 l 1.955357,-1.92858 -1.955357,-1.95535 c -0.180636,-0.16683 -0.259851,-0.40222 -0.241071,-0.64286 z"
           style="fill:#d3dae3;fill-opacity:1" />
      </g>
    </g>
  </g>
  <g
     transform="translate(53.999998,-10.000003)"
     id="16-16-window-close"
     style="fill:#d3dae3;fill-opacity:1">
    <rect
       id="rect27"
       y="-16"
       x="0"
       height="16"
       width="16"
       style="opacity:0.00100002;fill:#d3dae3;fill-opacity:1" />
    <g
       id="g33"
       transform="matrix(1.2495087,0,0,1.2499635,-76.964626,-665.48065)"
       style="fill:#d3dae3;fill-opacity:1">
      <g
         id="g31"
         transform="translate(19,-242)"
         style="fill:#d3dae3;fill-opacity:1">
        <path
           id="path29"
           d="m 45.799685,764.79997 h 0.8 c 0.0083,-10e-5 0.01663,-3.7e-4 0.025,0 0.203961,0.009 0.407896,0.10286 0.55,0.25 l 1.825,1.825 1.85,-1.825 c 0.2125,-0.1844 0.357337,-0.2444 0.55,-0.25 h 0.8 v 0.8 c 0,0.22918 -0.02747,0.44052 -0.2,0.6 l -1.825,1.825 1.8,1.8 c 0.15055,0.15054 0.224993,0.36276 0.225,0.575 v 0.8 h -0.8 c -0.212241,-10e-6 -0.424469,-0.0745 -0.575,-0.225 l -1.825,-1.825 -1.825,1.825 c -0.150531,0.15055 -0.362768,0.225 -0.575,0.225 h -0.8 v -0.8 c -3e-6,-0.21223 0.07445,-0.42446 0.225,-0.575 l 1.825,-1.8 -1.825,-1.825 c -0.168594,-0.1557 -0.242528,-0.3754 -0.225,-0.6 z"
           style="fill:#d3dae3;fill-opacity:1" />
      </g>
    </g>
  </g>
  <g
     id="window-close"
     style="fill:#d3dae3;fill-opacity:1"
     transform="translate(-2.3139172e-6,-42)">
    <rect
       id="rect36"
       style="opacity:0.00100002;fill:#d3dae3;fill-opacity:1"
       y="0"
       x="0"
       height="32"
       width="32" />
    <g
       id="g46"
       transform="matrix(1.7493122,0,0,1.7499488,-102.95048,-903.47286)"
       style="opacity:0.2;fill:#d3dae3;fill-opacity:1">
      <g
         id="g44"
         transform="translate(19,-242)"
         style="fill:#d3dae3;fill-opacity:1" />
    </g>
    <g
       id="g52"
       style="fill:#d3dae3;fill-opacity:1"
       transform="matrix(1.7493122,0,0,1.7499488,-102.95048,-904.47286)">
      <g
         id="g50"
         style="fill:#d3dae3;fill-opacity:1"
         transform="translate(19,-242)">
        <path
           id="path48"
           style="fill:#d3dae3;fill-opacity:1"
           d="m 45.571203,764.57141 h 0.857142 c 0.0089,-1.1e-4 0.01782,-4e-4 0.02679,0 0.21853,0.01 0.437032,0.11021 0.589286,0.26785 l 1.955357,1.95536 1.982143,-1.95536 c 0.227678,-0.19757 0.382861,-0.26185 0.589285,-0.26785 h 0.857143 v 0.85714 c 0,0.24555 -0.02943,0.47199 -0.214285,0.64286 l -1.955357,1.95535 1.928571,1.92858 c 0.161304,0.16128 0.241064,0.38867 0.241071,0.61607 v 0.85714 h -0.857143 c -0.2274,-10e-6 -0.454788,-0.0798 -0.616071,-0.24107 l -1.955357,-1.95536 -1.955357,1.95536 c -0.161288,0.1613 -0.388684,0.24107 -0.616076,0.24107 h -0.857142 v -0.85714 c -3e-6,-0.22739 0.07977,-0.45479 0.241071,-0.61607 l 1.955357,-1.92858 -1.955357,-1.95535 c -0.180636,-0.16683 -0.259851,-0.40222 -0.241071,-0.64286 z" />
      </g>
    </g>
  </g>
  <g
     id="16-16-window-pin"
     transform="translate(22,6)">
    <path
       d="M 10.476562,2 A 0.50005,0.50005 0 0 0 10.083984,2.2226562 L 8.1914062,5.0625 4.3789062,6.015625 A 0.50005,0.50005 0 0 0 4.1464844,6.8535156 L 6.2929688,9 3.1464844,12.146484 c -0.195212,0.195254 -0.195212,0.511778 0,0.707032 0.195254,0.195212 0.5117772,0.195212 0.7070312,0 L 7,9.7070312 9.1464844,11.853516 A 0.50005,0.50005 0 0 0 9.984375,11.621094 L 10.9375,7.8085938 13.777344,5.9160156 a 0.50005,0.50005 0 0 0 0.07617,-0.7695312 l -3,-3 A 0.50005,0.50005 0 0 0 10.476562,2 Z m 0.101563,1.2851562 2.136719,2.1367188 -2.492188,1.6621094 A 0.50005,0.50005 0 0 0 10.015625,7.3789062 L 9.2304688,10.523438 5.4765625,6.7695312 8.6210938,5.984375 A 0.50005,0.50005 0 0 0 8.9160156,5.7773438 Z"
       id="path2219"
       style="fill:#d3dae3;fill-opacity:1" />
    <path
       fill="none"
       d="M 0,0 H 16 V 16 H 0 Z"
       id="rect847" />
  </g>
  <g
     transform="translate(22.000075,15.999926)"
     id="8-8-window-pin">
    <rect
       style="opacity:0.003;fill:#000000;fill-opacity:1;stroke:none;stroke-width:2;stroke-linecap:round;stroke-linejoin:round;stroke-miterlimit:4;stroke-dasharray:none;stroke-opacity:1;paint-order:stroke fill markers"
       id="rect1239-1-9"
       width="8"
       height="8"
       x="-7.4982359e-05"
       y="-17.999926" />
    <path
       d="m 4.9765625,-17.5 c -0.181111,0.0088 -0.3432848,0.114891 -0.4238281,0.277344 l -0.890625,1.78125 -2.2597656,0.451172 c -0.3915851,0.07821 -0.53805647,0.561226 -0.2558594,0.84375 L 2.2929688,-13 0.14648438,-10.853516 c -0.195212,0.195254 -0.195212,0.511778 0,0.707032 0.195254,0.1952116 0.51177725,0.1952116 0.70703124,0 L 3,-12.292969 l 1.1464844,1.146485 c 0.2825243,0.282197 0.7655445,0.135725 0.84375,-0.25586 l 0.4511718,-2.259765 1.78125,-0.890625 c 0.3055213,-0.152285 0.3720108,-0.559162 0.1308594,-0.800782 l -2,-2 C 5.2540952,-17.453242 5.117234,-17.506427 4.9765625,-17.5 Z"
       id="path1353-3"
       style="fill:#d3dae3;fill-opacity:1" />
  </g>
  <g
     transform="translate(38,6)"
     id="16-16-window-unpin">
    <path
       id="path2486"
       d="M 10.476562,2 A 0.50005,0.50005 0 0 0 10.083984,2.2226562 L 8.1914062,5.0625 4.3789062,6.015625 A 0.50005,0.50005 0 0 0 4.1464844,6.8535156 L 6.2929688,9 3.1464844,12.146484 c -0.195212,0.195254 -0.195212,0.511778 0,0.707032 0.195254,0.195212 0.5117772,0.195212 0.7070312,0 L 7,9.7070312 9.1464844,11.853516 A 0.50005,0.50005 0 0 0 9.984375,11.621094 L 10.9375,7.8085938 13.777344,5.9160156 a 0.50005,0.50005 0 0 0 0.07617,-0.7695312 l -3,-3 A 0.50005,0.50005 0 0 0 10.476562,2 Z m 0.101563,1.2851562 2.136719,2.1367188 -2.492188,1.6621094 A 0.50005,0.50005 0 0 0 10.015625,7.3789062 L 9.2304688,10.523438 5.4765625,6.7695312 8.6210938,5.984375 A 0.50005,0.50005 0 0 0 8.9160156,5.7773438 Z"
       fill="currentColor"
       class="ColorScheme-Highlight"
       style="color:#3daee9;fill:#3a6ab0;fill-opacity:1" />
    <path
       id="path2488"
       d="M 0,0 H 16 V 16 H 0 Z"
       fill="none" />
  </g>
  <g
     id="window-unpin"
     transform="translate(54)">
    <path
       id="path2492"
       d="M 0,0 H 22 V 22 H 0 Z"
       fill="none" />
    <path
       fill="currentColor"
       class="ColorScheme-Highlight"
       id="path2494"
       d="m 12.515642,4.205161 c -0.49249,-0.0063 -0.94997,0.27111 -1.17187,0.710938 -6.5e-4,0.0013 -9.5e-4,0.0026 -0.002,0.0039 l -1.7168,3.433594 -4.378906,0.876953 h -0.002 C 4.28451,9.423143 3.89131,10.724611 4.583909,11.416093 l 2.646485,2.646484 -4.083985,4.083976 c -0.19521,0.19526 -0.19521,0.51178 0,0.70704 0.19525,0.19521 0.511782,0.19521 0.707032,0 l 4.083984,-4.083985 2.646477,2.646485 c 0.69149,0.69256 1.99294,0.29937 2.18555,-0.66016 v -0.002 l 0.87695,-4.378906 3.4336,-1.716797 c 0.76352,-0.382605 0.93937,-1.470354 0.33594,-2.074219 v -0.002 l -4,-3.998047 c 0,0 -0.002,-0.002 -0.002,-0.002 -0.23868,-0.237633 -0.56169,-0.372941 -0.89844,-0.376953 z m -0.0117,1 c 0.0769,8.1e-4 0.15057,0.03165 0.20507,0.08594 l 4,4 c 0.14259,0.142244 0.10394,0.382416 -0.0762,0.472656 l -3.87109,1.935547 -0.97266,4.859369 c -0.0464,0.23109 -0.33154,0.31715 -0.49804,0.15039 L 5.291018,10.709069 c -0.166767,-0.166498 -0.08066,-0.451678 0.15039,-0.498046 l 4.859374,-0.972657 1.93555,-3.871093 c 0.0508,-0.10077 0.15472,-0.16371 0.26758,-0.16211 z"
       style="color:#3daee9;fill:#3a6ab0;fill-opacity:1" />
  </g>
  <g
     id="8-8-window-unpin"
     transform="translate(46.000075,15.999926)">
    <rect
       y="-17.999926"
       x="-7.4982359e-05"
       height="8"
       width="8"
       id="rect2500"
       style="opacity:0.003;fill:#000000;fill-opacity:1;stroke:none;stroke-width:2;stroke-linecap:round;stroke-linejoin:round;stroke-miterlimit:4;stroke-dasharray:none;stroke-opacity:1;paint-order:stroke fill markers" />
    <path
       id="path2502"
       d="m 4.9765625,-17.5 c -0.181111,0.0088 -0.3432848,0.114891 -0.4238281,0.277344 l -0.890625,1.78125 -2.2597656,0.451172 c -0.3915851,0.07821 -0.53805647,0.561226 -0.2558594,0.84375 L 2.2929688,-13 0.14648438,-10.853516 c -0.195212,0.195254 -0.195212,0.511778 0,0.707032 0.195254,0.1952116 0.51177725,0.1952116 0.70703124,0 L 3,-12.292969 l 1.1464844,1.146485 c 0.2825243,0.282197 0.7655445,0.135725 0.84375,-0.25586 l 0.4511718,-2.259765 1.78125,-0.890625 c 0.3055213,-0.152285 0.3720108,-0.559162 0.1308594,-0.800782 l -2,-2 C 5.2540952,-17.453242 5.117234,-17.506427 4.9765625,-17.5 Z"
       fill="currentColor"
       class="ColorScheme-Highlight"
       style="color:#3daee9;fill:#3a6ab0;fill-opacity:1" />
  </g>
  <g
     id="window-pin">
    <path
       fill="none"
       d="M 0,0 H 22 V 22 H 0 Z"
       id="rect838" />
    <path
       d="M 18.789514,7.0929843 14.899926,3.2025082 c -0.269948,-0.27001 -0.740201,-0.27001 -1.009868,0 l -0.576969,0.577101 c -0.114156,0.1139319 -0.177111,0.2654765 -0.177111,0.4268696 0,0.1616746 0.06296,0.3132191 0.176861,0.4271511 l 0.49826,0.498124 L 9.6835716,8.57213 C 9.1660873,8.1617999 8.4819015,8.0345175 7.8441345,8.2476866 L 7.188769,8.4659207 C 6.9684279,8.5395512 6.8051961,8.7183281 6.7518378,8.9442848 6.6984796,9.1705229 6.7646538,9.4034519 6.9289484,9.5672525 l 2.1848747,2.1853735 -5.1669971,5.16849 c -0.482256,0.482116 -0.8079382,1.090952 -0.9415995,1.759536 -0.017599,0.08751 0.00988,0.177964 0.072832,0.241183 0.05067,0.05043 0.1186885,0.07816 0.1885825,0.07816 0.017348,0 0.034947,-0.0019 0.052545,-0.0053 0.6687129,-0.133661 1.2774095,-0.459699 1.7591341,-0.941815 l 5.1670279,-5.168146 2.186469,2.186968 c 0.126441,0.12672 0.293955,0.194754 0.467596,0.194754 0.05095,0 0.102965,-0.0059 0.154167,-0.01813 0.225405,-0.05309 0.403828,-0.216108 0.477192,-0.435937 l 0.219247,-0.657672 c 0.212589,-0.637913 0.08562,-1.322786 -0.324901,-1.839857 l 3.439591,-4.1284706 0.497728,0.498124 c 0.117908,0.1176526 0.272606,0.1766196 0.427304,0.1766196 0.154698,0 0.309678,-0.058967 0.427585,-0.1766196 L 18.789763,8.1119459 C 19.07012,7.8310243 19.07012,7.3737332 18.789513,7.0930303 Z m -5.545757,6.8930707 -0.219247,0.657673 c -0.01972,0.05975 -0.06696,0.07898 -0.09337,0.08539 -0.02613,0.0069 -0.07737,0.01013 -0.122158,-0.03467 l -2.375051,-2.375594 -0.08084,-0.0811 -3.0472337,-3.0479302 c -0.045075,-0.044835 -0.041074,-0.096329 -0.034947,-0.122999 0.00641,-0.026419 0.025882,-0.074162 0.08668,-0.094454 L 8.0129616,8.7535957 c 0.5182658,-0.172086 1.0800121,-0.04002 1.4662732,0.3462982 l 0.011472,0.011474 c 0,0 0,2.814e-4 2.813e-4,2.814e-4 l 1.6975239,1.6979117 1.708995,1.709667 c 0.386261,0.386287 0.519079,0.948162 0.34625,1.466827 z M 14.999998,5 v 0 0 0 0 c 0,0 2.82e-4,2.501e-4 0,0 v 0 0 0 0 0 z"
       id="path1"
       style="fill:#d3dae3;fill-opacity:1;stroke-width:0.0312621"
       sodipodi:nodetypes="ccccscccccccccccsccccsccccccsccccccccccccccscccccccccccccccccc" />
  </g>
</svg>
