<?xml version="1.0" encoding="UTF-8" standalone="no"?>
<svg
   sodipodi:docname="restart_primary.svg"
   inkscape:version="1.3 (0e150ed6c4, 2023-07-21)"
   id="svg1699"
   version="1.1"
   viewBox="0 0 32 32"
   height="32"
   width="32"
   xmlns:inkscape="http://www.inkscape.org/namespaces/inkscape"
   xmlns:sodipodi="http://sodipodi.sourceforge.net/DTD/sodipodi-0.dtd"
   xmlns:xlink="http://www.w3.org/1999/xlink"
   xmlns="http://www.w3.org/2000/svg"
   xmlns:svg="http://www.w3.org/2000/svg"
   xmlns:rdf="http://www.w3.org/1999/02/22-rdf-syntax-ns#"
   xmlns:cc="http://creativecommons.org/ns#"
   xmlns:dc="http://purl.org/dc/elements/1.1/">
  <defs
     id="defs1693">
    <linearGradient
       inkscape:collect="always"
       xlink:href="#a-5"
       id="linearGradient1141"
       gradientUnits="userSpaceOnUse"
       x1="-4.4389915"
       y1="-79.303848"
       x2="-4.4704795"
       y2="-55.018158"
       gradientTransform="matrix(1.1538461,0,0,1.1538461,120.49836,175.22668)" />
    <linearGradient
       id="a-5"
       x1="16"
       x2="16"
       y1="1"
       y2="31"
       gradientUnits="userSpaceOnUse">
      <stop
         stop-color="#f4282c"
         offset="0"
         id="stop1009" />
      <stop
         stop-color="#fac136"
         offset="1"
         id="stop1011" />
    </linearGradient>
    <linearGradient
       inkscape:collect="always"
       xlink:href="#a-5"
       id="linearGradient1135"
       x1="6.1999998"
       y1="14.435682"
       x2="21.352779"
       y2="14.435682"
       gradientUnits="userSpaceOnUse"
       gradientTransform="matrix(1.2527491,0,0,1.2527455,94.615956,77.875043)" />
    <linearGradient
       inkscape:collect="always"
       xlink:href="#linearGradient1120"
       id="linearGradient1143"
       x1="10.64826"
       y1="17.5474"
       x2="25.82799"
       y2="17.5474"
       gradientUnits="userSpaceOnUse"
       gradientTransform="matrix(1.2527491,0,0,1.2527455,94.615956,77.875043)" />
    <linearGradient
       id="linearGradient1120"
       x1="16"
       x2="16"
       y1="1"
       y2="31"
       gradientUnits="userSpaceOnUse">
      <stop
         stop-color="#ff791d"
         offset="0"
         id="stop1115"
         style="stop-color:#ff5555;stop-opacity:1" />
      <stop
         stop-color="#f8c430"
         offset="1"
         id="stop1117"
         style="stop-color:#ffb380;stop-opacity:1" />
    </linearGradient>
  </defs>
  <sodipodi:namedview
     inkscape:document-rotation="0"
     inkscape:window-maximized="1"
     inkscape:window-y="0"
     inkscape:window-x="0"
     inkscape:window-height="994"
     inkscape:window-width="1920"
     showgrid="true"
     inkscape:current-layer="layer1"
     inkscape:document-units="px"
     inkscape:cy="-2.7147849"
     inkscape:cx="30.430845"
     inkscape:zoom="7.919596"
     inkscape:pageshadow="2"
     inkscape:pageopacity="0"
     borderopacity="1"
     bordercolor="#ff1919"
     pagecolor="#000000"
     id="base"
     inkscape:pagecheckerboard="true"
     inkscape:showpageshadow="false"
     inkscape:deskcolor="#000000">
    <inkscape:grid
       type="xygrid"
       id="grid844"
       originx="0"
       originy="0"
       spacingy="1"
       spacingx="1"
       units="mm"
       visible="true" />
  </sodipodi:namedview>
  <metadata
     id="metadata1696">
    <rdf:RDF>
      <cc:Work
         rdf:about="">
        <dc:format>image/svg+xml</dc:format>
        <dc:type
           rdf:resource="http://purl.org/dc/dcmitype/StillImage" />
      </cc:Work>
    </rdf:RDF>
  </metadata>
  <g
     transform="translate(-98.729144,-81.918987)"
     id="layer1"
     inkscape:groupmode="layer"
     inkscape:label="Layer 1">
    <g
       id="system-switch-user"
       transform="translate(-184.27085,81.918987)">
      <g
         id="g1729">
        <circle
           style="opacity:0;fill:none;fill-opacity:1;stroke-width:1.06667"
           id="circle955"
           r="16"
           cy="-16"
           cx="299"
           transform="scale(1,-1)" />
      </g>
    </g>
    <path
       d="m 99.729144,97.902029 c 0,-0.802143 0.06966,-1.604283 0.209196,-2.406426 1.3249,-8.160923 9.03025,-13.706167 17.18886,-12.380889 3.93984,0.627764 7.42643,2.790059 9.76244,6.033504 2.33601,3.243444 3.2774,7.219279 2.6498,11.160232 -1.3249,8.16093 -9.03025,13.74105 -17.18886,12.41577 -1.56897,-0.24413 -3.06819,-0.73238 -4.46283,-1.46478 -0.34866,-0.17437 -0.66245,-0.34876 -0.97624,-0.55801 -0.48812,-0.31389 -0.66246,-0.94165 -0.34866,-1.42991 0.31379,-0.48827 0.94138,-0.66263 1.4295,-0.34875 0.27892,0.17438 0.55785,0.31388 0.83678,0.48826 1.18544,0.62776 2.51035,1.04627 3.83525,1.25552 7.00803,1.11603 13.66741,-3.66195 14.78311,-10.70685 0.55786,-3.417825 -0.24405,-6.800772 -2.26629,-9.625707 -2.02221,-2.79006 -4.98581,-4.638474 -8.40266,-5.196486 -7.00803,-1.150899 -13.66741,3.661954 -14.78312,10.671979 -0.48812,2.999312 0.10454,6.068384 1.63869,8.649184 0.27893,0.48826 0.13947,1.1509 -0.34866,1.42991 -0.48812,0.279 -1.15056,0.1395 -1.4295,-0.34876 -1.39462,-2.30179 -2.126806,-4.95235 -2.126806,-7.637791 z"
       id="path2-5"
       style="fill:url(#linearGradient1141);fill-opacity:1;stroke-width:0.348707" />
    <path
       d="m 113.63929,89.197802 c -2.8333,0.399814 -5.32616,2.118668 -6.70459,4.62006 -0.40836,0.748808 -0.79107,1.8124 -0.9188,2.594939 l -0.11065,0.655247 -1.76115,0.04275 -1.76115,0.04275 2.80768,2.807652 2.80765,2.80767 2.83332,-2.83328 2.82474,-2.824754 h -1.76968 c -2.02512,0 -1.90596,0.05972 -1.5826,-0.825266 0.68899,-1.846133 2.38222,-2.994748 4.44153,-3.003294 h 0.57025 v -0.680437 -0.680886 h -0.61297 c -0.90172,0 -1.71033,0.204179 -2.57786,0.629619 -1.69323,0.842345 -2.81622,2.220761 -3.27582,4.016067 -0.0936,0.365653 -0.17002,0.935884 -0.17002,1.284878 v 0.620653 h 0.86797 0.87653 l -1.19134,1.190892 -1.19132,1.191318 -1.17425,-1.165698 -1.16568,-1.17424 0.76587,-0.02559 0.76588,-0.02569 v -0.578363 c 0,-5.07967 4.96051,-8.601953 9.81852,-6.97665 0.9786,0.323358 1.71843,0.76589 2.63765,1.574049 l 0.7488,0.65525 0.46817,-0.468158 0.45961,-0.459612 -0.62963,-0.595442 c -1.16569,-1.114418 -2.42492,-1.803827 -4.03316,-2.212185 -0.89359,-0.229377 -2.26349,-0.314815 -3.06353,-0.204183 z"
       id="path8-3"
       style="fill:url(#linearGradient1135);fill-opacity:1;stroke-width:0.00427155" />
    <path
       d="m 118.52333,95.81736 c -1.53175,1.531329 -2.78246,2.807669 -2.78246,2.850373 0,0.03422 0.78297,0.05944 1.74406,0.05944 0.97007,0 1.74407,0.03422 1.74407,0.0765 0,0.263541 -0.39128,1.250697 -0.6638,1.676137 -0.86797,1.33569 -2.26305,2.07595 -3.90545,2.07595 h -0.70607 v 0.689 0.69753 l 0.96151,-0.0427 c 1.09778,-0.0509 1.96531,-0.32334 2.82475,-0.87652 1.07215,-0.68045 2.10158,-1.91449 2.50995,-3.00328 0.2298,-0.587338 0.4169,-1.599679 0.42544,-2.212213 v -0.442538 h -0.80818 c -0.44252,0 -0.80817,-0.02569 -0.80817,-0.06788 0,-0.03422 0.51899,-0.57837 1.14861,-1.207989 l 1.1486,-1.148604 1.21654,1.216515 1.20799,1.207991 h -0.82526 -0.82526 l -0.0427,0.357515 c -0.0258,0.204188 -0.0594,0.672338 -0.085,1.055063 -0.0427,0.731719 -0.35751,1.8376 -0.71461,2.54411 -1.19988,2.38223 -3.49709,3.8542 -6.22788,4.00753 -2.11014,0.11914 -3.95627,-0.55315 -5.46241,-1.99094 l -0.67192,-0.6467 -0.48481,0.4942 -0.48526,0.48481 0.6211,0.59545 c 1.08923,1.03799 2.40785,1.77824 3.9221,2.18659 1.12298,0.29773 2.99476,0.31481 4.09254,0.0427 3.46291,-0.87654 6.14287,-3.72647 6.72166,-7.155651 l 0.10211,-0.612525 h 1.77865 c 0.97862,0 1.77825,-0.02569 1.77825,-0.06788 0,-0.06797 -5.54742,-5.63241 -5.61533,-5.63241 -0.0257,0 -1.29343,1.250701 -2.8333,2.790575 z"
       id="path10-6"
       style="fill:url(#linearGradient1143);fill-opacity:1;stroke-width:0.00427155" />
  </g>
</svg>
