<?xml version="1.0" encoding="UTF-8" standalone="no"?>
<svg
   sodipodi:docname="shutdown_primary.svg"
   inkscape:version="1.3 (0e150ed6c4, 2023-07-21)"
   id="svg1699"
   version="1.1"
   viewBox="0 0 32 32"
   height="32"
   width="32"
   xmlns:inkscape="http://www.inkscape.org/namespaces/inkscape"
   xmlns:sodipodi="http://sodipodi.sourceforge.net/DTD/sodipodi-0.dtd"
   xmlns:xlink="http://www.w3.org/1999/xlink"
   xmlns="http://www.w3.org/2000/svg"
   xmlns:svg="http://www.w3.org/2000/svg"
   xmlns:rdf="http://www.w3.org/1999/02/22-rdf-syntax-ns#"
   xmlns:cc="http://creativecommons.org/ns#"
   xmlns:dc="http://purl.org/dc/elements/1.1/">
  <defs
     id="defs1693">
    <linearGradient
       inkscape:collect="always"
       xlink:href="#linearGradient23"
       id="linearGradient2"
       x1="29"
       y1="-99"
       x2="49"
       y2="-90"
       gradientUnits="userSpaceOnUse"
       gradientTransform="matrix(1.153846,0,0,1.153846,66.267597,212.14974)" />
    <linearGradient
       id="linearGradient23"
       inkscape:collect="always">
      <stop
         style="stop-color:#d63384;stop-opacity:1"
         offset="0"
         id="stop22" />
      <stop
         style="stop-color:#2ad4ff;stop-opacity:1"
         offset="1"
         id="stop23" />
    </linearGradient>
    <linearGradient
       inkscape:collect="always"
       xlink:href="#linearGradient23"
       id="linearGradient5"
       x1="34.099998"
       y1="-97.909706"
       x2="50.027"
       y2="-97.909706"
       gradientUnits="userSpaceOnUse"
       gradientTransform="matrix(1.153846,0,0,1.153846,66.267597,212.14974)" />
    <linearGradient
       inkscape:collect="always"
       xlink:href="#linearGradient23"
       id="linearGradient11"
       x1="40.333"
       y1="-101.1"
       x2="43.999668"
       y2="-101.1"
       gradientUnits="userSpaceOnUse"
       gradientTransform="matrix(1.153846,0,0,1.153846,66.267597,212.14974)" />
  </defs>
  <sodipodi:namedview
     inkscape:document-rotation="0"
     inkscape:window-maximized="1"
     inkscape:window-y="0"
     inkscape:window-x="0"
     inkscape:window-height="994"
     inkscape:window-width="1920"
     showgrid="true"
     inkscape:current-layer="layer1"
     inkscape:document-units="px"
     inkscape:cy="-2.2097087"
     inkscape:cx="-9.47018"
     inkscape:zoom="7.919596"
     inkscape:pageshadow="2"
     inkscape:pageopacity="0"
     borderopacity="1"
     bordercolor="#ff1919"
     pagecolor="#000000"
     id="base"
     inkscape:pagecheckerboard="true"
     inkscape:showpageshadow="false"
     inkscape:deskcolor="#000000">
    <inkscape:grid
       type="xygrid"
       id="grid844"
       originx="0"
       originy="0"
       spacingy="1"
       spacingx="1"
       units="mm"
       visible="true" />
  </sodipodi:namedview>
  <metadata
     id="metadata1696">
    <rdf:RDF>
      <cc:Work
         rdf:about="">
        <dc:format>image/svg+xml</dc:format>
        <dc:type
           rdf:resource="http://purl.org/dc/dcmitype/StillImage" />
      </cc:Work>
    </rdf:RDF>
  </metadata>
  <g
     transform="translate(-98.729144,-81.918987)"
     id="layer1"
     inkscape:groupmode="layer"
     inkscape:label="Layer 1">
    <g
       id="system-switch-user"
       transform="translate(-184.27085,81.918987)">
      <g
         id="g1729">
        <circle
           style="opacity:0;fill:none;fill-opacity:1;stroke-width:1.06667"
           id="circle955"
           r="16"
           cy="-16"
           cx="299"
           transform="scale(1,-1)" />
      </g>
    </g>
    <path
       d="m 114.71219,112.91899 c -0.80216,0 -1.60429,-0.0697 -2.40643,-0.20921 -8.16092,-1.32489 -13.706171,-9.03025 -12.380888,-17.188854 0.627758,-3.939842 2.790048,-7.42643 6.033498,-9.762437 3.24345,-2.336007 7.21928,-3.277396 11.16023,-2.649807 8.16094,1.324903 13.74106,9.030252 12.41578,17.188868 -0.24413,1.56897 -0.73239,3.06819 -1.46479,4.46282 -0.17436,0.34866 -0.34875,0.66246 -0.55801,0.97625 -0.31388,0.48812 -0.94164,0.66244 -1.4299,0.34866 -0.48827,-0.31379 -0.66264,-0.94138 -0.34876,-1.4295 0.17438,-0.27893 0.31388,-0.55785 0.48826,-0.83678 0.62777,-1.18544 1.04627,-2.51035 1.25552,-3.83525 1.11603,-7.008035 -3.66195,-13.667411 -10.70685,-14.783111 -3.41783,-0.557861 -6.80076,0.244062 -9.6257,2.266281 -2.79006,2.022219 -4.63846,4.985814 -5.19648,8.402664 -1.1509,7.008036 3.66194,13.667416 10.67197,14.783126 2.99931,0.48812 6.06838,-0.10454 8.64919,-1.63871 0.48825,-0.27892 1.15089,-0.13945 1.4299,0.34867 0.279,0.48811 0.1395,1.15057 -0.34876,1.4295 -2.3018,1.39463 -4.95235,2.12682 -7.63778,2.12682 z"
       id="path2-53"
       style="fill:url(#linearGradient2);stroke-width:1.15385" />
    <path
       d="m 114.80241,105.95569 c -4.43324,0 -8.04008,-3.60683 -8.04008,-8.040069 0,-2.147806 0.83646,-4.166725 2.35489,-5.684864 0.22425,-0.224261 0.22425,-0.587792 0,-0.812342 -0.22397,-0.224261 -0.5875,-0.223973 -0.81234,0 -1.73522,1.735223 -2.69113,4.042442 -2.69113,6.497206 0,5.066679 4.12198,9.188649 9.18866,9.188649 5.06669,0 9.18865,-4.12197 9.18865,-9.188649 0,-2.455052 -0.9559,-4.762848 -2.69198,-6.497771 -0.22426,-0.223973 -0.58808,-0.224262 -0.81234,0 -0.22398,0.224261 -0.22398,0.588069 2.9e-4,0.812331 1.519,1.518138 2.35545,3.537345 2.35545,5.68544 0,4.433239 -3.60683,8.040069 -8.04007,8.040069 z"
       id="path2-5-5"
       style="fill:url(#linearGradient5);stroke-width:1.15385" />
    <path
       d="m 116.61337,89.149758 h -3.38461 c -0.22153,2.3e-5 -0.42306,0.201554 -0.42308,0.423081 v 11.846141 c 2e-5,0.22153 0.20155,0.42306 0.42308,0.42309 h 3.38461 c 0.22151,-3e-5 0.42306,-0.20156 0.42308,-0.42309 V 89.572839 c -0.0117,-0.237623 -0.2325,-0.417877 -0.42308,-0.423081 z m -0.42307,0.84615 v 11.000012 h -2.53847 V 89.995908 Z"
       fill-opacity="1"
       stroke="none"
       marker="none"
       visibility="visible"
       display="inline"
       overflow="visible"
       id="path2-0"
       style="fill:url(#linearGradient11);stroke-width:1.15385" />
  </g>
</svg>
