<?xml version="1.0" encoding="UTF-8" standalone="no"?>
<svg
   sodipodi:docname="suspend_primary.svg"
   inkscape:version="1.3 (0e150ed6c4, 2023-07-21)"
   id="svg1699"
   version="1.1"
   viewBox="0 0 32 32"
   height="32"
   width="32"
   xmlns:inkscape="http://www.inkscape.org/namespaces/inkscape"
   xmlns:sodipodi="http://sodipodi.sourceforge.net/DTD/sodipodi-0.dtd"
   xmlns:xlink="http://www.w3.org/1999/xlink"
   xmlns="http://www.w3.org/2000/svg"
   xmlns:svg="http://www.w3.org/2000/svg"
   xmlns:rdf="http://www.w3.org/1999/02/22-rdf-syntax-ns#"
   xmlns:cc="http://creativecommons.org/ns#"
   xmlns:dc="http://purl.org/dc/elements/1.1/">
  <defs
     id="defs1693">
    <linearGradient
       id="linearGradient6"
       inkscape:collect="always">
      <stop
         style="stop-color:#ffd42a;stop-opacity:1"
         offset="0"
         id="stop3" />
      <stop
         style="stop-color:#00ccff;stop-opacity:1"
         offset="1"
         id="stop4" />
    </linearGradient>
    <linearGradient
       inkscape:collect="always"
       xlink:href="#linearGradient6"
       id="linearGradient4"
       x1="5.4608989"
       y1="23.60133"
       x2="29"
       y2="3.0000029"
       gradientUnits="userSpaceOnUse"
       gradientTransform="matrix(0,1.1538458,-1.1538458,0,133.19068,79.45743)" />
    <linearGradient
       inkscape:collect="always"
       xlink:href="#linearGradient6"
       id="linearGradient8"
       x1="8.5"
       y1="19.000006"
       x2="15.882815"
       y2="19.000006"
       gradientUnits="userSpaceOnUse"
       gradientTransform="matrix(1.1538458,0,0,1.1538458,96.267618,79.45744)" />
    <linearGradient
       inkscape:collect="always"
       xlink:href="#linearGradient6"
       id="linearGradient10"
       x1="17"
       y1="12.5"
       x2="22.742186"
       y2="12.5"
       gradientUnits="userSpaceOnUse"
       gradientTransform="matrix(1.1538458,0,0,1.1538458,96.267618,79.45744)" />
    <linearGradient
       inkscape:collect="always"
       xlink:href="#linearGradient6"
       id="linearGradient5"
       x1="110.17914"
       y1="90.868988"
       x2="112.67914"
       y2="90.868988"
       gradientUnits="userSpaceOnUse"
       gradientTransform="matrix(1.1538458,0,0,1.1538458,-17.650603,-15.064435)" />
    <linearGradient
       inkscape:collect="always"
       xlink:href="#linearGradient6"
       id="linearGradient7"
       x1="117.67914"
       y1="103.86897"
       x2="120.17914"
       y2="103.86897"
       gradientUnits="userSpaceOnUse"
       gradientTransform="matrix(1.1538458,0,0,1.1538458,-17.650603,-15.064435)" />
  </defs>
  <sodipodi:namedview
     inkscape:document-rotation="0"
     inkscape:window-maximized="1"
     inkscape:window-y="0"
     inkscape:window-x="0"
     inkscape:window-height="994"
     inkscape:window-width="1920"
     showgrid="false"
     inkscape:current-layer="layer1"
     inkscape:document-units="px"
     inkscape:cy="27.200048"
     inkscape:cx="-5.0254129"
     inkscape:zoom="7.9595449"
     inkscape:pageshadow="2"
     inkscape:pageopacity="0"
     borderopacity="1"
     bordercolor="#ff1919"
     pagecolor="#000000"
     id="base"
     inkscape:pagecheckerboard="true"
     inkscape:showpageshadow="false"
     inkscape:deskcolor="#000000">
    <inkscape:grid
       type="xygrid"
       id="grid844"
       originx="0"
       originy="0"
       spacingy="1"
       spacingx="1"
       units="mm"
       visible="false" />
  </sodipodi:namedview>
  <metadata
     id="metadata1696">
    <rdf:RDF>
      <cc:Work
         rdf:about="">
        <dc:format>image/svg+xml</dc:format>
        <dc:type
           rdf:resource="http://purl.org/dc/dcmitype/StillImage" />
      </cc:Work>
    </rdf:RDF>
  </metadata>
  <g
     transform="translate(-98.729144,-81.918987)"
     id="layer1"
     inkscape:groupmode="layer"
     inkscape:label="Layer 1">
    <g
       id="system-switch-user"
       transform="translate(-184.27084,81.918987)">
      <g
         id="g1729">
        <circle
           style="opacity:0;fill:none;fill-opacity:1;stroke-width:1.06667"
           id="circle955"
           r="16"
           cy="-16"
           cx="299"
           transform="scale(1,-1)" />
      </g>
    </g>
    <path
       d="m 114.71218,112.91898 c -0.80214,0 -1.60428,-0.0697 -2.40642,-0.20919 -8.16092,-1.3249 -13.706163,-9.03025 -12.38089,-17.18887 0.62776,-3.93984 2.79006,-7.42643 6.03351,-9.76244 3.24344,-2.33602 7.21928,-3.27738 11.16023,-2.6498 8.16092,1.3249 13.74105,9.03025 12.41576,17.18886 -0.24413,1.56897 -0.73238,3.0682 -1.46477,4.46284 -0.17438,0.34866 -0.34876,0.66245 -0.55801,0.97624 -0.31388,0.48812 -0.94164,0.66245 -1.42992,0.34865 -0.48825,-0.31379 -0.66263,-0.94137 -0.34875,-1.4295 0.17438,-0.27892 0.31388,-0.55785 0.48827,-0.83678 0.62776,-1.18543 1.04627,-2.51033 1.25552,-3.83524 1.11602,-7.00804 -3.66195,-13.66742 -10.70685,-14.78312 -3.41783,-0.55786 -6.80077,0.24405 -9.6257,2.26628 -2.79006,2.02223 -4.63848,4.98582 -5.19649,8.40267 -1.1509,7.00804 3.66195,13.66741 10.67198,14.78312 2.99931,0.48813 6.06838,-0.10454 8.64917,-1.63869 0.48826,-0.27893 1.15091,-0.13946 1.42992,0.34866 0.279,0.48812 0.1395,1.15057 -0.34876,1.4295 -2.3018,1.39463 -4.95236,2.12681 -7.6378,2.12681 z"
       id="path2-56"
       style="fill:url(#linearGradient4);stroke-width:1.15385" />
    <circle
       cx="110.92142"
       cy="89.784378"
       r="1.4423074"
       id="circle4"
       style="fill:url(#linearGradient5);stroke-width:1.15385" />
    <circle
       cx="119.57528"
       cy="104.78435"
       r="1.4423074"
       id="circle6"
       style="fill:url(#linearGradient7);stroke-width:1.15385" />
    <path
       d="m 114.59393,106.57284 h -8.51863 v -2.20538 l 4.78043,-5.90353 h -4.2026 v -2.27571 h 7.73492 v 1.9599 l -4.9985,6.15566 h 5.20438 z m -7.91016,-0.60848 h 7.30169 v -1.05211 h -5.87382 l 5.66793,-6.98007 V 96.7967 h -6.51796 v 1.05875 h 4.86981 l -5.44765,6.72748 z"
       id="path2-67"
       style="fill:url(#linearGradient8);stroke-width:1.15385" />
    <path
       d="m 122.50859,97.91898 h -6.6256 V 96.2037 l 3.71811,-4.59164 h -3.26868 v -1.77 h 6.01604 v 1.52436 l -3.88772,4.78773 h 4.04785 z m -6.15234,-0.47326 h 5.67908 v -0.8183 h -4.56852 l 4.40839,-5.42894 v -0.88315 h -5.06953 v 0.82347 h 3.78763 l -4.23705,5.23247 z"
       id="path2-67-5"
       style="fill:url(#linearGradient10);stroke-width:1.15385" />
  </g>
</svg>
