<?xml version="1.0" encoding="UTF-8" standalone="no"?>
<svg
   sodipodi:docname="switch_primary.svg"
   inkscape:version="1.3 (0e150ed6c4, 2023-07-21)"
   id="svg1699"
   version="1.1"
   viewBox="0 0 32 32"
   height="32"
   width="32"
   xmlns:inkscape="http://www.inkscape.org/namespaces/inkscape"
   xmlns:sodipodi="http://sodipodi.sourceforge.net/DTD/sodipodi-0.dtd"
   xmlns:xlink="http://www.w3.org/1999/xlink"
   xmlns="http://www.w3.org/2000/svg"
   xmlns:svg="http://www.w3.org/2000/svg"
   xmlns:rdf="http://www.w3.org/1999/02/22-rdf-syntax-ns#"
   xmlns:cc="http://creativecommons.org/ns#"
   xmlns:dc="http://purl.org/dc/elements/1.1/">
  <defs
     id="defs1693">
    <linearGradient
       inkscape:collect="always"
       xlink:href="#linearGradient27"
       id="linearGradient15"
       x1="3"
       y1="16"
       x2="29"
       y2="16"
       gradientUnits="userSpaceOnUse"
       gradientTransform="matrix(0,1.153846,-1.153846,0,133.19068,79.457469)" />
    <linearGradient
       id="linearGradient27"
       inkscape:collect="always">
      <stop
         style="stop-color:#fea75f;stop-opacity:1"
         offset="0"
         id="stop26" />
      <stop
         style="stop-color:#ff30ff;stop-opacity:1;"
         offset="1"
         id="stop27" />
    </linearGradient>
    <linearGradient
       inkscape:collect="always"
       xlink:href="#linearGradient27"
       id="linearGradient3"
       x1="55.729145"
       y1="98.668991"
       x2="79.729141"
       y2="98.668991"
       gradientUnits="userSpaceOnUse"
       gradientTransform="matrix(0.77419042,0,0,0.77419042,62.293899,20.13037)" />
  </defs>
  <sodipodi:namedview
     inkscape:document-rotation="0"
     inkscape:window-maximized="1"
     inkscape:window-y="0"
     inkscape:window-x="0"
     inkscape:window-height="994"
     inkscape:window-width="1920"
     showgrid="true"
     inkscape:current-layer="layer1"
     inkscape:document-units="px"
     inkscape:cy="11.260247"
     inkscape:cx="-0.98991183"
     inkscape:zoom="4.0407639"
     inkscape:pageshadow="2"
     inkscape:pageopacity="0"
     borderopacity="1"
     bordercolor="#ff0000"
     pagecolor="#000000"
     id="base"
     inkscape:pagecheckerboard="true"
     inkscape:showpageshadow="false"
     inkscape:deskcolor="#000000">
    <inkscape:grid
       type="xygrid"
       id="grid844"
       originx="0"
       originy="0"
       spacingy="1"
       spacingx="1"
       units="mm"
       visible="true" />
  </sodipodi:namedview>
  <metadata
     id="metadata1696">
    <rdf:RDF>
      <cc:Work
         rdf:about="">
        <dc:format>image/svg+xml</dc:format>
        <dc:type
           rdf:resource="http://purl.org/dc/dcmitype/StillImage" />
      </cc:Work>
    </rdf:RDF>
  </metadata>
  <g
     transform="translate(-98.729144,-81.918987)"
     id="layer1"
     inkscape:groupmode="layer"
     inkscape:label="Layer 1">
    <g
       id="system-switch-user"
       transform="translate(-184.27085,81.918987)">
      <g
         id="g1729">
        <circle
           style="opacity:0;fill:none;fill-opacity:1;stroke-width:1.06667"
           id="circle955"
           r="16"
           cy="-16"
           cx="299"
           transform="scale(1,-1)" />
      </g>
    </g>
    <path
       d="m 99.729141,97.902036 c 0,-0.80212 0.0704,-1.60424 0.20922,-2.40642 1.324909,-8.16095 9.030249,-13.706176 17.188909,-12.380898 3.93973,0.627778 7.42641,2.790078 9.76237,6.033548 2.33606,3.24337 3.2774,7.21921 2.6498,11.160164 -1.3248,8.16097 -9.03026,13.74112 -17.18876,12.41578 -1.56904,-0.24409 -3.06826,-0.73235 -4.46297,-1.46471 -0.3486,-0.17441 -0.66238,-0.34878 -0.97615,-0.55803 -0.48814,-0.31389 -0.66249,-0.94166 -0.34876,-1.42988 0.31385,-0.48831 0.94145,-0.66261 1.42958,-0.34878 0.27892,0.17435 0.55787,0.31385 0.83678,0.48825 1.18549,0.62772 2.5104,1.04623 3.83525,1.25553 7.00801,1.11614 13.66734,-3.662 14.78316,-10.706854 0.55786,-3.41788 -0.24402,-6.80076 -2.26629,-9.62571 -2.0223,-2.79009 -4.98579,-4.63853 -8.40266,-5.19656 -7.00805,-1.15083 -13.66746,3.662 -14.78314,10.67207 -0.48816,2.99932 0.10396,6.068334 1.63862,8.649144 0.27892,0.48827 0.13918,1.15092 -0.34856,1.4299 -0.48815,0.27902 -1.1507,0.13935 -1.42964,-0.34869 -1.39453,-2.30184 -2.126759,-4.95239 -2.126759,-7.637854 z"
       id="path2-36-2-3"
       style="fill:url(#linearGradient15);stroke-width:1.15385" />
    <path
       d="m 113.95499,105.01899 h -8.51611 c 0,-2.07646 0.60389,-6.00487 4.48177,-6.3098 0.52959,0.21052 1.10712,0.32589 1.71175,0.32589 0.60468,0 1.18221,-0.11537 1.71176,-0.32589 1.17674,0.0921 2.05237,0.28873 2.70037,0.57441 -0.69678,0.24853 -1.15509,0.58611 -1.45938,0.97392 -0.47377,0.6023 -0.63016,3.86331 -0.63016,4.76147 z m 2.95584,-5.19263 c 0.28722,-0.063 0.61006,-0.11234 0.97474,-0.14718 0.45363,0.20747 0.95763,0.32371 1.48869,0.32371 0.53116,0 1.03516,-0.11624 1.48881,-0.32371 2.72434,0.26252 3.15634,3.82 3.15634,5.33981 h -9.49027 c 0.0247,-0.83089 0.07,-1.66716 0.2,-2.5355 l 1e-5,-0.0305 7.4e-4,-0.0398 v -0.0174 l 8.6e-4,-0.0312 7.2e-4,-0.031 8e-4,-0.0291 7.9e-4,-0.0299 0.002,-0.0304 0.002,-0.0301 7.6e-4,-0.0283 0.002,-0.0299 0.004,-0.0424 0.002,-0.0283 0.005,-0.049 0.004,-0.0391 0.004,-0.0283 0.006,-0.049 0.006,-0.0365 0.005,-0.0312 0.007,-0.0437 0.006,-0.0345 0.007,-0.0336 0.007,-0.0419 0.007,-0.0322 0.007,-0.0296 0.008,-0.0375 0.007,-0.0268 0.007,-0.0283 0.0103,-0.0375 0.0103,-0.0398 0.008,-0.0283 0.0103,-0.0355 0.0103,-0.0294 0.008,-0.022 0.0103,-0.0293 0.0115,-0.0355 0.008,-0.0212 0.0106,-0.0284 0.0134,-0.0345 0.0103,-0.0206 0.0115,-0.0284 0.0115,-0.0274 0.0125,-0.0274 c 0.003,-0.006 0.006,-0.01 0.007,-0.0145 l 0.0133,-0.0268 0.0133,-0.0274 0.004,-0.006 c 0.008,-0.0152 0.0148,-0.0295 0.0222,-0.0427 l 0.0141,-0.025 0.007,-0.0105 c 0.0106,-0.0186 0.0208,-0.0365 0.0326,-0.0544 l 0.0148,-0.023 c 0.0141,-0.0205 0.0279,-0.0422 0.0425,-0.064 l 0.0154,-0.0212 c 0.0154,-0.0205 0.0307,-0.042 0.0471,-0.0624 l 0.0103,-0.0106 c 0.24617,-0.30427 0.61157,-0.55276 1.14578,-0.73625 v 0 c 0.0419,-0.0142 0.0845,-0.0284 0.12775,-0.0418 l 0.021,-0.007 c 0.0318,-0.009 0.0633,-0.0184 0.096,-0.0284 l 0.0287,-0.009 0.0339,-0.009 0.0355,-0.009 c 0.008,-0.003 0.0154,-0.004 0.024,-0.007 l 0.0232,-0.007 0.0488,-0.0116 0.0365,-0.009 0.0374,-0.009 0.0248,-0.006 z m 2.46343,-6.597704 c 1.76284,0 3.19361,1.430707 3.19361,3.193534 0,1.76279 -1.43077,3.19352 -3.19361,3.19352 -1.7628,0 -3.19353,-1.43073 -3.19353,-3.19352 0,-1.762827 1.43073,-3.193534 3.19353,-3.193534 z m -7.74186,-2.709669 c 2.13676,0 3.87098,1.734184 3.87098,3.870951 0,2.136768 -1.73422,3.870933 -3.87098,3.870933 -2.13676,0 -3.87093,-1.734166 -3.87093,-3.870933 0,-2.136767 1.73417,-3.870951 3.87093,-3.870951 z"
       id="path1"
       style="fill:url(#linearGradient3);stroke-width:0.774184"
       sodipodi:nodetypes="cccsccccccsccccccccccccccccccccccccccccccccccccccccccccccccccccccccccccsscccccccccccccssssssssss" />
    <circle
       cx="111.59914"
       cy="94.389954"
       r="2.9999998"
       id="circle4"
       style="fill:#090b10;fill-opacity:1;stroke-width:2.4" />
    <circle
       cx="119.37914"
       cy="96.418999"
       id="circle4-9"
       style="fill:#090b10;fill-opacity:1;stroke-width:1.8"
       r="2.25" />
  </g>
</svg>
