<?xml version="1.0" encoding="UTF-8" standalone="no"?>
<svg
   sodipodi:docname="system-user-prompt.svg"
   inkscape:version="1.3 (0e150ed6c4, 2023-07-21)"
   id="svg1699"
   version="1.1"
   viewBox="0 0 32 32"
   height="32"
   width="32"
   xmlns:inkscape="http://www.inkscape.org/namespaces/inkscape"
   xmlns:sodipodi="http://sodipodi.sourceforge.net/DTD/sodipodi-0.dtd"
   xmlns:xlink="http://www.w3.org/1999/xlink"
   xmlns="http://www.w3.org/2000/svg"
   xmlns:svg="http://www.w3.org/2000/svg"
   xmlns:rdf="http://www.w3.org/1999/02/22-rdf-syntax-ns#"
   xmlns:cc="http://creativecommons.org/ns#"
   xmlns:dc="http://purl.org/dc/elements/1.1/">
  <defs
     id="defs1693">
    <linearGradient
       id="linearGradient7"
       inkscape:collect="always">
      <stop
         style="stop-color:#9955ff;stop-opacity:1"
         offset="0"
         id="stop6" />
      <stop
         style="stop-color:#ff55dd;stop-opacity:1"
         offset="1"
         id="stop7" />
    </linearGradient>
    <linearGradient
       inkscape:collect="always"
       xlink:href="#linearGradient7"
       id="linearGradient2"
       x1="29"
       y1="-99"
       x2="49"
       y2="-90"
       gradientUnits="userSpaceOnUse"
       gradientTransform="matrix(0,1.153846,-1.153846,0,0.4983883,49.457439)" />
    <linearGradient
       id="linearGradient23"
       inkscape:collect="always">
      <stop
         style="stop-color:#d63384;stop-opacity:1"
         offset="0"
         id="stop22" />
      <stop
         style="stop-color:#2ad4ff;stop-opacity:1"
         offset="1"
         id="stop23" />
    </linearGradient>
    <linearGradient
       inkscape:collect="always"
       xlink:href="#linearGradient23"
       id="linearGradient5"
       x1="34.099998"
       y1="-97.909706"
       x2="50.027"
       y2="-97.909706"
       gradientUnits="userSpaceOnUse"
       gradientTransform="translate(38.02946,162.51899)" />
    <linearGradient
       inkscape:collect="always"
       xlink:href="#linearGradient23"
       id="linearGradient11"
       x1="40.333"
       y1="-101.1"
       x2="43.999668"
       y2="-101.1"
       gradientUnits="userSpaceOnUse"
       gradientTransform="translate(38.02946,162.51899)" />
    <linearGradient
       inkscape:collect="always"
       xlink:href="#linearGradient7"
       id="linearGradient3"
       x1="112.02914"
       y1="97.418991"
       x2="117.02914"
       y2="97.418991"
       gradientUnits="userSpaceOnUse"
       gradientTransform="matrix(1.153846,0,0,1.153846,-17.650617,-14.141331)" />
    <linearGradient
       inkscape:collect="always"
       xlink:href="#linearGradient7"
       id="linearGradient4"
       x1="105.02914"
       y1="97.418961"
       x2="110.02914"
       y2="97.418961"
       gradientUnits="userSpaceOnUse"
       gradientTransform="matrix(1.153846,0,0,1.153846,-17.650617,-14.141331)" />
    <linearGradient
       inkscape:collect="always"
       xlink:href="#linearGradient7"
       id="linearGradient6"
       x1="119.02914"
       y1="97.418976"
       x2="124.02914"
       y2="97.418976"
       gradientUnits="userSpaceOnUse"
       gradientTransform="matrix(1.153846,0,0,1.153846,-17.650617,-14.141331)" />
  </defs>
  <sodipodi:namedview
     inkscape:document-rotation="0"
     inkscape:window-maximized="1"
     inkscape:window-y="0"
     inkscape:window-x="0"
     inkscape:window-height="994"
     inkscape:window-width="1920"
     showgrid="true"
     inkscape:current-layer="layer1"
     inkscape:document-units="px"
     inkscape:cy="23.517614"
     inkscape:cx="11.301082"
     inkscape:zoom="15.839192"
     inkscape:pageshadow="2"
     inkscape:pageopacity="0"
     borderopacity="1"
     bordercolor="#ff1919"
     pagecolor="#000000"
     id="base"
     inkscape:pagecheckerboard="true"
     inkscape:showpageshadow="false"
     inkscape:deskcolor="#000000">
    <inkscape:grid
       type="xygrid"
       id="grid844"
       originx="0"
       originy="0"
       spacingy="1"
       spacingx="1"
       units="mm"
       visible="true" />
  </sodipodi:namedview>
  <metadata
     id="metadata1696">
    <rdf:RDF>
      <cc:Work
         rdf:about="">
        <dc:format>image/svg+xml</dc:format>
        <dc:type
           rdf:resource="http://purl.org/dc/dcmitype/StillImage" />
      </cc:Work>
    </rdf:RDF>
  </metadata>
  <g
     transform="translate(-98.729144,-81.918987)"
     id="layer1"
     inkscape:groupmode="layer"
     inkscape:label="Layer 1">
    <g
       id="system-switch-user"
       transform="translate(-184.27085,81.918987)">
      <g
         id="g1729">
        <circle
           style="opacity:0;fill:none;fill-opacity:1;stroke-width:1.06667"
           id="circle955"
           r="16"
           cy="-16"
           cx="299"
           transform="scale(1,-1)" />
      </g>
    </g>
    <path
       d="m 99.729144,97.902036 c 0,-0.802154 0.0697,-1.604284 0.2092,-2.406426 1.324896,-8.160922 9.030256,-13.706179 17.188856,-12.380895 3.93984,0.627762 7.42643,2.790057 9.76244,6.033507 2.336,3.24345 3.27739,7.21928 2.6498,11.160238 -1.3249,8.16093 -9.03025,13.74105 -17.18886,12.41577 -1.56897,-0.24413 -3.0682,-0.73239 -4.46283,-1.46479 -0.34865,-0.17437 -0.66245,-0.34875 -0.97624,-0.55801 -0.48812,-0.31388 -0.66245,-0.94164 -0.34866,-1.4299 0.31379,-0.48827 0.94138,-0.66264 1.4295,-0.34876 0.27893,0.17438 0.55785,0.31388 0.83678,0.48826 1.18544,0.62777 2.51034,1.04627 3.83525,1.25552 7.00803,1.11602 13.66741,-3.66195 14.78311,-10.70685 0.55786,-3.417829 -0.24407,-6.800767 -2.26628,-9.625705 -2.02222,-2.790057 -4.98582,-4.638461 -8.40267,-5.196472 -7.00803,-1.150904 -13.66741,3.661937 -14.78312,10.671967 -0.48812,2.999303 0.10454,6.06838 1.6387,8.64918 0.27892,0.48825 0.13946,1.1509 -0.34867,1.42991 -0.48811,0.279 -1.15056,0.1395 -1.42949,-0.34876 -1.39464,-2.3018 -2.126816,-4.95236 -2.126816,-7.637784 z"
       id="path2-53"
       style="fill:url(#linearGradient2);stroke-width:1.15385" />
    <path
       d="m 80.092974,70.484127 c -3.84214,0 -6.96807,-3.12592 -6.96807,-6.968059 0,-1.861432 0.72493,-3.611162 2.04091,-4.926882 0.19435,-0.19436 0.19435,-0.50942 0,-0.70403 -0.19411,-0.19436 -0.50917,-0.19411 -0.70403,0 -1.50386,1.50386 -2.33231,3.50345 -2.33231,5.630912 0,4.391119 3.57238,7.963499 7.9635,7.963499 4.39113,0 7.9635,-3.57238 7.9635,-7.963499 0,-2.127712 -0.82845,-4.127802 -2.33305,-5.631402 -0.19436,-0.19411 -0.50967,-0.19436 -0.70403,0 -0.19411,0.19436 -0.19411,0.50966 2.5e-4,0.70402 1.31647,1.31572 2.04139,3.0657 2.04139,4.927382 0,3.842139 -3.12592,6.968059 -6.96806,6.968059 z"
       id="path2-5-5"
       style="fill:url(#linearGradient5)" />
    <path
       d="m 81.662474,55.918986 h -2.93333 c -0.19199,2e-5 -0.36665,0.17468 -0.36667,0.36667 v 10.266661 c 2e-5,0.19199 0.17468,0.36665 0.36667,0.36667 h 2.93333 c 0.19198,-2e-5 0.36665,-0.17468 0.36667,-0.36667 V 56.285656 c -0.0101,-0.20594 -0.2015,-0.36216 -0.36667,-0.36667 z m -0.36666,0.73333 v 9.533341 h -2.20001 v -9.533341 z"
       fill-opacity="1"
       stroke="none"
       marker="none"
       visibility="visible"
       display="inline"
       overflow="visible"
       id="path2-0"
       style="fill:url(#linearGradient11)" />
    <circle
       cx="114.49837"
       cy="98.26516"
       r="2.8846149"
       id="circle4"
       style="fill:url(#linearGradient3);stroke-width:2.30769" />
    <circle
       cx="106.42145"
       cy="98.265129"
       r="2.8846149"
       id="circle4-9"
       style="fill:url(#linearGradient4);stroke-width:2.30769" />
    <circle
       cx="122.57529"
       cy="98.265152"
       r="2.8846149"
       id="circle4-9-2"
       style="fill:url(#linearGradient6);stroke-width:2.30769" />
  </g>
</svg>
