<?xml version="1.0" encoding="UTF-8" standalone="no"?>
<svg
   width="16"
   height="16"
   version="1.1"
   id="svg5"
   sodipodi:docname="9gag.svg"
   inkscape:version="1.4 (unknown)"
   xmlns:inkscape="http://www.inkscape.org/namespaces/inkscape"
   xmlns:sodipodi="http://sodipodi.sourceforge.net/DTD/sodipodi-0.dtd"
   xmlns:xlink="http://www.w3.org/1999/xlink"
   xmlns="http://www.w3.org/2000/svg"
   xmlns:svg="http://www.w3.org/2000/svg">
  <defs
     id="defs5">
    <linearGradient
       id="linearGradient1"
       inkscape:collect="always">
      <stop
         style="stop-color:#5599ff;stop-opacity:1"
         offset="0"
         id="stop1" />
      <stop
         style="stop-color:#aa87de;stop-opacity:1"
         offset="1"
         id="stop2" />
    </linearGradient>
    <linearGradient
       inkscape:collect="always"
       xlink:href="#linearGradient1"
       id="linearGradient2"
       x1="20.210545"
       y1="46.04512"
       x2="44.524475"
       y2="15.691212"
       gradientUnits="userSpaceOnUse" />
  </defs>
  <sodipodi:namedview
     id="namedview5"
     pagecolor="#ffffff"
     bordercolor="#000000"
     borderopacity="0.25"
     inkscape:showpageshadow="2"
     inkscape:pageopacity="0.0"
     inkscape:pagecheckerboard="0"
     inkscape:deskcolor="#d1d1d1"
     inkscape:zoom="11.6875"
     inkscape:cx="31.914439"
     inkscape:cy="12.449198"
     inkscape:window-width="1920"
     inkscape:window-height="996"
     inkscape:window-x="0"
     inkscape:window-y="0"
     inkscape:window-maximized="1"
     inkscape:current-layer="svg5" />
  <g
     id="g1"
     transform="matrix(0.32857143,0,0,0.325,-2.35,-2.4)">
    <path
       d="M 31.500005,13.02564 14,22.25641 v 5.12821 l 17.500005,9.23076 10.29412,-6.15384 v 8.20513 L 31.500005,44.82051 21.205885,38.66667 14,42.76923 31.500005,52 49,42.76923 V 22.25641 Z m 0,8.20513 6.176465,3.07692 -6.176465,3.07693 -6.176475,-3.07693 z"
       style="opacity:0.2;stroke-width:1.02748"
       id="path2" />
    <path
       d="M 31.500005,12 14,21.23077 v 5.1282 l 17.500005,9.23077 10.29412,-6.15384 v 8.20513 L 31.500005,43.79487 21.205885,37.64103 14,41.74359 31.500005,50.97436 49,41.74359 V 21.23077 Z m 0,8.20513 6.176465,3.07692 -6.176465,3.07692 -6.176475,-3.07692 z"
       style="fill:url(#linearGradient2);stroke-width:1.02748"
       id="path3" />
  </g>
</svg>
