<?xml version="1.0" encoding="UTF-8" standalone="no"?>
<svg
   height="16"
   width="16"
   version="1.1"
   id="svg6"
   sodipodi:docname="almond.svg"
   inkscape:version="1.3.2 (091e20ef0f, 2023-11-25)"
   xmlns:inkscape="http://www.inkscape.org/namespaces/inkscape"
   xmlns:sodipodi="http://sodipodi.sourceforge.net/DTD/sodipodi-0.dtd"
   xmlns:xlink="http://www.w3.org/1999/xlink"
   xmlns="http://www.w3.org/2000/svg"
   xmlns:svg="http://www.w3.org/2000/svg"
   xmlns:rdf="http://www.w3.org/1999/02/22-rdf-syntax-ns#"
   xmlns:cc="http://creativecommons.org/ns#"
   xmlns:dc="http://purl.org/dc/elements/1.1/">
  <metadata
     id="metadata12">
    <rdf:RDF>
      <cc:Work
         rdf:about="">
        <dc:format>image/svg+xml</dc:format>
        <dc:type
           rdf:resource="http://purl.org/dc/dcmitype/StillImage" />
      </cc:Work>
    </rdf:RDF>
  </metadata>
  <defs
     id="defs10">
    <linearGradient
       id="linearGradient1"
       inkscape:collect="always">
      <stop
         style="stop-color:#ffd42a;stop-opacity:1"
         offset="0"
         id="stop1" />
      <stop
         style="stop-color:#ffb380;stop-opacity:1"
         offset="1"
         id="stop2" />
    </linearGradient>
    <marker
       style="overflow:visible"
       id="DotL"
       refX="0"
       refY="0"
       orient="auto"
       inkscape:stockid="DotL"
       inkscape:isstock="true">
      <path
         transform="matrix(0.8,0,0,0.8,5.92,0.8)"
         style="fill:#000000;fill-opacity:1;fill-rule:evenodd;stroke:#000000;stroke-width:1pt;stroke-opacity:1"
         d="m -2.5,-1 c 0,2.76 -2.24,5 -5,5 -2.76,0 -5,-2.24 -5,-5 0,-2.76 2.24,-5 5,-5 2.76,0 5,2.24 5,5 z"
         id="path898" />
    </marker>
    <linearGradient
       inkscape:collect="always"
       xlink:href="#linearGradient1"
       id="linearGradient2"
       x1="10.707617"
       y1="31.534513"
       x2="37.173615"
       y2="31.534513"
       gradientUnits="userSpaceOnUse"
       gradientTransform="matrix(0.49119628,0,0,0.49119634,-3.7595407,-7.4896376)" />
    <linearGradient
       xlink:href="#a-7"
       id="d-36"
       x1="26.176001"
       x2="42.175999"
       y1="32.806"
       y2="32.806"
       gradientUnits="userSpaceOnUse"
       gradientTransform="translate(-10.175991,-8.8059978)" />
    <linearGradient
       id="a-7">
      <stop
         offset="0"
         stop-color="#dda641"
         id="stop2-5" />
      <stop
         offset="1"
         stop-color="#ffdf5e"
         id="stop4-3" />
    </linearGradient>
  </defs>
  <sodipodi:namedview
     pagecolor="#ffffff"
     bordercolor="#666666"
     borderopacity="1"
     objecttolerance="10"
     gridtolerance="10"
     guidetolerance="10"
     inkscape:pageopacity="0"
     inkscape:pageshadow="2"
     inkscape:window-width="1920"
     inkscape:window-height="994"
     id="namedview8"
     showgrid="false"
     inkscape:zoom="22.627417"
     inkscape:cx="9.5901357"
     inkscape:cy="10.076272"
     inkscape:window-x="0"
     inkscape:window-y="0"
     inkscape:window-maximized="1"
     inkscape:current-layer="svg6"
     inkscape:document-rotation="0"
     inkscape:pagecheckerboard="0"
     inkscape:showpageshadow="2"
     inkscape:deskcolor="#d1d1d1" />
  <path
     id="circle2"
     style="opacity:0.99;fill:url(#linearGradient2);fill-opacity:1;stroke-width:0.491196"
     d="M 14.5,7.9999999 A 6.4999994,6.5000002 0 0 1 8.0000003,14.5 6.4999994,6.5000002 0 0 1 1.5000009,7.9999999 6.4999994,6.5000002 0 0 1 8.0000003,1.5000002 6.4999994,6.5000002 0 0 1 14.5,7.9999999 Z" />
  <path
     id="circle858"
     style="opacity:1;fill:#1c202f;fill-opacity:1;stroke-width:0.417883"
     d="M 13.529826,7.9999999 A 5.5298259,5.529827 0 0 1 7.9999999,13.529827 5.5298259,5.529827 0 0 1 2.4701739,7.9999999 5.5298259,5.529827 0 0 1 7.9999999,2.4701729 5.5298259,5.529827 0 0 1 13.529826,7.9999999 Z" />
  <path
     fill="#c4762f"
     d="M 10.75,9.4285656 C 10.75,11.142855 9.5277758,12 8.000004,12 6.4722228,12 5.25,11.142855 5.25,9.4285656 5.25,7.4285689 6.7252276,4 8.000004,4 9.2747794,4 10.75,7.4285689 10.75,9.4285656 Z"
     style="stroke-width:0.999959;paint-order:normal"
     id="path24" />
  <path
     fill="url(#d)"
     d="m 8.000004,4.285431 c -1.0789237,0 -2.4444488,3.1428526 -2.4444488,5.1428527 0,1.4285703 0.9692223,2.2857113 2.4444488,2.2857113 0.4931599,0 0.9279647,-0.09742 1.2909645,-0.278561 0.4797247,-0.681153 0.8479225,-1.4525798 0.8479225,-2.2928684 0.175387,0.3722896 0.09105,1.0040004 -0.09442,1.6568654 0.257583,-0.363148 0.399972,-0.8251501 0.399972,-1.3711463 0,-2.0000011 -1.3655288,-5.1428537 -2.444437,-5.1428537 z M 7.5416668,4.8568597 c 0,0 -0.1527775,0.9808543 -0.1527775,1.4285754 0,0.5794219 0.3055549,1.4285704 0.3055549,1.7142777 0,0.4240001 -0.4583342,1.1428528 -0.4583342,1.1428528 0,0 0.1527793,-0.5045626 0.1527793,-1.1428528 0,-0.2857073 -0.3055551,-1.0314297 -0.3055551,-1.7142777 0,-0.4857211 0.4583326,-1.4285754 0.4583326,-1.4285754 z m 1.0694441,0 c 0,0 0.9166649,1.2242818 0.9166649,2.5714239 0,0.5714292 -0.1093879,1.026571 -0.3055558,1.428571 V 7.4282836 C 9.22222,6.392568 8.9166629,5.714001 8.6111109,4.8568597 Z M 6.4722228,6.5711431 v 0.8571405 c 0,0.5714292 -0.089528,1.0791514 -0.3055568,1.714282 V 7.9997128 c 0,-0.4857082 0.3055568,-1.4285697 0.3055568,-1.4285697 z"
     style="fill:url(#d-36);stroke-width:0.999959;paint-order:normal"
     id="path26" />
  <path
     fill="#403b3c"
     d="m 6.6249994,9.7139992 c -0.2530002,0 -0.4583334,0.2557157 -0.4583334,0.5714328 0.166219,-0.2857164 0.3315276,-0.2857164 0.4583334,-0.2857164 0.1268073,0 0.2829453,0 0.4583348,0.2857164 0,-0.3157171 -0.2053332,-0.5714328 -0.4583348,-0.5714328 z m 2.4444469,0 c -0.2530022,0 -0.4583354,0.2557157 -0.4583354,0.5714328 0.1662203,-0.2857164 0.3315274,-0.2857164 0.4583354,-0.2857164 0.1267998,0 0.2829397,0 0.4583295,0.2857164 0,-0.3157171 -0.2053341,-0.5714328 -0.4583295,-0.5714328 z M 7.5416668,10.571142 a 0.15277773,0.14285713 0 0 0 -0.1527775,0.142854 c 0,0.237435 0.2044152,0.428571 0.4583297,0.428571 0.2539202,0 0.4583351,-0.191136 0.4583351,-0.428571 a 0.15277773,0.14285713 0 0 0 -0.1527773,-0.142854 0.15277773,0.14285713 0 0 0 -0.1527728,0.142854 0.15278015,0.14285941 0 1 1 -0.3055598,0 0.15277773,0.14285713 0 0 0 -0.1527774,-0.142854 z"
     style="stroke-width:0.999959;paint-order:normal"
     id="path28" />
</svg>
