<?xml version="1.0" encoding="UTF-8" standalone="no"?>
<svg
   style="isolation:isolate"
   width="16"
   height="16"
   viewBox="0 0 16 16"
   version="1.1"
   id="svg22"
   sodipodi:docname="appimagekit-bitwarden.svg"
   inkscape:version="1.3.2 (091e20ef0f, 2023-11-25)"
   xmlns:inkscape="http://www.inkscape.org/namespaces/inkscape"
   xmlns:sodipodi="http://sodipodi.sourceforge.net/DTD/sodipodi-0.dtd"
   xmlns:xlink="http://www.w3.org/1999/xlink"
   xmlns="http://www.w3.org/2000/svg"
   xmlns:svg="http://www.w3.org/2000/svg">
  <sodipodi:namedview
     id="namedview22"
     pagecolor="#ffffff"
     bordercolor="#000000"
     borderopacity="0.25"
     inkscape:showpageshadow="2"
     inkscape:pageopacity="0.0"
     inkscape:pagecheckerboard="0"
     inkscape:deskcolor="#d1d1d1"
     showgrid="false"
     inkscape:zoom="17.034608"
     inkscape:cx="14.265077"
     inkscape:cy="11.183116"
     inkscape:window-width="1920"
     inkscape:window-height="994"
     inkscape:window-x="0"
     inkscape:window-y="0"
     inkscape:window-maximized="1"
     inkscape:current-layer="svg22">
    <inkscape:grid
       id="grid22"
       units="px"
       originx="0"
       originy="0"
       spacingx="1"
       spacingy="1"
       empcolor="#0099e5"
       empopacity="0.30196078"
       color="#0099e5"
       opacity="0.14902"
       empspacing="5"
       dotted="false"
       gridanglex="30"
       gridanglez="30"
       visible="false" />
  </sodipodi:namedview>
  <defs
     id="defs22">
    <linearGradient
       id="linearGradient24"
       inkscape:collect="always">
      <stop
         style="stop-color:#b380ff;stop-opacity:1"
         offset="0"
         id="stop23" />
      <stop
         style="stop-color:#ffe680;stop-opacity:1"
         offset="1"
         id="stop24" />
    </linearGradient>
    <linearGradient
       id="linearGradient51"
       inkscape:collect="always">
      <stop
         style="stop-color:#b380ff;stop-opacity:1"
         offset="0"
         id="stop51" />
      <stop
         style="stop-color:#ffe680;stop-opacity:1"
         offset="1"
         id="stop52" />
    </linearGradient>
    <linearGradient
       id="linearGradient50"
       x1="166.48611"
       y1="103.48705"
       x2="386.65005"
       y2="-158.07101"
       gradientUnits="userSpaceOnUse"
       gradientTransform="matrix(0.04996275,0,0,0.04970244,-5.8181024,9.3564778)"
       spreadMethod="pad">
      <stop
         stop-color="#5570FF"
         id="stop49"
         style="stop-color:#000000;stop-opacity:1" />
      <stop
         offset="1"
         stop-color="#4DD3FF"
         id="stop50" />
    </linearGradient>
    <linearGradient
       id="linearGradient48"
       x1="166.48611"
       y1="103.48705"
       x2="386.65005"
       y2="-158.07101"
       gradientUnits="userSpaceOnUse"
       gradientTransform="matrix(0.04996275,0,0,0.04970244,-5.8181024,9.3564778)"
       spreadMethod="pad">
      <stop
         stop-color="#5570FF"
         id="stop47"
         style="stop-color:#000000;stop-opacity:1" />
      <stop
         offset="1"
         stop-color="#4DD3FF"
         id="stop48" />
    </linearGradient>
    <linearGradient
       id="linearGradient46"
       x1="166.48611"
       y1="103.48705"
       x2="386.65005"
       y2="-158.07101"
       gradientUnits="userSpaceOnUse"
       gradientTransform="matrix(0.04996275,0,0,0.04970244,-5.8181024,9.3564778)"
       spreadMethod="pad">
      <stop
         stop-color="#5570FF"
         id="stop45"
         style="stop-color:#00ccff;stop-opacity:1" />
      <stop
         offset="1"
         stop-color="#4DD3FF"
         id="stop46" />
    </linearGradient>
    <linearGradient
       id="linearGradient44"
       x1="166.48611"
       y1="103.48705"
       x2="386.65005"
       y2="-158.07101"
       gradientUnits="userSpaceOnUse"
       gradientTransform="matrix(0.04996275,0,0,0.04970244,-5.8181024,9.3564778)"
       spreadMethod="pad">
      <stop
         stop-color="#5570FF"
         id="stop43"
         style="stop-color:#00ccff;stop-opacity:1" />
      <stop
         offset="1"
         stop-color="#4DD3FF"
         id="stop44" />
    </linearGradient>
    <linearGradient
       id="linearGradient42"
       x1="166.48611"
       y1="103.48705"
       x2="386.65005"
       y2="-158.07101"
       gradientUnits="userSpaceOnUse"
       gradientTransform="matrix(0.04996275,0,0,0.04970244,-5.8181024,9.3564778)"
       spreadMethod="pad">
      <stop
         stop-color="#5570FF"
         id="stop41"
         style="stop-color:#00ccff;stop-opacity:1" />
      <stop
         offset="1"
         stop-color="#4DD3FF"
         id="stop42" />
    </linearGradient>
    <linearGradient
       id="linearGradient40"
       x1="166.48611"
       y1="103.48705"
       x2="386.65005"
       y2="-158.07101"
       gradientUnits="userSpaceOnUse"
       gradientTransform="matrix(0.04996275,0,0,0.04970244,-5.8181024,9.3564778)"
       spreadMethod="pad">
      <stop
         stop-color="#5570FF"
         id="stop39"
         style="stop-color:#00ccff;stop-opacity:1" />
      <stop
         offset="1"
         stop-color="#4DD3FF"
         id="stop40" />
    </linearGradient>
    <linearGradient
       id="linearGradient38"
       x1="166.48611"
       y1="103.48705"
       x2="386.65005"
       y2="-158.07101"
       gradientUnits="userSpaceOnUse"
       gradientTransform="matrix(0.04996275,0,0,0.04970244,-5.8181024,9.3564778)"
       spreadMethod="pad">
      <stop
         stop-color="#5570FF"
         id="stop37"
         offset="0"
         style="stop-color:#4dd3ff;stop-opacity:1;" />
      <stop
         offset="1"
         stop-color="#4DD3FF"
         id="stop38" />
    </linearGradient>
    <linearGradient
       id="linearGradient36"
       x1="166.48611"
       y1="103.48705"
       x2="386.65005"
       y2="-158.07101"
       gradientUnits="userSpaceOnUse"
       gradientTransform="matrix(0.04996275,0,0,0.04970244,-5.8181024,9.3564778)"
       spreadMethod="pad">
      <stop
         stop-color="#5570FF"
         id="stop35" />
      <stop
         offset="1"
         stop-color="#4DD3FF"
         id="stop36"
         style="stop-color:#00ccff;stop-opacity:1" />
    </linearGradient>
    <linearGradient
       id="linearGradient34"
       x1="166.48611"
       y1="103.48705"
       x2="386.65005"
       y2="-158.07101"
       gradientUnits="userSpaceOnUse"
       gradientTransform="matrix(0.04996275,0,0,0.04970244,-5.8181024,9.3564778)"
       spreadMethod="pad">
      <stop
         stop-color="#5570FF"
         id="stop33" />
      <stop
         offset="1"
         stop-color="#4DD3FF"
         id="stop34"
         style="stop-color:#00ccff;stop-opacity:1" />
    </linearGradient>
    <linearGradient
       id="linearGradient32"
       x1="166.48611"
       y1="103.48705"
       x2="386.65005"
       y2="-158.07101"
       gradientUnits="userSpaceOnUse"
       gradientTransform="matrix(0.04996275,0,0,0.04970244,-5.8181024,9.3564778)"
       spreadMethod="pad">
      <stop
         stop-color="#5570FF"
         id="stop31" />
      <stop
         offset="1"
         stop-color="#4DD3FF"
         id="stop32"
         style="stop-color:#5599ff;stop-opacity:1" />
    </linearGradient>
    <linearGradient
       id="linearGradient30"
       x1="166.48611"
       y1="103.48705"
       x2="386.65005"
       y2="-158.07101"
       gradientUnits="userSpaceOnUse"
       gradientTransform="matrix(0.04996275,0,0,0.04970244,-5.8181024,9.3564778)"
       spreadMethod="pad">
      <stop
         stop-color="#5570FF"
         id="stop29" />
      <stop
         offset="1"
         stop-color="#4DD3FF"
         id="stop30"
         style="stop-color:#5599ff;stop-opacity:1" />
    </linearGradient>
    <linearGradient
       id="linearGradient28"
       x1="166.48611"
       y1="103.48705"
       x2="386.65005"
       y2="-158.07101"
       gradientUnits="userSpaceOnUse"
       gradientTransform="matrix(0.04996275,0,0,0.04970244,-5.8181024,9.3564778)"
       spreadMethod="pad">
      <stop
         stop-color="#5570FF"
         id="stop27"
         style="stop-color:#00ccff;stop-opacity:1" />
      <stop
         offset="1"
         stop-color="#4DD3FF"
         id="stop28" />
    </linearGradient>
    <linearGradient
       id="linearGradient26"
       x1="166.48611"
       y1="103.48705"
       x2="386.65005"
       y2="-158.07101"
       gradientUnits="userSpaceOnUse"
       gradientTransform="matrix(0.04996275,0,0,0.04970244,-5.8181024,9.3564778)">
      <stop
         stop-color="#5570FF"
         id="stop25"
         style="stop-color:#00ccff;stop-opacity:1" />
      <stop
         offset="1"
         stop-color="#4DD3FF"
         id="stop26" />
    </linearGradient>
    <style
       id="current-color-scheme"
       type="text/css">
   .ColorScheme-Text { color:#d5c289; } .ColorScheme-Highlight { color:#5294e2; }
  </style>
    <linearGradient
       id="arrongin"
       x1="0"
       x2="0"
       y1="0"
       y2="1">
      <stop
         offset="0%"
         style="stop-color:#dd9b44; stop-opacity:1"
         id="stop1" />
      <stop
         offset="100%"
         style="stop-color:#ad6c16; stop-opacity:1"
         id="stop2" />
    </linearGradient>
    <linearGradient
       id="aurora"
       x1="0"
       x2="0"
       y1="0"
       y2="1">
      <stop
         offset="0%"
         style="stop-color:#09D4DF; stop-opacity:1"
         id="stop3" />
      <stop
         offset="100%"
         style="stop-color:#9269F4; stop-opacity:1"
         id="stop4" />
    </linearGradient>
    <linearGradient
       id="fitdance"
       x1="0"
       x2="0"
       y1="0"
       y2="1">
      <stop
         offset="0%"
         style="stop-color:#1AD6AB; stop-opacity:1"
         id="stop5" />
      <stop
         offset="100%"
         style="stop-color:#329DB6; stop-opacity:1"
         id="stop6" />
    </linearGradient>
    <linearGradient
       id="oomox"
       x1="1.3014196"
       x2="1.3014196"
       y1="0"
       y2="14.751454"
       gradientTransform="matrix(0.74568921,0,0,0.88126824,1.5295457,1.4999996)"
       gradientUnits="userSpaceOnUse">
      <stop
         offset="0%"
         style="stop-color:#303b3d; stop-opacity:1"
         id="stop7" />
      <stop
         offset="100%"
         style="stop-color:#bc985d; stop-opacity:1"
         id="stop8" />
    </linearGradient>
    <linearGradient
       id="rainblue"
       x1="0"
       x2="0"
       y1="0"
       y2="1">
      <stop
         offset="0%"
         style="stop-color:#00F260; stop-opacity:1"
         id="stop9" />
      <stop
         offset="100%"
         style="stop-color:#0575E6; stop-opacity:1"
         id="stop10" />
    </linearGradient>
    <linearGradient
       id="sunrise"
       x1="0"
       x2="0"
       y1="0"
       y2="1">
      <stop
         offset="0%"
         style="stop-color: #FF8501; stop-opacity:1"
         id="stop11" />
      <stop
         offset="100%"
         style="stop-color: #FFCB01; stop-opacity:1"
         id="stop12" />
    </linearGradient>
    <linearGradient
       id="telinkrin"
       x1="0"
       x2="0"
       y1="0"
       y2="1">
      <stop
         offset="0%"
         style="stop-color: #b2ced6; stop-opacity:1"
         id="stop13" />
      <stop
         offset="100%"
         style="stop-color: #6da5b7; stop-opacity:1"
         id="stop14" />
    </linearGradient>
    <linearGradient
       id="60spsycho"
       x1="0"
       x2="0"
       y1="0"
       y2="1">
      <stop
         offset="0%"
         style="stop-color: #df5940; stop-opacity:1"
         id="stop15" />
      <stop
         offset="25%"
         style="stop-color: #d8d15f; stop-opacity:1"
         id="stop16" />
      <stop
         offset="50%"
         style="stop-color: #e9882a; stop-opacity:1"
         id="stop17" />
      <stop
         offset="100%"
         style="stop-color: #279362; stop-opacity:1"
         id="stop18" />
    </linearGradient>
    <linearGradient
       id="90ssummer"
       x1="0"
       x2="0"
       y1="0"
       y2="1">
      <stop
         offset="0%"
         style="stop-color: #f618c7; stop-opacity:1"
         id="stop19" />
      <stop
         offset="20%"
         style="stop-color: #94ffab; stop-opacity:1"
         id="stop20" />
      <stop
         offset="50%"
         style="stop-color: #fbfd54; stop-opacity:1"
         id="stop21" />
      <stop
         offset="100%"
         style="stop-color: #0f83ae; stop-opacity:1"
         id="stop22" />
    </linearGradient>
    <linearGradient
       id="paint0_linear_674_254"
       x1="166.48611"
       y1="103.48705"
       x2="386.65005"
       y2="-158.07101"
       gradientUnits="userSpaceOnUse"
       gradientTransform="matrix(0.04996275,0,0,0.04970244,-5.8181024,9.3564778)"
       xlink:href="#linearGradient50">
      <stop
         stop-color="#5570FF"
         id="stop1-3" />
      <stop
         offset="1"
         stop-color="#4DD3FF"
         id="stop2-1" />
    </linearGradient>
    <linearGradient
       inkscape:collect="always"
       xlink:href="#linearGradient24"
       id="linearGradient52"
       x1="2.5000019"
       y1="14.500036"
       x2="14.975058"
       y2="2.4440012"
       gradientUnits="userSpaceOnUse" />
    <linearGradient
       inkscape:collect="always"
       xlink:href="#linearGradient51"
       id="linearGradient54"
       x1="2.5000019"
       y1="14.500036"
       x2="14.975058"
       y2="2.4440012"
       gradientUnits="userSpaceOnUse" />
  </defs>
  <path
     d="m 3.1282692,2.0264964 c 0.2055202,-0.17156 0.483112,-0.211758 0.7414459,-0.212476 0.7012364,4.81e-4 1.4024797,3.2e-4 2.1037236,1.6e-4 0.3506213,-7.8e-5 0.7012356,-1.6e-4 1.0518646,-1.6e-4 0.1407248,0.0026 0.2815717,0.0016 0.4223948,6e-5 0.2112161,-0.0022 0.422379,-0.0035 0.6330359,0.0065 0.2776146,0.01932 0.413233,0.315839 0.3789646,0.56564 -0.0014,0.358272 -0.0011,0.716535 -9.018e-4,1.074734 1.53e-4,0.429814 3.831e-4,0.859535 -0.00196,1.289031 0.00208,0.884349 0.00295,1.767979 0,2.651609 0.00196,0.493295 0.00183,0.986594 0.00163,1.479858 -1.532e-4,0.39463 -3.066e-4,0.789261 6.132e-4,1.1839646 -0.00348,0.420325 -0.00218,0.840952 -8.3e-4,1.261426 0.00192,0.599248 0.00372,1.198342 -0.00847,1.796441 1.0090486,-0.541899 1.973864,-1.199488 2.745254,-2.057259 0.672264,-0.72067 1.167511,-1.6617876 1.146735,-2.6709546 -0.0042,-0.634261 -0.0023,-1.268276 5.35e-4,-1.902192 0.0021,-0.469495 0.0033,-0.938933 0.0026,-1.408389 0.0024,-0.306739 0,-0.613708 -0.0024,-0.920667 -0.0033,-0.468132 -0.0065,-0.936267 0.0065,-1.403618 -0.0051,-0.0097 -0.01184,-0.02416 -0.01892,-0.03871 -0.0067,-0.01458 -0.01423,-0.02911 -0.01887,-0.03871 -0.363465,-0.02149 -0.728076,-0.01847 -1.092537,-0.01525 -0.219409,0.0026 0.02109,0.004 -0.19802,2.28e-4 -0.134374,-0.01492 -0.27482,-0.0066 -0.415652,0.0016 -0.274226,0.01546 -0.549525,0.03102 -0.7824321,-0.121653 -0.228457,-0.224668 -0.104262,-0.664693 0.2140471,-0.719248 0.331878,-0.01856 0.664982,-0.01577 0.997932,-0.01282 0.195339,0.0025 -0.06938,0.0035 0.125574,6.5e-4 0.172645,0.01526 0.354494,0.0067 0.537642,-2.71e-4 0.442811,-0.01891 0.893362,-0.03826 1.240651,0.268009 0.01106,0.01608 0.02237,0.03191 0.03349,0.04788 0.04952,0.07054 0.09913,0.141098 0.136306,0.218379 0.09982,0.361325 0.08903,0.735893 0.0782,1.110121 -0.0064,0.190768 -0.01102,0.381467 -0.0025,0.570277 5.39e-4,0.173092 0.0018,0.346195 0.0025,0.519319 0.0034,0.953319 0.0065,1.906991 -0.0015,2.860159 6.15e-4,0.06535 0.0019,0.130861 0.0027,0.196504 0.01008,0.820039 0.02058,1.660681 -0.317004,2.4249366 -0.259086,0.62516 -0.651604,1.187169 -1.114654,1.676003 -0.899609,0.974268 -2.0164483,1.718644 -3.1931603,2.310856 -0.2620918,0.14107 -0.5718052,0.237262 -0.8629592,0.125931 C 7.1209119,13.86897 6.5578695,13.561739 6.0226641,13.208629 5.5859263,12.917914 5.1641834,12.603494 4.7774071,12.247479 4.4862537,11.972592 4.2079487,11.68394 3.9460495,11.380303 3.9269924,11.356743 3.906582,11.333123 3.8860469,11.309343 3.8366026,11.252303 3.7864331,11.194257 3.7526554,11.133392 3.445088,10.741437 3.2110182,10.293588 3.0440364,9.8233334 2.8920355,9.3797684 2.8035498,8.9117354 2.8064017,8.4408674 c -3.526e-4,-0.934187 0,-1.868561 3.604e-4,-2.803026 3.526e-4,-0.934547 7.162e-4,-1.869187 3.526e-4,-2.803827 -0.00713,-0.295743 0.08706,-0.613737 0.3211295,-0.807543 z m 2.2375702,0.640148 c -0.5703326,-0.0035 -1.1406575,-0.0065 -1.7102081,0.01518 -0.00743,1.067765 -0.00606,2.135772 -0.00463,3.203739 0.00104,0.779322 0.00202,1.558618 -3.604e-4,2.337792 -0.00143,0.180877 0.0043,0.361789 0.022829,0.541935 0.00261,0.03051 0.00417,0.05616 0.0056,0.07993 0.0056,0.0922 0.00944,0.155831 0.067878,0.360831 0.3309037,1.1607216 1.1781694,2.0199426 1.5492524,2.3652556 0.3710756,0.345234 0.7749793,0.653918 1.1974349,0.933087 0.037872,0.02363 0.075747,0.04734 0.1136229,0.07104 0.3167981,0.19827 0.6348299,0.397306 0.9739211,0.555663 l 0.024262,-0.01865 c 0.00456,-0.38446 0.00381,-0.769302 0.00322,-1.154222 -5.214e-4,-0.279934 -9.799e-4,-0.560021 4.598e-4,-0.839878 L 7.6084231,8.4574014 c -6.928e-4,-0.907326 -6.928e-4,-1.813926 6.929e-4,-2.721248 -0.00218,-0.596212 -0.00149,-1.192425 -6.131e-4,-1.788633 2.226e-4,-0.170414 4.521e-4,-0.340829 6.131e-4,-0.511244 4.371e-4,-0.07901 -4.754e-4,-0.15818 -0.0014,-0.23732 -0.00199,-0.17814 -0.00417,-0.356406 0.00923,-0.534333 -0.3309423,0.0035 -0.6618765,0.003 -0.9928184,0.0025 -0.047278,-1.02e-4 -0.094549,-2.01e-4 -0.1418206,-2.85e-4 -0.3719876,0.0056 -0.7441986,0.0033 -1.1164085,5.72e-4 z"
     id="path1"
     stroke-width="0.612508"
     fill-rule="evenodd"
     clip-rule="evenodd"
     style="fill:url(#linearGradient54);stroke:url(#linearGradient52);fill-opacity:1;stroke-opacity:1" />
</svg>
