<?xml version="1.0" encoding="UTF-8" standalone="no"?>
<svg
   height="16"
   width="16"
   version="1.1"
   id="svg6"
   sodipodi:docname="Alva.svg"
   inkscape:version="1.3.2 (091e20ef0f, 2023-11-25)"
   xmlns:inkscape="http://www.inkscape.org/namespaces/inkscape"
   xmlns:sodipodi="http://sodipodi.sourceforge.net/DTD/sodipodi-0.dtd"
   xmlns:xlink="http://www.w3.org/1999/xlink"
   xmlns="http://www.w3.org/2000/svg"
   xmlns:svg="http://www.w3.org/2000/svg"
   xmlns:rdf="http://www.w3.org/1999/02/22-rdf-syntax-ns#"
   xmlns:cc="http://creativecommons.org/ns#"
   xmlns:dc="http://purl.org/dc/elements/1.1/">
  <metadata
     id="metadata12">
    <rdf:RDF>
      <cc:Work
         rdf:about="">
        <dc:format>image/svg+xml</dc:format>
        <dc:type
           rdf:resource="http://purl.org/dc/dcmitype/StillImage" />
      </cc:Work>
    </rdf:RDF>
  </metadata>
  <defs
     id="defs10">
    <linearGradient
       id="linearGradient1"
       inkscape:collect="always">
      <stop
         style="stop-color:#9955ff;stop-opacity:1"
         offset="0"
         id="stop1" />
      <stop
         style="stop-color:#c83771;stop-opacity:1"
         offset="1"
         id="stop2" />
    </linearGradient>
    <marker
       style="overflow:visible"
       id="DotL"
       refX="0"
       refY="0"
       orient="auto"
       inkscape:stockid="DotL"
       inkscape:isstock="true">
      <path
         transform="matrix(0.8,0,0,0.8,5.92,0.8)"
         style="fill:#000000;fill-opacity:1;fill-rule:evenodd;stroke:#000000;stroke-width:1pt;stroke-opacity:1"
         d="m -2.5,-1 c 0,2.76 -2.24,5 -5,5 -2.76,0 -5,-2.24 -5,-5 0,-2.76 2.24,-5 5,-5 2.76,0 5,2.24 5,5 z"
         id="path898" />
    </marker>
    <linearGradient
       inkscape:collect="always"
       xlink:href="#linearGradient1"
       id="linearGradient2"
       x1="1.500001"
       y1="14.5"
       x2="14.499999"
       y2="1.5000001"
       gradientUnits="userSpaceOnUse" />
  </defs>
  <sodipodi:namedview
     pagecolor="#ffffff"
     bordercolor="#666666"
     borderopacity="1"
     objecttolerance="10"
     gridtolerance="10"
     guidetolerance="10"
     inkscape:pageopacity="0"
     inkscape:pageshadow="2"
     inkscape:window-width="1920"
     inkscape:window-height="994"
     id="namedview8"
     showgrid="false"
     inkscape:zoom="22.627417"
     inkscape:cx="9.5459415"
     inkscape:cy="17.147339"
     inkscape:window-x="0"
     inkscape:window-y="0"
     inkscape:window-maximized="1"
     inkscape:current-layer="svg6"
     inkscape:document-rotation="0"
     inkscape:pagecheckerboard="0"
     inkscape:showpageshadow="2"
     inkscape:deskcolor="#d1d1d1" />
  <path
     id="circle2"
     d="M 14.499999,7.9999999 A 6.4999991,6.5000002 0 0 1 8.0000001,14.5 6.4999991,6.5000002 0 0 1 1.500001,7.9999999 6.4999991,6.5000002 0 0 1 8.0000001,1.5000001 6.4999991,6.5000002 0 0 1 14.499999,7.9999999 Z"
     style="fill:url(#linearGradient2);fill-opacity:1" />
  <path
     id="circle858"
     style="opacity:1;fill:#1c202f;fill-opacity:1;stroke-width:0.417883"
     d="M 13.529826,7.9999997 A 5.5298258,5.5298269 0 0 1 8.0000001,13.529827 5.5298258,5.5298269 0 0 1 2.4701742,7.9999997 5.5298258,5.5298269 0 0 1 8.0000001,2.4701728 5.5298258,5.5298269 0 0 1 13.529826,7.9999997 Z" />
  <path
     style="fill:#5d0111;fill-opacity:0.431296;fill-rule:evenodd;stroke-width:0.759914"
     d="m 11.105801,6.9404589 c 0.144241,0 0.230104,0.1673377 0.145957,0.2868662 L 7.3160193,12.840078 c -0.10303,0.143436 -0.324544,0.07172 -0.324544,-0.105877 V 7.1214558 c 0,-0.099033 0.0807,-0.1809969 0.178587,-0.1809969 z"
     id="path890" />
  <path
     style="fill:#ff0369;fill-opacity:1;fill-rule:evenodd;stroke-width:0.699902"
     d="m 10.757132,6.9429298 c 0.131909,0 0.210431,0.1552212 0.133482,0.2660968 L 7.2912913,12.415313 c -0.09422,0.133053 -0.296802,0.06651 -0.296802,-0.09818 V 7.1108209 c 0,-0.091866 0.07381,-0.1678911 0.16332,-0.1678911 z"
     id="path8" />
  <path
     style="fill:#09017c;fill-opacity:0.169565;fill-rule:evenodd;stroke-width:0.699902"
     d="m 8.4461613,3.2474339 a 0.15706063,0.15837833 0 0 0 -0.130372,0.071277 l -3.599858,5.2058115 c -0.07853,0.110865 -2.1e-4,0.266156 0.131724,0.266156 h 3.599861 c 0.08952,0 0.163753,-0.07641 0.163753,-0.168265 V 3.4170533 c 0,-0.1045304 -0.08187,-0.1696181 -0.165108,-0.1696194 z m -0.527799,1.8648898 v 2.9854459 h -2.064731 z"
     id="path10" />
  <path
     style="fill:#6602ef;fill-opacity:1;fill-rule:evenodd;stroke-width:0.699902"
     d="m 8.4461613,3.0164662 a 0.15706063,0.15837833 0 0 0 -0.130372,0.071277 l -3.599858,5.2058112 c -0.07853,0.110864 -2.1e-4,0.266155 0.131724,0.266155 h 3.599861 c 0.08952,0 0.163753,-0.07641 0.163753,-0.168265 V 3.186084 c 0,-0.1045292 -0.08187,-0.1696172 -0.165108,-0.1696178 z m -0.527799,1.8648893 v 2.9854467 h -2.064731 z"
     id="path12" />
  <path
     style="fill:#51004d;fill-rule:evenodd;stroke-width:0.699902"
     d="m 7.9183623,6.9429298 v 0.9238724 h -0.923873 v 0.6929052 h 1.453027 c 0.08952,0 0.163753,-0.0764 0.163753,-0.168264 V 6.9429298 Z"
     id="path16" />
</svg>
