<?xml version="1.0" encoding="UTF-8" standalone="no"?>
<svg
   height="16"
   width="16"
   version="1.1"
   id="svg6"
   sodipodi:docname="altus.svg"
   inkscape:version="1.3.2 (091e20ef0f, 2023-11-25)"
   xmlns:inkscape="http://www.inkscape.org/namespaces/inkscape"
   xmlns:sodipodi="http://sodipodi.sourceforge.net/DTD/sodipodi-0.dtd"
   xmlns:xlink="http://www.w3.org/1999/xlink"
   xmlns="http://www.w3.org/2000/svg"
   xmlns:svg="http://www.w3.org/2000/svg"
   xmlns:rdf="http://www.w3.org/1999/02/22-rdf-syntax-ns#"
   xmlns:cc="http://creativecommons.org/ns#"
   xmlns:dc="http://purl.org/dc/elements/1.1/">
  <metadata
     id="metadata12">
    <rdf:RDF>
      <cc:Work
         rdf:about="">
        <dc:format>image/svg+xml</dc:format>
        <dc:type
           rdf:resource="http://purl.org/dc/dcmitype/StillImage" />
      </cc:Work>
    </rdf:RDF>
  </metadata>
  <defs
     id="defs10">
    <linearGradient
       id="linearGradient1"
       inkscape:collect="always">
      <stop
         style="stop-color:#2a7fff;stop-opacity:1"
         offset="0"
         id="stop1" />
      <stop
         style="stop-color:#00ccff;stop-opacity:1"
         offset="1"
         id="stop2" />
    </linearGradient>
    <marker
       style="overflow:visible"
       id="DotL"
       refX="0"
       refY="0"
       orient="auto"
       inkscape:stockid="DotL"
       inkscape:isstock="true">
      <path
         transform="matrix(0.8,0,0,0.8,5.92,0.8)"
         style="fill:#000000;fill-opacity:1;fill-rule:evenodd;stroke:#000000;stroke-width:1pt;stroke-opacity:1"
         d="m -2.5,-1 c 0,2.76 -2.24,5 -5,5 -2.76,0 -5,-2.24 -5,-5 0,-2.76 2.24,-5 5,-5 2.76,0 5,2.24 5,5 z"
         id="path898" />
    </marker>
    <linearGradient
       inkscape:collect="always"
       xlink:href="#linearGradient1"
       id="linearGradient2"
       x1="1.5"
       y1="13.568472"
       x2="5.699604"
       y2="3.5335598"
       gradientUnits="userSpaceOnUse" />
    <linearGradient
       inkscape:collect="always"
       xlink:href="#linearGradient5"
       id="linearGradient8"
       x1="1.5"
       y1="293.63513"
       x2="13.375"
       y2="293.89438"
       gradientUnits="userSpaceOnUse"
       gradientTransform="translate(0,-280.06665)" />
    <linearGradient
       id="linearGradient5"
       inkscape:collect="always">
      <stop
         style="stop-color:#00ccff;stop-opacity:1"
         offset="0"
         id="stop5" />
      <stop
         style="stop-color:#9955ff;stop-opacity:0.84482759;"
         offset="1"
         id="stop6" />
    </linearGradient>
    <linearGradient
       inkscape:collect="always"
       xlink:href="#linearGradient5"
       id="linearGradient6"
       x1="5.699604"
       y1="283.60022"
       x2="10.743973"
       y2="286.23776"
       gradientUnits="userSpaceOnUse"
       gradientTransform="translate(0,-280.06665)" />
  </defs>
  <sodipodi:namedview
     pagecolor="#ffffff"
     bordercolor="#666666"
     borderopacity="1"
     objecttolerance="10"
     gridtolerance="10"
     guidetolerance="10"
     inkscape:pageopacity="0"
     inkscape:pageshadow="2"
     inkscape:window-width="1920"
     inkscape:window-height="994"
     id="namedview8"
     showgrid="false"
     inkscape:zoom="8"
     inkscape:cx="17.875"
     inkscape:cy="14.5"
     inkscape:window-x="0"
     inkscape:window-y="0"
     inkscape:window-maximized="1"
     inkscape:current-layer="svg6"
     inkscape:document-rotation="0"
     inkscape:pagecheckerboard="0"
     inkscape:showpageshadow="2"
     inkscape:deskcolor="#d1d1d1" />
  <path
     style="color:#d6dbf1;fill:url(#linearGradient2);fill-opacity:1;stroke-width:0.8125"
     class="ColorScheme-Text "
     d="M 7.9999995,1.500015 C 4.4054998,1.500015 1.5,4.4055149 1.5,8.0000139 c 0,3.5945001 2.9054998,6.5000011 6.4999995,6.5000011 3.5944975,0 6.4999965,-2.905501 6.4999965,-6.5000012 0,-3.5944989 -2.905499,-6.4999988 -6.4999965,-6.4999988 z m 0,0.8124999 c 3.1443765,0 5.6874965,2.543124 5.6874965,5.687499 0,3.1443761 -2.54312,5.6875011 -5.6874965,5.6875011 -3.1443734,0 -5.6874996,-2.543125 -5.6874996,-5.6875012 0,-3.1443749 2.5431262,-5.6874989 5.6874996,-5.6874989 z M 8.609375,6.9592017 v 0 0 0 0 0 c 0,0 -0.027613,0.0065 0,0 z M 7.9748065,10.615454 Z"
     id="path58-9"
     sodipodi:nodetypes="ssssssssssccccccccccccccccc" />
  <path
     style="opacity:0.2;stroke-width:0.773234"
     d="M 5.2501695,4.2064268 7.6686021,7.959036 6.6108017,12 8.2734216,10.845787 8.1224278,10.124101 10.540857,8.5365479 10.833574,7.6779319 11.74966,7.8148599 11.180271,6.6598395 H 9.4071417 L 8.2734216,4.7831328 Z"
     id="path6" />
  <path
     style="fill:#ffffff;stroke-width:0.773234"
     d="M 9.3936705,6.4537325 H 11.180362 L 10.540687,8.3301193 Z"
     id="path8" />
  <path
     style="fill:#3d99ff;fill-opacity:1;stroke-width:0.773234"
     d="M 11.180362,6.4537325 11.75,7.6084342 10.816097,7.469292 Z"
     id="path10" />
  <path
     style="fill:#ffffff;stroke-width:0.773234"
     d="M 7.6686021,7.7527701 10.540687,8.3301193 8.1225846,9.9178259 Z"
     id="path12" />
  <path
     style="fill:url(#linearGradient8);fill-opacity:1;stroke-width:0.773234"
     d="M 7.6686021,7.7527701 8.2732538,10.639515 6.6104645,11.794211 Z"
     id="path14" />
  <path
     d="M 5.25,4 8.2732538,4.5773488 10.540687,8.3301193 7.6686021,7.7527701 Z"
     id="path16"
     style="fill:url(#linearGradient6);fill-opacity:1;stroke-width:0.773234" />
</svg>
