<?xml version="1.0" encoding="UTF-8" standalone="no"?>
<svg
   width="16"
   height="16"
   viewBox="0 0 16 16"
   version="1.1"
   id="svg94"
   sodipodi:docname="php.svg"
   inkscape:version="1.3.2 (091e20ef0f, 2023-11-25)"
   xmlns:inkscape="http://www.inkscape.org/namespaces/inkscape"
   xmlns:sodipodi="http://sodipodi.sourceforge.net/DTD/sodipodi-0.dtd"
   xmlns:xlink="http://www.w3.org/1999/xlink"
   xmlns="http://www.w3.org/2000/svg"
   xmlns:svg="http://www.w3.org/2000/svg">
  <defs
     id="defs98">
    <linearGradient
       id="linearGradient827"
       x1="24"
       x2="24"
       y1="294"
       y2="257"
       gradientTransform="matrix(0.27781249,0,0,0.2714534,-15.600553,-77.967023)"
       gradientUnits="userSpaceOnUse">
      <stop
         stop-color="#1d99f3"
         offset="0"
         id="stop2-3" />
      <stop
         stop-color="#3daee9"
         offset="1"
         id="stop4-6" />
    </linearGradient>
    <linearGradient
       id="linearGradient831"
       x1="31"
       x2="31"
       y1="-21.230349"
       y2="36"
       gradientTransform="matrix(0.27781249,0,0,0.27807417,-15.600552,-10.395)"
       gradientUnits="userSpaceOnUse">
      <stop
         stop-color="#2980b9"
         offset="0"
         id="stop27-7" />
      <stop
         stop-color="#3daee9"
         stop-opacity="0"
         offset="1"
         id="stop29-5" />
    </linearGradient>
    <linearGradient
       id="linearGradient835"
       x1="120.39682"
       x2="120.34652"
       y1="23.021145"
       y2="32.414047"
       gradientTransform="matrix(0.38271441,0.10439693,-0.12882244,0.48944005,-48.026691,-29.482708)"
       gradientUnits="userSpaceOnUse">
      <stop
         stop-color="#bdc3c7"
         offset="0"
         id="stop12-3" />
      <stop
         stop-color="#fff"
         offset="1"
         id="stop14-5" />
    </linearGradient>
    <linearGradient
       id="linearGradient839"
       x1="112.7049"
       x2="112.7049"
       y1="30.894091"
       y2="32.711887"
       gradientTransform="matrix(0.38271438,0.10439692,-0.12882244,0.48944002,-48.026691,-29.482708)"
       gradientUnits="userSpaceOnUse">
      <stop
         stop-color="#2c3e50"
         offset="0"
         id="stop22-6" />
      <stop
         stop-color="#34495e"
         offset="1"
         id="stop24-2" />
    </linearGradient>
    <linearGradient
       id="linearGradient843"
       x1="119.85059"
       x2="119.85059"
       y1="27.383589"
       y2="33.01519"
       gradientTransform="matrix(0.38271438,0.10439692,-0.12882244,0.48944002,-48.026691,-29.482708)"
       gradientUnits="userSpaceOnUse">
      <stop
         stop-color="#7f8c8d"
         offset="0"
         id="stop17-9" />
      <stop
         stop-color="#95a5a6"
         offset="1"
         id="stop19-1" />
    </linearGradient>
    <linearGradient
       inkscape:collect="always"
       xlink:href="#linearGradient4"
       id="linearGradient2"
       x1="10.707617"
       y1="31.534513"
       x2="37.173615"
       y2="31.534513"
       gradientUnits="userSpaceOnUse"
       gradientTransform="matrix(0.49119626,0,0,0.49119634,-3.7595395,-7.489637)" />
    <linearGradient
       id="linearGradient4"
       inkscape:collect="always">
      <stop
         style="stop-color:#00b1b1;stop-opacity:1;"
         offset="0"
         id="stop3" />
      <stop
         style="stop-color:#9955ff;stop-opacity:1"
         offset="1"
         id="stop4-2" />
    </linearGradient>
  </defs>
  <sodipodi:namedview
     id="namedview96"
     pagecolor="#ffffff"
     bordercolor="#666666"
     borderopacity="1.0"
     inkscape:showpageshadow="2"
     inkscape:pageopacity="0.0"
     inkscape:pagecheckerboard="0"
     inkscape:deskcolor="#d1d1d1"
     showgrid="false"
     inkscape:zoom="22.512993"
     inkscape:cx="6.5295627"
     inkscape:cy="11.482258"
     inkscape:window-width="1920"
     inkscape:window-height="1005"
     inkscape:window-x="0"
     inkscape:window-y="0"
     inkscape:window-maximized="1"
     inkscape:current-layer="svg94" />
  <linearGradient
     id="a"
     x1="24"
     x2="24"
     y1="294"
     y2="257"
     gradientTransform="matrix(0.27781249,0,0,0.2714534,-15.600553,-77.967023)"
     gradientUnits="userSpaceOnUse">
    <stop
       stop-color="#1d99f3"
       offset="0"
       id="stop2" />
    <stop
       stop-color="#3daee9"
       offset="1"
       id="stop4" />
  </linearGradient>
  <linearGradient
     id="b"
     x1="24"
     x2="24"
     y1="294"
     y2="257"
     gradientTransform="matrix(1.0000001,0,0,0.97711022,-7e-6,-243.23179)"
     gradientUnits="userSpaceOnUse">
    <stop
       stop-color="#27ae60"
       offset="0"
       id="stop7" />
    <stop
       stop-color="#2ecc71"
       offset="1"
       id="stop9" />
  </linearGradient>
  <linearGradient
     id="c"
     x1="120.39682"
     x2="120.34652"
     y1="23.021145"
     y2="32.414047"
     gradientTransform="matrix(0.38271441,0.10439693,-0.12882244,0.48944005,-48.026691,-29.482708)"
     gradientUnits="userSpaceOnUse">
    <stop
       stop-color="#bdc3c7"
       offset="0"
       id="stop12" />
    <stop
       stop-color="#fff"
       offset="1"
       id="stop14" />
  </linearGradient>
  <linearGradient
     id="d"
     x1="119.85059"
     x2="119.85059"
     y1="27.383589"
     y2="33.01519"
     gradientTransform="matrix(0.38271438,0.10439692,-0.12882244,0.48944002,-48.026691,-29.482708)"
     gradientUnits="userSpaceOnUse">
    <stop
       stop-color="#7f8c8d"
       offset="0"
       id="stop17" />
    <stop
       stop-color="#95a5a6"
       offset="1"
       id="stop19" />
  </linearGradient>
  <linearGradient
     id="e"
     x1="112.7049"
     x2="112.7049"
     y1="30.894091"
     y2="32.711887"
     gradientTransform="matrix(0.38271438,0.10439692,-0.12882244,0.48944002,-48.026691,-29.482708)"
     gradientUnits="userSpaceOnUse">
    <stop
       stop-color="#2c3e50"
       offset="0"
       id="stop22" />
    <stop
       stop-color="#34495e"
       offset="1"
       id="stop24" />
  </linearGradient>
  <linearGradient
     id="f"
     x1="31"
     x2="31"
     y1="-21.230349"
     y2="36"
     gradientTransform="matrix(0.27781249,0,0,0.27807417,-15.600552,-10.395)"
     gradientUnits="userSpaceOnUse">
    <stop
       stop-color="#2980b9"
       offset="0"
       id="stop27" />
    <stop
       stop-color="#3daee9"
       stop-opacity="0"
       offset="1"
       id="stop29" />
  </linearGradient>
  <path
     id="circle2"
     style="opacity:0.99;fill:url(#linearGradient2);fill-opacity:1;stroke-width:0.491199"
     d="M 14.499999,8.000001 A 6.4999991,6.5000002 0 0 1 7.9999999,14.5 6.4999991,6.5000002 0 0 1 1.5000012,8.000001 6.4999991,6.5000002 0 0 1 7.9999999,1.5 6.4999991,6.5000002 0 0 1 14.499999,8.000001 Z" />
  <path
     id="circle858"
     style="fill:#1c202f;fill-opacity:1;stroke-width:0.417883"
     d="M 13.529826,8.000001 A 5.5298257,5.5298269 0 0 1 7.9999999,13.529826 5.5298257,5.5298269 0 0 1 2.4701741,8.000001 5.5298257,5.5298269 0 0 1 7.9999999,2.4701742 5.5298257,5.5298269 0 0 1 13.529826,8.000001 Z" />
  <path
     d="M 2.4726748,10.453785 3.2853777,6.4840449 h 1.8779695 c 0.8127033,0.05002 1.2178044,0.4413594 1.2178044,1.1277796 0,1.1752936 -0.963991,1.8592168 -1.8267063,1.812952 H 3.6392163 L 3.4354154,10.455036 H 2.4701741 M 3.843017,8.6908469 4.0968306,7.2204755 h 0.6601651 c 0.3563393,0 0.6089021,0.147538 0.6089021,0.441363 C 5.3146341,8.4945479 4.9095337,8.6420811 4.45317,8.6908469 m -0.610153,0"
     fill-rule="evenodd"
     id="path1"
     style="fill:#ffffff;stroke-width:3.7796" />
  <path
     d="M 6.0785762,9.4235265 6.8912793,5.4550357 h 0.963991 L 7.6527198,6.4827941 h 0.9139783 c 0.8127034,0.05002 1.1177799,0.4413602 1.0152534,0.9314804 L 9.226863,9.4235265 H 8.2103589 l 0.3563392,-1.812952 c 0.050012,-0.245061 0.050012,-0.392599 -0.3063266,-0.392599 h -0.76019 L 7.0425668,9.4222765 H 6.0798264 m 0,0"
     id="path2"
     style="fill:#ffffff;stroke-width:3.7796" />
  <path
     d="M 9.1455926,10.453785 9.9582977,6.4840449 h 1.8804673 c 0.812703,0.05002 1.217805,0.4413594 1.217805,1.1277796 0,1.1752936 -0.96524,1.8592168 -1.829208,1.812952 h -0.913976 l -0.202551,1.0302595 m 0.406352,-1.7641891 0.253812,-1.4703714 h 0.660164 c 0.355088,0 0.608903,0.147538 0.608903,0.441363 -0.05001,0.8327094 -0.456365,0.9802426 -0.915228,1.0290084 m -0.607651,0"
     fill-rule="evenodd"
     id="path3-3"
     style="fill:#ffffff;stroke-width:3.7796" />
</svg>
