<?xml version="1.0" encoding="UTF-8" standalone="no"?>
<svg
   style="isolation:isolate"
   width="16"
   height="16"
   viewBox="0 0 16 16"
   version="1.1"
   id="svg22"
   sodipodi:docname="com.github.mirkobrombin.bottles.svg"
   inkscape:version="1.3.2 (091e20ef0f, 2023-11-25)"
   xmlns:inkscape="http://www.inkscape.org/namespaces/inkscape"
   xmlns:sodipodi="http://sodipodi.sourceforge.net/DTD/sodipodi-0.dtd"
   xmlns:xlink="http://www.w3.org/1999/xlink"
   xmlns="http://www.w3.org/2000/svg"
   xmlns:svg="http://www.w3.org/2000/svg">
  <sodipodi:namedview
     id="namedview22"
     pagecolor="#ffffff"
     bordercolor="#000000"
     borderopacity="0.25"
     inkscape:showpageshadow="2"
     inkscape:pageopacity="0.0"
     inkscape:pagecheckerboard="0"
     inkscape:deskcolor="#d1d1d1"
     inkscape:zoom="23.96875"
     inkscape:cx="6.8005215"
     inkscape:cy="7.8644068"
     inkscape:window-width="1920"
     inkscape:window-height="994"
     inkscape:window-x="0"
     inkscape:window-y="0"
     inkscape:window-maximized="1"
     inkscape:current-layer="svg22" />
  <defs
     id="defs22">
    <linearGradient
       id="linearGradient22"
       inkscape:collect="always">
      <stop
         style="stop-color:#00ccff;stop-opacity:1"
         offset="0"
         id="stop23" />
      <stop
         style="stop-color:#bc5fd3;stop-opacity:1"
         offset="1"
         id="stop24" />
    </linearGradient>
    <style
       id="current-color-scheme"
       type="text/css">
   .ColorScheme-Text { color:#d5c289; } .ColorScheme-Highlight { color:#5294e2; }
  </style>
    <linearGradient
       id="arrongin"
       x1="0%"
       x2="0%"
       y1="0%"
       y2="100%">
      <stop
         offset="0%"
         style="stop-color:#dd9b44; stop-opacity:1"
         id="stop1" />
      <stop
         offset="100%"
         style="stop-color:#ad6c16; stop-opacity:1"
         id="stop2" />
    </linearGradient>
    <linearGradient
       id="aurora"
       x1="0%"
       x2="0%"
       y1="0%"
       y2="100%">
      <stop
         offset="0%"
         style="stop-color:#09D4DF; stop-opacity:1"
         id="stop3" />
      <stop
         offset="100%"
         style="stop-color:#9269F4; stop-opacity:1"
         id="stop4" />
    </linearGradient>
    <linearGradient
       id="fitdance"
       x1="0%"
       x2="0%"
       y1="0%"
       y2="100%">
      <stop
         offset="0%"
         style="stop-color:#1AD6AB; stop-opacity:1"
         id="stop5" />
      <stop
         offset="100%"
         style="stop-color:#329DB6; stop-opacity:1"
         id="stop6" />
    </linearGradient>
    <linearGradient
       id="oomox"
       x1="0.83437789"
       x2="0.83437789"
       y1="0"
       y2="15.187363"
       gradientTransform="matrix(0.79012918,0,0,0.85597297,1.3407339,1.5)"
       gradientUnits="userSpaceOnUse">
      <stop
         offset="0%"
         style="stop-color:#303b3d; stop-opacity:1"
         id="stop7" />
      <stop
         offset="100%"
         style="stop-color:#bc985d; stop-opacity:1"
         id="stop8" />
    </linearGradient>
    <linearGradient
       id="rainblue"
       x1="0%"
       x2="0%"
       y1="0%"
       y2="100%">
      <stop
         offset="0%"
         style="stop-color:#00F260; stop-opacity:1"
         id="stop9" />
      <stop
         offset="100%"
         style="stop-color:#0575E6; stop-opacity:1"
         id="stop10" />
    </linearGradient>
    <linearGradient
       id="sunrise"
       x1="0%"
       x2="0%"
       y1="0%"
       y2="100%">
      <stop
         offset="0%"
         style="stop-color: #FF8501; stop-opacity:1"
         id="stop11" />
      <stop
         offset="100%"
         style="stop-color: #FFCB01; stop-opacity:1"
         id="stop12" />
    </linearGradient>
    <linearGradient
       id="telinkrin"
       x1="0%"
       x2="0%"
       y1="0%"
       y2="100%">
      <stop
         offset="0%"
         style="stop-color: #b2ced6; stop-opacity:1"
         id="stop13" />
      <stop
         offset="100%"
         style="stop-color: #6da5b7; stop-opacity:1"
         id="stop14" />
    </linearGradient>
    <linearGradient
       id="60spsycho"
       x1="0%"
       x2="0%"
       y1="0%"
       y2="100%">
      <stop
         offset="0%"
         style="stop-color: #df5940; stop-opacity:1"
         id="stop15" />
      <stop
         offset="25%"
         style="stop-color: #d8d15f; stop-opacity:1"
         id="stop16" />
      <stop
         offset="50%"
         style="stop-color: #e9882a; stop-opacity:1"
         id="stop17" />
      <stop
         offset="100%"
         style="stop-color: #279362; stop-opacity:1"
         id="stop18" />
    </linearGradient>
    <linearGradient
       id="90ssummer"
       x1="0%"
       x2="0%"
       y1="0%"
       y2="100%">
      <stop
         offset="0%"
         style="stop-color: #f618c7; stop-opacity:1"
         id="stop19" />
      <stop
         offset="20%"
         style="stop-color: #94ffab; stop-opacity:1"
         id="stop20" />
      <stop
         offset="50%"
         style="stop-color: #fbfd54; stop-opacity:1"
         id="stop21" />
      <stop
         offset="100%"
         style="stop-color: #0f83ae; stop-opacity:1"
         id="stop22" />
    </linearGradient>
    <linearGradient
       inkscape:collect="always"
       xlink:href="#linearGradient22"
       id="linearGradient24"
       x1="1.1238592"
       y1="14.717066"
       x2="14.125163"
       y2="1.3246276"
       gradientUnits="userSpaceOnUse" />
  </defs>
  <path
     fill-rule="evenodd"
     d="m 7.1908902,11.634289 c -0.028302,-0.36806 -0.042454,-0.736935 -0.041621,-1.105808 0,-0.435499 0.041621,-0.822249 0.08574,-1.2284982 H 5.8665309 c 0.084073,0.3046867 0.1323526,0.6865619 0.1323526,1.1675592 0,0.480188 -0.048277,0.86206 -0.1323526,1.166747 z M 3.3418405,10.467542 c 0,-0.4809973 0.048279,-0.8628725 0.1323526,-1.1675592 H 2.1057159 c 0.044118,0.4062492 0.085737,0.7929992 0.085737,1.2284982 0,0.435499 -0.017481,0.788935 -0.041621,1.105808 H 3.4741933 C 3.3901197,11.329602 3.3418409,10.94773 3.3418405,10.467542 Z m 3.8948318,1.685124 H 5.646775 c -0.2430621,0.379438 -0.5901763,0.518371 -0.9764132,0.518371 -0.3862368,0 -0.7333502,-0.138933 -0.9764137,-0.518371 H 2.104051 L 2.089068,12.297288 C 2.043286,12.750666 2,13.178851 2,13.748414 c 0,0.42168 0.3329628,0.751558 0.7574905,0.751558 H 6.583233 c 0.4245275,0 0.7574903,-0.329873 0.7574903,-0.751558 0,-0.569563 -0.043286,-0.997748 -0.089068,-1.451126 z M 5.7333454,2.8398093 h -2.125967 c -0.1581575,0 -0.2871807,-0.125937 -0.2871807,-0.281124 V 2.2994982 C 3.3201977,1.8583117 3.6872894,1.5 4.1392862,1.5 h 1.0621513 c 0.4519973,0 0.8190886,0.3583117 0.8190886,0.7994982 v 0.2591871 c 0,0.155187 -0.1281909,0.281124 -0.2871807,0.281124 z M 5.9897272,5.4763662 5.7741335,3.3541211 c -0.01415,8.127e-4 -0.027467,0.00409 -0.040787,0.00409 h -2.125967 c -0.013319,0 -0.026637,-0.00325 -0.039956,-0.00409 L 3.3509982,5.4763662 c -0.3146514,0.2786873 -1.350998,1.2756222 -1.350998,2.3074951 0,0.365624 0.023307,0.6898105 0.052442,0.9977476 h 1.6415066 c 0.2430635,-0.3802492 0.590177,-0.5183738 0.9764137,-0.5183738 0.3862369,0 0.733351,0.1381246 0.9764132,0.5183738 h 1.6423391 c 0.029136,-0.3079371 0.051609,-0.6321236 0.051609,-0.9977476 0,-1.0310605 -1.0363471,-2.0279957 -1.3509966,-2.3074951 z m 7.8604208,6.1579228 c -0.02833,-0.36806 -0.04242,-0.736935 -0.04163,-1.105808 0,-0.435499 0.04162,-0.822249 0.08571,-1.2284982 h -1.368476 c 0.08411,0.3046867 0.13235,0.6865629 0.13235,1.1675592 0,0.480188 -0.04826,0.86206 -0.13235,1.166747 h 1.324358 z m -3.849051,-1.166747 c 0,-0.4809963 0.04829,-0.8628725 0.132348,-1.1675592 H 8.7649716 c 0.044119,0.4062492 0.085737,0.7929992 0.085737,1.2284982 0,0.435499 -0.01748,0.788935 -0.04162,1.105808 h 1.3243584 c -0.08407,-0.304687 -0.132351,-0.686559 -0.13235,-1.166747 z m 3.894832,1.685124 h -1.5899 c -0.243062,0.379438 -0.590174,0.518371 -0.976411,0.518371 -0.386235,0 -0.733351,-0.138933 -0.976415,-0.518371 H 8.7633069 l -0.014985,0.144622 c -0.045782,0.453378 -0.089066,0.881563 -0.089066,1.451126 0,0.42168 0.3329629,0.751558 0.7574903,0.751558 h 3.8257388 c 0.424532,0 0.757492,-0.329873 0.757492,-0.751558 0,-0.569563 -0.04327,-0.997748 -0.08903,-1.451126 l -0.01496,-0.144622 z M 12.392602,2.8398093 h -2.125969 c -0.158156,0 -0.287179,-0.125937 -0.287179,-0.281124 V 2.2994982 C 9.979454,1.8583117 10.346543,1.5 10.798543,1.5 h 1.062147 c 0.452001,0 0.819096,0.3583117 0.819096,0.7994982 v 0.2591871 c 0,0.155187 -0.128192,0.281124 -0.287184,0.281124 z M 12.64898,5.4763662 12.433395,3.3541211 c -0.01416,8.121e-4 -0.02747,0.00409 -0.04079,0.00409 H 10.26664 c -0.01332,0 -0.02663,-0.00325 -0.03995,-0.00409 L 10.01026,5.4763662 C 9.695601,5.7550535 8.659254,6.7519884 8.659254,7.7838613 c 0,0.365624 0.023307,0.6898105 0.052443,0.9977476 h 1.641506 c 0.243062,-0.3802492 0.590178,-0.5183738 0.976413,-0.5183738 0.386237,0 0.733349,0.1381246 0.976411,0.5183738 H 13.94837 C 13.97746,8.4736718 14,8.1494853 14,7.7838613 14,6.7528008 12.963654,5.7558656 12.649002,5.4763662 Z"
     id="path22"
     style="fill:url(#linearGradient24)" />
</svg>
