<?xml version="1.0" encoding="UTF-8" standalone="no"?>
<svg
   width="16"
   height="16"
   version="1.1"
   id="svg22"
   sodipodi:docname="com.usebottles.bottles.Devel.svg"
   inkscape:version="1.3.2 (091e20ef0f, 2023-11-25)"
   xmlns:inkscape="http://www.inkscape.org/namespaces/inkscape"
   xmlns:sodipodi="http://sodipodi.sourceforge.net/DTD/sodipodi-0.dtd"
   xmlns:xlink="http://www.w3.org/1999/xlink"
   xmlns="http://www.w3.org/2000/svg"
   xmlns:svg="http://www.w3.org/2000/svg"
   xmlns:rdf="http://www.w3.org/1999/02/22-rdf-syntax-ns#"
   xmlns:cc="http://creativecommons.org/ns#"
   xmlns:dc="http://purl.org/dc/elements/1.1/">
  <sodipodi:namedview
     pagecolor="#ffffff"
     bordercolor="#666666"
     borderopacity="1"
     objecttolerance="10"
     gridtolerance="10"
     guidetolerance="10"
     inkscape:pageopacity="0"
     inkscape:pageshadow="2"
     inkscape:window-width="1920"
     inkscape:window-height="994"
     id="namedview24"
     showgrid="true"
     inkscape:zoom="51.937499"
     inkscape:cx="5.9494586"
     inkscape:cy="7.2876054"
     inkscape:window-x="0"
     inkscape:window-y="0"
     inkscape:window-maximized="1"
     inkscape:current-layer="svg22"
     inkscape:showpageshadow="2"
     inkscape:pagecheckerboard="0"
     inkscape:deskcolor="#d1d1d1">
    <inkscape:grid
       id="grid1"
       units="px"
       originx="0"
       originy="0"
       spacingx="1"
       spacingy="1"
       empcolor="#0099e5"
       empopacity="0.30196078"
       color="#0099e5"
       opacity="0.14901961"
       empspacing="5"
       dotted="false"
       gridanglex="30"
       gridanglez="30"
       visible="true" />
  </sodipodi:namedview>
  <metadata
     id="metadata2">
    <rdf:RDF>
      <cc:Work
         rdf:about="">
        <dc:format>image/svg+xml</dc:format>
        <dc:type
           rdf:resource="http://purl.org/dc/dcmitype/StillImage" />
      </cc:Work>
    </rdf:RDF>
  </metadata>
  <defs
     id="defs14">
    <filter
       id="filter2761"
       x="-0.024"
       y="-0.024"
       width="1.048"
       height="1.048"
       color-interpolation-filters="sRGB">
      <feGaussianBlur
         stdDeviation="0.14552168"
         id="feGaussianBlur4" />
    </filter>
    <linearGradient
       id="linearGradient4673"
       x1="1.2573"
       x2="15.644"
       y1="15.429"
       y2="1.1082"
       gradientTransform="matrix(3.7796,0,0,3.7796,-98.960821,0.53085)"
       gradientUnits="userSpaceOnUse">
      <stop
         stop-color="#16ff6c"
         offset="0"
         id="stop7" />
      <stop
         stop-color="#28ff61"
         offset=".47728"
         id="stop9" />
      <stop
         stop-color="#9fff1b"
         offset="1"
         id="stop11" />
    </linearGradient>
    <linearGradient
       id="linearGradient3764"
       x1="1"
       x2="47"
       gradientUnits="userSpaceOnUse"
       gradientTransform="rotate(-90,23.999998,24)">
      <stop
         style="stop-color:#00ccff;stop-opacity:1"
         id="stop2"
         offset="0" />
      <stop
         offset="1"
         style="stop-color:#bc5fd3;stop-opacity:1"
         id="stop4" />
    </linearGradient>
    <style
       type="text/css"
       id="style876" />
    <style
       type="text/css"
       id="style878" />
    <style
       type="text/css"
       id="style880" />
    <style
       type="text/css"
       id="style882" />
    <filter
       id="filter1057"
       x="-0.026999999"
       y="-0.026999999"
       width="1.054"
       height="1.054"
       color-interpolation-filters="sRGB">
      <feGaussianBlur
         stdDeviation="0.61875"
         id="feGaussianBlur884" />
    </filter>
    <linearGradient
       id="linearGradient1053"
       x1="-127"
       x2="-72"
       y1="60"
       y2="5"
       gradientTransform="translate(131.5,-0.51)"
       gradientUnits="userSpaceOnUse">
      <stop
         stop-color="#02db96"
         offset="0"
         id="stop887"
         style="stop-color:#14ff6e;stop-opacity:1" />
      <stop
         stop-color="#13d39b"
         offset="1"
         id="stop889"
         style="stop-color:#a0ff1e;stop-opacity:1" />
    </linearGradient>
    <style
       type="text/css"
       id="style892" />
    <style
       type="text/css"
       id="style894" />
    <style
       type="text/css"
       id="style896" />
    <linearGradient
       id="a-367"
       gradientUnits="userSpaceOnUse"
       x1="23"
       x2="37"
       y1="20"
       y2="34"
       gradientTransform="matrix(1.9622547,0,0,1.9622547,-116.93982,-48.178796)">
      <stop
         offset="0"
         stop-color="#292c2f"
         id="stop246" />
      <stop
         offset="1"
         stop-opacity="0"
         id="stop248" />
    </linearGradient>
    <linearGradient
       id="c-53"
       gradientTransform="matrix(2.0428665,-6.8308524,5.7819337,2.3633129,25.219113,34.652812)"
       gradientUnits="userSpaceOnUse"
       x1="24"
       x2="24"
       y1="35"
       y2="13">
      <stop
         offset="0"
         stop-color="#23a2cd"
         id="stop256" />
      <stop
         offset=".53"
         stop-color="#00b8f5"
         id="stop258" />
      <stop
         offset="1"
         stop-color="#2ecbff"
         id="stop260" />
    </linearGradient>
    <linearGradient
       id="b"
       x1="5.6735563"
       x2="6.3497996"
       y1="285.08102"
       y2="296.22104"
       gradientTransform="matrix(3.9684789,0,0,3.7701975,-1.1998401,-1071.8118)"
       gradientUnits="userSpaceOnUse">
      <stop
         stop-color="#535a61"
         offset="0"
         id="stop24"
         style="stop-color:#31374e;stop-opacity:1;" />
      <stop
         stop-color="#333c45"
         offset="1"
         id="stop26"
         style="stop-color:#3a465f;stop-opacity:1;" />
    </linearGradient>
    <linearGradient
       id="l"
       x1="27.447001"
       x2="25.966"
       y1="289.76001"
       y2="289.76001"
       gradientTransform="matrix(3.741601,0,0,3.8209959,-163.25079,-1114.3625)"
       gradientUnits="userSpaceOnUse">
      <stop
         stop-color="#1881ce"
         offset="0"
         id="stop19" />
      <stop
         stop-color="#2980b9"
         offset="1"
         id="stop21" />
    </linearGradient>
    <linearGradient
       id="i"
       x1="7.8635001"
       x2="11.642"
       y1="288.34"
       y2="292.10999"
       gradientUnits="userSpaceOnUse"
       xlink:href="#a"
       gradientTransform="matrix(3.9684789,0,0,3.9686289,-97.302609,-1160.6764)" />
    <linearGradient
       id="a">
      <stop
         stop-color="#232629"
         offset="0"
         id="stop2-7" />
      <stop
         stop-opacity="0"
         offset="1"
         id="stop4-5" />
    </linearGradient>
    <linearGradient
       id="j"
       x1="10.692"
       x2="34.026001"
       y1="14.134"
       y2="29.068001"
       gradientTransform="matrix(0.98997675,0,0,1.0109685,-94.236919,-27.394731)"
       gradientUnits="userSpaceOnUse">
      <stop
         stop-color="#349cd2"
         offset="0"
         id="stop7-3" />
      <stop
         stop-color="#2694d9"
         offset=".74017"
         id="stop9-5" />
      <stop
         stop-color="#0e6daa"
         offset="1"
         id="stop11-6" />
    </linearGradient>
    <linearGradient
       id="h"
       x1="3.4561"
       x2="9.3148003"
       y1="287.76001"
       y2="293.60999"
       gradientUnits="userSpaceOnUse"
       xlink:href="#a"
       gradientTransform="matrix(3.9684789,0,0,3.9686289,-97.302609,-1160.6764)" />
    <linearGradient
       id="k"
       x1="21.274"
       x2="27.447001"
       y1="291.29999"
       y2="287.35001"
       gradientTransform="matrix(3.741601,0,0,3.8209959,-163.25079,-1114.3625)"
       gradientUnits="userSpaceOnUse">
      <stop
         stop-color="#1d99f3"
         offset="0"
         id="stop14" />
      <stop
         stop-color="#3daee9"
         offset="1"
         id="stop16" />
    </linearGradient>
    <linearGradient
       inkscape:collect="always"
       xlink:href="#linearGradient3764"
       id="linearGradient26"
       x1="15.235155"
       y1="14.872931"
       x2="2.2920253"
       y2="2.7845645"
       gradientUnits="userSpaceOnUse"
       gradientTransform="matrix(0.86666667,0,0,0.85714286,1.0666695,1.142857)" />
    <linearGradient
       inkscape:collect="always"
       xlink:href="#linearGradient3764"
       id="linearGradient3"
       gradientUnits="userSpaceOnUse"
       gradientTransform="matrix(0.41666681,0,0,0.46153852,4.6666778,2.8076916)"
       x1="1.1238592"
       y1="14.717066"
       x2="14.125163"
       y2="1.3246276" />
  </defs>
  <circle
     cx="-1252.4805"
     cy="-1236.6377"
     r="0"
     fill="#5e4aa6"
     id="circle908" />
  <circle
     cx="-1258.1064"
     cy="-1248.3278"
     r="0"
     id="circle910"
     style="fill:#5e4aa6" />
  <circle
     cx="-158.55647"
     cy="17.127289"
     r="0"
     fill-rule="evenodd"
     id="circle912"
     style="fill:#5e4aa6" />
  <circle
     cx="-1258.1064"
     cy="-1248.3278"
     r="0"
     id="circle914"
     style="fill:#5e4aa6" />
  <circle
     cx="-158.55647"
     cy="17.127289"
     r="0"
     fill-rule="evenodd"
     id="circle916"
     style="fill:#5e4aa6" />
  <circle
     cx="-1160.3064"
     cy="-1263.3278"
     r="0"
     id="circle918"
     style="fill:#5e4aa6" />
  <circle
     cx="-60.733475"
     cy="2.1466885"
     r="0"
     fill-rule="evenodd"
     id="circle920"
     style="fill:#5e4aa6" />
  <g
     transform="matrix(3.7796,0,0,3.7796,158.45352,-2.1177117)"
     stroke-width="0.26458"
     id="g950"
     style="fill:#5e4aa6">
    <g
       transform="translate(-0.0272,0.0065001)"
       id="g938">
      <circle
         cx="-330.35001"
         cy="-328.38"
         r="0"
         id="circle922" />
      <circle
         cx="-312.10999"
         cy="-326.25"
         r="0"
         id="circle924" />
      <circle
         cx="-306.01999"
         cy="-333.07001"
         r="0"
         id="circle926" />
      <circle
         cx="-308.84"
         cy="-326.01001"
         r="0"
         id="circle928" />
      <circle
         cx="-330.35001"
         cy="-328.38"
         r="0"
         id="circle930" />
      <circle
         cx="-312.10999"
         cy="-326.25"
         r="0"
         id="circle932" />
      <circle
         cx="-306.01999"
         cy="-333.07001"
         r="0"
         id="circle934" />
      <circle
         cx="-308.84"
         cy="-326.01001"
         r="0"
         id="circle936" />
    </g>
    <g
       transform="translate(-0.02705,0.0064503)"
       id="g948">
      <circle
         cx="-330.35001"
         cy="-328.38"
         r="0"
         id="circle940" />
      <circle
         cx="-312.10999"
         cy="-326.25"
         r="0"
         id="circle942" />
      <circle
         cx="-306.01999"
         cy="-333.07001"
         r="0"
         id="circle944" />
      <circle
         cx="-308.84"
         cy="-326.01001"
         r="0"
         id="circle946" />
    </g>
  </g>
  <path
     class="ColorScheme-Text"
     d="m 2.8928585,2 c -0.763285,0 -1.392856,0.678 -1.392856,1.5 v 9 c 0,0.822994 0.629571,1.5 1.392856,1.5 H 13.107147 c 0.76328,0 1.39285,-0.677006 1.39285,-1.5 v -9 c 0,-0.822 -0.62957,-1.5 -1.39285,-1.5 z m 0,0.999999 h 3.249999 0.928571 v 0 h 3.5285745 v 0 0 0 h 2.507145 c 0.26556,0 0.46427,0.215001 0.46427,0.500001 v 9 c 0,0.285994 -0.19871,0.500006 -0.46427,0.500006 H 2.8928585 C 2.6338175,13.006906 2.4221205,12.778974 2.4285725,12.5 v -9 c 0,-0.285 0.198716,-0.500001 0.464286,-0.500001 z m 4.17857,0 h 1.857144 v 0 0 z"
     font-family="sans-serif"
     font-weight="400"
     overflow="visible"
     id="path22"
     sodipodi:nodetypes="sssssssssscccccccssssccssccccc"
     style="color:#d5c289;fill:url(#linearGradient26);stroke-width:0.861892" />
  <path
     d="m 2.413,9.9926799 v 2.5489971 a 1.0181902,0.88115615 0 0 0 0.015931,0.150744 c 0.00561,0.02422 0.012273,0.04789 0.019809,0.07155 a 0.87845544,0.76022775 0 0 0 0.1976523,0.305395 0.87414934,0.75650119 0 0 0 0.1184209,0.09056 c 0.021518,0.0136 0.04349,0.02591 0.065668,0.03763 0.022812,0.01117 0.046292,0.02178 0.070406,0.03131 0.023908,0.0089 0.048226,0.01732 0.073418,0.02459 0.012709,0.0036 0.0254,0.0069 0.037892,0.01024 0.012709,0.0031 0.025848,0.0058 0.038757,0.008 a 0.65475068,0.56663048 0 0 0 0.079447,0.01117 0.66831503,0.57836926 0 0 0 0.081818,0.004 h 9.5144468 c 0.488963,-0.0017 0.882329,-0.350487 0.882329,-0.783519 V 9.9927114 Z"
     id="path12"
     style="stroke-width:0.200295;fill:#00ccff" />
  <path
     d="M 2.5538112,9.9926799 6.3600201,13.287 h 2.283984 L 4.8373641,9.9926799 H 2.553596 Z m 4.5668912,0 L 10.927771,13.287 h 1.799114 a 0.86812057,0.7512838 0 0 0 0.390139,-0.08199 L 9.4046865,9.9926799 H 7.1209191 Z m 4.5677506,0 L 13.609,11.654746 V 9.9926799 Z M 2.413,11.847225 v 0.694452 a 1.0181902,0.88115615 0 0 0 0.016148,0.150557 0.82419811,0.71327268 0 0 0 0.046723,0.139746 0.87845544,0.76022775 0 0 0 0.1705236,0.237385 0.87414934,0.75650119 0 0 0 0.1186351,0.09056 c 0.021533,0.01342 0.043277,0.02591 0.065668,0.03746 0.022604,0.01118 0.046291,0.02178 0.070191,0.03131 0.023908,0.0093 0.048443,0.0175 0.073633,0.02479 0.01249,0.0036 0.025174,0.0069 0.037893,0.01024 0.012488,0.0029 0.025619,0.0058 0.038758,0.008 a 0.65475068,0.56663048 0 0 0 0.079234,0.01118 0.66831503,0.57836926 0 0 0 0.081817,0.004 h 0.864459 L 2.4130006,11.847432 Z"
     fill="#000000"
     opacity="0.8"
     id="path13"
     style="stroke-width:0.200295" />
  <path
     fill-rule="evenodd"
     d="M 7.6628839,8.1773647 C 7.6511025,8.0074912 7.6452052,7.8372416 7.6455385,7.6669922 c 0,-0.2009998 0.01735,-0.3795004 0.035718,-0.5669996 H 7.1110496 c 0.035027,0.1406264 0.055154,0.3168738 0.055154,0.5388733 0,0.2216257 -0.020123,0.3978758 -0.055154,0.5384988 z M 6.0591113,7.6388653 c 0,-0.2219995 0.020132,-0.3982463 0.055152,-0.5388727 H 5.5440618 c 0.018369,0.1874992 0.035719,0.3659998 0.035719,0.5669996 0,0.2009993 -0.00728,0.3641246 -0.01735,0.5103725 H 6.1142481 C 6.0792244,8.0367417 6.0590962,7.8604916 6.05909,7.6388653 Z M 7.681959,8.4166145 H 7.019502 C 6.9182241,8.5917433 6.7735957,8.6558663 6.6126628,8.6558663 c -0.160933,0 -0.3055631,-0.064108 -0.4068403,-0.2392518 H 5.543365 l -0.00623,0.06676 C 5.518053,8.692623 5.500029,8.8902474 5.500029,9.1531235 c 0,0.1946232 0.1387345,0.3468742 0.3156203,0.3468742 h 1.5940621 c 0.1768865,0 0.3156213,-0.152251 0.3156213,-0.3468742 0,-0.2628761 -0.018034,-0.4605005 -0.037106,-0.669749 z M 7.055573,4.1183734 H 6.1697501 c -0.065892,0 -0.1196567,-0.058114 -0.1196567,-0.1297483 V 3.8689999 C 6.0500934,3.6653744 6.2030488,3.5 6.3913819,3.5 h 0.4425596 c 0.1883339,0 0.3412899,0.1653738 0.3412899,0.3689999 v 0.1196252 c 0,0.07162 -0.053409,0.1297483 -0.1196584,0.1297483 z M 7.1623989,5.3352465 7.0725657,4.3557481 c -0.0059,3.767e-4 -0.011459,0.00196 -0.017006,0.00196 h -0.88582 c -0.00554,0 -0.011107,-0.0014 -0.016647,-0.00196 L 6.0629171,5.3352465 C 5.9318091,5.4638702 5.5,5.9239951 5.5,6.400244 5.5,6.5689939 5.5097,6.7186199 5.521854,6.8607433 H 6.2058172 C 6.3070931,6.6852436 6.4517244,6.6214931 6.6126581,6.6214931 c 0.1609324,0 0.3055607,0.063748 0.4068359,0.2392502 h 0.6843098 c 0.012163,-0.1421234 0.021505,-0.2917494 0.021505,-0.4604993 0,-0.4758744 -0.4318105,-0.9359975 -0.5629146,-1.0649975 z M 10.43758,8.1773647 c -0.0118,-0.1698735 -0.0177,-0.3401231 -0.01731,-0.5103725 0,-0.2009998 0.01731,-0.3795004 0.03573,-0.5669996 H 9.8857589 c 0.035029,0.1406258 0.055154,0.3168738 0.055154,0.5388727 0,0.2216263 -0.020145,0.3978764 -0.055154,0.5384994 H 10.437575 Z M 8.833804,7.6388653 c 0,-0.2219989 0.020126,-0.3982469 0.055153,-0.5388727 H 8.318759 c 0.018369,0.1874992 0.035719,0.3659998 0.035719,0.5669996 0,0.2009993 -0.0073,0.3641246 -0.017351,0.5103725 H 8.8889438 C 8.8539206,8.0367417 8.8337983,7.8604916 8.8337983,7.6388653 Z m 1.622849,0.7777492 H 9.7941922 C 9.6929171,8.5917433 9.5482834,8.6558663 9.3873507,8.6558663 c -0.1609283,0 -0.305559,-0.064107 -0.4068379,-0.2392518 H 8.3180562 l -0.00623,0.06676 c -0.019076,0.2092485 -0.037125,0.4068729 -0.037125,0.669749 0,0.1946242 0.1387347,0.3468762 0.3156225,0.3468762 h 1.5940553 c 0.176889,0 0.315621,-0.152252 0.315621,-0.3468762 0,-0.2628751 -0.01804,-0.4604995 -0.03708,-0.669749 l -0.0066,-0.06676 z M 9.8302636,4.1183734 H 8.9444435 c -0.065894,0 -0.1196595,-0.058114 -0.1196595,-0.1297483 V 3.8689999 C 8.824784,3.6653744 8.9777398,3.5 9.1660722,3.5 h 0.4425606 c 0.1883341,0 0.3412948,0.1653738 0.3412948,0.3689999 v 0.1196252 c 0,0.07162 -0.053395,0.1297483 -0.119664,0.1297483 z M 9.9370873,5.3352465 9.8472638,4.3557481 c -0.00603,3.767e-4 -0.011462,0.00196 -0.017024,0.00196 H 8.9444381 c -0.00554,0 -0.011108,-0.0014 -0.016649,-0.00196 L 8.8376161,5.3352465 C 8.7065093,5.4638702 8.2746993,5.9239951 8.2746993,6.400244 c 0,0.1687499 0.0097,0.3183759 0.021855,0.4604993 H 8.9805167 C 9.081793,6.6852436 9.2264254,6.6214931 9.3873558,6.6214931 c 0.1609336,0 0.3055617,0.063748 0.4068402,0.2392502 h 0.684307 c 0.01213,-0.1421234 0.02149,-0.2917494 0.02149,-0.4604993 0,-0.4758744 -0.431814,-0.9359975 -0.5629211,-1.0649975 z"
     id="path22-3"
     style="isolation:isolate;fill:url(#linearGradient3);stroke-width:0.438532" />
</svg>
