<?xml version="1.0" encoding="UTF-8" standalone="no"?>
<svg
   style="isolation:isolate"
   width="16"
   height="16"
   viewBox="0 0 16 16"
   version="1.1"
   id="svg22"
   sodipodi:docname="com.usebottles.bottles.svg"
   inkscape:version="1.3.2 (091e20ef0f, 2023-11-25)"
   xmlns:inkscape="http://www.inkscape.org/namespaces/inkscape"
   xmlns:sodipodi="http://sodipodi.sourceforge.net/DTD/sodipodi-0.dtd"
   xmlns:xlink="http://www.w3.org/1999/xlink"
   xmlns="http://www.w3.org/2000/svg"
   xmlns:svg="http://www.w3.org/2000/svg">
  <sodipodi:namedview
     id="namedview22"
     pagecolor="#ffffff"
     bordercolor="#000000"
     borderopacity="0.25"
     inkscape:showpageshadow="2"
     inkscape:pageopacity="0.0"
     inkscape:pagecheckerboard="0"
     inkscape:deskcolor="#d1d1d1"
     inkscape:zoom="11.984375"
     inkscape:cx="8.5945241"
     inkscape:cy="1.3767927"
     inkscape:window-width="1920"
     inkscape:window-height="994"
     inkscape:window-x="0"
     inkscape:window-y="0"
     inkscape:window-maximized="1"
     inkscape:current-layer="svg22" />
  <defs
     id="defs22">
    <linearGradient
       id="linearGradient26"
       inkscape:collect="always">
      <stop
         style="stop-color:#ff00ff;stop-opacity:1"
         offset="0"
         id="stop25" />
      <stop
         style="stop-color:#ffd42a;stop-opacity:1"
         offset="1"
         id="stop26" />
    </linearGradient>
    <linearGradient
       id="linearGradient22"
       inkscape:collect="always">
      <stop
         style="stop-color:#00ccff;stop-opacity:1"
         offset="0"
         id="stop23" />
      <stop
         style="stop-color:#bc5fd3;stop-opacity:1"
         offset="1"
         id="stop24" />
    </linearGradient>
    <style
       id="current-color-scheme"
       type="text/css">
   .ColorScheme-Text { color:#d5c289; } .ColorScheme-Highlight { color:#5294e2; }
  </style>
    <linearGradient
       id="arrongin"
       x1="0%"
       x2="0%"
       y1="0%"
       y2="100%">
      <stop
         offset="0%"
         style="stop-color:#dd9b44; stop-opacity:1"
         id="stop1" />
      <stop
         offset="100%"
         style="stop-color:#ad6c16; stop-opacity:1"
         id="stop2" />
    </linearGradient>
    <linearGradient
       id="aurora"
       x1="0%"
       x2="0%"
       y1="0%"
       y2="100%">
      <stop
         offset="0%"
         style="stop-color:#09D4DF; stop-opacity:1"
         id="stop3" />
      <stop
         offset="100%"
         style="stop-color:#9269F4; stop-opacity:1"
         id="stop4" />
    </linearGradient>
    <linearGradient
       id="fitdance"
       x1="0%"
       x2="0%"
       y1="0%"
       y2="100%">
      <stop
         offset="0%"
         style="stop-color:#1AD6AB; stop-opacity:1"
         id="stop5" />
      <stop
         offset="100%"
         style="stop-color:#329DB6; stop-opacity:1"
         id="stop6" />
    </linearGradient>
    <linearGradient
       id="oomox"
       x1="0.83437789"
       x2="0.83437789"
       y1="0"
       y2="15.187363"
       gradientTransform="matrix(0.79012918,0,0,0.85597297,1.3407339,1.5)"
       gradientUnits="userSpaceOnUse">
      <stop
         offset="0%"
         style="stop-color:#303b3d; stop-opacity:1"
         id="stop7" />
      <stop
         offset="100%"
         style="stop-color:#bc985d; stop-opacity:1"
         id="stop8" />
    </linearGradient>
    <linearGradient
       id="rainblue"
       x1="0%"
       x2="0%"
       y1="0%"
       y2="100%">
      <stop
         offset="0%"
         style="stop-color:#00F260; stop-opacity:1"
         id="stop9" />
      <stop
         offset="100%"
         style="stop-color:#0575E6; stop-opacity:1"
         id="stop10" />
    </linearGradient>
    <linearGradient
       id="sunrise"
       x1="0%"
       x2="0%"
       y1="0%"
       y2="100%">
      <stop
         offset="0%"
         style="stop-color: #FF8501; stop-opacity:1"
         id="stop11" />
      <stop
         offset="100%"
         style="stop-color: #FFCB01; stop-opacity:1"
         id="stop12" />
    </linearGradient>
    <linearGradient
       id="telinkrin"
       x1="0%"
       x2="0%"
       y1="0%"
       y2="100%">
      <stop
         offset="0%"
         style="stop-color: #b2ced6; stop-opacity:1"
         id="stop13" />
      <stop
         offset="100%"
         style="stop-color: #6da5b7; stop-opacity:1"
         id="stop14" />
    </linearGradient>
    <linearGradient
       id="60spsycho"
       x1="0%"
       x2="0%"
       y1="0%"
       y2="100%">
      <stop
         offset="0%"
         style="stop-color: #df5940; stop-opacity:1"
         id="stop15" />
      <stop
         offset="25%"
         style="stop-color: #d8d15f; stop-opacity:1"
         id="stop16" />
      <stop
         offset="50%"
         style="stop-color: #e9882a; stop-opacity:1"
         id="stop17" />
      <stop
         offset="100%"
         style="stop-color: #279362; stop-opacity:1"
         id="stop18" />
    </linearGradient>
    <linearGradient
       id="90ssummer"
       x1="0%"
       x2="0%"
       y1="0%"
       y2="100%">
      <stop
         offset="0%"
         style="stop-color: #f618c7; stop-opacity:1"
         id="stop19" />
      <stop
         offset="20%"
         style="stop-color: #94ffab; stop-opacity:1"
         id="stop20" />
      <stop
         offset="50%"
         style="stop-color: #fbfd54; stop-opacity:1"
         id="stop21" />
      <stop
         offset="100%"
         style="stop-color: #0f83ae; stop-opacity:1"
         id="stop22" />
    </linearGradient>
    <linearGradient
       inkscape:collect="always"
       xlink:href="#linearGradient22"
       id="linearGradient2"
       x1="10.367867"
       y1="45.294388"
       x2="37.683239"
       y2="17.774637"
       gradientUnits="userSpaceOnUse"
       gradientTransform="matrix(0.49119626,0,0,0.49119633,-3.759541,-7.4896378)" />
    <linearGradient
       inkscape:collect="always"
       xlink:href="#linearGradient26"
       id="linearGradient3"
       gradientUnits="userSpaceOnUse"
       gradientTransform="matrix(0.49999986,0,0,0.53846129,4.0000133,3.6923071)"
       x1="1.1238592"
       y1="14.717066"
       x2="14.125163"
       y2="1.3246276" />
  </defs>
  <path
     id="circle2"
     style="opacity:0.99;fill:url(#linearGradient2);fill-opacity:1;stroke-width:0.491197"
     d="M 14.499998,7.9999997 A 6.4999991,6.5 0 0 1 7.999999,14.5 6.4999991,6.5 0 0 1 1.5,7.9999997 6.4999991,6.5 0 0 1 7.999999,1.5 6.4999991,6.5 0 0 1 14.499998,7.9999997 Z" />
  <path
     id="circle858"
     style="fill:#1c202f;fill-opacity:1;stroke-width:0.417883"
     d="M 13.529825,7.9999995 A 5.5298258,5.5298267 0 0 1 7.999999,13.529827 5.5298258,5.5298267 0 0 1 2.470173,7.9999995 5.5298258,5.5298267 0 0 1 7.999999,2.470173 5.5298258,5.5298267 0 0 1 13.529825,7.9999995 Z" />
  <path
     fill-rule="evenodd"
     d="M 7.5954582,9.9569225 C 7.5813206,9.7587366 7.5742437,9.560112 7.5746439,9.3614883 c 0,-0.2344994 0.020818,-0.4427505 0.042858,-0.661499 H 6.9332571 c 0.042029,0.1640636 0.066184,0.3696856 0.066184,0.628685 0,0.2585627 -0.024148,0.4641878 -0.066184,0.6282482 z M 5.6709318,9.3286737 c 0,-0.2589994 0.024157,-0.4646208 0.066184,-0.6286844 H 5.052874 c 0.022044,0.2187485 0.042859,0.4269996 0.042859,0.661499 0,0.2344986 -0.00873,0.4248117 -0.020817,0.5954342 H 5.7370962 C 5.6950674,9.7928621 5.6709143,9.587237 5.6709069,9.3286737 Z m 1.9474166,0.9073733 h -0.794948 c -0.1215335,0.204317 -0.2950876,0.279127 -0.4882067,0.279127 -0.1931193,0 -0.3666755,-0.07479 -0.4882081,-0.279127 H 5.0520372 l -0.0075,0.07789 c -0.022897,0.244123 -0.044526,0.474685 -0.044526,0.781373 0,0.227061 0.1664812,0.404687 0.378744,0.404687 h 1.9128733 c 0.2122638,0 0.3787454,-0.177626 0.3787454,-0.404687 0,-0.306688 -0.021639,-0.53725 -0.044526,-0.781373 z M 6.8666854,5.2214351 H 5.8036987 c -0.079075,0 -0.1435877,-0.067802 -0.1435877,-0.1513727 V 4.9304997 C 5.660111,4.6929364 5.8436567,4.5 6.0696567,4.5 h 0.5310709 c 0.2260008,0 0.4095478,0.1929358 0.4095478,0.4304997 v 0.1395627 c 0,0.08356 -0.064093,0.1513727 -0.14359,0.1513727 z M 6.9948765,6.6411195 6.887077,5.4983724 c -0.00707,4.39e-4 -0.013751,0.00226 -0.020409,0.00226 H 5.803686 c -0.00667,0 -0.013325,-0.0016 -0.019973,-0.00226 L 5.6755,6.6411195 C 5.5181704,6.7911809 5,7.3279927 5,7.8836163 5,8.0804909 5.011633,8.2550544 5.026229,8.4208651 H 5.846981 C 5.9685108,8.2161155 6.1420682,8.14174 6.3351882,8.14174 c 0.1931191,0 0.3666728,0.074374 0.4882033,0.2791251 h 0.8211707 c 0.014596,-0.1658107 0.025809,-0.3403742 0.025809,-0.5372488 0,-0.555187 -0.5181721,-1.091997 -0.6754969,-1.2424968 z m 3.9302125,3.315803 c -0.01414,-0.1981859 -0.0212,-0.3968105 -0.02081,-0.5954342 0,-0.2344994 0.02081,-0.4427505 0.04285,-0.661499 H 10.26289 c 0.04204,0.1640629 0.06619,0.3696856 0.06619,0.6286844 0,0.2585633 -0.02417,0.4641884 -0.06619,0.6282488 h 0.662179 z M 9.0005612,9.3286737 c 0,-0.2589988 0.024151,-0.4646215 0.066185,-0.6286844 H 8.3825074 c 0.022044,0.2187485 0.042859,0.4269996 0.042859,0.661499 0,0.2344986 -0.00874,0.4248117 -0.020818,0.5954342 H 9.0667291 C 9.0247009,9.7928621 9.0005544,9.587237 9.0005544,9.3286737 Z m 1.9474158,0.9073733 h -0.79495 c -0.121531,0.204317 -0.295091,0.279127 -0.4882098,0.279127 -0.1931142,0 -0.366671,-0.07479 -0.4882054,-0.279127 H 8.3816642 l -0.0075,0.07789 c -0.022891,0.244123 -0.044545,0.474685 -0.044545,0.781373 0,0.227062 0.1664815,0.404689 0.3787466,0.404689 h 1.9128702 c 0.212266,0 0.378743,-0.177627 0.378743,-0.404689 0,-0.306687 -0.02165,-0.537249 -0.04454,-0.781373 l -0.0078,-0.07789 z M 10.196312,5.2214351 H 9.1333286 c -0.079077,0 -0.1435911,-0.067802 -0.1435911,-0.1513727 V 4.9304997 C 8.9897375,4.6929364 9.1732844,4.5 9.3992829,4.5 h 0.5310726 c 0.2260005,0 0.4095525,0.1929358 0.4095525,0.4304997 v 0.1395627 c 0,0.08356 -0.06406,0.1513727 -0.143596,0.1513727 z M 10.3245,6.6411195 10.21671,5.4983724 c -0.0072,4.39e-4 -0.01376,0.00226 -0.02043,0.00226 H 9.1333221 c -0.00667,0 -0.013325,-0.0016 -0.019974,-0.00226 L 9.005136,6.6411195 C 8.8478079,6.7911809 8.3296359,7.3279927 8.3296359,7.8836163 c 0,0.1968746 0.011633,0.3714381 0.026229,0.5372488 H 9.1766171 C 9.298148,8.2161155 9.4717067,8.14174 9.6648235,8.14174 c 0.1931199,0 0.3666735,0.074374 0.4882075,0.2791251 H 10.9742 C 10.988768,8.2550544 11,8.0804909 11,7.8836163 11,7.3284293 10.481826,6.7916193 10.324496,6.6411195 Z"
     id="path22-3"
     style="isolation:isolate;fill:url(#linearGradient3);stroke-width:0.518876" />
</svg>
