<?xml version="1.0" encoding="UTF-8" standalone="no"?>
<svg
   width="16"
   height="16"
   version="1.1"
   id="svg68"
   sodipodi:docname="pulseeffects.svg"
   inkscape:version="1.3.2 (091e20ef0f, 2023-11-25)"
   xmlns:inkscape="http://www.inkscape.org/namespaces/inkscape"
   xmlns:sodipodi="http://sodipodi.sourceforge.net/DTD/sodipodi-0.dtd"
   xmlns:xlink="http://www.w3.org/1999/xlink"
   xmlns="http://www.w3.org/2000/svg"
   xmlns:svg="http://www.w3.org/2000/svg">
  <sodipodi:namedview
     id="namedview70"
     pagecolor="#ffffff"
     bordercolor="#666666"
     borderopacity="1.0"
     inkscape:showpageshadow="2"
     inkscape:pageopacity="0.0"
     inkscape:pagecheckerboard="0"
     inkscape:deskcolor="#d1d1d1"
     showgrid="false"
     inkscape:zoom="19.666667"
     inkscape:cx="3.559322"
     inkscape:cy="13.830508"
     inkscape:window-width="1920"
     inkscape:window-height="996"
     inkscape:window-x="0"
     inkscape:window-y="0"
     inkscape:window-maximized="1"
     inkscape:current-layer="svg68" />
  <defs
     id="defs32">
    <linearGradient
       id="a"
       y1="536.79999"
       y2="503.79999"
       x2="0"
       gradientUnits="userSpaceOnUse">
      <stop
         stop-color="#2a2c2f"
         id="stop2" />
      <stop
         offset="1"
         stop-color="#424649"
         id="stop4" />
    </linearGradient>
    <linearGradient
       id="b"
       y1="547.79999"
       y2="536.79999"
       x2="0"
       gradientUnits="userSpaceOnUse"
       gradientTransform="matrix(1,0,0,0.54545,0,244)">
      <stop
         stop-color="#c6cdd1"
         id="stop7" />
      <stop
         offset="1"
         stop-color="#e0e5e7"
         id="stop9" />
    </linearGradient>
    <linearGradient
       id="c"
       y1="5.342"
       x1="42.799"
       y2="31.357"
       x2="11.999"
       gradientUnits="userSpaceOnUse">
      <stop
         stop-color="#4ce0c6"
         id="stop12" />
      <stop
         offset="1"
         stop-color="#3b85b5"
         id="stop14" />
    </linearGradient>
    <linearGradient
       id="d"
       y1="22.346001"
       x1="29.855"
       y2="28.506001"
       x2="54.32"
       gradientUnits="userSpaceOnUse">
      <stop
         stop-color="#cc4a5e"
         id="stop17" />
      <stop
         offset="1"
         stop-color="#aa478a"
         id="stop19" />
    </linearGradient>
    <linearGradient
       id="e"
       y1="41.220001"
       x1="24.392"
       y2="25.343"
       x2="20.643"
       gradientUnits="userSpaceOnUse">
      <stop
         stop-color="#334545"
         id="stop22" />
      <stop
         offset="1"
         stop-color="#536161"
         id="stop24" />
    </linearGradient>
    <linearGradient
       xlink:href="#e"
       id="f"
       y1="568.79999"
       x1="431.57001"
       y2="562.79999"
       x2="439.57001"
       gradientUnits="userSpaceOnUse"
       gradientTransform="matrix(-1,0,0,1,839.14,-40)" />
    <linearGradient
       xlink:href="#e"
       id="g"
       y1="40.898998"
       x1="56.029999"
       y2="32.474998"
       x2="40.646999"
       gradientUnits="userSpaceOnUse" />
    <linearGradient
       xlink:href="#e"
       id="h"
       y1="32.150002"
       x1="60.895"
       y2="27.059999"
       x2="53.41"
       gradientUnits="userSpaceOnUse" />
    <linearGradient
       xlink:href="#e"
       id="i"
       y1="36.527"
       x1="33.32"
       y2="31.348"
       x2="24.780001"
       gradientUnits="userSpaceOnUse" />
    <linearGradient
       xlink:href="#e"
       id="j"
       y1="36.764999"
       x1="34"
       y2="49.570999"
       x2="40.25"
       gradientUnits="userSpaceOnUse" />
    <linearGradient
       id="a-3"
       x1="99.036003"
       x2="99.036003"
       y1="-0.50471997"
       y2="199.84"
       gradientTransform="matrix(0.21,0,0,0.21,73.508688,26.72878)"
       gradientUnits="userSpaceOnUse">
      <stop
         stop-color="#4bd2f5"
         offset="0"
         id="stop5318" />
      <stop
         stop-color="#5587ff"
         offset="1"
         id="stop5320" />
    </linearGradient>
    <filter
       id="filter1305"
       x="-0.060002353"
       y="-0.060002353"
       width="1.1200047"
       height="1.1200047"
       color-interpolation-filters="sRGB">
      <feGaussianBlur
         stdDeviation="0.61852427"
         id="feGaussianBlur5323" />
    </filter>
    <filter
       id="filter1030"
       x="-0.061720628"
       y="-0.058451217"
       width="1.1234413"
       height="1.1169024"
       color-interpolation-filters="sRGB">
      <feGaussianBlur
         stdDeviation="0.24897588"
         id="feGaussianBlur5326" />
    </filter>
    <linearGradient
       id="linearGradient958"
       x1="-272.20999"
       x2="-275.5"
       y1="44.527"
       y2="50.384998"
       gradientTransform="matrix(1.0901216,0,0,1.0901216,327.67548,-33.069731)"
       gradientUnits="userSpaceOnUse">
      <stop
         stop-color="#3650ae"
         offset="0"
         id="stop5329" />
      <stop
         stop-color="#388fc9"
         offset="1"
         id="stop5331" />
    </linearGradient>
    <filter
       id="filter1040"
       x="-0.066213407"
       y="-0.054852635"
       width="1.1324269"
       height="1.1097053"
       color-interpolation-filters="sRGB">
      <feGaussianBlur
         stdDeviation="0.2340379"
         id="feGaussianBlur5334" />
    </filter>
    <linearGradient
       id="linearGradient966"
       x1="-272.85999"
       x2="-267.62"
       y1="54.907001"
       y2="49.026001"
       gradientTransform="matrix(1.0901216,0,0,1.0901216,327.67548,-33.069731)"
       gradientUnits="userSpaceOnUse">
      <stop
         stop-color="#3491cb"
         offset="0"
         id="stop5337" />
      <stop
         stop-color="#3850bb"
         offset="1"
         id="stop5339" />
    </linearGradient>
    <filter
       id="filter1046"
       x="-0.047273066"
       y="-0.082104251"
       width="1.0945461"
       height="1.1642085"
       color-interpolation-filters="sRGB">
      <feGaussianBlur
         stdDeviation="0.22334751"
         id="feGaussianBlur5342" />
    </filter>
    <linearGradient
       id="linearGradient974"
       x1="-277.66"
       x2="-270.88"
       y1="59.727001"
       y2="58.222"
       gradientTransform="matrix(1.0901216,0,0,1.0901216,327.67548,-33.069731)"
       gradientUnits="userSpaceOnUse">
      <stop
         stop-color="#2fb1dc"
         offset="0"
         id="stop5345" />
      <stop
         stop-color="#3491cb"
         offset="1"
         id="stop5347" />
    </linearGradient>
    <filter
       id="filter1052"
       x="-0.06167968"
       y="-0.058409125"
       width="1.1233594"
       height="1.1168182"
       color-interpolation-filters="sRGB">
      <feGaussianBlur
         stdDeviation="0.24881069"
         id="feGaussianBlur5350" />
    </filter>
    <linearGradient
       id="linearGradient982"
       x1="-282.60999"
       x2="-278.76001"
       y1="54.153999"
       y2="62.018002"
       gradientTransform="matrix(1.0901216,0,0,1.0901216,327.67548,-33.069731)"
       gradientUnits="userSpaceOnUse">
      <stop
         stop-color="#30add9"
         offset="0"
         id="stop5353" />
      <stop
         stop-color="#329ed2"
         offset="1"
         id="stop5355" />
    </linearGradient>
    <filter
       id="filter1058"
       x="-0.066213585"
       y="-0.054852653"
       width="1.1324272"
       height="1.1097053"
       color-interpolation-filters="sRGB">
      <feGaussianBlur
         stdDeviation="0.23403799"
         id="feGaussianBlur5358" />
    </filter>
    <linearGradient
       id="linearGradient990"
       x1="-286.34"
       x2="-282.53"
       y1="57.278"
       y2="49.414001"
       gradientTransform="matrix(1.0901216,0,0,1.0901216,327.67548,-33.069731)"
       gradientUnits="userSpaceOnUse">
      <stop
         stop-color="#329fd2"
         offset="0"
         id="stop5361" />
      <stop
         stop-color="#2c80c1"
         offset="1"
         id="stop5363" />
    </linearGradient>
    <filter
       id="filter1064"
       x="-0.047273491"
       y="-0.082104266"
       width="1.094547"
       height="1.1642085"
       color-interpolation-filters="sRGB">
      <feGaussianBlur
         stdDeviation="0.22334755"
         id="feGaussianBlur5366" />
    </filter>
    <linearGradient
       id="linearGradient998"
       x1="-281.51001"
       x2="-282.54999"
       y1="43.16"
       y2="49.908001"
       gradientTransform="matrix(1.0901216,0,0,1.0901216,327.67548,-33.069731)"
       gradientUnits="userSpaceOnUse">
      <stop
         stop-color="#3857ba"
         offset="0"
         id="stop5369" />
      <stop
         stop-color="#367dc1"
         offset="1"
         id="stop5371" />
    </linearGradient>
    <filter
       id="filter1103"
       x="-0.059886921"
       y="-0.060124934"
       width="1.1197737"
       height="1.1202499"
       color-interpolation-filters="sRGB">
      <feGaussianBlur
         stdDeviation="0.60007942"
         id="feGaussianBlur5374" />
    </filter>
    <linearGradient
       id="linearGradient1098"
       x1="-272.20999"
       x2="-275.5"
       y1="44.527"
       y2="50.384998"
       gradientTransform="matrix(1.0901216,0,0,1.0901216,327.67548,-33.069731)"
       gradientUnits="userSpaceOnUse">
      <stop
         stop-color="#3851ba"
         offset="0"
         id="stop5377" />
      <stop
         stop-color="#348dc9"
         offset="1"
         id="stop5379" />
    </linearGradient>
    <filter
       id="filter1299"
       x="-0.030470269"
       y="-0.030470269"
       width="1.0609405"
       height="1.0609405"
       color-interpolation-filters="sRGB">
      <feGaussianBlur
         stdDeviation="0.18834042"
         id="feGaussianBlur5382" />
    </filter>
    <linearGradient
       id="linearGradient1227"
       x1="-228.53999"
       x2="-228.53999"
       y1="49.422001"
       y2="52.341999"
       gradientTransform="translate(237.02,-44.947)"
       gradientUnits="userSpaceOnUse">
      <stop
         stop-color="#fff"
         offset="0"
         id="stop5385" />
      <stop
         stop-color="#fff"
         stop-opacity="0"
         offset="1"
         id="stop5387" />
    </linearGradient>
    <filter
       id="filter1229"
       x="-0.069095559"
       y="-0.10709949"
       width="1.1381911"
       height="1.2141989"
       color-interpolation-filters="sRGB">
      <feGaussianBlur
         stdDeviation="0.1347133"
         id="feGaussianBlur5390" />
    </filter>
    <filter
       id="filter561"
       x="-0.069095559"
       y="-0.10709949"
       width="1.1381911"
       height="1.2141989"
       color-interpolation-filters="sRGB">
      <feGaussianBlur
         stdDeviation="0.1347133"
         id="feGaussianBlur559" />
    </filter>
    <filter
       id="filter1251"
       x="-0.20800194"
       y="-0.28363517"
       width="1.4160039"
       height="1.5672703"
       color-interpolation-filters="sRGB">
      <feGaussianBlur
         stdDeviation="0.069956252"
         id="feGaussianBlur5393" />
    </filter>
    <filter
       id="filter1275"
       x="-0.059999753"
       y="-0.059999753"
       width="1.1199995"
       height="1.1199995"
       color-interpolation-filters="sRGB">
      <feGaussianBlur
         stdDeviation="0.04134033"
         id="feGaussianBlur5396" />
    </filter>
    <linearGradient
       id="a-3-3"
       y1="543.79999"
       y2="503.79999"
       x2="0"
       gradientUnits="userSpaceOnUse">
      <stop
         stop-color="#18222a"
         id="stop1833-6" />
      <stop
         offset="1"
         stop-color="#566069"
         id="stop1835-7" />
    </linearGradient>
    <linearGradient
       id="f-5"
       y1="15"
       x1="15"
       y2="36"
       x2="36"
       gradientUnits="userSpaceOnUse">
      <stop
         stop-color="#292c2f"
         id="stop1854-3" />
      <stop
         offset="1"
         stop-opacity="0"
         id="stop1856-5" />
    </linearGradient>
    <linearGradient
       id="b-6"
       y1="539.79999"
       y2="507.79999"
       gradientUnits="userSpaceOnUse"
       x2="0">
      <stop
         stop-color="#2f3943"
         id="stop1838-2" />
      <stop
         offset="1"
         stop-color="#808c9b"
         id="stop1840-9" />
    </linearGradient>
    <linearGradient
       id="e-1"
       y1="536.79999"
       y2="510.79999"
       gradientUnits="userSpaceOnUse"
       x2="0">
      <stop
         stop-color="#2f3943"
         id="stop1849-2" />
      <stop
         offset="1"
         stop-color="#4d5662"
         id="stop1851-7" />
    </linearGradient>
    <linearGradient
       id="d-0"
       xlink:href="#c-9"
       y1="522.79999"
       y2="527.79999"
       gradientUnits="userSpaceOnUse"
       x2="0"
       gradientTransform="translate(8,-12)" />
    <linearGradient
       id="c-9"
       y1="518.79999"
       y2="520.79999"
       gradientUnits="userSpaceOnUse"
       x2="0"
       gradientTransform="translate(8,-12)">
      <stop
         stop-color="#197cf1"
         id="stop1843-3" />
      <stop
         offset="1"
         stop-color="#21c9fb"
         id="stop1845-6" />
    </linearGradient>
    <linearGradient
       id="linearGradient549"
       y1="518.79999"
       y2="520.79999"
       gradientUnits="userSpaceOnUse"
       x2="0"
       gradientTransform="translate(8,-12)">
      <stop
         stop-color="#197cf1"
         id="stop545" />
      <stop
         offset="1"
         stop-color="#21c9fb"
         id="stop547" />
    </linearGradient>
    <filter
       id="filter1305-5"
       x="-0.060002353"
       y="-0.060002353"
       width="1.1200047"
       height="1.1200047"
       color-interpolation-filters="sRGB">
      <feGaussianBlur
         stdDeviation="0.61852427"
         id="feGaussianBlur5323-3" />
    </filter>
  </defs>
  <path
     style="opacity:1;stroke-width:0.999973;fill:#37c871"
     d="m 2.1818185,1.5 c -0.604364,0 -1.0909097,0.483165 -1.0909097,1.083333 v 10.833329 c 0,0.600181 0.4865457,1.083338 1.0909097,1.083338 0.6043629,0 1.0909087,-0.483157 1.0909087,-1.083338 V 2.583333 C 3.2727272,1.983165 2.7861814,1.5 2.1818185,1.5 Z"
     id="path3-3" />
  <path
     style="fill:#ffffff;fill-opacity:1;stroke-width:0.999973"
     d="m 2.1818185,5.833332 c -0.604364,0 -1.0909097,0.4831676 -1.0909097,1.0833326 v 6.4999974 c 0,0.600181 0.4865457,1.083338 1.0909097,1.083338 0.6043629,0 1.0909087,-0.483157 1.0909087,-1.083338 V 6.9166646 c 0,-0.600165 -0.4865458,-1.0833326 -1.0909087,-1.0833326 z"
     id="path4-6" />
  <path
     style="opacity:0.2;stroke-width:0.999973"
     d="M 4.3636369,5.769875 A 2.1818182,2.1666667 0 0 1 2.1818185,7.9365406 2.1818182,2.1666667 0 0 1 0,5.769875 2.1818182,2.1666667 0 0 1 2.1818185,3.603208 2.1818182,2.1666667 0 0 1 4.3636369,5.769875 Z"
     id="path5-7" />
  <path
     style="fill:#999999;fill-opacity:1;stroke-width:0.999973"
     d="M 4.3636369,5.408764 A 2.1818182,2.1666667 0 0 1 2.1818185,7.5754306 2.1818182,2.1666667 0 0 1 0,5.408764 2.1818182,2.1666667 0 0 1 2.1818185,3.242099 2.1818182,2.1666667 0 0 1 4.3636369,5.408764 Z"
     id="path6-5" />
  <path
     style="opacity:1;stroke-width:0.999973;fill:#00aad4;fill-opacity:1"
     d="m 13.818181,1.5 c -0.604364,0 -1.090909,0.483165 -1.090909,1.083333 v 10.833329 c 0,0.600181 0.486545,1.083338 1.090909,1.083338 0.604364,0 1.090909,-0.483157 1.090909,-1.083338 V 2.583333 C 14.90909,1.983165 14.422545,1.5 13.818181,1.5 Z"
     id="path7-3" />
  <path
     style="fill:#ffffff;fill-opacity:1;stroke-width:0.999973"
     d="m 13.818181,8.0707766 c -0.604364,0 -1.090909,0.483167 -1.090909,1.083333 v 4.2625524 c 0,0.600181 0.486545,1.083338 1.090909,1.083338 0.604364,0 1.090909,-0.483157 1.090909,-1.083338 V 9.1541096 c 0,-0.600166 -0.486545,-1.083333 -1.090909,-1.083333 z"
     id="path8-5" />
  <path
     style="opacity:0.2;stroke-width:0.999973"
     d="M 16,7.6388876 A 2.1818182,2.1666667 0 0 1 13.818181,9.805555 2.1818182,2.1666667 0 0 1 11.636363,7.6388876 2.1818182,2.1666667 0 0 1 13.818181,5.472221 2.1818182,2.1666667 0 0 1 16,7.6388876 Z"
     id="path9-6" />
  <path
     style="fill:#999999;fill-opacity:1;stroke-width:0.999973"
     d="M 16,7.2777766 A 2.1818182,2.1666667 0 0 1 13.818181,9.444444 2.1818182,2.1666667 0 0 1 11.636363,7.2777766 2.1818182,2.1666667 0 0 1 13.818181,5.11111 2.1818182,2.1666667 0 0 1 16,7.2777766 Z"
     id="path10-3-2" />
  <path
     style="opacity:1;stroke-width:0.999973;fill:#cd87de"
     d="m 8.0000005,1.5 c -0.604363,0 -1.0909098,0.483165 -1.0909098,1.083333 v 10.833329 c 0,0.600181 0.4865468,1.083338 1.0909098,1.083338 0.6043629,0 1.0909097,-0.483157 1.0909097,-1.083338 V 2.583333 C 9.0909102,1.983165 8.6043634,1.5 8.0000005,1.5 Z"
     id="path11-9" />
  <path
     style="fill:#ffffff;fill-opacity:1;stroke-width:0.999973"
     d="m 8.0000005,10.888888 c -0.604363,0 -1.0909098,0.483167 -1.0909098,1.083332 v 1.444442 c 0,0.600181 0.4865468,1.083338 1.0909098,1.083338 0.6043629,0 1.0909097,-0.483157 1.0909097,-1.083338 V 11.97222 c 0,-0.600165 -0.4865468,-1.083332 -1.0909097,-1.083332 z"
     id="path12-1" />
  <path
     style="opacity:0.2;stroke-width:0.999973"
     d="M 10.181818,10.527777 A 2.1818182,2.1666667 0 0 1 8.0000005,12.694455 2.1818182,2.1666667 0 0 1 5.818183,10.527777 2.1818182,2.1666667 0 0 1 8.0000005,8.3611096 2.1818182,2.1666667 0 0 1 10.181818,10.527777 Z"
     id="path13-2" />
  <path
     style="fill:#999999;fill-opacity:1;stroke-width:0.999973"
     d="M 10.181818,10.166665 A 2.1818182,2.1666667 0 0 1 8.0000005,12.333341 2.1818182,2.1666667 0 0 1 5.818183,10.166665 2.1818182,2.1666667 0 0 1 8.0000005,7.9999996 2.1818182,2.1666667 0 0 1 10.181818,10.166665 Z"
     id="path14-7" />
</svg>
