<?xml version="1.0" encoding="UTF-8" standalone="no"?>
<svg
   width="16px"
   height="16px"
   viewBox="0 0 16 16"
   version="1.1"
   id="svg1"
   sodipodi:docname="harddisk-symbolic.svg"
   inkscape:version="1.4.2 (unknown)"
   xmlns:inkscape="http://www.inkscape.org/namespaces/inkscape"
   xmlns:sodipodi="http://sodipodi.sourceforge.net/DTD/sodipodi-0.dtd"
   xmlns:xlink="http://www.w3.org/1999/xlink"
   xmlns="http://www.w3.org/2000/svg"
   xmlns:svg="http://www.w3.org/2000/svg">
  <defs
     id="defs1">
    <linearGradient
       id="linearGradient1"
       inkscape:collect="always">
      <stop
         style="stop-color:#8d5fd3;stop-opacity:1"
         offset="0"
         id="stop1" />
      <stop
         style="stop-color:#ffd42a;stop-opacity:1"
         offset="1"
         id="stop2" />
    </linearGradient>
    <linearGradient
       inkscape:collect="always"
       xlink:href="#linearGradient1"
       id="linearGradient2"
       x1="3.8178048"
       y1="2.0402129"
       x2="12.255776"
       y2="13.481533"
       gradientUnits="userSpaceOnUse" />
  </defs>
  <sodipodi:namedview
     id="namedview1"
     pagecolor="#ffffff"
     bordercolor="#000000"
     borderopacity="0.25"
     inkscape:showpageshadow="2"
     inkscape:pageopacity="0.0"
     inkscape:pagecheckerboard="0"
     inkscape:deskcolor="#d1d1d1"
     inkscape:zoom="33.45499"
     inkscape:cx="8.8477086"
     inkscape:cy="9.3707995"
     inkscape:current-layer="svg1" />
  <g
     id="surface1"
     transform="matrix(0.81246154,0,0,0.8125,1.5003077,1.5)"
     style="stroke-width:1.23079">
    <path
       d="M 5.492188,0 C 4.234375,0.015625 3.316406,-0.03125 2.5625,0.382812 c -0.375,0.210938 -0.671875,0.5625 -0.835938,1 C 1.558594,1.820312 1.5,2.34375 1.5,3 v 10 c 0,0.65625 0.058594,1.179688 0.226562,1.617188 C 1.890625,15.054688 2.1875,15.40625 2.5625,15.613281 3.316406,16.03125 4.234375,15.984375 5.492188,16 h 5.011718 c 1.261719,-0.01563 2.179688,0.03125 2.933594,-0.386719 0.375,-0.207031 0.671875,-0.558593 0.839844,-0.996093 C 14.441406,14.179688 14.5,13.65625 14.5,13 V 3 C 14.5,2.34375 14.441406,1.820312 14.277344,1.382812 14.109375,0.945312 13.8125,0.59375 13.4375,0.382812 12.683594,-0.03125 11.765625,0.015625 10.503906,0 Z M 5.5,1 h 5 c 1.257812,0.015625 2.085938,0.058594 2.453125,0.261719 0.183594,0.101562 0.289063,0.210937 0.386719,0.472656 C 13.4375,1.996094 13.5,2.40625 13.5,3 v 10 c 0,0.59375 -0.0625,1.003906 -0.160156,1.265625 -0.09766,0.261719 -0.203125,0.371094 -0.386719,0.472656 C 12.585938,14.941406 11.757812,14.984375 10.5,15 h -5 C 4.242188,14.984375 3.410156,14.941406 3.046875,14.738281 2.863281,14.636719 2.757812,14.527344 2.660156,14.265625 2.5625,14.003906 2.5,13.59375 2.5,13 V 3 C 2.5,2.40625 2.5625,1.996094 2.660156,1.734375 2.757812,1.472656 2.863281,1.363281 3.046875,1.261719 3.410156,1.058594 4.242188,1.015625 5.5,1 Z M 8.296875,5.011719 C 7.238281,4.941406 6.15625,5.242188 5.261719,5.929688 3.472656,7.300781 2.972656,9.796875 4.101562,11.75 c 1.128907,1.953125 3.539063,2.769531 5.621094,1.90625 2.082032,-0.859375 3.210938,-3.144531 2.625,-5.320312 L 12.21875,7.851562 11.25,8.109375 11.382812,8.59375 c 0.457032,1.699219 -0.417968,3.464844 -2.042968,4.140625 C 7.714844,13.40625 5.847656,12.773438 4.96875,11.25 4.089844,9.726562 4.472656,7.792969 5.867188,6.722656 7.128906,5.753906 8.851562,5.777344 10.089844,6.703125 L 9.445312,7.347656 10.152344,8.054688 11.535156,6.671875 11.183594,6.320312 C 10.386719,5.519531 9.351562,5.082031 8.296875,5.011719 Z M 8,8 C 7.171875,8 6.5,8.671875 6.5,9.5 6.5,10.328125 7.171875,11 8,11 8.828125,11 9.5,10.328125 9.5,9.5 9.5,8.671875 8.828125,8 8,8 Z M 7.988281,9 C 7.992188,9 7.996094,9 8,9 8.277344,9 8.5,9.222656 8.5,9.5 8.5,9.777344 8.277344,10 8,10 7.722656,10 7.5,9.777344 7.5,9.5 7.5,9.226562 7.714844,9.007812 7.988281,9 Z m 0,0"
       id="path1"
       style="fill:url(#linearGradient2)" />
  </g>
</svg>
