<?xml version="1.0" encoding="UTF-8" standalone="no"?>
<svg
   height="16"
   width="16"
   version="1.1"
   id="svg6"
   sodipodi:docname="flatsweep.svg"
   inkscape:version="1.4 (e7c3feb100, 2024-10-09)"
   xmlns:inkscape="http://www.inkscape.org/namespaces/inkscape"
   xmlns:sodipodi="http://sodipodi.sourceforge.net/DTD/sodipodi-0.dtd"
   xmlns:xlink="http://www.w3.org/1999/xlink"
   xmlns="http://www.w3.org/2000/svg"
   xmlns:svg="http://www.w3.org/2000/svg"
   xmlns:rdf="http://www.w3.org/1999/02/22-rdf-syntax-ns#"
   xmlns:cc="http://creativecommons.org/ns#"
   xmlns:dc="http://purl.org/dc/elements/1.1/">
  <metadata
     id="metadata12">
    <rdf:RDF>
      <cc:Work
         rdf:about="">
        <dc:format>image/svg+xml</dc:format>
        <dc:type
           rdf:resource="http://purl.org/dc/dcmitype/StillImage" />
      </cc:Work>
    </rdf:RDF>
  </metadata>
  <defs
     id="defs10">
    <linearGradient
       id="linearGradient3"
       inkscape:collect="always">
      <stop
         style="stop-color:#ff5555;stop-opacity:1"
         offset="0"
         id="stop3" />
      <stop
         style="stop-color:#a02c5a;stop-opacity:1"
         offset="1"
         id="stop4" />
    </linearGradient>
    <linearGradient
       id="linearGradient1"
       inkscape:collect="always">
      <stop
         style="stop-color:#a02c5a;stop-opacity:1"
         offset="0"
         id="stop1" />
      <stop
         style="stop-color:#ff4c4c;stop-opacity:1;"
         offset="1"
         id="stop2" />
    </linearGradient>
    <marker
       style="overflow:visible"
       id="DotL"
       refX="0"
       refY="0"
       orient="auto"
       inkscape:stockid="DotL"
       inkscape:isstock="true">
      <path
         transform="matrix(0.8,0,0,0.8,5.92,0.8)"
         style="fill:#000000;fill-opacity:1;fill-rule:evenodd;stroke:#000000;stroke-width:1pt;stroke-opacity:1"
         d="m -2.5,-1 c 0,2.76 -2.24,5 -5,5 -2.76,0 -5,-2.24 -5,-5 0,-2.76 2.24,-5 5,-5 2.76,0 5,2.24 5,5 z"
         id="path898" />
    </marker>
    <linearGradient
       inkscape:collect="always"
       xlink:href="#linearGradient1"
       id="linearGradient2"
       x1="4.1206579"
       y1="13.218794"
       x2="5.699604"
       y2="3.5335598"
       gradientUnits="userSpaceOnUse" />
    <filter
       id="c"
       width="1.3100079"
       height="1.2796"
       x="-0.15500394"
       y="-0.1398"
       color-interpolation-filters="sRGB">
      <feGaussianBlur
         stdDeviation="4.66"
         id="feGaussianBlur1" />
    </filter>
    <linearGradient
       inkscape:collect="always"
       xlink:href="#linearGradient3"
       id="linearGradient4"
       x1="13.696918"
       y1="47.669632"
       x2="46.490627"
       y2="11.504236"
       gradientUnits="userSpaceOnUse" />
  </defs>
  <sodipodi:namedview
     pagecolor="#ffffff"
     bordercolor="#666666"
     borderopacity="1"
     objecttolerance="10"
     gridtolerance="10"
     guidetolerance="10"
     inkscape:pageopacity="0"
     inkscape:pageshadow="2"
     inkscape:window-width="1920"
     inkscape:window-height="996"
     id="namedview8"
     showgrid="false"
     inkscape:zoom="45.254832"
     inkscape:cx="9.8994954"
     inkscape:cy="8.794641"
     inkscape:window-x="0"
     inkscape:window-y="0"
     inkscape:window-maximized="1"
     inkscape:current-layer="svg6"
     inkscape:document-rotation="0"
     inkscape:pagecheckerboard="0"
     inkscape:showpageshadow="2"
     inkscape:deskcolor="#d1d1d1" />
  <path
     style="color:#d6dbf1;fill:url(#linearGradient2);fill-opacity:1;stroke-width:0.8125"
     class="ColorScheme-Text "
     d="M 7.9999995,1.500015 C 4.4054998,1.500015 1.5,4.4055149 1.5,8.0000139 c 0,3.5945001 2.9054998,6.5000011 6.4999995,6.5000011 3.5944975,0 6.4999965,-2.905501 6.4999965,-6.5000012 0,-3.5944989 -2.905499,-6.4999988 -6.4999965,-6.4999988 z m 0,0.8124999 c 3.1443765,0 5.6874965,2.543124 5.6874965,5.687499 0,3.1443761 -2.54312,5.6875011 -5.6874965,5.6875011 -3.1443734,0 -5.6874996,-2.543125 -5.6874996,-5.6875012 0,-3.1443749 2.5431262,-5.6874989 5.6874996,-5.6874989 z M 8.609375,6.9592017 v 0 0 0 0 0 c 0,0 -0.027613,0.0065 0,0 z M 7.9748065,10.615454 Z"
     id="path58-9"
     sodipodi:nodetypes="ssssssssssccccccccccccccccc" />
  <g
     id="g5"
     transform="matrix(0.22280222,0,0,0.22280222,1.0354254,0.87032896)">
    <path
       d="M 64,24 V 64 L 98.64,44 Z M 64,64 29.36,44 V 84 L 64,104 Z m 19.721,1.11 c -0.89,0.514 -1.78,1.944 -1.78,2.861 v 2.75 l -6.226,3.596 c -0.493,0.284 -0.89,0.922 -0.89,1.43 v 1.834 c 0,0.508 0.397,0.687 0.89,0.403 l 2.669,-1.54 v 17.418 c 0,0.917 0.89,1.32 1.779,0.806 l 16.012,-9.244 c 0.89,-0.514 1.78,-1.944 1.78,-2.861 V 65.144 l 2.668,-1.54 c 0.493,-0.285 0.89,-0.923 0.89,-1.431 v -1.834 c 0,-0.508 -0.397,-0.687 -0.89,-0.403 l -6.227,3.595 v -2.75 c 0,-0.917 -0.89,-1.32 -1.78,-0.807 z m 1.78,1.724 5.337,-3.082 c 0.446,-0.258 0.89,-0.052 0.89,0.403 v 0.917 l -7.117,4.109 v -0.917 c 0,-0.46 0.445,-1.174 0.89,-1.43 m -3.56,7.555 12.455,-7.19 v 15.585 l -12.454,7.19 z m 4.004,0.439 c -0.74,0.427 -1.334,1.384 -1.334,2.145 v 7.335 c 0,0.762 0.595,1.031 1.334,0.605 0.74,-0.427 1.334,-1.384 1.334,-2.146 v -7.334 c 0,-0.762 -0.595,-1.032 -1.334,-0.605 m 4.448,-2.568 c -0.74,0.427 -1.335,1.384 -1.335,2.146 v 7.334 c 0,0.762 0.596,1.031 1.335,0.605 0.739,-0.427 1.334,-1.384 1.334,-2.146 v -7.334 c 0,-0.762 -0.595,-1.032 -1.334,-0.605"
       id="path4"
       transform="matrix(0.56998,0,0,0.56998,-5.22,-4.479)"
       style="opacity:0.15;fill:#050000;filter:url(#c)" />
    <path
       d="M 31.259,9.2 V 32 L 51.003,20.6 Z m 0,22.8 L 11.515,20.6 V 43.4 L 31.259,54.799 Z M 42.5,32.632 c -0.508,0.293 -1.015,1.108 -1.015,1.631 v 1.568 l -3.549,2.05 c -0.281,0.161 -0.507,0.525 -0.507,0.814 v 1.046 c 0,0.29 0.226,0.391 0.507,0.23 l 1.521,-0.878 v 9.927 c 0,0.523 0.508,0.753 1.014,0.46 l 9.127,-5.269 c 0.507,-0.293 1.014,-1.108 1.014,-1.63 v -9.93 l 1.521,-0.877 c 0.281,-0.162 0.507,-0.526 0.507,-0.816 v -1.045 c 0,-0.29 -0.226,-0.392 -0.507,-0.23 l -3.55,2.05 v -1.568 c 0,-0.523 -0.506,-0.752 -1.014,-0.46 z m 1.014,0.983 3.042,-1.757 c 0.254,-0.147 0.507,-0.03 0.507,0.23 v 0.523 l -4.056,2.342 V 34.43 c 0,-0.262 0.253,-0.669 0.507,-0.815 m -2.03,4.306 7.1,-4.098 v 8.883 l -7.099,4.098 z m 2.283,0.25 c -0.422,0.244 -0.76,0.79 -0.76,1.223 v 4.18 c 0,0.435 0.339,0.589 0.76,0.346 0.422,-0.244 0.76,-0.79 0.76,-1.223 v -4.18 c 0,-0.435 -0.339,-0.589 -0.76,-0.346 m 2.535,-1.463 c -0.422,0.243 -0.76,0.789 -0.76,1.223 v 4.18 c 0,0.434 0.339,0.588 0.76,0.345 0.421,-0.243 0.76,-0.789 0.76,-1.223 v -4.18 c 0,-0.435 -0.339,-0.589 -0.76,-0.345"
       id="path5"
       style="fill:url(#linearGradient4)" />
  </g>
</svg>
