<?xml version="1.0" encoding="UTF-8" standalone="no"?>
<svg
   width="16"
   height="16"
   version="1.1"
   id="svg5"
   sodipodi:docname="freefilesync.svg"
   inkscape:version="1.4 (unknown)"
   xmlns:inkscape="http://www.inkscape.org/namespaces/inkscape"
   xmlns:sodipodi="http://sodipodi.sourceforge.net/DTD/sodipodi-0.dtd"
   xmlns:xlink="http://www.w3.org/1999/xlink"
   xmlns="http://www.w3.org/2000/svg"
   xmlns:svg="http://www.w3.org/2000/svg">
  <defs
     id="defs5">
    <linearGradient
       inkscape:collect="always"
       xlink:href="#linearGradient1-3"
       id="linearGradient8-5"
       x1="27.50861"
       y1="44"
       x2="28.032005"
       y2="12.000811"
       gradientUnits="userSpaceOnUse"
       gradientTransform="matrix(0.40618114,0,0,0.40625001,-3.3730719,-3.3750001)" />
    <linearGradient
       id="linearGradient1-3"
       inkscape:collect="always">
      <stop
         style="stop-color:#00b248;stop-opacity:1;"
         offset="0"
         id="stop1-6" />
      <stop
         style="stop-color:#00ff67;stop-opacity:1;"
         offset="1"
         id="stop8-3" />
    </linearGradient>
  </defs>
  <sodipodi:namedview
     id="namedview5"
     pagecolor="#ffffff"
     bordercolor="#000000"
     borderopacity="0.25"
     inkscape:showpageshadow="2"
     inkscape:pageopacity="0.0"
     inkscape:pagecheckerboard="0"
     inkscape:deskcolor="#d1d1d1"
     inkscape:zoom="11.6875"
     inkscape:cx="31.957219"
     inkscape:cy="12.449198"
     inkscape:window-width="1920"
     inkscape:window-height="996"
     inkscape:window-x="0"
     inkscape:window-y="0"
     inkscape:window-maximized="1"
     inkscape:current-layer="svg5" />
  <path
     d="m 8.013,1.5003294 c 1.367499,0.00301 2.754149,0.4292677 3.8373,1.2730158 0.76145,0.8773489 -0.68945,1.816958 -1.342901,0.9614629 C 8.54025,2.5443063 5.765949,2.9634775 4.285899,4.7433291 3.49845,5.6265788 3.0548,6.8052286 3.06,7.9884293 h 1.3 L 2.279999,11.108958 0.2,7.9884293 H 1.5 C 1.4585,5.1634505 3.49,2.475995 6.2175,1.7443707 6.8025,1.5838435 7.4055,1.4938282 8.013,1.5003294 Z m 5.707,3.380573 2.08,3.120529 H 14.499999 C 14.536853,10.860366 12.4535,13.577877 9.67835,14.270994 7.80575,14.794033 5.688299,14.412369 4.149349,13.215766 3.3641,12.323765 4.83515,11.393207 5.4947,12.256553 7.40065,13.413099 10.06965,13.046287 11.574199,11.394407 12.4452,10.496755 12.9462,9.2525437 12.9397,8.0013314 H 11.639699 L 13.7197,4.8808025 Z"
     id="path318"
     style="fill:url(#linearGradient8-5);fill-opacity:1;stroke-width:0.406216" />
</svg>
