<?xml version="1.0" encoding="UTF-8" standalone="no"?>
<svg
   width="16"
   height="16"
   version="1.1"
   id="svg16"
   sodipodi:docname="ibus-typing-booster.svg"
   inkscape:version="1.4 (e7c3feb100, 2024-10-09)"
   xmlns:inkscape="http://www.inkscape.org/namespaces/inkscape"
   xmlns:sodipodi="http://sodipodi.sourceforge.net/DTD/sodipodi-0.dtd"
   xmlns="http://www.w3.org/2000/svg"
   xmlns:svg="http://www.w3.org/2000/svg">
  <defs
     id="defs16" />
  <sodipodi:namedview
     id="namedview16"
     pagecolor="#ffffff"
     bordercolor="#000000"
     borderopacity="0.25"
     inkscape:showpageshadow="2"
     inkscape:pageopacity="0.0"
     inkscape:pagecheckerboard="0"
     inkscape:deskcolor="#d1d1d1"
     inkscape:zoom="33.234019"
     inkscape:cx="7.0710678"
     inkscape:cy="7.7029505"
     inkscape:window-width="1920"
     inkscape:window-height="998"
     inkscape:window-x="0"
     inkscape:window-y="0"
     inkscape:window-maximized="1"
     inkscape:current-layer="svg16" />
  <g
     id="g16"
     transform="matrix(0.23636364,0,0,0.23214286,0.55454616,0.57112946)">
    <path
       style="opacity:0.2;stroke-width:0.982314"
       d="m 8.2368384,30.238514 c -0.5316948,0.459608 -0.3418037,1.280345 0.3092514,1.373357 1.8012552,0.257164 5.4200332,0.08751 7.6878742,2.37466 2.213589,2.232399 2.674751,5.394959 2.674751,5.394959 L 25.45182,25.4126 c 0,0 -3.461446,-1.636 -8.496269,-0.317357 -3.472292,0.913757 -6.91746,3.578401 -8.7187126,5.143271 z"
       id="path1" />
    <path
       style="opacity:0.2;stroke-width:0.982314"
       d="m 33.77058,55.800611 c -0.542546,0.443201 -1.269555,0.344713 -1.361786,-0.311878 -0.255002,-1.816558 -0.0868,-5.466089 -2.354651,-7.753202 -2.213588,-2.232393 -5.810665,-2.560689 -5.810665,-2.560689 l 13.54194,-6.730019 c 0,0 2.549966,3.966879 1.144772,9.613534 -1.171894,4.667237 -3.173891,6.106263 -5.15961,7.742254 z"
       id="path2" />
    <path
       style="opacity:0.2;stroke-width:0.982314"
       d="m 8.6767425,47.367451 c -4.4380254,4.475737 -4.6767461,12.633837 -4.6767461,12.633837 0,0 8.0839306,-0.240748 12.5273856,-4.716489 4.443455,-4.475731 6.282682,-9.876168 4.112499,-12.059317 -2.170187,-2.188626 -7.525113,-0.333765 -11.9631385,4.141969 z"
       id="path3" />
    <path
       style="fill:#ffd800;stroke-width:0.982314"
       d="M 8.6767425,46.385021 C 4.2387171,50.860751 3.9999964,59.01885 3.9999964,59.01885 c 0,0 8.0839306,-0.240747 12.5273856,-4.716481 4.443455,-4.475739 6.282682,-9.876167 4.112499,-12.059324 -2.170187,-2.188626 -7.525113,-0.333766 -11.9631385,4.141976 z"
       id="path4" />
    <path
       style="fill:#ff562e;stroke-width:0.982314"
       d="m 9.6959598,48.317792 c -2.7941114,2.817861 -2.9460248,7.950186 -2.9460248,7.950186 0,0 5.089081,-0.153209 7.883194,-2.97106 2.794114,-2.817854 3.955161,-6.221168 2.587944,-7.594526 -1.367217,-1.373366 -4.725579,-0.207922 -7.5251132,2.6154 z"
       id="path5" />
    <path
       style="opacity:0.1;stroke-width:0.982314"
       d="m 14.632992,49.747942 c 2.658472,2.861625 6.147042,2.560689 6.434597,2.090131 l 3.805253,-5.221407 c 0.146497,-0.240745 0.0108,-0.623755 -0.09223,-0.722244 l -6.559384,-6.752276 c -0.103082,-0.103964 -0.466584,-0.224334 -0.705309,-0.07658 l -5.324387,3.826528 c -0.461162,0.289992 -0.982009,3.162566 2.44146,6.855872 z"
       id="path6" />
    <path
       style="fill:#546e7a;stroke-width:0.982314"
       d="m 14.632992,48.765503 c 2.658472,2.861627 6.147042,2.56069 6.434597,2.09014 l 3.805253,-5.221409 c 0.146497,-0.240751 0.0108,-0.623761 -0.09223,-0.722249 l -6.559374,-6.752272 c -0.103082,-0.103964 -0.466584,-0.224339 -0.705309,-0.07658 l -5.324387,3.826527 c -0.461162,0.289993 -0.982009,3.16256 2.44146,6.855864 z"
       id="path7" />
    <path
       style="fill:#0292e1;stroke-width:0.982314"
       d="m 33.77058,54.818181 c -0.542546,0.443194 -1.269555,0.344706 -1.361786,-0.311881 -0.255002,-1.816562 -0.0868,-5.466093 -2.354651,-7.7532 -2.213588,-2.2324 -5.810665,-2.560696 -5.810665,-2.560696 l 13.54194,-6.730019 c 0,0 2.549966,3.966881 1.144772,9.613534 -1.171894,4.667245 -3.173891,6.106262 -5.15961,7.742262 z"
       id="path8" />
    <path
       style="fill:#0292e1;stroke-width:0.982314"
       d="m 8.2368384,29.256076 c -0.5316948,0.45961 -0.3418037,1.280348 0.3092514,1.373366 1.8012552,0.257164 5.4200332,0.08751 7.6878742,2.374651 2.213589,2.232401 2.674751,5.394959 2.674751,5.394959 l 6.543105,-13.96889 c 0,0 -3.461446,-1.636 -8.496269,-0.317349 -3.472292,0.913749 -6.91746,3.578401 -8.7187126,5.143263 z"
       id="path9" />
    <path
       style="opacity:0.2;fill:#ffffff;stroke-width:0.982314"
       d="m 20.408693,23.603536 c -1.032538,0.03204 -2.194144,0.176931 -3.452846,0.506588 -3.472299,0.913757 -6.919108,3.581636 -8.7203564,5.146498 -0.3764549,0.32542 -0.3854586,0.829068 -0.1304407,1.130237 0.03842,-0.05087 0.078424,-0.100874 0.1304407,-0.145841 1.8012484,-1.564862 5.2480574,-4.232741 8.7203564,-5.146491 1.258702,-0.329664 2.420308,-0.474525 3.452846,-0.506595 2.296471,-0.07128 3.950278,0.412541 4.657504,0.669697 l 0.387487,-0.828961 c 0,0 -1.947399,-0.921309 -5.044991,-0.825132 z"
       id="path10" />
    <path
       style="opacity:0.2;stroke-width:0.982314"
       d="m 56.735293,4.9836147 c -0.264481,0.0018 -0.553495,0.02037 -0.87087,0.057565 -6.733387,0.7864397 -9.398328,1.297146 -13.289325,2.8859661 -3.831004,1.4731371 -8.5549,4.3140702 -11.282881,7.0498902 -10.868872,10.900134 -16.852749,24.386806 -11.628158,29.097602 0.31746,0.285995 0.669203,0.517766 1.024321,0.771381 6.090879,4.322284 17.86468,-1.782906 28.523713,-12.472592 2.609605,-2.617108 5.310118,-7.208799 6.725223,-10.937502 1.793797,-4.628301 2.52956,-7.766946 3.019259,-13.1710583 0.218902,-2.3945227 -0.369932,-3.293675 -2.221282,-3.281252 z"
       id="path11" />
    <path
       style="fill:#bebebe;stroke-width:0.982314"
       d="m 42.576951,6.9461106 c 2.179155,1.003675 4.938667,2.7760512 7.741972,5.5874214 0.990039,0.992885 1.834803,2.007347 2.566567,3.000231 1.415104,1.915625 2.41686,3.490007 3.051774,4.91998 -1.415105,3.728704 -4.117138,8.322064 -6.726752,10.939169 C 38.551487,42.0826 26.778663,48.185593 20.687784,43.863314 20.332669,43.609697 19.982923,43.377662 19.665464,43.091671 14.440872,38.380872 20.424135,24.896005 31.293013,13.99588 34.020994,11.260052 38.745944,8.419247 42.576951,6.9461106 Z"
       id="path12" />
    <path
       style="fill:#e53935;stroke-width:0.982314"
       d="M 42.576951,6.9461106 C 41.592225,11.797591 50.172639,21.298635 55.937264,20.453743 57.731061,15.825434 58.465614,12.68499 58.955312,7.280879 59.205485,4.544282 58.401739,3.763156 55.862744,4.0607284 49.129357,4.8471674 46.467945,5.3572905 42.576951,6.9461106 Z"
       id="path13" />
    <circle
       style="opacity:0.1;stroke-width:0.982314"
       cx="9.0303478"
       cy="45.248058"
       r="4.9115548"
       transform="matrix(0.706986,-0.70722754,0.706986,0.70722754,0,0)"
       id="circle13" />
    <circle
       style="fill:#455a64;stroke-width:0.982314"
       cx="9.7248459"
       cy="44.553562"
       r="4.9115548"
       transform="matrix(0.706986,-0.70722754,0.706986,0.70722754,0,0)"
       id="circle14" />
    <circle
       style="opacity:0.1;stroke-width:0.982314"
       cx="-4.1669936"
       cy="45.249054"
       r="3.4380872"
       transform="matrix(0.70698598,-0.70722756,0.70698603,0.70722751,0,0)"
       id="circle15" />
    <circle
       style="fill:#455a64;stroke-width:0.982314"
       cx="-3.4725008"
       cy="44.553562"
       r="3.4380872"
       transform="matrix(0.70698598,-0.70722756,0.70698603,0.70722751,0,0)"
       id="circle16" />
    <path
       style="opacity:0.2;fill:#ffffff;stroke-width:0.982314"
       d="m 56.734546,4.0019411 c -0.264478,0.0018 -0.553507,0.020372 -0.870881,0.057565 -6.733386,0.7864402 -9.396712,1.2972107 -13.287703,2.8860307 -3.831011,1.4731362 -8.555153,4.3142232 -11.283136,7.0500502 -8.326658,8.350601 -13.743144,18.191001 -13.49103,24.46793 0.303691,-6.290393 5.588582,-15.560273 13.49103,-23.485449 2.727983,-2.735829 7.452125,-5.5769164 11.283136,-7.0500528 3.890991,-1.5888201 6.554317,-2.0995906 13.287703,-2.8860303 0.317374,-0.037202 0.606403,-0.055786 0.870881,-0.057565 1.459273,-0.00977 2.125386,0.5599836 2.238595,1.9687945 0.130534,-2.1353004 -0.479377,-2.963078 -2.238595,-2.9512733 z"
       id="path16" />
  </g>
</svg>
