<?xml version="1.0" encoding="UTF-8" standalone="no"?>
<svg
   width="16"
   height="16"
   version="1.1"
   id="svg6"
   sodipodi:docname="ibus-setup-hangul.svg"
   inkscape:version="1.4 (e7c3feb100, 2024-10-09)"
   xmlns:inkscape="http://www.inkscape.org/namespaces/inkscape"
   xmlns:sodipodi="http://sodipodi.sourceforge.net/DTD/sodipodi-0.dtd"
   xmlns="http://www.w3.org/2000/svg"
   xmlns:svg="http://www.w3.org/2000/svg">
  <defs
     id="defs6" />
  <sodipodi:namedview
     id="namedview6"
     pagecolor="#ffffff"
     bordercolor="#000000"
     borderopacity="0.25"
     inkscape:showpageshadow="2"
     inkscape:pageopacity="0.0"
     inkscape:pagecheckerboard="0"
     inkscape:deskcolor="#d1d1d1"
     inkscape:zoom="32"
     inkscape:cx="9.3125"
     inkscape:cy="11.90625"
     inkscape:window-width="1920"
     inkscape:window-height="998"
     inkscape:window-x="0"
     inkscape:window-y="0"
     inkscape:window-maximized="1"
     inkscape:current-layer="svg6"
     showguides="false" />
  <g
     id="g6"
     transform="matrix(0.23968493,0,0,0.2358277,0.35858912,0.55671338)">
    <path
       style="fill:#f6d32d;fill-rule:evenodd;stroke-width:0.982301"
       d="M 38.656977,7.1237453 C 38.04516,7.1026733 37.439906,7.1040373 36.846917,7.1264753 31.170014,7.340863 24.425066,11.065672 22.122496,16.494579 19.522524,22.6247 17.75,31.50886 31.502677,31.50886 c 3.634612,-6.251861 13.131506,-4.9841 17.139161,0.333113 3.549226,4.708991 3.356449,11.115229 0.703612,16.139881 -2.216841,4.198847 -5.95529,8.371935 -10.959717,10.159956 11.857785,-3.053907 20.614259,-13.823407 20.614259,-26.63295 0,-7.452868 -2.967032,-14.228654 -7.785404,-19.183572 C 50.981839,12.123855 50.726869,11.943227 50.48412,11.750369 47.029929,9.1018371 42.692589,7.2627614 38.656977,7.1237453 Z"
       id="path2" />
    <path
       style="fill:#3584e4;fill-rule:evenodd;stroke-width:0.982301"
       d="M 30.925288,4.0054706 C 26.43967,4.0958705 21.914451,5.286732 17.755368,7.6885231 11.302456,11.414951 6.9202342,17.373282 5.0393065,24.024511 c -0.052474,0.27349 -0.080135,0.559581 -0.1235354,0.838154 -0.6818594,4.998053 0.987055,10.023787 3.3999018,13.861817 3.0240771,4.81026 8.4755881,8.182737 14.3273891,7.46281 6.607624,-0.812907 12.455359,-8.40417 8.859615,-14.678477 C 24.272328,31.486305 20.623169,22.624656 23.223142,16.494534 25.52571,11.065626 31.170014,8.0291718 36.846917,7.8147837 41.590824,7.635646 47.072949,8.7876091 51.123286,12.228537 45.765126,6.7632151 38.401319,3.8548052 30.925288,4.0054706 Z"
       id="path3" />
    <path
       style="opacity:0.2;fill-rule:evenodd;stroke-width:0.982301"
       d="m 38.656977,7.8108455 c -0.611818,-0.021072 -1.217841,-0.018556 -1.810823,0.00381 -5.67691,0.2143845 -11.320825,3.2500705 -13.623395,8.6789855 -0.611647,1.44211 -0.864399,3.036393 -0.819093,4.630198 0.06689,-1.260525 0.333336,-2.502458 0.819093,-3.647748 2.30257,-5.428899 7.946485,-8.4645874 13.623395,-8.6789755 C 41.59006,8.6179842 47.073333,9.7695635 51.123668,13.210491 49.726094,11.784985 48.18935,10.537444 46.55248,9.4687372 44.006274,8.4088178 41.26659,7.9007399 38.656977,7.8108455 Z M 4.7845631,27.371663 c -0.1970899,4.482475 1.3645181,8.887475 3.5314936,12.334404 3.0240743,4.81026 8.4755913,8.182355 14.3273933,7.462429 5.407781,-0.665299 10.297252,-5.869373 9.926924,-11.177332 -0.247713,4.951354 -4.854059,9.570783 -9.926924,10.194881 C 16.791648,46.905966 11.340131,43.533878 8.3160567,38.723609 6.3079378,35.529369 4.835798,31.510619 4.7845631,27.371663 Z"
       id="path4" />
    <path
       style="opacity:0.2;fill-rule:evenodd;stroke-width:0.982301"
       d="m 22.403666,21.121949 c -0.291264,5.486576 3.21873,11.350917 9.098248,11.369222 3.634606,-6.251861 13.131887,-4.983329 17.139542,0.333883 1.741934,2.311135 2.577431,5.031587 2.668283,7.79631 0.09453,-3.098158 -0.720153,-6.19406 -2.668283,-8.778768 C 44.633801,26.525384 35.13652,25.256854 31.501914,31.508713 25.971978,31.491493 22.550237,26.303801 22.403666,21.121949 Z M 58.98848,32.04216 c -0.204315,10.700185 -6.521822,19.892141 -15.604942,24.254333 -1.486254,1.187024 -3.154774,2.170177 -4.997036,2.828396 11.857786,-3.053906 20.61349,-13.824177 20.61349,-26.633718 0,-0.150552 -0.0093,-0.299022 -0.01152,-0.449011 z"
       id="path5" />
    <path
       style="opacity:0.2;fill:#ffffff;fill-rule:evenodd;stroke-width:0.982301"
       d="M 30.924518,4.0057544 C 26.438906,4.096154 21.914833,5.2862478 17.755749,7.6880387 11.302838,11.414467 6.9206184,17.373948 5.0396899,24.02518 c -0.052471,0.273491 -0.081287,0.558041 -0.1246862,0.836622 -0.1144039,0.838583 -0.1408538,1.675457 -0.1304406,2.509861 0.022329,-0.508834 0.060925,-1.01787 0.1304406,-1.527412 0.043402,-0.278574 0.072212,-0.563123 0.1246862,-0.83662 C 6.9206184,18.356399 11.302838,12.396918 17.755749,8.6704933 21.914833,6.2687025 26.438906,5.0786084 30.924518,4.9882093 38.40055,4.8375431 45.765507,7.7451851 51.123668,13.210503 50.514058,12.692615 49.868664,12.232949 49.201581,11.8155 c 0.43856,0.293359 0.868201,0.598927 1.283309,0.917213 0.242741,0.19286 0.496186,0.374251 0.728936,0.575656 4.721031,4.854821 7.657619,11.458763 7.774654,18.733791 C 58.99188,31.864337 59,31.68734 59,31.508713 c 0,-7.452868 -2.967802,-14.227882 -7.786166,-19.1828 -0.23275,-0.201399 -0.486195,-0.382791 -0.728936,-0.575656 -0.415108,-0.318288 -0.844749,-0.623854 -1.283309,-0.917212 0.667083,0.417452 1.312477,0.87712 1.922087,1.395008 C 45.765507,6.762731 38.40055,3.855089 30.924518,4.0057544 Z M 51.309739,40.621364 c -0.0777,2.546258 -0.767562,5.094053 -1.964289,7.360725 -2.216841,4.198848 -5.954518,8.372324 -10.958948,10.160345 1.7419,-0.448616 3.406941,-1.08229 4.997036,-1.845941 2.551091,-2.037463 4.561146,-4.678808 5.961912,-7.331947 1.350838,-2.558582 2.058544,-5.47474 1.964289,-8.343182 z"
       id="path6" />
  </g>
</svg>
