<?xml version="1.0" encoding="UTF-8" standalone="no"?>
<!-- Generator: Gravit.io -->

<svg
   style="isolation:isolate"
   viewBox="0 0 16 16"
   width="16pt"
   height="16pt"
   version="1.1"
   id="svg4"
   sodipodi:docname="burner.svg"
   inkscape:version="1.4 (unknown)"
   xmlns:inkscape="http://www.inkscape.org/namespaces/inkscape"
   xmlns:sodipodi="http://sodipodi.sourceforge.net/DTD/sodipodi-0.dtd"
   xmlns:xlink="http://www.w3.org/1999/xlink"
   xmlns="http://www.w3.org/2000/svg"
   xmlns:svg="http://www.w3.org/2000/svg">
  <defs
     id="defs4">
    <linearGradient
       id="linearGradient1"
       inkscape:collect="always">
      <stop
         style="stop-color:#00ccff;stop-opacity:1"
         offset="0"
         id="stop7" />
      <stop
         style="stop-color:#ff0066;stop-opacity:1"
         offset="1"
         id="stop8" />
    </linearGradient>
    <linearGradient
       id="linearGradient7"
       x1="0.62099254"
       y1="0.043614805"
       x2="0.4883253"
       y2="0.96253371"
       gradientTransform="matrix(3.9091276,0,0,5.1170212,9.859553,8.9868935)"
       gradientUnits="userSpaceOnUse">
      <stop
         offset="0%"
         stop-opacity="1"
         style="stop-color:#00ccff;stop-opacity:1"
         id="stop5" />
      <stop
         offset="100%"
         stop-opacity="1"
         style="stop-color:rgb(250,0,117)"
         id="stop6" />
    </linearGradient>
    <linearGradient
       inkscape:collect="always"
       xlink:href="#linearGradient1"
       id="linearGradient8"
       x1="6.4804139"
       y1="2.8253169"
       x2="11.054156"
       y2="13.079593"
       gradientUnits="userSpaceOnUse" />
    <linearGradient
       id="paint0_linear_616_43"
       x1="34.890671"
       y1="103.66503"
       x2="69.666962"
       y2="29.333424"
       gradientUnits="userSpaceOnUse"
       gradientTransform="matrix(0.07142852,0,0,0.07142852,6.936428,6.395573)">
      <stop
         stop-color="#FD0F00"
         id="stop1-5"
         offset="0"
         style="stop-color:#ff0066;stop-opacity:1;" />
      <stop
         offset="1"
         stop-color="#FFE539"
         id="stop2-4"
         style="stop-color:#00ccff;stop-opacity:1;" />
    </linearGradient>
  </defs>
  <sodipodi:namedview
     id="namedview4"
     pagecolor="#ffffff"
     bordercolor="#000000"
     borderopacity="0.25"
     inkscape:showpageshadow="2"
     inkscape:pageopacity="0.0"
     inkscape:pagecheckerboard="0"
     inkscape:deskcolor="#d1d1d1"
     inkscape:document-units="pt"
     inkscape:zoom="16.948466"
     inkscape:cx="10.000905"
     inkscape:cy="3.6876494"
     inkscape:window-width="1920"
     inkscape:window-height="998"
     inkscape:window-x="0"
     inkscape:window-y="0"
     inkscape:window-maximized="1"
     inkscape:current-layer="svg4" />
  <linearGradient
     id="_lgradient_14"
     x1="0.62099254"
     y1="0.043614805"
     x2="0.4883253"
     y2="0.96253371"
     gradientTransform="matrix(3.9091276,0,0,5.1170212,9.859553,8.9868935)"
     gradientUnits="userSpaceOnUse">
    <stop
       offset="0%"
       stop-opacity="1"
       style="stop-color:rgb(255,224,49)"
       id="stop1" />
    <stop
       offset="100%"
       stop-opacity="1"
       style="stop-color:rgb(250,0,117)"
       id="stop2" />
  </linearGradient>
  <linearGradient
     id="_lgradient_15"
     x1="0.061897106"
     y1="0.14716151"
     x2="0.99042481"
     y2="0.98658085"
     gradientTransform="matrix(13,0,0,13,1.5,1.5)"
     gradientUnits="userSpaceOnUse"
     xlink:href="#_lgradient_14">
    <stop
       offset="0%"
       stop-opacity="1"
       style="stop-color:rgb(22,181,228)"
       id="stop3" />
    <stop
       offset="98.26086956521739%"
       stop-opacity="1"
       style="stop-color:rgb(245,32,250)"
       id="stop4" />
  </linearGradient>
  <path
     d="m 8.799362,13.335532 v 0 c 0.302319,-0.04592 0.58417,0.162362 0.629255,0.464681 v 0 c 0.04509,0.302319 -0.163744,0.583617 -0.466064,0.627872 v 0 C 8.644468,14.475106 8.320851,14.5 8,14.5 6.276809,14.5 4.622766,13.814043 3.402979,12.597021 2.185958,11.377234 1.5,9.7231915 1.5,8 1.5,6.2768085 2.185958,4.622766 3.402979,3.4029787 4.622766,2.1859574 6.276809,1.5 8,1.5 9.723192,1.5 11.377234,2.1859574 12.597021,3.4029787 13.814043,4.622766 14.5,6.2768085 14.5,8 c 0,0.4702128 -0.04979,0.9404255 -0.152128,1.4023404 v 0 c -0.06555,0.297617 -0.360681,0.4859787 -0.658298,0.4204256 v 0 C 13.391957,9.7572128 13.202213,9.4620851 13.266383,9.1644681 v 0 C 13.352128,8.782766 13.393617,8.392766 13.393617,8 13.393617,6.57 12.82383,5.1980851 11.814255,4.1857447 10.801915,3.1761702 9.43,2.606383 8,2.606383 6.57,2.606383 5.198085,3.1761702 4.185745,4.1857447 3.17617,5.1980851 2.606383,6.57 2.606383,8 c 0,1.43 0.569787,2.801915 1.579362,3.814255 C 5.198085,12.82383 6.57,13.393617 8,13.393617 c 0.268298,0 0.53383,-0.01936 0.799362,-0.05809 v 0 z M 6.83,12.124043 v 0 c 0.146596,0.04287 0.231511,0.196383 0.189468,0.342978 v 0 c -0.04204,0.146596 -0.195,0.232064 -0.341595,0.190851 v 0 C 5.665532,12.370213 4.772128,11.758936 4.138724,10.918085 3.502553,10.077234 3.159575,9.0538298 3.159575,8 c 0,-0.6804255 0.14383,-1.3553191 0.423191,-1.9776596 v 0 C 3.643896,5.8834894 3.806809,5.8207021 3.94649,5.8826596 v 0 c 0.13968,0.061957 0.202191,0.2259787 0.13968,0.3664893 v 0 C 3.84,6.7995745 3.712766,7.3970213 3.712766,8 c 0,0.9321277 0.304256,1.8393617 0.865745,2.58617 C 5.14,11.330213 5.931064,11.869574 6.83,12.124043 Z M 8.467447,3.7376596 v 0 C 8.316426,3.7207876 8.206617,3.5838723 8.22266,3.4320213 v 0 C 8.2387,3.2801702 8.375617,3.1703617 8.528298,3.187234 v 0 c 1.18383,0.13 2.281915,0.6942554 3.075745,1.5821277 C 12.400638,5.657234 12.840426,6.8078723 12.840426,8 v 0.00553 l -0.0028,0.1797872 v 0 c -0.003,0.1526828 -0.0079,-0.5076938 -0.0079,-0.5076938 l -0.33698,0.051283 -0.22874,-0.1757337 v 0 L 12.287,7.997 C 12.287,6.9404043 11.897304,5.9227664 11.191985,5.1372344 10.486596,4.3517021 9.515745,3.8538298 8.467447,3.7376596 Z M 6.755319,8 c 0,-0.3291489 0.13,-0.647234 0.365107,-0.8795745 C 7.352766,6.8853191 7.670851,6.7553191 8,6.7553191 c 0.329149,0 0.647234,0.13 0.879575,0.3651064 C 9.114681,7.352766 9.244681,7.6708511 9.244681,8 v 0 c 0,0.3291489 -0.13,0.647234 -0.365106,0.8795745 C 8.647234,9.1146809 8.329149,9.2446809 8,9.2446809 v 0 c -0.329149,0 -0.647234,-0.13 -0.879574,-0.3651064 C 6.885319,8.647234 6.755319,8.3291489 6.755319,8 Z M 5.648936,8 c 0,-0.6223404 0.248937,-1.2225532 0.688724,-1.6623404 C 6.777447,5.8978723 7.37766,5.6489362 8,5.6489362 c 0.622341,0 1.222553,0.2489361 1.662341,0.6887234 0.439787,0.4397872 0.688723,1.04 0.688723,1.6623404 v 0 c 0,0.6223404 -0.248936,1.2225532 -0.688723,1.6623404 C 9.222553,10.102128 8.622341,10.351064 8,10.351064 v 0 c -0.62234,0 -1.222553,-0.248936 -1.66234,-0.6887236 C 5.897873,9.2225532 5.648936,8.6223404 5.648936,8 Z"
     fill-rule="evenodd"
     id="path4"
     style="fill:url(#linearGradient8)"
     sodipodi:nodetypes="csssssscscscsssssssscscscssccsssssscsssssssscssssssscsccsssscccsscscsscsscssssssssssss" />
  <path
     fill-rule="evenodd"
     clip-rule="evenodd"
     d="m 9.626906,9.451844 c 0,0.100416 -0.08139,0.181825 -0.18182,0.181825 H 9.046819 C 8.946402,9.633669 8.865,9.715059 8.865,9.8154873 v 4.0086607 c 0,0.303132 0.120408,0.593775 0.334739,0.808139 0.214329,0.214279 0.505009,0.334713 0.808118,0.334713 h 3.047614 c 0.303093,0 0.593787,-0.120434 0.808108,-0.334713 0.214329,-0.214364 0.334777,-0.505007 0.334777,-0.808139 V 9.8154873 c 0,-0.1004193 -0.08143,-0.1818183 -0.181827,-0.1818183 h -0.398293 c -0.1004,0 -0.181815,-0.08139 -0.181815,-0.181825 V 7.14882 C 13.436421,7.0484 13.355031,6.967 13.2546,6.967 H 9.80872 c -0.100411,0 -0.181814,0.08139 -0.181814,0.18182 z m 0.943722,-1.722938 c -0.100414,0 -0.181814,0.08139 -0.181814,0.181814 v 1.541124 c 0,0.100416 0.0814,0.181825 0.181814,0.181825 h 1.92208 c 0.1004,0 0.181821,-0.08139 0.181821,-0.181825 V 7.91072 c 0,-0.100408 -0.08142,-0.181814 -0.181821,-0.181814 z M 13.2546,10.39558 c 0.100436,0 0.181821,0.08136 0.181821,0.18182 v 3.246748 c 0,0.101064 -0.04011,0.197929 -0.111563,0.269357 -0.07146,0.07145 -0.168329,0.111635 -0.269387,0.111635 h -3.047614 c -0.101038,0 -0.197931,-0.04026 -0.269374,-0.111635 -0.07147,-0.07145 -0.111577,-0.168293 -0.111577,-0.269357 V 10.5774 c 0,-0.10044 0.08138,-0.18182 0.181814,-0.18182 z M 10.769764,8.182592 c 0,-0.04019 0.03254,-0.07272 0.07273,-0.07272 h 0.235486 c 0.04019,0 0.07273,0.03252 0.07273,0.07272 V 8.79904 c 0,0.0402 -0.03254,0.07272 -0.07273,0.07272 h -0.235486 c -0.04019,0 -0.07273,-0.03252 -0.07273,-0.07272 z m 1.523815,0 c 0,-0.04019 -0.03258,-0.07272 -0.07272,-0.07272 h -0.235493 c -0.04019,0 -0.07273,0.03252 -0.07273,0.07272 V 8.79904 c 0,0.0402 0.03254,0.07272 0.07273,0.07272 h 0.235493 c 0.04014,0 0.07272,-0.03252 0.07272,-0.07272 z"
     fill="url(#paint0_linear_616_43)"
     id="path1"
     style="fill:url(#paint0_linear_616_43);stroke-width:0.0714284" />
</svg>
