<?xml version="1.0" encoding="UTF-8" standalone="no"?>
<!-- Generator: Gravit.io -->

<svg
   style="isolation:isolate"
   viewBox="0 0 16 16"
   width="16pt"
   height="16pt"
   version="1.1"
   id="svg5"
   sodipodi:docname="jetbrains-toolbox.svg"
   inkscape:version="1.3.2 (091e20ef0f, 2023-11-25)"
   xmlns:inkscape="http://www.inkscape.org/namespaces/inkscape"
   xmlns:sodipodi="http://sodipodi.sourceforge.net/DTD/sodipodi-0.dtd"
   xmlns:xlink="http://www.w3.org/1999/xlink"
   xmlns="http://www.w3.org/2000/svg"
   xmlns:svg="http://www.w3.org/2000/svg">
  <defs
     id="defs5">
    <linearGradient
       id="linearGradient5"
       inkscape:collect="always">
      <stop
         style="stop-color:#ffcc00;stop-opacity:1"
         offset="0"
         id="stop6" />
      <stop
         style="stop-color:#c83771;stop-opacity:1"
         offset="0.44502765"
         id="stop8" />
      <stop
         style="stop-color:#7f2aff;stop-opacity:1"
         offset="1"
         id="stop7" />
    </linearGradient>
    <linearGradient
       inkscape:collect="always"
       xlink:href="#linearGradient5"
       id="linearGradient7"
       x1="2.450326"
       y1="14.633637"
       x2="13.7"
       y2="1.6166884"
       gradientUnits="userSpaceOnUse" />
  </defs>
  <sodipodi:namedview
     id="namedview5"
     pagecolor="#ffffff"
     bordercolor="#000000"
     borderopacity="0.25"
     inkscape:showpageshadow="2"
     inkscape:pageopacity="0.0"
     inkscape:pagecheckerboard="0"
     inkscape:deskcolor="#d1d1d1"
     inkscape:document-units="pt"
     inkscape:zoom="5.9921875"
     inkscape:cx="26.200782"
     inkscape:cy="38.967405"
     inkscape:window-width="1920"
     inkscape:window-height="994"
     inkscape:window-x="0"
     inkscape:window-y="0"
     inkscape:window-maximized="1"
     inkscape:current-layer="svg5" />
  <linearGradient
     id="_lgradient_32"
     x1="-0.014458464"
     y1="0.009839246"
     x2="1.0164566"
     y2="1.072293"
     gradientTransform="matrix(-11.499999,0,0,12.999848,13.699999,1.500044)"
     gradientUnits="userSpaceOnUse">
    <stop
       offset="0%"
       stop-opacity="1"
       style="stop-color:rgb(249,212,35)"
       id="stop1" />
    <stop
       offset="51.56237565086822%"
       stop-opacity="1"
       style="stop-color:rgb(255,78,80)"
       id="stop2" />
    <stop
       offset="99.1304347826087%"
       stop-opacity="1"
       style="stop-color:rgb(138,35,135)"
       id="stop3" />
  </linearGradient>
  <path
     d="m 11.018711,4.4526893 v 0 c 0.250849,0.1828771 0.599805,0.1251264 0.779022,-0.1288067 v 0 C 11.976951,4.0699494 11.918977,3.7155187 11.668129,3.5326417 v 0 L 8.4639606,1.6197918 C 8.1988975,1.4615436 7.7671597,1.459845 7.500703,1.6161116 L 2.6827436,4.4413655 C 2.416287,4.5976322 2.2,4.9781073 2.2,5.2906404 v 5.1154646 c 0,0.312534 0.2157295,0.694141 0.48135,0.851823 l 5.3447409,3.174023 c 0.2656205,0.157683 0.48135,0.03199 0.48135,-0.280543 v -3.422578 0 c 0,-0.312532 -0.2497334,-0.566183 -0.5574406,-0.566183 v 0 c -0.3077073,0 -0.5574407,0.253651 -0.5574407,0.566183 v 0 1.500385 c 0,0.156267 -0.1078649,0.219396 -0.2410932,0.140979 L 3.3148812,10.106028 V 5.3783988 L 7.9165537,2.6805359 Z M 9.4606641,12.557602 v 0 c -0.2631115,0.162494 -0.3478426,0.511263 -0.1895295,0.778502 v 0 c 0.1583131,0.267238 0.5005822,0.353297 0.7636934,0.192502 v 0 l 3.178249,-1.79933 C 13.481762,11.576972 13.7,11.199893 13.7,10.887361 V 5.0924763 C 13.7,4.7799431 13.483714,4.653118 13.217257,4.8093846 L 8.2220314,7.7393826 C 8.088803,7.8175157 7.8714011,7.8194977 7.7367791,7.7439026 L 4.8785023,6.1370842 v 0 C 4.6262604,5.9573212 4.2770239,6.0181858 4.099479,6.2729683 v 0 C 3.9219341,6.5277506 3.9824164,6.8816151 4.2346584,7.0627937 v 0 l 3.201939,1.8768971 c 0.2664565,0.1562667 0.6990306,0.1562667 0.9654872,0 l 4.1830344,-2.451573 v 4.3284702 z"
     fill-rule="evenodd"
     id="path3"
     style="fill:url(#linearGradient7);stroke-width:0.280899;fill-opacity:1" />
  <linearGradient
     id="_lgradient_33"
     x1="1.075"
     y1="0.17104998"
     x2="-0.0047081499"
     y2="0.80991757"
     gradientTransform="matrix(2.7872031,0,0,2.5254601,9.0648811,9.4738848)"
     gradientUnits="userSpaceOnUse">
    <stop
       offset="0%"
       stop-opacity="1"
       style="stop-color:rgb(117,127,154)"
       id="stop4" />
    <stop
       offset="98.69565217391305%"
       stop-opacity="1"
       style="stop-color:rgb(215,221,232)"
       id="stop5" />
  </linearGradient>
  <path
     d="m 9.0648814,11.242358 v 0.473894 c 0,0.155985 0.1106525,0.223927 0.2466673,0.151456 l 2.2938683,-1.22239 c 0.136016,-0.07275 0.246667,-0.258463 0.246667,-0.41473 V 9.7569764 c 0,-0.1562666 -0.110651,-0.2242087 -0.246667,-0.1517372 L 9.3115487,10.827629 c -0.1360148,0.07275 -0.2466673,0.258463 -0.2466673,0.414729 z"
     id="path5"
     style="fill:#c83771;stroke-width:0.280899;fill-opacity:1" />
</svg>
