<?xml version="1.0" encoding="UTF-8" standalone="no"?>
<svg
   width="16"
   height="16"
   version="1.1"
   id="svg22"
   sodipodi:docname="ibus-anthy.svg"
   inkscape:version="1.4 (e7c3feb100, 2024-10-09)"
   xmlns:inkscape="http://www.inkscape.org/namespaces/inkscape"
   xmlns:sodipodi="http://sodipodi.sourceforge.net/DTD/sodipodi-0.dtd"
   xmlns:xlink="http://www.w3.org/1999/xlink"
   xmlns="http://www.w3.org/2000/svg"
   xmlns:svg="http://www.w3.org/2000/svg"
   xmlns:rdf="http://www.w3.org/1999/02/22-rdf-syntax-ns#"
   xmlns:cc="http://creativecommons.org/ns#"
   xmlns:dc="http://purl.org/dc/elements/1.1/">
  <sodipodi:namedview
     pagecolor="#ffffff"
     bordercolor="#666666"
     borderopacity="1"
     objecttolerance="10"
     gridtolerance="10"
     guidetolerance="10"
     inkscape:pageopacity="0"
     inkscape:pageshadow="2"
     inkscape:window-width="1920"
     inkscape:window-height="998"
     id="namedview24"
     showgrid="false"
     inkscape:zoom="12.984375"
     inkscape:cx="6.3152828"
     inkscape:cy="13.323706"
     inkscape:window-x="0"
     inkscape:window-y="0"
     inkscape:window-maximized="1"
     inkscape:current-layer="svg22"
     inkscape:showpageshadow="2"
     inkscape:pagecheckerboard="0"
     inkscape:deskcolor="#d1d1d1">
    <inkscape:grid
       id="grid1"
       units="px"
       originx="0"
       originy="0"
       spacingx="1"
       spacingy="1"
       empcolor="#0099e5"
       empopacity="0.30196078"
       color="#0099e5"
       opacity="0.14901961"
       empspacing="5"
       dotted="false"
       gridanglex="30"
       gridanglez="30"
       visible="false" />
  </sodipodi:namedview>
  <metadata
     id="metadata2">
    <rdf:RDF>
      <cc:Work
         rdf:about="">
        <dc:format>image/svg+xml</dc:format>
        <dc:type
           rdf:resource="http://purl.org/dc/dcmitype/StillImage" />
      </cc:Work>
    </rdf:RDF>
  </metadata>
  <defs
     id="defs14">
    <linearGradient
       id="linearGradient1"
       inkscape:collect="always">
      <stop
         style="stop-color:#8eb9f1;stop-opacity:1;"
         offset="0"
         id="stop1" />
      <stop
         style="stop-color:#2075df;stop-opacity:1;"
         offset="1"
         id="stop3" />
    </linearGradient>
    <filter
       id="filter2761"
       x="-0.024"
       y="-0.024"
       width="1.048"
       height="1.048"
       color-interpolation-filters="sRGB">
      <feGaussianBlur
         stdDeviation="0.14552168"
         id="feGaussianBlur4" />
    </filter>
    <linearGradient
       id="linearGradient4673"
       x1="1.2573"
       x2="15.644"
       y1="15.429"
       y2="1.1082"
       gradientTransform="matrix(3.7796,0,0,3.7796,-98.960821,0.53085)"
       gradientUnits="userSpaceOnUse">
      <stop
         stop-color="#16ff6c"
         offset="0"
         id="stop7" />
      <stop
         stop-color="#28ff61"
         offset=".47728"
         id="stop9" />
      <stop
         stop-color="#9fff1b"
         offset="1"
         id="stop11" />
    </linearGradient>
    <linearGradient
       id="linearGradient3764"
       x1="1"
       x2="47"
       gradientUnits="userSpaceOnUse"
       gradientTransform="rotate(-90,23.999998,24)">
      <stop
         style="stop-color:#00ccff;stop-opacity:1"
         id="stop2"
         offset="0" />
      <stop
         offset="1"
         style="stop-color:#2a7fff;stop-opacity:1"
         id="stop4" />
    </linearGradient>
    <style
       type="text/css"
       id="style876" />
    <style
       type="text/css"
       id="style878" />
    <style
       type="text/css"
       id="style880" />
    <style
       type="text/css"
       id="style882" />
    <filter
       id="filter1057"
       x="-0.026999999"
       y="-0.026999999"
       width="1.054"
       height="1.054"
       color-interpolation-filters="sRGB">
      <feGaussianBlur
         stdDeviation="0.61875"
         id="feGaussianBlur884" />
    </filter>
    <linearGradient
       id="linearGradient1053"
       x1="-127"
       x2="-72"
       y1="60"
       y2="5"
       gradientTransform="translate(131.5,-0.51)"
       gradientUnits="userSpaceOnUse">
      <stop
         stop-color="#02db96"
         offset="0"
         id="stop887"
         style="stop-color:#14ff6e;stop-opacity:1" />
      <stop
         stop-color="#13d39b"
         offset="1"
         id="stop889"
         style="stop-color:#a0ff1e;stop-opacity:1" />
    </linearGradient>
    <style
       type="text/css"
       id="style892" />
    <style
       type="text/css"
       id="style894" />
    <style
       type="text/css"
       id="style896" />
    <linearGradient
       id="a-367"
       gradientUnits="userSpaceOnUse"
       x1="23"
       x2="37"
       y1="20"
       y2="34"
       gradientTransform="matrix(1.9622547,0,0,1.9622547,-116.93982,-48.178796)">
      <stop
         offset="0"
         stop-color="#292c2f"
         id="stop246" />
      <stop
         offset="1"
         stop-opacity="0"
         id="stop248" />
    </linearGradient>
    <linearGradient
       id="c-53"
       gradientTransform="matrix(2.0428665,-6.8308524,5.7819337,2.3633129,25.219113,34.652812)"
       gradientUnits="userSpaceOnUse"
       x1="24"
       x2="24"
       y1="35"
       y2="13">
      <stop
         offset="0"
         stop-color="#23a2cd"
         id="stop256" />
      <stop
         offset=".53"
         stop-color="#00b8f5"
         id="stop258" />
      <stop
         offset="1"
         stop-color="#2ecbff"
         id="stop260" />
    </linearGradient>
    <linearGradient
       id="b"
       x1="5.6735563"
       x2="6.3497996"
       y1="285.08102"
       y2="296.22104"
       gradientTransform="matrix(3.9684789,0,0,3.7701975,-1.1998401,-1071.8118)"
       gradientUnits="userSpaceOnUse">
      <stop
         stop-color="#535a61"
         offset="0"
         id="stop24"
         style="stop-color:#31374e;stop-opacity:1;" />
      <stop
         stop-color="#333c45"
         offset="1"
         id="stop26"
         style="stop-color:#3a465f;stop-opacity:1;" />
    </linearGradient>
    <linearGradient
       id="l"
       x1="27.447001"
       x2="25.966"
       y1="289.76001"
       y2="289.76001"
       gradientTransform="matrix(3.741601,0,0,3.8209959,-163.25079,-1114.3625)"
       gradientUnits="userSpaceOnUse">
      <stop
         stop-color="#1881ce"
         offset="0"
         id="stop19" />
      <stop
         stop-color="#2980b9"
         offset="1"
         id="stop21" />
    </linearGradient>
    <linearGradient
       id="i"
       x1="7.8635001"
       x2="11.642"
       y1="288.34"
       y2="292.10999"
       gradientUnits="userSpaceOnUse"
       xlink:href="#a"
       gradientTransform="matrix(3.9684789,0,0,3.9686289,-97.302609,-1160.6764)" />
    <linearGradient
       id="a">
      <stop
         stop-color="#232629"
         offset="0"
         id="stop2-7" />
      <stop
         stop-opacity="0"
         offset="1"
         id="stop4-5" />
    </linearGradient>
    <linearGradient
       id="j"
       x1="10.692"
       x2="34.026001"
       y1="14.134"
       y2="29.068001"
       gradientTransform="matrix(0.98997675,0,0,1.0109685,-94.236919,-27.394731)"
       gradientUnits="userSpaceOnUse">
      <stop
         stop-color="#349cd2"
         offset="0"
         id="stop7-3" />
      <stop
         stop-color="#2694d9"
         offset=".74017"
         id="stop9-5" />
      <stop
         stop-color="#0e6daa"
         offset="1"
         id="stop11-6" />
    </linearGradient>
    <linearGradient
       id="h"
       x1="3.4561"
       x2="9.3148003"
       y1="287.76001"
       y2="293.60999"
       gradientUnits="userSpaceOnUse"
       xlink:href="#a"
       gradientTransform="matrix(3.9684789,0,0,3.9686289,-97.302609,-1160.6764)" />
    <linearGradient
       id="k"
       x1="21.274"
       x2="27.447001"
       y1="291.29999"
       y2="287.35001"
       gradientTransform="matrix(3.741601,0,0,3.8209959,-163.25079,-1114.3625)"
       gradientUnits="userSpaceOnUse">
      <stop
         stop-color="#1d99f3"
         offset="0"
         id="stop14" />
      <stop
         stop-color="#3daee9"
         offset="1"
         id="stop16" />
    </linearGradient>
    <linearGradient
       inkscape:collect="always"
       xlink:href="#linearGradient3764"
       id="linearGradient26"
       x1="15.235155"
       y1="14.872931"
       x2="2.2920253"
       y2="2.7845645"
       gradientUnits="userSpaceOnUse"
       gradientTransform="matrix(0.86666667,0,0,0.85714286,1.0666695,1.142857)" />
    <linearGradient
       inkscape:collect="always"
       xlink:href="#linearGradient1"
       id="linearGradient3"
       x1="13.263597"
       y1="33.313354"
       x2="49.734009"
       y2="33.313354"
       gradientUnits="userSpaceOnUse" />
  </defs>
  <circle
     cx="-1252.4805"
     cy="-1236.6377"
     r="0"
     fill="#5e4aa6"
     id="circle908" />
  <circle
     cx="-1258.1064"
     cy="-1248.3278"
     r="0"
     id="circle910"
     style="fill:#5e4aa6" />
  <circle
     cx="-158.55647"
     cy="17.127289"
     r="0"
     fill-rule="evenodd"
     id="circle912"
     style="fill:#5e4aa6" />
  <circle
     cx="-1258.1064"
     cy="-1248.3278"
     r="0"
     id="circle914"
     style="fill:#5e4aa6" />
  <circle
     cx="-158.55647"
     cy="17.127289"
     r="0"
     fill-rule="evenodd"
     id="circle916"
     style="fill:#5e4aa6" />
  <circle
     cx="-1160.3064"
     cy="-1263.3278"
     r="0"
     id="circle918"
     style="fill:#5e4aa6" />
  <circle
     cx="-60.733475"
     cy="2.1466885"
     r="0"
     fill-rule="evenodd"
     id="circle920"
     style="fill:#5e4aa6" />
  <g
     transform="matrix(3.7796,0,0,3.7796,158.45352,-2.1177117)"
     stroke-width="0.26458"
     id="g950"
     style="fill:#5e4aa6">
    <g
       transform="translate(-0.0272,0.0065001)"
       id="g938">
      <circle
         cx="-330.35001"
         cy="-328.38"
         r="0"
         id="circle922" />
      <circle
         cx="-312.10999"
         cy="-326.25"
         r="0"
         id="circle924" />
      <circle
         cx="-306.01999"
         cy="-333.07001"
         r="0"
         id="circle926" />
      <circle
         cx="-308.84"
         cy="-326.01001"
         r="0"
         id="circle928" />
      <circle
         cx="-330.35001"
         cy="-328.38"
         r="0"
         id="circle930" />
      <circle
         cx="-312.10999"
         cy="-326.25"
         r="0"
         id="circle932" />
      <circle
         cx="-306.01999"
         cy="-333.07001"
         r="0"
         id="circle934" />
      <circle
         cx="-308.84"
         cy="-326.01001"
         r="0"
         id="circle936" />
    </g>
    <g
       transform="translate(-0.02705,0.0064503)"
       id="g948">
      <circle
         cx="-330.35001"
         cy="-328.38"
         r="0"
         id="circle940" />
      <circle
         cx="-312.10999"
         cy="-326.25"
         r="0"
         id="circle942" />
      <circle
         cx="-306.01999"
         cy="-333.07001"
         r="0"
         id="circle944" />
      <circle
         cx="-308.84"
         cy="-326.01001"
         r="0"
         id="circle946" />
    </g>
  </g>
  <path
     class="ColorScheme-Text"
     d="m 2.8928585,2 c -0.763285,0 -1.392856,0.678 -1.392856,1.5 v 9 c 0,0.822994 0.629571,1.5 1.392856,1.5 H 13.107147 c 0.76328,0 1.39285,-0.677006 1.39285,-1.5 v -9 c 0,-0.822 -0.62957,-1.5 -1.39285,-1.5 z m 0,0.999999 h 3.249999 0.928571 v 0 h 3.5285745 v 0 0 0 h 2.507145 c 0.26556,0 0.46427,0.215001 0.46427,0.500001 v 9 c 0,0.285994 -0.19871,0.500006 -0.46427,0.500006 H 2.8928585 C 2.6338175,13.006906 2.4221205,12.778974 2.4285725,12.5 v -9 c 0,-0.285 0.198716,-0.500001 0.464286,-0.500001 z m 4.17857,0 h 1.857144 v 0 0 z"
     font-family="sans-serif"
     font-weight="400"
     overflow="visible"
     id="path22"
     sodipodi:nodetypes="sssssssssscccccccssssccssccccc"
     style="color:#d5c289;fill:url(#linearGradient26);stroke-width:0.861892" />
  <g
     id="g8"
     transform="matrix(0.19193641,0,0,0.19047619,1.9542328,1.5472042)">
    <path
       style="opacity:0.2;stroke-width:1.12765"
       d="m 46.077044,18.334997 c -5.725072,1.250563 -12.172967,1.972258 -17.609361,2.260936 l 0.288678,-1.44339 c 0.337167,-1.58773 0.577356,-3.175459 1.106224,-4.859038 l -6.735446,-0.288678 c 0.04849,1.587729 0,2.742441 -0.240189,4.811676 -0.04849,0.577356 -0.192828,1.202074 -0.288678,1.923769 -2.88678,-0.04736 -6.495256,-0.433017 -9.334675,-0.913396 v 5.9179 c 2.406402,0.24019 5.196205,0.433017 8.227324,0.480379 -1.250562,5.244693 -3.175458,11.59561 -5.436394,15.97427 l 5.629222,2.020746 c 0.481506,-0.818673 0.817545,-1.44339 1.34754,-2.069235 2.838292,-3.656964 7.69733,-5.629222 13.182213,-5.629222 4.618848,0 7.121101,2.405275 7.121101,5.244694 0,7.024123 -10.536749,8.274686 -20.977648,6.591106 l 1.684707,6.158089 c 15.395787,1.636218 25.692347,-2.212446 25.692347,-12.942023 0,-6.062239 -5.100355,-10.199582 -12.798812,-10.199582 -4.377532,0 -7.986008,0.866034 -11.8358,2.982631 0.770184,-2.309424 1.540368,-5.340544 2.165085,-8.227324 6.399406,-0.337167 13.953524,-1.250563 18.908412,-2.020747 z"
       id="path3" />
    <path
       style="fill:url(#linearGradient3);stroke-width:1.12765"
       d="m 46.077044,17.207349 c -5.725072,1.250562 -12.172967,1.972257 -17.609361,2.260935 l 0.288678,-1.44339 c 0.337167,-1.587729 0.577356,-3.175459 1.106224,-4.859038 l -6.735446,-0.288678 c 0.04849,1.587729 0,2.742441 -0.240189,4.811677 -0.04849,0.577356 -0.192828,1.202073 -0.288678,1.923768 -2.88678,-0.04736 -6.495256,-0.433017 -9.334675,-0.913395 v 5.9179 c 2.406402,0.240189 5.196205,0.433017 8.227324,0.480378 -1.250562,5.244694 -3.175458,11.595611 -5.436394,15.97427 l 5.629222,2.020747 c 0.481506,-0.818673 0.817545,-1.44339 1.34754,-2.069235 2.838292,-3.656965 7.69733,-5.629222 13.182213,-5.629222 4.618848,0 7.121101,2.405274 7.121101,5.244693 0,7.024124 -10.536749,8.274686 -20.977648,6.591107 l 1.684707,6.158089 c 15.395787,1.636218 25.692347,-2.212447 25.692347,-12.942024 0,-6.062239 -5.100355,-10.199581 -12.798812,-10.199581 -4.377532,0 -7.986008,0.866034 -11.8358,2.98263 0.770184,-2.309424 1.540368,-5.340544 2.165085,-8.227324 6.399406,-0.337167 13.953524,-1.250562 18.908412,-2.020746 z"
       id="path4" />
  </g>
</svg>
