<?xml version="1.0" encoding="UTF-8" standalone="no"?>
<svg
   height="16"
   width="16"
   version="1.1"
   id="svg6"
   sodipodi:docname="keepassxc-monochrome-light.svg"
   inkscape:version="1.3.1 (91b66b0783, 2023-11-16)"
   xmlns:inkscape="http://www.inkscape.org/namespaces/inkscape"
   xmlns:sodipodi="http://sodipodi.sourceforge.net/DTD/sodipodi-0.dtd"
   xmlns:xlink="http://www.w3.org/1999/xlink"
   xmlns="http://www.w3.org/2000/svg"
   xmlns:svg="http://www.w3.org/2000/svg"
   xmlns:rdf="http://www.w3.org/1999/02/22-rdf-syntax-ns#"
   xmlns:cc="http://creativecommons.org/ns#"
   xmlns:dc="http://purl.org/dc/elements/1.1/">
  <metadata
     id="metadata12">
    <rdf:RDF>
      <cc:Work
         rdf:about="">
        <dc:format>image/svg+xml</dc:format>
        <dc:type
           rdf:resource="http://purl.org/dc/dcmitype/StillImage" />
      </cc:Work>
    </rdf:RDF>
  </metadata>
  <defs
     id="defs10">
    <linearGradient
       id="linearGradient4"
       inkscape:collect="always">
      <stop
         style="stop-color:#79ffff;stop-opacity:1;"
         offset="0"
         id="stop3" />
      <stop
         style="stop-color:#00ffff;stop-opacity:1"
         offset="1"
         id="stop4" />
    </linearGradient>
    <linearGradient
       id="linearGradient3"
       inkscape:collect="always">
      <stop
         style="stop-color:#7fffff;stop-opacity:1;"
         offset="0"
         id="stop1" />
      <stop
         style="stop-color:#00ffff;stop-opacity:1"
         offset="1"
         id="stop2" />
    </linearGradient>
    <marker
       style="overflow:visible"
       id="DotL"
       refX="0"
       refY="0"
       orient="auto"
       inkscape:stockid="DotL"
       inkscape:isstock="true">
      <path
         transform="matrix(0.8,0,0,0.8,5.92,0.8)"
         style="fill:#000000;fill-opacity:1;fill-rule:evenodd;stroke:#000000;stroke-width:1pt;stroke-opacity:1"
         d="m -2.5,-1 c 0,2.76 -2.24,5 -5,5 -2.76,0 -5,-2.24 -5,-5 0,-2.76 2.24,-5 5,-5 2.76,0 5,2.24 5,5 z"
         id="path898" />
    </marker>
    <linearGradient
       inkscape:collect="always"
       xlink:href="#linearGradient3"
       id="linearGradient2"
       x1="10.707617"
       y1="31.534513"
       x2="37.173615"
       y2="31.534513"
       gradientUnits="userSpaceOnUse"
       gradientTransform="matrix(0.49119626,0,0,0.49119635,-3.7595404,-7.4896377)" />
    <linearGradient
       inkscape:collect="always"
       xlink:href="#linearGradient4"
       id="linearGradient6"
       x1="5.6470585"
       y1="8"
       x2="10.352942"
       y2="8"
       gradientUnits="userSpaceOnUse" />
  </defs>
  <sodipodi:namedview
     pagecolor="#ffffff"
     bordercolor="#666666"
     borderopacity="1"
     objecttolerance="10"
     gridtolerance="10"
     guidetolerance="10"
     inkscape:pageopacity="0"
     inkscape:pageshadow="2"
     inkscape:window-width="1920"
     inkscape:window-height="994"
     id="namedview8"
     showgrid="false"
     inkscape:zoom="22.627417"
     inkscape:cx="9.5017474"
     inkscape:cy="6.5186406"
     inkscape:window-x="0"
     inkscape:window-y="0"
     inkscape:window-maximized="1"
     inkscape:current-layer="svg6"
     inkscape:document-rotation="0"
     inkscape:pagecheckerboard="0"
     inkscape:showpageshadow="2"
     inkscape:deskcolor="#d1d1d1" />
  <path
     id="circle2"
     style="opacity:0.99;fill:url(#linearGradient2);fill-opacity:1;stroke-width:0.491197"
     d="M 14.499999,7.9999999 A 6.4999991,6.5000002 0 0 1 8.0000001,14.5 6.4999991,6.5000002 0 0 1 1.500001,7.9999999 6.4999991,6.5000002 0 0 1 8.0000001,1.5000001 6.4999991,6.5000002 0 0 1 14.499999,7.9999999 Z" />
  <path
     id="circle858"
     style="opacity:1;fill:#1c202f;fill-opacity:1;stroke-width:0.417883"
     d="M 13.529826,7.9999997 A 5.5298258,5.5298269 0 0 1 8.0000001,13.529827 5.5298258,5.5298269 0 0 1 2.4701742,7.9999997 5.5298258,5.5298269 0 0 1 8.0000001,2.4701728 5.5298258,5.5298269 0 0 1 13.529826,7.9999997 Z" />
  <path
     d="m 7.9999985,4.0000005 a 2.3529409,2.352941 0 0 0 -2.35294,2.3529409 2.3529409,2.352941 0 0 0 1.411765,2.1534929 V 11.058823 L 7.9999985,12 8.4705885,11.529411 V 9.1764709 h 0.477021 c 0.0017,-0.1316315 0.02641,-0.2570592 0.06158,-0.3786765 l -0.06801,-0.068015 V 8.5082716 a 2.3529409,2.352941 0 0 0 0.2739,-0.1443008 C 9.3567975,8.1639312 9.5473575,8.002663 9.7702215,7.8979777 A 2.3529409,2.352941 0 0 0 10.352942,6.3529408 2.3529409,2.352941 0 0 0 8.0000035,3.9999999 Z m 0,0.4705879 a 0.94117677,0.94117677 0 0 1 0.941176,0.9411767 0.94117677,0.94117677 0 0 1 -0.941176,0.9411763 0.94117677,0.94117677 0 0 1 -0.941175,-0.9411763 0.94117677,0.94117677 0 0 1 0.941175,-0.9411767 z m -0.470586,4.2352943 h 0.470586 v 1.8823523 h -0.470586 z"
     id="path1"
     style="fill:url(#linearGradient6)" />
</svg>
