<?xml version="1.0" encoding="UTF-8" standalone="no"?>
<svg
   width="16"
   height="16"
   version="1"
   id="svg12"
   sodipodi:docname="openrgb.svg"
   inkscape:version="1.4 (e7c3feb100, 2024-10-09)"
   xmlns:inkscape="http://www.inkscape.org/namespaces/inkscape"
   xmlns:sodipodi="http://sodipodi.sourceforge.net/DTD/sodipodi-0.dtd"
   xmlns="http://www.w3.org/2000/svg"
   xmlns:svg="http://www.w3.org/2000/svg">
  <defs
     id="defs12" />
  <sodipodi:namedview
     id="namedview12"
     pagecolor="#ffffff"
     bordercolor="#000000"
     borderopacity="0.25"
     inkscape:showpageshadow="2"
     inkscape:pageopacity="0.0"
     inkscape:pagecheckerboard="0"
     inkscape:deskcolor="#d1d1d1"
     inkscape:zoom="33.14563"
     inkscape:cx="8.7794379"
     inkscape:cy="6.4563564"
     inkscape:window-width="1920"
     inkscape:window-height="996"
     inkscape:window-x="0"
     inkscape:window-y="0"
     inkscape:window-maximized="1"
     inkscape:current-layer="svg12" />
  <g
     id="g12"
     transform="translate(-7.107143,-3.5)">
    <path
       style="opacity:0.2;stroke-width:0.232143"
       d="m 15.107143,5.2321429 c -1.307032,0 -2.613678,0.4990017 -3.61091,1.4962331 C 10.499002,7.7256079 10,9.0322536 10,10.339286 c 0,1.307032 0.499002,2.613678 1.496233,3.610909 0.997232,0.997232 2.303878,1.496234 3.61091,1.496234 1.307032,0 2.613678,-0.499002 3.61091,-1.496234 0.997231,-0.997231 1.496233,-2.303877 1.496233,-3.610909 0,-1.3070324 -0.499002,-2.6136781 -1.496233,-3.61091 -0.997232,-0.9972314 -2.303878,-1.4962331 -3.61091,-1.4962331 z m 0,3.25 a 1.8571429,1.8571429 0 0 1 1.312151,0.5449915 1.8571429,1.8571429 0 0 1 0.544992,1.3121516 1.8571429,1.8571429 0 0 1 -0.544992,1.312151 1.8571429,1.8571429 0 0 1 -0.558594,0.382673 l 1.103586,2.483747 H 15.107143 13.25 l 1.103585,-2.48284 A 1.8571429,1.8571429 0 0 1 13.794992,11.651437 1.8571429,1.8571429 0 0 1 13.25,10.339286 1.8571429,1.8571429 0 0 1 13.794992,9.0271344 1.8571429,1.8571429 0 0 1 15.107143,8.4821429 Z"
       id="path1" />
    <path
       style="fill:#ffc107;stroke-width:0.232143"
       d="m 15.107143,5 c -1.307032,0 -2.613678,0.4990017 -3.61091,1.4962331 l 2.298759,2.2987585 A 1.8571429,1.8571429 0 0 1 15.107143,8.25 Z"
       id="path2" />
    <path
       style="fill:#53dd22;stroke-width:0.232143"
       d="m 15.107143,5 v 3.25 a 1.8571429,1.8571429 0 0 1 1.312151,0.5449916 L 18.718053,6.4962331 C 17.720821,5.4990017 16.414175,5 15.107143,5 Z"
       id="path3" />
    <path
       style="fill:#ab47bc;stroke-width:0.232143"
       d="m 13.794992,11.419294 -2.298759,2.298759 c 0.997232,0.997231 2.303878,1.496233 3.61091,1.496233 V 14.285714 H 13.25 l 1.103585,-2.48284 a 1.8571429,1.8571429 0 0 1 -0.558593,-0.38358 z"
       id="path4" />
    <path
       style="fill:#3f51b5;stroke-width:0.232143"
       d="M 16.419294,11.419294 A 1.8571429,1.8571429 0 0 1 15.8607,11.801967 l 1.103586,2.483747 h -1.857143 v 0.928572 c 1.307032,0 2.613678,-0.499002 3.61091,-1.496233 z"
       id="path5" />
    <path
       style="fill:#42fffd;stroke-width:0.232143"
       d="m 18.718053,6.4962331 -2.298759,2.2987585 a 1.8571429,1.8571429 0 0 1 0.544992,1.3121514 h 3.25 c 0,-1.3070322 -0.499002,-2.613678 -1.496233,-3.6109099 z"
       id="path6" />
    <path
       style="fill:#039af4;stroke-width:0.232143"
       d="m 16.964286,10.107143 a 1.8571429,1.8571429 0 0 1 -0.544992,1.312151 l 2.298759,2.298759 c 0.997231,-0.997232 1.496233,-2.303878 1.496233,-3.61091 z"
       id="path7" />
    <path
       style="fill:#ff8e13;stroke-width:0.232143"
       d="M 11.496233,6.4962331 C 10.499002,7.493465 10,8.8001108 10,10.107143 h 3.25 a 1.8571429,1.8571429 0 0 1 0.544992,-1.3121514 z"
       id="path8" />
    <path
       style="fill:#fd3b2d;stroke-width:0.232143"
       d="m 10,10.107143 c 0,1.307032 0.499002,2.613678 1.496233,3.61091 l 2.298759,-2.298759 A 1.8571429,1.8571429 0 0 1 13.25,10.107143 Z"
       id="path9" />
    <path
       style="opacity:0.2;fill:#ffffff;stroke-width:0.232143"
       d="M 15.107143,5 C 13.800111,5 12.493465,5.4990018 11.496233,6.4962331 10.499002,7.4934652 10,8.8001108 10,10.107143 c 0,0.02632 0.0024,0.0526 0.0036,0.07889 0.03751,-1.2554174 0.534386,-2.4994388 1.492605,-3.457659 0.997232,-0.9972314 2.303878,-1.4962331 3.61091,-1.4962331 1.307032,0 2.613678,0.4990018 3.61091,1.4962331 0.958219,0.9582203 1.455092,2.2022416 1.492605,3.457659 0.0013,-0.0263 0.0036,-0.05257 0.0036,-0.07889 0,-1.3070322 -0.499002,-2.6136778 -1.496233,-3.6109099 C 17.720821,5.4990018 16.414175,5 15.107143,5 Z m -1.840821,5.336565 a 1.8571429,1.8571429 0 0 0 -0.01632,0.234864 1.8571429,1.8571429 0 0 0 0.0063,0.119698 1.8571429,1.8571429 0 0 1 0.01,-0.122419 1.8571429,1.8571429 0 0 0 0.528669,1.082729 1.8571429,1.8571429 0 0 0 0.474261,0.34096 l 0.08433,-0.189523 a 1.8571429,1.8571429 0 0 1 -0.558594,-0.38358 1.8571429,1.8571429 0 0 1 -0.528669,-1.082729 z m 3.681641,0.0054 a 1.8571429,1.8571429 0 0 1 -0.528669,1.077288 1.8571429,1.8571429 0 0 1 -0.558594,0.382672 l 0.08479,0.190884 a 1.8571429,1.8571429 0 0 0 0.473807,-0.341414 1.8571429,1.8571429 0 0 0 0.528669,-1.077287 1.8571429,1.8571429 0 0 1 0.01043,0.131033 1.8571429,1.8571429 0 0 0 0.0059,-0.133754 1.8571429,1.8571429 0 0 0 -0.01632,-0.229423 z M 13.456752,14.285714 13.25,14.75 h 0.103376 l 0.103376,-0.232143 h 1.650391 1.651297 L 16.861363,14.75 h 0.102923 L 16.75844,14.285714 h -1.651297 z"
       id="path10" />
    <path
       style="opacity:0.2;stroke-width:0.232143"
       d="m 13.868897,14.053571 c -0.342953,0 -0.618897,0.290082 -0.618897,0.650182 v 1.949637 c 0,0.3601 0.275944,0.650181 0.618897,0.650181 h 0.309674 v 0.386754 C 14.178571,17.861801 14.31677,18 14.488246,18 h 1.237793 c 0.171476,0 0.309675,-0.138199 0.309675,-0.309675 v -0.386754 h 0.309675 c 0.342953,0 0.618897,-0.290081 0.618897,-0.650181 v -1.949637 c 0,-0.3601 -0.275944,-0.650182 -0.618897,-0.650182 z"
       id="path11" />
    <rect
       style="fill:#2b3955;stroke-width:0.232143;fill-opacity:1"
       width="3.7142856"
       height="3.25"
       x="13.25"
       y="13.821428"
       rx="0.61912501"
       ry="0.64999998"
       id="rect11" />
    <rect
       style="fill:#2b3955;stroke-width:0.232143;fill-opacity:1"
       width="1.8571428"
       height="1.8571428"
       x="14.178572"
       y="15.910714"
       rx="0.30944642"
       ry="0.30944642"
       id="rect12" />
  </g>
</svg>
