<?xml version="1.0" encoding="UTF-8" standalone="no"?>
<svg
   width="16"
   height="16"
   viewBox="0 0 16 16"
   fill="none"
   version="1.1"
   id="svg5"
   sodipodi:docname="kwatchgnupg.svg"
   inkscape:version="1.3.2 (091e20ef0f, 2023-11-25)"
   xmlns:inkscape="http://www.inkscape.org/namespaces/inkscape"
   xmlns:sodipodi="http://sodipodi.sourceforge.net/DTD/sodipodi-0.dtd"
   xmlns:xlink="http://www.w3.org/1999/xlink"
   xmlns="http://www.w3.org/2000/svg"
   xmlns:svg="http://www.w3.org/2000/svg">
  <sodipodi:namedview
     id="namedview5"
     pagecolor="#ffffff"
     bordercolor="#000000"
     borderopacity="0.25"
     inkscape:showpageshadow="2"
     inkscape:pageopacity="0.0"
     inkscape:pagecheckerboard="0"
     inkscape:deskcolor="#d1d1d1"
     inkscape:zoom="11.298977"
     inkscape:cx="13.187035"
     inkscape:cy="15.443876"
     inkscape:window-width="1920"
     inkscape:window-height="994"
     inkscape:window-x="0"
     inkscape:window-y="0"
     inkscape:window-maximized="1"
     inkscape:current-layer="svg5" />
  <defs
     id="defs5">
    <linearGradient
       id="linearGradient17"
       x1="6.0302329"
       x2="6.0302329"
       y1="3.1042628"
       y2="9.3494005"
       gradientTransform="scale(0.82737599,1.2086403)"
       gradientUnits="userSpaceOnUse">
      <stop
         offset="0"
         style="stop-color:#d35f8d;stop-opacity:1"
         id="stop15" />
      <stop
         offset="0.99989998"
         style="stop-color:#c779d0;stop-opacity:1;"
         id="stop16" />
      <stop
         offset="100%"
         style="stop-color:#ffe680;stop-opacity:1"
         id="stop17" />
    </linearGradient>
    <linearGradient
       id="paint0_linear_642_20"
       x1="7.99932"
       y1="184.888"
       x2="220.70599"
       y2="92.643997"
       gradientUnits="userSpaceOnUse">
      <stop
         stop-color="#0357D1"
         id="stop2" />
      <stop
         offset="1"
         stop-color="#27CDFC"
         id="stop3" />
    </linearGradient>
    <linearGradient
       id="paint1_linear_642_20"
       x1="7.99932"
       y1="184.888"
       x2="220.70599"
       y2="92.643997"
       gradientUnits="userSpaceOnUse">
      <stop
         stop-color="#0357D1"
         id="stop4" />
      <stop
         offset="1"
         stop-color="#27CDFC"
         id="stop5" />
    </linearGradient>
    <clipPath
       id="clip0_642_20">
      <rect
         width="192"
         height="192"
         fill="#ffffff"
         id="rect5"
         x="0"
         y="0" />
    </clipPath>
    <linearGradient
       id="linearGradient4"
       x1="0"
       x2="0"
       y1="0"
       y2="1">
      <stop
         offset="0"
         style="stop-color:#4bc0c8;stop-opacity:1;"
         id="stop1" />
      <stop
         offset="0.52062726"
         style="stop-color:#c779d0;stop-opacity:1;"
         id="stop4-7" />
      <stop
         offset="100%"
         style="stop-color:#ffe680;stop-opacity:1"
         id="stop2-5" />
    </linearGradient>
    <linearGradient
       inkscape:collect="always"
       xlink:href="#linearGradient4"
       id="linearGradient26"
       x1="15.5"
       y1="15"
       x2="0.49999961"
       y2="1.0000001"
       gradientUnits="userSpaceOnUse"
       gradientTransform="matrix(0.86666667,0,0,0.85714286,1.0666698,1.1428602)" />
    <linearGradient
       xlink:href="#linearGradient4"
       id="linearGradient4503-0-3-2"
       y1="37"
       y2="4"
       x2="0"
       gradientUnits="userSpaceOnUse"
       gradientTransform="matrix(0.22499999,0,0,0.22499999,2.5063599,2.8519402)" />
    <linearGradient
       id="linearGradient10"
       x1="6.0302329"
       x2="6.0302329"
       y1="3.1042628"
       y2="9.3494005"
       gradientTransform="scale(0.82737599,1.2086403)"
       gradientUnits="userSpaceOnUse">
      <stop
         offset="0"
         style="stop-color:#4bc0c8;stop-opacity:1;"
         id="stop8" />
      <stop
         offset="0.99989998"
         style="stop-color:#c779d0;stop-opacity:1;"
         id="stop9" />
      <stop
         offset="100%"
         style="stop-color:#ffe680;stop-opacity:1"
         id="stop10" />
    </linearGradient>
    <linearGradient
       inkscape:collect="always"
       xlink:href="#linearGradient4"
       id="linearGradient12"
       x1="4.9892702"
       y1="7.526"
       x2="10.156347"
       y2="7.526"
       gradientUnits="userSpaceOnUse" />
    <linearGradient
       inkscape:collect="always"
       xlink:href="#linearGradient17"
       id="linearGradient8"
       gradientUnits="userSpaceOnUse"
       gradientTransform="matrix(0.59999994,0,0,0.59999994,4.6610004,2.4437995)"
       x1="12.991783"
       y1="13.628647"
       x2="6.0067902"
       y2="13.628648" />
    <linearGradient
       inkscape:collect="always"
       xlink:href="#linearGradient4"
       id="linearGradient13"
       x1="3"
       y1="6.5"
       x2="13"
       y2="6.5"
       gradientUnits="userSpaceOnUse" />
    <linearGradient
       inkscape:collect="always"
       xlink:href="#linearGradient4"
       id="linearGradient15"
       x1="3"
       y1="12.5"
       x2="13"
       y2="12.5"
       gradientUnits="userSpaceOnUse" />
  </defs>
  <path
     class="ColorScheme-Text"
     d="m 2.8928598,2.0000002 c -0.76329,0 -1.39286,0.678 -1.39286,1.5 V 12.5 c 0,0.82299 0.62957,1.5 1.39286,1.5 H 13.10714 C 13.87043,14 14.5,13.32299 14.5,12.5 V 3.5000002 c 0,-0.822 -0.62957,-1.5 -1.39286,-1.5 z m 0,1 h 3.25 0.92857 v 0 H 10.6 v 0 0 0 h 2.50714 c 0.26557,0 0.46428,0.215 0.46428,0.5 V 12.5 c 0,0.28599 0.0526,-0.5 0.0526,-0.5 H 2.0000198 c 0,0 0.42212,0.77897 0.42857,0.5 V 3.5000002 c 0,-0.285 0.19872,-0.5 0.4642901,-0.5 z m 4.17857,0 h 1.85714 v 0 0 z"
     font-family="sans-serif"
     font-weight="400"
     overflow="visible"
     id="path22"
     sodipodi:nodetypes="sssssssssscccccccssscccssccccc"
     style="color:#d5c289;fill:url(#linearGradient26);stroke-width:0.861892" />
  <g
     color="#bebebe"
     fill="#474747"
     id="g2"
     transform="matrix(0.6,0,0,0.6,1.951828,2.5357704)">
    <path
       d="m 3,3 h 8 V 4 H 3 Z M 3,6 H 13 V 7 H 3 Z m 0,3 h 4 v 1 H 3 Z"
       style="marker:none;fill:url(#linearGradient13);fill-opacity:1"
       overflow="visible"
       id="path1" />
    <path
       d="m 3,12 h 10 v 1 H 3 Z"
       id="path2"
       style="fill:url(#linearGradient15);fill-opacity:1" />
  </g>
  <path
     inkscape:connector-curvature="0"
     id="path985-2-4"
     d="m 10.520415,6.0437991 c -0.834518,0 -1.5060887,0.6714855 -1.5060887,1.504959 V 8.020265 H 8.5483256 C 8.3892744,8.020265 8.261,8.1239672 8.261,8.2529825 v 2.3580995 c 0,0.129016 0.1282704,0.232717 0.2873256,0.232717 h 3.9436704 c 0.15905,10e-7 0.286759,-0.103704 0.286759,-0.232717 V 8.2529825 c 0,-0.1290183 -0.127714,-0.2327175 -0.286759,-0.2327175 h -0.466 V 7.5487581 c 0,-0.8334735 -0.67205,-1.504959 -1.505524,-1.504959 z m 0,0.5376911 c 0.520776,0 0.967819,0.4465464 0.967819,0.9683831 V 8.0202785 H 9.55254 V 7.5487717 c 0,-0.520777 0.445981,-0.9672815 0.967818,-0.9672815 z"
     style="fill:url(#linearGradient8);stroke-width:0.6" />
</svg>
