<?xml version="1.0" encoding="UTF-8" standalone="no"?>
<svg
   width="16"
   height="16"
   x="0"
   y="0"
   version="1.1"
   viewBox="0 0 16 16"
   xml:space="preserve"
   id="svg22"
   sodipodi:docname="gnupg.svg"
   inkscape:version="1.3.2 (091e20ef0f, 2023-11-25)"
   xmlns:inkscape="http://www.inkscape.org/namespaces/inkscape"
   xmlns:sodipodi="http://sodipodi.sourceforge.net/DTD/sodipodi-0.dtd"
   xmlns:xlink="http://www.w3.org/1999/xlink"
   xmlns="http://www.w3.org/2000/svg"
   xmlns:svg="http://www.w3.org/2000/svg"><sodipodi:namedview
   id="namedview22"
   pagecolor="#ffffff"
   bordercolor="#000000"
   borderopacity="0.25"
   inkscape:showpageshadow="2"
   inkscape:pageopacity="0.0"
   inkscape:pagecheckerboard="0"
   inkscape:deskcolor="#d1d1d1"
   showgrid="true"
   inkscape:zoom="23.96875"
   inkscape:cx="6.7588005"
   inkscape:cy="5.8617992"
   inkscape:window-width="1920"
   inkscape:window-height="994"
   inkscape:window-x="0"
   inkscape:window-y="0"
   inkscape:window-maximized="1"
   inkscape:current-layer="svg22"><inkscape:grid
     id="grid22"
     units="px"
     originx="0"
     originy="0"
     spacingx="1"
     spacingy="1"
     empcolor="#0099e5"
     empopacity="0.30196078"
     color="#0099e5"
     opacity="0.14901961"
     empspacing="5"
     dotted="false"
     gridanglex="30"
     gridanglez="30"
     visible="true" /></sodipodi:namedview>
<defs
   id="defs22"><linearGradient
   id="linearGradient22"
   inkscape:collect="always"><stop
     style="stop-color:#2ad4ff;stop-opacity:1"
     offset="0"
     id="stop23" /><stop
     style="stop-color:#d35f8d;stop-opacity:1"
     offset="1"
     id="stop24" /></linearGradient>
  <style
   id="current-color-scheme"
   type="text/css">
   .ColorScheme-Text { color:#d5c289; } .ColorScheme-Highlight { color:#5294e2; }
  </style>
  <linearGradient
   id="arrongin"
   x1="0%"
   x2="0%"
   y1="0%"
   y2="100%">
   <stop
   offset="0%"
   style="stop-color:#dd9b44; stop-opacity:1"
   id="stop1" />
   <stop
   offset="100%"
   style="stop-color:#ad6c16; stop-opacity:1"
   id="stop2" />
  </linearGradient>
  <linearGradient
   id="aurora"
   x1="0%"
   x2="0%"
   y1="0%"
   y2="100%">
   <stop
   offset="0%"
   style="stop-color:#09D4DF; stop-opacity:1"
   id="stop3" />
   <stop
   offset="100%"
   style="stop-color:#9269F4; stop-opacity:1"
   id="stop4" />
  </linearGradient>
  <linearGradient
   id="fitdance"
   x1="0%"
   x2="0%"
   y1="0%"
   y2="100%">
   <stop
   offset="0%"
   style="stop-color:#1AD6AB; stop-opacity:1"
   id="stop5" />
   <stop
   offset="100%"
   style="stop-color:#329DB6; stop-opacity:1"
   id="stop6" />
  </linearGradient>
  <linearGradient
   id="oomox"
   x1="2.9225313"
   x2="2.9225313"
   y1="0.42816459"
   y2="13.259054"
   gradientTransform="matrix(0.77936932,0,0,1.0131798,0.72226869,1.0661923)"
   gradientUnits="userSpaceOnUse">
   <stop
   offset="0%"
   style="stop-color:#303b3d; stop-opacity:1"
   id="stop7" />
   <stop
   offset="100%"
   style="stop-color:#bc985d; stop-opacity:1"
   id="stop8" />
  </linearGradient>
  <linearGradient
   id="rainblue"
   x1="0%"
   x2="0%"
   y1="0%"
   y2="100%">
   <stop
   offset="0%"
   style="stop-color:#00F260; stop-opacity:1"
   id="stop9" />
   <stop
   offset="100%"
   style="stop-color:#0575E6; stop-opacity:1"
   id="stop10" />
  </linearGradient>
  <linearGradient
   id="sunrise"
   x1="0%"
   x2="0%"
   y1="0%"
   y2="100%">
   <stop
   offset="0%"
   style="stop-color: #FF8501; stop-opacity:1"
   id="stop11" />
   <stop
   offset="100%"
   style="stop-color: #FFCB01; stop-opacity:1"
   id="stop12" />
  </linearGradient>
  <linearGradient
   id="telinkrin"
   x1="0%"
   x2="0%"
   y1="0%"
   y2="100%">
   <stop
   offset="0%"
   style="stop-color: #b2ced6; stop-opacity:1"
   id="stop13" />
   <stop
   offset="100%"
   style="stop-color: #6da5b7; stop-opacity:1"
   id="stop14" />
  </linearGradient>
  <linearGradient
   id="60spsycho"
   x1="0%"
   x2="0%"
   y1="0%"
   y2="100%">
   <stop
   offset="0%"
   style="stop-color: #df5940; stop-opacity:1"
   id="stop15" />
   <stop
   offset="25%"
   style="stop-color: #d8d15f; stop-opacity:1"
   id="stop16" />
   <stop
   offset="50%"
   style="stop-color: #e9882a; stop-opacity:1"
   id="stop17" />
   <stop
   offset="100%"
   style="stop-color: #279362; stop-opacity:1"
   id="stop18" />
  </linearGradient>
  <linearGradient
   id="90ssummer"
   x1="0%"
   x2="0%"
   y1="0%"
   y2="100%">
   <stop
   offset="0%"
   style="stop-color: #f618c7; stop-opacity:1"
   id="stop19" />
   <stop
   offset="20%"
   style="stop-color: #94ffab; stop-opacity:1"
   id="stop20" />
   <stop
   offset="50%"
   style="stop-color: #fbfd54; stop-opacity:1"
   id="stop21" />
   <stop
   offset="100%"
   style="stop-color: #0f83ae; stop-opacity:1"
   id="stop22" />
  </linearGradient>
 <linearGradient
   inkscape:collect="always"
   xlink:href="#linearGradient22"
   id="linearGradient24"
   x1="3.1251631"
   y1="14.550197"
   x2="9.9543686"
   y2="4.7457638"
   gradientUnits="userSpaceOnUse" /></defs>
 <path
   d="M 7.9999946,1.5 C 5.5377764,1.5 3.5555568,3.3856596 3.5555568,5.7278551 V 7.8417985 H 3 V 10.847557 L 3.2256866,10.566823 C 3.5486522,10.154252 4.4094686,9.5649184 5.0833236,9.3117059 5.4383417,9.1780575 6.2907664,9.0319609 7.253462,8.9318551 8.7039329,8.7765865 11.444366,8.8987706 12.444432,7.8418319 V 5.7278878 c 0,-2.3421953 -1.982222,-4.227855 -4.4444432,-4.227855 z M 8.3645794,2.011993 C 8.5752183,2.025093 8.7816903,2.04704 8.9895784,2.09454 9.7364514,2.2652048 9.8207766,2.4297434 9.0937433,2.2927202 7.9498617,2.0771792 6.4305454,2.5613284 5.4999978,3.4487827 5.2217631,3.7141145 4.8707053,4.1535179 4.7187472,4.4232067 4.4056644,4.9788974 4.4549063,4.6210592 4.7882021,3.9442334 5.3975396,2.7069662 6.8900523,1.9301329 8.3645891,2.011993 Z M 7.9999946,3.5 C 9.5433933,3.4514404 10.522,4.5266374 10.522,5.7278551 V 7.8417985 H 5.478 V 5.7278551 C 5.478,4.5567575 6.5395331,3.5459501 7.9999946,3.5 Z m 4.9999984,5.2699696 -0.590276,0.4623989 c -0.320831,0.2597637 -0.822917,0.6151442 -1.128476,0.7927195 -0.625347,0.363574 -2.1079655,0.8753 -2.5520774,0.8753 -0.1670445,0 -0.2649778,0.03832 -0.2256875,0.09926 0.074032,0.114314 0.9616869,0.06259 1.8923629,-0.115635 0.30554,-0.05865 1.014581,-0.322328 1.579858,-0.594538 L 13.000001,9.7940213 V 9.282061 Z m 0,1.1395214 -0.312492,0.412899 c -1.036509,1.359097 -2.7243188,2.11218 -5.0694443,2.246055 -1.5663792,0.08941 -0.992889,0.258778 0.8854159,0.264021 1.2723769,0.0017 1.5591714,-0.03504 2.3263884,-0.280726 0.479984,-0.153634 0.878554,-0.270906 0.902778,-0.247971 0.08737,0.08321 -0.85164,0.82246 -1.37153,1.073483 -0.9961111,0.480939 -1.6744074,0.615959 -3.4722177,0.693633 -1.2771141,0.0553 -1.8014284,0.117928 -2.0486098,0.247642 -0.3147358,0.164765 -0.1067825,0.176228 3.9062475,0.181474 h 4.253468 z"
   id="path22"
   sodipodi:nodetypes="cscccccccsccccccccccssccsscccscccccccccccccccccc"
   style="fill:url(#linearGradient24);fill-opacity:1" />
</svg>
