<?xml version="1.0" encoding="UTF-8" standalone="no"?>
<svg
   height="16"
   width="16"
   version="1.1"
   id="svg2144"
   sodipodi:docname="org.nicotine_plus.Nicotine-connect.svg"
   inkscape:version="1.3.2 (091e20ef0f, 2023-11-25)"
   xmlns:inkscape="http://www.inkscape.org/namespaces/inkscape"
   xmlns:sodipodi="http://sodipodi.sourceforge.net/DTD/sodipodi-0.dtd"
   xmlns:xlink="http://www.w3.org/1999/xlink"
   xmlns="http://www.w3.org/2000/svg"
   xmlns:svg="http://www.w3.org/2000/svg">
  <defs
     id="defs2148">
    <linearGradient
       id="linearGradient2946"
       gradientTransform="matrix(-1.4488887,-0.38822857,0.38822857,-1.4488887,89.575874,88.15407)"
       gradientUnits="userSpaceOnUse"
       x1="-27.382999"
       x2="-20.311001"
       y1="21.552999"
       y2="47.945999">
      <stop
         offset="0"
         stop-color="#afb4b9"
         id="stop2121-1" />
      <stop
         offset="1"
         stop-color="#cfd2d5"
         id="stop2123-8" />
    </linearGradient>
    <linearGradient
       id="linearGradient2950"
       gradientUnits="userSpaceOnUse"
       x1="16"
       x2="16"
       y1="27"
       y2="5"
       gradientTransform="matrix(1.5,0,0,1.5,118.11865,23.067798)">
      <stop
         offset="0"
         stop-color="#1d99f3"
         id="stop2110-7" />
      <stop
         offset="1"
         stop-color="#56b3f6"
         id="stop2112-9" />
    </linearGradient>
    <linearGradient
       id="linearGradient2952"
       gradientUnits="userSpaceOnUse"
       x1="11"
       x2="20.947001"
       xlink:href="#a"
       y1="11"
       y2="20.947001"
       gradientTransform="matrix(1.5,0,0,1.5,118.11865,23.067798)" />
    <linearGradient
       id="linearGradient2956">
      <stop
         offset="0"
         stop-color="#292c2f"
         id="stop2104-2" />
      <stop
         offset="1"
         stop-color="#0e0f10"
         stop-opacity="0"
         id="stop2106-0" />
    </linearGradient>
    <linearGradient
       id="linearGradient2958"
       gradientUnits="userSpaceOnUse"
       x1="23"
       x2="30"
       xlink:href="#a"
       y1="15"
       y2="22"
       gradientTransform="matrix(1.5,0,0,1.5,118.11865,23.067798)" />
    <linearGradient
       id="linearGradient2960"
       gradientUnits="userSpaceOnUse"
       x1="24"
       x2="24"
       xlink:href="#b"
       y1="25"
       y2="7"
       gradientTransform="matrix(1.5,0,0,1.5,118.11865,23.067798)" />
    <linearGradient
       id="linearGradient2964">
      <stop
         offset="0"
         stop-color="#eff0f1"
         id="stop2099-2" />
      <stop
         offset="1"
         stop-color="#fcfcfc"
         id="stop2101-3" />
    </linearGradient>
    <linearGradient
       id="linearGradient2966"
       gradientUnits="userSpaceOnUse"
       x1="15"
       x2="22"
       xlink:href="#a"
       y1="15"
       y2="22"
       gradientTransform="matrix(1.5,0,0,1.5,118.11865,23.067798)" />
    <linearGradient
       id="linearGradient2968"
       gradientUnits="userSpaceOnUse"
       x1="16"
       x2="16"
       xlink:href="#b"
       y1="25"
       y2="7"
       gradientTransform="matrix(1.5,0,0,1.5,118.11865,23.067798)" />
    <linearGradient
       id="linearGradient2970"
       gradientUnits="userSpaceOnUse"
       x1="9.6359997"
       x2="17.271999"
       xlink:href="#a"
       y1="22.364"
       y2="30"
       gradientTransform="matrix(1.5,0,0,1.5,118.11865,23.067798)" />
    <linearGradient
       id="linearGradient2972"
       gradientUnits="userSpaceOnUse"
       x1="7"
       x2="7"
       xlink:href="#b"
       y1="25"
       y2="7"
       gradientTransform="matrix(1.5,0,0,1.5,118.11865,23.067798)" />
    <filter
       inkscape:collect="always"
       style="color-interpolation-filters:sRGB"
       id="filter3"
       x="-0.13912554"
       y="-0.15581932"
       width="1.2782511"
       height="1.3116386">
      <feGaussianBlur
         inkscape:collect="always"
         stdDeviation="8.430934"
         id="feGaussianBlur3" />
    </filter>
    <linearGradient
       inkscape:collect="always"
       xlink:href="#linearGradient5"
       id="linearGradient6"
       x1="-9.9871616"
       y1="-13.826643"
       x2="131.47385"
       y2="142.43074"
       gradientUnits="userSpaceOnUse"
       gradientTransform="matrix(2.3124746,0,0,2.4277193,165.89669,145.53071)" />
    <linearGradient
       id="linearGradient5"
       inkscape:collect="always">
      <stop
         style="stop-color:#ffcba7;stop-opacity:1;"
         offset="0"
         id="stop5" />
      <stop
         style="stop-color:#ff8f44;stop-opacity:1;"
         offset="1"
         id="stop6" />
    </linearGradient>
  </defs>
  <sodipodi:namedview
     id="namedview2146"
     pagecolor="#ffffff"
     bordercolor="#000000"
     borderopacity="0.25"
     inkscape:showpageshadow="2"
     inkscape:pageopacity="0.0"
     inkscape:pagecheckerboard="0"
     inkscape:deskcolor="#d1d1d1"
     showgrid="true"
     inkscape:zoom="29.5"
     inkscape:cx="9.3559322"
     inkscape:cy="12.711864"
     inkscape:window-width="1920"
     inkscape:window-height="998"
     inkscape:window-x="0"
     inkscape:window-y="0"
     inkscape:window-maximized="1"
     inkscape:current-layer="svg2144">
    <inkscape:grid
       id="grid1"
       units="px"
       originx="0"
       originy="0"
       spacingx="1"
       spacingy="1"
       empcolor="#0099e5"
       empopacity="0.30196078"
       color="#0099e5"
       opacity="0.14901961"
       empspacing="5"
       dotted="false"
       gridanglex="30"
       gridanglez="30"
       visible="true" />
  </sodipodi:namedview>
  <linearGradient
     id="b">
    <stop
       offset="0"
       stop-color="#eff0f1"
       id="stop2099" />
    <stop
       offset="1"
       stop-color="#fcfcfc"
       id="stop2101" />
  </linearGradient>
  <linearGradient
     id="a">
    <stop
       offset="0"
       stop-color="#292c2f"
       id="stop2104" />
    <stop
       offset="1"
       stop-color="#0e0f10"
       stop-opacity="0"
       id="stop2106" />
  </linearGradient>
  <linearGradient
     id="f"
     gradientUnits="userSpaceOnUse"
     x1="23"
     x2="30"
     xlink:href="#a"
     y1="15"
     y2="22"
     gradientTransform="matrix(1.5,0,0,1.5,118.11865,23.067798)" />
  <linearGradient
     id="d"
     gradientUnits="userSpaceOnUse"
     x1="16"
     x2="16"
     y1="27"
     y2="5"
     gradientTransform="matrix(1.5,0,0,1.5,118.11865,23.067798)">
    <stop
       offset="0"
       stop-color="#1d99f3"
       id="stop2110" />
    <stop
       offset="1"
       stop-color="#56b3f6"
       id="stop2112" />
  </linearGradient>
  <linearGradient
     id="k"
     gradientUnits="userSpaceOnUse"
     x1="7"
     x2="7"
     xlink:href="#b"
     y1="25"
     y2="7"
     gradientTransform="matrix(1.5,0,0,1.5,118.11865,23.067798)" />
  <linearGradient
     id="i"
     gradientUnits="userSpaceOnUse"
     x1="16"
     x2="16"
     xlink:href="#b"
     y1="25"
     y2="7"
     gradientTransform="matrix(1.5,0,0,1.5,118.11865,23.067798)" />
  <linearGradient
     id="g"
     gradientUnits="userSpaceOnUse"
     x1="24"
     x2="24"
     xlink:href="#b"
     y1="25"
     y2="7"
     gradientTransform="matrix(1.5,0,0,1.5,118.11865,23.067798)" />
  <linearGradient
     id="e"
     gradientUnits="userSpaceOnUse"
     x1="11"
     x2="20.947001"
     xlink:href="#a"
     y1="11"
     y2="20.947001"
     gradientTransform="matrix(1.5,0,0,1.5,118.11865,23.067798)" />
  <linearGradient
     id="h"
     gradientUnits="userSpaceOnUse"
     x1="15"
     x2="22"
     xlink:href="#a"
     y1="15"
     y2="22"
     gradientTransform="matrix(1.5,0,0,1.5,118.11865,23.067798)" />
  <linearGradient
     id="j"
     gradientUnits="userSpaceOnUse"
     x1="9.6359997"
     x2="17.271999"
     xlink:href="#a"
     y1="22.364"
     y2="30"
     gradientTransform="matrix(1.5,0,0,1.5,118.11865,23.067798)" />
  <linearGradient
     id="c"
     gradientTransform="matrix(-1.4488887,-0.38822857,0.38822857,-1.4488887,89.575874,88.15407)"
     gradientUnits="userSpaceOnUse"
     x1="-27.382999"
     x2="-20.311001"
     y1="21.552999"
     y2="47.945999">
    <stop
       offset="0"
       stop-color="#afb4b9"
       id="stop2121" />
    <stop
       offset="1"
       stop-color="#cfd2d5"
       id="stop2123" />
  </linearGradient>
  <g
     id="g3"
     transform="matrix(0.08606306,0,0,0.08220394,2.1478886,2.7396975)"
     style="stroke-width:3.35023">
    <path
       fill="#f9aa40"
       d="M -4.7229076,4.2663576 V 123.73389 a 5.1942403,5.1942403 0 0 0 5.19424028,5.19424 H 16.054053 a 5.1942403,5.1942403 0 0 0 5.194241,-5.19424 V 25.043319 h 5.19424 c 2.869818,0 7.557619,-0.105183 10.352121,0.516827 5.40201,1.202467 8.705546,4.506003 9.908013,9.908013 0.623309,2.794502 0.516827,7.482303 0.516827,10.352121 v 77.91361 a 5.1942403,5.1942403 0 0 0 5.19424,5.19424 h 15.582721 a 5.1942403,5.1942403 0 0 0 5.19424,-5.19424 v -15.58273 h 20.776961 v 15.58273 a 5.1942403,5.1942403 0 0 0 5.19424,5.19424 h 15.582723 a 5.1942403,5.1942403 0 0 0 5.19424,-5.19424 v -15.58273 h 15.58272 a 5.1942403,5.1942403 0 0 0 5.19424,-5.19424 V 92.568442 a 5.1942403,5.1942403 0 0 0 -5.19424,-5.19424 H 119.93886 V 66.597241 a 5.1942403,5.1942403 0 0 0 -5.19424,-5.19424 H 99.161897 a 5.1942403,5.1942403 0 0 0 -5.19424,5.19424 V 87.374202 H 73.190696 V 45.82028 c 0,-2.869818 0.02987,-7.53035 -0.318147,-10.375495 C 70.772777,18.281717 58.488399,2.3159204 42.000582,-0.49156637 c -2.824368,-0.4804673 -7.49399,-0.4363162 -10.363808,-0.4363162 H 0.47133268 A 5.1942403,5.1942403 0 0 0 -4.7229076,4.2663576 Z"
       id="path2"
       style="opacity:0.25;fill:#000000;fill-opacity:1;stroke-width:4.35029;filter:url(#filter3)" />
    <path
       fill="#f9aa40"
       d="M -4.7218437,4.2680101 V 123.73309 a 5.1941339,5.1941339 0 0 0 5.19413321,5.19414 H 16.054689 a 5.1941339,5.1941339 0 0 0 5.194137,-5.19414 V 25.044546 h 5.194133 c 2.869757,0 7.557463,-0.105184 10.35191,0.516815 5.401896,1.202444 8.705367,4.505912 9.907808,9.907812 0.623297,2.794443 0.516818,7.482149 0.516818,10.351906 v 77.912011 a 5.1941339,5.1941339 0 0 0 5.194133,5.19414 h 15.5824 a 5.1941339,5.1941339 0 0 0 5.194133,-5.19414 v -15.58241 h 20.776536 v 15.58241 a 5.1941339,5.1941339 0 0 0 5.194133,5.19414 h 15.5824 a 5.1941339,5.1941339 0 0 0 5.19414,-5.19414 v -15.58241 h 15.5824 a 5.1941339,5.1941339 0 0 0 5.19413,-5.19413 V 92.568285 a 5.1941339,5.1941339 0 0 0 -5.19413,-5.194134 h -15.5824 V 66.597615 a 5.1941339,5.1941339 0 0 0 -5.19414,-5.194133 h -15.5824 a 5.1941339,5.1941339 0 0 0 -5.194133,5.194133 V 87.374151 H 73.190161 V 45.821079 c 0,-2.869757 0.02981,-7.530195 -0.318143,-10.375282 C 70.77229,18.283082 58.488163,2.3176125 42.000684,-0.4898186 39.176375,-0.9702727 34.506849,-0.926123 31.637088,-0.926123 H 0.47228596 A 5.1941339,5.1941339 0 0 0 -4.7218437,4.2680101 Z"
       id="path2-7"
       style="fill:url(#linearGradient6);fill-opacity:1;stroke-width:4.35019" />
  </g>
  <circle
     id="path3-3"
     cx="11.4"
     cy="5"
     style="stroke-width:1;fill:#00d455"
     r="1.5" />
  <ellipse
     id="path1-3"
     cx="11.4"
     cy="5"
     rx="0.46199977"
     ry="0.46200001" />
</svg>
