<?xml version="1.0" encoding="UTF-8" standalone="no"?>
<svg
   width="16"
   height="16"
   viewBox="0 0 16 16"
   fill="none"
   version="1.1"
   id="svg16"
   sodipodi:docname="darktable.svg"
   inkscape:version="1.3.2 (091e20ef0f, 2023-11-25)"
   xmlns:inkscape="http://www.inkscape.org/namespaces/inkscape"
   xmlns:sodipodi="http://sodipodi.sourceforge.net/DTD/sodipodi-0.dtd"
   xmlns:xlink="http://www.w3.org/1999/xlink"
   xmlns="http://www.w3.org/2000/svg"
   xmlns:svg="http://www.w3.org/2000/svg">
  <sodipodi:namedview
     id="namedview16"
     pagecolor="#ffffff"
     bordercolor="#000000"
     borderopacity="0.25"
     inkscape:showpageshadow="2"
     inkscape:pageopacity="0.0"
     inkscape:pagecheckerboard="0"
     inkscape:deskcolor="#d1d1d1"
     inkscape:zoom="23.96875"
     inkscape:cx="8.2190352"
     inkscape:cy="9.4915254"
     inkscape:window-width="1920"
     inkscape:window-height="994"
     inkscape:window-x="0"
     inkscape:window-y="0"
     inkscape:window-maximized="1"
     inkscape:current-layer="svg16" />
  <path
     stroke-width="0.674241"
     id="path1"
     d="m 7.0034229,1.5763655 c 1.4213507,-0.2217181 2.9138932,0.042693 4.1674311,0.7497995 1.207727,0.6726493 2.190011,1.7422927 2.756452,3.0036955 0.645918,1.4194446 0.748527,3.0740991 0.292226,4.5647018 -0.447318,1.4831157 -1.449835,2.7871937 -2.761718,3.6081887 -1.045223,0.66212 -2.2837709,1.008968 -3.5200638,0.996947 C 6.3882646,14.487 4.8492688,13.901278 3.6938988,12.867593 2.686129,11.979913 1.9638373,10.772456 1.6656278,9.4623664 1.3307074,8.0136972 1.5060328,6.4511882 2.1706329,5.1193705 3.0824967,3.2489907 4.9421869,1.8782327 7.0034229,1.5763655 Z m 0.00313,0.9026051 C 5.2562989,2.7778424 3.700058,3.9755719 2.9388038,5.5747996 2.2202578,7.060906 2.210515,8.8691075 2.9102898,10.364212 c 0.484014,1.041182 1.2992238,1.924289 2.2934939,2.498099 0.9748159,0.564822 2.1241782,0.815715 3.2465936,0.724366 1.1508773,-0.08698 2.2687897,-0.546054 3.1491747,-1.290648 0.911762,-0.761795 1.575647,-1.817209 1.850667,-2.9737387 C 13.74019,8.1223128 13.627008,6.8249559 13.115973,5.6991342 12.601221,4.5493471 11.684215,3.5875676 10.564805,3.0115457 9.4806181,2.4490049 8.2083608,2.2617502 7.0065269,2.4789706 Z"
     style="fill:url(#linearGradient3);fill-opacity:1" />
  <path
     d="m 7.9707784,3.9546174 c 1.119406,-0.064429 2.2320656,0.4823832 2.9123956,1.3625128 0.066,0.1131103 -0.06367,0.2224673 -0.101832,0.3235894 C 10.456143,6.1598114 10.196909,6.7215983 9.8387438,7.2182181 9.2153627,6.1313508 8.5702378,5.0557197 7.9708204,3.9546174 Z"
     fill="url(#paint0_linear_644_78)"
     id="path2"
     style="fill:url(#paint0_linear_644_78);stroke-width:0.112371" />
  <path
     d="M 4.355858,5.8781763 C 4.8421348,4.8699598 5.8731265,4.1913209 6.9678062,4.0310318 7.0809475,4.0197978 7.1184053,4.1501301 7.1753599,4.2212867 7.4915406,4.7763324 7.8174754,5.3261304 8.1261754,5.8856696 6.8696483,5.8969036 5.6116278,5.9111459 4.355858,5.8782134 Z"
     fill="url(#paint1_linear_644_78)"
     id="path3"
     style="fill:url(#paint1_linear_644_78);stroke-width:0.112371" />
  <path
     d="m 9.6588364,9.1979441 c 0.6203896,-1.093608 1.2595156,-2.175992 1.8881516,-3.2636113 0.672893,0.9295769 0.723808,2.2052044 0.29297,3.2486348 -0.267487,0.113098 -0.554458,0.023959 -0.833181,0.038205 -0.448819,0.023218 -0.902131,0.052424 -1.3479406,-0.023228 z"
     fill="url(#paint2_linear_644_78)"
     id="path4"
     style="fill:url(#paint2_linear_644_78);stroke-width:0.112371" />
  <path
     d="m 4.1557646,6.7156094 c 0.04724,-0.090629 0.1700853,-0.059168 0.2517556,-0.070406 0.6323827,0.00526 1.2640185,-0.00223 1.8963906,0.00526 C 5.9585005,7.3732958 5.5119436,8.0444403 5.1260665,8.747045 4.8870525,9.1328131 4.6982385,9.5522772 4.4210096,9.9133163 3.8155942,8.9725125 3.7114491,7.7425702 4.1557646,6.7156231 Z"
     fill="#ff3662"
     id="path5"
     style="stroke-width:0.112371" />
  <path
     d="M 5.1973199,10.236869 C 5.5060096,9.7507423 5.7435394,9.2159211 6.0926853,8.7582447 6.7183339,9.8496173 7.3694455,10.928248 7.9733561,12.030847 6.879423,12.117039 5.7869843,11.572426 5.0946587,10.740978 4.926078,10.579941 5.1239087,10.391918 5.1973519,10.236869 Z"
     fill="url(#paint3_linear_644_78)"
     id="path6"
     style="fill:url(#paint3_linear_644_78);stroke-width:0.112371" />
  <path
     d="m 7.8719995,10.05414 c 1.2542748,-0.0021 2.5092875,-0.0043 3.7643165,0.0021 -0.463799,1.049419 -1.550231,1.733293 -2.6636495,1.885345 C 8.8190581,11.813607 8.7501294,11.617366 8.6459847,11.451833 8.3912407,10.983668 8.0952726,10.537982 7.8719995,10.054105 Z"
     fill="url(#paint4_linear_644_78)"
     id="path7"
     style="fill:url(#paint4_linear_644_78);stroke-width:0.112371" />
  <defs
     id="defs16">
    <linearGradient
       id="linearGradient2"
       inkscape:collect="always">
      <stop
         style="stop-color:#ff00ff;stop-opacity:1"
         offset="0"
         id="stop2" />
      <stop
         style="stop-color:#00aad4;stop-opacity:1"
         offset="1"
         id="stop3" />
    </linearGradient>
    <linearGradient
       id="linearGradient23"
       x1="48.2616"
       y1="44.981701"
       x2="48.2616"
       y2="28.354"
       gradientUnits="userSpaceOnUse"
       gradientTransform="matrix(0.10684107,0,0,0.10681573,1.1714658,1.1975898)">
      <stop
         stop-color="#FD2E00"
         id="stop22"
         style="stop-color:#00ccff;stop-opacity:1" />
      <stop
         offset="1"
         stop-color="#FF9900"
         id="stop23"
         style="stop-color:#ff55dd;stop-opacity:1" />
    </linearGradient>
    <linearGradient
       id="linearGradient21"
       x1="48.2616"
       y1="44.981701"
       x2="48.2616"
       y2="28.354"
       gradientUnits="userSpaceOnUse"
       gradientTransform="matrix(0.10684107,0,0,0.10681573,1.1714658,1.1975898)">
      <stop
         stop-color="#FD2E00"
         id="stop20"
         style="stop-color:#00ccff;stop-opacity:1" />
      <stop
         offset="1"
         stop-color="#FF9900"
         id="stop21"
         style="stop-color:#ff55dd;stop-opacity:1" />
    </linearGradient>
    <linearGradient
       id="paint0_linear_644_78"
       x1="76.690804"
       y1="56.726601"
       x2="76.690804"
       y2="27.6343"
       gradientUnits="userSpaceOnUse"
       gradientTransform="matrix(0.1123903,0,0,0.1123574,0.81687434,0.84456374)">
      <stop
         stop-color="#5570FF"
         id="stop7" />
      <stop
         offset="1"
         stop-color="#4DD3FF"
         id="stop8" />
    </linearGradient>
    <linearGradient
       id="paint1_linear_644_78"
       x1="48.2616"
       y1="44.981701"
       x2="48.2616"
       y2="28.354"
       gradientUnits="userSpaceOnUse"
       gradientTransform="matrix(0.1123903,0,0,0.1123574,0.81687434,0.84456374)">
      <stop
         stop-color="#FD2E00"
         id="stop9" />
      <stop
         offset="1"
         stop-color="#FF9900"
         id="stop10" />
    </linearGradient>
    <linearGradient
       id="paint2_linear_644_78"
       x1="89.609802"
       y1="74.780098"
       x2="89.609802"
       y2="45.299801"
       gradientUnits="userSpaceOnUse"
       gradientTransform="matrix(0.1123903,0,0,0.1123574,0.81687434,0.84456374)">
      <stop
         stop-color="#00B59C"
         id="stop11" />
      <stop
         offset="1"
         stop-color="#9CFFAC"
         id="stop12" />
    </linearGradient>
    <linearGradient
       id="paint3_linear_644_78"
       x1="50.574001"
       y1="70.433098"
       x2="50.574001"
       y2="99.639297"
       gradientUnits="userSpaceOnUse"
       gradientTransform="matrix(0.1123903,0,0,0.1123574,0.81687434,0.84456374)">
      <stop
         stop-color="#00FFE0"
         id="stop13" />
      <stop
         offset="1"
         stop-color="#078AA7"
         id="stop14" />
    </linearGradient>
    <linearGradient
       id="paint4_linear_644_78"
       x1="62.778301"
       y1="90.107498"
       x2="96.272301"
       y2="90.107498"
       gradientUnits="userSpaceOnUse"
       gradientTransform="matrix(0.1123903,0,0,0.1123574,0.81687434,0.84456374)">
      <stop
         stop-color="#A93AFF"
         id="stop15" />
      <stop
         offset="1"
         stop-color="#FF81FF"
         id="stop16" />
    </linearGradient>
    <linearGradient
       inkscape:collect="always"
       xlink:href="#linearGradient2"
       id="linearGradient3"
       x1="1.8208625"
       y1="8.0001062"
       x2="14.178993"
       y2="8.0001062"
       gradientUnits="userSpaceOnUse"
       gradientTransform="matrix(1.0519391,0,0,1.0518807,-0.41543626,-0.41515788)" />
  </defs>
</svg>
