<?xml version="1.0" encoding="UTF-8" standalone="no"?>
<svg
   xml:space="preserve"
   width="16"
   height="16"
   version="1.1"
   id="svg5"
   sodipodi:docname="cachyos-pi.svg"
   inkscape:version="1.4 (e7c3feb100, 2024-10-09)"
   xmlns:inkscape="http://www.inkscape.org/namespaces/inkscape"
   xmlns:sodipodi="http://sodipodi.sourceforge.net/DTD/sodipodi-0.dtd"
   xmlns:xlink="http://www.w3.org/1999/xlink"
   xmlns="http://www.w3.org/2000/svg"
   xmlns:svg="http://www.w3.org/2000/svg"><sodipodi:namedview
     id="namedview5"
     pagecolor="#ffffff"
     bordercolor="#000000"
     borderopacity="0.25"
     inkscape:showpageshadow="2"
     inkscape:pageopacity="0.0"
     inkscape:pagecheckerboard="0"
     inkscape:deskcolor="#d1d1d1"
     inkscape:zoom="33.14563"
     inkscape:cx="10.378442"
     inkscape:cy="10.98184"
     inkscape:window-width="1920"
     inkscape:window-height="996"
     inkscape:window-x="0"
     inkscape:window-y="0"
     inkscape:window-maximized="1"
     inkscape:current-layer="svg5" /><defs
     id="defs5"><linearGradient
       id="linearGradient5"
       inkscape:collect="always"><stop
         style="stop-color:#065543;stop-opacity:1;"
         offset="0"
         id="stop6" /><stop
         style="stop-color:#0ba683;stop-opacity:1;"
         offset="0.48801318"
         id="stop8" /><stop
         style="stop-color:#065543;stop-opacity:1;"
         offset="1"
         id="stop7" /></linearGradient><linearGradient
       id="a"><stop
         offset="0"
         style="stop-color:#065142;stop-opacity:1"
         id="stop1" /><stop
         offset=".5"
         style="stop-color:#038550;stop-opacity:1"
         id="stop2" /><stop
         offset="1"
         style="stop-color:#065543;stop-opacity:1"
         id="stop3" /></linearGradient><linearGradient
       id="b"
       x1="7.9369998"
       x2="7.9369998"
       y1="15.081"
       y2="1.852"
       gradientTransform="matrix(3.7795,0,0,3.7795,0,0.032)"
       gradientUnits="userSpaceOnUse"><stop
         offset="0"
         stop-color="#292929"
         id="stop4" /><stop
         offset="1"
         stop-color="#4d4d4d"
         id="stop5" /></linearGradient><linearGradient
       xlink:href="#a"
       id="c"
       x1="-45.293999"
       x2="-6.4840002"
       y1="32"
       y2="32"
       gradientTransform="matrix(0.33496526,0,0,0.33467202,16.671916,-2.7095037)"
       gradientUnits="userSpaceOnUse" /><linearGradient
       inkscape:collect="always"
       xlink:href="#linearGradient5"
       id="linearGradient7"
       x1="1.4999997"
       y1="8"
       x2="14.5"
       y2="8"
       gradientUnits="userSpaceOnUse" /></defs><path
     d="m 2.945375,12.313924 -1.4453753,-2.185408 2.1417679,0.0027 2.1414325,0.003 1.3241182,2.016399 c 0.7282144,1.109103 1.372017,2.091701 1.430301,2.183066 l 0.1068546,0.16632 h -4.254059 z m 5.2733572,-0.05254 C 7.4365885,11.0984 6.789436,10.123499 6.780392,10.094384 6.7713842,10.065264 7.5565065,9.2590415 8.5255608,8.301879 l 1.7619172,-1.73996 0.712806,0.001 0.712806,0.001 1.190132,1.79652 c 0.654856,0.9879525 1.198841,1.82731 1.209224,1.865463 0.01374,0.0502 -3.168436,3.007697 -4.3622522,4.053882 -0.1058486,0.0927 -0.1607837,0.02008 -1.5314616,-2.018072 M 3.3523572,7.770747 2.1304046,5.933732 4.379026,3.882192 C 6.2561712,2.169341 6.6400412,1.84337 6.7020094,1.909636 6.7425444,1.953146 7.4037618,2.92068 8.170498,4.059903 L 9.565293,6.130519 7.7893073,7.86981 6.0133216,9.6091005 5.2938157,9.6084315 4.5743109,9.6074315 Z M 1.8909039,9.3373465 C 1.9217209,9.2821265 2.1381083,9.0478545 2.371914,8.816931 L 2.7973204,8.397253 3.1245808,8.888217 c 0.1798765,0.2700805 0.3269263,0.5043495 0.3269263,0.5204155 0,0.01606 -0.3634372,0.02945 -0.8079363,0.02945 -0.7523316,0 -0.804251,-0.0067 -0.7526669,-0.100737 M 12.605437,7.022083 12.257073,6.504346 h 1.756558 l -0.515847,0.517737 c -0.283716,0.284472 -0.521876,0.517738 -0.529915,0.517738 -0.0077,0 -0.170832,-0.232932 -0.362432,-0.517738 M 8.8424381,3.757692 A 480.0052,479.58501 0 0 1 7.4024226,1.571949 C 7.3685936,1.515059 7.8003609,1.499999 9.4855712,1.499999 H 11.61126 L 13.05563,3.685742 14.5,5.87182 h -4.260757 z"
     id="path5"
     style="fill:url(#linearGradient7)" /></svg>
