<?xml version="1.0" encoding="UTF-8" standalone="no"?>
<svg
   height="16"
   width="16"
   version="1.1"
   id="svg276"
   sodipodi:docname="pattern-e17.svg"
   inkscape:version="1.3.2 (091e20ef0f, 2023-11-25)"
   xmlns:inkscape="http://www.inkscape.org/namespaces/inkscape"
   xmlns:sodipodi="http://sodipodi.sourceforge.net/DTD/sodipodi-0.dtd"
   xmlns:xlink="http://www.w3.org/1999/xlink"
   xmlns="http://www.w3.org/2000/svg"
   xmlns:svg="http://www.w3.org/2000/svg">
  <defs
     id="defs280">
    <linearGradient
       id="linearGradient1"
       inkscape:collect="always">
      <stop
         style="stop-color:#008080;stop-opacity:1"
         offset="0"
         id="stop1" />
      <stop
         style="stop-color:#00cfcf;stop-opacity:1;"
         offset="1"
         id="stop2" />
    </linearGradient>
    <linearGradient
       gradientTransform="matrix(1.0499563,0,0,1.0498968,-511.30474,-492.96796)"
       gradientUnits="userSpaceOnUse"
       x2="426.69501"
       y2="499.92099"
       y1="547.67499"
       id="a-6"
       x1="389.32001">
      <stop
         stop-color="#18222a"
         style="stop-color:#1e2b35;stop-opacity:1"
         id="stop216" />
      <stop
         stop-color="#566069"
         offset="1"
         style="stop-color:#6d7983;stop-opacity:1"
         id="stop218" />
    </linearGradient>
    <linearGradient
       id="e-3"
       x1="8.4461002"
       x2="24.603001"
       y1="6.2688999"
       y2="24.570999"
       gradientUnits="userSpaceOnUse"
       gradientTransform="translate(0.254427,-38.49298)">
      <stop
         stop-opacity=".2088"
         offset="0"
         id="stop4" />
      <stop
         stop-opacity="0"
         offset="1"
         id="stop6" />
    </linearGradient>
    <linearGradient
       id="d-6"
       x1="7.8488002"
       x2="14.108"
       y1="3.5121"
       y2="14.183"
       gradientUnits="userSpaceOnUse"
       gradientTransform="translate(0.254427,-38.49298)">
      <stop
         stop-opacity=".2088"
         offset="0"
         id="stop14" />
      <stop
         stop-opacity="0"
         offset="1"
         id="stop16" />
    </linearGradient>
    <linearGradient
       id="linearGradient1139"
       gradientUnits="userSpaceOnUse"
       x1="10"
       x2="30"
       y1="10"
       y2="30"
       gradientTransform="matrix(0.82164929,0,0,0.77777884,-9.1358737,-31.887605)">
      <stop
         offset="0"
         id="stop232-7" />
      <stop
         offset="1"
         stop-opacity="0"
         id="stop234-5" />
    </linearGradient>
    <linearGradient
       id="linearGradient1143"
       gradientUnits="userSpaceOnUse"
       x1="10"
       x2="22"
       y1="10"
       y2="22"
       gradientTransform="matrix(0.82164929,0,0,0.77777884,-9.1358737,-31.887605)">
      <stop
         offset="0"
         stop-color="#171e25"
         id="stop219-3" />
      <stop
         offset="1"
         stop-opacity="0"
         id="stop221-5" />
    </linearGradient>
    <linearGradient
       id="linearGradient1145"
       gradientUnits="userSpaceOnUse"
       x1="16"
       x2="17.993"
       xlink:href="#b"
       y1="3"
       y2="4.993"
       gradientTransform="matrix(0.82164929,0,0,0.77777884,-9.1358737,-31.887605)" />
    <linearGradient
       id="linearGradient1149">
      <stop
         offset="0"
         stop-color="#292c2f"
         id="stop237-6" />
      <stop
         offset="1"
         stop-opacity="0"
         id="stop239-2" />
    </linearGradient>
    <linearGradient
       id="linearGradient1151"
       gradientUnits="userSpaceOnUse"
       x1="13.277"
       x2="15.44"
       xlink:href="#b"
       y1="3.2809999"
       y2="5.4439998"
       gradientTransform="matrix(0.82164929,0,0,0.77777884,-9.1358737,-31.887605)" />
    <linearGradient
       id="linearGradient1153"
       gradientUnits="userSpaceOnUse"
       x1="18.694"
       x2="20.542999"
       xlink:href="#b"
       y1="3.3150001"
       y2="5.1479998"
       gradientTransform="matrix(0.82164929,0,0,0.77777884,-9.1358737,-31.887605)" />
    <linearGradient
       id="linearGradient1155"
       gradientUnits="userSpaceOnUse"
       x1="10.753"
       x2="13.038"
       xlink:href="#b"
       y1="4.0830002"
       y2="6.368"
       gradientTransform="matrix(0.82164929,0,0,0.77777884,-9.1358737,-31.887605)" />
    <linearGradient
       id="linearGradient1157"
       gradientUnits="userSpaceOnUse"
       x1="21.214001"
       x2="23.052999"
       xlink:href="#b"
       y1="4.1149998"
       y2="5.9429998"
       gradientTransform="matrix(0.82164929,0,0,0.77777884,-9.1358737,-31.887605)" />
    <linearGradient
       id="linearGradient1159"
       gradientUnits="userSpaceOnUse"
       x1="23.558001"
       x2="25.417999"
       xlink:href="#b"
       y1="5.454"
       y2="7.3140001"
       gradientTransform="matrix(0.82164929,0,0,0.77777884,-9.1358737,-31.887605)" />
    <linearGradient
       id="linearGradient1161"
       gradientUnits="userSpaceOnUse"
       x1="26.400999"
       x2="26.400999"
       xlink:href="#a"
       y1="29"
       y2="3"
       gradientTransform="matrix(0.82164929,0,0,0.77777884,-9.1358737,-31.887605)" />
    <linearGradient
       id="linearGradient1165"
       gradientUnits="userSpaceOnUse"
       x1="567.30701"
       x2="567.30701"
       y1="691.461"
       y2="39.515999">
      <stop
         offset="0"
         stop-color="#73ba25"
         id="stop242-9" />
      <stop
         offset="1"
         stop-color="#96cb5c"
         id="stop244-1" />
    </linearGradient>
    <linearGradient
       id="linearGradient1167"
       gradientUnits="userSpaceOnUse"
       x1="26"
       x2="26"
       xlink:href="#a"
       y1="29"
       y2="3"
       gradientTransform="matrix(0.82164929,0,0,0.77777884,-9.1358737,-31.887605)" />
    <linearGradient
       inkscape:collect="always"
       xlink:href="#linearGradient1"
       id="linearGradient2"
       x1="3.246307"
       y1="7.9999243"
       x2="12.754077"
       y2="7.9999243"
       gradientUnits="userSpaceOnUse"
       gradientTransform="matrix(1.0834004,0,0,1.0769204,-0.66741148,-0.61528123)" />
    <linearGradient
       inkscape:collect="always"
       xlink:href="#linearGradient1"
       id="linearGradient5"
       x1="2.9235699"
       y1="8"
       x2="13.07643"
       y2="8"
       gradientUnits="userSpaceOnUse"
       gradientTransform="matrix(1.0834004,0,0,1.0769204,-0.66741148,-0.61528123)" />
  </defs>
  <sodipodi:namedview
     id="namedview278"
     pagecolor="#ffffff"
     bordercolor="#666666"
     borderopacity="1.0"
     inkscape:showpageshadow="2"
     inkscape:pageopacity="0.0"
     inkscape:pagecheckerboard="0"
     inkscape:deskcolor="#d1d1d1"
     showgrid="false"
     inkscape:zoom="7.375"
     inkscape:cx="55.322034"
     inkscape:cy="41.016949"
     inkscape:window-width="1920"
     inkscape:window-height="994"
     inkscape:window-x="0"
     inkscape:window-y="0"
     inkscape:window-maximized="1"
     inkscape:current-layer="svg276" />
  <linearGradient
     id="e"
     gradientUnits="userSpaceOnUse"
     x1="10"
     x2="22"
     y1="10"
     y2="22"
     gradientTransform="matrix(0.82164929,0,0,0.77777884,-9.1358737,-31.887605)">
    <stop
       offset="0"
       stop-color="#171e25"
       id="stop219" />
    <stop
       offset="1"
       stop-opacity="0"
       id="stop221" />
  </linearGradient>
  <linearGradient
     id="m"
     gradientUnits="userSpaceOnUse"
     x1="26"
     x2="26"
     xlink:href="#a"
     y1="29"
     y2="3"
     gradientTransform="matrix(0.82164929,0,0,0.77777884,-9.1358737,-31.887605)" />
  <linearGradient
     id="k"
     gradientUnits="userSpaceOnUse"
     x1="23.558001"
     x2="25.417999"
     xlink:href="#b"
     y1="5.454"
     y2="7.3140001"
     gradientTransform="matrix(0.82164929,0,0,0.77777884,-9.1358737,-31.887605)" />
  <linearGradient
     id="j"
     gradientUnits="userSpaceOnUse"
     x1="21.214001"
     x2="23.052999"
     xlink:href="#b"
     y1="4.1149998"
     y2="5.9429998"
     gradientTransform="matrix(0.82164929,0,0,0.77777884,-9.1358737,-31.887605)" />
  <linearGradient
     id="h"
     gradientUnits="userSpaceOnUse"
     x1="18.694"
     x2="20.542999"
     xlink:href="#b"
     y1="3.3150001"
     y2="5.1479998"
     gradientTransform="matrix(0.82164929,0,0,0.77777884,-9.1358737,-31.887605)" />
  <linearGradient
     id="f"
     gradientUnits="userSpaceOnUse"
     x1="16"
     x2="17.993"
     xlink:href="#b"
     y1="3"
     y2="4.993"
     gradientTransform="matrix(0.82164929,0,0,0.77777884,-9.1358737,-31.887605)" />
  <linearGradient
     id="i"
     gradientUnits="userSpaceOnUse"
     x1="10.753"
     x2="13.038"
     xlink:href="#b"
     y1="4.0830002"
     y2="6.368"
     gradientTransform="matrix(0.82164929,0,0,0.77777884,-9.1358737,-31.887605)" />
  <linearGradient
     id="g"
     gradientUnits="userSpaceOnUse"
     x1="13.277"
     x2="15.44"
     xlink:href="#b"
     y1="3.2809999"
     y2="5.4439998"
     gradientTransform="matrix(0.82164929,0,0,0.77777884,-9.1358737,-31.887605)" />
  <linearGradient
     id="l"
     gradientUnits="userSpaceOnUse"
     x1="26.400999"
     x2="26.400999"
     xlink:href="#a"
     y1="29"
     y2="3"
     gradientTransform="matrix(0.82164929,0,0,0.77777884,-9.1358737,-31.887605)" />
  <linearGradient
     id="d"
     gradientUnits="userSpaceOnUse"
     x1="10"
     x2="30"
     y1="10"
     y2="30"
     gradientTransform="matrix(0.82164929,0,0,0.77777884,-9.1358737,-31.887605)">
    <stop
       offset="0"
       id="stop232" />
    <stop
       offset="1"
       stop-opacity="0"
       id="stop234" />
  </linearGradient>
  <linearGradient
     id="b">
    <stop
       offset="0"
       stop-color="#292c2f"
       id="stop237" />
    <stop
       offset="1"
       stop-opacity="0"
       id="stop239" />
  </linearGradient>
  <linearGradient
     id="a"
     gradientUnits="userSpaceOnUse"
     x1="567.30701"
     x2="567.30701"
     y1="691.461"
     y2="39.515999">
    <stop
       offset="0"
       stop-color="#73ba25"
       id="stop242" />
    <stop
       offset="1"
       stop-color="#96cb5c"
       id="stop244" />
  </linearGradient>
  <linearGradient
     id="c"
     gradientUnits="userSpaceOnUse"
     x1="2"
     x2="2"
     y1="30"
     y2="2"
     gradientTransform="translate(-61.204205,-21.327331)">
    <stop
       offset="0"
       stop-color="#171e25"
       id="stop247" />
    <stop
       offset="1"
       stop-color="#333c45"
       id="stop249" />
  </linearGradient>
  <path
     d="M 3.4030156,4.8386581 C 3.4453666,4.7131944 3.3993356,4.4698051 3.2977206,4.2824185 3.1889906,4.081573 2.9085786,3.7234929 2.6098576,3.4047199 c -0.06066,-0.064615 -0.109872,-0.1254662 -0.109872,-0.135695 0,-0.010209 0.08012,0.03503 0.177403,0.1006903 0.690718,0.4663139 1.049526,0.6353914 1.349393,0.6353914 0.156225,0 0.198,-0.02691 0.220891,-0.1421567 0.0515,-0.2557668 -0.09557,-0.666618 -0.469256,-1.3127823 -0.07668,-0.1329977 -0.131045,-0.2412314 -0.12017,-0.2412314 0.0098,0 0.125896,0.1114626 0.257516,0.2476962 0.476695,0.494314 0.848095,0.7495443 1.130216,0.7770055 l 0.120176,0.01131 0.05208,-0.09369 c 0.04235,-0.076466 0.05436,-0.137852 0.06181,-0.3209307 0.01087,-0.2730056 -0.03604,-0.521242 -0.190567,-1.0090906 -0.05722,-0.1798487 -0.099,-0.3311563 -0.09328,-0.3360075 0.0057,-0.0055 0.09728,0.1286969 0.203725,0.297777 0.106445,0.16908 0.242641,0.3704659 0.302728,0.4469294 0.307877,0.3936169 0.676988,0.6423875 0.776562,0.5228516 0.13162,-0.1572361 0.189991,-0.3516242 0.207727,-0.688162 0.01147,-0.2320797 -0.02289,-0.8777031 -0.05323,-0.9778578 -0.0062,-0.02102 -0.0028,-0.03766 0.0075,-0.03766 0.01027,0 0.05952,0.1130788 0.108729,0.2520035 0.13105,0.364004 0.269538,0.6747005 0.377697,0.845931 0.110443,0.1744635 0.30673,0.367776 0.406874,0.400623 0.06467,0.02154 0.07668,0.01722 0.161955,-0.06086 0.214043,-0.1954572 0.353102,-0.6122319 0.437228,-1.3084743 a 1.8255177,1.717712 0 0 1 0.04578,-0.2584596 c 0.01718,-0.0269199 0.01946,-0.0269199 0.02001,0.0034 0,0.01941 0.02173,0.1830773 0.04693,0.3650812 0.08469,0.602016 0.207735,0.9719417 0.387999,1.1647114 0.1161679,0.1243932 0.1459269,0.1324702 0.2609479,0.068926 0.238066,-0.1313589 0.47441,-0.5088258 0.699308,-1.1183694 0.132768,-0.3580801 0.169393,-0.4216199 0.148791,-0.2579269 -0.107018,0.8615485 -0.04864,1.4258622 0.165958,1.6089398 0.04235,0.03608 0.05894,0.03766 0.137342,0.015616 0.2603745,-0.073226 0.5619635,-0.3930777 0.9510985,-1.0069275 0.0996,-0.1566966 0.183124,-0.2762345 0.187124,-0.2654655 0.0039,0.010209 -0.04003,0.1669237 -0.09727,0.3483851 -0.203732,0.6461628 -0.244928,1.053244 -0.131622,1.291247 0.04751,0.099079 0.05156,0.102309 0.147071,0.1017698 0.284991,-0.0018 0.642082,-0.2503871 1.271573,-0.8863177 0.08013,-0.08023 0.148786,-0.1416178 0.154506,-0.1367697 0.0044,0.0051 -0.05949,0.1276164 -0.143067,0.2724644 -0.377693,0.6526223 -0.508164,1.0327805 -0.442928,1.2885521 0.03206,0.1254634 0.06409,0.1400023 0.281554,0.1233116 0.263241,-0.01991 0.622626,-0.1895428 1.153109,-0.5443917 0.167674,-0.1125425 0.309021,-0.2008486 0.313604,-0.1960059 0.0043,0.0044 -0.0687,0.09315 -0.164238,0.1976192 -0.586573,0.6445499 -0.786295,0.9891633 -0.755961,1.3052437 0.01204,0.1276205 0.0109,0.1313885 -0.02569,0.08831 -0.02066,-0.024789 -0.10303,-0.1227729 -0.18143,-0.21808 C 12.192458,4.4264212 11.763261,4.0306468 11.485713,3.8228009 10.688554,3.2251004 9.5949585,2.8115588 8.5591625,2.715714 A 5.6465142,5.3130606 0 0 0 4.3032446,3.9778763 5.1343391,4.8311318 0 0 0 3.5650266,4.6972714 2.0544225,1.9330991 0 0 1 3.3979276,4.8857352 c -0.0057,0 -0.0037,-0.02154 0.0052,-0.04736 z m 4.543193,9.8448009 c -0.09042,-0.719928 -0.25065,-1.157703 -0.477265,-1.309551 l -0.07039,-0.0474 -0.09042,0.04789 c -0.232336,0.122243 -0.474977,0.506707 -0.699303,1.110332 l -0.127614,0.341387 c -0.03032,0.0797 -0.0286,-0.0215 0.0037,-0.353771 0.06753,-0.676854 -0.0037,-1.165783 -0.194569,-1.32786 -0.04235,-0.03611 -0.05837,-0.03769 -0.137346,-0.01619 -0.258659,0.0732 -0.556237,0.389313 -0.949953,1.007472 -0.09958,0.156157 -0.18427,0.276236 -0.188277,0.266006 -0.0032,-0.01081 0.04008,-0.16531 0.09614,-0.343542 0.204297,-0.642934 0.246647,-1.058629 0.132763,-1.29717 -0.04693,-0.0985 -0.05151,-0.101791 -0.146497,-0.101206 -0.283843,0.0017 -0.65009,0.256853 -1.27214,0.886318 -0.07955,0.0802 -0.148792,0.141622 -0.154512,0.136233 -0.0052,-0.0046 0.0492,-0.10931 0.121322,-0.231542 0.389138,-0.661777 0.538496,-1.092011 0.464674,-1.340785 -0.03376,-0.113072 -0.07039,-0.127073 -0.280979,-0.111462 -0.263242,0.01991 -0.622622,0.189542 -1.153683,0.544393 -0.167675,0.112544 -0.309024,0.200851 -0.3130301,0.196545 -0.0046,-0.0041 0.07496,-0.0991 0.1768261,-0.210004 0.349082,-0.383387 0.531062,-0.627851 0.662683,-0.890081 0.06753,-0.134622 0.07554,-0.170158 0.07554,-0.339233 0,-0.172314 0.0037,-0.185772 0.03431,-0.148085 l 0.177974,0.213775 c 0.1716819,0.206773 0.6008759,0.602005 0.8784229,0.810391 0.609463,0.456621 1.471858,0.841623 2.259294,1.007472 a 6.0087558,5.6539096 0 0 0 1.899339,0.0878 5.5812763,5.2516754 0 0 0 3.0478715,-1.272941 c 0.323907,-0.266543 0.496152,-0.435083 0.715903,-0.700004 a 2.0143643,1.8954062 0 0 1 0.164809,-0.185231 c 0.0054,0 0.0034,0.02103 -0.0043,0.04683 -0.04238,0.125464 0.0034,0.368847 0.104707,0.556239 0.108734,0.200845 0.389709,0.558924 0.688428,0.877699 0.06014,0.0641 0.109306,0.124922 0.109306,0.135151 0,0.01036 -0.06407,-0.0253 -0.142494,-0.07916 -0.676983,-0.463082 -1.08501,-0.656928 -1.383729,-0.656928 -0.156802,0 -0.198578,0.0269 -0.221469,0.142691 -0.05153,0.255772 0.09558,0.666621 0.469257,1.312783 0.07667,0.132463 0.131621,0.241235 0.121323,0.241235 -0.01006,0 -0.125903,-0.112002 -0.257517,-0.248236 -0.501308,-0.518541 -0.898454,-0.782393 -1.178864,-0.782393 -0.06468,0 -0.08183,0.01183 -0.118461,0.0808 -0.06297,0.11739 -0.07558,0.185233 -0.07442,0.395235 9.29e-4,0.22831 0.05834,0.500776 0.196859,0.938547 0.05727,0.181468 0.0996,0.333854 0.09442,0.339235 -0.0054,0.005 -0.09727,-0.129232 -0.204296,-0.298306 -0.381133,-0.60416 -0.708471,-0.938546 -0.9711356,-0.992934 -0.08413,-0.0172 -0.105296,-0.0011 -0.189996,0.149699 -0.07783,0.137305 -0.111589,0.283233 -0.125895,0.551386 -0.01202,0.219693 0.02061,0.841628 0.05151,0.978399 0.0058,0.0269 0.0023,0.0485 -0.0081,0.0485 -0.01027,0 -0.04749,-0.0845 -0.08298,-0.188461 -0.116995,-0.33874 -0.284666,-0.721587 -0.393395,-0.896049 -0.119029,-0.191159 -0.309024,-0.379621 -0.418325,-0.415163 -0.06753,-0.02208 -0.07841,-0.01831 -0.1751099,0.0657 -0.21231,0.18416 -0.345077,0.570776 -0.432059,1.258403 -0.022832,0.179307 -0.047434,0.32577 -0.055452,0.32577 -0.0074,0 -0.03148,-0.142694 -0.0538,-0.316622 z"
     id="path272-2-2"
     style="fill:url(#linearGradient5);fill-opacity:1;stroke-width:1.08013" />
  <path
     d="M 8.0000006,3.153791 A 5.1503623,4.846209 0 0 0 2.8496396,8.000002 5.1503623,4.846209 0 0 0 8.0000006,12.846209 5.1503623,4.846209 0 0 0 13.15036,8.000002 5.1503623,4.846209 0 0 0 8.0000006,3.153791 Z m 0,0.6057797 A 4.5065677,4.2404326 0 0 1 12.506566,8.000002 4.5065677,4.2404326 0 0 1 8.0000006,12.240437 4.5065677,4.2404326 0 0 1 4.6082016,10.783879 c 0.324471,-0.220773 0.85668,-0.164773 1.511348,-0.0953 0.318746,0.03503 0.682133,0.0743 1.058111,0.0824 1.049532,0.006 2.1803179,-0.176083 2.8767624,-0.463084 0.45094,-0.184157 0.738222,-0.306925 0.918485,-0.4609311 0.0652,-0.0506 0.09897,-0.132997 0.133906,-0.2207691 l 0.02458,-0.05871 c 0.02857,-0.07162 0.07156,-0.222384 0.0904,-0.305311 0.0085,-0.03608 0.01717,-0.07161 -0.01546,-0.09531 -0.02857,-0.02102 -0.09611,0.01722 -0.09611,0.01722 -0.306148,0.173367 -1.071261,0.501292 -1.7860185,0.515291 -0.8881519,0.01669 -2.6867759,-0.84539 -2.8727589,-0.9369338 -0.125324,-0.279465 -0.250078,-0.5589266 -0.376549,-0.8378559 1.287592,0.79801 2.35486,1.2390137 3.1714789,1.3074037 0.9099025,0.07592 1.6195075,-0.3909325 1.9268085,-0.5853165 0.03998,-0.02533 0.08013,-0.05386 0.117315,-0.08077 0.0064,-0.0051 0.02287,-0.01722 0.02066,-0.02908 C 11.25962,8.2368997 10.784636,6.7814191 10.42526,6.431421 10.32626,6.336652 10.246714,6.2429535 10.086475,6.1541042 8.7857215,5.4406391 5.6995096,5.0104038 5.5553006,4.9910139 c 0,0 -0.01485,-0.0033 -0.02461,0.0059 -0.008,0.0075 -0.0098,0.02154 -0.0098,0.02154 0,0 -0.01142,0.6014687 -0.01375,0.6687772 A 18.720999,17.615433 0 0 0 4.4519446,5.3932469 4.5065677,4.2404326 0 0 1 7.9999686,3.7595374 Z m 0.9390819,2.4597184 0.06638,5.538e-4 A 1.3247881,1.2465532 0 0 1 10.279316,7.505705 1.3162038,1.2384759 0 0 1 9.8609955,8.370483 C 9.6034795,8.5982538 9.2675575,8.7151008 8.9127565,8.7043316 A 1.3247881,1.2465532 0 0 1 7.6400416,7.4184725 C 7.6532316,7.0867744 7.8002776,6.7787731 8.0577936,6.553154 8.2998626,6.3404611 8.6105995,6.2246911 8.9390785,6.2193043 Z m 0.009,0.3661531 A 0.90703615,0.85347135 0 0 0 8.3347186,6.8169886 c -0.179115,0.1583096 -0.284414,0.3715411 -0.291853,0.6030809 a 0.92420401,0.86962538 0 0 0 0.8881519,0.8987076 c 0.246071,0.007 0.481844,-0.075386 0.661535,-0.2331574 A 0.92305951,0.86854857 0 0 0 8.9481835,6.5854422 Z M 9.1443695,7.02053 c 0.226045,0 0.409168,0.1146929 0.409168,0.2568466 0,0.1410797 -0.183123,0.2557762 -0.409168,0.2557762 -0.225469,0 -0.408021,-0.1146965 -0.408021,-0.2557762 0,-0.1421537 0.182552,-0.2568466 0.408021,-0.2568466 z"
     id="path274-6-0"
     style="fill:url(#linearGradient2);fill-opacity:1;stroke-width:1.08013" />
</svg>
