<?xml version="1.0" encoding="UTF-8" standalone="no"?>
<svg
   height="16"
   width="16"
   version="1.1"
   id="svg2644"
   sodipodi:docname="preferences-system-linux.svg"
   inkscape:version="1.3.2 (091e20ef0f, 2023-11-25)"
   xmlns:inkscape="http://www.inkscape.org/namespaces/inkscape"
   xmlns:sodipodi="http://sodipodi.sourceforge.net/DTD/sodipodi-0.dtd"
   xmlns:xlink="http://www.w3.org/1999/xlink"
   xmlns="http://www.w3.org/2000/svg"
   xmlns:svg="http://www.w3.org/2000/svg">
  <defs
     id="defs2648">
    <linearGradient
       id="linearGradient1"
       inkscape:collect="always">
      <stop
         style="stop-color:#ffcc00;stop-opacity:1"
         offset="0"
         id="stop1" />
      <stop
         style="stop-color:#00ccff;stop-opacity:1"
         offset="1"
         id="stop2" />
    </linearGradient>
    <linearGradient
       id="a-2"
       gradientUnits="userSpaceOnUse"
       x1="3"
       x2="3"
       xlink:href="#linearGradient1374"
       y1="21"
       y2="1" />
    <linearGradient
       id="linearGradient1374">
      <stop
         offset="0"
         stop-color="#c6cdd1"
         id="stop283-6" />
      <stop
         offset="1"
         stop-color="#e0e5e7"
         id="stop285-2" />
    </linearGradient>
    <linearGradient
       id="b-1"
       gradientUnits="userSpaceOnUse"
       x1="19"
       x2="3"
       xlink:href="#linearGradient1374"
       y1="21"
       y2="21" />
    <linearGradient
       id="c-9"
       gradientTransform="matrix(0.75,0,0,1,2.75,-1)"
       gradientUnits="userSpaceOnUse"
       x1="3"
       x2="3"
       y1="21"
       y2="19">
      <stop
         offset="0"
         stop-color="#2f3943"
         id="stop265-4" />
      <stop
         offset="1"
         stop-color="#4d5662"
         id="stop267-78" />
    </linearGradient>
    <linearGradient
       id="d-4"
       gradientUnits="userSpaceOnUse"
       x1="11"
       x2="11"
       xlink:href="#linearGradient1374"
       y1="4"
       y2="17" />
    <linearGradient
       id="e-50"
       gradientTransform="matrix(0.625,0,0,0.71429,137.214,166.657)"
       gradientUnits="userSpaceOnUse"
       x1="5"
       x2="5"
       y1="5"
       y2="16">
      <stop
         offset="0"
         stop-color="#2e5d89"
         id="stop271-36" />
      <stop
         offset="1"
         stop-color="#1b92f4"
         id="stop273-1" />
    </linearGradient>
    <linearGradient
       id="f-06"
       gradientTransform="matrix(0.375,0,0,0.66667,-142.2142,357.868)"
       gradientUnits="userSpaceOnUse"
       x1="418.17099"
       x2="418.17099"
       xlink:href="#linearGradient1387"
       y1="-521.79797"
       y2="-518.79797" />
    <linearGradient
       id="linearGradient1387">
      <stop
         offset="0"
         stop-color="#84cbfe"
         id="stop278-6" />
      <stop
         offset="1"
         stop-color="#84cbfe"
         stop-opacity="0"
         id="stop280-2" />
    </linearGradient>
    <linearGradient
       id="g-615"
       gradientTransform="matrix(0.375,0,0,-0.66667,-142.2142,-338.868)"
       gradientUnits="userSpaceOnUse"
       x1="418.17099"
       x2="418.17099"
       xlink:href="#linearGradient1387"
       y1="-521.79797"
       y2="-518.79797" />
    <linearGradient
       id="j"
       gradientTransform="matrix(-6.639062e-4,-0.33908148,0.33113178,-6.4834867e-4,-171.74144,124.51715)"
       gradientUnits="userSpaceOnUse"
       x1="390.57101"
       x2="413.62451"
       y1="507.67401"
       y2="531.28375">
      <stop
         offset="0"
         id="stop288" />
      <stop
         offset="1"
         stop-opacity="0"
         id="stop290" />
    </linearGradient>
    <linearGradient
       id="linearGradient3975"
       gradientUnits="userSpaceOnUse"
       x1="10.355895"
       x2="10.355895"
       y1="18.065456"
       y2="1.9994709"
       gradientTransform="matrix(0.85549446,0,0,0.85549446,-34.342004,-6.4521974)">
      <stop
         offset="0"
         stop-color="#1d1e1e"
         id="stop2610-3" />
      <stop
         offset="1"
         stop-color="#44484c"
         id="stop2612-6" />
    </linearGradient>
    <linearGradient
       id="b-7"
       gradientUnits="userSpaceOnUse"
       x1="11.886601"
       x2="11.661686"
       y1="18.022402"
       y2="9.4762812">
      <stop
         offset="0"
         stop-color="#fcfcfc"
         id="stop2605-5" />
      <stop
         offset="1"
         stop-color="#eff0f1"
         id="stop2607-3" />
    </linearGradient>
    <linearGradient
       id="e-5"
       gradientUnits="userSpaceOnUse"
       x1="7.1428261"
       x2="7.1428261"
       xlink:href="#a"
       y1="19.993298"
       y2="14.209132" />
    <linearGradient
       id="linearGradient3983">
      <stop
         offset="0"
         stop-color="#f39c1f"
         id="stop2600-6" />
      <stop
         offset="1"
         stop-color="#fdbc4b"
         id="stop2602-2" />
    </linearGradient>
    <linearGradient
       id="f-9"
       gradientUnits="userSpaceOnUse"
       x1="9.1779842"
       x2="11.427132"
       y1="7.534945"
       y2="9.7840929">
      <stop
         offset="0"
         id="stop2617-1" />
      <stop
         offset="1"
         stop-opacity="0"
         id="stop2619-2" />
    </linearGradient>
    <linearGradient
       id="linearGradient3988"
       gradientTransform="matrix(0.57860791,0,0,0.51930566,-34.301593,-5.5524368)"
       gradientUnits="userSpaceOnUse"
       x1="16"
       x2="15.731"
       xlink:href="#a"
       y1="12"
       y2="8.1520004" />
    <linearGradient
       gradientTransform="matrix(0.84996453,0,0,0.84991636,-313.13599,-488.65123)"
       gradientUnits="userSpaceOnUse"
       x2="426.69501"
       y2="499.92099"
       y1="547.67499"
       id="a-6"
       x1="389.32001">
      <stop
         stop-color="#18222a"
         style="stop-color:#1e2b35;stop-opacity:1"
         id="stop216" />
      <stop
         stop-color="#566069"
         offset="1"
         style="stop-color:#6d7983;stop-opacity:1"
         id="stop218" />
    </linearGradient>
    <linearGradient
       id="a-3">
      <stop
         offset="0"
         stop-color="#292c2f"
         id="stop8" />
      <stop
         offset="1"
         stop-opacity="0"
         id="stop10" />
    </linearGradient>
    <linearGradient
       id="d-6"
       gradientTransform="matrix(0.52174,0,0,0.53846,45.597466,-33.196963)"
       gradientUnits="userSpaceOnUse"
       x1="1.3329999"
       x2="1.3329999"
       y1="48.714001"
       y2="9.7139997">
      <stop
         offset="0"
         stop-color="#eef1f2"
         id="stop19-7" />
      <stop
         offset="1"
         stop-color="#f9fafb"
         id="stop21" />
    </linearGradient>
    <linearGradient
       id="b-3"
       gradientUnits="userSpaceOnUse"
       x1="6"
       x2="20"
       y1="5"
       y2="16"
       gradientTransform="matrix(0.38666491,0,0,0.38666491,-14.932957,-19.595831)">
      <stop
         offset="0"
         stop-color="#31363b"
         id="stop7" />
      <stop
         offset="1"
         stop-color="#232629"
         id="stop9" />
    </linearGradient>
    <linearGradient
       id="c-6"
       gradientUnits="userSpaceOnUse"
       x1="7"
       x2="14"
       y1="7"
       y2="14"
       gradientTransform="matrix(0.38666491,0,0,0.38666491,-14.932957,-19.595831)">
      <stop
         offset="0"
         stop-color="#292c2f"
         id="stop12" />
      <stop
         offset="1"
         stop-opacity="0"
         id="stop14" />
    </linearGradient>
    <linearGradient
       id="b-7-9"
       gradientUnits="userSpaceOnUse"
       x1="11.886601"
       x2="11.661686"
       y1="18.022402"
       y2="9.4762812">
      <stop
         offset="0"
         stop-color="#fcfcfc"
         id="stop2605-5-1" />
      <stop
         offset="1"
         stop-color="#eff0f1"
         id="stop2607-3-2" />
    </linearGradient>
    <linearGradient
       id="e-5-7"
       gradientUnits="userSpaceOnUse"
       x1="7.1428261"
       x2="7.1428261"
       xlink:href="#linearGradient3983"
       y1="19.993298"
       y2="14.209132" />
    <linearGradient
       id="f-9-3"
       gradientUnits="userSpaceOnUse"
       x1="9.1779842"
       x2="11.427132"
       y1="7.534945"
       y2="9.7840929">
      <stop
         offset="0"
         id="stop2617-1-6" />
      <stop
         offset="1"
         stop-opacity="0"
         id="stop2619-2-0" />
    </linearGradient>
    <linearGradient
       inkscape:collect="always"
       xlink:href="#linearGradient1"
       id="linearGradient2"
       x1="2.7509587"
       y1="2"
       x2="13.25096"
       y2="13.999963"
       gradientUnits="userSpaceOnUse"
       gradientTransform="matrix(1.0952376,0,0,1.0833139,-0.76297331,-0.66662823)" />
  </defs>
  <sodipodi:namedview
     id="namedview2646"
     pagecolor="#ffffff"
     bordercolor="#666666"
     borderopacity="1.0"
     inkscape:showpageshadow="2"
     inkscape:pageopacity="0.0"
     inkscape:pagecheckerboard="0"
     inkscape:deskcolor="#d1d1d1"
     showgrid="false"
     inkscape:zoom="22.512993"
     inkscape:cx="7.2846822"
     inkscape:cy="9.5278313"
     inkscape:window-width="1920"
     inkscape:window-height="994"
     inkscape:window-x="0"
     inkscape:window-y="0"
     inkscape:window-maximized="1"
     inkscape:current-layer="svg2644" />
  <linearGradient
     id="a">
    <stop
       offset="0"
       stop-color="#f39c1f"
       id="stop2600" />
    <stop
       offset="1"
       stop-color="#fdbc4b"
       id="stop2602" />
  </linearGradient>
  <linearGradient
     id="b"
     gradientUnits="userSpaceOnUse"
     x1="11.886601"
     x2="11.661686"
     y1="18.022402"
     y2="9.4762812">
    <stop
       offset="0"
       stop-color="#fcfcfc"
       id="stop2605" />
    <stop
       offset="1"
       stop-color="#eff0f1"
       id="stop2607" />
  </linearGradient>
  <linearGradient
     id="c"
     gradientUnits="userSpaceOnUse"
     x1="10.355895"
     x2="10.355895"
     y1="18.065456"
     y2="1.9994709"
     gradientTransform="matrix(0.85549446,0,0,0.85549446,-34.342004,-6.4521974)">
    <stop
       offset="0"
       stop-color="#1d1e1e"
       id="stop2610" />
    <stop
       offset="1"
       stop-color="#44484c"
       id="stop2612" />
  </linearGradient>
  <linearGradient
     id="d"
     gradientTransform="matrix(0.57860791,0,0,0.51930566,-34.301593,-5.5524368)"
     gradientUnits="userSpaceOnUse"
     x1="16"
     x2="15.731"
     xlink:href="#a"
     y1="12"
     y2="8.1520004" />
  <linearGradient
     id="e"
     gradientUnits="userSpaceOnUse"
     x1="7.1428261"
     x2="7.1428261"
     xlink:href="#a"
     y1="19.993298"
     y2="14.209132" />
  <linearGradient
     id="f"
     gradientUnits="userSpaceOnUse"
     x1="9.1779842"
     x2="11.427132"
     y1="7.534945"
     y2="9.7840929">
    <stop
       offset="0"
       id="stop2617" />
    <stop
       offset="1"
       stop-opacity="0"
       id="stop2619" />
  </linearGradient>
  <g
     id="g3"
     transform="matrix(0.0262992,0,0,0.02539013,1.267493,1.5)">
    <path
       style="fill:#000000;fill-opacity:1"
       d="m 259.345,110.181 c -0.076,-0.789 -0.112,-1.578 -0.112,-2.369 0,-11.578 7.584,-20.997 16.903,-20.997 9.537,0 17.007,9.223 17.007,20.997 0,2.666 -0.401,5.236 -1.148,7.61 2.795,-4.442 4.412,-10.032 4.412,-15.892 0,-14.079 -9,-25.535 -20.06,-25.535 -11.063,0 -20.06,11.455 -20.06,25.535 0,3.461 0.542,6.849 1.615,10.099 0.467,0.178 0.949,0.363 1.443,0.552 z"
       id="path1" />
    <path
       style="fill:#000000;fill-opacity:1"
       d="m 209.407,87.924 c 0.604,-0.092 1.157,-0.134 1.707,-0.134 7.418,0 14.069,7.281 15.812,17.311 0.175,1.1 0.285,2.196 0.334,3.277 0.482,-0.245 0.972,-0.475 1.471,-0.688 0.245,-1.739 0.364,-3.369 0.364,-5.006 0,-12.986 -6.879,-23.957 -15.019,-23.957 -6.933,0 -12.775,7.636 -14.44,17.95 1.896,-4.704 5.357,-8.02 9.771,-8.753 z"
       id="path2" />
  </g>
  <g
     id="g6"
     transform="matrix(0.02401232,0,0,0.02343746,1.7650671,2.0405654)" />
  <path
     d="m 13.393293,11.937701 c -0.394854,-0.156071 -0.563776,-0.36328 -0.547442,-0.672455 0.01687,-0.360845 -0.195222,-0.625106 -0.295923,-0.729534 0.0608,-0.224374 0.238616,-1.000524 1.87e-4,-1.6747086 C 12.293882,8.1394166 11.511559,7.0373577 10.704357,5.9540374 10.37391,5.5091516 10.358286,5.0255202 10.340219,4.4655412 10.322915,3.9314346 10.303407,3.3260322 9.9948835,2.6530167 9.6594385,1.9202067 8.9863352,1.5 8.1481015,1.5 7.649441,1.5 7.1375815,1.6504614 6.7436965,1.9127678 5.9370999,2.4501998 6.043717,3.6219284 6.1142777,4.3972164 c 0.0097,0.1061865 0.018743,0.206472 0.024062,0.2920875 0.046974,0.7593685 0.00415,1.1596184 -0.051651,1.2812626 C 6.0505351,6.0500599 5.8725354,6.2762887 5.6841524,6.515844 5.4893295,6.7636013 5.2684407,7.0443656 5.087398,7.30601 4.8713777,7.6208743 4.6969863,8.1021182 4.5283569,8.5674937 4.404962,8.9079999 4.2884024,9.2296682 4.1749456,9.4219978 3.9598977,9.79178 4.0134191,10.136603 4.0580728,10.295978 c -0.081419,0.05459 -0.199032,0.162141 -0.298311,0.364753 -0.1200031,0.247198 -0.363481,0.380017 -0.8697679,0.474009 -0.2326692,0.04592 -0.393093,0.140407 -0.4769881,0.280713 -0.1220818,0.204213 -0.055554,0.46078 0.00495,0.636174 0.089623,0.257734 0.033767,0.420894 -0.067776,0.71717 -0.023395,0.06836 -0.049942,0.145767 -0.076819,0.231101 -0.04234,0.13477 -0.027054,0.257228 0.045292,0.364119 0.1911959,0.282163 0.7491594,0.38169 1.3235328,0.447197 0.3429419,0.03928 0.7182842,0.171714 1.0813194,0.299807 0.3556959,0.125478 0.7235163,0.255272 1.0578333,0.294653 0.0508,0.0057 0.1011485,0.0095 0.1496675,0.0095 0.5047865,0 0.7328543,-0.323341 0.805176,-0.456183 0.1813069,-0.03572 0.8066768,-0.150109 1.4512164,-0.165492 0.643516,-0.01773 1.2661213,0.104993 1.4425131,0.143076 0.055429,0.10248 0.2016352,0.336491 0.4346467,0.457121 0.128071,0.06756 0.306301,0.106304 0.488845,0.106304 5.3e-5,0 0,0 5.3e-5,0 0.194955,0 0.565855,-0.04449 0.859405,-0.342689 0.29279,-0.299503 1.024326,-0.681956 1.558517,-0.961172 0.119213,-0.06231 0.230721,-0.120629 0.328504,-0.173209 0.300074,-0.160595 0.463811,-0.390046 0.449218,-0.629525 -0.01219,-0.199008 -0.148593,-0.373488 -0.355935,-0.455471 z M 8.5351476,3.3787419 c 0.290893,0 0.5275608,0.2908437 0.5275608,0.6483374 0,0.1487608 -0.042533,0.290691 -0.1160329,0.4034998 0.019593,-0.060278 0.030188,-0.1255291 0.030188,-0.1932189 0,-0.2989436 -0.1964539,-0.533116 -0.447271,-0.533116 -0.2451088,0 -0.4445363,0.2391492 -0.4445363,0.533116 0,0.020084 0.00101,0.040119 0.00282,0.060149 -0.012979,-0.00479 -0.025628,-0.00951 -0.038001,-0.01402 C 8.0216578,4.2009711 8.0074194,4.1149488 8.0074194,4.0270735 8.0074457,3.6696058 8.2440851,3.378737 8.5350338,3.378737 Z M 7.6405521,4.6779291 c 0.1108333,0.018892 0.3841259,0.1242094 0.5837638,0.201141 0.092252,0.035541 0.1719697,0.066269 0.2280155,0.085668 0.1765959,0.058599 0.2686979,0.1335771 0.2798485,0.1615828 -0.00415,0.0181 -0.013113,0.026078 -0.1117515,0.075618 -0.049801,0.025 -0.1117714,0.056138 -0.1893526,0.1017878 l -0.051836,0.03031 C 8.1709483,5.4559858 7.683229,5.7414976 7.550839,5.7582045 7.4608871,5.7698827 7.4052728,5.7361699 7.280221,5.6541521 7.2520076,5.6356166 7.2219871,5.6159112 7.190006,5.5961081 6.9645429,5.4532374 6.8195024,5.2959966 6.8031451,5.2345024 6.8766576,5.179654 7.0588524,5.0423494 7.152136,4.9610251 7.3414894,4.7910378 7.532027,4.6768078 7.6263356,4.6768078 c 0.00495,-7.58e-5 0.0096,2.534e-4 0.014225,0.0011 z M 6.8974416,3.498812 c 0.2141292,0 0.3949866,0.2785298 0.3949866,0.6082713 0,0.041589 -0.00304,0.082949 -0.0096,0.1271028 -0.013103,0.0054 -0.026023,0.0113 -0.038692,0.01746 -0.00131,-0.027493 -0.00415,-0.055269 -0.0089,-0.083198 -0.045836,-0.2546614 -0.220767,-0.4395269 -0.415855,-0.4395269 -0.014458,0 -0.028945,0.00109 -0.044897,0.0034 C 6.658426,3.7509531 6.5673792,3.8350946 6.517489,3.9544771 6.5613206,3.6926293 6.7149965,3.4987746 6.897277,3.4987746 Z m -0.6522731,9.912406 c -0.046101,0.209241 -0.2914735,0.37938 -0.3493589,0.417008 -0.021009,0.0042 -0.047031,0.0074 -0.077596,0.0074 -0.3357877,0 -1.0005008,-0.26972 -1.3576185,-0.414596 L 4.4077611,13.39952 C 4.2083321,13.3186 3.8828011,13.267754 3.5679727,13.218549 3.3174732,13.179379 2.9744522,13.125809 2.917568,13.077329 2.871467,13.027449 2.925158,12.865118 2.97209,12.721994 3.006062,12.619122 3.0411,12.512754 3.060299,12.401395 3.087545,12.22384 3.055549,12.079168 3.02986,11.96298 3.008053,11.86442 2.990837,11.786648 3.009316,11.711289 c 0.013416,-0.05584 0.2989168,-0.115626 0.4208672,-0.141218 0.1714166,-0.03601 0.3487247,-0.07308 0.4646523,-0.141044 0.1567712,-0.09171 0.2416652,-0.260756 0.3165379,-0.409949 0.05419,-0.107831 0.1101886,-0.219421 0.1768098,-0.256033 0.00374,-0.002 0.0096,-0.0043 0.02044,-0.0043 0.1248155,0 0.3867022,0.253267 0.5376074,0.48005 0.038256,0.05711 0.1091623,0.171638 0.1911967,0.304276 0.2453452,0.396315 0.5812634,0.939105 0.7567065,1.120999 0.1580832,0.163513 0.414002,0.47797 0.3510674,0.747613 z m 3.642863,-2.769833 c -0.05641,0.26007 -0.06237,1.091851 -0.06303,1.2788 -0.11506,0.141117 -0.6968781,0.805678 -1.5322204,0.925164 -0.3402563,0.04776 -0.6579772,0.07192 -0.9443239,0.07192 -0.2447668,0 -0.4009565,-0.01825 -0.4658113,-0.02767 L 6.462893,12.425904 C 6.628368,12.346963 6.7938424,12.180481 6.7502638,11.880091 6.712927,11.626061 6.374424,11.374115 5.982433,11.082358 5.6619246,10.843843 5.2986278,10.573489 5.1985318,10.34447 4.9916906,9.872163 5.1547552,9.0415758 5.4390121,8.6139038 5.5795028,8.3997653 5.6942465,8.0749995 5.8052299,7.7609999 5.9250491,7.4218889 6.0489697,7.0712518 6.1875666,6.9177936 6.4070339,6.6781613 6.609853,6.2119224 6.645777,5.8444764 c 0.2055039,0.1893599 0.5243012,0.4297539 0.8188262,0.4297539 0.045362,0 0.089371,-0.0057 0.1314173,-0.01719 0.201504,-0.056194 0.4978711,-0.2215055 0.7844796,-0.3813366 0.2471075,-0.1378432 0.5518102,-0.3078292 0.6664742,-0.3232914 0.1965853,0.272537 1.3389457,2.7131373 1.4556607,3.4969055 0.09233,0.6201532 -0.0046,1.1328052 -0.05422,1.3336162 -0.03945,-0.0048 -0.08653,-0.0097 -0.135965,-0.0097 -0.3182215,2.6e-5 -0.4024575,0.167702 -0.4243915,0.267866 z m 3.1929045,1.817526 c -0.06666,0.05876 -0.301099,0.174404 -0.527852,0.286171 -0.402243,0.198248 -0.858168,0.423025 -1.062905,0.630946 -0.288294,0.292901 -0.614377,0.489648 -0.81128,0.489648 -0.02372,0 -0.04526,-0.0027 -0.06449,-0.0091 -0.21376,-0.0643 -0.389781,-0.362217 -0.295184,-0.787019 0.09968,-0.433993 0.214418,-1.024263 0.195851,-1.372311 -0.0038,-0.07904 -0.01154,-0.165086 -0.01852,-0.248314 -0.01309,-0.155566 -0.03259,-0.38677 -0.01247,-0.455374 0.0036,-0.0017 0.0089,-0.0031 0.01328,-0.0043 8.39e-4,0.198957 0.04564,0.59583 0.374341,0.734206 0.09798,0.04129 0.209919,0.06218 0.332737,0.06218 0.32929,0 0.69467,-0.155922 0.844337,-0.300443 0.08814,-0.08499 0.16224,-0.189154 0.214152,-0.271596 0.01138,0.03212 0.01834,0.07404 0.01465,0.128068 -0.01958,0.293458 0.128155,0.682764 0.409294,0.826245 l 0.04093,0.02079 c 0.100098,0.05068 0.366086,0.185524 0.370372,0.249433 -1.32e-4,0 -0.0021,0.0079 -0.01718,0.02082 z"
     id="path7"
     style="fill:url(#linearGradient2);stroke-width:0.0258407" />
</svg>
