<?xml version="1.0" encoding="UTF-8" standalone="no"?>
<svg
   height="16"
   width="16"
   version="1.1"
   id="svg16"
   sodipodi:docname="pattern-basis-devel.svg"
   inkscape:version="1.3.2 (091e20ef0f, 2023-11-25)"
   xmlns:inkscape="http://www.inkscape.org/namespaces/inkscape"
   xmlns:sodipodi="http://sodipodi.sourceforge.net/DTD/sodipodi-0.dtd"
   xmlns:xlink="http://www.w3.org/1999/xlink"
   xmlns="http://www.w3.org/2000/svg"
   xmlns:svg="http://www.w3.org/2000/svg">
  <defs
     id="defs20">
    <linearGradient
       gradientTransform="matrix(1.0499636,0,0,1.0499041,-504.98598,-505.93779)"
       gradientUnits="userSpaceOnUse"
       x2="426.69501"
       y2="499.92099"
       y1="547.67499"
       id="a-6"
       x1="389.32001">
      <stop
         stop-color="#18222a"
         style="stop-color:#1e2b35;stop-opacity:1"
         id="stop216" />
      <stop
         stop-color="#566069"
         offset="1"
         style="stop-color:#6d7983;stop-opacity:1"
         id="stop218" />
    </linearGradient>
    <filter
       id="d-7"
       x="-0.035999998"
       y="-0.036000062"
       width="1.072"
       height="1.0720001"
       color-interpolation-filters="sRGB">
      <feGaussianBlur
         stdDeviation="9"
         id="feGaussianBlur238-5" />
    </filter>
    <linearGradient
       id="linearGradient1432"
       gradientUnits="userSpaceOnUse"
       x1="66"
       x2="66"
       y1="66"
       y2="38"
       gradientTransform="matrix(1.5,0,0,1.5,-12.152542,-12.711864)">
      <stop
         offset="0"
         stop-color="#afb0b3"
         id="stop7-9" />
      <stop
         offset="1"
         stop-color="#bdc3c7"
         id="stop9-1" />
    </linearGradient>
    <linearGradient
       id="linearGradient1436"
       gradientUnits="userSpaceOnUse"
       x1="66"
       x2="66"
       y1="63"
       y2="41"
       gradientTransform="matrix(1.5,0,0,1.5,-12.152542,-12.711864)">
      <stop
         offset="0"
         stop-color="#c0392b"
         id="stop2-2" />
      <stop
         offset="1"
         stop-color="#e74c3c"
         id="stop4-7" />
    </linearGradient>
    <linearGradient
       inkscape:collect="always"
       xlink:href="#a"
       id="linearGradient1441"
       gradientUnits="userSpaceOnUse"
       gradientTransform="matrix(0.46428572,0,0,0.46428572,-22.642858,-16.142855)"
       x1="66"
       y1="66"
       x2="66"
       y2="38" />
    <linearGradient
       inkscape:collect="always"
       xlink:href="#b"
       id="linearGradient1443"
       gradientUnits="userSpaceOnUse"
       gradientTransform="matrix(0.46428572,0,0,0.46428572,-22.642858,-16.142855)"
       x1="66"
       y1="63"
       x2="66"
       y2="41" />
  </defs>
  <sodipodi:namedview
     id="namedview18"
     pagecolor="#ffffff"
     bordercolor="#666666"
     borderopacity="1.0"
     inkscape:showpageshadow="2"
     inkscape:pageopacity="0.0"
     inkscape:pagecheckerboard="0"
     inkscape:deskcolor="#d1d1d1"
     showgrid="false"
     inkscape:zoom="29.5"
     inkscape:cx="13.627119"
     inkscape:cy="9.5084746"
     inkscape:window-width="1920"
     inkscape:window-height="994"
     inkscape:window-x="0"
     inkscape:window-y="0"
     inkscape:window-maximized="1"
     inkscape:current-layer="svg16" />
  <linearGradient
     id="b"
     gradientUnits="userSpaceOnUse"
     x1="66"
     x2="66"
     y1="63"
     y2="41"
     gradientTransform="matrix(1.5,0,0,1.5,-12.152542,-12.711864)">
    <stop
       offset="0"
       stop-color="#c0392b"
       id="stop2" />
    <stop
       offset="1"
       stop-color="#e74c3c"
       id="stop4" />
  </linearGradient>
  <linearGradient
     id="a"
     gradientUnits="userSpaceOnUse"
     x1="66"
     x2="66"
     y1="66"
     y2="38"
     gradientTransform="matrix(1.5,0,0,1.5,-12.152542,-12.711864)">
    <stop
       offset="0"
       stop-color="#afb0b3"
       id="stop7" />
    <stop
       offset="1"
       stop-color="#bdc3c7"
       id="stop9" />
  </linearGradient>
  <path
     d="m 8,1.500002 a 6.5,6.5 0 0 0 -1.392858,0.156 V 2.611966 A 5.5714286,5.5714286 0 0 0 5.175285,3.204859 L 4.500678,2.530252 A 6.5,6.5 0 0 0 2.525606,4.496038 l 0.67925,0.67925 A 5.5714286,5.5714286 0 0 0 2.609642,6.607145 H 1.657856 a 6.5,6.5 0 0 0 -0.157857,1.392857 6.5,6.5 0 0 0 0.156,1.392857 h 0.955965 a 5.5714286,5.5714286 0 0 0 0.592892,1.431857 l -0.674607,0.674607 a 6.5,6.5 0 0 0 1.965786,1.975072 l 0.67925,-0.67925 a 5.5714286,5.5714286 0 0 0 1.431857,0.595214 v 0.951786 a 6.5,6.5 0 0 0 1.392857,0.157857 6.5,6.5 0 0 0 1.392857,-0.156 v -0.955964 a 5.5714286,5.5714286 0 0 0 1.431858,-0.592893 l 0.674608,0.674607 a 6.5,6.5 0 0 0 1.975072,-1.965786 l -0.67925,-0.67925 a 5.5714286,5.5714286 0 0 0 0.595214,-1.431857 h 0.951786 a 6.5,6.5 0 0 0 0.157857,-1.392857 6.5,6.5 0 0 0 -0.156,-1.392857 H 13.388037 A 5.5714286,5.5714286 0 0 0 12.795144,5.175288 L 13.469751,4.500681 A 6.5,6.5 0 0 0 11.503965,2.525609 l -0.679251,0.67925 A 5.5714286,5.5714286 0 0 0 9.392857,2.609645 V 1.657859 A 6.5,6.5 0 0 0 8,1.500002 Z m 3.503962,1.025607 a 6.5,6.5 0 0 0 -2.09207,-0.862178 6.5,6.5 0 0 1 2.09207,0.862178 z m 2.840039,4.081536 a 6.5,6.5 0 0 0 -0.853357,-2.070714 6.5,6.5 0 0 1 0.853357,2.070714 z m -0.869607,4.896821 a 6.5,6.5 0 0 0 0.862178,-2.092071 6.5,6.5 0 0 1 -0.862178,2.092071 z m -4.081538,2.840036 a 6.5,6.5 0 0 0 2.070713,-0.853357 6.5,6.5 0 0 1 -2.070713,0.853357 z M 4.496035,13.474395 A 6.5,6.5 0 0 0 6.588106,14.336573 6.5,6.5 0 0 1 4.496035,13.474395 Z M 1.655999,9.392859 A 6.5,6.5 0 0 0 2.509357,11.463573 6.5,6.5 0 0 1 1.655999,9.392859 Z M 2.525606,4.496038 A 6.5,6.5 0 0 0 1.663428,6.588109 6.5,6.5 0 0 1 2.525606,4.496038 Z M 6.607142,1.656002 A 6.5,6.5 0 0 0 4.536428,2.509359 6.5,6.5 0 0 1 6.607142,1.656002 Z"
     fill="url(#a)"
     id="path12-0"
     style="fill:url(#linearGradient1441);stroke-width:0.464286" />
  <path
     d="M 8,2.892859 A 5.1071429,5.1071429 0 0 0 4.503928,4.285716 H 8.928571 V 2.981073 A 5.1071429,5.1071429 0 0 0 8,2.892863 Z m 1.857142,0.350072 v 1.042785 h 1.643573 A 5.1071429,5.1071429 0 0 0 9.857142,3.242931 Z M 3.721606,5.214288 A 5.1071429,5.1071429 0 0 0 2.918392,7.535716 H 6.142857 V 5.214288 Z m 3.349822,0 v 2.321428 h 6.012501 a 5.1071429,5.1071429 0 0 0 -0.80925,-2.321428 z m -4.155357,3.25 a 5.1071429,5.1071429 0 0 0 0.80925,2.321428 h 5.20325 V 8.464288 Z m 6.941071,0 v 2.321428 h 2.421252 a 5.1071429,5.1071429 0 0 0 0.803214,-2.321428 z m -5.357857,3.25 a 5.1071429,5.1071429 0 0 0 1.643572,1.042785 v -1.042785 z m 2.572143,0 v 1.304643 A 5.1071429,5.1071429 0 0 0 8,13.107141 5.1071429,5.1071429 0 0 0 11.496069,11.714284 Z"
     fill="url(#b)"
     id="path14-9"
     style="fill:url(#linearGradient1443);stroke-width:0.464286" />
  <path
     d="M 7.57145,4.9999998 7.238306,5.9994268 A 2.1428585,2.1428585 0 0 0 7.123622,6.0462988 L 6.18192,5.5758523 5.575879,6.1819003 6.047136,7.1244142 A 2.1428585,2.1428585 0 0 0 5.997756,7.238246 L 5,7.5714043 v 0.8571459 l 0.999427,0.333144 a 2.1428585,2.1428585 0 0 0 0.04687,0.1146832 L 5.57585,9.8180802 6.181898,10.424121 7.124411,9.9528662 a 2.1428585,2.1428585 0 0 0 0.113832,0.04937 L 7.571404,11 H 8.42855 l 0.333144,-0.999426 a 2.1428585,2.1428585 0 0 0 0.114683,-0.04687 L 9.81808,10.424143 10.424121,9.8181002 9.952866,8.875585 A 2.1428585,2.1428585 0 0 0 10.002241,8.7617528 L 11,8.4285957 V 7.5714498 L 10.000574,7.2383058 A 2.1428585,2.1428585 0 0 0 9.953694,7.1236218 L 10.424144,6.1819197 9.818101,5.5758788 8.875587,6.0471357 A 2.1428585,2.1428585 0 0 0 8.761755,5.9977673 L 8.428596,4.9999998 Z m 0.428575,1.2857121 a 1.7142866,1.7142866 0 0 0 -0.144811,0.0078 1.7142866,1.7142866 0 0 1 0.144811,-0.0078 z m 0.144809,0.0078 a 1.7142866,1.7142866 0 0 1 0.0904,0.0108 1.7142866,1.7142866 0 0 0 -0.0904,-0.0108 z m -0.380026,0.0108 a 1.7142866,1.7142866 0 0 0 -0.07952,0.011764 1.7142866,1.7142866 0 0 1 0.07952,-0.011764 z m 0.549946,0.011764 a 1.7142866,1.7142866 0 0 1 0.09542,0.02178 1.7142866,1.7142866 0 0 0 -0.09542,-0.02178 z m -0.724884,0.02178 a 1.7142866,1.7142866 0 0 0 -0.06614,0.01673 1.7142866,1.7142866 0 0 1 0.06614,-0.01673 z m 0.886454,0.01673 a 1.7142866,1.7142866 0 0 1 0.09209,0.030159 1.7142866,1.7142866 0 0 0 -0.09209,-0.030159 z m -1.044639,0.03017 a 1.7142866,1.7142866 0 0 0 -0.07702,0.0285 1.7142866,1.7142866 0 0 1 0.07702,-0.0285 z m 1.213711,0.0285 a 1.7142866,1.7142866 0 0 1 0.0745,0.033501 1.7142866,1.7142866 0 0 0 -0.0745,-0.033501 z m -1.365211,0.033501 a 1.7142866,1.7142866 0 0 0 -0.07954,0.038481 1.7142866,1.7142866 0 0 1 0.07954,-0.038481 z m 1.519239,0.038481 a 1.7142866,1.7142866 0 0 1 0.07031,0.04015 1.7142866,1.7142866 0 0 0 -0.07031,-0.04015 z m -1.66907,0.04015 a 1.7142866,1.7142866 0 0 0 -0.08035,0.04939 1.7142866,1.7142866 0 0 1 0.08035,-0.04939 z m 1.819757,0.04939 a 1.7142866,1.7142866 0 0 1 0.05778,0.041859 1.7142866,1.7142866 0 0 0 -0.05778,-0.041859 z m -1.957887,0.041859 a 1.7142866,1.7142866 0 0 0 -0.07951,0.060279 1.7142866,1.7142866 0 0 1 0.07951,-0.060279 z m 2.095162,0.060279 a 1.7142866,1.7142866 0 0 1 0.05527,0.04854 1.7142866,1.7142866 0 0 0 -0.05527,-0.04854 z m -1.087332,0.03764 A 1.2857154,1.2857154 0 0 1 9.28577,8.000272 1.2857154,1.2857154 0 0 1 8.000054,9.2859919 1.2857154,1.2857154 0 0 1 6.714339,8.000272 1.2857154,1.2857154 0 0 1 8.000054,6.7145559 Z m -1.14257,0.0108 a 1.7142866,1.7142866 0 0 0 -0.06864,0.063639 1.7142866,1.7142866 0 0 1 0.01674,-0.01841 1.7142866,1.7142866 0 0 1 0.0519,-0.045201 z m 2.353802,0.063639 a 1.7142866,1.7142866 0 0 1 0.01842,0.01673 1.7142866,1.7142866 0 0 1 0.0452,0.0519 1.7142866,1.7142866 0 0 0 -0.06364,-0.06864 z m -2.486063,0.06864 a 1.7142866,1.7142866 0 0 0 -0.04853,0.05526 1.7142866,1.7142866 0 0 1 0.04853,-0.05526 z m 2.59822,0.05526 a 1.7142866,1.7142866 0 0 1 0.06025,0.07951 1.7142866,1.7142866 0 0 0 -0.06025,-0.07951 z m -2.707036,0.07951 a 1.7142866,1.7142866 0 0 0 -0.04186,0.05778 1.7142866,1.7142866 0 0 1 0.04186,-0.05778 z m 2.809163,0.05778 a 1.7142866,1.7142866 0 0 1 0.04939,0.08035 1.7142866,1.7142866 0 0 0 -0.04939,-0.08035 z m -2.9004,0.08035 a 1.7142866,1.7142866 0 0 0 -0.04014,0.07031 1.7142866,1.7142866 0 0 1 0.04014,-0.07031 z m 2.989973,0.07031 a 1.7142866,1.7142866 0 0 1 0.0385,0.0795 1.7142866,1.7142866 0 0 0 -0.0385,-0.0795 z m -3.068661,0.0795 a 1.7142866,1.7142866 0 0 0 -0.03348,0.074497 1.7142866,1.7142866 0 0 1 0.03348,-0.074497 z m 3.140615,0.074499 a 1.7142866,1.7142866 0 0 1 0.02849,0.077001 1.7142866,1.7142866 0 0 0 -0.02849,-0.077001 z m -3.20259,0.077001 a 1.7142866,1.7142866 0 0 0 -0.03014,0.0921 1.7142866,1.7142866 0 0 1 0.03014,-0.0921 z m 3.261179,0.0921 a 1.7142866,1.7142866 0 0 1 0.01673,0.066141 1.7142866,1.7142866 0 0 0 -0.01673,-0.066141 z m -3.308064,0.06613 a 1.7142866,1.7142866 0 0 0 -0.02179,0.095439 1.7142866,1.7142866 0 0 1 0.02179,-0.095439 z m 3.346548,0.095439 a 1.7142866,1.7142866 0 0 1 0.01164,0.0795 1.7142866,1.7142866 0 0 0 -0.01164,-0.0795 z m -3.380017,0.0795 a 1.7142866,1.7142866 0 0 0 -0.0108,0.090399 1.7142866,1.7142866 0 0 1 0.0108,-0.090399 z m 3.402644,0.090398 a 1.7142866,1.7142866 0 0 1 0.0078,0.14481 1.7142866,1.7142866 0 0 0 -0.0078,-0.14481 z M 6.28577,8.0002126 a 1.7142866,1.7142866 0 0 0 0.0078,0.1448079 1.7142866,1.7142866 0 0 1 -0.0078,-0.1448079 z m 3.421027,0.1448073 a 1.7142866,1.7142866 0 0 1 -0.0108,0.090399 1.7142866,1.7142866 0 0 0 0.0108,-0.090399 z m -3.402644,0.090399 a 1.7142866,1.7142866 0 0 0 0.01164,0.079521 1.7142866,1.7142866 0 0 1 -0.01164,-0.079521 z m 3.380017,0.079521 a 1.7142866,1.7142866 0 0 1 -0.02179,0.095439 1.7142866,1.7142866 0 0 0 0.02179,-0.095439 z m -3.346548,0.095439 a 1.7142866,1.7142866 0 0 0 0.01673,0.06613 1.7142866,1.7142866 0 0 1 -0.01673,-0.06613 z m 3.308064,0.06613 a 1.7142866,1.7142866 0 0 1 -0.03013,0.09209 1.7142866,1.7142866 0 0 0 0.03013,-0.09209 z m -3.261179,0.09209 a 1.7142866,1.7142866 0 0 0 0.0285,0.077001 1.7142866,1.7142866 0 0 1 -0.0285,-0.077001 z m 3.20259,0.077001 a 1.7142866,1.7142866 0 0 1 -0.03349,0.074496 1.7142866,1.7142866 0 0 0 0.03349,-0.074496 z m -3.140615,0.074496 a 1.7142866,1.7142866 0 0 0 0.03848,0.07951 1.7142866,1.7142866 0 0 1 -0.03848,-0.07951 z m 3.068661,0.07951 a 1.7142866,1.7142866 0 0 1 -0.04014,0.07031 1.7142866,1.7142866 0 0 0 0.04014,-0.07031 z m -2.989973,0.07032 a 1.7142866,1.7142866 0 0 0 0.04939,0.08034 1.7142866,1.7142866 0 0 1 -0.04939,-0.08034 z m 2.9004,0.08034 a 1.7142866,1.7142866 0 0 1 -0.04183,0.05778 1.7142866,1.7142866 0 0 0 0.04183,-0.05778 z m -2.809163,0.05778 a 1.7142866,1.7142866 0 0 0 0.06026,0.0795 1.7142866,1.7142866 0 0 1 -0.06026,-0.0795 z m 2.707036,0.0795 a 1.7142866,1.7142866 0 0 1 -0.04853,0.05525 1.7142866,1.7142866 0 0 0 0.04853,-0.05525 z m -2.59822,0.05525 a 1.7142866,1.7142866 0 0 0 0.06364,0.06865 1.7142866,1.7142866 0 0 1 -0.01841,-0.01673 1.7142866,1.7142866 0 0 1 -0.0452,-0.05191 z m 2.486063,0.06865 a 1.7142866,1.7142866 0 0 1 -0.01673,0.01841 1.7142866,1.7142866 0 0 1 -0.0519,0.045201 1.7142866,1.7142866 0 0 0 0.06864,-0.063639 z m -2.353802,0.063639 a 1.7142866,1.7142866 0 0 0 0.05527,0.04854 1.7142866,1.7142866 0 0 1 -0.05527,-0.04854 z m 2.229902,0.04854 a 1.7142866,1.7142866 0 0 1 -0.07952,0.060261 1.7142866,1.7142866 0 0 0 0.07952,-0.060261 z m -2.095162,0.060261 a 1.7142866,1.7142866 0 0 0 0.05778,0.04183 1.7142866,1.7142866 0 0 1 -0.05778,-0.04183 z m 1.957887,0.041833 a 1.7142866,1.7142866 0 0 1 -0.08034,0.04938 1.7142866,1.7142866 0 0 0 0.08034,-0.04938 z m -1.819757,0.049381 a 1.7142866,1.7142866 0 0 0 0.07032,0.04014 1.7142866,1.7142866 0 0 1 -0.07032,-0.04014 z m 1.66907,0.04014 a 1.7142866,1.7142866 0 0 1 -0.0795,0.0385 1.7142866,1.7142866 0 0 0 0.0795,-0.0385 z m -1.519239,0.0385 a 1.7142866,1.7142866 0 0 0 0.07448,0.03348 1.7142866,1.7142866 0 0 1 -0.07448,-0.03348 z m 1.365211,0.03348 a 1.7142866,1.7142866 0 0 1 -0.077,0.0285 1.7142866,1.7142866 0 0 0 0.077,-0.0285 z m -1.213711,0.0285 a 1.7142866,1.7142866 0 0 0 0.09208,0.03014 1.7142866,1.7142866 0 0 1 -0.09208,-0.03014 z m 1.044639,0.03014 a 1.7142866,1.7142866 0 0 1 -0.06614,0.01673 1.7142866,1.7142866 0 0 0 0.06614,-0.01673 z m -0.886454,0.01673 a 1.7142866,1.7142866 0 0 0 0.09542,0.02179 1.7142866,1.7142866 0 0 1 -0.09542,-0.02179 z m 0.724884,0.02179 a 1.7142866,1.7142866 0 0 1 -0.07952,0.01164 1.7142866,1.7142866 0 0 0 0.07952,-0.01164 z m -0.549946,0.01164 a 1.7142866,1.7142866 0 0 0 0.0904,0.0108 1.7142866,1.7142866 0 0 1 -0.0904,-0.0108 z m 0.380026,0.0108 a 1.7142866,1.7142866 0 0 1 -0.144809,0.0078 1.7142866,1.7142866 0 0 0 0.144809,-0.0078 z"
     fill="#3d3846"
     id="path23"
     style="stroke-width:0.428574" />
</svg>
