<?xml version="1.0" encoding="UTF-8" standalone="no"?>
<svg
   width="16"
   height="16"
   version="1.1"
   id="svg43"
   sodipodi:docname="solaar.svg"
   inkscape:version="1.3.2 (091e20ef0f, 2023-11-25)"
   xmlns:inkscape="http://www.inkscape.org/namespaces/inkscape"
   xmlns:sodipodi="http://sodipodi.sourceforge.net/DTD/sodipodi-0.dtd"
   xmlns:xlink="http://www.w3.org/1999/xlink"
   xmlns="http://www.w3.org/2000/svg"
   xmlns:svg="http://www.w3.org/2000/svg">
  <sodipodi:namedview
     id="namedview45"
     pagecolor="#ffffff"
     bordercolor="#666666"
     borderopacity="1.0"
     inkscape:showpageshadow="2"
     inkscape:pageopacity="0.0"
     inkscape:pagecheckerboard="0"
     inkscape:deskcolor="#d1d1d1"
     showgrid="false"
     inkscape:zoom="11.256496"
     inkscape:cx="15.457741"
     inkscape:cy="18.877988"
     inkscape:window-width="1920"
     inkscape:window-height="994"
     inkscape:window-x="0"
     inkscape:window-y="0"
     inkscape:window-maximized="1"
     inkscape:current-layer="svg43" />
  <defs
     id="defs23">
    <linearGradient
       id="a"
       y1="543.79999"
       y2="503.79999"
       x2="0"
       gradientUnits="userSpaceOnUse">
      <stop
         stop-color="#c6cdd1"
         id="stop2" />
      <stop
         offset="1"
         stop-color="#e0e5e7"
         id="stop4" />
    </linearGradient>
    <linearGradient
       id="b"
       y1="13"
       y2="33"
       x2="0"
       gradientUnits="userSpaceOnUse"
       gradientTransform="matrix(1,0,0,-1,384.57,545.8)">
      <stop
         stop-color="#42a603"
         id="stop7" />
      <stop
         offset="1"
         stop-color="#78da06"
         id="stop9" />
    </linearGradient>
    <linearGradient
       xlink:href="#b"
       id="c"
       y1="42"
       y2="6"
       gradientUnits="userSpaceOnUse"
       x2="0" />
    <linearGradient
       id="d"
       y1="539.79999"
       x1="410.57001"
       y2="523.79999"
       x2="428.57001"
       gradientUnits="userSpaceOnUse">
      <stop
         stop-color="#42a603"
         id="stop13" />
      <stop
         offset="1"
         stop-color="#78da06"
         stop-opacity="0"
         id="stop15" />
    </linearGradient>
    <linearGradient
       id="e"
       y1="520.79999"
       x1="402.57001"
       y2="536.79999"
       x2="418.57001"
       gradientUnits="userSpaceOnUse"
       gradientTransform="translate(-384.57,-499.8)">
      <stop
         stop-color="#292c2f"
         id="stop18" />
      <stop
         offset="1"
         stop-opacity="0"
         id="stop20" />
    </linearGradient>
    <linearGradient
       id="a-3"
       y1="543.79999"
       y2="503.79999"
       x2="0"
       gradientUnits="userSpaceOnUse"
       gradientTransform="matrix(1.0499473,0,0,1.0499997,-400.97592,-521.98984)">
      <stop
         stop-color="#c6cdd1"
         id="stop2-6" />
      <stop
         offset="1"
         stop-color="#e0e5e7"
         id="stop4-7" />
    </linearGradient>
    <linearGradient
       id="e-5"
       y1="520.79999"
       x1="402.57001"
       y2="536.79999"
       x2="418.57001"
       gradientUnits="userSpaceOnUse"
       gradientTransform="matrix(1.0499473,0,0,1.0499997,-400.97592,-521.98984)">
      <stop
         stop-color="#292c2f"
         id="stop18-3" />
      <stop
         offset="1"
         stop-opacity="0"
         id="stop20-5" />
    </linearGradient>
    <linearGradient
       id="b-2"
       y1="13"
       y2="33"
       x2="0"
       gradientUnits="userSpaceOnUse"
       gradientTransform="matrix(1,0,0,-1,384.57,545.8)">
      <stop
         stop-color="#42a603"
         id="stop7-9" />
      <stop
         offset="1"
         stop-color="#78da06"
         id="stop9-1" />
    </linearGradient>
    <linearGradient
       id="d-2"
       y1="539.79999"
       x1="410.57001"
       y2="523.79999"
       x2="428.57001"
       gradientUnits="userSpaceOnUse"
       gradientTransform="matrix(1.0499473,0,0,1.0499997,-400.97592,-521.98984)">
      <stop
         stop-color="#42a603"
         id="stop13-7" />
      <stop
         offset="1"
         stop-color="#78da06"
         stop-opacity="0"
         id="stop15-0" />
    </linearGradient>
    <linearGradient
       xlink:href="#b-2"
       id="c-9"
       y1="42"
       y2="6"
       gradientUnits="userSpaceOnUse"
       x2="0"
       gradientTransform="matrix(1.0499473,0,0,1.0499997,2.8023132,2.8000101)" />
    <linearGradient
       id="linearGradient579"
       y1="13"
       y2="33"
       x2="0"
       gradientUnits="userSpaceOnUse"
       gradientTransform="matrix(1,0,0,-1,384.57,545.8)">
      <stop
         stop-color="#42a603"
         id="stop575" />
      <stop
         offset="1"
         stop-color="#78da06"
         id="stop577" />
    </linearGradient>
    <linearGradient
       inkscape:collect="always"
       xlink:href="#linearGradient11"
       id="linearGradient2"
       x1="10.707618"
       y1="18.301517"
       x2="37.173615"
       y2="44.767513"
       gradientUnits="userSpaceOnUse"
       gradientTransform="matrix(0.49119628,0,0,0.49119634,-3.759541,-7.48964)" />
    <linearGradient
       id="b-2-3"
       y1="13"
       y2="33"
       x2="0"
       gradientUnits="userSpaceOnUse"
       gradientTransform="matrix(1,0,0,-1,384.57,545.8)">
      <stop
         stop-color="#42a603"
         id="stop7-9-6" />
      <stop
         offset="1"
         stop-color="#78da06"
         id="stop9-1-1" />
    </linearGradient>
    <linearGradient
       inkscape:collect="always"
       xlink:href="#linearGradient11"
       id="linearGradient1"
       gradientUnits="userSpaceOnUse"
       x1="29.517408"
       y1="7.7983851"
       x2="29.488047"
       y2="51.897598"
       gradientTransform="matrix(0.27373318,0,0,0.26367689,-0.2077609,0.16955237)" />
    <linearGradient
       id="linearGradient11"
       inkscape:collect="always">
      <stop
         style="stop-color:#acfbfe;stop-opacity:1;"
         offset="0"
         id="stop11-3" />
      <stop
         style="stop-color:#02797e;stop-opacity:1;"
         offset="1"
         id="stop12" />
    </linearGradient>
  </defs>
  <path
     id="circle2"
     style="opacity:0.99;fill:url(#linearGradient2);fill-opacity:1;stroke-width:0.491196"
     d="M 14.5,8 A 6.4999994,6.5000002 0 0 1 8,14.5 6.4999994,6.5000002 0 0 1 1.5,8 6.4999994,6.5000002 0 0 1 8,1.5 6.4999994,6.5000002 0 0 1 14.5,8 Z" />
  <path
     id="circle858"
     style="fill:#1c202f;fill-opacity:1;stroke-width:0.417883"
     d="M 13.529826,8 A 5.5298259,5.529827 0 0 1 8,13.52983 5.5298259,5.529827 0 0 1 2.470174,8 5.5298259,5.529827 0 0 1 8,2.47017 5.5298259,5.529827 0 0 1 13.529826,8 Z" />
  <path
     style="opacity:0.3;fill:#000000;fill-opacity:1;stroke:none;stroke-width:0.298512;stroke-dasharray:none;stroke-opacity:0.3"
     d="m 6.0308189,4.0866138 -1.262375,0.7019075 1.139977,1.9014582 a 2.9147104,2.807631 0 0 0 -0.776362,1.300997 H 2.849256 v 1.4038142 h 2.2806779 a 2.9147104,2.807631 0 0 0 0.779195,1.2989433 l -1.140685,1.903508 1.262375,0.701911 1.140686,-1.903509 a 2.9147104,2.807631 0 0 0 0.778491,0.104869 2.9147104,2.807631 0 0 0 0.7799189,-0.10213 L 9.869182,13.299159 11.13156,12.597248 9.991578,10.695791 a 2.9147104,2.807631 0 0 0 0.776355,-1.3009993 h 2.282811 V 7.9909765 H 10.770067 A 2.9147104,2.807631 0 0 0 9.990867,6.6920348 L 11.13156,4.7885213 9.869182,4.0866138 8.7284918,5.9901278 A 2.9147104,2.807631 0 0 0 7.9499959,5.885253 2.9147104,2.807631 0 0 0 7.1700819,5.9873862 Z m 1.919177,2.851501 A 1.8216941,1.7547693 0 0 1 9.771694,8.6928835 1.8216941,1.7547693 0 0 1 7.9499959,10.44765 1.8216941,1.7547693 0 0 1 6.1283099,8.6928835 1.8216941,1.7547693 0 0 1 7.9499959,6.9381148 Z"
     id="path8-0-0" />
  <path
     d="M 6.0308189,3.5006649 4.7684439,4.202573 5.9084209,6.1040308 A 2.9147104,2.807631 0 0 0 5.1320589,7.4050276 H 2.849256 v 1.4038162 h 2.2806779 a 2.9147104,2.807631 0 0 0 0.779195,1.2989352 l -1.140685,1.903515 1.262375,0.701908 1.140686,-1.903516 a 2.9147104,2.807631 0 0 0 0.778491,0.104881 2.9147104,2.807631 0 0 0 0.7799189,-0.102128 L 9.869182,12.7132 11.13156,12.011295 9.991578,10.109845 a 2.9147104,2.807631 0 0 0 0.776355,-1.3010053 h 2.282811 V 7.4050276 H 10.770067 A 2.9147104,2.807631 0 0 0 9.990867,6.1060864 L 11.13156,4.202573 9.869182,3.5006649 8.7284918,5.404179 A 2.9147104,2.807631 0 0 0 7.9499959,5.2993042 2.9147104,2.807631 0 0 0 7.1700819,5.4014373 Z M 7.9499959,6.352166 A 1.8216941,1.7547693 0 0 1 9.771694,8.1069353 1.8216941,1.7547693 0 0 1 7.9499959,9.861702 1.8216941,1.7547693 0 0 1 6.1283099,8.1069353 1.8216941,1.7547693 0 0 1 7.9499959,6.352166 Z"
     id="path8-0"
     style="fill:url(#linearGradient1);fill-opacity:1;stroke:#000000;stroke-width:0.298512;stroke-dasharray:none;stroke-opacity:0.3" />
</svg>
