<?xml version="1.0" encoding="UTF-8" standalone="no"?>
<svg
   width="16"
   height="16"
   version="1.1"
   id="svg1"
   sodipodi:docname="zettlr.svg"
   inkscape:version="1.3.2 (091e20ef0f, 2023-11-25)"
   xmlns:inkscape="http://www.inkscape.org/namespaces/inkscape"
   xmlns:sodipodi="http://sodipodi.sourceforge.net/DTD/sodipodi-0.dtd"
   xmlns:xlink="http://www.w3.org/1999/xlink"
   xmlns="http://www.w3.org/2000/svg"
   xmlns:svg="http://www.w3.org/2000/svg">
  <defs
     id="defs1">
    <linearGradient
       inkscape:collect="always"
       xlink:href="#aurora-1"
       id="linearGradient26-3"
       x1="0.5"
       y1="15"
       x2="15.5"
       y2="1"
       gradientUnits="userSpaceOnUse"
       gradientTransform="matrix(0.86666668,0,0,0.92857136,1.0666655,0.5714282)" />
    <linearGradient
       id="aurora-1"
       x1="0"
       x2="0"
       y1="0"
       y2="1">
      <stop
         offset="0"
         style="stop-color:#32a980;stop-opacity:1;"
         id="stop3-4" />
      <stop
         offset="0.5049538"
         style="stop-color:#c779d0;stop-opacity:1;"
         id="stop1-9" />
      <stop
         offset="1"
         style="stop-color:#32a980;stop-opacity:1;"
         id="stop4-9" />
    </linearGradient>
  </defs>
  <sodipodi:namedview
     id="namedview1"
     pagecolor="#ffffff"
     bordercolor="#000000"
     borderopacity="0.25"
     inkscape:showpageshadow="2"
     inkscape:pageopacity="0.0"
     inkscape:pagecheckerboard="0"
     inkscape:deskcolor="#d1d1d1"
     inkscape:zoom="16.948466"
     inkscape:cx="5.8412366"
     inkscape:cy="-2.4485992"
     inkscape:window-width="1920"
     inkscape:window-height="994"
     inkscape:window-x="0"
     inkscape:window-y="0"
     inkscape:window-maximized="1"
     inkscape:current-layer="svg1" />
  <path
     style="opacity:0.2;stroke-width:0.2"
     d="M 8.0580302,11.520669 C 8.1824063,11.255074 8.4682341,11.029892 8.5533228,10.73372 8.6578864,10.458747 8.6242718,10.127348 8.3455906,9.9665469 8.2465486,9.8824239 8.0958168,9.9379469 7.9738604,9.9157209 7.3569541,9.8942389 6.6737892,9.9274969 6.1741884,9.5015909 5.6679419,9.0554655 5.6218789,8.2771876 5.7229868,7.6548405 5.9373628,6.5850084 6.6949244,5.7260612 7.5066044,5.0362622 7.6209874,4.9337282 7.9870849,4.4980992 7.6339071,4.5292492 7.0977102,4.5054092 5.8794325,4.5120292 5.8794325,4.5120292 v -0.79137 h 3.7999999 v 0.79142 C 8.7628273,5.0918532 7.8464975,5.8851072 7.3457151,6.8676245 7.1068818,7.3328204 7.0016204,7.8326573 7.2169092,8.3245196 c 0.142298,0.2888657 0.55509,0.4105408 0.8623291,0.400144 0.3686394,0.041181 0.7616594,-0.029393 1.1111321,0.1146699 0.4833933,0.2082358 0.7350198,0.7588124 0.682122,1.2648835 -0.020857,0.470644 -0.2645791,1.062306 -0.5645166,1.416452 z"
     id="path2" />
  <path
     style="fill:#32a980;stroke-width:0.2;fill-opacity:1"
     d="M 8.0580302,11.320669 C 8.1824063,11.055074 8.4682341,10.829892 8.5533228,10.53372 8.6578864,10.258747 8.6242718,9.9273476 8.3455906,9.7665469 8.2465486,9.6824259 8.0958168,9.7379469 7.9738604,9.7157209 7.3569541,9.6942439 6.6737892,9.7274969 6.1741884,9.3015909 5.6679419,8.8554655 5.6218789,8.0771876 5.7229868,7.4548405 5.9373628,6.3850082 6.6949244,5.5260582 7.5066044,4.8362622 7.6209874,4.7337282 7.9870849,4.2980992 7.6339071,4.3292492 7.0977102,4.3054092 5.8794325,4.3120792 5.8794325,4.3120792 v -0.79141 h 3.7999999 v 0.79142 c -0.9166051,0.579774 -1.8329349,1.373029 -2.3337173,2.355543 -0.2388333,0.465196 -0.3440947,0.9650328 -0.1288059,1.456895 0.142298,0.2888658 0.55509,0.410541 0.8623291,0.400144 0.3686394,0.041182 0.7616594,-0.029393 1.1111321,0.11467 0.4833933,0.2082358 0.7350198,0.7588127 0.682122,1.2648838 -0.020858,0.470636 -0.2645791,1.062298 -0.5645166,1.416444 z"
     id="path3" />
  <path
     class="ColorScheme-Text"
     d="M 2.8928558,1.5 C 2.1295705,1.5 1.5,2.2345 1.5,3.125 v 9.75 c 0,0.891574 0.6295705,1.625 1.3928558,1.625 H 13.107141 C 13.870435,14.5 14.5,13.766574 14.5,12.875 V 3.125 C 14.5,2.2345 13.870436,1.5 13.107141,1.5 Z m 0,1.083332 h 3.2500001 0.9285708 v 0 h 3.5285723 v 0 0 0 h 2.507141 c 0.265565,0 0.462474,0.232925 0.464281,0.541668 l -4.16e-4,9.20833 H 12.999996 2.9999999 2.3746375 L 2.4285687,3.125 C 2.430364,2.816257 2.627284,2.583332 2.8928538,2.583332 Z m 4.1785709,0 h 1.8571446 v 0 0 z"
     font-family="sans-serif"
     font-weight="400"
     overflow="visible"
     id="path22-2"
     sodipodi:nodetypes="sssssssssscccccccssccccssccccc"
     style="color:#d5c289;fill:url(#linearGradient26-3);stroke-width:0.897079" />
</svg>
