<?xml version="1.0" encoding="UTF-8" standalone="no"?>
<svg
   width="64"
   version="1.1"
   height="64"
   id="svg17"
   sodipodi:docname="favorites.svg"
   inkscape:version="1.3 (0e150ed6c4, 2023-07-21)"
   xmlns:inkscape="http://www.inkscape.org/namespaces/inkscape"
   xmlns:sodipodi="http://sodipodi.sourceforge.net/DTD/sodipodi-0.dtd"
   xmlns:xlink="http://www.w3.org/1999/xlink"
   xmlns="http://www.w3.org/2000/svg"
   xmlns:svg="http://www.w3.org/2000/svg"
   xmlns:rdf="http://www.w3.org/1999/02/22-rdf-syntax-ns#"
   xmlns:cc="http://creativecommons.org/ns#"
   xmlns:dc="http://purl.org/dc/elements/1.1/">
  <sodipodi:namedview
     pagecolor="#ffffff"
     bordercolor="#666666"
     borderopacity="1"
     objecttolerance="10"
     gridtolerance="10"
     guidetolerance="10"
     inkscape:pageopacity="0"
     inkscape:pageshadow="2"
     inkscape:window-width="1920"
     inkscape:window-height="994"
     id="namedview19"
     showgrid="true"
     inkscape:zoom="9.8124999"
     inkscape:cx="22.573249"
     inkscape:cy="38.878981"
     inkscape:window-x="0"
     inkscape:window-y="0"
     inkscape:window-maximized="1"
     inkscape:current-layer="layer1"
     inkscape:document-rotation="0"
     inkscape:showpageshadow="2"
     inkscape:pagecheckerboard="0"
     inkscape:deskcolor="#d1d1d1">
    <inkscape:grid
       type="xygrid"
       id="grid844"
       originx="0"
       originy="0"
       spacingy="1"
       spacingx="1"
       units="px"
       visible="true" />
  </sodipodi:namedview>
  <defs
     id="defs5455">
    <linearGradient
       id="linearGradient3"
       inkscape:collect="always">
      <stop
         style="stop-color:#5599ff;stop-opacity:1"
         offset="0"
         id="stop1" />
      <stop
         style="stop-color:#00d4aa;stop-opacity:1"
         offset="0.48888862"
         id="stop2" />
      <stop
         style="stop-color:#0066ff;stop-opacity:1"
         offset="1"
         id="stop3" />
    </linearGradient>
    <clipPath
       clipPathUnits="userSpaceOnUse"
       id="clipPath79425-9-5-3">
      <rect
         style="opacity:0.5;fill:#000000;fill-opacity:1;stroke:none;stroke-width:0.855869;stroke-dasharray:none;stroke-opacity:1;paint-order:stroke fill markers"
         id="rect79427-1-9-6"
         width="26.417742"
         height="29.037542"
         x="-16.227774"
         y="-6.4845476" />
    </clipPath>
    <clipPath
       clipPathUnits="userSpaceOnUse"
       id="clipPath79425-9-5-5">
      <rect
         style="opacity:0.5;fill:#000000;fill-opacity:1;stroke:none;stroke-width:0.855869;stroke-dasharray:none;stroke-opacity:1;paint-order:stroke fill markers"
         id="rect79427-1-9-62"
         width="26.417742"
         height="29.037542"
         x="-16.227774"
         y="-6.4845476" />
    </clipPath>
    <linearGradient
       inkscape:collect="always"
       xlink:href="#linearGradient24"
       id="linearGradient17"
       x1="392.57144"
       y1="536.79797"
       x2="444.57144"
       y2="507.798"
       gradientUnits="userSpaceOnUse"
       gradientTransform="translate(5e-6,-1.6e-4)" />
    <linearGradient
       inkscape:collect="always"
       xlink:href="#linearGradient3"
       id="linearGradient4"
       gradientUnits="userSpaceOnUse"
       gradientTransform="translate(0.999955,4.023174)"
       x1="397.57144"
       y1="511.27505"
       x2="415.57144"
       y2="511.27505" />
    <linearGradient
       inkscape:collect="always"
       xlink:href="#linearGradient3"
       id="linearGradient5"
       gradientUnits="userSpaceOnUse"
       gradientTransform="translate(-3.5e-5,-1.49e-4)"
       x1="387.57144"
       y1="537.79797"
       x2="445.57144"
       y2="492.798" />
    <linearGradient
       id="linearGradient24"
       inkscape:collect="always">
      <stop
         style="stop-color:#ff9955;stop-opacity:1"
         offset="0"
         id="stop22" />
      <stop
         style="stop-color:#00d4aa;stop-opacity:1"
         offset="0.48888862"
         id="stop23" />
      <stop
         style="stop-color:#0066ff;stop-opacity:1"
         offset="1"
         id="stop24" />
    </linearGradient>
    <linearGradient
       inkscape:collect="always"
       xlink:href="#linearGradient3"
       id="linearGradient2"
       x1="421.77142"
       y1="523.79803"
       x2="440.48914"
       y2="523.79803"
       gradientUnits="userSpaceOnUse" />
  </defs>
  <metadata
     id="metadata5458">
    <rdf:RDF>
      <cc:Work
         rdf:about="">
        <dc:format>image/svg+xml</dc:format>
        <dc:type
           rdf:resource="http://purl.org/dc/dcmitype/StillImage" />
      </cc:Work>
    </rdf:RDF>
  </metadata>
  <g
     inkscape:label="Capa 1"
     inkscape:groupmode="layer"
     id="layer1"
     transform="translate(-384.57143,-483.798)">
    <path
       inkscape:connector-curvature="0"
       id="fill-3"
       d="m 393.5714,509.19784 3e-5,26.355 c -0.0932,0.57145 -0.23037,0.90721 -0.644,1.24501 l 49.644,-1e-5 c 1.25773,0 2,-0.20551 2,-1.99362 v -25.50638 c 0,-0.66722 -0.33428,-1.5 -1.9,-1.5 h -47.10899 c -0.99101,0 -1.99101,0 -1.99104,1.4 z"
       style="color:#1e92ff;opacity:0.4;fill:url(#linearGradient17);fill-opacity:0.4;fill-rule:nonzero;stroke:none;stroke-width:8.11634"
       sodipodi:nodetypes="ccccccccc" />
    <rect
       x="398.57135"
       y="513.79779"
       width="18"
       height="3"
       ry="1.5"
       stroke-width="5.07132"
       style="opacity:0.8;fill:url(#linearGradient4);fill-opacity:1;paint-order:stroke markers fill"
       id="rect12-5-9-3-9-7-7-9"
       rx="1.5000117" />
    <path
       d="m 443.46966,505.807 -0.89826,-0.009 v -2.5759 c -0.002,-1.58874 -1,-3.4241 -3.371,-3.4241 h -21.84697 c -3.78203,0 -3.78203,-1 -5.08103,-2.46383 l -1.527,-2.91564 c -0.52262,-0.98802 -1.70328,-1.61594 -2.88972,-1.62053 h -18.28425 c -1.71233,0.002 -2.99826,1.41164 -3,3 l 10e-6,39.5 c 0,2.0466 1.46781,3.5 3.4,3.5 h 53.49825 c 1.71233,-0.002 3.1,-1.28887 3.10174,-2.87723 v -27.23662 c -0.002,-1.58827 -1.3895,-2.87535 -3.10174,-2.877 z m -54.89826,29.49085 v -38.5 c 7.7e-4,-0.82599 0,-2 2,-2 h 15.7 c 1,0 2.1,0 2.736,1.324 l 1.526,2.515 c 1.21959,2.31102 3.038,3.161 6.038,3.161 l 22.53,-2e-5 c 0.89087,4.4e-4 1.46876,0.69766 1.47001,1.52402 v 2.48513 l -46,-0.009 c -2,0 -3,1 -3,3 v 26.49987 c -0.0453,1.95192 -2.95472,1.95192 -3.00001,0 z m 56,-0.5 c 0,2 -1.10954,1.99931 -2,2 h -50 c 0,0 1,0.34375 1,-1.5 v -25.5 c 0,-1.38848 0,-2 2,-2 h 47 c 2,0 1.99923,1.17399 2,2 z"
       id="path6-5-2-5-1"
       style="opacity:0.7;fill:url(#linearGradient5)"
       sodipodi:nodetypes="cccccccccccccccccccccccccccccccccccccccc" />
    <path
       d="m 435.74183,532.79725 a 2.9702945,2.9702945 0 0 1 -1.7343,-0.66245 l -2.87667,-1.81134 -2.87671,1.81134 c -1.41707,1.02969 -2.38633,0.634 -2.83958,0.30496 -0.45326,-0.32906 -1.12767,-1.12729 -0.58901,-2.79029 l 0.81838,-3.41565 -2.60809,-2.10618 c -1.42216,-1.03085 -1.3455,-2.07672 -1.17227,-2.6099 0.17314,-0.53325 0.72469,-1.42215 2.47628,-1.42215 v 0 l 3.41062,-0.22649 1.2619,-3.15502 c 0.54186,-1.66624 1.55861,-1.91608 2.11848,-1.91608 0.55984,0 1.57658,0.24984 2.11775,1.91576 l 1.26191,3.155 3.41066,0.22643 v 0 c 1.75156,0 2.30421,0.89005 2.47628,1.42216 0.17208,0.53211 0.24949,1.57696 -1.16795,2.60629 l -2.61784,2.18145 0.21857,0.9289 a 0.72012371,0.72012371 0 0 1 -1.40196,0.32982 l -0.32044,-1.36206 a 0.72007136,0.72007136 0 0 1 0.24011,-0.71826 l 2.97893,-2.48243 c 0.013,-0.0108 0.0272,-0.0218 0.0409,-0.0315 0.36506,-0.26244 0.77617,-0.64983 0.6599,-1.00808 -0.11627,-0.35823 -0.65923,-0.42809 -1.12615,-0.42734 -0.0156,0 -0.034,0 -0.0512,0 l -3.86352,-0.25527 a 0.74383374,0.74383374 0 0 1 -0.64378,-0.4515 l -1.44015,-3.60033 q -0.01,-0.0244 -0.0172,-0.0484 c -0.13681,-0.42954 -0.37876,-0.94005 -0.75429,-0.94005 -0.37549,0 -0.61747,0.51051 -0.75429,0.93896 q -0.009,0.0248 -0.0172,0.0484 l -1.44012,3.6004 a 0.72007136,0.72007136 0 0 1 -0.66864,0.45253 l -3.83972,0.25529 c -0.0168,0 -0.0328,0 -0.0512,0 -0.45974,-0.002 -1.01028,0.0696 -1.12618,0.42735 -0.11596,0.35753 0.29489,0.74489 0.65992,1.00807 0.0104,0.009 0.022,0.016 0.0317,0.0248 l 2.97714,2.40432 a 0.72007136,0.72007136 0 0 1 0.24774,0.72797 l -0.93031,3.88697 c -0.005,0.02 -0.0102,0.0396 -0.0164,0.0586 -0.14116,0.42697 -0.24593,0.9822 0.0584,1.20288 0.30385,0.22068 0.79958,-0.0497 1.16216,-0.31609 0.0137,-0.0103 0.0279,-0.02 0.0428,-0.0288 l 3.28137,-2.06627 a 0.72007136,0.72007136 0 0 1 0.76763,0 l 3.28136,2.06483 c 0.014,0.01 0.0284,0.0188 0.0428,0.0288 0.3622,0.26605 0.85726,0.53678 1.16216,0.31611 0.30499,-0.22072 0.19914,-0.7759 0.0584,-1.20293 a 0.72047512,0.72047512 0 1 1 1.36816,-0.45219 c 0.55661,1.68352 -0.12385,2.48966 -0.57891,2.82019 a 1.8639047,1.8639047 0 0 1 -1.10605,0.35929 z"
       id="path4-5-0-9"
       style="fill:url(#linearGradient2);fill-opacity:1;stroke-width:0.36004" />
  </g>
</svg>
