<?xml version="1.0" encoding="UTF-8" standalone="no"?>
<svg
   width="64"
   version="1.1"
   height="64"
   id="svg16"
   sodipodi:docname="folder-docker.svg"
   inkscape:version="1.3 (0e150ed6c4, 2023-07-21)"
   xmlns:inkscape="http://www.inkscape.org/namespaces/inkscape"
   xmlns:sodipodi="http://sodipodi.sourceforge.net/DTD/sodipodi-0.dtd"
   xmlns:xlink="http://www.w3.org/1999/xlink"
   xmlns="http://www.w3.org/2000/svg"
   xmlns:svg="http://www.w3.org/2000/svg"
   xmlns:rdf="http://www.w3.org/1999/02/22-rdf-syntax-ns#"
   xmlns:cc="http://creativecommons.org/ns#"
   xmlns:dc="http://purl.org/dc/elements/1.1/">
  <sodipodi:namedview
     pagecolor="#ffffff"
     bordercolor="#666666"
     borderopacity="1"
     objecttolerance="10"
     gridtolerance="10"
     guidetolerance="10"
     inkscape:pageopacity="0"
     inkscape:pageshadow="2"
     inkscape:window-width="1920"
     inkscape:window-height="994"
     id="namedview18"
     showgrid="true"
     inkscape:zoom="6.938485"
     inkscape:cx="27.81587"
     inkscape:cy="27.455561"
     inkscape:window-x="0"
     inkscape:window-y="0"
     inkscape:window-maximized="1"
     inkscape:current-layer="layer1"
     inkscape:document-rotation="0"
     inkscape:showpageshadow="2"
     inkscape:pagecheckerboard="0"
     inkscape:deskcolor="#d1d1d1">
    <inkscape:grid
       type="xygrid"
       id="grid925"
       originx="0"
       originy="0"
       spacingy="1"
       spacingx="1"
       units="px"
       visible="true" />
  </sodipodi:namedview>
  <defs
     id="defs5455">
    <clipPath
       clipPathUnits="userSpaceOnUse"
       id="clipPath79425-9-5-3">
      <rect
         style="opacity:0.5;fill:#000000;fill-opacity:1;stroke:none;stroke-width:0.855869;stroke-dasharray:none;stroke-opacity:1;paint-order:stroke fill markers"
         id="rect79427-1-9-6"
         width="26.417742"
         height="29.037542"
         x="-16.227774"
         y="-6.4845476" />
    </clipPath>
    <clipPath
       clipPathUnits="userSpaceOnUse"
       id="clipPath79425-9-5-5">
      <rect
         style="opacity:0.5;fill:#000000;fill-opacity:1;stroke:none;stroke-width:0.855869;stroke-dasharray:none;stroke-opacity:1;paint-order:stroke fill markers"
         id="rect79427-1-9-62"
         width="26.417742"
         height="29.037542"
         x="-16.227774"
         y="-6.4845476" />
    </clipPath>
    <linearGradient
       inkscape:collect="always"
       xlink:href="#linearGradient12"
       id="linearGradient17"
       x1="392.57144"
       y1="536.79797"
       x2="444.57144"
       y2="507.798"
       gradientUnits="userSpaceOnUse"
       gradientTransform="translate(-5e-6,-1.6e-4)" />
    <linearGradient
       inkscape:collect="always"
       xlink:href="#linearGradient12"
       id="linearGradient4"
       gradientUnits="userSpaceOnUse"
       gradientTransform="translate(0.999942,4.023174)"
       x1="397.57144"
       y1="511.27505"
       x2="415.57144"
       y2="511.27505" />
    <linearGradient
       inkscape:collect="always"
       xlink:href="#linearGradient12"
       id="linearGradient5"
       gradientUnits="userSpaceOnUse"
       gradientTransform="translate(-4.5e-5,-1.49e-4)"
       x1="386.38025"
       y1="541.81329"
       x2="439.20044"
       y2="499.79816" />
    <linearGradient
       id="linearGradient12"
       inkscape:collect="always">
      <stop
         style="stop-color:#ffe680;stop-opacity:1;"
         offset="0"
         id="stop10" />
      <stop
         style="stop-color:#4bc0c8;stop-opacity:1;"
         offset="0.54778218"
         id="stop11" />
      <stop
         style="stop-color:#c779d0;stop-opacity:1;"
         offset="1"
         id="stop12" />
    </linearGradient>
    <linearGradient
       inkscape:collect="always"
       xlink:href="#linearGradient12"
       id="linearGradient2"
       x1="421.32141"
       y1="524.79797"
       x2="442.32172"
       y2="524.79797"
       gradientUnits="userSpaceOnUse" />
    <linearGradient
       inkscape:collect="always"
       xlink:href="#linearGradient12"
       id="linearGradient3"
       x1="429.57144"
       y1="519.92303"
       x2="433.32141"
       y2="519.92303"
       gradientUnits="userSpaceOnUse" />
    <linearGradient
       inkscape:collect="always"
       xlink:href="#linearGradient12"
       id="linearGradient6"
       x1="422.82144"
       y1="519.92303"
       x2="426.57141"
       y2="519.92303"
       gradientUnits="userSpaceOnUse" />
    <linearGradient
       inkscape:collect="always"
       xlink:href="#linearGradient12"
       id="linearGradient7"
       x1="425.07144"
       y1="517.67303"
       x2="428.82141"
       y2="517.67303"
       gradientUnits="userSpaceOnUse" />
    <linearGradient
       inkscape:collect="always"
       xlink:href="#linearGradient12"
       id="linearGradient8"
       x1="425.07144"
       y1="519.92303"
       x2="428.82141"
       y2="519.92303"
       gradientUnits="userSpaceOnUse" />
    <linearGradient
       inkscape:collect="always"
       xlink:href="#linearGradient12"
       id="linearGradient9"
       x1="427.32144"
       y1="515.42303"
       x2="431.07141"
       y2="515.42303"
       gradientUnits="userSpaceOnUse" />
    <linearGradient
       inkscape:collect="always"
       xlink:href="#linearGradient12"
       id="linearGradient10"
       x1="427.32144"
       y1="517.67303"
       x2="431.07141"
       y2="517.67303"
       gradientUnits="userSpaceOnUse" />
    <linearGradient
       inkscape:collect="always"
       xlink:href="#linearGradient12"
       id="linearGradient11"
       x1="427.32144"
       y1="519.92303"
       x2="431.07141"
       y2="519.92303"
       gradientUnits="userSpaceOnUse" />
    <linearGradient
       inkscape:collect="always"
       xlink:href="#linearGradient12"
       id="linearGradient13"
       x1="424.3212"
       y1="525.92255"
       x2="426.5712"
       y2="525.92255"
       gradientUnits="userSpaceOnUse" />
  </defs>
  <metadata
     id="metadata5458">
    <rdf:RDF>
      <cc:Work
         rdf:about="">
        <dc:format>image/svg+xml</dc:format>
        <dc:type
           rdf:resource="http://purl.org/dc/dcmitype/StillImage" />
      </cc:Work>
    </rdf:RDF>
  </metadata>
  <g
     inkscape:label="Capa 1"
     inkscape:groupmode="layer"
     id="layer1"
     transform="translate(-384.57143,-483.798)">
    <path
       inkscape:connector-curvature="0"
       id="fill-3"
       d="m 393.57139,509.19784 3e-5,26.355 c -0.0932,0.57145 -0.23037,0.90721 -0.644,1.24501 l 49.644,-1e-5 c 1.25773,0 2,-0.20551 2,-1.99362 v -25.50638 c 0,-0.66722 -0.33428,-1.5 -1.9,-1.5 h -47.10899 c -0.99101,0 -1.99101,0 -1.99104,1.4 z"
       style="color:#1e92ff;opacity:0.4;fill:url(#linearGradient17);fill-opacity:0.4;fill-rule:nonzero;stroke:none;stroke-width:8.11634"
       sodipodi:nodetypes="ccccccccc" />
    <rect
       x="398.57141"
       y="513.79816"
       width="18"
       height="3"
       ry="1.5"
       stroke-width="5.07132"
       style="opacity:0.8;fill:url(#linearGradient4);fill-opacity:1;paint-order:stroke markers fill"
       id="rect12-5-9-3-9-7-7-9"
       rx="1.5000117" />
    <path
       d="m 443.46965,505.807 -0.89826,-0.009 v -2.5759 c -0.002,-1.58874 -1,-3.4241 -3.371,-3.4241 h -21.84697 c -3.78203,0 -3.78203,-1 -5.08102,-2.46383 l -1.527,-2.91564 c -0.52263,-0.98802 -1.70328,-1.61594 -2.88973,-1.62053 h -18.28424 c -1.71234,0.002 -2.99827,1.41164 -3,3 v 39.5 c 0,2.0466 1.46781,3.5 3.4,3.5 h 53.49825 c 1.71233,-0.002 3.1,-1.28887 3.10174,-2.87723 v -27.23662 c -0.002,-1.58827 -1.3895,-2.87535 -3.10174,-2.877 z m -54.89826,29.49085 v -38.5 c 7.7e-4,-0.82599 0,-2 2,-2 h 15.7 c 1,0 2.1,0 2.736,1.324 l 1.526,2.515 c 1.21959,2.31102 3.038,3.161 6.038,3.161 l 22.53001,-2e-5 c 0.89087,4.4e-4 1.46875,0.69766 1.47,1.52402 v 2.48513 l -46,-0.009 c -2,0 -3,1 -3,3 v 26.49987 c -0.0453,1.95192 -2.95472,1.95192 -3.00001,0 z m 56,-0.5 c 0,2 -1.10954,1.99931 -2,2 h -50 c 0,0 1,0.34375 1,-1.5 v -25.5 c 0,-1.38848 0,-2 2,-2 h 47 c 2,0 1.99923,1.17399 2,2 z"
       id="path6-5-2-5-1"
       style="fill:url(#linearGradient5)"
       sodipodi:nodetypes="cccccccccccccccccccccccccccccccccccccccc" />
    <path
       d="m 428.07142,531.54801 c -4.16348,0 -6.75,-3.1611 -6.75,-8.25001 0,-0.41415 0.33584,-0.74999 0.74999,-0.74999 h 12.10622 c -0.071,-0.28823 -0.1062,-0.57457 -0.1062,-0.85734 0,-1.91053 1.62666,-3.38924 1.69625,-3.45156 0.28418,-0.25486 0.71633,-0.25486 1.0005,0 0.0696,0.0624 1.69629,1.54103 1.69629,3.45156 0,0.0736 -0.002,0.1476 -0.007,0.22156 1.99072,-0.12119 3.60862,1.61723 3.67311,1.689 0.25484,0.28494 0.25484,0.71557 0,1.0005 -0.0623,0.0692 -1.54027,1.69629 -3.45187,1.69629 -0.48708,0 -0.9807,-0.10366 -1.47584,-0.3091 -1.45824,3.13185 -5.35216,5.55909 -9.13111,5.55909 z m -5.22398,-7.49999 c 0.14024,2.05116 0.96495,5.99998 5.22398,5.99998 3.43904,0 7.11256,-2.44296 8.02148,-5.33459 0.0704,-0.2223 0.23948,-0.39953 0.45778,-0.4797 0.22118,-0.0803 0.46217,-0.0535 0.65995,0.0714 0.51554,0.327 1.00926,0.4929 1.46774,0.4929 0.68556,0 1.32938,-0.36877 1.76662,-0.69729 -0.43582,-0.32775 -1.07887,-0.69576 -1.76662,-0.69576 -0.29445,0 -0.60496,0.0725 -0.94919,0.22155 -0.28201,0.12271 -0.61089,0.0594 -0.82838,-0.15781 -0.2175,-0.2175 -0.2805,-0.54561 -0.15817,-0.82836 0.1494,-0.34463 0.22191,-0.65512 0.22191,-0.94958 0,-0.6852 -0.36916,-1.32899 -0.69727,-1.76626 -0.3282,0.43613 -0.69586,1.07881 -0.69586,1.76618 0,0.38895 0.12158,0.80858 0.3618,1.24696 0.12744,0.23256 0.12232,0.5145 -0.0124,0.74264 -0.13479,0.22784 -0.38012,0.36774 -0.64522,0.36774 z"
       id="path2-7-4"
       style="fill:url(#linearGradient2);fill-opacity:1;stroke-width:0.749999" />
    <path
       d="m 432.57142,521.79802 h -2.25 c -0.41415,0 -0.74999,-0.33586 -0.74999,-0.75002 v -2.25 c 0,-0.41415 0.33584,-0.74999 0.74999,-0.74999 h 2.25 c 0.41453,0 0.74999,0.33584 0.74999,0.74999 v 2.25 c 0,0.41416 -0.33546,0.75002 -0.74999,0.75002 z m -1.50001,-1.50001 h 0.75002 v -0.74999 h -0.75002 z"
       id="path4-5-7"
       style="fill:url(#linearGradient3);fill-opacity:1;stroke-width:0.749999" />
    <path
       d="m 425.82142,521.79802 h -2.25 c -0.41415,0 -0.74999,-0.33586 -0.74999,-0.75002 v -2.25 c 0,-0.41415 0.33584,-0.74999 0.74999,-0.74999 h 2.25 c 0.41415,0 0.74999,0.33584 0.74999,0.74999 v 2.25 c 0,0.41416 -0.33584,0.75002 -0.74999,0.75002 z m -1.50001,-1.50001 h 0.75002 v -0.74999 h -0.75002 z"
       id="path6-3-4"
       style="fill:url(#linearGradient6);fill-opacity:1;stroke-width:0.749999" />
    <path
       d="m 428.07142,519.54802 h -2.25 c -0.41415,0 -0.74999,-0.33586 -0.74999,-0.75002 v -2.25 c 0,-0.41415 0.33584,-0.74999 0.74999,-0.74999 h 2.25 c 0.41415,0 0.74999,0.33584 0.74999,0.74999 v 2.25 c 0,0.41416 -0.33584,0.75002 -0.74999,0.75002 z m -1.50001,-1.50001 h 0.75002 v -0.74999 h -0.75002 z"
       id="path8-5-4"
       style="fill:url(#linearGradient7);fill-opacity:1;stroke-width:0.749999" />
    <path
       d="m 428.07142,521.79802 h -2.25 c -0.41415,0 -0.74999,-0.33586 -0.74999,-0.75002 v -2.25 c 0,-0.41415 0.33584,-0.74999 0.74999,-0.74999 h 2.25 c 0.41415,0 0.74999,0.33584 0.74999,0.74999 v 2.25 c 0,0.41416 -0.33584,0.75002 -0.74999,0.75002 z m -1.50001,-1.50001 h 0.75002 v -0.74999 h -0.75002 z"
       id="path10-5-6-3"
       style="fill:url(#linearGradient8);fill-opacity:1;stroke-width:0.749999" />
    <path
       d="m 430.32142,517.29802 h -2.25 c -0.41415,0 -0.74999,-0.33586 -0.74999,-0.75002 v -2.25 c 0,-0.41415 0.33584,-0.74999 0.74999,-0.74999 h 2.25 c 0.41415,0 0.74999,0.33584 0.74999,0.74999 v 2.25 c 0,0.41416 -0.33584,0.75002 -0.74999,0.75002 z m -1.50001,-1.50001 h 0.75002 v -0.74999 h -0.75002 z"
       id="path12-2-0"
       style="fill:url(#linearGradient9);fill-opacity:1;stroke-width:0.749999" />
    <path
       d="m 430.32142,519.54802 h -2.25 c -0.41415,0 -0.74999,-0.33586 -0.74999,-0.75002 v -2.25 c 0,-0.41415 0.33584,-0.74999 0.74999,-0.74999 h 2.25 c 0.41415,0 0.74999,0.33584 0.74999,0.74999 v 2.25 c 0,0.41416 -0.33584,0.75002 -0.74999,0.75002 z m -1.50001,-1.50001 h 0.75002 v -0.74999 h -0.75002 z"
       id="path14-9-7"
       style="fill:url(#linearGradient10);fill-opacity:1;stroke-width:0.749999" />
    <path
       d="m 430.32142,521.79802 h -2.25 c -0.41415,0 -0.74999,-0.33586 -0.74999,-0.75002 v -2.25 c 0,-0.41415 0.33584,-0.74999 0.74999,-0.74999 h 2.25 c 0.41415,0 0.74999,0.33584 0.74999,0.74999 v 2.25 c 0,0.41416 -0.33584,0.75002 -0.74999,0.75002 z m -1.50001,-1.50001 h 0.75002 v -0.74999 h -0.75002 z"
       id="path16-1-8"
       style="fill:url(#linearGradient11);fill-opacity:1;stroke-width:0.749999" />
    <circle
       cx="425.4462"
       cy="525.92255"
       id="circle18-2-6"
       style="fill:url(#linearGradient13);fill-opacity:1;stroke-width:0.749999"
       r="1.125" />
  </g>
</svg>
