<?xml version="1.0" encoding="UTF-8" standalone="no"?>
<svg
   width="64"
   version="1.1"
   height="64"
   id="svg17"
   sodipodi:docname="folder-videos.svg"
   inkscape:version="1.3 (0e150ed6c4, 2023-07-21)"
   xmlns:inkscape="http://www.inkscape.org/namespaces/inkscape"
   xmlns:sodipodi="http://sodipodi.sourceforge.net/DTD/sodipodi-0.dtd"
   xmlns:xlink="http://www.w3.org/1999/xlink"
   xmlns="http://www.w3.org/2000/svg"
   xmlns:svg="http://www.w3.org/2000/svg"
   xmlns:rdf="http://www.w3.org/1999/02/22-rdf-syntax-ns#"
   xmlns:cc="http://creativecommons.org/ns#"
   xmlns:dc="http://purl.org/dc/elements/1.1/">
  <sodipodi:namedview
     pagecolor="#ffffff"
     bordercolor="#666666"
     borderopacity="1"
     objecttolerance="10"
     gridtolerance="10"
     guidetolerance="10"
     inkscape:pageopacity="0"
     inkscape:pageshadow="2"
     inkscape:window-width="1920"
     inkscape:window-height="994"
     id="namedview19"
     showgrid="true"
     inkscape:zoom="3.4692426"
     inkscape:cx="22.050922"
     inkscape:cy="19.744943"
     inkscape:window-x="0"
     inkscape:window-y="0"
     inkscape:window-maximized="1"
     inkscape:current-layer="layer1"
     inkscape:document-rotation="0"
     inkscape:showpageshadow="2"
     inkscape:pagecheckerboard="0"
     inkscape:deskcolor="#d1d1d1">
    <inkscape:grid
       type="xygrid"
       id="grid927"
       originx="0"
       originy="0"
       spacingy="1"
       spacingx="1"
       units="px"
       visible="true" />
  </sodipodi:namedview>
  <defs
     id="defs5455">
    <clipPath
       clipPathUnits="userSpaceOnUse"
       id="clipPath79425-9-5-3">
      <rect
         style="opacity:0.5;fill:#000000;fill-opacity:1;stroke:none;stroke-width:0.855869;stroke-dasharray:none;stroke-opacity:1;paint-order:stroke fill markers"
         id="rect79427-1-9-6"
         width="26.417742"
         height="29.037542"
         x="-16.227774"
         y="-6.4845476" />
    </clipPath>
    <clipPath
       clipPathUnits="userSpaceOnUse"
       id="clipPath79425-9-5-5">
      <rect
         style="opacity:0.5;fill:#000000;fill-opacity:1;stroke:none;stroke-width:0.855869;stroke-dasharray:none;stroke-opacity:1;paint-order:stroke fill markers"
         id="rect79427-1-9-62"
         width="26.417742"
         height="29.037542"
         x="-16.227774"
         y="-6.4845476" />
    </clipPath>
    <linearGradient
       inkscape:collect="always"
       id="linearGradient2303">
      <stop
         style="stop-color:#00ffcc;stop-opacity:1"
         offset="0"
         id="stop2299" />
      <stop
         style="stop-color:#00bdff;stop-opacity:1;"
         offset="1"
         id="stop2301" />
    </linearGradient>
    <linearGradient
       inkscape:collect="always"
       xlink:href="#linearGradient2303"
       id="linearGradient17"
       x1="392.57144"
       y1="536.79797"
       x2="444.57144"
       y2="507.798"
       gradientUnits="userSpaceOnUse"
       gradientTransform="translate(-5e-6,-1.6e-4)" />
    <linearGradient
       inkscape:collect="always"
       xlink:href="#linearGradient2303"
       id="linearGradient4"
       gradientUnits="userSpaceOnUse"
       gradientTransform="translate(0.999942,4.023174)"
       x1="397.57144"
       y1="511.27505"
       x2="415.57144"
       y2="511.27505" />
    <linearGradient
       inkscape:collect="always"
       xlink:href="#linearGradient2303"
       id="linearGradient5"
       gradientUnits="userSpaceOnUse"
       gradientTransform="translate(-4.5e-5,-1.49e-4)"
       x1="387.57144"
       y1="537.79797"
       x2="445.57144"
       y2="492.798" />
    <linearGradient
       inkscape:collect="always"
       xlink:href="#linearGradient2303"
       id="linearGradient2"
       x1="10"
       y1="499.99384"
       x2="989.98999"
       y2="499.99384"
       gradientUnits="userSpaceOnUse" />
    <linearGradient
       inkscape:collect="always"
       xlink:href="#linearGradient2303"
       id="linearGradient3"
       gradientUnits="userSpaceOnUse"
       x1="10"
       y1="499.99384"
       x2="989.98999"
       y2="499.99384" />
    <linearGradient
       inkscape:collect="always"
       xlink:href="#linearGradient2303"
       id="linearGradient6"
       gradientUnits="userSpaceOnUse"
       x1="10"
       y1="499.99384"
       x2="989.98999"
       y2="499.99384" />
    <linearGradient
       inkscape:collect="always"
       xlink:href="#linearGradient2303"
       id="linearGradient7"
       gradientUnits="userSpaceOnUse"
       x1="10"
       y1="499.99384"
       x2="989.98999"
       y2="499.99384" />
    <linearGradient
       inkscape:collect="always"
       xlink:href="#linearGradient2303"
       id="linearGradient8"
       gradientUnits="userSpaceOnUse"
       x1="10"
       y1="499.99384"
       x2="989.98999"
       y2="499.99384" />
    <linearGradient
       inkscape:collect="always"
       xlink:href="#linearGradient2303"
       id="linearGradient9"
       gradientUnits="userSpaceOnUse"
       x1="10"
       y1="499.99384"
       x2="989.98999"
       y2="499.99384" />
    <linearGradient
       inkscape:collect="always"
       xlink:href="#linearGradient2303"
       id="linearGradient10"
       gradientUnits="userSpaceOnUse"
       x1="10"
       y1="499.99384"
       x2="989.98999"
       y2="499.99384" />
    <linearGradient
       inkscape:collect="always"
       xlink:href="#linearGradient2303"
       id="linearGradient11"
       gradientUnits="userSpaceOnUse"
       x1="10"
       y1="499.99384"
       x2="989.98999"
       y2="499.99384" />
    <linearGradient
       inkscape:collect="always"
       xlink:href="#linearGradient2303"
       id="linearGradient12"
       gradientUnits="userSpaceOnUse"
       x1="10"
       y1="499.99384"
       x2="989.98999"
       y2="499.99384" />
    <linearGradient
       inkscape:collect="always"
       xlink:href="#linearGradient2303"
       id="linearGradient13"
       gradientUnits="userSpaceOnUse"
       x1="10"
       y1="499.99384"
       x2="989.98999"
       y2="499.99384" />
    <linearGradient
       inkscape:collect="always"
       xlink:href="#linearGradient2303"
       id="linearGradient14"
       gradientUnits="userSpaceOnUse"
       x1="10"
       y1="499.99384"
       x2="989.98999"
       y2="499.99384" />
    <linearGradient
       inkscape:collect="always"
       xlink:href="#linearGradient2303"
       id="linearGradient15"
       gradientUnits="userSpaceOnUse"
       x1="10"
       y1="499.99384"
       x2="989.98999"
       y2="499.99384" />
  </defs>
  <metadata
     id="metadata5458">
    <rdf:RDF>
      <cc:Work
         rdf:about="">
        <dc:format>image/svg+xml</dc:format>
        <dc:type
           rdf:resource="http://purl.org/dc/dcmitype/StillImage" />
      </cc:Work>
    </rdf:RDF>
  </metadata>
  <g
     inkscape:label="Capa 1"
     inkscape:groupmode="layer"
     id="layer1"
     transform="translate(-384.57143,-483.798)">
    <path
       inkscape:connector-curvature="0"
       id="fill-3"
       d="m 393.57139,509.19784 3e-5,26.355 c -0.0932,0.57145 -0.23037,0.90721 -0.644,1.24501 l 49.644,-1e-5 c 1.25773,0 2,-0.20551 2,-1.99362 v -25.50638 c 0,-0.66722 -0.33428,-1.5 -1.9,-1.5 h -47.10899 c -0.99101,0 -1.99101,0 -1.99104,1.4 z"
       style="color:#1e92ff;opacity:0.4;fill:url(#linearGradient17);fill-opacity:0.4;fill-rule:nonzero;stroke:none;stroke-width:8.11634"
       sodipodi:nodetypes="ccccccccc" />
    <rect
       x="398.57138"
       y="513.79822"
       width="18"
       height="3"
       ry="1.5"
       stroke-width="5.07132"
       style="opacity:0.8;fill:url(#linearGradient4);fill-opacity:1;paint-order:stroke markers fill"
       id="rect12-5-9-3-9-7-7-9"
       rx="1.5000117" />
    <path
       d="m 443.46965,505.807 -0.89826,-0.009 v -2.5759 c -0.002,-1.58874 -1,-3.4241 -3.371,-3.4241 h -21.84697 c -3.78203,0 -3.78203,-1 -5.08102,-2.46383 l -1.527,-2.91564 c -0.52263,-0.98802 -1.70328,-1.61594 -2.88973,-1.62053 h -18.28424 c -1.71234,0.002 -2.99827,1.41164 -3,3 v 39.5 c 0,2.0466 1.46781,3.5 3.4,3.5 h 53.49825 c 1.71233,-0.002 3.1,-1.28887 3.10174,-2.87723 v -27.23662 c -0.002,-1.58827 -1.3895,-2.87535 -3.10174,-2.877 z m -54.89826,29.49085 v -38.5 c 7.7e-4,-0.82599 0,-2 2,-2 h 15.7 c 1,0 2.1,0 2.736,1.324 l 1.526,2.515 c 1.21959,2.31102 3.038,3.161 6.038,3.161 l 22.53001,-2e-5 c 0.89087,4.4e-4 1.46875,0.69766 1.47,1.52402 v 2.48513 l -46,-0.009 c -2,0 -3,1 -3,3 v 26.49987 c -0.0453,1.95192 -2.95472,1.95192 -3.00001,0 z m 56,-0.5 c 0,2 -1.10954,1.99931 -2,2 h -50 c 0,0 1,0.34375 1,-1.5 v -25.5 c 0,-1.38848 0,-2 2,-2 h 47 c 2,0 1.99923,1.17399 2,2 z"
       id="path6-5-2-5-1"
       style="opacity:0.7;fill:url(#linearGradient5)"
       sodipodi:nodetypes="cccccccccccccccccccccccccccccccccccccccc" />
    <g
       id="g26-4-6-2"
       transform="matrix(0.02075497,0,0,0.02075497,420.04988,513.93265)"
       style="fill:url(#linearGradient2)">
      <g
         transform="matrix(0.1,0,0,-0.1,0,511)"
         id="g24-7-2-5"
         style="fill:url(#linearGradient15);fill-opacity:1">
        <path
           d="M 3422.8,4179.9 C 2770.5,4090 2146.9,3822.2 1601.7,3395.6 1427.6,3259.8 1069.9,2898.2 939.8,2726.1 402.2,2022.1 100,1130.7 100,248.8 c 0,-1828.8 1230,-3435.6 2955.5,-3856.5 1365.8,-332.9 2838.8,158.8 3747.5,1253 162.6,197.1 629.3,1008.1 713.5,1239.6 304.1,851.3 311.8,1767.5 24.9,2645.6 -413.2,1264.5 -1436.6,2240.1 -2683.9,2563.3 -120.5,30.6 -313.7,68.9 -432.3,84.2 -258.3,36.3 -738.4,36.3 -1002.4,1.9 z m 1019.6,-422.8 c 482.1,-72.7 914.4,-244.8 1358.2,-539.4 273.6,-181.7 692.5,-591.1 885.7,-864.7 242.9,-346.2 462.9,-828.3 558.6,-1230 C 7696.3,-765.1 6625,-2666.5 4823.1,-3171.5 4245.4,-3334.1 3547.2,-3328.4 2967.5,-3156.2 2024.4,-2875 1215.2,-2142.4 800.1,-1193.6 448.2,-392 408,558.7 689.2,1406.1 c 89.9,273.5 313.7,717.4 476.3,946.9 170.2,237.2 594.9,663.8 828.3,828.3 707.8,497.4 1591.6,705.9 2448.6,575.8 z"
           id="path4-6-9-4"
           style="fill:url(#linearGradient3);fill-opacity:1" />
        <path
           d="m 3671.5,3345.8 c -172.2,-40.2 -365.4,-176 -472.5,-332.9 -153,-223.8 -176,-545.2 -57.4,-788.1 294.6,-598.8 1136.3,-604.5 1429,-9.6 70.8,141.6 72.7,151.1 72.7,355.8 0,189.4 -5.7,223.8 -51.7,323.3 -59.3,126.3 -214.2,298.4 -330.9,367.3 -158.8,91.9 -403.7,128.2 -589.2,84.2 z"
           id="path6-5-1-7"
           style="fill:url(#linearGradient6);fill-opacity:1" />
        <path
           d="m 5657.1,2270.8 c -317.5,-84.2 -545.2,-329 -604.5,-652.3 C 4957,1100 5446.7,610.3 5967,706 c 327.1,59.3 568.2,281.2 648.5,594.9 97.6,384.5 -118.6,797.7 -491.6,939.3 -124.4,47.8 -344.4,61.2 -466.8,30.6 z"
           id="path8-69-2-4"
           style="fill:url(#linearGradient7);fill-opacity:1" />
        <path
           d="m 1840.8,2102.4 c -418.9,-68.9 -728.8,-499.3 -652.3,-910.6 32.5,-176 103.3,-313.7 218.1,-434.2 311.8,-315.6 824.5,-315.6 1134.4,0 306.1,311.8 309.9,788.1 9.6,1103.8 -185.7,197 -443.9,285 -709.8,241 z"
           id="path10-3-3-7-4"
           style="fill:url(#linearGradient8);fill-opacity:1" />
        <path
           d="M 3849.4,520.4 C 3583.5,388.4 3684.9,-19 3983.3,-19 c 235.3,0 367.3,279.3 216.2,459.1 -95.7,114.8 -223.9,145.4 -350.1,80.3 z"
           id="path12-7-0-3"
           style="fill:url(#linearGradient9);fill-opacity:1" />
        <path
           d="M 5626.5,-34.3 C 5263,-154.8 5023.9,-541.2 5087,-908.5 c 53.6,-313.7 246.8,-541.4 543.3,-640.8 99.5,-34.4 155,-40.2 288.9,-34.4 143.5,7.6 183.6,17.2 308,78.4 596.8,294.6 596.8,1128.6 0,1423.2 -130.1,63.1 -160.7,70.7 -319.5,76.5 -130.1,3.8 -200.9,-3.9 -281.2,-28.7 z"
           id="path14-4-9-0"
           style="fill:url(#linearGradient10);fill-opacity:1" />
        <path
           d="m 1819.7,-252.4 c -239.1,-84.2 -438.1,-290.8 -506.9,-528 -49.7,-168.3 -30.6,-401.7 44,-564.3 78.4,-166.4 216.2,-304.2 384.5,-382.6 120.5,-57.4 141.6,-61.2 338.6,-61.2 195.1,0 220,3.8 336.7,59.3 160.7,76.5 302.2,218.1 384.5,384.5 59.3,122.4 63.1,139.6 63.1,330.9 -1.9,277.4 -44,382.6 -227.6,566.2 -168.3,168.3 -286.9,220 -528,231.5 -133.9,5.8 -185.6,0.1 -288.9,-36.3 z"
           id="path16-5-3-7"
           style="fill:url(#linearGradient11);fill-opacity:1" />
        <path
           d="m 3816.8,-1281.6 c -218.1,-44 -451.4,-223.8 -550.9,-426.6 -237.2,-485.8 57.4,-1057.8 591.1,-1145.8 516.5,-86.1 1002.4,396 912.5,904.8 -80.4,455.3 -506.9,755.6 -952.7,667.6 z"
           id="path18-2-6-8"
           style="fill:url(#linearGradient12);fill-opacity:1" />
        <path
           d="m 7759.4,1406.1 c 26.8,-97.6 86.1,-418.9 109,-583.4 38.3,-269.7 34.4,-931.6 -7.6,-1203.2 -76.5,-489.7 -210.4,-881.9 -464.8,-1362 -260.2,-493.5 -510.8,-834 -719.3,-985.1 -55.5,-40.2 -105.2,-74.6 -109,-78.4 -17.2,-11.5 59.3,-246.8 109,-336.7 70.8,-132 246.8,-288.9 380.7,-338.6 200.8,-76.5 482.1,-70.8 732.6,11.5 82.3,26.8 91.8,38.3 220,260.2 74.6,128.2 258.2,422.8 411.3,654.2 269.7,407.5 478.2,742.2 478.2,763.3 0,5.7 -51.6,-23 -114.8,-65 -154.9,-105.2 -323.3,-170.2 -472.5,-183.6 -126.3,-11.5 -126.3,-11.5 -114.8,34.4 15.3,67 65,361.6 93.8,572 32.5,239.1 32.5,1121 0,1329.5 -84.2,529.9 -202.8,929.7 -375,1266.4 -57.4,112.9 -118.6,223.8 -135.8,244.9 -30.5,37.9 -30.5,37.9 -21,-0.4 z"
           id="path20-5-0-6"
           style="fill:url(#linearGradient13);fill-opacity:1" />
        <path
           d="m 9242,-1738.8 c -59.3,-19.1 -126.3,-47.8 -149.2,-63.1 -22.9,-17.2 -260.2,-376.9 -528,-801.5 l -485.9,-772.8 61.2,-5.7 c 122.4,-11.5 302.2,-61.2 401.7,-110.9 191.3,-95.6 281.2,-220 285,-399.8 1.9,-59.3 9.6,-99.5 17.2,-91.8 7.7,9.6 248.7,376.9 535.6,818.7 l 520.3,803.4 -42.1,162.6 c -99.3,390.2 -323.2,558.5 -615.8,460.9 z"
           id="path22-4-6-8"
           style="fill:url(#linearGradient14);fill-opacity:1" />
      </g>
    </g>
  </g>
</svg>
