<?xml version="1.0" encoding="UTF-8" standalone="no"?>
<svg
   width="64"
   version="1.1"
   height="64"
   viewBox="0 0 64 64"
   id="svg16"
   sodipodi:docname="folder-podcast.svg"
   inkscape:version="1.3 (0e150ed6c4, 2023-07-21)"
   xmlns:inkscape="http://www.inkscape.org/namespaces/inkscape"
   xmlns:sodipodi="http://sodipodi.sourceforge.net/DTD/sodipodi-0.dtd"
   xmlns:xlink="http://www.w3.org/1999/xlink"
   xmlns="http://www.w3.org/2000/svg"
   xmlns:svg="http://www.w3.org/2000/svg"
   xmlns:rdf="http://www.w3.org/1999/02/22-rdf-syntax-ns#"
   xmlns:cc="http://creativecommons.org/ns#"
   xmlns:dc="http://purl.org/dc/elements/1.1/">
  <sodipodi:namedview
     pagecolor="#ffffff"
     bordercolor="#666666"
     borderopacity="1"
     objecttolerance="10"
     gridtolerance="10"
     guidetolerance="10"
     inkscape:pageopacity="0"
     inkscape:pageshadow="2"
     inkscape:window-width="1920"
     inkscape:window-height="994"
     id="namedview18"
     showgrid="true"
     inkscape:zoom="9.8124999"
     inkscape:cx="34.547771"
     inkscape:cy="31.541402"
     inkscape:window-x="0"
     inkscape:window-y="0"
     inkscape:window-maximized="1"
     inkscape:current-layer="layer1"
     inkscape:document-rotation="0"
     inkscape:showpageshadow="2"
     inkscape:pagecheckerboard="0"
     inkscape:deskcolor="#d1d1d1">
    <inkscape:grid
       type="xygrid"
       id="grid547"
       originx="0"
       originy="0"
       spacingy="1"
       spacingx="1"
       units="px"
       visible="true" />
  </sodipodi:namedview>
  <defs
     id="defs5455">
    <linearGradient
       inkscape:collect="always"
       id="linearGradient30880">
      <stop
         style="stop-color:#ff9955;stop-opacity:1"
         offset="0"
         id="stop30876" />
      <stop
         style="stop-color:#ffdd55;stop-opacity:1"
         offset="0.50953245"
         id="stop30882" />
      <stop
         style="stop-color:#ff9955;stop-opacity:1;"
         offset="1"
         id="stop30878" />
    </linearGradient>
    <linearGradient
       id="linearGradient4172">
      <stop
         style="stop-color:#ffccaa;stop-opacity:1"
         id="stop4174" />
      <stop
         offset="1"
         style="stop-color:#ff9955;stop-opacity:1"
         id="stop4176" />
    </linearGradient>
    <clipPath
       clipPathUnits="userSpaceOnUse"
       id="clipPath79425-9-5-3">
      <rect
         style="opacity:0.5;fill:#000000;fill-opacity:1;stroke:none;stroke-width:0.855869;stroke-dasharray:none;stroke-opacity:1;paint-order:stroke fill markers"
         id="rect79427-1-9-6"
         width="26.417742"
         height="29.037542"
         x="-16.227774"
         y="-6.4845476" />
    </clipPath>
    <clipPath
       clipPathUnits="userSpaceOnUse"
       id="clipPath79425-9-5-5">
      <rect
         style="opacity:0.5;fill:#000000;fill-opacity:1;stroke:none;stroke-width:0.855869;stroke-dasharray:none;stroke-opacity:1;paint-order:stroke fill markers"
         id="rect79427-1-9-62"
         width="26.417742"
         height="29.037542"
         x="-16.227774"
         y="-6.4845476" />
    </clipPath>
    <linearGradient
       inkscape:collect="always"
       xlink:href="#linearGradient30880"
       id="linearGradient17"
       x1="392.57144"
       y1="536.79797"
       x2="444.57144"
       y2="507.798"
       gradientUnits="userSpaceOnUse"
       gradientTransform="translate(3e-5,-1.6e-4)" />
    <linearGradient
       inkscape:collect="always"
       xlink:href="#linearGradient30880"
       id="linearGradient4"
       gradientUnits="userSpaceOnUse"
       gradientTransform="translate(0.999977,4.023174)"
       x1="397.57144"
       y1="511.27505"
       x2="415.57144"
       y2="511.27505" />
    <linearGradient
       inkscape:collect="always"
       xlink:href="#linearGradient30880"
       id="linearGradient5"
       gradientUnits="userSpaceOnUse"
       gradientTransform="translate(-1e-5,-1.49e-4)"
       x1="386.38025"
       y1="541.81329"
       x2="439.20044"
       y2="499.79816" />
    <linearGradient
       inkscape:collect="always"
       xlink:href="#linearGradient30880"
       id="linearGradient2"
       x1="420.92615"
       y1="521.21033"
       x2="438.9281"
       y2="521.21033"
       gradientUnits="userSpaceOnUse"
       gradientTransform="translate(1.64527,2.58816)" />
  </defs>
  <metadata
     id="metadata5458">
    <rdf:RDF>
      <cc:Work
         rdf:about="">
        <dc:format>image/svg+xml</dc:format>
        <dc:type
           rdf:resource="http://purl.org/dc/dcmitype/StillImage" />
      </cc:Work>
    </rdf:RDF>
  </metadata>
  <g
     inkscape:label="Capa 1"
     inkscape:groupmode="layer"
     id="layer1"
     transform="translate(-384.57143,-483.798)">
    <path
       inkscape:connector-curvature="0"
       id="fill-3"
       d="m 393.57143,509.19784 3e-5,26.355 c -0.0932,0.57145 -0.23037,0.90721 -0.644,1.24501 l 49.644,-1e-5 c 1.25773,0 2,-0.20551 2,-1.99362 v -25.50638 c 0,-0.66722 -0.33428,-1.5 -1.9,-1.5 h -47.10899 c -0.99101,0 -1.99101,0 -1.99104,1.4 z"
       style="color:#1e92ff;opacity:0.4;fill:url(#linearGradient17);fill-opacity:0.4;fill-rule:nonzero;stroke:none;stroke-width:8.11634"
       sodipodi:nodetypes="ccccccccc" />
    <rect
       x="398.57144"
       y="513.79822"
       width="18"
       height="3"
       ry="1.5"
       stroke-width="5.07132"
       style="opacity:0.8;fill:url(#linearGradient4);paint-order:stroke markers fill"
       id="rect12-5-9-3-9-7-7-9"
       rx="1.5000117" />
    <path
       d="m 443.46969,505.807 -0.89826,-0.009 v -2.5759 c -0.002,-1.58874 -1,-3.4241 -3.371,-3.4241 h -21.84697 c -3.78203,0 -3.78203,-1 -5.08103,-2.46383 l -1.527,-2.91564 c -0.52262,-0.98802 -1.70328,-1.61594 -2.88973,-1.62053 h -18.28424 c -1.71234,0.002 -2.99827,1.41164 -3,3 l 10e-6,39.5 c 0,2.0466 1.46781,3.5 3.4,3.5 h 53.49825 c 1.71233,-0.002 3.1,-1.28887 3.10174,-2.87723 v -27.23662 c -0.002,-1.58827 -1.3895,-2.87535 -3.10174,-2.877 z m -54.89826,29.49085 v -38.5 c 7.7e-4,-0.82599 0,-2 2,-2 h 15.7 c 1,0 2.1,0 2.736,1.324 l 1.526,2.515 c 1.21959,2.31102 3.038,3.161 6.038,3.161 l 22.53,-2e-5 c 0.89087,4.4e-4 1.46876,0.69766 1.47,1.52402 v 2.48513 l -46,-0.009 c -2,0 -3,1 -3,3 v 26.49987 c -0.0453,1.95192 -2.95472,1.95192 -3,0 z m 56,-0.5 c 0,2 -1.10954,1.99931 -2,2 h -50 c 0,0 1,0.34375 1,-1.5 v -25.5 c 0,-1.38848 0,-2 2,-2 h 47 c 2,0 1.99923,1.17399 2,2 z"
       id="path6-5-2-5-1"
       style="fill:url(#linearGradient5)"
       sodipodi:nodetypes="cccccccccccccccccccccccccccccccccccccccc" />
    <path
       d="m 440.57338,530.54827 c 0,1.24223 -1.00742,2.2494 -2.24998,2.2494 h -1.12503 c -1.24307,0 -2.25021,-1.00717 -2.25021,-2.2494 0,-0.27638 -0.0145,-0.54884 -0.036,-0.81935 -0.003,-0.0457 -0.006,-0.0909 -0.0102,-0.13573 -0.0244,-0.25648 -0.0589,-0.51084 -0.10165,-0.76192 -0.008,-0.049 -0.0175,-0.097 -0.0266,-0.14556 -0.0473,-0.25292 -0.10214,-0.50313 -0.16805,-0.74978 -0.009,-0.036 -0.02,-0.0701 -0.0301,-0.10546 -0.0705,-0.25407 -0.14832,-0.50511 -0.23788,-0.75113 -8.6e-4,-0.003 -0.003,-0.008 -0.005,-0.0116 -0.0901,-0.24719 -0.19278,-0.48894 -0.3021,-0.72676 -0.0154,-0.0346 -0.0295,-0.0692 -0.046,-0.10333 -0.10736,-0.22709 -0.22334,-0.44846 -0.3463,-0.66601 -0.0214,-0.0385 -0.0437,-0.0763 -0.0652,-0.1148 -0.1264,-0.21614 -0.25988,-0.42821 -0.40125,-0.6339 -0.0195,-0.028 -0.0398,-0.0566 -0.0593,-0.0841 -0.14723,-0.2096 -0.30048,-0.41453 -0.4625,-0.61196 -0.005,-0.006 -0.0102,-0.0116 -0.0143,-0.0175 -0.16293,-0.19664 -0.33402,-0.38535 -0.51036,-0.56931 -0.0289,-0.0312 -0.0577,-0.0619 -0.0879,-0.0922 -0.17196,-0.17523 -0.35169,-0.34359 -0.5366,-0.50564 -0.0334,-0.0295 -0.067,-0.0596 -0.10091,-0.0876 -0.18918,-0.16149 -0.38211,-0.31718 -0.58262,-0.46416 -0.0284,-0.0209 -0.0578,-0.0404 -0.0865,-0.0614 -0.20869,-0.15021 -0.42117,-0.29474 -0.64199,-0.42901 -0.003,-0.002 -0.007,-0.005 -0.011,-0.007 -0.21752,-0.13233 -0.44273,-0.25402 -0.67025,-0.37079 -0.0411,-0.0209 -0.081,-0.0425 -0.12185,-0.0621 -0.21877,-0.10789 -0.44204,-0.20635 -0.66975,-0.29859 -0.0477,-0.0195 -0.0956,-0.0389 -0.14447,-0.0574 -0.23136,-0.0895 -0.46609,-0.17131 -0.7057,-0.24384 -0.0372,-0.011 -0.0757,-0.0214 -0.11289,-0.0322 -0.89869,-0.26123 -1.84789,-0.40432 -2.83113,-0.40432 -0.62114,0 -1.12498,0.50318 -1.12498,1.12448 v 1.1253 c 0,0.62102 0.50387,1.12499 1.12498,1.12499 0.61755,0 1.21343,0.0901 1.78162,0.24528 0.17417,0.0478 0.34499,0.10217 0.5134,0.16341 0.01,0.003 0.0189,0.008 0.0283,0.0111 0.83317,0.30599 1.58807,0.77126 2.23009,1.35851 0.0281,0.026 0.0568,0.0499 0.0837,0.0764 0.10092,0.0951 0.19805,0.19421 0.29266,0.29586 0.0418,0.0448 0.0831,0.0895 0.12356,0.13565 0.0843,0.0944 0.16524,0.19034 0.24402,0.29005 0.0465,0.0594 0.0915,0.12105 0.13626,0.18233 0.0708,0.0963 0.14251,0.19178 0.20817,0.29121 0.0477,0.0734 0.0902,0.14883 0.13553,0.22331 0.0883,0.14638 0.17149,0.29523 0.24857,0.44847 0.0567,0.11232 0.11346,0.22443 0.16397,0.34064 0.0353,0.08 0.0647,0.16257 0.097,0.24469 0.0425,0.10899 0.0837,0.21809 0.12045,0.32989 0.0274,0.0831 0.0523,0.16696 0.0763,0.25102 0.0341,0.11921 0.0648,0.24009 0.0927,0.3612 0.0183,0.0798 0.0366,0.159 0.0516,0.24027 0.0262,0.13517 0.0447,0.27251 0.0622,0.40929 0.009,0.0728 0.0201,0.14394 0.0274,0.217 0.0126,0.13266 0.0151,0.26752 0.0201,0.40185 0.008,0.0772 0.0117,0.15462 0.0117,0.23347 0,1.24227 -1.00718,2.24946 -2.2502,2.24946 h -0.84385 -0.28117 c -1.24246,0 -2.24977,-1.00719 -2.24977,-2.24946 0,-0.62132 -0.50385,-1.12529 -1.12509,-1.12529 -0.62113,0 -1.12496,0.50397 -1.12496,1.12529 0,0.62102 0.50387,1.12445 1.12496,1.12445 0.3111,0 0.56263,0.25215 0.56263,0.56251 0,0.31093 -0.25153,0.5625 -0.56263,0.5625 -1.24241,-6e-5 -2.2496,-1.00723 -2.2496,-2.24951 0,-1.2431 1.00719,-2.25032 2.24956,-2.25032 1.24254,0 2.25039,1.00719 2.25039,2.25032 0,0.62102 0.50314,1.12445 1.12445,1.12445 h 0.28119 0.84397 c 0.62111,0 1.12511,-0.50343 1.12511,-1.12445 0,-0.85229 -0.19494,-1.65702 -0.53431,-2.38106 -0.0287,-0.062 -0.0574,-0.12413 -0.089,-0.18537 -0.0418,-0.0815 -0.0864,-0.1615 -0.13171,-0.24087 -0.0341,-0.06 -0.0708,-0.1187 -0.10715,-0.17665 -0.0463,-0.0736 -0.0927,-0.14807 -0.14189,-0.21943 -0.0757,-0.10903 -0.15591,-0.21504 -0.23838,-0.31857 -0.0492,-0.0606 -0.10093,-0.11838 -0.15204,-0.17715 -0.0607,-0.0692 -0.12233,-0.13868 -0.186,-0.20493 -0.0523,-0.0535 -0.10468,-0.10606 -0.15899,-0.15763 -0.0687,-0.0659 -0.14061,-0.12939 -0.21258,-0.19229 -0.0459,-0.0398 -0.0915,-0.0807 -0.13868,-0.1192 -0.11982,-0.0965 -0.24283,-0.19061 -0.37024,-0.27768 -0.0372,-0.0255 -0.0764,-0.0465 -0.11414,-0.0711 -0.0991,-0.0638 -0.19996,-0.12682 -0.30328,-0.18486 -0.053,-0.0295 -0.10662,-0.0574 -0.16029,-0.085 -0.098,-0.0511 -0.19805,-0.0985 -0.29902,-0.14395 -0.0497,-0.0218 -0.0982,-0.0452 -0.14869,-0.0659 -0.14958,-0.0612 -0.30159,-0.11778 -0.45733,-0.16695 -0.0189,-0.006 -0.0385,-0.01 -0.0579,-0.0159 -0.14005,-0.0423 -0.28327,-0.0795 -0.42763,-0.11017 -0.0537,-0.0113 -0.10922,-0.0214 -0.164,-0.0314 -0.11728,-0.0224 -0.23651,-0.0398 -0.35636,-0.0543 -0.0518,-0.007 -0.10211,-0.0124 -0.15451,-0.0175 -0.17223,-0.0156 -0.34496,-0.0265 -0.52097,-0.0265 -1.24241,-5e-5 -2.24955,-1.0075 -2.24955,-2.25038 v -1.12528 c 0,-1.24253 1.00714,-2.24975 2.24959,-2.24975 0.18289,0 0.36392,0.006 0.54487,0.0137 0.0654,0.003 0.1313,0.009 0.19749,0.0133 0.12045,0.008 0.24089,0.0156 0.36006,0.0272 0.0626,0.007 0.1236,0.0137 0.18542,0.0214 0.11923,0.0136 0.23839,0.0279 0.35637,0.0453 0.0705,0.01 0.14064,0.0223 0.21064,0.0341 0.10024,0.0165 0.19929,0.0341 0.29899,0.053 0.0804,0.016 0.15888,0.0322 0.23771,0.0492 0.10342,0.0222 0.20625,0.0462 0.30774,0.0714 0.0683,0.017 0.13568,0.0341 0.20382,0.0516 0.10022,0.0268 0.19994,0.056 0.2995,0.085 0.072,0.0214 0.14506,0.0425 0.21698,0.0649 0.092,0.0286 0.1817,0.0606 0.27317,0.0926 0.0791,0.027 0.1582,0.0535 0.23578,0.083 0.0778,0.0289 0.15519,0.0613 0.2321,0.0915 0.0837,0.0335 0.16906,0.0655 0.25232,0.10161 0.072,0.0306 0.14134,0.0637 0.21256,0.0957 0.17852,0.0809 0.35444,0.16587 0.52842,0.25547 0.0542,0.0276 0.10914,0.0549 0.16274,0.0836 0.0915,0.0493 0.18099,0.10106 0.2705,0.15273 0.0584,0.0327 0.11744,0.0646 0.17483,0.0997 0.0927,0.0555 0.18401,0.11393 0.27554,0.17218 0.0497,0.0322 0.10033,0.063 0.15005,0.0956 0.089,0.0586 0.17659,0.11924 0.26297,0.18016 0.0556,0.0393 0.11159,0.0791 0.16712,0.11926 0.0797,0.0582 0.15836,0.11728 0.23594,0.1766 0.0548,0.0419 0.10872,0.0844 0.16189,0.1274 0.0827,0.0665 0.16534,0.13377 0.24664,0.20241 0.0431,0.0366 0.0851,0.0734 0.12746,0.11048 0.0873,0.0766 0.17468,0.1527 0.25982,0.2321 0.0284,0.026 0.0549,0.0524 0.0825,0.0791 0.79536,0.75375 1.48236,1.62219 2.03091,2.57962 0.007,0.011 0.0134,0.0236 0.02,0.0351 0.0734,0.12878 0.14395,0.25928 0.21196,0.3911 0.009,0.017 0.017,0.0335 0.0261,0.0505 0.0686,0.13442 0.13512,0.26927 0.1983,0.40679 0.002,0.007 0.006,0.0139 0.009,0.0209 0.0659,0.14424 0.12989,0.28945 0.1897,0.43696 0,5.9e-4 0,9.2e-4 6.1e-4,0.002 0.30953,0.76003 0.53861,1.56153 0.67672,2.39427 0.0997,0.60207 0.15459,1.2195 0.15459,1.8504 0,0.62104 0.50372,1.12444 1.12498,1.12444 h 1.12494 c 0.62127,0 1.12478,-0.5034 1.12478,-1.12444 0,-0.91078 -0.0871,-1.80073 -0.24666,-2.66525 -0.002,-0.0101 -0.003,-0.019 -0.006,-0.0289 -0.0395,-0.21128 -0.0836,-0.42134 -0.13245,-0.62926 -0.002,-0.008 -0.003,-0.0159 -0.005,-0.0235 -0.047,-0.19994 -0.0981,-0.39879 -0.15333,-0.59548 -0.007,-0.0258 -0.0143,-0.0516 -0.0219,-0.0779 -0.056,-0.1961 -0.11533,-0.38889 -0.17904,-0.58196 -9e-4,-0.003 -0.002,-0.009 -0.003,-0.0131 -0.48118,-1.44801 -1.18212,-2.79469 -2.06429,-4.0024 -0.002,-0.005 -0.005,-0.008 -0.008,-0.0118 -0.11044,-0.15078 -0.22443,-0.29824 -0.34061,-0.4447 -0.0233,-0.0286 -0.0452,-0.0592 -0.0686,-0.0882 -0.10763,-0.13427 -0.21941,-0.26613 -0.33233,-0.39655 -0.0324,-0.0374 -0.0646,-0.0744 -0.0971,-0.11182 -0.11265,-0.12799 -0.22964,-0.25406 -0.34664,-0.37849 -0.0324,-0.0341 -0.0649,-0.0686 -0.0978,-0.10272 -0.11424,-0.11864 -0.23098,-0.23511 -0.34883,-0.3494 -0.0442,-0.0425 -0.0879,-0.0844 -0.13239,-0.12687 -0.1162,-0.10959 -0.23452,-0.21804 -0.35458,-0.32462 -0.0437,-0.039 -0.0882,-0.077 -0.13263,-0.11539 -0.11893,-0.10351 -0.23948,-0.20575 -0.36253,-0.3046 -0.0566,-0.0456 -0.11345,-0.0895 -0.17086,-0.13455 -0.11536,-0.0901 -0.23126,-0.18157 -0.34989,-0.26868 -0.059,-0.0431 -0.11865,-0.084 -0.17855,-0.12737 -0.12299,-0.0876 -0.24606,-0.17576 -0.37126,-0.2599 -0.0277,-0.0181 -0.0543,-0.0351 -0.0816,-0.053 -0.31782,-0.20933 -0.64329,-0.40676 -0.97752,-0.59143 -0.0176,-0.01 -0.0351,-0.0209 -0.053,-0.0303 -0.0997,-0.0541 -0.20174,-0.10515 -0.30264,-0.15757 -0.10408,-0.0541 -0.20749,-0.10847 -0.31283,-0.1596 -0.099,-0.0482 -0.2006,-0.0939 -0.30091,-0.13981 -0.10213,-0.0466 -0.20294,-0.0934 -0.30647,-0.13813 -0.10906,-0.047 -0.21881,-0.0909 -0.32921,-0.13573 -0.10461,-0.0425 -0.20808,-0.0836 -0.31407,-0.12356 -0.10092,-0.0379 -0.2031,-0.0739 -0.30466,-0.10902 -0.11917,-0.0419 -0.23903,-0.0825 -0.35947,-0.12168 -0.0963,-0.031 -0.19418,-0.0614 -0.29199,-0.0903 -0.12112,-0.0366 -0.24276,-0.0705 -0.36514,-0.10325 -0.10531,-0.0284 -0.21066,-0.0564 -0.31669,-0.082 -0.11787,-0.0286 -0.23654,-0.0555 -0.35569,-0.0817 -0.10845,-0.0244 -0.21626,-0.0474 -0.326,-0.069 -0.12425,-0.0242 -0.25033,-0.0465 -0.37589,-0.0671 -0.10213,-0.0179 -0.20377,-0.0354 -0.30716,-0.0505 -0.14882,-0.0214 -0.29955,-0.0389 -0.4496,-0.0568 -0.0822,-0.009 -0.16216,-0.02 -0.24419,-0.028 -0.16895,-0.0165 -0.3399,-0.0281 -0.51016,-0.0389 -0.0705,-0.005 -0.13991,-0.0113 -0.21124,-0.0145 -0.0555,-0.002 -0.11159,-0.002 -0.16778,-0.005 v -0.007 c -0.14186,-9e-4 -0.28315,-0.0555 -0.39166,-0.16394 -0.21944,-0.21947 -0.21944,-0.57597 0,-0.79546 0.11986,-0.1197 0.28,-0.16774 0.43644,-0.15706 8.41884,0.31602 15.14901,7.23722 15.14901,15.73392 z M 423.1356,515.92301 c -0.31035,0 -0.56192,-0.25215 -0.56192,-0.5625 0,-0.31094 0.25157,-0.56251 0.56192,-0.56251 0.31093,0 0.56265,0.25157 0.56265,0.56251 0,0.31035 -0.25172,0.5625 -0.56265,0.5625 z"
       id="path2-36-3-4-9-9-3"
       style="fill:url(#linearGradient2);stroke-width:0.0351555" />
  </g>
</svg>
