<?xml version="1.0" encoding="UTF-8" standalone="no"?>
<svg
   width="64"
   version="1.1"
   height="64"
   id="svg17"
   sodipodi:docname="folder-windows.svg"
   inkscape:version="1.3 (0e150ed6c4, 2023-07-21)"
   xmlns:inkscape="http://www.inkscape.org/namespaces/inkscape"
   xmlns:sodipodi="http://sodipodi.sourceforge.net/DTD/sodipodi-0.dtd"
   xmlns:xlink="http://www.w3.org/1999/xlink"
   xmlns="http://www.w3.org/2000/svg"
   xmlns:svg="http://www.w3.org/2000/svg"
   xmlns:rdf="http://www.w3.org/1999/02/22-rdf-syntax-ns#"
   xmlns:cc="http://creativecommons.org/ns#"
   xmlns:dc="http://purl.org/dc/elements/1.1/">
  <sodipodi:namedview
     pagecolor="#ffffff"
     bordercolor="#666666"
     borderopacity="1"
     objecttolerance="10"
     gridtolerance="10"
     guidetolerance="10"
     inkscape:pageopacity="0"
     inkscape:pageshadow="2"
     inkscape:window-width="1920"
     inkscape:window-height="994"
     id="namedview19"
     showgrid="true"
     inkscape:zoom="9.8125004"
     inkscape:cx="31.694266"
     inkscape:cy="33.375795"
     inkscape:window-x="0"
     inkscape:window-y="0"
     inkscape:window-maximized="1"
     inkscape:current-layer="layer1"
     inkscape:document-rotation="0"
     inkscape:showpageshadow="2"
     inkscape:pagecheckerboard="0"
     inkscape:deskcolor="#d1d1d1">
    <inkscape:grid
       type="xygrid"
       id="grid908"
       originx="0"
       originy="0"
       spacingy="1"
       spacingx="1"
       units="px"
       visible="true" />
  </sodipodi:namedview>
  <defs
     id="defs5455">
    <clipPath
       clipPathUnits="userSpaceOnUse"
       id="clipPath79425-9-5-3">
      <rect
         style="opacity:0.5;fill:#000000;fill-opacity:1;stroke:none;stroke-width:0.855869;stroke-dasharray:none;stroke-opacity:1;paint-order:stroke fill markers"
         id="rect79427-1-9-6"
         width="26.417742"
         height="29.037542"
         x="-16.227774"
         y="-6.4845476" />
    </clipPath>
    <clipPath
       clipPathUnits="userSpaceOnUse"
       id="clipPath79425-9-5-5">
      <rect
         style="opacity:0.5;fill:#000000;fill-opacity:1;stroke:none;stroke-width:0.855869;stroke-dasharray:none;stroke-opacity:1;paint-order:stroke fill markers"
         id="rect79427-1-9-62"
         width="26.417742"
         height="29.037542"
         x="-16.227774"
         y="-6.4845476" />
    </clipPath>
    <linearGradient
       inkscape:collect="always"
       xlink:href="#linearGradient12"
       id="linearGradient17"
       x1="392.57144"
       y1="536.79797"
       x2="444.57144"
       y2="507.798"
       gradientUnits="userSpaceOnUse"
       gradientTransform="translate(1.5576172e-5,-1.568e-4)" />
    <linearGradient
       inkscape:collect="always"
       xlink:href="#linearGradient12"
       id="linearGradient4"
       gradientUnits="userSpaceOnUse"
       gradientTransform="translate(0.99996258,4.0231772)"
       x1="397.57144"
       y1="511.27505"
       x2="415.57144"
       y2="511.27505" />
    <linearGradient
       inkscape:collect="always"
       xlink:href="#linearGradient12"
       id="linearGradient5"
       gradientUnits="userSpaceOnUse"
       gradientTransform="translate(-2.4423828e-5,-1.458e-4)"
       x1="386.38025"
       y1="541.81329"
       x2="439.20044"
       y2="499.79816" />
    <linearGradient
       id="linearGradient12"
       inkscape:collect="always">
      <stop
         style="stop-color:#2a7fff;stop-opacity:1"
         offset="0"
         id="stop10" />
      <stop
         style="stop-color:#8787de;stop-opacity:1"
         offset="0.5477823"
         id="stop11" />
      <stop
         style="stop-color:#00aad4;stop-opacity:1"
         offset="1"
         id="stop12" />
    </linearGradient>
    <linearGradient
       inkscape:collect="always"
       xlink:href="#linearGradient12"
       id="linearGradient2"
       x1="421.52237"
       y1="524.92126"
       x2="439.52283"
       y2="524.92126"
       gradientUnits="userSpaceOnUse"
       gradientTransform="translate(1.04906,-1.12329)" />
  </defs>
  <metadata
     id="metadata5458">
    <rdf:RDF>
      <cc:Work
         rdf:about="">
        <dc:format>image/svg+xml</dc:format>
        <dc:type
           rdf:resource="http://purl.org/dc/dcmitype/StillImage" />
      </cc:Work>
    </rdf:RDF>
  </metadata>
  <g
     inkscape:label="Capa 1"
     inkscape:groupmode="layer"
     id="layer1"
     transform="translate(-384.57143,-483.798)">
    <path
       inkscape:connector-curvature="0"
       id="fill-3"
       d="m 393.57141,509.19784 3e-5,26.355 c -0.0932,0.57145 -0.23037,0.90721 -0.644,1.24501 l 49.644,-1e-5 c 1.25773,0 2,-0.20551 2,-1.99362 v -25.50638 c 0,-0.66722 -0.33428,-1.5 -1.9,-1.5 h -47.10899 c -0.99101,0 -1.99101,0 -1.99104,1.4 z"
       style="color:#1e92ff;opacity:0.39;fill:url(#linearGradient17);fill-opacity:0.4;fill-rule:nonzero;stroke:none;stroke-width:8.11634"
       sodipodi:nodetypes="ccccccccc" />
    <rect
       x="398.57144"
       y="513.79773"
       width="18"
       height="3"
       ry="1.5"
       stroke-width="5.07132"
       style="opacity:0.8;fill:url(#linearGradient4);fill-opacity:1;paint-order:stroke markers fill"
       id="rect12-5-9-3-9-7-7-9"
       rx="1.5000117" />
    <path
       d="m 443.46967,505.807 -0.89826,-0.009 v -2.5759 c -0.002,-1.58874 -1,-3.4241 -3.371,-3.4241 h -21.84697 c -3.78203,0 -3.78203,-1 -5.08102,-2.46383 l -1.527,-2.91564 c -0.52263,-0.98802 -1.70328,-1.61594 -2.88973,-1.62053 h -18.28424 c -1.71234,0.002 -2.99827,1.41164 -3,3 v 39.5 c 0,2.0466 1.46781,3.5 3.4,3.5 h 53.49825 c 1.71233,-0.002 3.1,-1.28887 3.10174,-2.87723 v -27.23662 c -0.002,-1.58827 -1.3895,-2.87535 -3.10174,-2.877 z m -54.89826,29.49085 v -38.5 c 7.7e-4,-0.82599 0,-2 2,-2 h 15.7 c 1,0 2.1,0 2.736,1.324 l 1.526,2.515 c 1.21959,2.31102 3.038,3.161 6.038,3.161 l 22.53001,-2e-5 c 0.89087,4.4e-4 1.46875,0.69766 1.47,1.52402 v 2.48513 l -46,-0.009 c -2,0 -3,1 -3,3 v 26.49987 c -0.0453,1.95192 -2.95472,1.95192 -3.00001,0 z m 56,-0.5 c 0,2 -1.10954,1.99931 -2,2 h -50 c 0,0 1,0.34375 1,-1.5 v -25.5 c 0,-1.38848 0,-2 2,-2 h 47 c 2,0 1.99923,1.17399 2,2 z"
       id="path6-5-2-5-1"
       style="fill:url(#linearGradient5)"
       sodipodi:nodetypes="cccccccccccccccccccccccccccccccccccccccc" />
    <path
       fill-rule="evenodd"
       clip-rule="evenodd"
       d="m 438.32127,532.79613 h -3.93732 c -0.31041,0 -0.56288,-0.25217 -0.56288,-0.56247 0,-0.31094 0.25247,-0.56251 0.56288,-0.56251 h 3.6561 c 0.7768,0 1.40621,-0.62953 1.40621,-1.40624 v -3.65618 c 0,-0.31096 0.25161,-0.56306 0.56256,-0.56306 0.31094,0 0.56243,0.2521 0.56243,0.56306 v 3.93743 c 0,1.2425 -1.00738,2.24997 -2.24998,2.24997 z m -15.18732,-12.37467 c 0.31092,0 0.56262,0.25161 0.56262,0.56249 0,0.31004 -0.2517,0.5619 -0.56262,0.5619 -0.31081,0 -0.56252,-0.25186 -0.56252,-0.5619 0,-0.31088 0.25171,-0.56249 0.56252,-0.56249 z m 17.41648,2.54304 c -0.007,0.0604 -0.0169,0.12058 -0.0298,0.17906 -0.006,0.0286 -0.0145,0.0555 -0.0214,0.0835 -0.0128,0.049 -0.0252,0.0985 -0.0411,0.14611 -0.007,0.0209 -0.0149,0.0416 -0.0223,0.0629 -0.0204,0.0549 -0.0407,0.10934 -0.0654,0.16179 -0.006,0.0142 -0.0135,0.0266 -0.0196,0.0404 -0.0272,0.0571 -0.0568,0.11398 -0.0887,0.1681 -0.007,0.0117 -0.0137,0.0223 -0.0203,0.0335 -0.0345,0.056 -0.0711,0.11094 -0.11034,0.16415 -0.006,0.007 -0.0119,0.0154 -0.0168,0.0226 -0.0425,0.0556 -0.0871,0.10991 -0.13432,0.16097 -0.003,0.004 -0.008,0.0103 -0.0125,0.0138 -0.0512,0.0555 -0.10552,0.1081 -0.16202,0.15823 -0.39665,0.34888 -0.91524,0.56258 -1.4848,0.56258 v 0.0285 c -0.0909,-0.0181 -0.18514,-0.0285 -0.28122,-0.0285 h -3.93738 c -0.7767,0 -1.40623,0.62945 -1.40623,1.40617 v 3.93736 c 0,0.0957 0.0112,0.19063 0.0289,0.2813 h -0.0289 c 0,0.56957 -0.21342,1.08814 -0.56251,1.48478 -0.0502,0.0566 -0.10277,0.11096 -0.15816,0.16204 -0.003,0.003 -0.008,0.007 -0.0134,0.0124 -0.0514,0.0472 -0.10578,0.0918 -0.16121,0.13403 -0.007,0.006 -0.0154,0.0119 -0.0222,0.0169 -0.0533,0.0389 -0.10792,0.0756 -0.16408,0.11053 -0.0117,0.007 -0.0219,0.0141 -0.0334,0.0204 -0.0542,0.032 -0.111,0.061 -0.16822,0.0884 -0.0142,0.007 -0.0269,0.0142 -0.0407,0.0198 -0.0524,0.0247 -0.10661,0.0451 -0.1616,0.0654 -0.0208,0.007 -0.0416,0.016 -0.0625,0.0228 -0.0479,0.016 -0.097,0.0287 -0.14609,0.0412 -0.0282,0.007 -0.0549,0.0155 -0.0836,0.0214 -0.0583,0.0128 -0.11869,0.0218 -0.17887,0.0297 -0.0168,0.002 -0.0323,0.006 -0.0495,0.007 -0.0797,0.0103 -0.16168,0.0142 -0.24393,0.0142 h -5.62449 c -1.24259,-1.2e-4 -2.25019,-1.00756 -2.25019,-2.2501 v -5.62489 c 0,-1.24269 1.0076,-2.25012 2.25019,-2.25012 h 0.56266 3.65576 c 0.77685,0 1.40626,-0.62952 1.40626,-1.40623 v -3.93745 c 0,-0.77667 -0.62941,-1.40619 -1.40626,-1.40619 h -3.93732 c -0.77664,0 -1.40607,0.62952 -1.40607,1.40619 v 1.40625 c 0,0.31065 -0.25174,0.5625 -0.56262,0.5625 -0.31077,0 -0.5625,-0.25185 -0.5625,-0.5625 v -1.68724 c 4e-5,-1.24277 1.00763,-2.25022 2.2502,-2.25022 h 4.50006 c 0.0826,0 0.16294,0.003 0.24284,0.0132 0.0186,8.9e-4 0.0363,0.007 0.0549,0.0103 0.0592,0.007 0.11757,0.0168 0.17535,0.0291 0.0268,0.006 0.052,0.0142 0.0786,0.0204 0.0507,0.0128 0.10092,0.0252 0.14987,0.0416 0.0201,0.007 0.0402,0.0151 0.0609,0.0223 0.0548,0.0204 0.11033,0.0412 0.1634,0.0657 0.0145,0.007 0.0288,0.0134 0.043,0.0203 0.056,0.0267 0.11158,0.056 0.16522,0.0876 0.0118,0.007 0.0228,0.0142 0.0341,0.0209 0.056,0.0345 0.11104,0.0709 0.16408,0.11033 0.007,0.006 0.0156,0.0117 0.0225,0.0168 0.0556,0.0422 0.10979,0.0871 0.16106,0.13392 0.003,0.003 0.008,0.008 0.0136,0.0124 0.0556,0.0514 0.10788,0.10559 0.15805,0.16228 0.34911,0.39663 0.5626,0.91522 0.5626,1.48477 h 0.0287 c -0.0186,0.0906 -0.0287,0.18491 -0.0287,0.28095 v 4.21849 c 0,1.24274 -1.00755,2.25021 -2.24969,2.25021 h -4.21897 c -0.77671,0 -1.40614,0.62968 -1.40614,1.40634 v 5.06245 c 0,0.77666 0.62939,1.40621 1.40614,1.40621 h 5.06267 c 0.77673,0 1.40609,-0.62955 1.40609,-1.40621 v -4.21968 c 0,-1.24252 1.00749,-2.24945 2.24971,-2.24945 h 4.21892 c 0.77678,0 1.40623,-0.62928 1.40623,-1.40599 v -5.06275 c 0,-0.77673 -0.62945,-1.40616 -1.40623,-1.40616 h -4.78088 c -0.31068,0 -0.5628,-0.25162 -0.5628,-0.56258 0,-0.3109 0.25212,-0.5624 0.5628,-0.5624 h 5.06206 c 1.24261,0 2.24998,1.00734 2.24998,2.25019 v 5.62465 c 0,0.082 -0.005,0.16398 -0.0142,0.24385 -8.9e-4,0.0173 -0.005,0.033 -0.007,0.0497 z"
       id="path2-3-3-7-4-3"
       style="fill:url(#linearGradient2);stroke-width:0.0351554" />
  </g>
</svg>
