<?xml version="1.0" encoding="UTF-8" standalone="no"?>
<svg
   width="64"
   version="1.1"
   height="64"
   id="svg17"
   sodipodi:docname="folder-book.svg"
   inkscape:version="1.3 (0e150ed6c4, 2023-07-21)"
   xmlns:inkscape="http://www.inkscape.org/namespaces/inkscape"
   xmlns:sodipodi="http://sodipodi.sourceforge.net/DTD/sodipodi-0.dtd"
   xmlns:xlink="http://www.w3.org/1999/xlink"
   xmlns="http://www.w3.org/2000/svg"
   xmlns:svg="http://www.w3.org/2000/svg"
   xmlns:rdf="http://www.w3.org/1999/02/22-rdf-syntax-ns#"
   xmlns:cc="http://creativecommons.org/ns#"
   xmlns:dc="http://purl.org/dc/elements/1.1/">
  <sodipodi:namedview
     pagecolor="#ffffff"
     bordercolor="#666666"
     borderopacity="1"
     objecttolerance="10"
     gridtolerance="10"
     guidetolerance="10"
     inkscape:pageopacity="0"
     inkscape:pageshadow="2"
     inkscape:window-width="1920"
     inkscape:window-height="994"
     id="namedview19"
     showgrid="true"
     inkscape:zoom="9.8125"
     inkscape:cx="20.382166"
     inkscape:cy="37.248408"
     inkscape:window-x="0"
     inkscape:window-y="0"
     inkscape:window-maximized="1"
     inkscape:current-layer="layer1"
     inkscape:document-rotation="0"
     inkscape:showpageshadow="2"
     inkscape:pagecheckerboard="0"
     inkscape:deskcolor="#d1d1d1">
    <inkscape:grid
       type="xygrid"
       id="grid877"
       originx="0"
       originy="0"
       spacingy="1"
       spacingx="1"
       units="px"
       visible="true" />
  </sodipodi:namedview>
  <defs
     id="defs5455">
    <clipPath
       clipPathUnits="userSpaceOnUse"
       id="clipPath79425-9-5-3">
      <rect
         style="opacity:0.5;fill:#000000;fill-opacity:1;stroke:none;stroke-width:0.855869;stroke-dasharray:none;stroke-opacity:1;paint-order:stroke fill markers"
         id="rect79427-1-9-6"
         width="26.417742"
         height="29.037542"
         x="-16.227774"
         y="-6.4845476" />
    </clipPath>
    <clipPath
       clipPathUnits="userSpaceOnUse"
       id="clipPath79425-9-5-5">
      <rect
         style="opacity:0.5;fill:#000000;fill-opacity:1;stroke:none;stroke-width:0.855869;stroke-dasharray:none;stroke-opacity:1;paint-order:stroke fill markers"
         id="rect79427-1-9-62"
         width="26.417742"
         height="29.037542"
         x="-16.227774"
         y="-6.4845476" />
    </clipPath>
    <linearGradient
       inkscape:collect="always"
       xlink:href="#linearGradient12"
       id="linearGradient17"
       x1="392.57144"
       y1="536.79797"
       x2="444.57144"
       y2="507.798"
       gradientUnits="userSpaceOnUse"
       gradientTransform="translate(5e-6,-1.6e-4)" />
    <linearGradient
       inkscape:collect="always"
       xlink:href="#linearGradient12"
       id="linearGradient4"
       gradientUnits="userSpaceOnUse"
       gradientTransform="translate(0.999952,4.023174)"
       x1="397.57144"
       y1="511.27505"
       x2="415.57144"
       y2="511.27505" />
    <linearGradient
       inkscape:collect="always"
       xlink:href="#linearGradient12"
       id="linearGradient5"
       gradientUnits="userSpaceOnUse"
       gradientTransform="translate(-3.5e-5,-1.49e-4)"
       x1="386.38025"
       y1="541.81329"
       x2="439.20044"
       y2="499.79816" />
    <linearGradient
       id="linearGradient12"
       inkscape:collect="always">
      <stop
         style="stop-color:#ffcc00;stop-opacity:1"
         offset="0"
         id="stop10" />
      <stop
         style="stop-color:#47b7c7;stop-opacity:1;"
         offset="0.5526526"
         id="stop11" />
      <stop
         style="stop-color:#b07bff;stop-opacity:1;"
         offset="1"
         id="stop12" />
    </linearGradient>
    <linearGradient
       inkscape:collect="always"
       xlink:href="#linearGradient12"
       id="linearGradient2"
       x1="418.90408"
       y1="524.8927"
       x2="438.90408"
       y2="524.8927"
       gradientUnits="userSpaceOnUse"
       gradientTransform="translate(1.66735,-1.09471)" />
  </defs>
  <metadata
     id="metadata5458">
    <rdf:RDF>
      <cc:Work
         rdf:about="">
        <dc:format>image/svg+xml</dc:format>
        <dc:type
           rdf:resource="http://purl.org/dc/dcmitype/StillImage" />
      </cc:Work>
    </rdf:RDF>
  </metadata>
  <g
     inkscape:label="Capa 1"
     inkscape:groupmode="layer"
     id="layer1"
     transform="translate(-384.57143,-483.798)">
    <path
       inkscape:connector-curvature="0"
       id="fill-3"
       d="m 393.5714,509.19784 3e-5,26.355 c -0.0932,0.57145 -0.23037,0.90721 -0.644,1.24501 l 49.644,-1e-5 c 1.25773,0 2,-0.20551 2,-1.99362 v -25.50638 c 0,-0.66722 -0.33428,-1.5 -1.9,-1.5 h -47.10899 c -0.99101,0 -1.99101,0 -1.99104,1.4 z"
       style="color:#1e92ff;opacity:0.4;fill:url(#linearGradient17);fill-opacity:0.4;fill-rule:nonzero;stroke:none;stroke-width:8.11634"
       sodipodi:nodetypes="ccccccccc" />
    <rect
       x="398.57132"
       y="513.79785"
       width="18"
       height="3"
       ry="1.5"
       stroke-width="5.07132"
       style="opacity:0.8;fill:url(#linearGradient4);fill-opacity:1;paint-order:stroke markers fill"
       id="rect12-5-9-3-9-7-7-9"
       rx="1.5000117" />
    <path
       d="m 443.46966,505.807 -0.89826,-0.009 v -2.5759 c -0.002,-1.58874 -1,-3.4241 -3.371,-3.4241 h -21.84697 c -3.78203,0 -3.78203,-1 -5.08103,-2.46383 l -1.527,-2.91564 c -0.52262,-0.98802 -1.70328,-1.61594 -2.88972,-1.62053 h -18.28425 c -1.71233,0.002 -2.99826,1.41164 -3,3 l 10e-6,39.5 c 0,2.0466 1.46781,3.5 3.4,3.5 h 53.49825 c 1.71233,-0.002 3.1,-1.28887 3.10174,-2.87723 v -27.23662 c -0.002,-1.58827 -1.3895,-2.87535 -3.10174,-2.877 z m -54.89826,29.49085 v -38.5 c 7.7e-4,-0.82599 0,-2 2,-2 h 15.7 c 1,0 2.1,0 2.736,1.324 l 1.526,2.515 c 1.21959,2.31102 3.038,3.161 6.038,3.161 l 22.53,-2e-5 c 0.89087,4.4e-4 1.46876,0.69766 1.47001,1.52402 v 2.48513 l -46,-0.009 c -2,0 -3,1 -3,3 v 26.49987 c -0.0453,1.95192 -2.95472,1.95192 -3.00001,0 z m 56,-0.5 c 0,2 -1.10954,1.99931 -2,2 h -50 c 0,0 1,0.34375 1,-1.5 v -25.5 c 0,-1.38848 0,-2 2,-2 h 47 c 2,0 1.99923,1.17399 2,2 z"
       id="path6-5-2-5-1"
       style="fill:url(#linearGradient5)"
       sodipodi:nodetypes="cccccccccccccccccccccccccccccccccccccccc" />
    <path
       fill-rule="evenodd"
       clip-rule="evenodd"
       d="m 439.48092,529.51281 -7.08909,2.93401 c -0.56508,0.22549 -1.17778,0.35118 -1.82018,0.35118 -0.64775,0 -1.26594,-0.12705 -1.83398,-0.35648 l -7.07186,-2.92638 c -0.64805,-0.33731 -1.09438,-1.01976 -1.09438,-1.81172 v -7.81012 -1.35877 c 0,-0.37548 0.29912,-0.67926 0.66664,-0.67926 0.36852,0 0.66699,0.30378 0.66699,0.67926 v 0.55216 0.80661 7.71489 c 0,0.24506 0.13145,0.45464 0.32295,0.5741 l 6.80684,2.93435 c 0.0148,0.006 0.0281,0.009 0.0427,0.0152 0.45887,0.19799 0.9641,0.30743 1.49406,0.30743 0.52657,0 1.02849,-0.10808 1.48548,-0.30378 0.0149,-0.006 0.0284,-0.01 0.0425,-0.0159 l 6.81438,-2.93736 c 0.19144,-0.11945 0.32361,-0.32902 0.32361,-0.57409 v -4.99849 -0.80656 -0.55217 c 0,-0.37478 0.29882,-0.67854 0.66669,-0.67854 0.36846,0 0.66663,0.30376 0.66663,0.67854 v 1.3587 5.0937 c 3e-5,0.79062 -0.4446,1.47054 -1.09043,1.80943 z m 0.42385,-10.29878 c -0.3678,0 -0.66664,-0.30476 -0.66664,-0.6795 0,-0.37548 0.29884,-0.67925 0.66664,-0.67925 0.36848,0 0.66666,0.30377 0.66666,0.67925 0,0.37474 -0.29818,0.6795 -0.66666,0.6795 z m -3.22523,8.33112 -3.1445,1.33483 v -8.8e-4 c -0.0853,0.0392 -0.17968,0.0606 -0.27864,0.0606 -0.37765,0 -0.68492,-0.31214 -0.68492,-0.69751 0,-0.29848 0.18425,-0.55053 0.44275,-0.65105 l 3.20307,-1.428 c 0.20762,-0.11406 0.35413,-0.33429 0.35413,-0.59335 v -8.89289 c 0,-0.18736 -0.14902,-0.33961 -0.33331,-0.33961 -0.0484,0 -0.0941,0.011 -0.13673,0.0299 v -7.2e-4 l -4.50842,2.01042 c -0.2096,0.11415 -0.35419,0.33433 -0.35419,0.59229 v 8.05489 1.35844 c 0,0.7502 -0.59746,1.35874 -1.33381,1.35874 -0.1846,0 -0.35935,-0.0382 -0.51954,-0.10742 l -4.92571,-2.09102 c -0.71842,-0.31007 -1.22129,-1.03344 -1.22129,-1.87634 v -9.5092 c 0,-0.75021 0.59733,-1.35875 1.33329,-1.35875 0.18163,0 0.35349,0.0375 0.51203,0.10516 l 3.05959,1.29838 c 0.25125,0.10747 0.42834,0.36076 0.42834,0.65562 0,0.393 -0.31253,0.71132 -0.69759,0.71132 -0.11655,0 -0.22491,-0.0321 -0.32125,-0.0837 l -2.51077,-1.11928 c -8.6e-4,0 0,6.3e-4 -8.6e-4,6.3e-4 -0.0413,-0.0189 -0.0874,-0.0299 -0.13573,-0.0299 -0.185,0 -0.33369,0.15226 -0.33369,0.33965 v 8.89292 c 0,0.25903 0.14584,0.47922 0.3545,0.59334 l 4.50875,2.00975 c 6.7e-4,0 0,-7.1e-4 6.7e-4,-7.1e-4 0.0406,0.0189 0.0878,0.0299 0.13609,0.0299 0.18388,0 0.33332,-0.15157 0.33332,-0.33961 v -8.6485 -0.33996 c 0,-0.84437 0.50392,-1.56935 1.22315,-1.87775 l 4.93093,-2.09271 c 0.15884,-0.0676 0.33077,-0.10507 0.51236,-0.10507 0.73635,0 1.33403,0.60853 1.33403,1.35872 v 9.50914 c -6e-5,0.84432 -0.50653,1.56934 -1.22599,1.87874 z"
       id="path806-7-6-2"
       style="fill:url(#linearGradient2);stroke-width:0.0420563" />
  </g>
</svg>
