<?xml version="1.0" encoding="UTF-8" standalone="no"?>
<svg
   width="64"
   version="1.1"
   height="64"
   id="svg15"
   sodipodi:docname="folder-KDE.svg"
   inkscape:version="1.3 (0e150ed6c4, 2023-07-21)"
   xmlns:inkscape="http://www.inkscape.org/namespaces/inkscape"
   xmlns:sodipodi="http://sodipodi.sourceforge.net/DTD/sodipodi-0.dtd"
   xmlns:xlink="http://www.w3.org/1999/xlink"
   xmlns="http://www.w3.org/2000/svg"
   xmlns:svg="http://www.w3.org/2000/svg"
   xmlns:rdf="http://www.w3.org/1999/02/22-rdf-syntax-ns#"
   xmlns:cc="http://creativecommons.org/ns#"
   xmlns:dc="http://purl.org/dc/elements/1.1/">
  <sodipodi:namedview
     pagecolor="#ffffff"
     bordercolor="#666666"
     borderopacity="1"
     objecttolerance="10"
     gridtolerance="10"
     guidetolerance="10"
     inkscape:pageopacity="0"
     inkscape:pageshadow="2"
     inkscape:window-width="1920"
     inkscape:window-height="994"
     id="namedview17"
     showgrid="true"
     inkscape:zoom="6.9737508"
     inkscape:cx="28.320484"
     inkscape:cy="33.626094"
     inkscape:window-x="0"
     inkscape:window-y="0"
     inkscape:window-maximized="1"
     inkscape:current-layer="layer1"
     inkscape:document-rotation="0"
     inkscape:showpageshadow="2"
     inkscape:pagecheckerboard="0"
     inkscape:deskcolor="#d1d1d1">
    <inkscape:grid
       type="xygrid"
       id="grid919"
       originx="0"
       originy="0"
       spacingy="1"
       spacingx="1"
       units="px"
       visible="true" />
  </sodipodi:namedview>
  <defs
     id="defs5455">
    <linearGradient
       id="linearGradient6"
       inkscape:collect="always">
      <stop
         style="stop-color:#0066ff;stop-opacity:1"
         offset="0"
         id="stop2" />
      <stop
         style="stop-color:#55ddff;stop-opacity:1"
         offset="0.48888862"
         id="stop3" />
      <stop
         style="stop-color:#944cff;stop-opacity:1;"
         offset="1"
         id="stop4" />
    </linearGradient>
    <clipPath
       clipPathUnits="userSpaceOnUse"
       id="clipPath79425-9-5-3">
      <rect
         style="opacity:0.5;fill:#000000;fill-opacity:1;stroke:none;stroke-width:0.855869;stroke-dasharray:none;stroke-opacity:1;paint-order:stroke fill markers"
         id="rect79427-1-9-6"
         width="26.417742"
         height="29.037542"
         x="-16.227774"
         y="-6.4845476" />
    </clipPath>
    <clipPath
       clipPathUnits="userSpaceOnUse"
       id="clipPath79425-9-5-5">
      <rect
         style="opacity:0.5;fill:#000000;fill-opacity:1;stroke:none;stroke-width:0.855869;stroke-dasharray:none;stroke-opacity:1;paint-order:stroke fill markers"
         id="rect79427-1-9-62"
         width="26.417742"
         height="29.037542"
         x="-16.227774"
         y="-6.4845476" />
    </clipPath>
    <linearGradient
       inkscape:collect="always"
       xlink:href="#linearGradient6"
       id="linearGradient17"
       x1="392.57144"
       y1="536.79797"
       x2="444.57144"
       y2="507.798"
       gradientUnits="userSpaceOnUse"
       gradientTransform="translate(-4.9e-7,-1.65e-4)" />
    <linearGradient
       inkscape:collect="always"
       xlink:href="#linearGradient6"
       id="linearGradient4"
       gradientUnits="userSpaceOnUse"
       gradientTransform="translate(0.9999468,4.023169)"
       x1="397.57144"
       y1="511.27505"
       x2="415.57144"
       y2="511.27505" />
    <linearGradient
       inkscape:collect="always"
       xlink:href="#linearGradient6"
       id="linearGradient5"
       gradientUnits="userSpaceOnUse"
       gradientTransform="translate(-4.049e-5,-1.54e-4)"
       x1="387.57144"
       y1="537.79797"
       x2="445.57144"
       y2="492.798" />
    <linearGradient
       inkscape:collect="always"
       xlink:href="#linearGradient6"
       id="linearGradient2"
       x1="423.47144"
       y1="523.79797"
       x2="440.70096"
       y2="523.79797"
       gradientUnits="userSpaceOnUse" />
  </defs>
  <metadata
     id="metadata5458">
    <rdf:RDF>
      <cc:Work
         rdf:about="">
        <dc:format>image/svg+xml</dc:format>
        <dc:type
           rdf:resource="http://purl.org/dc/dcmitype/StillImage" />
      </cc:Work>
    </rdf:RDF>
  </metadata>
  <g
     inkscape:label="Capa 1"
     inkscape:groupmode="layer"
     id="layer1"
     transform="translate(-384.57143,-483.798)">
    <path
       inkscape:connector-curvature="0"
       id="fill-3"
       d="m 393.5714,509.19784 3e-5,26.355 c -0.0932,0.57145 -0.23037,0.90721 -0.644,1.24501 l 49.644,-1e-5 c 1.25773,0 2,-0.20551 2,-1.99362 v -25.50638 c 0,-0.66722 -0.33428,-1.5 -1.9,-1.5 h -47.10899 c -0.99101,0 -1.99101,0 -1.99104,1.4 z"
       style="color:#1e92ff;opacity:0.4;fill:url(#linearGradient17);fill-opacity:0.4;fill-rule:nonzero;stroke:none;stroke-width:8.11634"
       sodipodi:nodetypes="ccccccccc" />
    <rect
       x="398.57138"
       y="513.79779"
       width="18"
       height="3"
       ry="1.5"
       stroke-width="5.07132"
       style="opacity:0.8;fill:url(#linearGradient4);fill-opacity:1;paint-order:stroke markers fill"
       id="rect12-5-9-3-9-7-7-9"
       rx="1.5000117" />
    <path
       d="m 443.46966,505.807 -0.89826,-0.009 v -2.5759 c -0.002,-1.58874 -1,-3.4241 -3.371,-3.4241 h -21.84697 c -3.78203,0 -3.78203,-1 -5.08103,-2.46383 l -1.527,-2.91564 c -0.52262,-0.98802 -1.70328,-1.61594 -2.88973,-1.62053 h -18.28424 c -1.71234,0.002 -2.99827,1.41164 -3,3 l 10e-6,39.5 c 0,2.0466 1.46781,3.5 3.4,3.5 h 53.49825 c 1.71233,-0.002 3.1,-1.28887 3.10174,-2.87723 v -27.23662 c -0.002,-1.58827 -1.3895,-2.87535 -3.10174,-2.877 z m -54.89826,29.49085 v -38.5 c 7.7e-4,-0.826 0,-2 2,-2 h 15.7 c 1,0 2.1,0 2.736,1.32399 l 1.526,2.515 c 1.21959,2.31102 3.038,3.161 6.038,3.161 l 22.53,-2e-5 c 0.89087,4.4e-4 1.46876,0.69767 1.47,1.52402 v 2.48513 l -46,-0.009 c -2,0 -3,1 -3,3 v 26.49987 c -0.0453,1.95192 -2.95472,1.95192 -3,1e-5 z m 56,-0.5 c 0,2 -1.10954,1.99931 -2,2 h -50 c 0,0 1,0.34375 1,-1.5 v -25.5 c 0,-1.38848 0,-2 2,-2 h 47 c 2,0 1.99923,1.17399 2,2 z"
       id="path6-5-2-5-1"
       style="opacity:0.7;fill:url(#linearGradient5)"
       sodipodi:nodetypes="cccccccccccccccccccccccccccccccccccccccc" />
    <path
       style="color:#d3dae3;fill:url(#linearGradient2);fill-opacity:1;stroke-width:0.859286"
       d="m 433.80801,514.798 -3.44566,0.51902 v 12.40217 l 3.44566,-0.9208 v -4.79145 l 3.44561,5.64865 3.44569,-1.28582 -4.30704,-5.143 4.3087,-5.56988 -3.34304,-0.85888 -3.54992,5.62183 z m -7.01582,3.36334 c -0.0815,0 -0.16294,0.0312 -0.22542,0.0939 l -1.35434,1.34777 c -0.12495,0.12432 -0.0947,0.30197 0,0.45029 l 1.40145,2.18983 c -0.10383,0.21452 -0.19369,0.43536 -0.26913,0.66131 -0.004,0.0102 -0.0103,0.0188 -0.0115,0.0279 l -2.54221,0.56246 c -0.17245,0.0385 -0.31961,0.14225 -0.31961,0.31817 v 0.84212 0.84205 c 0,0.17584 0.14716,0.27988 0.31961,0.31807 l 2.54221,0.56255 c 0.006,0.0164 0.0141,0.0316 0.0205,0.0483 0.0736,0.21947 0.16053,0.43422 0.26081,0.64294 l -1.4015,2.18803 c -0.0948,0.14841 -0.12496,0.32603 0,0.45039 l 1.35437,1.34768 c 0.125,0.12431 0.32591,0.12431 0.45089,0 l 2.19731,-1.3929 c 0.21597,0.10455 0.43844,0.19516 0.66618,0.27115 0.0146,0.006 0.0285,0.0131 0.044,0.0185 l 0.56363,2.52803 c 0,0.17584 0.14299,0.31809 0.3197,0.31809 h 1.91288 c 0.1768,0 0.28137,-0.14645 0.3197,-0.31809 l 0.56362,-2.60498 c 0.25892,-0.0967 0.51031,-0.21275 0.752,-0.34658 l 2.14517,1.52681 c 0.12495,0.12434 0.3259,0.12434 0.4509,0 l 1.35437,-1.34766 c 0.12492,-0.12436 0.0948,-0.30198 0,-0.45039 l -0.81597,-1.23214 -0.0857,0.0317 c -0.19405,0.0726 -0.41241,-0.003 -0.51988,-0.17907 l -0.858,-1.40631 c -0.71493,1.70165 -2.4033,2.89797 -4.3727,2.89797 -2.61658,0 -4.73778,-2.11074 -4.73778,-4.71445 0,-1.998 1.25149,-3.70156 3.01493,-4.38796 v -0.93921 l -0.008,0.0299 c -0.0192,0.007 -0.0366,0.0166 -0.0557,0.0236 -0.22468,0.0746 -0.44437,0.16256 -0.65777,0.26449 l -2.19395,-1.39123 c -0.0628,-0.0624 -0.14396,-0.0938 -0.22545,-0.0938 z"
       class="ColorScheme-Text"
       id="path10-7-6-7-3-8" />
  </g>
</svg>
