<?xml version="1.0" encoding="UTF-8" standalone="no"?>
<svg
   width="64"
   version="1.1"
   height="64"
   id="svg17"
   sodipodi:docname="folder-tar.svg"
   inkscape:version="1.3 (0e150ed6c4, 2023-07-21)"
   xmlns:inkscape="http://www.inkscape.org/namespaces/inkscape"
   xmlns:sodipodi="http://sodipodi.sourceforge.net/DTD/sodipodi-0.dtd"
   xmlns:xlink="http://www.w3.org/1999/xlink"
   xmlns="http://www.w3.org/2000/svg"
   xmlns:svg="http://www.w3.org/2000/svg"
   xmlns:rdf="http://www.w3.org/1999/02/22-rdf-syntax-ns#"
   xmlns:cc="http://creativecommons.org/ns#"
   xmlns:dc="http://purl.org/dc/elements/1.1/">
  <sodipodi:namedview
     pagecolor="#ffffff"
     bordercolor="#666666"
     borderopacity="1"
     objecttolerance="10"
     gridtolerance="10"
     guidetolerance="10"
     inkscape:pageopacity="0"
     inkscape:pageshadow="2"
     inkscape:window-width="1920"
     inkscape:window-height="994"
     id="namedview19"
     showgrid="true"
     inkscape:zoom="9.8125"
     inkscape:cx="30.77707"
     inkscape:cy="38.675159"
     inkscape:window-x="0"
     inkscape:window-y="0"
     inkscape:window-maximized="1"
     inkscape:current-layer="layer1"
     inkscape:document-rotation="0"
     inkscape:showpageshadow="2"
     inkscape:pagecheckerboard="0"
     inkscape:deskcolor="#d1d1d1">
    <inkscape:grid
       type="xygrid"
       id="grid874"
       originx="0"
       originy="0"
       spacingy="1"
       spacingx="1"
       units="px"
       visible="true" />
  </sodipodi:namedview>
  <defs
     id="defs5455">
    <clipPath
       clipPathUnits="userSpaceOnUse"
       id="clipPath79425-9-5-3">
      <rect
         style="opacity:0.5;fill:#000000;fill-opacity:1;stroke:none;stroke-width:0.855869;stroke-dasharray:none;stroke-opacity:1;paint-order:stroke fill markers"
         id="rect79427-1-9-6"
         width="26.417742"
         height="29.037542"
         x="-16.227774"
         y="-6.4845476" />
    </clipPath>
    <clipPath
       clipPathUnits="userSpaceOnUse"
       id="clipPath79425-9-5-5">
      <rect
         style="opacity:0.5;fill:#000000;fill-opacity:1;stroke:none;stroke-width:0.855869;stroke-dasharray:none;stroke-opacity:1;paint-order:stroke fill markers"
         id="rect79427-1-9-62"
         width="26.417742"
         height="29.037542"
         x="-16.227774"
         y="-6.4845476" />
    </clipPath>
    <linearGradient
       inkscape:collect="always"
       xlink:href="#linearGradient12"
       id="linearGradient17"
       x1="392.57144"
       y1="536.79797"
       x2="444.57144"
       y2="507.798"
       gradientUnits="userSpaceOnUse"
       gradientTransform="translate(0,-1.6e-4)" />
    <linearGradient
       id="linearGradient9"
       inkscape:collect="always">
      <stop
         style="stop-color:#3385ff;stop-opacity:1"
         offset="0"
         id="stop7" />
      <stop
         style="stop-color:#3aacbe;stop-opacity:1;"
         offset="0.48888862"
         id="stop8" />
      <stop
         style="stop-color:#b07bff;stop-opacity:1;"
         offset="1"
         id="stop9" />
    </linearGradient>
    <linearGradient
       inkscape:collect="always"
       xlink:href="#linearGradient12"
       id="linearGradient4"
       gradientUnits="userSpaceOnUse"
       gradientTransform="translate(0.9999473,4.023174)"
       x1="397.57144"
       y1="511.27505"
       x2="415.57144"
       y2="511.27505" />
    <linearGradient
       inkscape:collect="always"
       xlink:href="#linearGradient12"
       id="linearGradient5"
       gradientUnits="userSpaceOnUse"
       gradientTransform="translate(-3.97e-5,-1.49e-4)"
       x1="386.38025"
       y1="541.81329"
       x2="439.20044"
       y2="499.79816" />
    <linearGradient
       id="linearGradient12"
       inkscape:collect="always">
      <stop
         style="stop-color:#5398ff;stop-opacity:1;"
         offset="0"
         id="stop10" />
      <stop
         style="stop-color:#47b7c7;stop-opacity:1;"
         offset="0.48888862"
         id="stop11" />
      <stop
         style="stop-color:#00d4aa;stop-opacity:1"
         offset="1"
         id="stop12" />
    </linearGradient>
    <linearGradient
       inkscape:collect="always"
       xlink:href="#linearGradient12"
       id="linearGradient2"
       x1="18.08"
       y1="50"
       x2="81.93"
       y2="50"
       gradientUnits="userSpaceOnUse" />
    <linearGradient
       inkscape:collect="always"
       xlink:href="#linearGradient12"
       id="linearGradient3"
       x1="431.57077"
       y1="523.4093"
       x2="433.5127"
       y2="523.4093"
       gradientUnits="userSpaceOnUse"
       gradientTransform="translate(1.0564299,-0.03099665)" />
    <linearGradient
       inkscape:collect="always"
       xlink:href="#linearGradient12"
       id="linearGradient6"
       x1="431.3436"
       y1="529.01013"
       x2="434.89499"
       y2="529.01013"
       gradientUnits="userSpaceOnUse"
       gradientTransform="translate(1.0564299,-0.03099665)" />
    <linearGradient
       inkscape:collect="always"
       xlink:href="#linearGradient12"
       id="linearGradient7"
       x1="432.63461"
       y1="522.66797"
       x2="434.57687"
       y2="522.66797"
       gradientUnits="userSpaceOnUse"
       gradientTransform="translate(1.0564299,-0.03099665)" />
    <linearGradient
       inkscape:collect="always"
       xlink:href="#linearGradient12"
       id="linearGradient8"
       x1="431.57077"
       y1="521.92657"
       x2="433.5127"
       y2="521.92657"
       gradientUnits="userSpaceOnUse"
       gradientTransform="translate(1.0564299,-0.03099665)" />
    <linearGradient
       inkscape:collect="always"
       xlink:href="#linearGradient12"
       id="linearGradient10"
       x1="431.57077"
       y1="524.89203"
       x2="433.5127"
       y2="524.89203"
       gradientUnits="userSpaceOnUse"
       gradientTransform="translate(1.0564299,-0.03099665)" />
    <linearGradient
       inkscape:collect="always"
       xlink:href="#linearGradient12"
       id="linearGradient11"
       x1="432.63461"
       y1="524.1507"
       x2="434.57687"
       y2="524.1507"
       gradientUnits="userSpaceOnUse"
       gradientTransform="translate(1.0564299,-0.03099665)" />
    <linearGradient
       inkscape:collect="always"
       xlink:href="#linearGradient12"
       id="linearGradient13"
       x1="431.57077"
       y1="526.37469"
       x2="433.5127"
       y2="526.37469"
       gradientUnits="userSpaceOnUse"
       gradientTransform="translate(1.0564299,-0.03099665)" />
    <linearGradient
       inkscape:collect="always"
       xlink:href="#linearGradient12"
       id="linearGradient14"
       x1="432.63461"
       y1="525.6333"
       x2="434.57687"
       y2="525.6333"
       gradientUnits="userSpaceOnUse"
       gradientTransform="translate(1.0564299,-0.03099665)" />
    <linearGradient
       inkscape:collect="always"
       xlink:href="#linearGradient12"
       id="linearGradient15"
       x1="431.57077"
       y1="527.85736"
       x2="433.5127"
       y2="527.85736"
       gradientUnits="userSpaceOnUse"
       gradientTransform="translate(1.0564299,-0.03099665)" />
    <linearGradient
       inkscape:collect="always"
       xlink:href="#linearGradient12"
       id="linearGradient16"
       x1="432.63461"
       y1="527.11603"
       x2="434.57687"
       y2="527.11603"
       gradientUnits="userSpaceOnUse"
       gradientTransform="translate(1.0564299,-0.03099665)" />
    <linearGradient
       inkscape:collect="always"
       xlink:href="#linearGradient9"
       id="linearGradient18"
       gradientUnits="userSpaceOnUse"
       x1="18.08"
       y1="50"
       x2="81.93"
       y2="50" />
    <linearGradient
       inkscape:collect="always"
       xlink:href="#linearGradient9"
       id="linearGradient19"
       gradientUnits="userSpaceOnUse"
       x1="18.08"
       y1="50"
       x2="81.93"
       y2="50" />
    <linearGradient
       inkscape:collect="always"
       xlink:href="#linearGradient9"
       id="linearGradient20"
       gradientUnits="userSpaceOnUse"
       x1="18.08"
       y1="50"
       x2="81.93"
       y2="50" />
    <linearGradient
       inkscape:collect="always"
       xlink:href="#linearGradient9"
       id="linearGradient21"
       gradientUnits="userSpaceOnUse"
       x1="18.08"
       y1="50"
       x2="81.93"
       y2="50" />
    <linearGradient
       inkscape:collect="always"
       xlink:href="#linearGradient12"
       id="linearGradient22"
       gradientUnits="userSpaceOnUse"
       x1="18.08"
       y1="50"
       x2="81.93"
       y2="50" />
    <linearGradient
       inkscape:collect="always"
       xlink:href="#linearGradient9"
       id="linearGradient23"
       gradientUnits="userSpaceOnUse"
       x1="18.08"
       y1="50"
       x2="81.93"
       y2="50" />
    <linearGradient
       inkscape:collect="always"
       xlink:href="#linearGradient9"
       id="linearGradient25"
       gradientUnits="userSpaceOnUse"
       x1="18.08"
       y1="50"
       x2="81.93"
       y2="50" />
    <linearGradient
       inkscape:collect="always"
       xlink:href="#linearGradient12"
       id="linearGradient26"
       gradientUnits="userSpaceOnUse"
       x1="18.08"
       y1="50"
       x2="81.93"
       y2="50" />
    <linearGradient
       inkscape:collect="always"
       xlink:href="#linearGradient9"
       id="linearGradient27"
       gradientUnits="userSpaceOnUse"
       x1="18.08"
       y1="50"
       x2="81.93"
       y2="50" />
    <linearGradient
       inkscape:collect="always"
       xlink:href="#linearGradient9"
       id="linearGradient28"
       gradientUnits="userSpaceOnUse"
       x1="18.08"
       y1="50"
       x2="81.93"
       y2="50" />
    <linearGradient
       inkscape:collect="always"
       xlink:href="#linearGradient9"
       id="linearGradient29"
       gradientUnits="userSpaceOnUse"
       x1="18.08"
       y1="50"
       x2="81.93"
       y2="50" />
  </defs>
  <metadata
     id="metadata5458">
    <rdf:RDF>
      <cc:Work
         rdf:about="">
        <dc:format>image/svg+xml</dc:format>
        <dc:type
           rdf:resource="http://purl.org/dc/dcmitype/StillImage" />
      </cc:Work>
    </rdf:RDF>
  </metadata>
  <g
     inkscape:label="Capa 1"
     inkscape:groupmode="layer"
     id="layer1"
     transform="translate(-384.57143,-483.798)">
    <path
       inkscape:connector-curvature="0"
       id="fill-3"
       d="m 393.5714,509.19784 3e-5,26.355 c -0.0932,0.57145 -0.23037,0.90721 -0.644,1.24501 l 49.644,-1e-5 c 1.25773,0 2,-0.20551 2,-1.99362 v -25.50638 c 0,-0.66722 -0.33428,-1.5 -1.9,-1.5 h -47.10899 c -0.99101,0 -1.99101,0 -1.99104,1.4 z"
       style="color:#1e92ff;opacity:0.4;fill:url(#linearGradient17);fill-opacity:0.4;fill-rule:nonzero;stroke:none;stroke-width:8.11634"
       sodipodi:nodetypes="ccccccccc" />
    <rect
       x="398.57135"
       y="513.79822"
       width="18"
       height="3"
       ry="1.5"
       stroke-width="5.07132"
       style="opacity:0.8;fill:url(#linearGradient4);fill-opacity:1;paint-order:stroke markers fill"
       id="rect12-5-9-3-9-7-7-9"
       rx="1.5000117" />
    <path
       d="m 443.46966,505.807 -0.89826,-0.009 v -2.5759 c -0.002,-1.58874 -1,-3.4241 -3.371,-3.4241 h -21.84697 c -3.78203,0 -3.78203,-1 -5.08103,-2.46383 l -1.527,-2.91564 c -0.52262,-0.98802 -1.70328,-1.61594 -2.88973,-1.62053 h -18.28424 c -1.71234,0.002 -2.99827,1.41164 -3,3 l 10e-6,39.5 c 0,2.0466 1.46781,3.5 3.4,3.5 h 53.49825 c 1.71233,-0.002 3.1,-1.28887 3.10174,-2.87723 v -27.23662 c -0.002,-1.58827 -1.3895,-2.87535 -3.10174,-2.877 z m -54.89826,29.49085 v -38.5 c 7.7e-4,-0.82599 0,-2 2,-2 h 15.7 c 1,0 2.1,0 2.736,1.324 l 1.526,2.515 c 1.21959,2.31102 3.038,3.161 6.038,3.161 l 22.53,-2e-5 c 0.89087,4.4e-4 1.46876,0.69766 1.47,1.52402 v 2.48513 l -46,-0.009 c -2,0 -3,1 -3,3 v 26.49987 c -0.0453,1.95192 -2.95472,1.95192 -3,0 z m 56,-0.5 c 0,2 -1.10954,1.99931 -2,2 h -50 c 0,0 1,0.34375 1,-1.5 v -25.5 c 0,-1.38848 0,-2 2,-2 h 47 c 2,0 1.99923,1.17399 2,2 z"
       id="path6-5-2-5-1"
       style="fill:url(#linearGradient5)"
       sodipodi:nodetypes="cccccccccccccccccccccccccccccccccccccccc" />
    <g
       id="g36-5-3-8"
       transform="matrix(0.20939972,0,0,0.20939972,423.65868,513.32801)"
       style="fill:url(#linearGradient2)">
      <g
         id="g20-3-6-9"
         style="fill:url(#linearGradient21);fill-opacity:1">
        <g
           id="g6-8-5-2"
           style="fill:url(#linearGradient18);fill-opacity:1" />
        <g
           id="g12-8-6-6"
           style="fill:url(#linearGradient19);fill-opacity:1" />
        <g
           id="g18-3-3-6"
           style="fill:url(#linearGradient20);fill-opacity:1" />
      </g>
      <g
         id="g34-1-9-4"
         style="fill:url(#linearGradient29);fill-opacity:1">
        <g
           id="g26-8-4-9"
           style="fill:url(#linearGradient25);fill-opacity:1">
          <g
             id="g24-9-8-5"
             style="fill:url(#linearGradient23);fill-opacity:1">
            <path
               d="m 73.35,92.98 h -46.7 c -4.72,0 -8.57,-3.84 -8.57,-8.57 V 15.59 c 0,-4.72 3.84,-8.57 8.57,-8.57 h 26.49 c 2.29,0 4.52,0.94 6.12,2.57 l 20.22,20.64 c 1.58,1.61 2.45,3.74 2.45,5.99 v 48.19 c -0.01,4.72 -3.85,8.57 -8.58,8.57 z M 26.65,11.02 c -2.52,0 -4.57,2.05 -4.57,4.57 v 68.82 c 0,2.52 2.05,4.57 4.57,4.57 h 46.71 c 2.52,0 4.57,-2.05 4.57,-4.57 V 36.22 c 0,-1.2 -0.46,-2.34 -1.3,-3.2 L 56.4,12.39 c -0.85,-0.87 -2.04,-1.37 -3.26,-1.37 z"
               id="path22-6-1-0"
               style="fill:url(#linearGradient22);fill-opacity:1" />
          </g>
        </g>
        <g
           id="g32-4-2-4"
           style="fill:url(#linearGradient28);fill-opacity:1">
          <g
             id="g30-3-9-8"
             style="fill:url(#linearGradient27);fill-opacity:1">
            <path
               d="M 79.92,34.05 H 62.46 c -4.17,0 -7.57,-3.39 -7.57,-7.57 V 9.02 c 0,-0.55 0.45,-1 1,-1 0.55,0 1,0.45 1,1 v 17.46 c 0,3.07 2.5,5.57 5.57,5.57 h 17.46 c 0.55,0 1,0.45 1,1 0,0.55 -0.45,1 -1,1 z"
               id="path28-33-3-7"
               style="fill:url(#linearGradient26);fill-opacity:1" />
          </g>
        </g>
      </g>
    </g>
    <path
       d="m 434.26285,523.02719 c -0.11096,0 -0.20711,0.0623 -0.26116,0.15494 l -0.46849,-0.27548 h -0.90599 v 0.94331 h 0.90599 l 0.47644,-0.32281 c 0.0555,0.0853 0.14798,0.1404 0.25321,0.1404 0.16906,0 0.30627,-0.14337 0.30627,-0.31964 0,-0.17628 -0.13721,-0.32072 -0.30627,-0.32072 z"
       id="path10-3-8-9-1"
       style="fill:url(#linearGradient3);stroke-width:0.362595" />
    <rect
       x="432.40002"
       y="528.45789"
       width="3.5514002"
       height="1.042506"
       id="rect12-6-0-7"
       style="fill:url(#linearGradient6);stroke-width:0.362595" />
    <path
       d="m 433.99748,522.28585 c 0.11108,0 0.20719,0.0624 0.261,0.15495 l 0.46863,-0.27549 h 0.90618 v 0.94335 h -0.90618 l -0.47666,-0.3229 c -0.0549,0.0853 -0.14793,0.14046 -0.25328,0.14046 -0.1692,0 -0.30614,-0.14335 -0.30614,-0.31962 0,-0.17629 0.13725,-0.32075 0.30645,-0.32075 z"
       id="path20-0-8-2"
       style="fill:url(#linearGradient7);stroke-width:0.362595" />
    <path
       d="m 434.26285,521.54454 c -0.11096,0 -0.20711,0.0621 -0.26116,0.15494 l -0.46849,-0.27567 h -0.90599 v 0.94351 h 0.90599 l 0.47644,-0.32292 c 0.0555,0.0849 0.14798,0.14045 0.25321,0.14045 0.16906,0 0.30627,-0.14331 0.30627,-0.31994 0,-0.17648 -0.13721,-0.32037 -0.30627,-0.32037 z"
       id="path22-5-4-8-7"
       style="fill:url(#linearGradient8);stroke-width:0.362595" />
    <path
       d="m 434.26285,524.50995 c -0.11096,0 -0.20711,0.0618 -0.26116,0.15485 l -0.46849,-0.27544 h -0.90599 v 0.94329 h 0.90599 l 0.47644,-0.32284 c 0.0555,0.0851 0.14798,0.14044 0.25321,0.14044 0.16906,0 0.30627,-0.14338 0.30627,-0.31965 0,-0.17628 -0.13721,-0.32065 -0.30627,-0.32065 z"
       id="path26-8-5-2"
       style="fill:url(#linearGradient10);stroke-width:0.362595" />
    <path
       d="m 433.99748,523.76855 c 0.11108,0 0.20719,0.0624 0.261,0.15494 l 0.46863,-0.27548 h 0.90618 v 0.94335 h -0.90618 l -0.47666,-0.32292 c -0.0549,0.0854 -0.14793,0.14045 -0.25328,0.14045 -0.1692,0 -0.30614,-0.14332 -0.30614,-0.31965 0,-0.17629 0.13725,-0.32069 0.30645,-0.32069 z"
       id="path28-3-8-0-2"
       style="fill:url(#linearGradient11);stroke-width:0.362595" />
    <path
       d="m 434.26285,525.99257 c -0.11096,0 -0.20711,0.0621 -0.26116,0.15489 l -0.46849,-0.27543 h -0.90599 v 0.94328 h 0.90599 l 0.47644,-0.32288 c 0.0555,0.0854 0.14798,0.14046 0.25321,0.14046 0.16906,0 0.30627,-0.14336 0.30627,-0.31964 0,-0.17626 -0.13721,-0.32068 -0.30627,-0.32068 z"
       id="path30-8-9-6"
       style="fill:url(#linearGradient13);stroke-width:0.362595" />
    <path
       d="m 433.99748,525.25121 c 0.11108,0 0.20719,0.0621 0.261,0.15494 l 0.46863,-0.27548 h 0.90618 v 0.94332 h -0.90618 l -0.47666,-0.32287 c -0.0549,0.0853 -0.14793,0.14045 -0.25328,0.14045 -0.1692,0 -0.30614,-0.14334 -0.30614,-0.31962 0,-0.17633 0.13725,-0.32074 0.30645,-0.32074 z"
       id="path32-9-6-1"
       style="fill:url(#linearGradient14);stroke-width:0.362595" />
    <path
       d="m 434.26285,527.4752 c -0.11096,0 -0.20711,0.0621 -0.26116,0.15495 l -0.46849,-0.27548 h -0.90599 v 0.94334 h 0.90599 l 0.47644,-0.32291 c 0.0555,0.0851 0.14798,0.14048 0.25321,0.14048 0.16906,0 0.30627,-0.14336 0.30627,-0.31963 0,-0.17626 -0.13721,-0.32074 -0.30627,-0.32075 z"
       id="path34-7-3-0"
       style="fill:url(#linearGradient15);stroke-width:0.362595" />
    <path
       d="m 433.99748,526.7339 c 0.11108,0 0.20719,0.0622 0.261,0.15493 l 0.46863,-0.27545 h 0.90618 v 0.94332 h -0.90618 l -0.47666,-0.32291 c -0.0549,0.0854 -0.14793,0.14042 -0.25328,0.14042 -0.1692,0 -0.30614,-0.1433 -0.30614,-0.31959 0,-0.17633 0.13725,-0.32072 0.30645,-0.32072 z"
       id="path36-7-8-6"
       style="fill:url(#linearGradient16);stroke-width:0.362595" />
  </g>
</svg>
