<?xml version="1.0" encoding="UTF-8" standalone="no"?>
<svg
   width="64"
   version="1.1"
   height="64"
   id="svg15"
   sodipodi:docname="folder-Reddit.svg"
   inkscape:version="1.3 (0e150ed6c4, 2023-07-21)"
   xmlns:inkscape="http://www.inkscape.org/namespaces/inkscape"
   xmlns:sodipodi="http://sodipodi.sourceforge.net/DTD/sodipodi-0.dtd"
   xmlns:xlink="http://www.w3.org/1999/xlink"
   xmlns="http://www.w3.org/2000/svg"
   xmlns:svg="http://www.w3.org/2000/svg"
   xmlns:rdf="http://www.w3.org/1999/02/22-rdf-syntax-ns#"
   xmlns:cc="http://creativecommons.org/ns#"
   xmlns:dc="http://purl.org/dc/elements/1.1/">
  <sodipodi:namedview
     pagecolor="#ffffff"
     bordercolor="#666666"
     borderopacity="1"
     objecttolerance="10"
     gridtolerance="10"
     guidetolerance="10"
     inkscape:pageopacity="0"
     inkscape:pageshadow="2"
     inkscape:window-width="1920"
     inkscape:window-height="994"
     id="namedview17"
     showgrid="true"
     inkscape:zoom="9.8125"
     inkscape:cx="20.433121"
     inkscape:cy="34.700637"
     inkscape:window-x="0"
     inkscape:window-y="0"
     inkscape:window-maximized="1"
     inkscape:current-layer="layer1"
     inkscape:document-rotation="0"
     inkscape:showpageshadow="2"
     inkscape:pagecheckerboard="0"
     inkscape:deskcolor="#d1d1d1">
    <inkscape:grid
       type="xygrid"
       id="grid919"
       originx="0"
       originy="0"
       spacingy="1"
       spacingx="1"
       units="px"
       visible="true" />
  </sodipodi:namedview>
  <defs
     id="defs5455">
    <linearGradient
       inkscape:collect="always"
       id="linearGradient3">
      <stop
         style="stop-color:#ff4444;stop-opacity:1;"
         offset="0"
         id="stop2" />
      <stop
         style="stop-color:#ffaaaa;stop-opacity:1"
         offset="0.50641394"
         id="stop4" />
      <stop
         style="stop-color:#ff70ff;stop-opacity:1;"
         offset="1"
         id="stop3" />
    </linearGradient>
    <linearGradient
       inkscape:collect="always"
       xlink:href="#linearGradient2303"
       id="linearGradient1419"
       x1="0.52915627"
       y1="5.0269842"
       x2="16.403845"
       y2="5.0269842"
       gradientUnits="userSpaceOnUse"
       gradientTransform="matrix(3.779602,0,0,3.8662747,342.56235,368.07833)" />
    <clipPath
       clipPathUnits="userSpaceOnUse"
       id="clipPath79425-9-5-3">
      <rect
         style="opacity:0.5;fill:#000000;fill-opacity:1;stroke:none;stroke-width:0.855869;stroke-dasharray:none;stroke-opacity:1;paint-order:stroke fill markers"
         id="rect79427-1-9-6"
         width="26.417742"
         height="29.037542"
         x="-16.227774"
         y="-6.4845476" />
    </clipPath>
    <filter
       inkscape:collect="always"
       style="color-interpolation-filters:sRGB"
       id="filter77953-2-4-7"
       x="-0.040508607"
       y="-0.067265661"
       width="1.0810172"
       height="1.1345313">
      <feGaussianBlur
         inkscape:collect="always"
         stdDeviation="0.44602907"
         id="feGaussianBlur77955-7-9-5" />
    </filter>
    <clipPath
       clipPathUnits="userSpaceOnUse"
       id="clipPath79425-9-5-5">
      <rect
         style="opacity:0.5;fill:#000000;fill-opacity:1;stroke:none;stroke-width:0.855869;stroke-dasharray:none;stroke-opacity:1;paint-order:stroke fill markers"
         id="rect79427-1-9-62"
         width="26.417742"
         height="29.037542"
         x="-16.227774"
         y="-6.4845476" />
    </clipPath>
    <filter
       inkscape:collect="always"
       style="color-interpolation-filters:sRGB"
       id="filter77953-2-4-9"
       x="-0.040520865"
       y="-0.064907304"
       width="1.0810417"
       height="1.1298146">
      <feGaussianBlur
         inkscape:collect="always"
         stdDeviation="0.44602907"
         id="feGaussianBlur77955-7-9-1" />
    </filter>
    <linearGradient
       inkscape:collect="always"
       xlink:href="#linearGradient2303"
       id="linearGradient1662"
       gradientUnits="userSpaceOnUse"
       gradientTransform="matrix(3.7757185,0,0,3.9032702,342.56747,367.47155)"
       x1="9.3259869"
       y1="14.831515"
       x2="9.3259869"
       y2="4.269978" />
    <linearGradient
       inkscape:collect="always"
       id="linearGradient2303">
      <stop
         style="stop-color:#ff8080;stop-opacity:1"
         offset="0"
         id="stop2299" />
      <stop
         style="stop-color:#ff70ff;stop-opacity:1;"
         offset="1"
         id="stop2301" />
    </linearGradient>
    <linearGradient
       inkscape:collect="always"
       xlink:href="#linearGradient3"
       id="linearGradient17"
       x1="392.57144"
       y1="536.79797"
       x2="444.57144"
       y2="507.798"
       gradientUnits="userSpaceOnUse"
       gradientTransform="translate(-5e-6,-1.6e-4)" />
    <linearGradient
       inkscape:collect="always"
       xlink:href="#linearGradient3"
       id="linearGradient4"
       gradientUnits="userSpaceOnUse"
       gradientTransform="translate(0.999942,4.023174)"
       x1="397.57144"
       y1="511.27505"
       x2="415.57144"
       y2="511.27505" />
    <linearGradient
       inkscape:collect="always"
       xlink:href="#linearGradient3"
       id="linearGradient5"
       gradientUnits="userSpaceOnUse"
       gradientTransform="translate(-4.5e-5,-1.49e-4)"
       x1="387.57144"
       y1="537.79797"
       x2="445.57144"
       y2="492.798" />
    <linearGradient
       inkscape:collect="always"
       xlink:href="#linearGradient3"
       id="linearGradient2"
       x1="417.78207"
       y1="520.5401"
       x2="437.58298"
       y2="520.5401"
       gradientUnits="userSpaceOnUse"
       gradientTransform="translate(3.018025,3.35793)" />
  </defs>
  <metadata
     id="metadata5458">
    <rdf:RDF>
      <cc:Work
         rdf:about="">
        <dc:format>image/svg+xml</dc:format>
        <dc:type
           rdf:resource="http://purl.org/dc/dcmitype/StillImage" />
      </cc:Work>
    </rdf:RDF>
  </metadata>
  <g
     inkscape:label="Capa 1"
     inkscape:groupmode="layer"
     id="layer1"
     transform="translate(-384.57143,-483.798)">
    <path
       id="path32082-9"
       style="fill:url(#linearGradient1419);fill-opacity:1;stroke:none;stroke-width:5.11694;stroke-linecap:round;stroke-linejoin:round;stroke-opacity:0.03"
       d="m 351.56235,381.37644 c -4,0 -7,3.06879 -7,7.16052 v 5.11466 c 0,0 2,-5.11466 5,-5.11466 h 8 12 6 24 c 3,0 5,2.04586 5,5.11466 v 0 0 -5.11466 c 0,-4.09173 -3,-7.16052 -7,-7.16052 h -24.07114 -5.92886 -9 z"
       sodipodi:nodetypes="sccsccccccccccccs" />
    <rect
       x="368.56229"
       y="382.39938"
       width="12"
       height="2.0458624"
       ry="1.0248643"
       stroke-width="3.41941"
       style="fill:#222638;fill-opacity:1;paint-order:stroke markers fill"
       id="rect12-5-9-3-9"
       rx="1.0248643" />
    <path
       d="m 376.29567,385.46817 h -3.46666 -4.33334 -16.93333 c -2,0 -3,1.02292 -3,3.06879 v 0 0 h 52 v 0 0 c 0,-2.04587 -1,-3.06879 -3,-3.06879 z"
       style="fill:#222638;fill-opacity:1;stroke-width:2.33915;paint-order:markers stroke fill"
       id="path8-7-2-9-6-1-7-5"
       sodipodi:nodetypes="cccccccccccc"
       opacity="0.6" />
    <path
       style="display:inline;fill:#ffffff;fill-opacity:1;stroke:none;stroke-width:2.77827;stroke-linecap:round;stroke-linejoin:round;stroke-opacity:0.03;filter:url(#filter77953-2-4-7)"
       d="m -14.025629,3.0793846 h 6.1660045 4.8447182 3.08300239 7.92771991 c 1.3212868,0 2.202145,0.9435823 2.202145,2.3589558 l -0.0082,11.1961006 c 0.0082,1.415373 -1.496833,2.225381 -2.6343739,2.232069 L -14.02563,18.993397 c -1.321286,0.0078 -2.202145,-0.943583 -2.202145,-2.358956 l 1e-6,-11.3229881 c -1e-6,-1.288486 0.882451,-2.2155179 2.202145,-2.2320683 z"
       id="path1611-1-8-0-7-3"
       clip-path="url(#clipPath79425-9-5-3)"
       transform="matrix(2.270514,0,0,2.1681872,381.40773,381.86028)"
       sodipodi:nodetypes="cccccccssccc" />
    <path
       style="display:inline;fill:#4f4f4f;fill-opacity:1;stroke:none;stroke-width:2.77827;stroke-linecap:round;stroke-linejoin:round;stroke-opacity:0.03;filter:url(#filter77953-2-4-9)"
       d="m -14.026297,2.5011118 6.1666725,0.1211316 H -3.014907 0.06809547 L 7.9884881,2.5011118 C 9.3097749,2.5157128 10.189967,3.444358 10.189967,4.874457 l -2.06e-4,11.759984 c 0.0082,1.415373 -0.872618,2.358956 -2.6343739,2.358956 H -14.02563 c -1.321306,0 -2.202145,-0.943583 -2.202145,-2.358956 V 4.874457 c 0,-1.4240071 0.880591,-2.3733452 2.201478,-2.3733452 z"
       id="path1611-1-8-0-7-2"
       clip-path="url(#clipPath79425-9-5-5)"
       transform="matrix(2.271201,0,0,2.155042,381.41889,383.14696)"
       sodipodi:nodetypes="cccccccssccc" />
    <path
       d="m 376.56235,388.53696 h -4 -5 -18 c -3,0 -5,2.04587 -5,5.11466 v 26.59622 c 0,3.06876 2,5.11463 5,5.11463 h 49.99998 c 3,0 5,-2.04587 5,-5.11463 v -26.59622 c 0,-3.06879 -2,-5.11466 -5,-5.11466 z"
       style="fill:url(#linearGradient1662);fill-opacity:1;stroke-width:3.83803;paint-order:markers stroke fill"
       id="path8-7-2-9-6-1-9"
       sodipodi:nodetypes="ccccsssssscc"
       opacity="0.6" />
    <path
       d="m 344.56235,406.32644 17.1,19 h -1e-5 0.65001 l -17.75,-19.65 v 0 0 z"
       id="path2653-4"
       style="fill:#bac8df;fill-opacity:1;stroke-width:0.48092"
       sodipodi:nodetypes="cccccccc" />
    <path
       d="m 344.56235,412.37638 11.48548,12.98879 -10e-6,0.0113 0.64953,-0.006 v 0.006 L 344.56749,411.7264 v 0 0 z"
       id="path2653-4-3"
       style="fill:#bac8df;fill-opacity:1;stroke-width:0.330034"
       sodipodi:nodetypes="ccccccccc" />
    <path
       d="m 392.99047,399.06284 c 0.41755,-0.70985 1.18913,-1.1864 2.07232,-1.1864 1.32531,0 2.40183,1.07657 2.40183,2.40183 0,1.32618 -1.07652,2.40274 -2.40183,2.40274 -1.19272,0 -2.18302,-0.87056 -2.37094,-2.01059 l -2.25475,-0.50017 -0.72983,2.30924 c 1.56579,0.14701 3.01455,0.62997 4.26083,1.3534 0.41028,-0.22062 0.87051,-0.33227 1.38336,-0.33227 1.64479,0 3.01179,1.40789 3.01179,3.177 0,0.9123 -0.36398,1.74739 -0.90767,2.36554 v 0.15703 c 0,1.87444 -1.00852,3.58364 -2.84754,4.90169 -1.63937,1.14548 -3.84965,1.77456 -6.14524,1.77456 -2.29562,0 -4.5059,-0.62908 -6.15341,-1.78001 -1.83088,-1.3126 -2.83932,-3.0218 -2.83932,-4.89624 v -0.20965 c -0.53918,-0.56466 -0.90772,-1.39793 -0.90772,-2.31292 0,-1.76911 1.36705,-3.177 3.01184,-3.177 0.50645,0 0.96305,0.10983 1.36974,0.325 1.41511,-0.8478 3.23415,-1.29623 5.0614,-1.38063 l 1.09919,-3.48021 c 0.12714,-0.40389 0.54192,-0.64354 0.95583,-0.55187 z m -4.34523,5.0133 c -0.0272,0.002 -0.0545,0.002 -0.0824,0 h -0.45833 c -1.72378,0.0765 -3.45119,0.50381 -4.692,1.39335 -0.30592,0.21968 -0.72254,0.20151 -1.00849,-0.0447 -0.22966,-0.19788 -0.5074,-0.29042 -0.82964,-0.29042 -0.77703,0 -1.37795,0.70709 -1.37795,1.54309 0,0.541 0.23602,1.03481 0.58822,1.30528 0.20152,0.15434 0.31954,0.39396 0.31954,0.64725 v 0.56999 c 0,1.38064 0.80879,2.60156 2.14945,3.56189 1.38791,0.97034 3.26596,1.48052 5.2094,1.48052 1.94341,0 3.82149,-0.51018 5.20118,-1.47412 1.34888,-0.96673 2.15763,-2.18765 2.15763,-3.56829 v -0.48836 c 0,-0.22781 0.0951,-0.44567 0.26324,-0.60088 0.37398,-0.34404 0.64448,-0.85957 0.64448,-1.43328 0,-0.836 -0.60088,-1.54309 -1.37787,-1.54309 -0.32225,0 -0.60001,0.0928 -0.82966,0.29042 -0.27688,0.23783 -0.67717,0.26322 -0.98124,0.0635 -1.24268,-0.81691 -2.76128,-1.33521 -4.41787,-1.41234 z m 0.0652,6.67807 c 0.98671,-0.0227 1.72105,-0.21423 2.17398,-0.66719 0.31956,-0.31861 0.83692,-0.31861 1.15553,0 0.31861,0.31861 0.31861,0.83604 0,1.15551 -0.72795,0.72707 -1.89255,1.14738 -3.53007,1.14738 l -0.15158,-9.5e-4 c -1.55768,-0.0254 -2.67324,-0.44203 -3.37764,-1.14643 -0.31947,-0.31947 -0.31947,-0.8369 0,-1.15551 0.31861,-0.31861 0.83604,-0.31861 1.15465,0 0.48377,0.48385 1.2862,0.669 2.37457,0.669 z m 2.47537,-4.33165 c 0.45112,0 0.81692,0.36585 0.81692,0.81696 0,0.45115 -0.3658,0.81692 -0.81692,0.81692 -0.45112,0 -0.81692,-0.36577 -0.81692,-0.81692 0,-0.45111 0.3658,-0.81696 0.81692,-0.81696 z m -5.44628,0 c 0.45111,0 0.81696,0.36585 0.81696,0.81696 0,0.45115 -0.36585,0.81692 -0.81696,0.81692 -0.45116,0 -0.81695,-0.36577 -0.81695,-0.81692 0,-0.45111 0.36579,-0.81696 0.81695,-0.81696 z m 9.32311,-6.91223 c 0.42393,0 0.76796,0.34399 0.76796,0.76794 0,0.42481 -0.34403,0.76886 -0.76796,0.76886 -0.42481,0 -0.76882,-0.34405 -0.76882,-0.76886 0,-0.42395 0.34401,-0.76794 0.76882,-0.76794 z"
       id="path259"
       style="fill:#d8f0f3;fill-opacity:1;stroke-width:0.907713" />
    <path
       inkscape:connector-curvature="0"
       id="fill-3"
       d="m 393.5714,509.19784 3e-5,26.355 c -0.0932,0.57145 -0.23037,0.90721 -0.644,1.24501 l 49.64399,-1e-5 c 1.25773,0 2,-0.20551 2,-1.99362 v -25.50638 c 0,-0.66722 -0.33428,-1.5 -1.9,-1.5 h -47.10899 c -0.99101,0 -1.99101,0 -1.99103,1.4 z"
       style="color:#1e92ff;opacity:0.4;fill:url(#linearGradient17);fill-opacity:0.4;fill-rule:nonzero;stroke:none;stroke-width:8.11634"
       sodipodi:nodetypes="ccccccccc" />
    <rect
       x="398.57141"
       y="513.7981"
       width="18"
       height="3"
       ry="1.5"
       stroke-width="5.07132"
       style="opacity:0.8;fill:url(#linearGradient4);fill-opacity:1;paint-order:stroke markers fill"
       id="rect12-5-9-3-9-7-7-9"
       rx="1.5000117" />
    <path
       d="m 443.46966,505.807 -0.89826,-0.009 v -2.5759 c -0.002,-1.58874 -1,-3.4241 -3.371,-3.4241 h -21.84697 c -3.78203,0 -3.78203,-1 -5.08103,-2.46383 l -1.527,-2.91564 c -0.52262,-0.98802 -1.70328,-1.61594 -2.88973,-1.62053 h -18.28424 c -1.71234,0.002 -2.99827,1.41164 -3,3 l 10e-6,39.5 c 0,2.0466 1.46781,3.5 3.4,3.5 h 53.49825 c 1.71233,-0.002 3.1,-1.28887 3.10174,-2.87723 v -27.23662 c -0.002,-1.58827 -1.3895,-2.87535 -3.10174,-2.877 z m -54.89826,29.49085 v -38.5 c 7.7e-4,-0.82599 0,-2 2,-2 h 15.7 c 1,0 2.1,0 2.736,1.324 l 1.526,2.515 c 1.21959,2.31102 3.038,3.161 6.038,3.161 l 22.53,-2e-5 c 0.89086,4.4e-4 1.46875,0.69766 1.47,1.52402 v 2.48513 l -46,-0.009 c -2,0 -3,1 -3,3 v 26.49987 c -0.0453,1.95192 -2.95472,1.95192 -3,0 z m 56,-0.5 c 0,2 -1.10955,1.99931 -2,2 h -50 c 0,0 1,0.34375 1,-1.5 v -25.5 c 0,-1.38848 0,-2 2,-2 h 47 c 2,0 1.99923,1.17399 2,2 z"
       id="path6-5-2-5-1"
       style="opacity:0.7;fill:url(#linearGradient5)"
       sodipodi:nodetypes="cccccccccccccccccccccccccccccccccccccccc" />
    <path
       d="m 435.22822,516.0844 c 0.41756,-0.70985 1.18913,-1.1864 2.07232,-1.1864 1.32531,0 2.40184,1.07657 2.40184,2.40183 0,1.32618 -1.07653,2.40274 -2.40184,2.40274 -1.19272,0 -2.18302,-0.87056 -2.37094,-2.01059 l -2.25475,-0.50017 -0.72983,2.30924 c 1.56579,0.14701 3.01455,0.62997 4.26083,1.3534 0.41028,-0.22062 0.87051,-0.33227 1.38336,-0.33227 1.64479,0 3.01179,1.40789 3.01179,3.177 0,0.9123 -0.36398,1.74739 -0.90767,2.36554 v 0.15703 c 0,1.87444 -1.00851,3.58364 -2.84754,4.90169 -1.63936,1.14548 -3.84964,1.77456 -6.14524,1.77456 -2.29561,0 -4.5059,-0.62908 -6.15341,-1.78001 -1.83087,-1.3126 -2.83931,-3.0218 -2.83931,-4.89624 v -0.20965 c -0.53918,-0.56466 -0.90772,-1.39793 -0.90772,-2.31292 0,-1.76911 1.36705,-3.177 3.01184,-3.177 0.50644,0 0.96305,0.10983 1.36974,0.325 1.41511,-0.8478 3.23415,-1.29623 5.06139,-1.38063 l 1.0992,-3.48021 c 0.12714,-0.40389 0.54192,-0.64354 0.95583,-0.55187 z m -4.34523,5.0133 c -0.0272,0.002 -0.0545,0.002 -0.0824,0 h -0.45833 c -1.72377,0.0765 -3.45119,0.50381 -4.692,1.39335 -0.30592,0.21968 -0.72254,0.20151 -1.00849,-0.0447 -0.22966,-0.19788 -0.5074,-0.29042 -0.82964,-0.29042 -0.77703,0 -1.37794,0.70709 -1.37794,1.54309 0,0.541 0.23601,1.03481 0.58821,1.30528 0.20152,0.15434 0.31954,0.39396 0.31954,0.64725 v 0.56999 c 0,1.38064 0.80879,2.60156 2.14945,3.56189 1.38791,0.97034 3.26597,1.48052 5.20941,1.48052 1.9434,0 3.82148,-0.51018 5.20118,-1.47412 1.34888,-0.96673 2.15763,-2.18765 2.15763,-3.56829 v -0.48836 c 0,-0.22781 0.0951,-0.44567 0.26324,-0.60088 0.37398,-0.34404 0.64448,-0.85957 0.64448,-1.43328 0,-0.836 -0.60089,-1.54309 -1.37787,-1.54309 -0.32225,0 -0.60001,0.0928 -0.82966,0.29042 -0.27688,0.23783 -0.67717,0.26322 -0.98124,0.0635 -1.24268,-0.81691 -2.76128,-1.33521 -4.41787,-1.41234 z m 0.0652,6.67807 c 0.98672,-0.0227 1.72105,-0.21423 2.17398,-0.66719 0.31956,-0.31861 0.83692,-0.31861 1.15553,0 0.31861,0.31861 0.31861,0.83604 0,1.15551 -0.72795,0.72707 -1.89255,1.14738 -3.53007,1.14738 l -0.15158,-9.5e-4 c -1.55768,-0.0254 -2.67324,-0.44203 -3.37764,-1.14643 -0.31947,-0.31947 -0.31947,-0.8369 0,-1.15551 0.31861,-0.31861 0.83604,-0.31861 1.15465,0 0.48377,0.48385 1.2862,0.669 2.37457,0.669 z m 2.47537,-4.33165 c 0.45112,0 0.81692,0.36585 0.81692,0.81696 0,0.45115 -0.3658,0.81692 -0.81692,0.81692 -0.45112,0 -0.81691,-0.36577 -0.81691,-0.81692 0,-0.45111 0.36579,-0.81696 0.81691,-0.81696 z m -5.44628,0 c 0.45112,0 0.81696,0.36585 0.81696,0.81696 0,0.45115 -0.36585,0.81692 -0.81696,0.81692 -0.45116,0 -0.81695,-0.36577 -0.81695,-0.81692 0,-0.45111 0.36579,-0.81696 0.81695,-0.81696 z m 9.32311,-6.91223 c 0.42393,0 0.76796,0.34399 0.76796,0.76794 0,0.42481 -0.34402,0.76886 -0.76796,0.76886 -0.42481,0 -0.76882,-0.34405 -0.76882,-0.76886 0,-0.42395 0.34401,-0.76794 0.76882,-0.76794 z"
       id="path259-4"
       style="fill:url(#linearGradient2);stroke-width:0.907713" />
  </g>
</svg>
