<?xml version="1.0" encoding="UTF-8" standalone="no"?>
<svg
   width="64"
   version="1.1"
   height="64"
   id="svg2"
   inkscape:version="1.3 (0e150ed6c4, 2023-07-21)"
   sodipodi:docname="folder-build.svg"
   xmlns:inkscape="http://www.inkscape.org/namespaces/inkscape"
   xmlns:sodipodi="http://sodipodi.sourceforge.net/DTD/sodipodi-0.dtd"
   xmlns:xlink="http://www.w3.org/1999/xlink"
   xmlns="http://www.w3.org/2000/svg"
   xmlns:svg="http://www.w3.org/2000/svg"
   xmlns:rdf="http://www.w3.org/1999/02/22-rdf-syntax-ns#"
   xmlns:cc="http://creativecommons.org/ns#"
   xmlns:dc="http://purl.org/dc/elements/1.1/">
  <sodipodi:namedview
     pagecolor="#ffffff"
     bordercolor="#666666"
     borderopacity="1"
     objecttolerance="10"
     gridtolerance="10"
     guidetolerance="10"
     inkscape:pageopacity="0"
     inkscape:pageshadow="2"
     inkscape:window-width="1920"
     inkscape:window-height="994"
     id="namedview45"
     showgrid="true"
     inkscape:zoom="10.429825"
     inkscape:cx="29.530697"
     inkscape:cy="48.658535"
     inkscape:window-x="0"
     inkscape:window-y="0"
     inkscape:window-maximized="1"
     inkscape:current-layer="layer1"
     inkscape:document-rotation="0"
     inkscape:showpageshadow="2"
     inkscape:pagecheckerboard="0"
     inkscape:deskcolor="#d1d1d1">
    <inkscape:grid
       type="xygrid"
       id="grid921"
       originx="0"
       originy="0"
       spacingy="1"
       spacingx="1"
       units="px"
       visible="true" />
  </sodipodi:namedview>
  <defs
     id="defs5455">
    <clipPath
       clipPathUnits="userSpaceOnUse"
       id="clipPath79425-9-5-3">
      <rect
         style="opacity:0.5;fill:#000000;fill-opacity:1;stroke:none;stroke-width:0.855869;stroke-dasharray:none;stroke-opacity:1;paint-order:stroke fill markers"
         id="rect79427-1-9-6"
         width="26.417742"
         height="29.037542"
         x="-16.227774"
         y="-6.4845476" />
    </clipPath>
    <clipPath
       clipPathUnits="userSpaceOnUse"
       id="clipPath79425-9-5-5">
      <rect
         style="opacity:0.5;fill:#000000;fill-opacity:1;stroke:none;stroke-width:0.855869;stroke-dasharray:none;stroke-opacity:1;paint-order:stroke fill markers"
         id="rect79427-1-9-62"
         width="26.417742"
         height="29.037542"
         x="-16.227774"
         y="-6.4845476" />
    </clipPath>
    <linearGradient
       inkscape:collect="always"
       xlink:href="#linearGradient12"
       id="linearGradient17"
       x1="392.57144"
       y1="536.79797"
       x2="444.57144"
       y2="507.798"
       gradientUnits="userSpaceOnUse"
       gradientTransform="translate(5e-6,-1.6e-4)" />
    <linearGradient
       inkscape:collect="always"
       xlink:href="#linearGradient12"
       id="linearGradient4"
       gradientUnits="userSpaceOnUse"
       gradientTransform="translate(0.9999523,4.023174)"
       x1="397.57144"
       y1="511.27505"
       x2="415.57144"
       y2="511.27505" />
    <linearGradient
       inkscape:collect="always"
       xlink:href="#linearGradient12"
       id="linearGradient5"
       gradientUnits="userSpaceOnUse"
       gradientTransform="translate(-3.5e-5,-1.49e-4)"
       x1="386.38025"
       y1="541.81329"
       x2="439.20044"
       y2="499.79816" />
    <linearGradient
       id="linearGradient12"
       inkscape:collect="always">
      <stop
         style="stop-color:#ffb380;stop-opacity:1"
         offset="0"
         id="stop10" />
      <stop
         style="stop-color:#ff8080;stop-opacity:1"
         offset="0.48888862"
         id="stop11" />
      <stop
         style="stop-color:#ffd42a;stop-opacity:1"
         offset="1"
         id="stop12" />
    </linearGradient>
    <linearGradient
       inkscape:collect="always"
       xlink:href="#linearGradient12"
       id="linearGradient2"
       x1="395.57144"
       y1="543.79797"
       x2="415.96866"
       y2="543.79797"
       gradientUnits="userSpaceOnUse"
       gradientTransform="translate(24.649,-20)" />
  </defs>
  <metadata
     id="metadata5458">
    <rdf:RDF>
      <cc:Work
         rdf:about="">
        <dc:format>image/svg+xml</dc:format>
        <dc:type
           rdf:resource="http://purl.org/dc/dcmitype/StillImage" />
      </cc:Work>
    </rdf:RDF>
  </metadata>
  <g
     inkscape:label="Capa 1"
     inkscape:groupmode="layer"
     id="layer1"
     transform="translate(-384.57143,-483.798)">
    <path
       inkscape:connector-curvature="0"
       id="fill-3"
       d="m 393.5714,509.19784 3e-5,26.355 c -0.0932,0.57145 -0.23037,0.90721 -0.644,1.24501 l 49.644,-1e-5 c 1.25773,0 2,-0.20551 2,-1.99362 v -25.50638 c 0,-0.66722 -0.33428,-1.5 -1.9,-1.5 h -47.10899 c -0.99101,0 -1.99101,0 -1.99104,1.4 z"
       style="color:#1e92ff;opacity:0.4;fill:url(#linearGradient17);fill-opacity:0.4;fill-rule:nonzero;stroke:none;stroke-width:8.11634"
       sodipodi:nodetypes="ccccccccc" />
    <rect
       x="398.57135"
       y="513.79785"
       width="18"
       height="3"
       ry="1.5"
       stroke-width="5.07132"
       style="opacity:0.8;fill:url(#linearGradient4);fill-opacity:1;paint-order:stroke markers fill"
       id="rect12-5-9-3-9-7-7-9"
       rx="1.5000117" />
    <path
       d="m 443.46966,505.807 -0.89826,-0.009 v -2.5759 c -0.002,-1.58874 -1,-3.4241 -3.371,-3.4241 h -21.84697 c -3.78203,0 -3.78203,-1 -5.08103,-2.46383 l -1.527,-2.91564 c -0.52262,-0.98802 -1.70328,-1.61594 -2.88972,-1.62053 h -18.28425 c -1.71233,0.002 -2.99826,1.41164 -3,3 l 10e-6,39.5 c 0,2.0466 1.46781,3.5 3.4,3.5 h 53.49825 c 1.71233,-0.002 3.1,-1.28887 3.10174,-2.87723 v -27.23662 c -0.002,-1.58827 -1.3895,-2.87535 -3.10174,-2.877 z m -54.89826,29.49085 v -38.5 c 7.7e-4,-0.82599 0,-2 2,-2 h 15.7 c 1,0 2.1,0 2.736,1.324 l 1.526,2.515 c 1.21959,2.31102 3.038,3.161 6.038,3.161 l 22.53,-2e-5 c 0.89087,4.4e-4 1.46876,0.69766 1.47001,1.52402 v 2.48513 l -46,-0.009 c -2,0 -3,1 -3,3 v 26.49987 c -0.0453,1.95192 -2.95472,1.95192 -3.00001,0 z m 56,-0.5 c 0,2 -1.10954,1.99931 -2,2 h -50 c 0,0 1,0.34375 1,-1.5 v -25.5 c 0,-1.38848 0,-2 2,-2 h 47 c 2,0 1.99923,1.17399 2,2 z"
       id="path6-5-2-5-1"
       style="fill:url(#linearGradient5)"
       sodipodi:nodetypes="cccccccccccccccccccccccccccccccccccccccc" />
    <path
       style="color:#232629;fill:url(#linearGradient2);stroke:none;stroke-width:0.781282"
       d="m 436.46862,514.798 -0.24263,0.82857 c -0.49692,-0.0412 -0.99748,0.0137 -1.47405,0.16023 l -0.41358,-0.75687 -1.37179,0.74928 0.41352,0.75685 c -0.382,0.32186 -0.69796,0.71297 -0.93234,1.15368 l -0.82555,-0.24118 -0.43946,1.49849 0.82861,0.24262 c -0.0412,0.49687 0.0118,0.999 0.1587,1.47558 l -0.75689,0.41351 0.74931,1.37183 0.75677,-0.41506 c 0.32193,0.38208 0.71449,0.6995 1.15518,0.9339 l -0.24268,0.8255 1.50003,0.43948 0.24264,-0.82856 c 0.49691,0.0412 0.99747,-0.0137 1.47402,-0.16023 l 0.41512,0.75688 1.37028,-0.74926 -0.41353,-0.75688 c 0.38201,-0.32185 0.69796,-0.71296 0.93236,-1.15361 l 0.82552,0.24108 0.43947,-1.49845 -0.8285,-0.24262 c 0.0412,-0.49687 -0.0119,-0.99901 -0.15881,-1.47559 l 0.7569,-0.41351 -0.74925,-1.37183 -0.75685,0.41508 c -0.32194,-0.38208 -0.71449,-0.69952 -1.15518,-0.9339 l 0.24266,-0.82554 z m -0.77213,1.60068 c 0.15504,-0.0108 0.31147,-0.0108 0.46691,0.006 0.20721,0.0173 0.41394,0.0554 0.61654,0.1144 0.77963,0.22887 1.44019,0.75247 1.84026,1.46036 0.41564,0.7344 0.51672,1.60686 0.2792,2.41703 -0.22887,0.77977 -0.75246,1.44032 -1.46032,1.84036 -0.7344,0.41564 -1.60689,0.51675 -2.41705,0.27923 -0.77976,-0.22891 -1.4418,-0.75246 -1.84186,-1.46032 -0.41561,-0.73441 -0.51671,-1.60691 -0.2792,-2.41707 0.22888,-0.77974 0.75249,-1.44028 1.46033,-1.84038 0.4131,-0.23375 0.87,-0.36793 1.33519,-0.39819 z m -10.41457,2.28278 -1.55491,0.15262 0.084,0.85914 c -0.47664,0.14685 -0.92024,0.38332 -1.30778,0.69734 l -0.66839,-0.5478 -0.99184,1.20701 0.66685,0.54782 c -0.23437,0.44143 -0.38021,0.9238 -0.43335,1.42066 l -0.85607,0.0841 0.15259,1.55489 0.85914,-0.0841 c 0.14685,0.47652 0.38325,0.92018 0.69733,1.30772 l -0.54781,0.66834 1.20704,0.99181 0.5478,-0.66678 c 0.44138,0.23434 0.92372,0.3802 1.4206,0.43337 l 0.084,0.85603 1.55496,-0.15256 -0.084,-0.85914 c 0.47653,-0.14684 0.92019,-0.3833 1.30771,-0.69736 l 0.66834,0.54779 0.99188,-1.20697 -0.66682,-0.54783 c 0.2344,-0.44136 0.38025,-0.92373 0.43333,-1.4206 l 0.85608,-0.084 -0.15255,-1.55498 -0.85912,0.0841 c -0.1469,-0.47648 -0.38331,-0.92016 -0.6974,-1.30766 l 0.54786,-0.6684 -1.20707,-0.99188 -0.54776,0.66685 c -0.44143,-0.23438 -0.92378,-0.3802 -1.42066,-0.43334 z m -0.0211,1.62972 c 0.59851,0.0575 1.17261,0.28809 1.64959,0.66841 0.66013,0.5266 1.07915,1.29718 1.1612,2.13779 0.0794,0.80947 -0.15978,1.61793 -0.66684,2.25387 -0.52658,0.66018 -1.29871,1.07922 -2.13936,1.16122 -0.80944,0.0794 -1.61635,-0.1598 -2.25234,-0.6668 -0.66013,-0.5266 -1.07914,-1.29875 -1.16118,-2.1394 -0.0794,-0.80941 0.15974,-1.61633 0.66681,-2.25228 0.52661,-0.66017 1.29715,-1.07922 2.13787,-1.16121 0.20236,-0.0201 0.40476,-0.0209 0.60425,-0.002 z m 6.73242,3.11144 v 0.86365 c -0.48905,0.10034 -0.9538,0.29266 -1.37028,0.56768 l -0.61039,-0.61039 -1.10473,1.10478 0.61035,0.61038 c -0.2758,0.41647 -0.4699,0.88121 -0.57068,1.37032 h -0.86065 v 1.56255 h 0.86366 c 0.10035,0.48915 0.2927,0.9539 0.56767,1.37032 l -0.61035,0.61036 1.10473,1.10473 0.61039,-0.61031 c 0.41648,0.27578 0.88123,0.46988 1.37028,0.57066 v 0.86065 h 1.56264 v -0.86371 c 0.48904,-0.0998 0.95378,-0.29258 1.37024,-0.5676 l 0.61041,0.61031 1.10478,-1.10473 -0.61034,-0.61036 c 0.27573,-0.41642 0.46988,-0.88117 0.57068,-1.37032 h 0.86059 v -1.56255 h -0.86366 c -0.10034,-0.48911 -0.29264,-0.95385 -0.56761,-1.37032 l 0.61034,-0.61038 -1.10478,-1.10478 -0.61041,0.61039 c -0.41646,-0.27581 -0.8812,-0.46991 -1.37024,-0.57069 v -0.86064 z m 0.78133,1.56256 c 0.81332,0 1.59388,0.31712 2.1775,0.88349 0.60554,0.58834 0.94764,1.39699 0.94764,2.24168 0,0.81328 -0.31708,1.59386 -0.88355,2.17748 -0.58831,0.6055 -1.39703,0.94757 -2.24159,0.94757 -0.81331,0 -1.59392,-0.31702 -2.17754,-0.88345 -0.60549,-0.58834 -0.94758,-1.39711 -0.94758,-2.2416 0,-0.81336 0.31702,-1.59394 0.88348,-2.17757 0.58832,-0.60545 1.39707,-0.9476 2.24164,-0.9476 z"
       class="ColorScheme-Text"
       id="path1935-0-5-9" />
  </g>
</svg>
