<?xml version="1.0" encoding="UTF-8" standalone="no"?>
<svg
   width="64"
   version="1.1"
   height="64"
   id="svg17"
   sodipodi:docname="folder-sign.svg"
   inkscape:version="1.3 (0e150ed6c4, 2023-07-21)"
   xmlns:inkscape="http://www.inkscape.org/namespaces/inkscape"
   xmlns:sodipodi="http://sodipodi.sourceforge.net/DTD/sodipodi-0.dtd"
   xmlns:xlink="http://www.w3.org/1999/xlink"
   xmlns="http://www.w3.org/2000/svg"
   xmlns:svg="http://www.w3.org/2000/svg"
   xmlns:rdf="http://www.w3.org/1999/02/22-rdf-syntax-ns#"
   xmlns:cc="http://creativecommons.org/ns#"
   xmlns:dc="http://purl.org/dc/elements/1.1/">
  <sodipodi:namedview
     pagecolor="#ffffff"
     bordercolor="#666666"
     borderopacity="1"
     objecttolerance="10"
     gridtolerance="10"
     guidetolerance="10"
     inkscape:pageopacity="0"
     inkscape:pageshadow="2"
     inkscape:window-width="1920"
     inkscape:window-height="994"
     id="namedview19"
     showgrid="true"
     inkscape:zoom="9.8124999"
     inkscape:cx="29.146497"
     inkscape:cy="27.770701"
     inkscape:window-x="0"
     inkscape:window-y="0"
     inkscape:window-maximized="1"
     inkscape:current-layer="layer1"
     inkscape:document-rotation="0"
     inkscape:showpageshadow="2"
     inkscape:pagecheckerboard="0"
     inkscape:deskcolor="#d1d1d1">
    <inkscape:grid
       type="xygrid"
       id="grid877"
       originx="0"
       originy="0"
       spacingy="1"
       spacingx="1"
       units="px"
       visible="true" />
  </sodipodi:namedview>
  <defs
     id="defs5455">
    <clipPath
       clipPathUnits="userSpaceOnUse"
       id="clipPath79425-9-5-3">
      <rect
         style="opacity:0.5;fill:#000000;fill-opacity:1;stroke:none;stroke-width:0.855869;stroke-dasharray:none;stroke-opacity:1;paint-order:stroke fill markers"
         id="rect79427-1-9-6"
         width="26.417742"
         height="29.037542"
         x="-16.227774"
         y="-6.4845476" />
    </clipPath>
    <clipPath
       clipPathUnits="userSpaceOnUse"
       id="clipPath79425-9-5-5">
      <rect
         style="opacity:0.5;fill:#000000;fill-opacity:1;stroke:none;stroke-width:0.855869;stroke-dasharray:none;stroke-opacity:1;paint-order:stroke fill markers"
         id="rect79427-1-9-62"
         width="26.417742"
         height="29.037542"
         x="-16.227774"
         y="-6.4845476" />
    </clipPath>
    <linearGradient
       inkscape:collect="always"
       xlink:href="#linearGradient12"
       id="linearGradient17"
       x1="392.57144"
       y1="536.79797"
       x2="444.57144"
       y2="507.798"
       gradientUnits="userSpaceOnUse"
       gradientTransform="translate(0,-1.6e-4)" />
    <linearGradient
       id="linearGradient12"
       inkscape:collect="always">
      <stop
         style="stop-color:#8d5fd3;stop-opacity:1"
         offset="0"
         id="stop10" />
      <stop
         style="stop-color:#00aad4;stop-opacity:1"
         offset="0.54778218"
         id="stop11" />
      <stop
         style="stop-color:#cd87de;stop-opacity:1"
         offset="1"
         id="stop12" />
    </linearGradient>
    <linearGradient
       inkscape:collect="always"
       xlink:href="#linearGradient12"
       id="linearGradient4"
       gradientUnits="userSpaceOnUse"
       gradientTransform="translate(0.999947,4.023174)"
       x1="397.57144"
       y1="511.27505"
       x2="415.57144"
       y2="511.27505" />
    <linearGradient
       inkscape:collect="always"
       xlink:href="#linearGradient12"
       id="linearGradient5"
       gradientUnits="userSpaceOnUse"
       gradientTransform="translate(-4e-5,-1.49e-4)"
       x1="386.38025"
       y1="541.81329"
       x2="439.20044"
       y2="499.79816" />
    <linearGradient
       inkscape:collect="always"
       xlink:href="#linearGradient12"
       id="linearGradient3"
       x1="425.41467"
       y1="521.13434"
       x2="438.84042"
       y2="521.13434"
       gradientUnits="userSpaceOnUse"
       gradientTransform="matrix(0.89999567,0,0,0.89999756,45.69999,54.779415)" />
  </defs>
  <metadata
     id="metadata5458">
    <rdf:RDF>
      <cc:Work
         rdf:about="">
        <dc:format>image/svg+xml</dc:format>
        <dc:type
           rdf:resource="http://purl.org/dc/dcmitype/StillImage" />
      </cc:Work>
    </rdf:RDF>
  </metadata>
  <g
     inkscape:label="Capa 1"
     inkscape:groupmode="layer"
     id="layer1"
     transform="translate(-384.57143,-483.798)">
    <path
       inkscape:connector-curvature="0"
       id="fill-3"
       d="m 393.5714,509.19784 3e-5,26.355 c -0.0932,0.57145 -0.23037,0.90721 -0.644,1.24501 l 49.644,-1e-5 c 1.25773,0 2,-0.20551 2,-1.99362 v -25.50638 c 0,-0.66722 -0.33428,-1.5 -1.9,-1.5 h -47.10899 c -0.99101,0 -1.99101,0 -1.99104,1.4 z"
       style="color:#1e92ff;opacity:0.4;fill:url(#linearGradient17);fill-opacity:0.4;fill-rule:nonzero;stroke:none;stroke-width:8.11634"
       sodipodi:nodetypes="ccccccccc" />
    <rect
       x="398.57129"
       y="513.79816"
       width="18"
       height="3"
       ry="1.5"
       stroke-width="5.07132"
       style="opacity:0.8;fill:url(#linearGradient4);fill-opacity:1;paint-order:stroke markers fill"
       id="rect12-5-9-3-9-7-7-9"
       rx="1.5000117" />
    <path
       d="m 443.46966,505.807 -0.89826,-0.009 v -2.5759 c -0.002,-1.58874 -1,-3.4241 -3.371,-3.4241 h -21.84697 c -3.78203,0 -3.78203,-1 -5.08103,-2.46383 l -1.527,-2.91564 c -0.52262,-0.98802 -1.70328,-1.61594 -2.88973,-1.62053 h -18.28424 c -1.71234,0.002 -2.99827,1.41164 -3,3 l 10e-6,39.5 c 0,2.0466 1.46781,3.5 3.4,3.5 h 53.49825 c 1.71233,-0.002 3.1,-1.28887 3.10174,-2.87723 v -27.23662 c -0.002,-1.58827 -1.3895,-2.87535 -3.10174,-2.877 z m -54.89826,29.49085 v -38.5 c 7.7e-4,-0.82599 0,-2 2,-2 h 15.7 c 1,0 2.1,0 2.736,1.324 l 1.526,2.515 c 1.21959,2.31102 3.038,3.161 6.038,3.161 l 22.53,-2e-5 c 0.89087,4.4e-4 1.46876,0.69766 1.47,1.52402 v 2.48513 l -46,-0.009 c -2,0 -3,1 -3,3 v 26.49987 c -0.0453,1.95192 -2.95472,1.95192 -3,0 z m 56,-0.5 c 0,2 -1.10954,1.99931 -2,2 h -50 c 0,0 1,0.34375 1,-1.5 v -25.5 c 0,-1.38848 0,-2 2,-2 h 47 c 2,0 1.99923,1.17399 2,2 z"
       id="path6-5-2-5-1"
       style="fill:url(#linearGradient5)"
       sodipodi:nodetypes="cccccccccccccccccccccccccccccccccccccccc" />
    <path
       style="color:#232629;fill:url(#linearGradient3);stroke:none;stroke-width:0.564109"
       d="m 440.21457,514.79997 c -0.0798,-0.002 -0.15992,0.022 -0.23602,0.0681 -0.0419,0.0272 -0.21776,0.23977 -0.39174,0.47105 l -0.31662,0.42474 -0.11461,-0.0793 c -0.16062,-0.10567 -0.31552,-0.12899 -0.46011,-0.0635 -0.0998,0.0452 -0.3339,0.34629 -1.86979,2.38355 -0.96925,1.28415 -1.75736,2.34501 -1.75513,2.3614 0.003,0.0128 0.39553,0.32022 0.87151,0.6768 l 0.87037,0.65245 1.14504,-1.52182 c 0.63022,-0.83718 1.1546,-1.51484 1.16716,-1.50543 0.0419,0.029 0.11494,0.68776 0.10034,0.89906 -0.01,0.11527 -0.0478,0.32245 -0.094,0.46001 -0.0803,0.24569 -0.0881,0.2601 -1.50792,2.15236 -0.7852,1.04604 -1.43887,1.93457 -1.4506,1.96976 -0.0324,0.097 0.007,0.27786 0.0782,0.3818 0.12286,0.17506 0.42661,0.23043 0.59897,0.10559 0.11914,-0.0862 2.93108,-3.8624 3.02047,-4.05932 0.26118,-0.56166 0.31529,-1.28076 0.15002,-1.98849 -0.0641,-0.28083 -0.15073,-0.55077 -0.23387,-0.74265 -0.026,-0.0512 0.015,-0.11951 0.27911,-0.472 0.24848,-0.33658 0.30548,-0.43134 0.30992,-0.51827 0.01,-0.18553 -0.0457,-0.289 -0.2294,-0.43026 l -0.16991,-0.13224 0.33764,-0.45226 c 0.2766,-0.37402 0.33653,-0.4717 0.34078,-0.55895 0.0112,-0.27797 -0.2024,-0.48145 -0.43907,-0.48415 z m -5.68674,6.27227 c -0.01,0.002 -1.04109,1.37009 -2.2967,3.03817 -2.01972,2.68621 -2.3069,3.08388 -2.49318,3.42554 -0.36998,0.6803 -0.7727,1.71761 -1.04012,2.66515 -0.17355,0.60785 -0.18214,0.5528 0.0608,0.42359 0.74545,-0.40153 1.71904,-1.05343 2.28562,-1.53281 0.55405,-0.46918 0.64832,-0.58857 2.99513,-3.70616 l 2.25703,-3.00177 -0.877,-0.65698 c -0.48233,-0.36128 -0.88196,-0.65592 -0.89028,-0.65473 z m 0.25377,6.95225 c -0.11094,-0.01 -0.22505,-0.005 -0.29905,0.0105 v 0.002 c -0.35069,0.0744 -0.74122,0.377 -0.92986,0.72628 -0.0496,0.0909 -0.13178,0.29623 -0.18201,0.45111 -0.0462,0.15778 -0.0916,0.2894 -0.0952,0.29275 -0.027,0.0325 -0.69783,0.19432 -1.09211,0.26188 -0.92673,0.16169 -1.17984,0.22203 -1.27088,0.30591 -0.17847,0.16454 -0.0414,0.33024 0.21296,0.25642 0.066,-0.0216 0.35369,-0.0781 0.62994,-0.12431 0.2767,-0.0462 0.69761,-0.13471 0.93662,-0.18821 0.23954,-0.0581 0.44209,-0.0951 0.4522,-0.084 0.01,0.01 -0.0282,0.20157 -0.094,0.42688 l -0.11482,0.40385 -0.25361,0.11111 c -0.13839,0.062 -0.33679,0.16455 -0.4413,0.23548 -0.31689,0.20848 -0.37807,0.47037 -0.15546,0.63828 0.12134,0.0908 0.45837,0.087 0.66731,-0.006 0.18523,-0.0832 0.28947,-0.20142 0.4347,-0.50734 0.0783,-0.15829 0.13843,-0.24174 0.18529,-0.25198 0.0382,-0.01 0.37193,-0.0785 0.74242,-0.15512 0.37107,-0.0744 0.70776,-0.14512 0.75128,-0.15509 0.07,-0.0161 0.0788,-0.01 0.0586,0.0538 -0.0124,0.0414 -0.0755,0.15874 -0.13893,0.26299 -0.0634,0.10424 -0.11477,0.22817 -0.11477,0.27833 0,0.10422 0.088,0.20859 0.15887,0.18157 0.0269,-0.01 0.0632,-0.0209 0.0805,-0.0209 0.0161,0 0.0916,-0.054 0.16548,-0.12108 0.13839,-0.12449 0.4722,-0.73373 0.4722,-0.8616 0,-0.0632 0.0493,-0.0803 0.0804,-0.0283 0.01,0.016 0.0864,0.0459 0.17099,0.0657 0.11813,0.029 0.15229,0.0527 0.15229,0.10667 0,0.10431 0.17235,0.25631 0.32433,0.28613 0.11804,0.0216 0.26975,-0.006 0.43132,-0.0698 0.0585,-0.0251 0.0619,-0.0161 0.042,0.0698 -0.0124,0.0541 -0.11171,0.22581 -0.2162,0.38409 -0.22251,0.32955 -0.49197,0.85401 -0.56262,1.08611 -0.0583,0.19835 -0.0327,0.34651 0.07,0.41706 0.0945,0.0619 0.24909,0.0312 0.32985,-0.0558 0.0699,-0.0782 0.45555,-0.88708 0.59681,-1.25665 0.1011,-0.25916 0.14794,-0.33002 0.37724,-0.57226 0.18867,-0.1983 0.25025,-0.24555 0.20962,-0.16835 -0.0662,0.14485 -0.0636,0.2554 0.01,0.32239 0.15823,0.14479 0.38748,0.006 0.58691,-0.35984 0.11807,-0.21511 0.20593,-0.27847 0.64424,-0.48419 l 0.22833,-0.10449 -0.0244,0.12429 c -0.0122,0.0659 -0.0915,0.2592 -0.17207,0.42373 -0.15867,0.33296 -0.18815,0.54477 -0.094,0.72621 0.063,0.12454 0.13107,0.12861 0.44118,0.0222 0.43153,-0.14468 0.99435,-0.47856 1.14069,-0.67003 0.19872,-0.2694 0.2598,-0.52782 0.13899,-0.61524 -0.12482,-0.0907 -0.19547,-0.0538 -0.35417,0.17826 -0.21242,0.31622 -0.47498,0.56219 -0.72802,0.68676 -0.11811,0.0616 -0.22261,0.1003 -0.23281,0.0903 -0.0122,-0.0125 0.25583,-0.73649 0.40049,-1.0762 0.0291,-0.0697 0.056,-0.15819 0.056,-0.19477 0,-0.0944 -0.11848,-0.20133 -0.21951,-0.20133 -0.0463,0 -0.27058,0.0903 -0.49317,0.2046 -0.46202,0.22875 -0.43133,0.24896 -0.31326,-0.18156 0.07,-0.26543 0.0461,-0.33626 -0.11477,-0.35331 -0.15523,-0.0161 -0.21562,0.033 -0.35729,0.2861 -0.0911,0.17134 -0.21195,0.31298 -0.44464,0.52835 -0.3067,0.2822 -0.32045,0.29202 -0.39164,0.24194 -0.1079,-0.0782 -0.16873,-0.0657 -0.43133,0.0638 -0.25644,0.12789 -0.34103,0.14475 -0.40484,0.066 -0.0542,-0.0635 0.0297,-0.0976 0.49966,-0.18822 0.45527,-0.087 0.51191,-0.11169 0.51191,-0.20572 0,-0.1516 -0.12499,-0.29538 -0.34755,-0.39288 -0.38457,-0.17125 -0.42735,-0.18201 -0.59564,-0.13866 -0.18188,0.046 -0.45195,0.30597 -0.48871,0.46769 -0.0382,0.16841 -0.15218,0.11769 -0.15218,-0.0661 0,-0.0782 -0.095,-0.27213 -0.14897,-0.30588 -0.11466,-0.0782 -0.29955,0.0913 -0.44121,0.40058 l -0.11146,0.23878 -0.24929,0.0538 c -0.32365,0.0698 -1.26402,0.25849 -1.3889,0.28284 -0.0806,0.0124 -0.0944,0.01 -0.0782,-0.0419 0.0122,-0.0323 0.0533,-0.18081 0.094,-0.33233 0.10443,-0.41693 0.13553,-0.47137 0.28682,-0.52489 0.18188,-0.063 0.79607,-0.32659 0.95426,-0.40716 0.0746,-0.0381 0.22516,-0.15112 0.33648,-0.25198 0.34046,-0.31605 0.39394,-0.609 0.15105,-0.82416 -0.0662,-0.0581 -0.15521,-0.11736 -0.19531,-0.13429 -0.0627,-0.0251 -0.16935,-0.0411 -0.28008,-0.0453 z m -0.33976,0.3929 c 0.0458,-0.005 0.10209,-0.002 0.17205,0.006 0.17849,0.01 0.24974,0.0267 0.29995,0.0803 0.0662,0.0658 0.066,0.0694 0.01,0.19809 -0.0419,0.0811 -0.13456,0.17526 -0.25256,0.25639 -0.20556,0.1414 -0.85008,0.39998 -0.87038,0.35322 -0.0265,-0.0782 0.17944,-0.53848 0.31105,-0.68669 0.13133,-0.14872 0.19272,-0.1968 0.33319,-0.20462 z m -1.73096,2.81586 c 0.0267,0.003 0.0267,0.0258 0.008,0.0646 -0.0448,0.0832 -0.15901,0.14465 -0.22282,0.12095 -0.0746,-0.029 -0.054,-0.0693 0.0636,-0.13088 0.0787,-0.04 0.12871,-0.0592 0.15445,-0.0574 z"
       class="ColorScheme-Text"
       id="path14466-5-6-2" />
  </g>
</svg>
