<?xml version="1.0" encoding="UTF-8" standalone="no"?>
<svg
   width="64"
   version="1.1"
   height="64"
   id="svg19"
   sodipodi:docname="folder-development.svg"
   inkscape:version="1.3 (0e150ed6c4, 2023-07-21)"
   xmlns:inkscape="http://www.inkscape.org/namespaces/inkscape"
   xmlns:sodipodi="http://sodipodi.sourceforge.net/DTD/sodipodi-0.dtd"
   xmlns:xlink="http://www.w3.org/1999/xlink"
   xmlns="http://www.w3.org/2000/svg"
   xmlns:svg="http://www.w3.org/2000/svg"
   xmlns:rdf="http://www.w3.org/1999/02/22-rdf-syntax-ns#"
   xmlns:cc="http://creativecommons.org/ns#"
   xmlns:dc="http://purl.org/dc/elements/1.1/">
  <sodipodi:namedview
     pagecolor="#ffffff"
     bordercolor="#666666"
     borderopacity="1"
     objecttolerance="10"
     gridtolerance="10"
     guidetolerance="10"
     inkscape:pageopacity="0"
     inkscape:pageshadow="2"
     inkscape:window-width="1920"
     inkscape:window-height="994"
     id="namedview21"
     showgrid="true"
     inkscape:zoom="9.8623731"
     inkscape:cx="34.525159"
     inkscape:cy="33.815391"
     inkscape:window-x="0"
     inkscape:window-y="0"
     inkscape:window-maximized="1"
     inkscape:current-layer="layer1"
     inkscape:document-rotation="0"
     inkscape:showpageshadow="2"
     inkscape:pagecheckerboard="0"
     inkscape:deskcolor="#d1d1d1">
    <inkscape:grid
       type="xygrid"
       id="grid941"
       originx="0"
       originy="0"
       spacingy="1"
       spacingx="1"
       units="px"
       visible="true" />
  </sodipodi:namedview>
  <defs
     id="defs5455">
    <linearGradient
       id="linearGradient9"
       inkscape:collect="always">
      <stop
         style="stop-color:#00ffcc;stop-opacity:1"
         offset="0"
         id="stop7" />
      <stop
         style="stop-color:#00ccff;stop-opacity:1"
         offset="0.59183675"
         id="stop8" />
      <stop
         style="stop-color:#2a7fff;stop-opacity:1"
         offset="1"
         id="stop9" />
    </linearGradient>
    <linearGradient
       id="linearGradient6"
       inkscape:collect="always">
      <stop
         style="stop-color:#00ffcc;stop-opacity:1"
         offset="0"
         id="stop4" />
      <stop
         style="stop-color:#00ccff;stop-opacity:1"
         offset="0.59183675"
         id="stop5" />
      <stop
         style="stop-color:#ffd42a;stop-opacity:1"
         offset="1"
         id="stop6" />
    </linearGradient>
    <clipPath
       clipPathUnits="userSpaceOnUse"
       id="clipPath79425-9-5-3">
      <rect
         style="opacity:0.5;fill:#000000;fill-opacity:1;stroke:none;stroke-width:0.855869;stroke-dasharray:none;stroke-opacity:1;paint-order:stroke fill markers"
         id="rect79427-1-9-6"
         width="26.417742"
         height="29.037542"
         x="-16.227774"
         y="-6.4845476" />
    </clipPath>
    <clipPath
       clipPathUnits="userSpaceOnUse"
       id="clipPath79425-9-5-5">
      <rect
         style="opacity:0.5;fill:#000000;fill-opacity:1;stroke:none;stroke-width:0.855869;stroke-dasharray:none;stroke-opacity:1;paint-order:stroke fill markers"
         id="rect79427-1-9-62"
         width="26.417742"
         height="29.037542"
         x="-16.227774"
         y="-6.4845476" />
    </clipPath>
    <linearGradient
       inkscape:collect="always"
       xlink:href="#linearGradient6"
       id="linearGradient17"
       x1="392.57144"
       y1="536.79797"
       x2="444.57144"
       y2="507.798"
       gradientUnits="userSpaceOnUse"
       gradientTransform="translate(-5e-6,-1.6e-4)" />
    <linearGradient
       inkscape:collect="always"
       xlink:href="#linearGradient9"
       id="linearGradient4"
       gradientUnits="userSpaceOnUse"
       gradientTransform="translate(0.999942,4.023174)"
       x1="397.57144"
       y1="511.27505"
       x2="415.57144"
       y2="511.27505" />
    <linearGradient
       inkscape:collect="always"
       xlink:href="#linearGradient9"
       id="linearGradient2"
       gradientUnits="userSpaceOnUse"
       gradientTransform="translate(-4.5e-5,-1.49e-4)"
       x1="387.57144"
       y1="537.79797"
       x2="445.57144"
       y2="492.798" />
    <linearGradient
       inkscape:collect="always"
       xlink:href="#linearGradient9"
       id="linearGradient5"
       gradientUnits="userSpaceOnUse"
       gradientTransform="matrix(1.1428443,0,0,1.142769,-21.082419,-154.02416)"
       x1="389.57144"
       y1="598.79797"
       x2="399.57144"
       y2="588.79797" />
  </defs>
  <metadata
     id="metadata5458">
    <rdf:RDF>
      <cc:Work
         rdf:about="">
        <dc:format>image/svg+xml</dc:format>
        <dc:type
           rdf:resource="http://purl.org/dc/dcmitype/StillImage" />
      </cc:Work>
    </rdf:RDF>
  </metadata>
  <g
     inkscape:label="Capa 1"
     inkscape:groupmode="layer"
     id="layer1"
     transform="translate(-384.57143,-483.798)">
    <path
       inkscape:connector-curvature="0"
       id="fill-3"
       d="m 393.57139,509.19784 3e-5,26.355 c -0.0932,0.57145 -0.23037,0.90721 -0.644,1.24501 l 49.644,-1e-5 c 1.25773,0 2,-0.20551 2,-1.99362 v -25.50638 c 0,-0.66722 -0.33428,-1.5 -1.9,-1.5 h -47.10899 c -0.99101,0 -1.99101,0 -1.99104,1.4 z"
       style="color:#1e92ff;opacity:0.4;fill:url(#linearGradient17);fill-opacity:0.4;fill-rule:nonzero;stroke:none;stroke-width:8.11634"
       sodipodi:nodetypes="ccccccccc" />
    <rect
       x="398.57141"
       y="513.79797"
       width="18"
       height="3"
       ry="1.5"
       stroke-width="5.07132"
       style="opacity:0.8;fill:url(#linearGradient4);fill-opacity:1;paint-order:stroke markers fill"
       id="rect12-5-9-3-9-7-7-9"
       rx="1.5000117" />
    <path
       d="m 443.46965,505.807 -0.89826,-0.009 v -2.5759 c -0.002,-1.58874 -1,-3.4241 -3.371,-3.4241 h -21.84697 c -3.78203,0 -3.78203,-1 -5.08102,-2.46383 l -1.527,-2.91564 c -0.52263,-0.98802 -1.70328,-1.61594 -2.88973,-1.62053 h -18.28424 c -1.71234,0.002 -2.99827,1.41164 -3,3 v 39.5 c 0,2.0466 1.46781,3.5 3.4,3.5 h 53.49825 c 1.71233,-0.002 3.1,-1.28887 3.10174,-2.87723 v -27.23662 c -0.002,-1.58827 -1.3895,-2.87535 -3.10174,-2.877 z m -54.89826,29.49085 v -38.5 c 7.7e-4,-0.82599 0,-2 2,-2 h 15.7 c 1,0 2.1,0 2.736,1.324 l 1.526,2.515 c 1.21959,2.31102 3.038,3.161 6.038,3.161 l 22.53001,-2e-5 c 0.89087,4.4e-4 1.46875,0.69766 1.47,1.52402 v 2.48513 l -46,-0.009 c -2,0 -3,1 -3,3 v 26.49987 c -0.0453,1.95192 -2.95472,1.95192 -3.00001,0 z m 56,-0.5 c 0,2 -1.10954,1.99931 -2,2 h -50 c 0,0 1,0.34375 1,-1.5 v -25.5 c 0,-1.38848 0,-2 2,-2 h 47 c 2,0 1.99923,1.17399 2,2 z"
       id="path6-5-2-5-1"
       style="opacity:0.7;fill:url(#linearGradient2)"
       sodipodi:nodetypes="cccccccccccccccccccccccccccccccccccccccc" />
    <path
       id="path2996-5-2"
       d="m 432.7615,516.79784 c -0.51508,1.8e-4 -1.01756,0.17587 -1.28174,0.39251 -0.3115,0.25568 -0.46782,0.58542 -0.56994,0.89055 -0.25209,0.75358 -0.19694,1.02305 -0.47317,1.24991 -0.27526,0.22595 -0.5973,0.40993 -0.93274,0.53317 -0.33616,0.12351 -0.54471,-0.0593 -1.331,-0.21867 -0.31882,-0.0647 -0.68961,-0.0945 -1.06286,0.0436 -0.31812,0.11692 -0.72718,0.46221 -0.98601,0.90614 l -0.23665,0.40622 c -0.25734,0.44106 -0.35767,0.95905 -0.29969,1.29683 0.0684,0.4006 0.28028,0.69639 0.49491,0.93538 0.53164,0.59207 0.79541,0.67911 0.85586,1.03124 0.0603,0.34909 0.0603,0.71712 0,1.06624 -0.0609,0.3519 -0.32424,0.43921 -0.85586,1.03124 -0.21174,0.2358 -0.42579,0.53128 -0.49491,0.93345 -0.0589,0.33984 0.0424,0.85643 0.29969,1.29875 l 0.23665,0.40623 c 0.25725,0.4418 0.66312,0.78824 0.98401,0.90614 v -0.002 c 0.37695,0.1388 0.74453,0.11012 1.06486,0.0453 0.78631,-0.15993 0.99453,-0.34231 1.331,-0.21871 0.3354,0.12312 0.65745,0.30713 0.93274,0.5332 0.27602,0.22654 0.22109,0.49635 0.47317,1.24985 0.10162,0.30495 0.25852,0.63494 0.56994,0.89056 0.26556,0.21776 0.76737,0.39287 1.28174,0.39287 h 0.47524 c 0.51549,2.5e-4 1.01935,-0.17585 1.28364,-0.3925 0.31226,-0.25611 0.468,-0.58494 0.56986,-0.88866 0.25228,-0.75176 0.19845,-1.02459 0.47524,-1.25181 0.27602,-0.22661 0.59611,-0.41028 0.93081,-0.53317 0.33614,-0.12351 0.54466,0.0592 1.331,0.21867 0.3188,0.0646 0.68959,0.0945 1.06284,-0.0434 0.31802,-0.1169 0.72719,-0.46218 0.98591,-0.90615 l 0.1183,-0.20312 0.11831,-0.20305 c 0.2575,-0.44113 0.3578,-0.95905 0.29979,-1.29682 -0.0684,-0.40068 -0.28036,-0.6964 -0.495,-0.93547 -0.5316,-0.59205 -0.7953,-0.6791 -0.8558,-1.03122 -0.0603,-0.34911 -0.0603,-0.71713 0,-1.06625 0.0609,-0.3519 0.32423,-0.43919 0.8558,-1.03123 0.21187,-0.2358 0.42577,-0.53129 0.495,-0.93346 0.0589,-0.33982 -0.0423,-0.85643 -0.29979,-1.29875 l -0.11831,-0.20313 -0.1183,-0.20313 c -0.25714,-0.44177 -0.66307,-0.78815 -0.98397,-0.90613 v 0.002 c -0.37692,-0.13884 -0.74447,-0.11023 -1.06478,-0.0453 -0.78639,0.15993 -0.99463,0.34232 -1.331,0.21878 -0.33466,-0.12293 -0.65474,-0.30669 -0.93081,-0.53325 -0.27752,-0.22782 -0.22324,-0.49904 -0.47524,-1.24987 -0.10139,-0.30361 -0.2577,-0.6325 -0.56986,-0.88855 -0.25846,-0.21217 -0.76304,-0.39464 -1.2817,-0.39464 h -0.23858 -0.23666 z m 0,0.99995 h 0.2386 0.23859 c 0.37614,0 0.53502,0.079 0.63887,0.16405 0.10394,0.0847 0.18187,0.21935 0.25437,0.43549 0.14503,0.43231 0.15256,1.17919 0.79074,1.70298 0.36347,0.29831 0.77891,0.53824 1.22258,0.70112 0.77728,0.28549 1.43397,-0.0854 1.88514,-0.17771 0.2256,-0.0461 0.38424,-0.045 0.51073,0.002 0.12647,0.0467 0.27159,0.1461 0.45943,0.46874 l 0.12026,0.20307 0.11832,0.20308 c 0.18808,0.32253 0.20009,0.50116 0.17746,0.63277 -0.022,0.13156 -0.10095,0.26318 -0.25435,0.43357 -0.30589,0.34066 -0.95543,0.71954 -1.09444,1.52916 -0.0793,0.46148 -0.0794,0.94061 0,1.4022 0.13907,0.80963 0.78841,1.18836 1.09444,1.5292 0.153,0.17041 0.23175,0.30593 0.25435,0.43746 0.022,0.13152 0.009,0.3065 -0.17746,0.62887 l -0.11832,0.20313 -0.12026,0.20309 c -0.18805,0.32255 -0.33482,0.42212 -0.46142,0.46867 -0.12661,0.0467 -0.28321,0.0478 -0.50874,0.002 -0.45103,-0.0922 -1.10794,-0.46332 -1.88514,-0.17775 -0.44364,0.16285 -0.85909,0.40269 -1.22258,0.70106 -0.63818,0.52393 -0.64566,1.27245 -0.79074,1.70494 -0.0727,0.21624 -0.1506,0.35042 -0.25437,0.43552 -0.10395,0.0846 -0.26283,0.16223 -0.63887,0.16204 h -0.47719 c -0.37613,0 -0.53537,-0.0775 -0.63891,-0.16209 -0.10325,-0.0848 -0.18203,-0.21967 -0.25439,-0.43582 -0.14462,-0.43228 -0.15041,-1.18094 -0.78878,-1.7049 -0.36417,-0.29894 -0.78145,-0.53842 -1.22455,-0.70114 -0.77728,-0.28546 -1.43389,0.0854 -1.88508,0.17773 -0.22558,0.0461 -0.38423,0.045 -0.51074,-0.002 -0.12647,-0.0466 -0.27166,-0.14597 -0.45943,-0.4686 l -0.23864,-0.40601 c -0.18808,-0.32262 -0.2001,-0.50118 -0.1775,-0.63278 0.0226,-0.13164 0.10096,-0.26321 0.25439,-0.43355 0.30597,-0.34074 0.95548,-0.71963 1.09443,-1.52922 0.0793,-0.46151 0.0793,-0.94065 0,-1.40218 -0.13901,-0.80967 -0.78836,-1.1884 -1.09443,-1.52918 -0.153,-0.17046 -0.23175,-0.30599 -0.25439,-0.43749 -0.022,-0.13156 -0.009,-0.30648 0.1775,-0.62889 l 0.23864,-0.40615 c 0.18798,-0.32261 0.33481,-0.42221 0.46138,-0.46872 0.1266,-0.0467 0.28326,-0.0478 0.50878,-0.002 0.45106,0.0922 1.10789,0.46321 1.88508,0.1777 0.44307,-0.16269 0.86037,-0.40207 1.22455,-0.70109 0.63836,-0.52408 0.6441,-1.27253 0.78878,-1.70497 0.0729,-0.21619 0.15088,-0.35055 0.25439,-0.43552 0.10344,-0.0843 0.26288,-0.1622 0.63891,-0.16195 z m 0.2386,3.99968 c -1.6712,0 -3.02883,1.34461 -3.02883,2.99979 0,1.65507 1.35763,2.99971 3.02883,2.99971 1.67113,0 3.02885,-1.34464 3.02885,-2.99971 0,-1.65518 -1.35772,-2.99979 -3.02885,-2.99979 z m 0,2.99979 z"
       sodipodi:nodetypes="scccscscccscssscccccssscscsccscsccccsssssccccccssscsccsccssssssccccsssssscccscscsscsssssscccssscssccscscsccsssssccscc"
       style="opacity:1;fill:url(#linearGradient5);stroke-width:1.00475" />
  </g>
</svg>
