<?xml version="1.0" encoding="UTF-8" standalone="no"?>
<svg
   width="64"
   version="1.1"
   height="64"
   id="svg17"
   sodipodi:docname="folder-dropbox.svg"
   inkscape:version="1.3 (0e150ed6c4, 2023-07-21)"
   xmlns:inkscape="http://www.inkscape.org/namespaces/inkscape"
   xmlns:sodipodi="http://sodipodi.sourceforge.net/DTD/sodipodi-0.dtd"
   xmlns:xlink="http://www.w3.org/1999/xlink"
   xmlns="http://www.w3.org/2000/svg"
   xmlns:svg="http://www.w3.org/2000/svg"
   xmlns:rdf="http://www.w3.org/1999/02/22-rdf-syntax-ns#"
   xmlns:cc="http://creativecommons.org/ns#"
   xmlns:dc="http://purl.org/dc/elements/1.1/">
  <sodipodi:namedview
     pagecolor="#ffffff"
     bordercolor="#666666"
     borderopacity="1"
     objecttolerance="10"
     gridtolerance="10"
     guidetolerance="10"
     inkscape:pageopacity="0"
     inkscape:pageshadow="2"
     inkscape:window-width="1920"
     inkscape:window-height="994"
     id="namedview19"
     showgrid="true"
     inkscape:zoom="8.0000004"
     inkscape:cx="42.124998"
     inkscape:cy="44.437498"
     inkscape:window-x="0"
     inkscape:window-y="0"
     inkscape:window-maximized="1"
     inkscape:current-layer="layer1"
     inkscape:document-rotation="0"
     inkscape:showpageshadow="2"
     inkscape:pagecheckerboard="0"
     inkscape:deskcolor="#d1d1d1">
    <inkscape:grid
       type="xygrid"
       id="grid908"
       originx="0"
       originy="0"
       spacingy="1"
       spacingx="1"
       units="px"
       visible="true" />
  </sodipodi:namedview>
  <defs
     id="defs5455">
    <linearGradient
       inkscape:collect="always"
       id="linearGradient3">
      <stop
         style="stop-color:#ffdd55;stop-opacity:1"
         offset="0"
         id="stop2" />
      <stop
         style="stop-color:#37abc8;stop-opacity:1"
         offset="0.48511785"
         id="stop4" />
      <stop
         style="stop-color:#b380ff;stop-opacity:1"
         offset="1"
         id="stop3" />
    </linearGradient>
    <clipPath
       clipPathUnits="userSpaceOnUse"
       id="clipPath79425-9-5-3">
      <rect
         style="opacity:0.5;fill:#000000;fill-opacity:1;stroke:none;stroke-width:0.855869;stroke-dasharray:none;stroke-opacity:1;paint-order:stroke fill markers"
         id="rect79427-1-9-6"
         width="26.417742"
         height="29.037542"
         x="-16.227774"
         y="-6.4845476" />
    </clipPath>
    <clipPath
       clipPathUnits="userSpaceOnUse"
       id="clipPath79425-9-5-5">
      <rect
         style="opacity:0.5;fill:#000000;fill-opacity:1;stroke:none;stroke-width:0.855869;stroke-dasharray:none;stroke-opacity:1;paint-order:stroke fill markers"
         id="rect79427-1-9-62"
         width="26.417742"
         height="29.037542"
         x="-16.227774"
         y="-6.4845476" />
    </clipPath>
    <linearGradient
       inkscape:collect="always"
       xlink:href="#linearGradient3"
       id="linearGradient17"
       x1="392.57144"
       y1="536.79797"
       x2="444.57144"
       y2="507.798"
       gradientUnits="userSpaceOnUse"
       gradientTransform="translate(3.2998047e-5,-1.562e-4)" />
    <linearGradient
       inkscape:collect="always"
       xlink:href="#linearGradient3"
       id="linearGradient4"
       gradientUnits="userSpaceOnUse"
       gradientTransform="translate(0.99998,4.0231778)"
       x1="397.57144"
       y1="511.27505"
       x2="415.57144"
       y2="511.27505" />
    <linearGradient
       inkscape:collect="always"
       xlink:href="#linearGradient3"
       id="linearGradient5"
       gradientUnits="userSpaceOnUse"
       gradientTransform="translate(-7.0019531e-6,-1.452e-4)"
       x1="386.57146"
       y1="515.798"
       x2="446.57146"
       y2="515.798" />
    <linearGradient
       inkscape:collect="always"
       xlink:href="#linearGradient3"
       id="linearGradient2"
       x1="422.01929"
       y1="524.40448"
       x2="441.30093"
       y2="524.40448"
       gradientUnits="userSpaceOnUse"
       gradientTransform="translate(-0.44788428,-0.60600946)" />
  </defs>
  <metadata
     id="metadata5458">
    <rdf:RDF>
      <cc:Work
         rdf:about="">
        <dc:format>image/svg+xml</dc:format>
        <dc:type
           rdf:resource="http://purl.org/dc/dcmitype/StillImage" />
      </cc:Work>
    </rdf:RDF>
  </metadata>
  <g
     inkscape:label="Capa 1"
     inkscape:groupmode="layer"
     id="layer1"
     transform="translate(-384.57143,-483.798)">
    <path
       inkscape:connector-curvature="0"
       id="fill-3"
       d="m 393.57143,509.19784 3e-5,26.355 c -0.0932,0.57145 -0.23037,0.90721 -0.644,1.24501 l 49.644,-1e-5 c 1.25773,0 2,-0.20551 2,-1.99362 v -25.50638 c 0,-0.66722 -0.33428,-1.5 -1.9,-1.5 h -47.10899 c -0.99101,0 -1.99101,0 -1.99104,1.4 z"
       style="color:#1e92ff;opacity:0.4;fill:url(#linearGradient17);fill-opacity:0.4;fill-rule:nonzero;stroke:none;stroke-width:8.11634"
       sodipodi:nodetypes="ccccccccc" />
    <rect
       x="398.57144"
       y="513.79779"
       width="18"
       height="3"
       ry="1.5"
       stroke-width="5.07132"
       style="opacity:0.8;fill:url(#linearGradient4);fill-opacity:1;paint-order:stroke markers fill"
       id="rect12-5-9-3-9-7-7-9"
       rx="1.5000117" />
    <path
       d="m 443.46969,505.807 -0.89826,-0.009 v -2.5759 c -0.002,-1.58874 -1,-3.4241 -3.371,-3.4241 h -21.84697 c -3.78203,0 -3.78203,-1 -5.08103,-2.46383 l -1.527,-2.91564 c -0.52262,-0.98802 -1.70328,-1.61594 -2.88973,-1.62053 h -18.28424 c -1.71234,0.002 -2.99827,1.41164 -3,3 l 10e-6,39.5 c 0,2.0466 1.46781,3.5 3.4,3.5 h 53.49825 c 1.71233,-0.002 3.1,-1.28887 3.10174,-2.87723 v -27.23662 c -0.002,-1.58827 -1.3895,-2.87535 -3.10174,-2.877 z m -54.89826,29.49085 v -38.5 c 7.7e-4,-0.82599 0,-2 2,-2 h 15.7 c 1,0 2.1,0 2.736,1.324 l 1.526,2.515 c 1.21959,2.31102 3.038,3.161 6.038,3.161 l 22.53,-2e-5 c 0.89087,4.4e-4 1.46876,0.69766 1.47,1.52402 v 2.48513 l -46,-0.009 c -2,0 -3,1 -3,3 v 26.49987 c -0.0453,1.95192 -2.95472,1.95192 -3,0 z m 56,-0.5 c 0,2 -1.10954,1.99931 -2,2 h -50 c 0,0 1,0.34375 1,-1.5 v -25.5 c 0,-1.38848 0,-2 2,-2 h 47 c 2,0 1.99923,1.17399 2,2 z"
       id="path6-5-2-5-1"
       style="fill:url(#linearGradient5)"
       sodipodi:nodetypes="cccccccccccccccccccccccccccccccccccccccc" />
    <path
       d="m 440.85305,518.79872 c -0.008,-0.17037 -0.0972,-0.32679 -0.23985,-0.42066 l -5.36076,-3.4939 c -0.19472,-0.12854 -0.45194,-0.11125 -0.63275,0.0385 l -3.40696,2.84374 -3.41043,-2.84374 c -0.1808,-0.14956 -0.4346,-0.16335 -0.63277,-0.0385 l -5.35728,3.49739 c -0.14255,0.0936 -0.23289,0.25027 -0.23988,0.42069 -0.008,0.17032 0.0661,0.33367 0.19818,0.44147 l 3.18448,2.55176 -3.18448,2.54826 c -0.13209,0.1078 -0.20857,0.27116 -0.19818,0.44156 0.008,0.17032 0.0972,0.32676 0.23988,0.42059 l 3.51477,2.29448 c -0.004,0.0243 -0.008,0.052 -0.008,0.0769 v 1.47054 c 0,0.18771 0.0972,0.36152 0.25726,0.45542 l 5.37116,3.21923 c 0.0835,0.0519 0.17731,0.0765 0.27463,0.0765 0.0972,0 0.18774,-0.0243 0.27465,-0.0765 l 5.3712,-3.21923 c 0.15985,-0.0972 0.25727,-0.27115 0.25727,-0.45542 v -1.47054 c 0,-0.0314 -0.004,-0.0625 -0.008,-0.0904 l 3.49386,-2.28057 c 0.14256,-0.0939 0.23296,-0.25031 0.2399,-0.42065 0.008,-0.17035 -0.0661,-0.33376 -0.19817,-0.44149 l -3.18446,-2.5483 3.18446,-2.55179 c 0.13212,-0.10778 0.20512,-0.27459 0.19817,-0.44495 z m -9.64032,5.70496 -4.39083,-2.7082 4.39083,-2.70824 4.39086,2.70474 z m -3.78942,-8.5105 2.87858,2.40227 -4.4534,2.74994 -2.83678,-2.27364 z m -1.57482,6.44891 4.4534,2.74994 -2.87858,2.40222 -4.41508,-2.87855 z m 10.21397,6.30289 -4.83931,2.89939 -4.83924,-2.89939 v -0.55624 l 0.78562,0.51454 c 0.0904,0.0589 0.19127,0.0866 0.2921,0.0866 0.12157,0 0.24331,-0.0417 0.34067,-0.12512 l 3.41043,-2.84377 3.40696,2.84377 c 0.0972,0.0835 0.21905,0.12512 0.3407,0.12512 0.10082,0 0.20162,-0.0278 0.29205,-0.0866 l 0.81002,-0.5284 z m -1.06035,-1.15073 -2.87855,-2.40222 4.45339,-2.74994 2.83683,2.27013 z m 1.57484,-6.45232 -4.45339,-2.74998 2.87855,-2.40222 4.41167,2.87856 z"
       id="path10-3-0-7"
       style="fill:url(#linearGradient2);stroke-width:0.034765"
       inkscape:connector-curvature="0" />
  </g>
</svg>
