<?xml version="1.0" encoding="UTF-8" standalone="no"?>
<svg
   width="64"
   version="1.1"
   height="64"
   id="svg16"
   sodipodi:docname="folder-java.svg"
   inkscape:version="1.3 (0e150ed6c4, 2023-07-21)"
   xmlns:inkscape="http://www.inkscape.org/namespaces/inkscape"
   xmlns:sodipodi="http://sodipodi.sourceforge.net/DTD/sodipodi-0.dtd"
   xmlns:xlink="http://www.w3.org/1999/xlink"
   xmlns="http://www.w3.org/2000/svg"
   xmlns:svg="http://www.w3.org/2000/svg"
   xmlns:rdf="http://www.w3.org/1999/02/22-rdf-syntax-ns#"
   xmlns:cc="http://creativecommons.org/ns#"
   xmlns:dc="http://purl.org/dc/elements/1.1/">
  <sodipodi:namedview
     pagecolor="#ffffff"
     bordercolor="#666666"
     borderopacity="1"
     objecttolerance="10"
     gridtolerance="10"
     guidetolerance="10"
     inkscape:pageopacity="0"
     inkscape:pageshadow="2"
     inkscape:window-width="1920"
     inkscape:window-height="994"
     id="namedview18"
     showgrid="true"
     inkscape:zoom="9.8125"
     inkscape:cx="17.426752"
     inkscape:cy="26.547771"
     inkscape:window-x="0"
     inkscape:window-y="0"
     inkscape:window-maximized="1"
     inkscape:current-layer="layer1-2"
     inkscape:document-rotation="0"
     inkscape:showpageshadow="2"
     inkscape:pagecheckerboard="0"
     inkscape:deskcolor="#d1d1d1">
    <inkscape:grid
       type="xygrid"
       id="grid1438"
       originx="0"
       originy="0"
       spacingy="1"
       spacingx="1"
       units="px"
       visible="true" />
  </sodipodi:namedview>
  <defs
     id="defs5455">
    <linearGradient
       id="linearGradient4172-0">
      <stop
         style="stop-color:#f89406"
         id="stop4174-4" />
      <stop
         style="stop-color:#ffcc00;stop-opacity:1"
         id="stop1"
         offset="0.55395103" />
      <stop
         offset="1"
         style="stop-color:#fcc67b;stop-opacity:1;"
         id="stop4176-5" />
    </linearGradient>
    <clipPath
       clipPathUnits="userSpaceOnUse"
       id="clipPath79425-9-5-3">
      <rect
         style="opacity:0.5;fill:#000000;fill-opacity:1;stroke:none;stroke-width:0.855869;stroke-dasharray:none;stroke-opacity:1;paint-order:stroke fill markers"
         id="rect79427-1-9-6"
         width="26.417742"
         height="29.037542"
         x="-16.227774"
         y="-6.4845476" />
    </clipPath>
    <clipPath
       clipPathUnits="userSpaceOnUse"
       id="clipPath79425-9-5-5">
      <rect
         style="opacity:0.5;fill:#000000;fill-opacity:1;stroke:none;stroke-width:0.855869;stroke-dasharray:none;stroke-opacity:1;paint-order:stroke fill markers"
         id="rect79427-1-9-62"
         width="26.417742"
         height="29.037542"
         x="-16.227774"
         y="-6.4845476" />
    </clipPath>
    <linearGradient
       inkscape:collect="always"
       xlink:href="#linearGradient4172-0"
       id="linearGradient17"
       x1="392.57144"
       y1="536.79797"
       x2="444.57144"
       y2="507.798"
       gradientUnits="userSpaceOnUse"
       gradientTransform="translate(5e-6,-1.00015)" />
    <linearGradient
       inkscape:collect="always"
       xlink:href="#linearGradient4172-0"
       id="linearGradient4"
       gradientUnits="userSpaceOnUse"
       gradientTransform="translate(0.999952,3.023184)"
       x1="397.57144"
       y1="511.27505"
       x2="415.57144"
       y2="511.27505" />
    <linearGradient
       inkscape:collect="always"
       xlink:href="#linearGradient4172-0"
       id="linearGradient5"
       gradientUnits="userSpaceOnUse"
       gradientTransform="translate(-3.5e-5,-1.000139)"
       x1="386.38025"
       y1="541.81329"
       x2="439.20044"
       y2="499.79816" />
    <linearGradient
       inkscape:collect="always"
       xlink:href="#linearGradient4172-0"
       id="linearGradient3"
       x1="426.66748"
       y1="522.81891"
       x2="437.38965"
       y2="522.81891"
       gradientUnits="userSpaceOnUse"
       gradientTransform="translate(-0.61805,0.36106)" />
    <linearGradient
       inkscape:collect="always"
       xlink:href="#linearGradient4172-0"
       id="linearGradient6"
       x1="420.63684"
       y1="525.72369"
       x2="438.50717"
       y2="525.72369"
       gradientUnits="userSpaceOnUse"
       gradientTransform="translate(-0.61805,0.36106)" />
    <linearGradient
       inkscape:collect="always"
       xlink:href="#linearGradient4172-0"
       id="linearGradient7"
       x1="425.10385"
       y1="516.11749"
       x2="436.2728"
       y2="516.11749"
       gradientUnits="userSpaceOnUse"
       gradientTransform="translate(-0.61805,0.36106)" />
    <linearGradient
       inkscape:collect="always"
       xlink:href="#linearGradient4172-0"
       id="linearGradient8"
       x1="420.63626"
       y1="519.28204"
       x2="438.50659"
       y2="519.28204"
       gradientUnits="userSpaceOnUse"
       gradientTransform="translate(-0.61805,0.36106)" />
    <linearGradient
       inkscape:collect="always"
       xlink:href="#linearGradient4172-0"
       id="linearGradient10"
       x1="435.37903"
       y1="525.0575"
       x2="441.18958"
       y2="525.0575"
       gradientUnits="userSpaceOnUse"
       gradientTransform="translate(-0.61805,0.36106)" />
    <linearGradient
       inkscape:collect="always"
       xlink:href="#linearGradient4172-0"
       id="linearGradient11"
       x1="420.18948"
       y1="530.8606"
       x2="438.95331"
       y2="530.8606"
       gradientUnits="userSpaceOnUse"
       gradientTransform="translate(-0.61805,0.36106)" />
  </defs>
  <metadata
     id="metadata5458">
    <rdf:RDF>
      <cc:Work
         rdf:about="">
        <dc:format>image/svg+xml</dc:format>
        <dc:type
           rdf:resource="http://purl.org/dc/dcmitype/StillImage" />
      </cc:Work>
    </rdf:RDF>
  </metadata>
  <g
     inkscape:label="Capa 1"
     inkscape:groupmode="layer"
     id="layer1-2"
     transform="translate(-384.57143,-483.79801)">
    <path
       inkscape:connector-curvature="0"
       id="fill-3"
       d="m 393.5714,508.19785 3e-5,26.355 c -0.0932,0.57145 -0.23037,0.90721 -0.644,1.24501 l 49.644,-10e-6 c 1.25773,0 2,-0.20551 2,-1.99362 v -25.50638 c 0,-0.66722 -0.33428,-1.5 -1.9,-1.5 h -47.10899 c -0.99101,0 -1.99101,0 -1.99104,1.4 z"
       style="color:#1e92ff;opacity:0.4;fill:url(#linearGradient17);fill-opacity:0.4;fill-rule:nonzero;stroke:none;stroke-width:8.11634"
       sodipodi:nodetypes="ccccccccc" />
    <rect
       x="398.57135"
       y="512.79797"
       width="18"
       height="3"
       ry="1.5"
       stroke-width="5.07132"
       style="opacity:0.8;fill:url(#linearGradient4);fill-opacity:1;paint-order:stroke markers fill"
       id="rect12-5-9-3-9-7-7-9"
       rx="1.5000117" />
    <path
       d="m 443.46966,504.80701 -0.89826,-0.009 v -2.5759 c -0.002,-1.58874 -1,-3.4241 -3.371,-3.4241 h -21.84697 c -3.78203,0 -3.78203,-1 -5.08103,-2.46383 l -1.527,-2.91564 c -0.52262,-0.98802 -1.70328,-1.61594 -2.88972,-1.62053 h -18.28425 c -1.71233,0.002 -2.99826,1.41164 -3,3 l 10e-6,39.5 c 0,2.0466 1.46781,3.5 3.4,3.5 h 53.49825 c 1.71233,-0.002 3.1,-1.28887 3.10174,-2.87723 v -27.23662 c -0.002,-1.58827 -1.3895,-2.87535 -3.10174,-2.877 z m -54.89826,29.49085 v -38.5 c 7.7e-4,-0.82599 0,-2 2,-2 h 15.7 c 1,0 2.1,0 2.736,1.324 l 1.526,2.515 c 1.21959,2.31102 3.038,3.161 6.038,3.161 l 22.53,-2e-5 c 0.89087,4.4e-4 1.46876,0.69766 1.47001,1.52402 v 2.48513 l -46,-0.009 c -2,0 -3,1 -3,3 v 26.49987 c -0.0453,1.95192 -2.95472,1.95192 -3.00001,0 z m 56,-0.5 c 0,2 -1.10954,1.99931 -2,2 h -50 c 0,0 1,0.34375 1,-1.5 v -25.5 c 0,-1.38848 0,-2 2,-2 h 47 c 2,0 1.99923,1.17399 2,2 z"
       id="path6-5-2-5-1"
       style="fill:url(#linearGradient5)"
       sodipodi:nodetypes="cccccccccccccccccccccccccccccccccccccccc" />
    <path
       d="m 437.88855,531.8173 h -17.87036 c -0.24618,0 -0.44676,-0.34953 -0.44676,-0.59571 0,-0.2461 0.2006,-0.59562 0.44676,-0.59562 h 17.87036 c 0.24617,0 0.4467,0.34952 0.4467,0.59562 0,0.24618 -0.20052,0.59571 -0.4467,0.59571 z"
       id="path2-3-2-4-4"
       style="color:#eff0f1;fill:url(#linearGradient11);stroke-width:0.044676"
       sodipodi:nodetypes="sssssss"
       class="ColorScheme-Text" />
    <path
       d="m 435.20931,528.5411 h -0.002 c -0.23586,0 -0.43151,-0.18457 -0.44546,-0.42042 -0.0152,-0.24577 0.17334,-0.45751 0.41957,-0.47227 h 4.1e-4 c 0.002,-4.6e-4 0.007,-8.7e-4 0.0152,-9.7e-4 0.021,-0.002 0.0435,-0.004 0.0682,-0.007 0.0573,-0.006 0.15189,-0.0203 0.27387,-0.0443 0.21849,-0.0432 0.56162,-0.12923 0.95649,-0.29043 1.01511,-0.41551 1.84202,-1.09365 2.45675,-2.01529 0.68445,-1.0173 0.72694,-1.51591 0.72373,-1.64458 -8.9e-4,-0.118 -0.0245,-0.1742 -0.0477,-0.21399 -0.0287,-0.0465 -0.0672,-0.0812 -0.12866,-0.11613 -0.13269,-0.0778 -0.38825,-0.12601 -0.66791,-0.12601 -0.006,0 -0.0135,0 -0.0199,0 h -0.009 c -0.54953,0 -1.18841,0.15767 -1.29113,0.18848 -0.004,9e-4 -0.004,9e-4 -0.004,9e-4 -0.0399,0.0116 -0.0815,0.0175 -0.12287,0.0175 -0.19834,0 -0.37481,-0.13315 -0.42934,-0.32399 -0.0335,-0.11476 -0.019,-0.23539 0.0386,-0.33992 0.0577,-0.10438 0.15325,-0.17962 0.26805,-0.21266 8.9e-4,0 0.007,-0.002 0.0167,-0.004 0.24256,-0.0657 0.87743,-0.21802 1.53458,-0.22031 0.33466,9.2e-4 0.60409,0.0386 0.84841,0.11936 0.2279,0.0748 0.54014,0.23226 0.73448,0.55661 0.11528,0.19075 0.176,0.424 0.17513,0.67373 -0.006,0.57588 -0.27614,1.23572 -0.8739,2.13995 -0.39271,0.58972 -0.87068,1.1017 -1.42023,1.52216 -0.44095,0.33727 -0.92609,0.61472 -1.44209,0.82515 -0.83412,0.33993 -1.47614,0.39936 -1.59629,0.40785 h -0.002 c -0.008,4.2e-4 -0.0175,8.9e-4 -0.0253,8.9e-4 z"
       id="path6-6-9-5-5"
       style="color:#eff0f1;fill:url(#linearGradient10);stroke-width:0.044676"
       class="ColorScheme-Text" />
    <path
       d="m 437.44179,521.39294 h -9.38188 c -0.24625,0 -0.44678,-0.20059 -0.44678,-0.44677 0,-0.24618 0.20052,-0.44678 0.44678,-0.44678 h 8.56286 v -1.34032 h -15.33878 v 1.34032 h 2.30827 c 0.24617,0 0.44676,0.2006 0.44676,0.44678 0,0.24618 -0.20059,0.44677 -0.44676,0.44677 h -3.12727 c -0.11753,0 -0.23281,-0.0477 -0.31588,-0.13097 -0.0832,-0.0832 -0.1309,-0.19834 -0.1309,-0.3158 v -2.23379 c 0,-0.11754 0.0477,-0.60492 0.1309,-0.68805 0.0832,-0.0832 0.19834,-0.13105 0.31588,-0.13105 h 16.97681 c 0.11752,0 0.23277,0.0479 0.31581,0.13105 0.0832,0.0832 0.13094,0.57051 0.13094,0.68805 v 2.23379 c 0,0.11746 -0.0477,0.23271 -0.13094,0.3158 -0.0831,0.0832 -0.19832,0.13097 -0.31582,0.13097 z m -11.61575,0 c -0.24664,0 -0.44677,-0.20059 -0.44677,-0.44677 0,-0.24618 0.20013,-0.44678 0.44677,-0.44678 0.24618,0 0.44677,0.2006 0.44677,0.44678 0,0.24618 -0.20059,0.44677 -0.44677,0.44677 z"
       id="path10-7-3-0-0"
       style="color:#eff0f1;fill:url(#linearGradient8);stroke-width:0.044676"
       sodipodi:nodetypes="ssssccccsssssssssscsscssssss"
       class="ColorScheme-Text" />
    <path
       d="m 428.0599,519.15907 c -0.24624,0 -0.44676,-0.20052 -0.44676,-0.44669 v -0.89355 c 0,-0.3578 0.13932,-0.69467 0.39271,-0.94755 0.2528,-0.25292 0.58926,-0.39271 0.94753,-0.39271 h 5.36114 c 0.24564,-4.5e-4 0.44631,-0.20106 0.44676,-0.44677 -4.8e-4,-0.2457 -0.20115,-0.4463 -0.44676,-0.44669 h -8.48849 c -0.35783,0 -0.69467,-0.13946 -0.94759,-0.39273 -0.25326,-0.25293 -0.39263,-0.58927 -0.39263,-0.9476 0,-0.24617 0.20058,-0.44677 0.44668,-0.44677 0.24624,0 0.44678,0.2006 0.44678,0.44677 4.7e-4,0.24572 0.20107,0.44631 0.44676,0.44678 h 8.48849 c 0.35825,0 0.69466,0.13932 0.94752,0.39271 0.25334,0.2528 0.39272,0.58967 0.39272,0.94753 0,0.35833 -0.13938,0.69468 -0.39272,0.94761 -0.25286,0.25326 -0.58927,0.39264 -0.94752,0.39264 h -5.36114 c -0.24576,4.6e-4 -0.4463,0.20107 -0.44678,0.44678 v 0.89355 c 0,0.24617 -0.20059,0.44669 -0.4467,0.44669 z"
       id="path14-5-9-3-3"
       style="color:#eff0f1;fill:url(#linearGradient7);stroke-width:0.044676"
       class="ColorScheme-Text" />
    <path
       d="m 430.32853,531.66837 h -2.71501 c -0.0327,0 -0.0577,-0.002 -0.0898,-0.008 -1.01458,-0.20818 -1.98849,-0.62947 -2.89448,-1.2518 -0.87886,-0.60405 -1.577,-1.24596 -2.25115,-2.16797 -0.19902,-0.29429 -0.0495,-0.64714 0.16056,-0.81619 0.0766,-0.0561 0.23871,-0.12936 0.40736,-0.17577 0.17018,-0.0469 0.42596,0.0688 0.51002,0.18317 1.23394,1.68745 2.43839,2.5986 4.20354,2.97168 h 2.62287 c 1.7638,-0.37343 3.03931,-1.13999 4.26659,-2.83362 1.24823,-1.72182 1.98127,-3.91541 2.06479,-6.17602 h -15.32985 c 0.0295,0.78093 0.14448,1.55786 0.32541,2.30926 0.007,0.0351 0.0125,0.0708 0.0125,0.10642 -0.0695,0.23732 -0.28591,0.3656 -0.48691,0.41386 -0.0347,0.007 -0.14833,0.0315 -0.18323,0.0315 -0.20731,0 -0.53476,-0.14073 -0.58345,-0.34221 -0.20099,-0.8359 -0.31627,-1.69951 -0.3435,-2.56665 -0.004,-0.15144 -0.006,-0.27832 -0.006,-0.39848 0,-0.11753 0.0478,-0.2328 0.13097,-0.31587 0.0832,-0.0832 0.19829,-0.1309 0.31574,-0.1309 h 16.97685 c 0.11761,0 0.23286,0.0477 0.3159,0.13088 0.0832,0.0832 0.13086,0.19836 0.13086,0.31589 0,0.12104 -0.002,0.24792 -0.006,0.39848 -0.0386,1.25361 -0.25779,2.48129 -0.65093,3.64776 -0.38106,1.13031 -0.91453,2.17346 -1.58599,3.10094 -0.67105,0.92615 -1.45603,1.70305 -2.33299,2.30932 -0.90472,0.62545 -1.87821,1.04808 -2.89363,1.25671 -0.032,0.006 -0.0573,0.008 -0.0898,0.008 z m -8.80169,-5.30529 c -0.17509,0 -0.33454,-0.10284 -0.40696,-0.26174 v -4.6e-4 c -0.05,-0.10853 -0.0537,-0.23009 -0.0116,-0.34138 0.042,-0.1117 0.12468,-0.20053 0.23366,-0.25019 0.0585,-0.0261 0.12063,-0.0394 0.18454,-0.0394 0.17463,0 0.33461,0.10285 0.40697,0.26183 v 4.8e-4 c 0.1021,0.22421 0.002,0.4891 -0.22203,0.59102 -0.0582,0.0268 -0.12063,0.0399 -0.18453,0.0399 z"
       id="path22-3-0-6-6"
       style="color:#eff0f1;fill:url(#linearGradient6);stroke-width:0.044676"
       sodipodi:nodetypes="ssccccscccccccccsccsssscscccccssccccscccs"
       class="ColorScheme-Text" />
    <path
       d="m 436.3249,523.62673 h -9.82873 c -0.24617,0 -0.44675,-0.20066 -0.44675,-0.44677 0,-0.24617 0.20058,-0.44678 0.44675,-0.44678 h 9.82873 c 0.24613,0 0.44671,0.20061 0.44671,0.44678 0,0.24611 -0.2006,0.44677 -0.44671,0.44677 z"
       id="path26-5-8-1-1"
       style="color:#eff0f1;fill:url(#linearGradient3);stroke-width:0.044676"
       class="ColorScheme-Text" />
  </g>
</svg>
