<?xml version="1.0" encoding="UTF-8" standalone="no"?>
<svg
   width="64"
   version="1.1"
   height="64"
   id="svg17"
   sodipodi:docname="network-workgroup.svg"
   inkscape:version="1.3 (0e150ed6c4, 2023-07-21)"
   xmlns:inkscape="http://www.inkscape.org/namespaces/inkscape"
   xmlns:sodipodi="http://sodipodi.sourceforge.net/DTD/sodipodi-0.dtd"
   xmlns:xlink="http://www.w3.org/1999/xlink"
   xmlns="http://www.w3.org/2000/svg"
   xmlns:svg="http://www.w3.org/2000/svg"
   xmlns:rdf="http://www.w3.org/1999/02/22-rdf-syntax-ns#"
   xmlns:cc="http://creativecommons.org/ns#"
   xmlns:dc="http://purl.org/dc/elements/1.1/">
  <sodipodi:namedview
     pagecolor="#ffffff"
     bordercolor="#666666"
     borderopacity="1"
     objecttolerance="10"
     gridtolerance="10"
     guidetolerance="10"
     inkscape:pageopacity="0"
     inkscape:pageshadow="2"
     inkscape:window-width="1920"
     inkscape:window-height="994"
     id="namedview19"
     showgrid="true"
     inkscape:zoom="6.9384853"
     inkscape:cx="35.3103"
     inkscape:cy="31.346899"
     inkscape:window-x="0"
     inkscape:window-y="0"
     inkscape:window-maximized="1"
     inkscape:current-layer="layer1"
     inkscape:document-rotation="0"
     inkscape:showpageshadow="2"
     inkscape:pagecheckerboard="0"
     inkscape:deskcolor="#d1d1d1">
    <inkscape:grid
       type="xygrid"
       id="grid877"
       originx="0"
       originy="0"
       spacingy="1"
       spacingx="1"
       units="px"
       visible="true" />
  </sodipodi:namedview>
  <defs
     id="defs5455">
    <clipPath
       clipPathUnits="userSpaceOnUse"
       id="clipPath79425-9-5-3">
      <rect
         style="opacity:0.5;fill:#000000;fill-opacity:1;stroke:none;stroke-width:0.855869;stroke-dasharray:none;stroke-opacity:1;paint-order:stroke fill markers"
         id="rect79427-1-9-6"
         width="26.417742"
         height="29.037542"
         x="-16.227774"
         y="-6.4845476" />
    </clipPath>
    <clipPath
       clipPathUnits="userSpaceOnUse"
       id="clipPath79425-9-5-5">
      <rect
         style="opacity:0.5;fill:#000000;fill-opacity:1;stroke:none;stroke-width:0.855869;stroke-dasharray:none;stroke-opacity:1;paint-order:stroke fill markers"
         id="rect79427-1-9-62"
         width="26.417742"
         height="29.037542"
         x="-16.227774"
         y="-6.4845476" />
    </clipPath>
    <linearGradient
       inkscape:collect="always"
       xlink:href="#linearGradient9"
       id="linearGradient17"
       x1="392.57144"
       y1="536.79797"
       x2="444.57144"
       y2="507.798"
       gradientUnits="userSpaceOnUse"
       gradientTransform="translate(0,-1.6e-4)" />
    <linearGradient
       id="linearGradient9"
       inkscape:collect="always">
      <stop
         style="stop-color:#3385ff;stop-opacity:1"
         offset="0"
         id="stop7" />
      <stop
         style="stop-color:#3aacbe;stop-opacity:1;"
         offset="0.48888862"
         id="stop8" />
      <stop
         style="stop-color:#b07bff;stop-opacity:1;"
         offset="1"
         id="stop9" />
    </linearGradient>
    <linearGradient
       inkscape:collect="always"
       xlink:href="#linearGradient24"
       id="linearGradient4"
       gradientUnits="userSpaceOnUse"
       gradientTransform="translate(0.999947,4.023174)"
       x1="397.57144"
       y1="511.27505"
       x2="415.57144"
       y2="511.27505" />
    <linearGradient
       id="linearGradient24"
       inkscape:collect="always">
      <stop
         style="stop-color:#5398ff;stop-opacity:1;"
         offset="0"
         id="stop22" />
      <stop
         style="stop-color:#61c0cf;stop-opacity:1"
         offset="0.48888862"
         id="stop23" />
      <stop
         style="stop-color:#b07bff;stop-opacity:1;"
         offset="1"
         id="stop24" />
    </linearGradient>
    <linearGradient
       inkscape:collect="always"
       xlink:href="#linearGradient12"
       id="linearGradient5"
       gradientUnits="userSpaceOnUse"
       gradientTransform="translate(-4e-5,-1.49e-4)"
       x1="386.38025"
       y1="541.81329"
       x2="439.20044"
       y2="499.79816" />
    <linearGradient
       id="linearGradient12"
       inkscape:collect="always">
      <stop
         style="stop-color:#5398ff;stop-opacity:1;"
         offset="0"
         id="stop10" />
      <stop
         style="stop-color:#47b7c7;stop-opacity:1;"
         offset="0.48888862"
         id="stop11" />
      <stop
         style="stop-color:#b07bff;stop-opacity:1;"
         offset="1"
         id="stop12" />
    </linearGradient>
    <linearGradient
       inkscape:collect="always"
       xlink:href="#linearGradient24"
       id="linearGradient2"
       x1="420.11682"
       y1="517.5434"
       x2="439.02603"
       y2="517.5434"
       gradientUnits="userSpaceOnUse"
       gradientTransform="translate(1.99957,-1.00015)" />
    <linearGradient
       inkscape:collect="always"
       xlink:href="#linearGradient24"
       id="linearGradient3"
       x1="435.50165"
       y1="517.5434"
       x2="437.16174"
       y2="517.5434"
       gradientUnits="userSpaceOnUse"
       gradientTransform="translate(1.99957,-1.00015)" />
    <linearGradient
       inkscape:collect="always"
       xlink:href="#linearGradient24"
       id="linearGradient6"
       x1="420.11682"
       y1="530.05261"
       x2="439.02603"
       y2="530.05261"
       gradientUnits="userSpaceOnUse"
       gradientTransform="translate(1.99957,-1.00015)" />
    <linearGradient
       inkscape:collect="always"
       xlink:href="#linearGradient24"
       id="linearGradient7"
       x1="435.50165"
       y1="530.05225"
       x2="437.16174"
       y2="530.05225"
       gradientUnits="userSpaceOnUse"
       gradientTransform="translate(1.99957,-1.00015)" />
    <linearGradient
       inkscape:collect="always"
       xlink:href="#linearGradient24"
       id="linearGradient8"
       x1="420.11682"
       y1="523.79803"
       x2="439.02603"
       y2="523.79803"
       gradientUnits="userSpaceOnUse"
       gradientTransform="translate(1.99957,-1.00015)" />
    <linearGradient
       inkscape:collect="always"
       xlink:href="#linearGradient24"
       id="linearGradient10"
       x1="435.50165"
       y1="523.79779"
       x2="437.16174"
       y2="523.79779"
       gradientUnits="userSpaceOnUse"
       gradientTransform="translate(1.99957,-1.00015)" />
  </defs>
  <metadata
     id="metadata5458">
    <rdf:RDF>
      <cc:Work
         rdf:about="">
        <dc:format>image/svg+xml</dc:format>
        <dc:type
           rdf:resource="http://purl.org/dc/dcmitype/StillImage" />
      </cc:Work>
    </rdf:RDF>
  </metadata>
  <g
     inkscape:label="Capa 1"
     inkscape:groupmode="layer"
     id="layer1"
     transform="translate(-384.57143,-483.798)">
    <path
       inkscape:connector-curvature="0"
       id="fill-3"
       d="m 393.5714,509.19784 3e-5,26.355 c -0.0932,0.57145 -0.23037,0.90721 -0.644,1.24501 l 49.644,-1e-5 c 1.25773,0 2,-0.20551 2,-1.99362 v -25.50638 c 0,-0.66722 -0.33428,-1.5 -1.9,-1.5 h -47.10899 c -0.99101,0 -1.99101,0 -1.99104,1.4 z"
       style="color:#1e92ff;opacity:0.4;fill:url(#linearGradient17);fill-opacity:0.4;fill-rule:nonzero;stroke:none;stroke-width:8.11634"
       sodipodi:nodetypes="ccccccccc" />
    <rect
       x="398.57138"
       y="513.79816"
       width="18"
       height="3"
       ry="1.5"
       stroke-width="5.07132"
       style="opacity:0.8;fill:url(#linearGradient4);fill-opacity:1;paint-order:stroke markers fill"
       id="rect12-5-9-3-9-7-7-9"
       rx="1.5000117" />
    <path
       d="m 443.46966,505.807 -0.89826,-0.009 v -2.5759 c -0.002,-1.58874 -1,-3.4241 -3.371,-3.4241 h -21.84697 c -3.78203,0 -3.78203,-1 -5.08103,-2.46383 l -1.527,-2.91564 c -0.52262,-0.98802 -1.70328,-1.61594 -2.88973,-1.62053 h -18.28424 c -1.71234,0.002 -2.99827,1.41164 -3,3 l 10e-6,39.5 c 0,2.0466 1.46781,3.5 3.4,3.5 h 53.49825 c 1.71233,-0.002 3.1,-1.28887 3.10174,-2.87723 v -27.23662 c -0.002,-1.58827 -1.3895,-2.87535 -3.10174,-2.877 z m -54.89826,29.49085 v -38.5 c 7.7e-4,-0.82599 0,-2 2,-2 h 15.7 c 1,0 2.1,0 2.736,1.324 l 1.526,2.515 c 1.21959,2.31102 3.038,3.161 6.038,3.161 l 22.53,-2e-5 c 0.89087,4.4e-4 1.46876,0.69766 1.47,1.52402 v 2.48513 l -46,-0.009 c -2,0 -3,1 -3,3 v 26.49987 c -0.0453,1.95192 -2.95472,1.95192 -3,0 z m 56,-0.5 c 0,2 -1.10954,1.99931 -2,2 h -50 c 0,0 1,0.34375 1,-1.5 v -25.5 c 0,-1.38848 0,-2 2,-2 h 47 c 2,0 1.99923,1.17399 2,2 z"
       id="path6-5-2-5-1"
       style="fill:url(#linearGradient5)"
       sodipodi:nodetypes="cccccccccccccccccccccccccccccccccccccccc" />
    <path
       d="m 439.96053,519.28859 h -16.77905 c -0.58735,0 -1.06508,-0.48567 -1.06508,-1.08266 v -3.32531 c 0,-0.59713 0.47773,-1.08277 1.06508,-1.08277 h 16.77904 c 0.58735,0 1.06509,0.48564 1.06509,1.08264 v 3.32544 c 0,0.59699 -0.47773,1.08266 -1.06508,1.08266 z m -16.77905,-4.69475 c -0.14834,0 -0.2691,0.12871 -0.2691,0.28678 v 3.32531 c 0,0.1581 0.12076,0.28671 0.2691,0.28671 h 16.77904 c 0.14829,0 0.26909,-0.12861 0.26909,-0.28671 v -3.32544 c 0,-0.15811 -0.1208,-0.28665 -0.26909,-0.28665 z"
       id="path2-2-7-6"
       style="fill:url(#linearGradient2);stroke-width:0.20709" />
    <ellipse
       cx="438.3313"
       cy="516.54346"
       rx="0.83005428"
       ry="0.82885551"
       id="ellipse6-8-6-5"
       style="fill:url(#linearGradient3);stroke-width:0.20709" />
    <path
       d="m 439.96053,531.79785 h -16.77905 c -0.58735,0 -1.06508,-0.48579 -1.06508,-1.08294 v -3.32514 c 0,-0.59697 0.47773,-1.08264 1.06508,-1.08264 h 16.77904 c 0.58735,0 1.06509,0.48567 1.06509,1.08264 v 3.32514 c 0,0.59716 -0.47773,1.08294 -1.06508,1.08294 z m -16.77905,-4.69479 c -0.14834,0 -0.2691,0.12861 -0.2691,0.28671 v 3.32514 c 0,0.15824 0.12076,0.28696 0.2691,0.28696 h 16.77904 c 0.14829,0 0.26909,-0.12872 0.26909,-0.28696 v -3.32514 c 0,-0.1581 -0.1208,-0.28671 -0.26909,-0.28671 z"
       id="path10-3-9-3-6"
       style="fill:url(#linearGradient6);stroke-width:0.20709" />
    <ellipse
       cx="438.3313"
       cy="529.05231"
       rx="0.83005428"
       ry="0.82885599"
       id="ellipse14-3-1-3"
       style="fill:url(#linearGradient7);stroke-width:0.20709" />
    <path
       d="m 439.96053,525.54316 h -16.77905 c -0.58735,0 -1.06508,-0.48569 -1.06508,-1.08264 v -3.32535 c 0,-0.59694 0.47773,-1.08262 1.06508,-1.08262 h 16.77904 c 0.58735,0 1.06509,0.48568 1.06509,1.08262 v 3.32535 c 0,0.59695 -0.47773,1.08264 -1.06508,1.08264 z m -16.77905,-4.69463 c -0.14834,0 -0.2691,0.12858 -0.2691,0.28664 v 3.32535 c 0,0.15809 0.12076,0.28666 0.2691,0.28666 h 16.77904 c 0.14829,0 0.26909,-0.12857 0.26909,-0.28666 v -3.32535 c 0,-0.15806 -0.1208,-0.28664 -0.26909,-0.28664 z"
       id="path18-6-7-9"
       style="fill:url(#linearGradient8);stroke-width:0.20709" />
    <ellipse
       cx="438.3313"
       cy="522.79785"
       rx="0.83005428"
       ry="0.82885551"
       id="ellipse22-8-5-4"
       style="fill:url(#linearGradient10);stroke-width:0.20709" />
  </g>
</svg>
