<?xml version="1.0" encoding="UTF-8" standalone="no"?>
<svg
   width="22"
   height="22"
   version="1.1"
   id="svg2"
   sodipodi:docname="notification-inactive.svg"
   inkscape:version="1.3.2 (091e20ef0f, 2023-11-25)"
   xmlns:inkscape="http://www.inkscape.org/namespaces/inkscape"
   xmlns:sodipodi="http://sodipodi.sourceforge.net/DTD/sodipodi-0.dtd"
   xmlns="http://www.w3.org/2000/svg"
   xmlns:svg="http://www.w3.org/2000/svg">
  <defs
     id="defs2" />
  <sodipodi:namedview
     id="namedview2"
     pagecolor="#ffffff"
     bordercolor="#999999"
     borderopacity="1"
     inkscape:showpageshadow="2"
     inkscape:pageopacity="0"
     inkscape:pagecheckerboard="0"
     inkscape:deskcolor="#d1d1d1"
     showgrid="true"
     inkscape:zoom="17.318182"
     inkscape:cx="10.740157"
     inkscape:cy="6.5249344"
     inkscape:window-width="1920"
     inkscape:window-height="994"
     inkscape:window-x="0"
     inkscape:window-y="0"
     inkscape:window-maximized="1"
     inkscape:current-layer="svg2">
    <inkscape:grid
       id="grid2"
       units="px"
       originx="0"
       originy="0"
       spacingx="1"
       spacingy="1"
       empcolor="#0099e5"
       empopacity="0.30196078"
       color="#0099e5"
       opacity="0.14901961"
       empspacing="5"
       dotted="false"
       gridanglex="30"
       gridanglez="30"
       visible="true" />
  </sodipodi:namedview>
  <style
     type="text/css"
     id="current-color-scheme">.ColorScheme-Text{color:#232629;}.ColorScheme-ButtonFocus{color:#3daee9;}.ColorScheme-NegativeText { color: #da4453; } </style>
  <g
     id="22-22-notification-inactive"
     transform="translate(-171.82494,-691.24548)">
    <rect
       ry="4.9089572e-06"
       y="691.24548"
       x="171.82494"
       height="22"
       width="22"
       id="rect1383-2"
       style="opacity:0.003;fill:#ff1f1f;fill-opacity:1;stroke:none;stroke-width:0.408;stroke-miterlimit:4;stroke-dasharray:none;stroke-opacity:1" />
    <path
       d="m 189.49224,695.24741 -13.33461,0.004 v 0 c -0.66635,0 -1.3327,0.66644 -1.3327,1.33285 l 0.008,9.38423 c 0,0.6664 0.66635,1.27699 1.3327,1.27699 v 0 h 3.6597 l 2.55271,3.76259 1.2e-4,-1.1e-4 c 0.0989,0.14853 0.26523,0.23735 0.44349,0.23735 0.17826,0 0.34459,-0.0888 0.4435,-0.23735 l 2.56018,-3.76248 h 3 0.6673 c 0.66635,0 1.3327,-0.61051 1.33269,-1.27699 l 1e-5,-9.39016 c 0,-0.66641 -0.66635,-1.33285 -1.3327,-1.33285 z m 0.33269,9.99783 c 0,1.00003 0,1.00003 -1,1.00003 h -3.507 c -0.17826,-1.1e-4 -0.54486,0.57989 -0.64386,0.72843 l -1.85293,2.78082 -1.85321,-2.7792 c -0.099,-0.14816 -0.36475,-0.73005 -0.543,-0.73005 h -3.6 c -1,0 -1,0 -1,-1.00003 v -7.99997 c 0,-1.00003 0,-1.00003 1,-1.00003 h 12 c 1,0 1,0 1,1.00003 z"
       id="path2-3-6"
       style="color:#d6dbf1;fill:#d3dae3;fill-opacity:1;stroke-width:0.0304633"
       sodipodi:nodetypes="ccccccccccscccccccccccccccccccccc"
       class="ColorScheme-Text" />
    <path
       d="m 177.82493,698.24547 h 10 v 0.99999 h -10 z"
       id="path4-5-2"
       style="color:#d6dbf1;fill:#d3dae3;fill-opacity:1;stroke-width:0.0304647"
       class="ColorScheme-Text"
       sodipodi:nodetypes="ccccc" />
    <path
       d="m 177.82493,701.24547 h 6 v 0.99999 h -6 z"
       id="path8-2-1"
       style="color:#d6dbf1;fill:#d3dae3;fill-opacity:1;stroke-width:0.0304647"
       class="ColorScheme-Text"
       sodipodi:nodetypes="ccccc" />
  </g>
</svg>
