<?xml version="1.0" encoding="UTF-8" standalone="no"?>
<svg
   width="22"
   height="22"
   version="1.1"
   id="svg1"
   sodipodi:docname="applications-all-symbolic.svg"
   inkscape:version="1.3.2 (091e20ef0f, 2023-11-25)"
   xmlns:inkscape="http://www.inkscape.org/namespaces/inkscape"
   xmlns:sodipodi="http://sodipodi.sourceforge.net/DTD/sodipodi-0.dtd"
   xmlns:xlink="http://www.w3.org/1999/xlink"
   xmlns="http://www.w3.org/2000/svg"
   xmlns:svg="http://www.w3.org/2000/svg">
  <sodipodi:namedview
     id="namedview1"
     pagecolor="#ffffff"
     bordercolor="#999999"
     borderopacity="1"
     inkscape:showpageshadow="2"
     inkscape:pageopacity="0"
     inkscape:pagecheckerboard="0"
     inkscape:deskcolor="#d1d1d1"
     inkscape:zoom="12.245804"
     inkscape:cx="11.350827"
     inkscape:cy="-1.7965338"
     inkscape:window-width="1920"
     inkscape:window-height="994"
     inkscape:window-x="0"
     inkscape:window-y="0"
     inkscape:window-maximized="1"
     inkscape:current-layer="svg1" />
  <defs
     id="defs1">
    <linearGradient
       inkscape:collect="always"
       xlink:href="#linearGradient851"
       id="linearGradient1130"
       x1="11"
       y1="1"
       x2="19.521629"
       y2="16.211727"
       gradientUnits="userSpaceOnUse" />
    <linearGradient
       inkscape:collect="always"
       id="linearGradient851">
      <stop
         style="stop-color:#ffc299;stop-opacity:1"
         offset="0"
         id="stop845" />
      <stop
         style="stop-color:#ff67ff;stop-opacity:1"
         offset="1"
         id="stop847" />
    </linearGradient>
    <linearGradient
       inkscape:collect="always"
       xlink:href="#linearGradient851"
       id="linearGradient6"
       x1="4.9998436"
       y1="10.999999"
       x2="17.000156"
       y2="10.999999"
       gradientUnits="userSpaceOnUse" />
    <linearGradient
       inkscape:collect="always"
       xlink:href="#linearGradient851"
       id="linearGradient7"
       x1="8.6303854"
       y1="10.970925"
       x2="13.428636"
       y2="10.970925"
       gradientUnits="userSpaceOnUse" />
  </defs>
  <style
     type="text/css"
     id="current-color-scheme">
      .ColorScheme-Text {
        color:#eff0f1;
      }
      .ColorScheme-Background{
        color:#E9E8E8;
      }
      .ColorScheme-ViewText {
        color:#31363b;
      }
      .ColorScheme-ViewBackground{
        color:#ffffff;
      }
      .ColorScheme-ViewHover {
        color:#000000;
      }
      .ColorScheme-ViewFocus{
        color:#5a5a5a;
      }
      .ColorScheme-ButtonText {
        color:#31363b;
      }
      .ColorScheme-ButtonBackground{
        color:#E9E8E8;
      }
      .ColorScheme-ButtonHover {
        color:#1489ff;
      }
      .ColorScheme-ButtonFocus{
        color:#2B74C7;
      }
</style>
  <g
     id="22-22-applications-other">
    <path
       style="clip-rule:evenodd;fill:#ffffc1;fill-opacity:0;fill-rule:evenodd;stroke-width:0.688964;stroke-linejoin:round;stroke-miterlimit:1.41421"
       d="M 0,0 V 22 H 22 V 0 Z"
       id="rect817-5"
       inkscape:connector-curvature="0" />
    <path
       d="m 10.988683,20.999998 c -0.534733,0 -1.0695158,-0.0467 -1.6042298,-0.13947 -5.4406131,-0.88329 -9.13746911,-6.02017 -8.2539761,-11.45928 0.418494,-2.6264998 1.860106,-4.9509298 4.022347,-6.5082398 2.16232,-1.55735 4.8128881,-2.18493016 7.4401579,-1.76655 5.440618,0.88323 9.160693,6.02018 8.277175,11.4592198 -0.162753,1.046 -0.488266,2.04546 -0.97652,2.97528 -0.116252,0.23239 -0.232505,0.44159 -0.372007,0.65077 -0.209257,0.32541 -0.627769,0.44165 -0.953272,0.23252 -0.325513,-0.20925 -0.441762,-0.62764 -0.232504,-0.95308 0.116247,-0.18593 0.209247,-0.37192 0.325507,-0.55786 0.418508,-0.79031 0.697506,-1.67356 0.837014,-2.55683 0.744015,-4.6719898 -2.441303,-9.1115498 -7.137902,-9.8554298 -2.278521,-0.37189 -4.5338529,0.1627 -6.4171779,1.51088 -1.859977,1.34819 -3.092299,3.32384 -3.464276,5.6017698 -0.767293,4.67203 2.441296,9.11161 7.1146361,9.85542 1.9995638,0.32544 4.0456018,-0.0694 5.7661388,-1.09242 0.325497,-0.18595 0.767258,-0.0929 0.953264,0.23239 0.186002,0.32544 0.09301,0.76713 -0.232508,0.95307 -1.534523,0.92968 -3.301564,1.41784 -5.091867,1.41784 z"
       id="path2-53-6"
       style="fill:url(#linearGradient1130);fill-opacity:1;stroke-width:0.232469" />
    <path
       d="m 11.000145,6.2020329 a 0.59978126,0.59978126 0 0 0 -0.599773,0.599773 c 0,1.0148353 -1.2271479,1.5234557 -1.945096,0.8055079 A 0.59978126,0.59978126 0 1 0 7.6071941,8.4553899 C 8.3251214,9.1733393 7.817192,10.400487 6.8016905,10.400487 a 0.5997852,0.5997852 0 1 0 0,1.19957 c 1.0148356,0 1.5234525,1.227136 0.8055036,1.945083 a 0.59978126,0.59978126 0 0 0 0.8480819,0.848088 c 0.7179481,-0.717923 1.945096,-0.21 1.945096,0.805505 a 0.59978346,0.59978346 0 1 0 1.199558,0 c 0,-1.014837 1.227153,-1.523449 1.945098,-0.805505 a 0.59978126,0.59978126 0 1 0 0.848089,-0.848088 c -0.717934,-0.717925 -0.209998,-1.945083 0.805493,-1.945083 a 0.5997852,0.5997852 0 1 0 0,-1.19957 c -1.014835,0 -1.52344,-1.2271477 -0.805493,-1.9450971 A 0.59978126,0.59978126 0 0 0 13.545028,7.6073137 C 12.827107,8.3252404 11.59993,7.8173119 11.59993,6.8018059 A 0.59978126,0.59978126 0 0 0 11.000145,6.2020329 Z M 9.2056016,6.6680771 a 1.7993439,1.7993439 0 0 1 3.5890984,0 1.7993439,1.7993439 0 0 1 2.53707,2.5376679 1.7993439,1.7993439 0 0 1 6e-4,3.5891 1.7993439,1.7993439 0 0 1 -2.53767,2.537076 1.7993439,1.7993439 0 0 1 -3.5890984,0 1.7993439,1.7993439 0 0 1 -2.5376723,-2.537076 1.7993439,1.7993439 0 0 1 0,-3.5891 1.7993439,1.7993439 0 0 1 2.5376723,-2.5376679 z"
       id="path1-6"
       style="fill:url(#linearGradient6);stroke-width:0.59979" />
    <path
       d="m 11.000145,9.8007232 a 1.1995623,1.1995623 0 1 0 0,2.3991168 1.1995623,1.1995623 0 0 0 0,-2.3991168 z M 9.3039619,9.3041066 A 2.3991253,2.3991253 0 1 1 12.696332,12.696471 2.3991253,2.3991253 0 0 1 9.3039619,9.3041066 Z"
       id="path2"
       style="fill:url(#linearGradient7);stroke-width:0.59979" />
  </g>
</svg>
