<?xml version="1.0" encoding="UTF-8" standalone="no"?>
<svg
   height="64"
   width="64"
   version="1.1"
   id="svg27"
   sodipodi:docname="folder-games.svg"
   inkscape:version="1.3 (0e150ed6c4, 2023-07-21)"
   xmlns:inkscape="http://www.inkscape.org/namespaces/inkscape"
   xmlns:sodipodi="http://sodipodi.sourceforge.net/DTD/sodipodi-0.dtd"
   xmlns:xlink="http://www.w3.org/1999/xlink"
   xmlns="http://www.w3.org/2000/svg"
   xmlns:svg="http://www.w3.org/2000/svg"
   xmlns:rdf="http://www.w3.org/1999/02/22-rdf-syntax-ns#"
   xmlns:cc="http://creativecommons.org/ns#"
   xmlns:dc="http://purl.org/dc/elements/1.1/">
  <metadata
     id="metadata33">
    <rdf:RDF>
      <cc:Work
         rdf:about="">
        <dc:format>image/svg+xml</dc:format>
        <dc:type
           rdf:resource="http://purl.org/dc/dcmitype/StillImage" />
      </cc:Work>
    </rdf:RDF>
  </metadata>
  <defs
     id="defs31">
    <linearGradient
       inkscape:collect="always"
       id="linearGradient8">
      <stop
         style="stop-color:#5f8dd3;stop-opacity:1"
         offset="0"
         id="stop1" />
      <stop
         style="stop-color:#00ccff;stop-opacity:1"
         offset="0.52089965"
         id="stop7" />
      <stop
         style="stop-color:#9d7ed5;stop-opacity:1"
         offset="1"
         id="stop8" />
    </linearGradient>
    <linearGradient
       inkscape:collect="always"
       id="linearGradient6">
      <stop
         style="stop-color:#5f8dd3;stop-opacity:1"
         offset="0"
         id="stop3" />
      <stop
         style="stop-color:#00ccff;stop-opacity:1"
         offset="0.52089965"
         id="stop5" />
      <stop
         style="stop-color:#00d4aa;stop-opacity:1"
         offset="1"
         id="stop6" />
    </linearGradient>
    <clipPath
       clipPathUnits="userSpaceOnUse"
       id="clipPath79425-9-5-3">
      <rect
         style="opacity:0.5;fill:#000000;fill-opacity:1;stroke:none;stroke-width:0.855869;stroke-dasharray:none;stroke-opacity:1;paint-order:stroke fill markers"
         id="rect79427-1-9-6"
         width="26.417742"
         height="29.037542"
         x="-16.227774"
         y="-6.4845476" />
    </clipPath>
    <clipPath
       clipPathUnits="userSpaceOnUse"
       id="clipPath79425-9-5-5">
      <rect
         style="opacity:0.5;fill:#000000;fill-opacity:1;stroke:none;stroke-width:0.855869;stroke-dasharray:none;stroke-opacity:1;paint-order:stroke fill markers"
         id="rect79427-1-9-62"
         width="26.417742"
         height="29.037542"
         x="-16.227774"
         y="-6.4845476" />
    </clipPath>
    <linearGradient
       inkscape:collect="always"
       xlink:href="#linearGradient21"
       id="linearGradient17"
       x1="392.57144"
       y1="536.79797"
       x2="444.57144"
       y2="507.798"
       gradientUnits="userSpaceOnUse"
       gradientTransform="translate(-384.57143,-483.79816)" />
    <linearGradient
       id="linearGradient21"
       inkscape:collect="always">
      <stop
         style="stop-color:#0066ff;stop-opacity:1"
         offset="0"
         id="stop19" />
      <stop
         style="stop-color:#00d4aa;stop-opacity:1"
         offset="0.48888862"
         id="stop20" />
      <stop
         style="stop-color:#8633ff;stop-opacity:1;"
         offset="1"
         id="stop21" />
    </linearGradient>
    <linearGradient
       inkscape:collect="always"
       xlink:href="#linearGradient8"
       id="linearGradient4"
       gradientUnits="userSpaceOnUse"
       gradientTransform="translate(-383.57148,-479.77483)"
       x1="397.57144"
       y1="511.27505"
       x2="415.57144"
       y2="511.27505" />
    <linearGradient
       inkscape:collect="always"
       xlink:href="#linearGradient8"
       id="linearGradient5"
       gradientUnits="userSpaceOnUse"
       gradientTransform="translate(-384.57147,-483.79815)"
       x1="399.57147"
       y1="530.86804"
       x2="439.20044"
       y2="499.79816" />
    <linearGradient
       inkscape:collect="always"
       xlink:href="#linearGradient6"
       id="linearGradient3"
       x1="21"
       y1="37.49987"
       x2="43"
       y2="37.49987"
       gradientUnits="userSpaceOnUse" />
    <linearGradient
       inkscape:collect="always"
       xlink:href="#linearGradient8"
       id="linearGradient1"
       gradientUnits="userSpaceOnUse"
       x1="21"
       y1="37.49987"
       x2="43"
       y2="37.49987" />
    <linearGradient
       inkscape:collect="always"
       xlink:href="#linearGradient8"
       id="linearGradient2"
       gradientUnits="userSpaceOnUse"
       x1="21"
       y1="37.49987"
       x2="43"
       y2="37.49987" />
  </defs>
  <sodipodi:namedview
     pagecolor="#ffffff"
     bordercolor="#666666"
     borderopacity="1"
     objecttolerance="10"
     gridtolerance="10"
     guidetolerance="10"
     inkscape:pageopacity="0"
     inkscape:pageshadow="2"
     inkscape:window-width="1920"
     inkscape:window-height="994"
     id="namedview29"
     showgrid="true"
     inkscape:zoom="4.90625"
     inkscape:cx="0.20382166"
     inkscape:cy="64.101911"
     inkscape:window-x="0"
     inkscape:window-y="0"
     inkscape:window-maximized="1"
     inkscape:current-layer="svg27"
     inkscape:document-rotation="0"
     inkscape:showpageshadow="2"
     inkscape:pagecheckerboard="0"
     inkscape:deskcolor="#d1d1d1">
    <inkscape:grid
       type="xygrid"
       id="grid953"
       originx="0"
       originy="0"
       spacingy="1"
       spacingx="1"
       units="px"
       visible="true" />
  </sodipodi:namedview>
  <linearGradient
     id="a"
     gradientTransform="matrix(1 0 0 .99967 0 .176)"
     gradientUnits="userSpaceOnUse"
     x2="0"
     y1="541.798"
     y2="499.784">
    <stop
       offset="0"
       stop-color="#3daee9"
       id="stop2" />
    <stop
       offset="1"
       stop-color="#6cc1ef"
       id="stop4" />
  </linearGradient>
  <path
     inkscape:connector-curvature="0"
     id="fill-3"
     d="M 8.99997,25.39984 9,51.75484 C 8.9068,52.32629 8.76963,52.66205 8.356,52.99985 L 58,52.99984 c 1.25773,0 2,-0.20551 2,-1.99362 V 25.49984 c 0,-0.66722 -0.33428,-1.5 -1.9,-1.5 H 10.99101 c -0.99101,0 -1.99101,0 -1.99104,1.4 z"
     style="color:#1e92ff;opacity:0.4;fill:url(#linearGradient17);fill-opacity:0.4;fill-rule:nonzero;stroke:none;stroke-width:8.11634"
     sodipodi:nodetypes="ccccccccc" />
  <rect
     x="13.999978"
     y="29.999994"
     width="18"
     height="3"
     ry="1.5"
     stroke-width="5.07132"
     style="opacity:1;fill:url(#linearGradient4);fill-opacity:1;paint-order:stroke markers fill"
     id="rect12-5-9-3-9-7-7-9"
     rx="1.5000117" />
  <path
     d="M 58.89823,22.009 57.99997,22 V 19.4241 C 57.99797,17.83536 56.99997,16 54.62897,16 H 32.782 c -3.78203,0 -3.78203,-1 -5.08103,-2.46383 l -1.527,-2.91564 C 25.65135,9.63251 24.47069,9.00459 23.28424,9 H 5 C 3.28766,9.002 2.00173,10.41164 2,12 l 1e-5,39.5 c 0,2.0466 1.46781,3.5 3.4,3.5 h 53.49825 c 1.71233,-0.002 3.1,-1.28887 3.10174,-2.87723 V 24.88615 c -0.002,-1.58827 -1.3895,-2.87535 -3.10174,-2.877 z M 3.99997,51.49985 v -38.5 c 7.7e-4,-0.82599 0,-2 2,-2 h 15.7 c 1,0 2.1,0 2.736,1.324 l 1.526,2.515 c 1.21959,2.31102 3.038,3.161 6.038,3.161 l 22.53,-2e-5 c 0.89087,4.4e-4 1.46876,0.69766 1.47,1.52402 v 2.48513 l -46,-0.009 c -2,0 -3,1 -3,3 v 26.49987 c -0.0453,1.95192 -2.95472,1.95192 -3,0 z m 56,-0.5 c 0,2 -1.10954,1.99931 -2,2 h -50 c 0,0 1,0.34375 1,-1.5 v -25.5 c 0,-1.38848 0,-2 2,-2 h 47 c 2,0 1.99923,1.17399 2,2 z"
     id="path6-5-2-5-1"
     style="opacity:0.7;fill:url(#linearGradient5)"
     sodipodi:nodetypes="cccccccccccccccccccccccccccccccccccccccc" />
  <g
     fill="#1272a5"
     id="g25-3-5-6-7-9-7"
     transform="translate(11.912,4.003)"
     style="fill:url(#linearGradient3);fill-opacity:1">
    <path
       d="m 25,30 c -2.21,0 -4,2.685 -4,5.999 v 6.998 c 0,1.78 2.154,2.673 3.414,1.413 l 2.414,-2.413 h 0.676 a 2.5,2.5 0 0 0 1.996,1 2.5,2.5 0 0 0 1.992,-1 h 0.906 a 2.5,2.5 0 0 0 1.997,1 2.5,2.5 0 0 0 1.992,-1 h 0.785 l 2.414,2.413 C 40.846,45.67 43,44.777 43,42.997 V 35.999 C 43,32.685 41.21,30 39,30 Z m 0,1 h 14 c 1.657,0 3,2.238 3,4.999 v 6.998 c 0,0.89 -1.077,1.336 -1.707,0.707 l -2.707,-2.707 h -1.779 a 1.5,1.5 0 0 1 -1.412,1 A 1.5,1.5 0 0 1 33,41.042 v -0.045 h -2.088 a 1.5,1.5 0 0 1 -1.412,1 1.5,1.5 0 0 1 -1.412,-1 h -1.674 l -2.707,2.707 C 23.077,44.334 22,43.888 22,42.997 v -6.998 c 0,-2.76 1.343,-5 3,-5 z"
       id="path21-6-3-2-5-3-3"
       style="fill:url(#linearGradient1);fill-opacity:1" />
    <path
       d="m 25,31.996 v 2 h -2 v 2 h 2 v 2 h 2 v -2 h 2 v -2 h -2 v -2 z m 11,7.5 a 1.5,1.5 0 0 1 -1.5,1.5 1.5,1.5 0 0 1 -1.5,-1.5 1.5,1.5 0 0 1 1.5,-1.5 1.5,1.5 0 0 1 1.5,1.5 z m -5,0 a 1.5,1.5 0 0 1 -1.5,1.5 1.5,1.5 0 0 1 -1.5,-1.5 1.5,1.5 0 0 1 1.5,-1.5 1.5,1.5 0 0 1 1.5,1.5 z m 8,-2.5 a 1,1 0 0 1 -1,1 1,1 0 0 1 -1,-1 1,1 0 0 1 1,-1 1,1 0 0 1 1,1 z m 2,-2 a 1,1 0 0 1 -1,1 1,1 0 0 1 -1,-1 1,1 0 0 1 1,-1 1,1 0 0 1 1,1 z m -2,-2 a 1,1 0 0 1 -1,1 1,1 0 0 1 -1,-1 1,1 0 0 1 1,-1 1,1 0 0 1 1,1 z m -2,2 a 1,1 0 0 1 -1,1 1,1 0 0 1 -1,-1 1,1 0 0 1 1,-1 1,1 0 0 1 1,1 z"
       id="path23-7-5-9-3-6-6"
       style="fill:url(#linearGradient2);fill-opacity:1" />
  </g>
</svg>
