<?xml version="1.0" encoding="UTF-8" standalone="no"?>
<svg
   width="64"
   version="1.1"
   height="64"
   id="svg15"
   sodipodi:docname="folder-notes.svg"
   inkscape:version="1.3 (0e150ed6c4, 2023-07-21)"
   xmlns:inkscape="http://www.inkscape.org/namespaces/inkscape"
   xmlns:sodipodi="http://sodipodi.sourceforge.net/DTD/sodipodi-0.dtd"
   xmlns:xlink="http://www.w3.org/1999/xlink"
   xmlns="http://www.w3.org/2000/svg"
   xmlns:svg="http://www.w3.org/2000/svg"
   xmlns:rdf="http://www.w3.org/1999/02/22-rdf-syntax-ns#"
   xmlns:cc="http://creativecommons.org/ns#"
   xmlns:dc="http://purl.org/dc/elements/1.1/">
  <sodipodi:namedview
     pagecolor="#ffffff"
     bordercolor="#666666"
     borderopacity="1"
     objecttolerance="10"
     gridtolerance="10"
     guidetolerance="10"
     inkscape:pageopacity="0"
     inkscape:pageshadow="2"
     inkscape:window-width="1920"
     inkscape:window-height="994"
     id="namedview17"
     showgrid="true"
     inkscape:zoom="4.90625"
     inkscape:cx="-17.528662"
     inkscape:cy="28.840764"
     inkscape:window-x="0"
     inkscape:window-y="0"
     inkscape:window-maximized="1"
     inkscape:current-layer="layer1"
     inkscape:document-rotation="0"
     inkscape:showpageshadow="2"
     inkscape:pagecheckerboard="0"
     inkscape:deskcolor="#d1d1d1">
    <inkscape:grid
       type="xygrid"
       id="grid919"
       originx="0"
       originy="0"
       spacingy="1"
       spacingx="1"
       units="px"
       visible="true" />
  </sodipodi:namedview>
  <defs
     id="defs5455">
    <linearGradient
       inkscape:collect="always"
       id="linearGradient3">
      <stop
         style="stop-color:#ffc095;stop-opacity:1;"
         offset="0"
         id="stop1" />
      <stop
         style="stop-color:#bc5fd3;stop-opacity:1"
         offset="0.50679404"
         id="stop2" />
      <stop
         style="stop-color:#37abc8;stop-opacity:1"
         offset="1"
         id="stop3" />
    </linearGradient>
    <clipPath
       clipPathUnits="userSpaceOnUse"
       id="clipPath79425-9-5-3">
      <rect
         style="opacity:0.5;fill:#000000;fill-opacity:1;stroke:none;stroke-width:0.855869;stroke-dasharray:none;stroke-opacity:1;paint-order:stroke fill markers"
         id="rect79427-1-9-6"
         width="26.417742"
         height="29.037542"
         x="-16.227774"
         y="-6.4845476" />
    </clipPath>
    <clipPath
       clipPathUnits="userSpaceOnUse"
       id="clipPath79425-9-5-5">
      <rect
         style="opacity:0.5;fill:#000000;fill-opacity:1;stroke:none;stroke-width:0.855869;stroke-dasharray:none;stroke-opacity:1;paint-order:stroke fill markers"
         id="rect79427-1-9-62"
         width="26.417742"
         height="29.037542"
         x="-16.227774"
         y="-6.4845476" />
    </clipPath>
    <linearGradient
       inkscape:collect="always"
       xlink:href="#linearGradient3"
       id="linearGradient17"
       x1="392.57144"
       y1="536.79797"
       x2="444.57144"
       y2="507.798"
       gradientUnits="userSpaceOnUse"
       gradientTransform="translate(5e-6,-1.6e-4)" />
    <linearGradient
       inkscape:collect="always"
       xlink:href="#linearGradient3"
       id="linearGradient4"
       gradientUnits="userSpaceOnUse"
       gradientTransform="translate(0.999952,4.023174)"
       x1="397.57144"
       y1="511.27505"
       x2="415.57144"
       y2="511.27505" />
    <linearGradient
       inkscape:collect="always"
       xlink:href="#linearGradient3"
       id="linearGradient5"
       gradientUnits="userSpaceOnUse"
       gradientTransform="translate(-3.5e-5,-1.49e-4)"
       x1="386.38025"
       y1="541.81329"
       x2="439.20044"
       y2="499.79816" />
    <linearGradient
       inkscape:collect="always"
       xlink:href="#linearGradient3"
       id="linearGradient2"
       x1="422.54312"
       y1="524.24152"
       x2="440.54266"
       y2="524.24152"
       gradientUnits="userSpaceOnUse" />
  </defs>
  <metadata
     id="metadata5458">
    <rdf:RDF>
      <cc:Work
         rdf:about="">
        <dc:format>image/svg+xml</dc:format>
        <dc:type
           rdf:resource="http://purl.org/dc/dcmitype/StillImage" />
      </cc:Work>
    </rdf:RDF>
  </metadata>
  <g
     inkscape:label="Capa 1"
     inkscape:groupmode="layer"
     id="layer1"
     transform="translate(-384.57143,-483.798)">
    <path
       inkscape:connector-curvature="0"
       id="fill-3"
       d="m 393.5714,509.19784 3e-5,26.355 c -0.0932,0.57145 -0.23037,0.90721 -0.644,1.24501 l 49.644,-1e-5 c 1.25773,0 2,-0.20551 2,-1.99362 v -25.50638 c 0,-0.66722 -0.33428,-1.5 -1.9,-1.5 h -47.10899 c -0.99101,0 -1.99101,0 -1.99104,1.4 z"
       style="color:#1e92ff;opacity:0.4;fill:url(#linearGradient17);fill-opacity:0.4;fill-rule:nonzero;stroke:none;stroke-width:8.11634"
       sodipodi:nodetypes="ccccccccc" />
    <rect
       x="398.57135"
       y="513.79785"
       width="18"
       height="3"
       ry="1.5"
       stroke-width="5.07132"
       style="opacity:0.8;fill:url(#linearGradient4);fill-opacity:1;paint-order:stroke markers fill"
       id="rect12-5-9-3-9-7-7-9"
       rx="1.5000117" />
    <path
       d="m 443.46966,505.807 -0.89826,-0.009 v -2.5759 c -0.002,-1.58874 -1,-3.4241 -3.371,-3.4241 h -21.84697 c -3.78203,0 -3.78203,-1 -5.08103,-2.46383 l -1.527,-2.91564 c -0.52262,-0.98802 -1.70328,-1.61594 -2.88972,-1.62053 h -18.28425 c -1.71233,0.002 -2.99826,1.41164 -3,3 l 10e-6,39.5 c 0,2.0466 1.46781,3.5 3.4,3.5 h 53.49825 c 1.71233,-0.002 3.1,-1.28887 3.10174,-2.87723 v -27.23662 c -0.002,-1.58827 -1.3895,-2.87535 -3.10174,-2.877 z m -54.89826,29.49085 v -38.5 c 7.7e-4,-0.82599 0,-2 2,-2 h 15.7 c 1,0 2.1,0 2.736,1.324 l 1.526,2.515 c 1.21959,2.31102 3.038,3.161 6.038,3.161 l 22.53,-2e-5 c 0.89087,4.4e-4 1.46876,0.69766 1.47001,1.52402 v 2.48513 l -46,-0.009 c -2,0 -3,1 -3,3 v 26.49987 c -0.0453,1.95192 -2.95472,1.95192 -3.00001,0 z m 56,-0.5 c 0,2 -1.10954,1.99931 -2,2 h -50 c 0,0 1,0.34375 1,-1.5 v -25.5 c 0,-1.38848 0,-2 2,-2 h 47 c 2,0 1.99923,1.17399 2,2 z"
       id="path6-5-2-5-1"
       style="fill:url(#linearGradient5)"
       sodipodi:nodetypes="cccccccccccccccccccccccccccccccccccccccc" />
    <path
       fill-rule="evenodd"
       clip-rule="evenodd"
       d="m 431.82293,520.02135 c 0,-0.31091 0.25185,-0.56249 0.56273,-0.56249 0.31062,0 0.56246,0.25158 0.56246,0.56249 0,0.31008 -0.25184,0.56192 -0.56246,0.56192 -0.31088,0 -0.56273,-0.25184 -0.56273,-0.56192 z m 8.07004,0.0442 -0.23698,0.23672 c -0.002,0.002 -0.004,0.002 -0.007,0.005 -0.43168,0.43202 -1.12629,0.43662 -1.56713,0.0192 l -1.44962,-1.4504 c -0.21945,-0.21939 -0.21945,-0.57562 0,-0.7951 0.21952,-0.21946 0.57573,-0.21946 0.79515,0 l 1.22494,1.2241 c 7.6e-4,0.002 0.002,0 0.003,0.002 0.1096,0.10963 0.28758,0.10963 0.39711,0 0.004,-0.004 0.007,-7.3e-4 0.0107,-0.002 l 0.034,-0.034 c 0.4397,-0.43916 0.4397,-1.15131 0,-1.59104 l -0.99393,-0.99398 c -0.43967,-0.43978 -1.15191,-0.43978 -1.59108,0 l -1.92988,1.92992 h -1.59164 -4.82315 -3.09398 c -0.77666,0 -1.40617,0.63006 -1.40617,1.40679 v 10.68688 c 0,0.77671 0.62951,1.40626 1.40617,1.40626 h 10.68696 c 0.77694,0 1.4062,-0.62955 1.4062,-1.40626 v -7.23343 c 0,-0.15489 -0.12577,-0.28096 -0.281,-0.28096 -0.0772,0 -0.148,0.032 -0.19851,0.0826 -9e-4,7.2e-4 -7.4e-4,-0.004 -0.002,-0.003 l -3.12551,3.125 c -0.33869,0.33898 -0.75857,0.54414 -1.19725,0.62158 -0.0831,0.0197 -0.16888,0.0323 -0.25758,0.0323 h -0.0792 c -0.0371,7.9e-4 -0.0751,7.9e-4 -0.11225,0 h -2.05879 c -0.62099,0 -1.12435,-0.50341 -1.12435,-1.12439 v -2.05874 c -6.3e-4,-0.0371 -6.3e-4,-0.0751 0,-0.11208 v -0.0792 c 0,-0.089 0.0128,-0.17506 0.0325,-0.258 0.0775,-0.43828 0.28288,-0.85904 0.62185,-1.19773 l 1.19468,-1.19493 0.003,0.003 c 0.1016,-0.10245 0.24278,-0.16494 0.39799,-0.16494 0.31088,0 0.56249,0.25183 0.56249,0.56284 0,0.1705 -0.0778,0.32218 -0.19804,0.42506 l -1.16452,1.16453 c -0.24528,0.24475 -0.3482,0.57348 -0.3202,0.89371 -6.1e-4,0.0162 -0.005,0.032 -0.005,0.048 v 0.84354 c -2e-5,0.62093 0.50419,1.12522 1.12518,1.12522 h 0.84351 c 0.0162,0 0.0319,-0.004 0.048,-0.005 0.32047,0.0284 0.64894,-0.0751 0.89368,-0.3205 l 3.61222,-3.61224 c 0.20295,-0.19943 0.48205,-0.2815 0.78991,-0.2815 0.62151,0 1.12525,0.50343 1.12525,1.12497 v 8.15574 c 0,1.24279 -1.00717,2.25049 -2.24969,2.25049 h -11.24966 c -1.24279,0 -2.25023,-1.0077 -2.25023,-2.25049 v -11.24998 c 0,-1.24279 1.00744,-2.24965 2.25023,-2.24965 h 9.32275 l 1.60117,-1.60125 c 0.43925,-0.43943 1.0151,-0.6487 1.59098,-0.6487 0.57585,0 1.15172,0.20927 1.59117,0.6487 l 0.99448,0.99453 c 0.43992,0.43987 0.64933,1.024 0.64875,1.60058 -6.7e-4,0.57506 -0.21004,1.14265 -0.64875,1.58156 z"
       id="path2-1-5-4"
       style="fill:url(#linearGradient2);fill-opacity:1;stroke-width:0.0351552" />
  </g>
</svg>
