<?xml version="1.0" encoding="UTF-8" standalone="no"?>
<svg
   height="64"
   width="64"
   version="1.1"
   id="svg19"
   sodipodi:docname="folder-table.svg"
   inkscape:version="1.3 (0e150ed6c4, 2023-07-21)"
   xmlns:inkscape="http://www.inkscape.org/namespaces/inkscape"
   xmlns:sodipodi="http://sodipodi.sourceforge.net/DTD/sodipodi-0.dtd"
   xmlns:xlink="http://www.w3.org/1999/xlink"
   xmlns="http://www.w3.org/2000/svg"
   xmlns:svg="http://www.w3.org/2000/svg"
   xmlns:rdf="http://www.w3.org/1999/02/22-rdf-syntax-ns#"
   xmlns:cc="http://creativecommons.org/ns#"
   xmlns:dc="http://purl.org/dc/elements/1.1/">
  <metadata
     id="metadata25">
    <rdf:RDF>
      <cc:Work
         rdf:about="">
        <dc:format>image/svg+xml</dc:format>
        <dc:type
           rdf:resource="http://purl.org/dc/dcmitype/StillImage" />
      </cc:Work>
    </rdf:RDF>
  </metadata>
  <defs
     id="defs23">
    <linearGradient
       id="linearGradient6"
       inkscape:collect="always">
      <stop
         style="stop-color:#5398ff;stop-opacity:1;"
         offset="0"
         id="stop1" />
      <stop
         style="stop-color:#b380ff;stop-opacity:1"
         offset="0.53372055"
         id="stop3" />
      <stop
         style="stop-color:#5f5fd3;stop-opacity:1"
         offset="1"
         id="stop5" />
    </linearGradient>
    <clipPath
       clipPathUnits="userSpaceOnUse"
       id="clipPath79425-9-5-3">
      <rect
         style="opacity:0.5;fill:#000000;fill-opacity:1;stroke:none;stroke-width:0.855869;stroke-dasharray:none;stroke-opacity:1;paint-order:stroke fill markers"
         id="rect79427-1-9-6"
         width="26.417742"
         height="29.037542"
         x="-16.227774"
         y="-6.4845476" />
    </clipPath>
    <clipPath
       clipPathUnits="userSpaceOnUse"
       id="clipPath79425-9-5-5">
      <rect
         style="opacity:0.5;fill:#000000;fill-opacity:1;stroke:none;stroke-width:0.855869;stroke-dasharray:none;stroke-opacity:1;paint-order:stroke fill markers"
         id="rect79427-1-9-62"
         width="26.417742"
         height="29.037542"
         x="-16.227774"
         y="-6.4845476" />
    </clipPath>
    <linearGradient
       inkscape:collect="always"
       xlink:href="#linearGradient6"
       id="linearGradient17"
       x1="392.57144"
       y1="536.79797"
       x2="444.57144"
       y2="507.798"
       gradientUnits="userSpaceOnUse"
       gradientTransform="translate(-384.57143,-484.03346)" />
    <linearGradient
       inkscape:collect="always"
       xlink:href="#linearGradient6"
       id="linearGradient4"
       gradientUnits="userSpaceOnUse"
       gradientTransform="translate(-383.57148,-480.01013)"
       x1="397.57144"
       y1="511.27505"
       x2="415.57144"
       y2="511.27505" />
    <linearGradient
       inkscape:collect="always"
       xlink:href="#linearGradient6"
       id="linearGradient5"
       gradientUnits="userSpaceOnUse"
       gradientTransform="translate(-384.57147,-484.03345)"
       x1="386.38025"
       y1="541.81329"
       x2="439.20044"
       y2="499.79816" />
    <linearGradient
       inkscape:collect="always"
       xlink:href="#linearGradient6"
       id="linearGradient8"
       x1="40.090912"
       y1="39.355614"
       x2="58.090912"
       y2="39.355614"
       gradientUnits="userSpaceOnUse"
       gradientTransform="translate(-1.799911,0.662385)" />
  </defs>
  <sodipodi:namedview
     pagecolor="#ffffff"
     bordercolor="#666666"
     borderopacity="1"
     objecttolerance="10"
     gridtolerance="10"
     guidetolerance="10"
     inkscape:pageopacity="0"
     inkscape:pageshadow="2"
     inkscape:window-width="1920"
     inkscape:window-height="994"
     id="namedview21"
     showgrid="true"
     inkscape:zoom="9.8125"
     inkscape:cx="29.656051"
     inkscape:cy="37.452229"
     inkscape:window-x="0"
     inkscape:window-y="0"
     inkscape:window-maximized="1"
     inkscape:current-layer="svg19"
     inkscape:document-rotation="0"
     inkscape:showpageshadow="2"
     inkscape:pagecheckerboard="0"
     inkscape:deskcolor="#d1d1d1">
    <inkscape:grid
       type="xygrid"
       id="grid879"
       originx="0"
       originy="0"
       spacingy="1"
       spacingx="1"
       units="px"
       visible="true" />
  </sodipodi:namedview>
  <linearGradient
     id="a"
     gradientUnits="userSpaceOnUse"
     x1="3"
     x2="3"
     y1="58"
     y2="16">
    <stop
       offset="0"
       stop-color="#3daee9"
       id="stop2" />
    <stop
       offset="1"
       stop-color="#6cc1ef"
       id="stop4" />
  </linearGradient>
  <path
     inkscape:connector-curvature="0"
     id="fill-3"
     d="M 8.99997,25.16454 9,51.51954 C 8.9068,52.09099 8.76963,52.42675 8.356,52.76455 L 58,52.76454 c 1.25773,0 2,-0.20551 2,-1.99362 V 25.26454 c 0,-0.66722 -0.33428,-1.5 -1.9,-1.5 H 10.99101 c -0.99101,0 -1.99101,0 -1.99104,1.4 z"
     style="color:#1e92ff;opacity:0.4;fill:url(#linearGradient17);fill-opacity:0.4;fill-rule:nonzero;stroke:none;stroke-width:8.11634"
     sodipodi:nodetypes="ccccccccc" />
  <rect
     x="13.999986"
     y="29.764696"
     width="18"
     height="3"
     ry="1.5"
     stroke-width="5.07132"
     style="opacity:0.8;fill:url(#linearGradient4);fill-opacity:1;paint-order:stroke markers fill"
     id="rect12-5-9-3-9-7-7-9"
     rx="1.5000117" />
  <path
     d="m 58.89823,21.7737 -0.89826,-0.009 v -2.5759 c -0.002,-1.58874 -1,-3.4241 -3.371,-3.4241 H 32.782 c -3.78203,0 -3.78203,-1 -5.08103,-2.46383 l -1.527,-2.91564 C 25.65135,9.39721 24.47069,8.76929 23.28424,8.7647 H 5 c -1.71234,0.002 -2.99827,1.41164 -3,3 l 1e-5,39.5 c 0,2.0466 1.46781,3.5 3.4,3.5 h 53.49825 c 1.71233,-0.002 3.1,-1.28887 3.10174,-2.87723 V 24.65085 c -0.002,-1.58827 -1.3895,-2.87535 -3.10174,-2.877 z M 3.99997,51.26455 v -38.5 c 7.7e-4,-0.82599 0,-2 2,-2 h 15.7 c 1,0 2.1,0 2.736,1.324 l 1.526,2.515 c 1.21959,2.31102 3.038,3.161 6.038,3.161 l 22.53,-2e-5 c 0.89087,4.4e-4 1.46876,0.69766 1.47,1.52402 v 2.48513 l -46,-0.009 c -2,0 -3,1 -3,3 v 26.49987 c -0.0453,1.95192 -2.95472,1.95192 -3,0 z m 56,-0.5 c 0,2 -1.10954,1.99931 -2,2 h -50 c 0,0 1,0.34375 1,-1.5 v -25.5 c 0,-1.38848 0,-2 2,-2 h 47 c 2,0 1.99923,1.17399 2,2 z"
     id="path6-5-2-5-1"
     style="fill:url(#linearGradient5)"
     sodipodi:nodetypes="cccccccccccccccccccccccccccccccccccccccc" />
  <path
     style="color:#232629;fill:url(#linearGradient8);stroke:none;stroke-width:0.818186"
     d="m 38.291,31.018 v 18 h 18 v -18 z m 0.8181,0.81819 h 16.36371 v 3.272721 H 39.1091 Z m 0,4.090899 h 4.090989 V 38.38164 H 39.1091 Z m 4.909179,0 h 6.545442 v 2.454551 h -6.545442 z m 7.363632,0 H 55.47281 V 38.38164 H 51.381911 Z M 39.1091,39.19981 h 4.090989 v 2.45455 H 39.1091 Z m 4.909179,0 h 6.545442 v 2.45455 h -6.545442 z m 7.363632,0 h 4.090899 v 2.45455 H 51.381911 Z M 39.1091,42.47255 h 4.090989 v 2.45454 H 39.1091 Z m 4.909179,0 h 6.545442 v 2.45454 h -6.545442 z m 7.363632,0 h 4.090899 v 2.45454 H 51.381911 Z M 39.1091,45.74528 h 4.090989 v 2.45453 H 39.1091 Z m 4.909179,0 h 6.545442 v 2.45453 h -6.545442 z m 7.363632,0 h 4.090899 v 2.45453 h -4.090899 z"
     class="ColorScheme-Text"
     id="path16524-7-7-6" />
</svg>
