<?xml version="1.0" encoding="UTF-8" standalone="no"?>
<svg
   width="64"
   version="1.1"
   height="64"
   id="svg17"
   sodipodi:docname="folder-design.svg"
   inkscape:version="1.3 (0e150ed6c4, 2023-07-21)"
   xmlns:inkscape="http://www.inkscape.org/namespaces/inkscape"
   xmlns:sodipodi="http://sodipodi.sourceforge.net/DTD/sodipodi-0.dtd"
   xmlns:xlink="http://www.w3.org/1999/xlink"
   xmlns="http://www.w3.org/2000/svg"
   xmlns:svg="http://www.w3.org/2000/svg"
   xmlns:rdf="http://www.w3.org/1999/02/22-rdf-syntax-ns#"
   xmlns:cc="http://creativecommons.org/ns#"
   xmlns:dc="http://purl.org/dc/elements/1.1/">
  <sodipodi:namedview
     pagecolor="#ffffff"
     bordercolor="#666666"
     borderopacity="1"
     objecttolerance="10"
     gridtolerance="10"
     guidetolerance="10"
     inkscape:pageopacity="0"
     inkscape:pageshadow="2"
     inkscape:window-width="1920"
     inkscape:window-height="994"
     id="namedview19"
     showgrid="true"
     inkscape:zoom="9.2252228"
     inkscape:cx="34.958505"
     inkscape:cy="31.489754"
     inkscape:window-x="0"
     inkscape:window-y="0"
     inkscape:window-maximized="1"
     inkscape:current-layer="layer1"
     inkscape:document-rotation="0"
     inkscape:showpageshadow="2"
     inkscape:pagecheckerboard="0"
     inkscape:deskcolor="#d1d1d1">
    <inkscape:grid
       type="xygrid"
       id="grid908"
       originx="0"
       originy="0"
       spacingy="1"
       spacingx="1"
       units="px"
       visible="true" />
  </sodipodi:namedview>
  <defs
     id="defs5455">
    <linearGradient
       id="linearGradient1"
       inkscape:collect="always">
      <stop
         style="stop-color:#ff80e5;stop-opacity:1"
         offset="0"
         id="stop7" />
      <stop
         style="stop-color:#ffb380;stop-opacity:1"
         offset="0.48888862"
         id="stop9" />
      <stop
         style="stop-color:#b380ff;stop-opacity:1"
         offset="1"
         id="stop8" />
    </linearGradient>
    <clipPath
       clipPathUnits="userSpaceOnUse"
       id="clipPath79425-9-5-3">
      <rect
         style="opacity:0.5;fill:#000000;fill-opacity:1;stroke:none;stroke-width:0.855869;stroke-dasharray:none;stroke-opacity:1;paint-order:stroke fill markers"
         id="rect79427-1-9-6"
         width="26.417742"
         height="29.037542"
         x="-16.227774"
         y="-6.4845476" />
    </clipPath>
    <clipPath
       clipPathUnits="userSpaceOnUse"
       id="clipPath79425-9-5-5">
      <rect
         style="opacity:0.5;fill:#000000;fill-opacity:1;stroke:none;stroke-width:0.855869;stroke-dasharray:none;stroke-opacity:1;paint-order:stroke fill markers"
         id="rect79427-1-9-62"
         width="26.417742"
         height="29.037542"
         x="-16.227774"
         y="-6.4845476" />
    </clipPath>
    <linearGradient
       id="New_Gradient_Swatch_3"
       gradientUnits="userSpaceOnUse"
       x1="256"
       x2="256"
       y1="56.152"
       y2="455.849"
       gradientTransform="matrix(0.12406948,0,0,0.11508628,384.80964,486.3357)">
      <stop
         offset="0"
         stop-color="#5ee4ff"
         id="stop1"
         style="stop-color:#b380ff;stop-opacity:1" />
      <stop
         offset=".094"
         stop-color="#5ad9f9"
         id="stop2"
         style="stop-color:#9955ff;stop-opacity:1" />
      <stop
         offset=".26"
         stop-color="#4ebbea"
         id="stop3"
         style="stop-color:#6600ff;stop-opacity:1" />
      <stop
         offset=".479"
         stop-color="#3a8bd1"
         id="stop4"
         style="stop-opacity:1;stop-color:#8d5fd3" />
      <stop
         offset=".739"
         stop-color="#1f49ae"
         id="stop5"
         style="stop-color:#ffb380;stop-opacity:1" />
      <stop
         offset="1"
         stop-color="#020088"
         id="stop6"
         style="stop-color:#ff66ff;stop-opacity:1;" />
    </linearGradient>
    <linearGradient
       inkscape:collect="always"
       xlink:href="#linearGradient1"
       id="linearGradient17"
       x1="392.57144"
       y1="536.79797"
       x2="444.57144"
       y2="507.798"
       gradientUnits="userSpaceOnUse"
       gradientTransform="translate(1.5576172e-5,-1.567e-4)" />
    <linearGradient
       inkscape:collect="always"
       xlink:href="#linearGradient1"
       id="linearGradient4"
       gradientUnits="userSpaceOnUse"
       gradientTransform="translate(0.99996258,4.023177)"
       x1="397.57144"
       y1="511.27505"
       x2="415.57144"
       y2="511.27505" />
    <linearGradient
       inkscape:collect="always"
       xlink:href="#linearGradient1"
       id="linearGradient5"
       gradientUnits="userSpaceOnUse"
       gradientTransform="translate(-2.4423828e-5,-1.457e-4)"
       x1="387.57144"
       y1="537.79797"
       x2="445.57144"
       y2="492.798" />
    <linearGradient
       inkscape:collect="always"
       xlink:href="#linearGradient1"
       id="linearGradient3"
       gradientUnits="userSpaceOnUse"
       gradientTransform="translate(-1,-1)"
       x1="428.07144"
       y1="524.8045"
       x2="441.54102"
       y2="524.8045" />
  </defs>
  <metadata
     id="metadata5458">
    <rdf:RDF>
      <cc:Work
         rdf:about="">
        <dc:format>image/svg+xml</dc:format>
        <dc:type
           rdf:resource="http://purl.org/dc/dcmitype/StillImage" />
      </cc:Work>
    </rdf:RDF>
  </metadata>
  <g
     inkscape:label="Capa 1"
     inkscape:groupmode="layer"
     id="layer1"
     transform="translate(-384.57143,-483.798)">
    <path
       inkscape:connector-curvature="0"
       id="fill-3"
       d="m 393.57141,509.19784 3e-5,26.355 c -0.0932,0.57145 -0.23037,0.90721 -0.644,1.24501 l 49.644,-1e-5 c 1.25773,0 2,-0.20551 2,-1.99362 v -25.50638 c 0,-0.66722 -0.33428,-1.5 -1.9,-1.5 h -47.10899 c -0.99101,0 -1.99101,0 -1.99104,1.4 z"
       style="color:#1e92ff;opacity:0.3;fill:url(#linearGradient17);fill-opacity:0.5;fill-rule:nonzero;stroke:none;stroke-width:8.11634"
       class="ColorScheme-ButtonFocus"
       sodipodi:nodetypes="ccccccccc" />
    <rect
       x="398.57144"
       y="513.79834"
       width="18"
       height="3"
       ry="1.5"
       stroke-width="5.07132"
       style="opacity:0.8;fill:url(#linearGradient4);paint-order:stroke markers fill"
       id="rect12-5-9-3-9-7-7-9"
       rx="1.5000117" />
    <path
       d="m 443.46967,505.807 -0.89826,-0.009 v -2.5759 c -0.002,-1.58874 -1,-3.4241 -3.371,-3.4241 h -21.84697 c -3.78203,0 -3.78203,-1 -5.08102,-2.46383 l -1.527,-2.91564 c -0.52263,-0.98802 -1.70328,-1.61594 -2.88973,-1.62053 h -18.28424 c -1.71234,0.002 -2.99827,1.41164 -3,3 v 39.5 c 0,2.0466 1.46781,3.5 3.4,3.5 h 53.49825 c 1.71233,-0.002 3.1,-1.28887 3.10174,-2.87723 v -27.23662 c -0.002,-1.58827 -1.3895,-2.87535 -3.10174,-2.877 z m -54.89826,29.49085 v -38.5 c 7.7e-4,-0.82599 0,-2 2,-2 h 15.7 c 1,0 2.1,0 2.736,1.324 l 1.526,2.515 c 1.21959,2.31102 3.038,3.161 6.038,3.161 l 22.53001,-2e-5 c 0.89087,4.4e-4 1.46875,0.69766 1.47,1.52402 v 2.48513 l -46,-0.009 c -2,0 -3,1 -3,3 v 26.49987 c -0.0453,1.95192 -2.95472,1.95192 -3.00001,0 z m 56,-0.5 c 0,2 -1.10954,1.99931 -2,2 h -50 c 0,0 1,0.34375 1,-1.5 v -25.5 c 0,-1.38848 0,-2 2,-2 h 47 c 2,0 1.99923,1.17399 2,2 z"
       id="path6-5-2-5-1"
       style="opacity:0.7;fill:url(#linearGradient5)"
       sodipodi:nodetypes="cccccccccccccccccccccccccccccccccccccccc" />
    <path
       style="color:#232629;opacity:1;fill:url(#linearGradient3);fill-opacity:1;stroke:none;stroke-width:0.627325"
       d="m 433.78664,514.798 c -0.31783,0 -0.57832,0.25672 -0.57832,0.57467 v 0.52555 c -1.02466,0.26308 -1.76189,1.17202 -1.76189,2.26425 0,0.76463 0.36522,1.44525 0.93485,1.87338 0.0618,0.0716 0.0983,0.16245 0.0983,0.26358 0,0.0283 2e-5,0.0586 -0.006,0.0856 l -2.53258,5.36779 h -1.04759 c -0.17105,0 -0.31131,0.13777 -0.31131,0.30876 v 0.002 c 0,0.17092 0.14026,0.3088 0.31131,0.3088 h 0.75598 l -1.95557,4.14492 c -0.12306,0.26288 -0.0624,0.56674 0.13122,0.76345 l -0.75361,1.53026 1.19097,-1.29019 c 0.31605,0.0823 0.65429,-0.0678 0.79759,-0.37132 l 2.25443,-4.77714 h 1.98123 v 0.41047 c 0,0.26096 0.21253,0.47166 0.47543,0.47166 h 0.0262 c 0.26289,0 0.47662,-0.2107 0.47662,-0.47166 v -0.41047 h 2.02657 l 2.25318,4.77713 c 0.14149,0.30522 0.48212,0.45394 0.79639,0.37132 l 1.19097,1.29019 -0.75104,-1.53027 c 0.19107,-0.19669 0.25304,-0.4987 0.12982,-0.76343 l -1.95547,-4.14494 h 0.70944 c 0.1727,0 0.31119,-0.13787 0.31119,-0.30878 0,-0.17092 -0.13849,-0.30818 -0.31119,-0.31001 h -1.00107 l -2.53133,-5.36775 c -0.006,-0.0276 -0.006,-0.0572 -0.006,-0.0855 0,-0.0992 0.0372,-0.19168 0.0958,-0.26332 0.56982,-0.42835 0.93735,-1.10885 0.93735,-1.87342 0,-1.1073 -0.77196,-2.02736 -1.80847,-2.27653 v -0.51339 c 0,-0.31807 -0.25725,-0.57464 -0.57714,-0.57464 z m 0.55028,2.11964 c 0.48739,0.2049 0.82938,0.68469 0.82938,1.24483 0,0.74636 -0.60637,1.35156 -1.35637,1.35156 -0.7535,0 -1.35635,-0.6052 -1.35635,-1.35156 0,-0.54191 0.32216,-1.00627 0.78668,-1.22156 0.0684,0.23965 0.282,0.41916 0.54638,0.41916 0.27135,0 0.489,-0.19038 0.55028,-0.44243 z m -0.53797,4.48808 h 0.0101 0.01 c 0.074,0 0.13843,0.0334 0.17894,0.086 l 2.01061,4.26138 h -1.73492 v -0.49872 c 0,-0.26282 -0.21375,-0.47414 -0.47666,-0.47414 h -0.0259 c -0.26285,0 -0.47542,0.21318 -0.47542,0.47414 v 0.49872 h -1.68954 l 2.01056,-4.26138 c 0.0434,-0.0529 0.10661,-0.086 0.18012,-0.086 z"
       class="ColorScheme-Text"
       id="path8133-5-8-2" />
  </g>
</svg>
