<?xml version="1.0" encoding="UTF-8" standalone="no"?>
<svg
   width="64"
   version="1.1"
   height="64"
   id="svg15"
   sodipodi:docname="folder-Github.svg"
   inkscape:version="1.3 (0e150ed6c4, 2023-07-21)"
   xmlns:inkscape="http://www.inkscape.org/namespaces/inkscape"
   xmlns:sodipodi="http://sodipodi.sourceforge.net/DTD/sodipodi-0.dtd"
   xmlns:xlink="http://www.w3.org/1999/xlink"
   xmlns="http://www.w3.org/2000/svg"
   xmlns:svg="http://www.w3.org/2000/svg"
   xmlns:rdf="http://www.w3.org/1999/02/22-rdf-syntax-ns#"
   xmlns:cc="http://creativecommons.org/ns#"
   xmlns:dc="http://purl.org/dc/elements/1.1/">
  <sodipodi:namedview
     pagecolor="#ffffff"
     bordercolor="#666666"
     borderopacity="1"
     objecttolerance="10"
     gridtolerance="10"
     guidetolerance="10"
     inkscape:pageopacity="0"
     inkscape:pageshadow="2"
     inkscape:window-width="1920"
     inkscape:window-height="994"
     id="namedview17"
     showgrid="true"
     inkscape:zoom="5.6568543"
     inkscape:cx="34.20629"
     inkscape:cy="31.02431"
     inkscape:window-x="0"
     inkscape:window-y="0"
     inkscape:window-maximized="1"
     inkscape:current-layer="layer1"
     inkscape:document-rotation="0"
     inkscape:showpageshadow="2"
     inkscape:pagecheckerboard="0"
     inkscape:deskcolor="#d1d1d1">
    <inkscape:grid
       type="xygrid"
       id="grid919"
       originx="0"
       originy="0"
       spacingy="1"
       spacingx="1"
       units="px"
       visible="true" />
  </sodipodi:namedview>
  <defs
     id="defs5455">
    <linearGradient
       id="linearGradient3"
       inkscape:collect="always">
      <stop
         style="stop-color:#008080;stop-opacity:1"
         offset="0"
         id="stop1" />
      <stop
         style="stop-color:#2a7fff;stop-opacity:1"
         offset="0.48888862"
         id="stop2" />
      <stop
         style="stop-color:#5599ff;stop-opacity:1"
         offset="1"
         id="stop3" />
    </linearGradient>
    <clipPath
       clipPathUnits="userSpaceOnUse"
       id="clipPath79425-9-5-3">
      <rect
         style="opacity:0.5;fill:#000000;fill-opacity:1;stroke:none;stroke-width:0.855869;stroke-dasharray:none;stroke-opacity:1;paint-order:stroke fill markers"
         id="rect79427-1-9-6"
         width="26.417742"
         height="29.037542"
         x="-16.227774"
         y="-6.4845476" />
    </clipPath>
    <clipPath
       clipPathUnits="userSpaceOnUse"
       id="clipPath79425-9-5-5">
      <rect
         style="opacity:0.5;fill:#000000;fill-opacity:1;stroke:none;stroke-width:0.855869;stroke-dasharray:none;stroke-opacity:1;paint-order:stroke fill markers"
         id="rect79427-1-9-62"
         width="26.417742"
         height="29.037542"
         x="-16.227774"
         y="-6.4845476" />
    </clipPath>
    <linearGradient
       inkscape:collect="always"
       xlink:href="#linearGradient21"
       id="linearGradient17"
       x1="392.57144"
       y1="536.79797"
       x2="444.57144"
       y2="507.798"
       gradientUnits="userSpaceOnUse"
       gradientTransform="translate(-2.7e-6)" />
    <linearGradient
       id="linearGradient21"
       inkscape:collect="always">
      <stop
         style="stop-color:#0066ff;stop-opacity:1"
         offset="0"
         id="stop19" />
      <stop
         style="stop-color:#00d4aa;stop-opacity:1"
         offset="0.48888862"
         id="stop20" />
      <stop
         style="stop-color:#8633ff;stop-opacity:1;"
         offset="1"
         id="stop21" />
    </linearGradient>
    <linearGradient
       inkscape:collect="always"
       xlink:href="#linearGradient3"
       id="linearGradient4"
       gradientUnits="userSpaceOnUse"
       gradientTransform="translate(0.9999443,4.0231658)"
       x1="397.57144"
       y1="511.27505"
       x2="415.57144"
       y2="511.27505" />
    <linearGradient
       inkscape:collect="always"
       xlink:href="#linearGradient3"
       id="linearGradient5"
       gradientUnits="userSpaceOnUse"
       gradientTransform="translate(-4.27e-5,-1.572e-4)"
       x1="399.57147"
       y1="531.79816"
       x2="433.57147"
       y2="505.79816" />
    <linearGradient
       inkscape:collect="always"
       xlink:href="#linearGradient3"
       id="linearGradient2"
       x1="424.07144"
       y1="523.79877"
       x2="440.7998"
       y2="523.79877"
       gradientUnits="userSpaceOnUse" />
  </defs>
  <metadata
     id="metadata5458">
    <rdf:RDF>
      <cc:Work
         rdf:about="">
        <dc:format>image/svg+xml</dc:format>
        <dc:type
           rdf:resource="http://purl.org/dc/dcmitype/StillImage" />
      </cc:Work>
    </rdf:RDF>
  </metadata>
  <g
     inkscape:label="Capa 1"
     inkscape:groupmode="layer"
     id="layer1"
     transform="translate(-384.57143,-483.798)">
    <path
       inkscape:connector-curvature="0"
       id="fill-3"
       d="m 393.5714,509.198 3e-5,26.355 c -0.0932,0.57145 -0.23037,0.90721 -0.644,1.24501 l 49.644,-10e-6 c 1.25773,0 2,-0.20551 2,-1.99362 V 509.298 c 0,-0.66722 -0.33428,-1.5 -1.9,-1.5 h -47.10899 c -0.99101,0 -1.99101,0 -1.99104,1.4 z"
       style="color:#1e92ff;opacity:0.4;fill:url(#linearGradient17);fill-opacity:0.4;fill-rule:nonzero;stroke:none;stroke-width:8.11634"
       sodipodi:nodetypes="ccccccccc" />
    <rect
       x="398.5715"
       y="513.79761"
       width="18"
       height="3"
       ry="1.5"
       stroke-width="5.07132"
       style="opacity:0.8;fill:url(#linearGradient4);fill-opacity:1;paint-order:stroke markers fill"
       id="rect12-5-9-3-9-7-7-9"
       rx="1.5000117" />
    <path
       d="m 443.46966,505.807 -0.89826,-0.009 v -2.5759 c -0.002,-1.58874 -1,-3.4241 -3.371,-3.4241 h -21.84697 c -3.78203,0 -3.78203,-1 -5.08103,-2.46383 l -1.527,-2.91564 c -0.52262,-0.98802 -1.70328,-1.61594 -2.88973,-1.62053 h -18.28424 c -1.71234,0.002 -2.99827,1.41164 -3,3 l 10e-6,39.5 c 0,2.0466 1.46781,3.5 3.4,3.5 h 53.49825 c 1.71233,-0.002 3.1,-1.28887 3.10174,-2.87723 v -27.23662 c -0.002,-1.58827 -1.3895,-2.87535 -3.10174,-2.877 z m -54.89826,29.49085 v -38.5 c 7.7e-4,-0.82599 0,-2 2,-2 h 15.7 c 1,0 2.1,0 2.736,1.324 l 1.526,2.515 c 1.21959,2.31102 3.038,3.161 6.038,3.161 l 22.53,-2e-5 c 0.89087,4.4e-4 1.46876,0.69766 1.47,1.52402 v 2.48513 l -46,-0.009 c -2,0 -3,1 -3,3 v 26.49987 c -0.0453,1.95192 -2.95472,1.95192 -3,0 z m 56,-0.5 c 0,2 -1.10954,1.99931 -2,2 h -50 c 0,0 1,0.34375 1,-1.5 v -25.5 c 0,-1.38848 0,-2 2,-2 h 47 c 2,0 1.99923,1.17399 2,2 z"
       id="path6-5-2-5-1"
       style="opacity:0.7;fill:url(#linearGradient5)"
       sodipodi:nodetypes="cccccccccccccccccccccccccccccccccccccccc" />
    <path
       d="m 431.04187,530.75303 a 0.81802699,0.81802699 0 0 0 -0.96613,-0.80438 c -1.07077,0.19667 -2.42274,0.226 -2.7822,-0.7836 a 4.6685476,4.6685476 0 0 0 -1.50254,-1.97537 0.98215066,0.98215066 0 0 1 -0.13633,-0.0893 0.81796133,0.81796133 0 0 0 -0.76127,-0.528 h -0.004 a 0.81767499,0.81767499 0 0 0 -0.81796,0.81397 c -0.003,0.667 0.66336,1.09433 0.9338,1.23893 a 3.632403,3.632403 0 0 1 0.75566,1.1119 c 0.298,0.83713 1.16384,2.1072 3.65287,1.94347 8.2e-4,0.0288 0.002,0.056 0.002,0.0807 l 0.004,0.219 a 0.81796666,0.81796666 0 0 0 1.63593,0 l -0.004,-0.26033 c -0.004,-0.155 -0.01,-0.37947 -0.01,-0.9666 z m 8.7252,-12.37248 c 0.026,-0.10233 0.0517,-0.21567 0.074,-0.34347 a 5.1350963,5.1350963 0 0 0 -0.3339,-2.69353 0.81959733,0.81959733 0 0 0 -0.50364,-0.47447 c -0.29133,-0.0983 -1.36633,-0.29157 -3.42241,1.02245 a 11.344454,11.344454 0 0 0 -5.19733,0 c -2.04782,-1.2948 -3.1174,-1.1191 -3.40576,-1.02644 a 0.81586733,0.81586733 0 0 0 -0.51644,0.47769 5.1534023,5.1534023 0 0 0 -0.33,2.74543 c 0.02,0.10467 0.0417,0.20134 0.064,0.29 a 5.1280289,5.1280289 0 0 0 -1.02683,3.13207 6.8886093,6.8886093 0 0 0 0.0347,0.75407 c 0.27333,3.7647 2.7271,4.89499 4.43687,5.28321 -0.0357,0.10233 -0.068,0.21167 -0.0967,0.32767 a 0.81815033,0.81815033 0 0 0 1.5888,0.3914 1.3728663,1.3728663 0 0 1 0.38263,-0.7181 0.81752799,0.81752799 0 0 0 -0.44653,-1.42744 c -2.82524,-0.323 -4.05177,-1.474 -4.23629,-4.00696 a 5.4073466,5.4073466 0 0 1 -0.0276,-0.6039 3.482626,3.482626 0 0 1 0.75207,-2.21904 2.4718793,2.4718793 0 0 1 0.16,-0.18933 0.81786333,0.81786333 0 0 0 0.15367,-0.83793 2.770926,2.770926 0 0 1 -0.127,-0.4545 3.348374,3.348374 0 0 1 0.0643,-1.3212 6.1695803,6.1695803 0 0 1 1.97537,0.96493 0.82513499,0.82513499 0 0 0 0.67696,0.10867 9.6332622,9.6332622 0 0 1 5.04916,8.2e-4 0.82245199,0.82245199 0 0 0 0.67936,-0.11267 6.1936039,6.1936039 0 0 1 1.96744,-0.97373 3.304376,3.304376 0 0 1 0.0713,1.29083 2.6215663,2.6215663 0 0 1 -0.13833,0.49687 0.81787966,0.81787966 0 0 0 0.15366,0.83793 c 0.063,0.071 0.12634,0.14767 0.183,0.21967 a 3.3715223,3.3715223 0 0 1 0.7377,2.18866 5.7575323,5.7575323 0 0 1 -0.0308,0.63584 c -0.18,2.4994 -1.41147,3.65127 -4.24997,3.97477 a 0.81796133,0.81796133 0 0 0 -0.44613,1.42824 1.3339233,1.3339233 0 0 1 0.38143,0.74286 2.503608,2.503608 0 0 1 0.0753,0.6702 v 1.90914 c -0.008,0.52956 -0.008,0.92656 -0.008,1.1087 a 0.81796666,0.81796666 0 1 0 1.63593,0 c 0,-0.17734 0,-0.56634 0.008,-1.09594 v -1.9219 a 3.9928786,3.9928786 0 0 0 -0.12666,-1.07276 3.4815546,3.4815546 0 0 0 -0.095,-0.34027 5.3270393,5.3270393 0 0 0 4.45405,-5.25445 7.1136223,7.1136223 0 0 0 0.0377,-0.78443 5.0146106,5.0146106 0 0 0 -1.03284,-3.12967 z"
       id="path257-4"
       style="fill:url(#linearGradient2);fill-opacity:1;stroke-width:0.81796" />
  </g>
</svg>
