<?xml version="1.0" encoding="UTF-8" standalone="no"?>
<svg
   width="64"
   height="64"
   version="1.1"
   viewBox="0 0 16.933 16.933"
   id="svg16"
   sodipodi:docname="folder-Projects.svg"
   inkscape:version="1.3 (0e150ed6c4, 2023-07-21)"
   xmlns:inkscape="http://www.inkscape.org/namespaces/inkscape"
   xmlns:sodipodi="http://sodipodi.sourceforge.net/DTD/sodipodi-0.dtd"
   xmlns:xlink="http://www.w3.org/1999/xlink"
   xmlns="http://www.w3.org/2000/svg"
   xmlns:svg="http://www.w3.org/2000/svg">
  <style
     type="text/css"
     id="current-color-scheme" />
  <defs
     id="defs20">
    <clipPath
       clipPathUnits="userSpaceOnUse"
       id="clipPath79425">
      <rect
         style="opacity:0.5;fill:#000000;fill-opacity:1;stroke:none;stroke-width:0.855869;stroke-dasharray:none;stroke-opacity:1;paint-order:stroke fill markers"
         id="rect79427"
         width="26.417742"
         height="29.037542"
         x="-16.227774"
         y="-6.4845476" />
    </clipPath>
    <clipPath
       clipPathUnits="userSpaceOnUse"
       id="clipPath79425-9">
      <rect
         style="opacity:0.5;fill:#000000;fill-opacity:1;stroke:none;stroke-width:0.855869;stroke-dasharray:none;stroke-opacity:1;paint-order:stroke fill markers"
         id="rect79427-1"
         width="26.417742"
         height="29.037542"
         x="-16.227774"
         y="-6.4845476" />
    </clipPath>
    <clipPath
       clipPathUnits="userSpaceOnUse"
       id="clipPath79425-9-5">
      <rect
         style="opacity:0.5;fill:#000000;fill-opacity:1;stroke:none;stroke-width:0.855869;stroke-dasharray:none;stroke-opacity:1;paint-order:stroke fill markers"
         id="rect79427-1-9"
         width="26.417742"
         height="29.037542"
         x="-16.227774"
         y="-6.4845476" />
    </clipPath>
    <clipPath
       clipPathUnits="userSpaceOnUse"
       id="clipPath79425-9-5-3">
      <rect
         style="opacity:0.5;fill:#000000;fill-opacity:1;stroke:none;stroke-width:0.855869;stroke-dasharray:none;stroke-opacity:1;paint-order:stroke fill markers"
         id="rect79427-1-9-6"
         width="26.417742"
         height="29.037542"
         x="-16.227774"
         y="-6.4845476" />
    </clipPath>
    <clipPath
       clipPathUnits="userSpaceOnUse"
       id="clipPath79425-9-5-5">
      <rect
         style="opacity:0.5;fill:#000000;fill-opacity:1;stroke:none;stroke-width:0.855869;stroke-dasharray:none;stroke-opacity:1;paint-order:stroke fill markers"
         id="rect79427-1-9-62"
         width="26.417742"
         height="29.037542"
         x="-16.227774"
         y="-6.4845476" />
    </clipPath>
    <linearGradient
       inkscape:collect="always"
       xlink:href="#linearGradient1417"
       id="linearGradient1419"
       x1="0.52915627"
       y1="5.0269842"
       x2="16.403845"
       y2="5.0269842"
       gradientUnits="userSpaceOnUse"
       gradientTransform="matrix(0.99999999,0,0,1.0229317,-5.0132817,-27.481972)" />
    <linearGradient
       inkscape:collect="always"
       id="linearGradient1417">
      <stop
         style="stop-color:#3cb2c3;stop-opacity:1;"
         offset="0"
         id="stop1413" />
      <stop
         style="stop-color:#9d7ed5;stop-opacity:1"
         offset="1"
         id="stop1415" />
    </linearGradient>
    <clipPath
       clipPathUnits="userSpaceOnUse"
       id="clipPath79425-9-5-3-1">
      <rect
         style="opacity:0.5;fill:#000000;fill-opacity:1;stroke:none;stroke-width:0.855869;stroke-dasharray:none;stroke-opacity:1;paint-order:stroke fill markers"
         id="rect79427-1-9-6-8"
         width="26.417742"
         height="29.037542"
         x="-16.227774"
         y="-6.4845476" />
    </clipPath>
    <filter
       inkscape:collect="always"
       style="color-interpolation-filters:sRGB"
       id="filter77953-2-4-7-7"
       x="-0.040508607"
       y="-0.067265661"
       width="1.0810172"
       height="1.1345313">
      <feGaussianBlur
         inkscape:collect="always"
         stdDeviation="0.44602907"
         id="feGaussianBlur77955-7-9-5-9" />
    </filter>
    <clipPath
       clipPathUnits="userSpaceOnUse"
       id="clipPath79425-9-5-5-2">
      <rect
         style="opacity:0.5;fill:#000000;fill-opacity:1;stroke:none;stroke-width:0.855869;stroke-dasharray:none;stroke-opacity:1;paint-order:stroke fill markers"
         id="rect79427-1-9-62-0"
         width="26.417742"
         height="29.037542"
         x="-16.227774"
         y="-6.4845476" />
    </clipPath>
    <filter
       inkscape:collect="always"
       style="color-interpolation-filters:sRGB"
       id="filter77953-2-4-9-2"
       x="-0.040520865"
       y="-0.064907304"
       width="1.0810417"
       height="1.1298146">
      <feGaussianBlur
         inkscape:collect="always"
         stdDeviation="0.44602907"
         id="feGaussianBlur77955-7-9-1-3" />
    </filter>
    <linearGradient
       inkscape:collect="always"
       xlink:href="#linearGradient2303-5"
       id="linearGradient1662-7"
       gradientUnits="userSpaceOnUse"
       gradientTransform="matrix(0.9989725,0,0,1.0327199,-5.0119247,-27.642513)"
       x1="9.3259869"
       y1="14.831515"
       x2="9.3259869"
       y2="4.269978" />
    <linearGradient
       inkscape:collect="always"
       id="linearGradient2303-5">
      <stop
         style="stop-color:#a78bda;stop-opacity:1;"
         offset="0"
         id="stop2299-9" />
      <stop
         style="stop-color:#00bdff;stop-opacity:1;"
         offset="1"
         id="stop2301-2" />
    </linearGradient>
    <linearGradient
       inkscape:collect="always"
       xlink:href="#linearGradient1417"
       id="linearGradient17"
       x1="392.57144"
       y1="536.79797"
       x2="444.57144"
       y2="507.798"
       gradientUnits="userSpaceOnUse"
       gradientTransform="matrix(0.26457812,0,0,0.26457812,-101.74918,-128.00238)" />
    <linearGradient
       inkscape:collect="always"
       xlink:href="#linearGradient1417"
       id="linearGradient4"
       gradientUnits="userSpaceOnUse"
       gradientTransform="matrix(0.26457812,0,0,0.26457812,-101.48462,-126.93789)"
       x1="397.57144"
       y1="511.27505"
       x2="415.57144"
       y2="511.27505" />
    <linearGradient
       inkscape:collect="always"
       xlink:href="#linearGradient1417"
       id="linearGradient5"
       gradientUnits="userSpaceOnUse"
       gradientTransform="matrix(0.26457812,0,0,0.26457812,-101.74919,-128.00238)"
       x1="387.57144"
       y1="537.79797"
       x2="445.57144"
       y2="492.798" />
    <linearGradient
       inkscape:collect="always"
       xlink:href="#linearGradient1417"
       id="linearGradient2"
       x1="11.366519"
       y1="10.089759"
       x2="14.768236"
       y2="10.089759"
       gradientUnits="userSpaceOnUse"
       gradientTransform="translate(0.01034039,0.49336838)" />
  </defs>
  <sodipodi:namedview
     id="namedview18"
     pagecolor="#ffffff"
     bordercolor="#666666"
     borderopacity="1.0"
     inkscape:showpageshadow="2"
     inkscape:pageopacity="0.0"
     inkscape:pagecheckerboard="0"
     inkscape:deskcolor="#d1d1d1"
     showgrid="true"
     inkscape:zoom="8"
     inkscape:cx="33.3125"
     inkscape:cy="33.1875"
     inkscape:window-width="1920"
     inkscape:window-height="994"
     inkscape:window-x="0"
     inkscape:window-y="0"
     inkscape:window-maximized="1"
     inkscape:current-layer="svg16"
     showguides="false">
    <inkscape:grid
       id="grid2"
       units="px"
       originx="0"
       originy="0"
       spacingx="0.26457812"
       spacingy="0.26457812"
       empcolor="#0099e5"
       empopacity="0.30196078"
       color="#0099e5"
       opacity="0.14901961"
       empspacing="5"
       dotted="false"
       gridanglex="30"
       gridanglez="30"
       visible="true" />
  </sodipodi:namedview>
  <path
     id="path32082-9-2"
     style="fill:url(#linearGradient1419);fill-opacity:1;stroke:none;stroke-width:1.35383;stroke-linecap:round;stroke-linejoin:round;stroke-opacity:0.03"
     d="m -2.6320786,-23.963584 c -1.058312,0 -1.8520471,0.811935 -1.8520471,1.894517 v 1.353227 c 0,0 0.5291561,-1.353227 1.3228911,-1.353227 h 2.116625 3.174937 1.587469 6.3498746 c 0.793735,0 1.322891,0.54129 1.322891,1.353227 v 0 0 -1.353227 c 0,-1.082582 -0.793735,-1.894517 -1.8520471,-1.894517 H 3.1698184 1.6011714 -0.78003165 Z"
     sodipodi:nodetypes="sccsccccccccccccs" />
  <rect
     x="1.8657358"
     y="-23.692932"
     width="3.1749375"
     height="0.54129046"
     ry="0.27115667"
     stroke-width="0.904701"
     style="fill:#222638;fill-opacity:1;paint-order:stroke markers fill"
     id="rect12-5-9-3-9-8"
     rx="0.27115667" />
  <path
     d="m 3.9118194,-22.881001 h -0.917202 -1.146507 -4.480189 c -0.529156,0 -0.793734,0.270642 -0.793734,0.811934 v 0 0 H 10.332249 v 0 0 c 0,-0.541292 -0.264578,-0.811934 -0.7937341,-0.811934 z"
     style="fill:#222638;fill-opacity:1;stroke-width:0.618888;paint-order:markers stroke fill"
     id="path8-7-2-9-6-1-7-5-9"
     sodipodi:nodetypes="cccccccccccc"
     opacity="0.6" />
  <path
     style="display:inline;fill:#ffffff;fill-opacity:1;stroke:none;stroke-width:2.77827;stroke-linecap:round;stroke-linejoin:round;stroke-opacity:0.03;filter:url(#filter77953-2-4-7-7)"
     d="m -14.025629,3.0793846 h 6.1660045 4.8447182 3.08300239 7.92771991 c 1.3212868,0 2.202145,0.9435823 2.202145,2.3589558 l -0.0082,11.1961006 c 0.0082,1.415373 -1.496833,2.225381 -2.6343739,2.232069 L -14.02563,18.993397 c -1.321286,0.0078 -2.202145,-0.943583 -2.202145,-2.358956 l 1e-6,-11.3229881 c -1e-6,-1.288486 0.882451,-2.2155179 2.202145,-2.2320683 z"
     id="path1611-1-8-0-7-3-7"
     clip-path="url(#clipPath79425-9-5-3-1)"
     transform="matrix(0.60072833,0,0,0.57365489,5.2643579,-23.83557)"
     sodipodi:nodetypes="cccccccssccc" />
  <path
     style="display:inline;fill:#4f4f4f;fill-opacity:1;stroke:none;stroke-width:2.77827;stroke-linecap:round;stroke-linejoin:round;stroke-opacity:0.03;filter:url(#filter77953-2-4-9-2)"
     d="m -14.026297,2.5011118 6.1666725,0.1211316 H -3.014907 0.06809547 L 7.9884881,2.5011118 C 9.3097749,2.5157128 10.189967,3.444358 10.189967,4.874457 l -2.06e-4,11.759984 c 0.0082,1.415373 -0.872618,2.358956 -2.6343739,2.358956 H -14.02563 c -1.321306,0 -2.202145,-0.943583 -2.202145,-2.358956 V 4.874457 c 0,-1.4240071 0.880591,-2.3733452 2.201478,-2.3733452 z"
     id="path1611-1-8-0-7-2-3"
     clip-path="url(#clipPath79425-9-5-5-2)"
     transform="matrix(0.60091009,0,0,0.57017696,5.2673079,-23.495143)"
     sodipodi:nodetypes="cccccccssccc" />
  <path
     d="m 3.9823744,-22.069067 h -1.058312 -1.322891 -4.762406 c -0.793735,0 -1.3228881,0.541293 -1.3228881,1.353227 v 7.036779 c 0,0.811926 0.5291531,1.353219 1.3228881,1.353219 H 10.067669 c 0.793734,0 1.32289,-0.541293 1.32289,-1.353219 v -7.036779 c 0,-0.811934 -0.529156,-1.353227 -1.32289,-1.353227 z"
     style="fill:url(#linearGradient1662-7);fill-opacity:1;stroke-width:1.01546;paint-order:markers stroke fill"
     id="path8-7-2-9-6-1-9-6"
     sodipodi:nodetypes="ccccsssssscc"
     opacity="0.6" />
  <path
     d="m -4.4841257,-17.36236 4.52428605,5.026985 h -3e-6 0.171979 l -4.69626205,-5.19896 v 0 0 z"
     id="path2653-4"
     style="fill:#bac8df;fill-opacity:1;stroke-width:0.127241"
     sodipodi:nodetypes="cccccccc" />
  <path
     d="m -4.4841257,-15.761677 3.0388071,3.436549 -3e-6,0.003 0.171852,-0.0016 v 0.0016 l -3.2092961,-3.61151 v 0 0 z"
     id="path2653-4-3"
     style="fill:#bac8df;fill-opacity:1;stroke-width:0.0873198"
     sodipodi:nodetypes="ccccccccc" />
  <path
     d="m 9.8485719,-16.714491 c -0.03316,-0.101806 -0.08389,-0.19731 -0.152026,-0.286509 -0.06827,-0.0891 -0.153034,-0.168237 -0.254382,-0.237387 -0.101404,-0.06908 -0.220275,-0.123633 -0.356684,-0.163709 -0.05467,-0.01449 -0.150833,-0.03727 -0.277495,-0.06822 -0.09053,-0.02205 -0.175402,-0.04465 -0.271076,-0.06768 v -1.123877 c 0.09567,0.02548 0.162136,0.06592 0.233082,0.110875 0.151792,0.0961 0.246967,0.260497 0.274848,0.483735 h 0.735347 c -0.00695,-0.191346 -0.049432,-0.348251 -0.127522,-0.48921 -0.085785,-0.154597 -0.201731,-0.287275 -0.347932,-0.392857 -0.146168,-0.105474 -0.321304,-0.185925 -0.514265,-0.238706 -0.083813,-0.02289 -0.157874,-0.04214 -0.253546,-0.0551 v -0.354907 h -0.680345 v 0.352578 c -0.07442,0.0111 -0.161029,0.02599 -0.238397,0.04518 -0.183291,0.04553 -0.344297,0.115532 -0.488476,0.210099 -0.144269,0.09466 -0.258878,0.213799 -0.346597,0.357469 -0.08774,0.143754 -0.130875,0.31381 -0.130875,0.510259 0,0.101891 0.01493,0.201903 0.04415,0.300149 0.02923,0.09824 0.0791,0.190996 0.149276,0.278315 0.07019,0.08732 0.164716,0.16645 0.283691,0.237398 0.118879,0.07093 0.262624,0.128245 0.441967,0.171904 0.09872,0.02492 0.200171,0.0482 0.285213,0.0699 v 1.271245 c -0.116916,-0.03103 -0.232666,-0.07865 -0.3261,-0.143288 -0.09748,-0.06726 -0.170789,-0.148326 -0.225343,-0.253897 -0.05077,-0.09811 -0.07522,-0.218199 -0.07874,-0.345764 h -0.730478 c 0.0073,0.223239 0.05581,0.419837 0.145339,0.588616 0.09353,0.176507 0.218276,0.318486 0.374227,0.43119 0.155869,0.112821 0.333727,0.195131 0.544262,0.249718 0.09442,0.02449 0.201188,0.04209 0.296863,0.0556 v 0.375742 h 0.680347 v -0.367169 c 0.106305,-0.01136 0.20152,-0.0286 0.303255,-0.05187 0.198797,-0.04542 0.378919,-0.117317 0.534879,-0.215542 0.155862,-0.09823 0.282989,-0.224599 0.378555,-0.379303 0.09546,-0.154577 0.14399,-0.341076 0.14399,-0.559362 10e-6,-0.101818 -0.01595,-0.20372 -0.04903,-0.305611 z m -1.991996,-0.994547 c -0.127566,-0.03979 -0.254194,-0.09661 -0.340711,-0.170596 -0.09164,-0.07818 -0.134727,-0.186394 -0.134727,-0.324706 0,-0.09824 0.02569,-0.180079 0.07446,-0.245583 0.0487,-0.06549 0.10537,-0.117338 0.179439,-0.155533 0.0657,-0.0339 0.147126,-0.05916 0.221538,-0.07588 z m 1.263974,1.592134 c -0.03124,0.07094 -0.08184,0.133687 -0.152048,0.188275 -0.07018,0.05457 -0.167363,0.09916 -0.280396,0.133697 -0.04784,0.01465 -0.08742,0.02598 -0.151197,0.0344 v -1.138621 c 0.106304,0.02789 0.193261,0.05668 0.279856,0.08643 0.0857,0.02917 0.167409,0.07912 0.239578,0.150058 0.07213,0.07096 0.109588,0.181035 0.109588,0.33018 1.2e-5,0.07281 -0.01422,0.144626 -0.04538,0.215575 z"
     id="path25907-1"
     style="fill:#d8f0f3;fill-opacity:1;stroke-width:0.0106305" />
  <path
     inkscape:connector-curvature="0"
     id="fill-3"
     d="m 2.3811951,6.7202407 8e-6,6.9729593 c -0.02466,0.151193 -0.06095,0.240028 -0.170388,0.329402 l 13.1347169,-2e-6 c 0.332768,0 0.529156,-0.05437 0.529156,-0.527469 V 6.7466986 c 0,-0.1765319 -0.08844,-0.3968672 -0.502698,-0.3968672 H 2.9079811 c -0.2622,0 -0.526778,0 -0.526786,0.3704093 z"
     style="color:#1e92ff;opacity:0.4;fill:url(#linearGradient17);fill-opacity:0.4;fill-rule:nonzero;stroke:none;stroke-width:2.14741"
     sodipodi:nodetypes="ccccccccc" />
  <rect
     x="3.704088"
     y="7.9373407"
     width="4.7624063"
     height="0.79373437"
     ry="0.39686719"
     stroke-width="1.34176"
     style="opacity:0.8;fill:url(#linearGradient4);fill-opacity:1;paint-order:stroke markers fill"
     id="rect12-5-9-3-9-7-7-9"
     rx="0.39687029" />
  <path
     d="m 15.583184,5.8230987 -0.23766,-0.00238 V 5.1391919 C 15.344995,4.7188461 15.080946,4.23325 14.453631,4.23325 H 8.6734001 c -1.000642,0 -1.000642,-0.2645782 -1.344329,-0.6518756 L 6.9250601,2.8099599 C 6.7867861,2.5485514 6.4744091,2.3824175 6.1605001,2.3812031 H 1.3228911 C 0.86984325,2.3817323 0.52961425,2.7546922 0.52915625,3.1749375 l 3e-6,10.4508385 c 0,0.541485 0.38835,0.926023 0.89956485,0.926023 H 15.583192 c 0.453045,-5.29e-4 0.820192,-0.341007 0.820652,-0.761252 V 6.5843308 C 16.403315,6.1641093 16.036213,5.8235761 15.583192,5.8231396 Z M 1.0583052,13.625735 V 3.4394747 c 2.03e-4,-0.2185389 0,-0.5291562 0.5291559,-0.5291562 h 4.153876 c 0.264578,0 0.555614,0 0.723886,0.3503014 l 0.403746,0.665414 c 0.322677,0.6114453 0.803789,0.8363314 1.597523,0.8363314 l 5.9609459,-5.3e-6 c 0.235705,1.164e-4 0.388602,0.1845856 0.38893,0.4032224 v 0.657511 L 2.6457731,5.8207134 c -0.529156,0 -0.793734,0.2645781 -0.793734,0.7937343 v 7.0112883 c -0.01198,0.516435 -0.7817539,0.516435 -0.7937339,-10e-7 z M 15.87468,13.493446 c 0,0.529156 -0.29356,0.528974 -0.529156,0.529156 H 2.1166171 c 0,0 0.264578,0.09095 0.264578,-0.396867 V 6.8789903 c 0,-0.3673615 0,-0.5291563 0.529156,-0.5291563 H 15.345524 c 0.529156,0 0.528953,0.3106121 0.529156,0.5291563 z"
     id="path6-5-2-5-1"
     style="opacity:0.7;fill:url(#linearGradient5);stroke-width:0.264578"
     sodipodi:nodetypes="cccccccccccccccccccccccccccccccccccccccc" />
  <path
     d="m 14.729564,11.085476 c -0.03316,-0.101806 -0.08389,-0.19731 -0.152026,-0.286509 -0.06827,-0.0891 -0.153034,-0.168237 -0.254382,-0.237387 -0.101404,-0.06908 -0.220275,-0.123633 -0.356684,-0.163709 -0.05467,-0.01449 -0.150833,-0.03727 -0.277495,-0.06822 -0.09053,-0.02205 -0.175402,-0.04465 -0.271076,-0.06768 V 9.1380919 c 0.09567,0.02548 0.162136,0.06592 0.233082,0.110875 0.151792,0.0961 0.246967,0.260497 0.274848,0.4837348 h 0.735347 c -0.0069,-0.1913458 -0.04943,-0.3482508 -0.127522,-0.4892098 -0.08579,-0.154597 -0.201731,-0.287275 -0.347932,-0.392857 -0.146168,-0.105474 -0.321304,-0.185925 -0.514265,-0.238706 -0.08381,-0.02289 -0.157874,-0.04214 -0.253546,-0.0551 v -0.354907 h -0.680345 v 0.352578 c -0.07442,0.0111 -0.161029,0.02599 -0.238397,0.04518 -0.183291,0.04553 -0.344297,0.115532 -0.488476,0.210099 -0.144269,0.09466 -0.258878,0.213799 -0.346597,0.357469 -0.08774,0.143754 -0.130875,0.31381 -0.130875,0.510259 0,0.1018918 0.01493,0.201903 0.04415,0.3001493 0.02923,0.09824 0.0791,0.1909968 0.149276,0.2783168 0.07019,0.08732 0.164716,0.16645 0.283691,0.237398 0.118879,0.07093 0.262624,0.128245 0.441967,0.171904 0.09872,0.02492 0.200171,0.0482 0.285213,0.0699 v 1.271245 c -0.116916,-0.03103 -0.232666,-0.07865 -0.3261,-0.143288 -0.09748,-0.06726 -0.170789,-0.148326 -0.225343,-0.253897 -0.05077,-0.09811 -0.07522,-0.218199 -0.07874,-0.345764 h -0.730478 c 0.0073,0.223239 0.05581,0.419837 0.145339,0.588616 0.09353,0.176507 0.218276,0.318486 0.374227,0.43119 0.155869,0.112821 0.333727,0.195131 0.544262,0.249718 0.09442,0.02449 0.201188,0.04209 0.296863,0.0556 v 0.375742 h 0.680347 v -0.367169 c 0.106305,-0.01136 0.20152,-0.0286 0.303255,-0.05187 0.198797,-0.04542 0.378919,-0.117317 0.534879,-0.215542 0.155862,-0.09823 0.282989,-0.224599 0.378555,-0.379303 0.09546,-0.154577 0.14399,-0.341076 0.14399,-0.559362 1e-5,-0.101818 -0.01595,-0.20372 -0.04903,-0.305611 z m -1.991996,-0.994549 c -0.127566,-0.03979 -0.254194,-0.09661 -0.340711,-0.1705963 -0.09164,-0.07818 -0.134727,-0.186395 -0.134727,-0.3247067 0,-0.09824 0.02569,-0.180079 0.07446,-0.245583 0.0487,-0.06549 0.10537,-0.117338 0.179439,-0.155533 0.0657,-0.0339 0.147126,-0.05916 0.221538,-0.07588 z m 1.263974,1.592136 c -0.03124,0.07094 -0.08184,0.133687 -0.152048,0.188275 -0.07018,0.05457 -0.167363,0.09916 -0.280396,0.133697 -0.04784,0.01465 -0.08742,0.02598 -0.151197,0.0344 v -1.138621 c 0.106304,0.02789 0.193261,0.05668 0.279856,0.08643 0.0857,0.02917 0.167409,0.07912 0.239578,0.150058 0.07213,0.07096 0.109588,0.181035 0.109588,0.33018 1.2e-5,0.07281 -0.01422,0.144626 -0.04538,0.215575 z"
     id="path25907-1-5"
     style="fill:url(#linearGradient2);stroke-width:0.0106305" />
</svg>
