<?xml version="1.0" encoding="UTF-8" standalone="no"?>
<svg
   width="64"
   version="1.1"
   height="64"
   id="svg17"
   sodipodi:docname="folder-presentation.svg"
   inkscape:version="1.3 (0e150ed6c4, 2023-07-21)"
   xmlns:inkscape="http://www.inkscape.org/namespaces/inkscape"
   xmlns:sodipodi="http://sodipodi.sourceforge.net/DTD/sodipodi-0.dtd"
   xmlns:xlink="http://www.w3.org/1999/xlink"
   xmlns="http://www.w3.org/2000/svg"
   xmlns:svg="http://www.w3.org/2000/svg"
   xmlns:rdf="http://www.w3.org/1999/02/22-rdf-syntax-ns#"
   xmlns:cc="http://creativecommons.org/ns#"
   xmlns:dc="http://purl.org/dc/elements/1.1/">
  <sodipodi:namedview
     pagecolor="#ffffff"
     bordercolor="#666666"
     borderopacity="1"
     objecttolerance="10"
     gridtolerance="10"
     guidetolerance="10"
     inkscape:pageopacity="0"
     inkscape:pageshadow="2"
     inkscape:window-width="1920"
     inkscape:window-height="994"
     id="namedview19"
     showgrid="true"
     inkscape:zoom="3.4692426"
     inkscape:cx="15.853604"
     inkscape:cy="-5.0443287"
     inkscape:window-x="0"
     inkscape:window-y="0"
     inkscape:window-maximized="1"
     inkscape:current-layer="layer1"
     inkscape:document-rotation="0"
     inkscape:showpageshadow="2"
     inkscape:pagecheckerboard="0"
     inkscape:deskcolor="#d1d1d1">
    <inkscape:grid
       type="xygrid"
       id="grid931"
       originx="0"
       originy="0"
       spacingy="1"
       spacingx="1"
       units="px"
       visible="true" />
  </sodipodi:namedview>
  <defs
     id="defs5455">
    <clipPath
       clipPathUnits="userSpaceOnUse"
       id="clipPath79425-9-5-3">
      <rect
         style="opacity:0.5;fill:#000000;fill-opacity:1;stroke:none;stroke-width:0.855869;stroke-dasharray:none;stroke-opacity:1;paint-order:stroke fill markers"
         id="rect79427-1-9-6"
         width="26.417742"
         height="29.037542"
         x="-16.227774"
         y="-6.4845476" />
    </clipPath>
    <clipPath
       clipPathUnits="userSpaceOnUse"
       id="clipPath79425-9-5-5">
      <rect
         style="opacity:0.5;fill:#000000;fill-opacity:1;stroke:none;stroke-width:0.855869;stroke-dasharray:none;stroke-opacity:1;paint-order:stroke fill markers"
         id="rect79427-1-9-62"
         width="26.417742"
         height="29.037542"
         x="-16.227774"
         y="-6.4845476" />
    </clipPath>
    <linearGradient
       inkscape:collect="always"
       xlink:href="#linearGradient9"
       id="linearGradient17"
       x1="392.57144"
       y1="536.79797"
       x2="444.57144"
       y2="507.798"
       gradientUnits="userSpaceOnUse"
       gradientTransform="translate(0,-1.6e-4)" />
    <linearGradient
       id="linearGradient9"
       inkscape:collect="always">
      <stop
         style="stop-color:#3385ff;stop-opacity:1"
         offset="0"
         id="stop7" />
      <stop
         style="stop-color:#3aacbe;stop-opacity:1;"
         offset="0.48888862"
         id="stop8" />
      <stop
         style="stop-color:#b07bff;stop-opacity:1;"
         offset="1"
         id="stop9" />
    </linearGradient>
    <linearGradient
       inkscape:collect="always"
       xlink:href="#linearGradient24"
       id="linearGradient4"
       gradientUnits="userSpaceOnUse"
       gradientTransform="translate(0.999947,4.023174)"
       x1="397.57144"
       y1="511.27505"
       x2="415.57144"
       y2="511.27505" />
    <linearGradient
       id="linearGradient24"
       inkscape:collect="always">
      <stop
         style="stop-color:#5398ff;stop-opacity:1;"
         offset="0"
         id="stop22" />
      <stop
         style="stop-color:#61c0cf;stop-opacity:1"
         offset="0.48888862"
         id="stop23" />
      <stop
         style="stop-color:#b07bff;stop-opacity:1;"
         offset="1"
         id="stop24" />
    </linearGradient>
    <linearGradient
       inkscape:collect="always"
       xlink:href="#linearGradient12"
       id="linearGradient5"
       gradientUnits="userSpaceOnUse"
       gradientTransform="translate(-4e-5,-1.49e-4)"
       x1="386.38025"
       y1="541.81329"
       x2="439.20044"
       y2="499.79816" />
    <linearGradient
       id="linearGradient12"
       inkscape:collect="always">
      <stop
         style="stop-color:#5398ff;stop-opacity:1;"
         offset="0"
         id="stop10" />
      <stop
         style="stop-color:#47b7c7;stop-opacity:1;"
         offset="0.48888862"
         id="stop11" />
      <stop
         style="stop-color:#b07bff;stop-opacity:1;"
         offset="1"
         id="stop12" />
    </linearGradient>
    <linearGradient
       inkscape:collect="always"
       xlink:href="#linearGradient9"
       id="linearGradient2"
       x1="426.80594"
       y1="523.76794"
       x2="436.40594"
       y2="523.76794"
       gradientUnits="userSpaceOnUse" />
    <linearGradient
       inkscape:collect="always"
       xlink:href="#linearGradient9"
       id="linearGradient3"
       x1="422.57144"
       y1="523.79797"
       x2="440.57144"
       y2="523.79797"
       gradientUnits="userSpaceOnUse" />
  </defs>
  <metadata
     id="metadata5458">
    <rdf:RDF>
      <cc:Work
         rdf:about="">
        <dc:format>image/svg+xml</dc:format>
        <dc:type
           rdf:resource="http://purl.org/dc/dcmitype/StillImage" />
      </cc:Work>
    </rdf:RDF>
  </metadata>
  <g
     inkscape:label="Capa 1"
     inkscape:groupmode="layer"
     id="layer1"
     transform="translate(-384.57143,-483.798)">
    <path
       inkscape:connector-curvature="0"
       id="fill-3"
       d="m 393.5714,509.19784 3e-5,26.355 c -0.0932,0.57145 -0.23037,0.90721 -0.644,1.24501 l 49.644,-1e-5 c 1.25773,0 2,-0.20551 2,-1.99362 v -25.50638 c 0,-0.66722 -0.33428,-1.5 -1.9,-1.5 h -47.10899 c -0.99101,0 -1.99101,0 -1.99104,1.4 z"
       style="color:#1e92ff;opacity:0.4;fill:url(#linearGradient17);fill-opacity:0.4;fill-rule:nonzero;stroke:none;stroke-width:8.11634"
       sodipodi:nodetypes="ccccccccc" />
    <rect
       x="398.57132"
       y="513.79822"
       width="18"
       height="3"
       ry="1.5"
       stroke-width="5.07132"
       style="opacity:0.8;fill:url(#linearGradient4);fill-opacity:1;paint-order:stroke markers fill"
       id="rect12-5-9-3-9-7-7-9"
       rx="1.5000117" />
    <path
       d="m 443.46966,505.807 -0.89826,-0.009 v -2.5759 c -0.002,-1.58874 -1,-3.4241 -3.371,-3.4241 h -21.84697 c -3.78203,0 -3.78203,-1 -5.08103,-2.46383 l -1.527,-2.91564 c -0.52262,-0.98802 -1.70328,-1.61594 -2.88973,-1.62053 h -18.28424 c -1.71234,0.002 -2.99827,1.41164 -3,3 l 10e-6,39.5 c 0,2.0466 1.46781,3.5 3.4,3.5 h 53.49825 c 1.71233,-0.002 3.1,-1.28887 3.10174,-2.87723 v -27.23662 c -0.002,-1.58827 -1.3895,-2.87535 -3.10174,-2.877 z m -54.89826,29.49085 v -38.5 c 7.7e-4,-0.82599 0,-2 2,-2 h 15.7 c 1,0 2.1,0 2.736,1.324 l 1.526,2.515 c 1.21959,2.31102 3.038,3.161 6.038,3.161 l 22.53,-2e-5 c 0.89087,4.4e-4 1.46876,0.69766 1.47,1.52402 v 2.48513 l -46,-0.009 c -2,0 -3,1 -3,3 v 26.49987 c -0.0453,1.95192 -2.95472,1.95192 -3,0 z m 56,-0.5 c 0,2 -1.10954,1.99931 -2,2 h -50 c 0,0 1,0.34375 1,-1.5 v -25.5 c 0,-1.38848 0,-2 2,-2 h 47 c 2,0 1.99923,1.17399 2,2 z"
       id="path6-5-2-5-1"
       style="fill:url(#linearGradient5)"
       sodipodi:nodetypes="cccccccccccccccccccccccccccccccccccccccc" />
    <path
       fill-rule="evenodd"
       clip-rule="evenodd"
       d="m 438.00065,532.798 h -9.64346 c -0.35454,0 -0.64226,-0.28852 -0.64226,-0.64286 0,-0.3553 0.28772,-0.64321 0.64226,-0.64321 h 9.64346 c 0.71003,0 1.28571,-0.57568 1.28571,-1.28568 v -12.8571 c 0,-0.71008 -0.57568,-1.28538 -1.28571,-1.28538 h -12.85747 c -0.70984,0 -1.28584,0.5753 -1.28584,1.28538 v 12.21424 c 0,0.35531 -0.2876,0.64287 -0.64289,0.64287 -0.3547,0 -0.64302,-0.28756 -0.64302,-0.64287 v -12.21424 c 0,-1.42008 1.15184,-2.57115 2.57175,-2.57115 h 12.85747 c 1.41971,0 2.57078,1.15107 2.57078,2.57115 v 12.8571 c 0,1.42008 -1.15107,2.57175 -2.57078,2.57175 z m -12.21445,-1.28607 c 0.35453,0 0.64285,0.28791 0.64285,0.64321 0,0.35434 -0.28832,0.64286 -0.64285,0.64286 -0.35538,0 -0.64302,-0.28852 -0.64302,-0.64286 0,-0.3553 0.28764,-0.64321 0.64302,-0.64321 z"
       id="path2-7-4-7"
       style="fill:url(#linearGradient3);fill-opacity:1;stroke-width:0.0401785" />
    <path
       fill-rule="evenodd"
       clip-rule="evenodd"
       d="m 436.10593,526.46793 c -0.16568,0 -0.3,-0.13439 -0.3,-0.30007 v -4.79996 c 0,-0.16568 -0.13433,-0.29997 -0.3,-0.29997 h -0.6 c -0.16564,0 -0.3,0.13429 -0.3,0.29997 v 6.14996 c 0,0.4143 -0.3357,0.75007 -0.75,0.75007 h -0.3 c -0.41422,0 -0.75,-0.33577 -0.75,-0.75007 v -3.15 c 0,-0.16567 -0.13432,-0.29997 -0.3,-0.29997 h -0.6 c -0.16567,0 -0.3,0.1343 -0.3,0.29997 v 3.15 c 0,0.4143 -0.33578,0.75007 -0.75,0.75007 h -0.3 c -0.4143,0 -0.75,-0.33577 -0.75,-0.75007 v -1.94993 c 0,-0.1657 -0.13436,-0.30007 -0.3,-0.30007 h -0.6 c -0.16567,0 -0.3,0.13436 -0.3,0.30007 v 2.09997 c 0,0.33135 -0.26866,0.60003 -0.6,0.60003 -0.6627,0 -1.2,-0.53734 -1.2,-1.20007 v -5.4 -2.09997 c 0,-0.16567 0.13433,-0.29996 0.3,-0.29996 0.16568,0 0.3,0.13428 0.3,0.29996 v 1.06189 1.03808 5.4 c 0,0.33135 0.23115,0.60002 0.45,0.60002 0.0825,0 0.15,-0.0667 0.15,-0.15003 v -2.09997 c 0,-0.41426 0.3357,-0.74995 0.75,-0.74995 h 0.9 c 0.41426,0 0.75,0.33569 0.75,0.74995 v 1.95006 c 0,0.16567 0.13433,0.29994 0.3,0.29994 0.16567,0 0.3,-0.13427 0.3,-0.29994 v -3.15001 c 0,-0.4143 0.33578,-0.75007 0.75,-0.75007 h 0.9 c 0.41422,0 0.75,0.33577 0.75,0.75007 v 3.15001 c 0,0.16567 0.13432,0.29994 0.3,0.29994 0.16567,0 0.3,-0.13427 0.3,-0.29994 v -6.15008 c 0,-0.41419 0.33574,-0.74997 0.75,-0.74997 h 0.9 c 0.4143,0 0.75,0.33578 0.75,0.74997 v 4.95 c 0,0.16568 -0.13433,0.30007 -0.3,0.30007 z m 0,0.59993 c 0.16567,0 0.3,0.13436 0.3,0.30007 0,0.16568 -0.13433,0.29997 -0.3,0.29997 -0.16568,0 -0.3,-0.13429 -0.3,-0.29997 0,-0.1657 0.13432,-0.30007 0.3,-0.30007 z"
       id="path2-3-3-5-9-4"
       style="fill:url(#linearGradient2);fill-opacity:1;stroke-width:0.0187496" />
  </g>
</svg>
