<?xml version="1.0" encoding="UTF-8" standalone="no"?>
<svg
   width="64"
   version="1.1"
   height="64"
   id="svg17"
   sodipodi:docname="folder-comic.svg"
   inkscape:version="1.3 (0e150ed6c4, 2023-07-21)"
   xmlns:inkscape="http://www.inkscape.org/namespaces/inkscape"
   xmlns:sodipodi="http://sodipodi.sourceforge.net/DTD/sodipodi-0.dtd"
   xmlns:xlink="http://www.w3.org/1999/xlink"
   xmlns="http://www.w3.org/2000/svg"
   xmlns:svg="http://www.w3.org/2000/svg"
   xmlns:rdf="http://www.w3.org/1999/02/22-rdf-syntax-ns#"
   xmlns:cc="http://creativecommons.org/ns#"
   xmlns:dc="http://purl.org/dc/elements/1.1/">
  <sodipodi:namedview
     pagecolor="#ffffff"
     bordercolor="#666666"
     borderopacity="1"
     objecttolerance="10"
     gridtolerance="10"
     guidetolerance="10"
     inkscape:pageopacity="0"
     inkscape:pageshadow="2"
     inkscape:window-width="1920"
     inkscape:window-height="994"
     id="namedview19"
     showgrid="true"
     inkscape:zoom="9.8125"
     inkscape:cx="26.802548"
     inkscape:cy="40.815287"
     inkscape:window-x="0"
     inkscape:window-y="0"
     inkscape:window-maximized="1"
     inkscape:current-layer="layer1"
     inkscape:document-rotation="0"
     inkscape:showpageshadow="2"
     inkscape:pagecheckerboard="0"
     inkscape:deskcolor="#d1d1d1">
    <inkscape:grid
       type="xygrid"
       id="grid925"
       originx="0"
       originy="0"
       spacingy="1"
       spacingx="1"
       units="px"
       visible="true" />
  </sodipodi:namedview>
  <defs
     id="defs5455">
    <linearGradient
       inkscape:collect="always"
       id="linearGradient3">
      <stop
         style="stop-color:#de87cd;stop-opacity:1"
         offset="0"
         id="stop2" />
      <stop
         style="stop-color:#eeb290;stop-opacity:1;"
         offset="0.5042001"
         id="stop4" />
      <stop
         style="stop-color:#ffdd55;stop-opacity:1"
         offset="1"
         id="stop3" />
    </linearGradient>
    <linearGradient
       inkscape:collect="always"
       id="linearGradient10014">
      <stop
         style="stop-color:#de87cd;stop-opacity:1"
         offset="0"
         id="stop10010" />
      <stop
         style="stop-color:#ffdd55;stop-opacity:1"
         offset="1"
         id="stop10012" />
    </linearGradient>
    <clipPath
       clipPathUnits="userSpaceOnUse"
       id="clipPath79425-9-5-3">
      <rect
         style="opacity:0.5;fill:#000000;fill-opacity:1;stroke:none;stroke-width:0.855869;stroke-dasharray:none;stroke-opacity:1;paint-order:stroke fill markers"
         id="rect79427-1-9-6"
         width="26.417742"
         height="29.037542"
         x="-16.227774"
         y="-6.4845476" />
    </clipPath>
    <clipPath
       clipPathUnits="userSpaceOnUse"
       id="clipPath79425-9-5-5">
      <rect
         style="opacity:0.5;fill:#000000;fill-opacity:1;stroke:none;stroke-width:0.855869;stroke-dasharray:none;stroke-opacity:1;paint-order:stroke fill markers"
         id="rect79427-1-9-62"
         width="26.417742"
         height="29.037542"
         x="-16.227774"
         y="-6.4845476" />
    </clipPath>
    <linearGradient
       inkscape:collect="always"
       xlink:href="#linearGradient3"
       id="linearGradient17"
       x1="392.57144"
       y1="536.79797"
       x2="444.57144"
       y2="507.798"
       gradientUnits="userSpaceOnUse"
       gradientTransform="translate(0,-1.6e-4)" />
    <linearGradient
       inkscape:collect="always"
       xlink:href="#linearGradient10014"
       id="linearGradient4"
       gradientUnits="userSpaceOnUse"
       gradientTransform="translate(0.999947,4.023174)"
       x1="397.57144"
       y1="511.27505"
       x2="415.57144"
       y2="511.27505" />
    <linearGradient
       inkscape:collect="always"
       xlink:href="#linearGradient10014"
       id="linearGradient5"
       gradientUnits="userSpaceOnUse"
       gradientTransform="translate(-4e-5,-1.49e-4)"
       x1="386.38025"
       y1="541.81329"
       x2="439.20044"
       y2="499.79816" />
    <linearGradient
       inkscape:collect="always"
       xlink:href="#linearGradient10014"
       id="linearGradient2"
       x1="418.00021"
       y1="522.65485"
       x2="438.57132"
       y2="522.65485"
       gradientUnits="userSpaceOnUse"
       gradientTransform="translate(2.10021,1.14301)" />
  </defs>
  <metadata
     id="metadata5458">
    <rdf:RDF>
      <cc:Work
         rdf:about="">
        <dc:format>image/svg+xml</dc:format>
        <dc:type
           rdf:resource="http://purl.org/dc/dcmitype/StillImage" />
      </cc:Work>
    </rdf:RDF>
  </metadata>
  <g
     inkscape:label="Capa 1"
     inkscape:groupmode="layer"
     id="layer1"
     transform="translate(-384.57143,-483.798)">
    <path
       inkscape:connector-curvature="0"
       id="fill-3"
       d="m 393.5714,509.19784 3e-5,26.355 c -0.0932,0.57145 -0.23037,0.90721 -0.644,1.24501 l 49.644,-1e-5 c 1.25773,0 2,-0.20551 2,-1.99362 v -25.50638 c 0,-0.66722 -0.33428,-1.5 -1.9,-1.5 h -47.10899 c -0.99101,0 -1.99101,0 -1.99104,1.4 z"
       style="color:#1e92ff;opacity:0.4;fill:url(#linearGradient17);fill-opacity:0.4;fill-rule:nonzero;stroke:none;stroke-width:8.11634"
       sodipodi:nodetypes="ccccccccc" />
    <rect
       x="398.57132"
       y="513.79803"
       width="18"
       height="3"
       ry="1.5"
       stroke-width="5.07132"
       style="opacity:0.8;fill:url(#linearGradient4);fill-opacity:1;paint-order:stroke markers fill"
       id="rect12-5-9-3-9-7-7-9"
       rx="1.5000117" />
    <path
       d="m 443.46966,505.807 -0.89826,-0.009 v -2.5759 c -0.002,-1.58874 -1,-3.4241 -3.371,-3.4241 h -21.84697 c -3.78203,0 -3.78203,-1 -5.08103,-2.46383 l -1.527,-2.91564 c -0.52262,-0.98802 -1.70328,-1.61594 -2.88973,-1.62053 h -18.28424 c -1.71234,0.002 -2.99827,1.41164 -3,3 l 10e-6,39.5 c 0,2.0466 1.46781,3.5 3.4,3.5 h 53.49825 c 1.71233,-0.002 3.1,-1.28887 3.10174,-2.87723 v -27.23662 c -0.002,-1.58827 -1.3895,-2.87535 -3.10174,-2.877 z m -54.89826,29.49085 v -38.5 c 7.7e-4,-0.82599 0,-2 2,-2 h 15.7 c 1,0 2.1,0 2.736,1.324 l 1.526,2.515 c 1.21959,2.31102 3.038,3.161 6.038,3.161 l 22.53,-2e-5 c 0.89087,4.4e-4 1.46876,0.69766 1.47,1.52402 v 2.48513 l -46,-0.009 c -2,0 -3,1 -3,3 v 26.49987 c -0.0453,1.95192 -2.95472,1.95192 -3,0 z m 56,-0.5 c 0,2 -1.10954,1.99931 -2,2 h -50 c 0,0 1,0.34375 1,-1.5 v -25.5 c 0,-1.38848 0,-2 2,-2 h 47 c 2,0 1.99923,1.17399 2,2 z"
       id="path6-5-2-5-1"
       style="fill:url(#linearGradient5)"
       sodipodi:nodetypes="cccccccccccccccccccccccccccccccccccccccc" />
    <path
       fill-rule="evenodd"
       clip-rule="evenodd"
       d="m 438.74341,525.08385 c -0.35498,0 -0.64314,0.28783 -0.64314,0.6422 v 0.32174 c 0,0.88769 -0.71977,1.60716 -1.60687,1.60716 -0.35122,0 -0.67576,-0.11244 -0.94004,-0.30358 -6.3e-4,0 0,0 -6.3e-4,0 l -1.52929,-1.14663 c -0.0179,-0.0139 -0.0322,-0.0243 -0.0498,-0.0383 -0.61774,-0.46897 -1.01607,-1.2116 -1.01607,-2.0475 v -1.28509 c 0,-0.88768 -0.71945,-1.60774 -1.60712,-1.60774 h -8.3568 c -0.88767,0 -1.60773,0.72006 -1.60773,1.60774 v 4.49996 c 0,0.70374 0.45547,1.29486 1.08607,1.51298 0.0251,0.0591 0.0874,0.0941 0.19981,0.0941 0.47603,0 1.28601,0.71916 1.28601,1.60684 v 0.64314 c 0,0.17708 0.14376,0.32115 0.3211,0.32115 0.0681,0 0.1309,-0.0213 0.18328,-0.0575 8.7e-4,0 0,6.5e-4 0,6.5e-4 l 2.70345,-2.02741 c 0.40362,-0.30572 0.90681,-0.48688 1.45299,-0.48688 h 2.41039 c 0.35501,0 0.6429,0.28756 0.6429,0.64285 0,0.35435 -0.28789,0.64223 -0.6429,0.64223 h -2.25013 c -0.36753,0 -0.70704,0.12335 -0.97714,0.33212 l -2.58192,1.93638 h -5.8e-4 c -0.26461,0.19085 -0.58921,0.30321 -0.9403,0.30321 -0.88769,0 -1.6071,-0.71915 -1.6071,-1.60682 v -0.32208 c 0,-0.35431 -0.28766,-0.64281 -0.64284,-0.64281 -0.0709,0 -0.0859,-0.0412 -0.0678,-0.10238 -1.07401,-0.30818 -1.86078,-1.29534 -1.86078,-2.46866 v -5.14277 c 0,-1.42037 1.15089,-2.57114 2.57108,-2.57114 h 9.00013 c 1.42,0 2.57166,1.15081 2.57166,2.57114 v 1.60676 c 0,0.42156 0.2025,0.7957 0.51547,1.03022 l 1.55091,1.16326 c 8.5e-4,0 -6.4e-4,-6e-4 0,-6e-4 0.0521,0.0361 0.11552,0.0571 0.18361,0.0571 0.17735,0 0.32114,-0.14367 0.32114,-0.32107 v -0.64285 c 0,-0.88767 0.80983,-1.60712 1.28571,-1.60712 0.61993,0 1.28536,-0.7191 1.28536,-1.60679 v -4.49996 c 0,-0.88799 -0.71905,-1.6071 -1.60684,-1.6071 h -8.35725 c -0.88768,0 -1.60696,0.71911 -1.60696,1.6071 v 0.32117 c 0,0.35496 -0.2877,0.64282 -0.64307,0.64282 -0.35513,0 -0.6428,-0.28786 -0.6428,-0.64282 v -0.64323 c 0,-1.42004 1.15153,-2.57104 2.57173,-2.57104 h 8.99978 c 1.42036,0 2.57143,1.151 2.57143,2.57104 v 5.14314 c 0,1.42004 -1.01736,2.57168 -1.92828,2.57168 z m -5.14313,2.5711 c 0.3547,0 0.64316,0.28783 0.64316,0.64285 0,0.35527 -0.28846,0.64311 -0.64316,0.64311 -0.35497,0 -0.64288,-0.28784 -0.64288,-0.64311 0,-0.35502 0.28791,-0.64285 0.64288,-0.64285 z"
       id="path1947-1-9-8"
       style="fill:url(#linearGradient2);stroke-width:0.0401778" />
  </g>
</svg>
