<?xml version="1.0" encoding="UTF-8" standalone="no"?>
<svg
   width="64"
   version="1.1"
   height="64"
   id="svg15"
   sodipodi:docname="folder-appimage.svg"
   inkscape:version="1.3 (0e150ed6c4, 2023-07-21)"
   xmlns:inkscape="http://www.inkscape.org/namespaces/inkscape"
   xmlns:sodipodi="http://sodipodi.sourceforge.net/DTD/sodipodi-0.dtd"
   xmlns:xlink="http://www.w3.org/1999/xlink"
   xmlns="http://www.w3.org/2000/svg"
   xmlns:svg="http://www.w3.org/2000/svg"
   xmlns:rdf="http://www.w3.org/1999/02/22-rdf-syntax-ns#"
   xmlns:cc="http://creativecommons.org/ns#"
   xmlns:dc="http://purl.org/dc/elements/1.1/">
  <sodipodi:namedview
     pagecolor="#ffffff"
     bordercolor="#666666"
     borderopacity="1"
     objecttolerance="10"
     gridtolerance="10"
     guidetolerance="10"
     inkscape:pageopacity="0"
     inkscape:pageshadow="2"
     inkscape:window-width="1920"
     inkscape:window-height="994"
     id="namedview17"
     showgrid="true"
     inkscape:zoom="7.155359"
     inkscape:cx="21.801841"
     inkscape:cy="35.288237"
     inkscape:window-x="0"
     inkscape:window-y="0"
     inkscape:window-maximized="1"
     inkscape:current-layer="layer1"
     inkscape:document-rotation="0"
     inkscape:showpageshadow="2"
     inkscape:pagecheckerboard="0"
     inkscape:deskcolor="#d1d1d1">
    <inkscape:grid
       type="xygrid"
       id="grid896"
       originx="0"
       originy="0"
       spacingy="1"
       spacingx="1"
       units="px"
       visible="true" />
  </sodipodi:namedview>
  <defs
     id="defs5455">
    <clipPath
       clipPathUnits="userSpaceOnUse"
       id="clipPath79425-9-5-3">
      <rect
         style="opacity:0.5;fill:#000000;fill-opacity:1;stroke:none;stroke-width:0.855869;stroke-dasharray:none;stroke-opacity:1;paint-order:stroke fill markers"
         id="rect79427-1-9-6"
         width="26.417742"
         height="29.037542"
         x="-16.227774"
         y="-6.4845476" />
    </clipPath>
    <clipPath
       clipPathUnits="userSpaceOnUse"
       id="clipPath79425-9-5-5">
      <rect
         style="opacity:0.5;fill:#000000;fill-opacity:1;stroke:none;stroke-width:0.855869;stroke-dasharray:none;stroke-opacity:1;paint-order:stroke fill markers"
         id="rect79427-1-9-62"
         width="26.417742"
         height="29.037542"
         x="-16.227774"
         y="-6.4845476" />
    </clipPath>
    <linearGradient
       inkscape:collect="always"
       xlink:href="#linearGradient7"
       id="linearGradient17"
       x1="392.57144"
       y1="536.79797"
       x2="444.57144"
       y2="507.798"
       gradientUnits="userSpaceOnUse"
       gradientTransform="translate(0,-1.6e-4)" />
    <linearGradient
       inkscape:collect="always"
       id="linearGradient7">
      <stop
         style="stop-color:#8660cb;stop-opacity:1"
         offset="0"
         id="stop4" />
      <stop
         style="stop-color:#ffdf7e;stop-opacity:1"
         offset="0.99989998"
         id="stop5" />
      <stop
         style="stop-color:#00a7e1;stop-opacity:1;"
         offset="1"
         id="stop6" />
    </linearGradient>
    <linearGradient
       inkscape:collect="always"
       xlink:href="#linearGradient3"
       id="linearGradient4"
       gradientUnits="userSpaceOnUse"
       gradientTransform="translate(0.999947,4.023174)"
       x1="397.57144"
       y1="511.27505"
       x2="415.57144"
       y2="511.27505" />
    <linearGradient
       inkscape:collect="always"
       id="linearGradient3">
      <stop
         style="stop-color:#8660cb;stop-opacity:1"
         offset="0"
         id="stop1" />
      <stop
         style="stop-color:#ffdf7e;stop-opacity:1"
         offset="0.52479523"
         id="stop2" />
      <stop
         style="stop-color:#00a7e1;stop-opacity:1;"
         offset="1"
         id="stop3" />
    </linearGradient>
    <linearGradient
       inkscape:collect="always"
       xlink:href="#linearGradient3"
       id="linearGradient5"
       gradientUnits="userSpaceOnUse"
       gradientTransform="translate(-4e-5,-1.49e-4)"
       x1="387.57144"
       y1="537.79797"
       x2="445.57144"
       y2="492.798" />
    <linearGradient
       inkscape:collect="always"
       xlink:href="#linearGradient7"
       id="linearGradient12"
       x1="429.66238"
       y1="522.2525"
       x2="439.4805"
       y2="522.2525"
       gradientUnits="userSpaceOnUse"
       gradientTransform="translate(0.909055,1.545475)" />
  </defs>
  <metadata
     id="metadata5458">
    <rdf:RDF>
      <cc:Work
         rdf:about="">
        <dc:format>image/svg+xml</dc:format>
        <dc:type
           rdf:resource="http://purl.org/dc/dcmitype/StillImage" />
      </cc:Work>
    </rdf:RDF>
  </metadata>
  <g
     inkscape:label="Capa 1"
     inkscape:groupmode="layer"
     id="layer1"
     transform="translate(-384.57143,-483.798)">
    <path
       inkscape:connector-curvature="0"
       id="fill-3"
       d="m 393.57139,509.19784 3e-5,26.355 c -0.0932,0.57145 -0.23037,0.90721 -0.644,1.24501 l 49.644,-1e-5 c 1.25773,0 2,-0.20551 2,-1.99362 v -25.50638 c 0,-0.66722 -0.33428,-1.5 -1.9,-1.5 h -47.10899 c -0.99101,0 -1.99101,0 -1.99104,1.4 z"
       style="color:#1e92ff;opacity:0.39;fill:url(#linearGradient17);fill-opacity:0.4;fill-rule:nonzero;stroke:none;stroke-width:8.11634"
       sodipodi:nodetypes="ccccccccc" />
    <rect
       x="398.57132"
       y="513.79791"
       width="18"
       height="3"
       ry="1.5"
       stroke-width="5.07132"
       style="opacity:0.8;fill:url(#linearGradient4);fill-opacity:1;paint-order:stroke markers fill"
       id="rect12-5-9-3-9-7-7-9"
       rx="1.5000117" />
    <path
       d="m 443.46965,505.807 -0.89826,-0.009 v -2.5759 c -0.002,-1.58874 -1,-3.4241 -3.371,-3.4241 h -21.84697 c -3.78203,0 -3.78203,-1 -5.08102,-2.46383 l -1.527,-2.91564 c -0.52263,-0.98802 -1.70328,-1.61594 -2.88972,-1.62053 h -18.28425 c -1.71233,0.002 -2.99826,1.41164 -3,3 v 39.5 c 0,2.0466 1.46781,3.5 3.4,3.5 h 53.49825 c 1.71233,-0.002 3.1,-1.28887 3.10174,-2.87723 v -27.23662 c -0.002,-1.58827 -1.3895,-2.87535 -3.10174,-2.877 z m -54.89826,29.49085 v -38.5 c 7.7e-4,-0.82599 0,-2 2,-2 h 15.7 c 1,0 2.1,0 2.736,1.324 l 1.526,2.515 c 1.21959,2.31102 3.038,3.161 6.038,3.161 l 22.53001,-2e-5 c 0.89087,4.4e-4 1.46875,0.69766 1.47001,1.52402 v 2.48513 l -46,-0.009 c -2,0 -3,1 -3,3 v 26.49987 c -0.0453,1.95192 -2.95472,1.95192 -3.00002,0 z m 56,-0.5 c 0,2 -1.10954,1.99931 -2,2 h -50 c 0,0 1,0.34375 1,-1.5 v -25.5 c 0,-1.38848 0,-2 2,-2 h 47 c 2,0 1.99923,1.17399 2,2 z"
       id="path6-5-2-5-1"
       style="opacity:0.7;fill:url(#linearGradient5)"
       sodipodi:nodetypes="cccccccccccccccccccccccccccccccccccccccc" />
    <path
       style="color:#232629;fill:url(#linearGradient12);stroke:none;stroke-width:0.818185"
       d="m 433.84416,514.798 v 3.27274 h -1.63633 l 3.27266,3.57312 3.27279,-3.57312 h -1.6364 v -3.27273 z m 0.8182,8.18186 v 0.90124 c -0.5122,0.10554 -0.99896,0.30887 -1.43504,0.59767 l -0.63919,-0.63918 -1.15698,1.15693 0.63924,0.63918 c -0.288,0.43613 -0.48976,0.92285 -0.59447,1.43503 h -0.90449 v 1.63635 h 0.90129 c 0.10554,0.51219 0.30881,0.99896 0.59767,1.43502 l -0.63924,0.63921 1.15698,1.15697 0.63919,-0.63924 c 0.43608,0.28801 0.92284,0.48977 1.43504,0.59446 v 0.90451 h 1.63634 v -0.9013 c 0.51219,-0.10553 0.99891,-0.3088 1.43504,-0.59767 l 0.63918,0.63924 1.15693,-1.15698 -0.63918,-0.63918 c 0.288,-0.43608 0.4897,-0.92285 0.59448,-1.43504 h 0.90442 v -1.63634 h -0.90123 c -0.10555,-0.51219 -0.30888,-0.99891 -0.59767,-1.43505 l 0.63918,-0.63917 -1.15693,-1.15694 -0.63918,0.63918 c -0.43613,-0.288 -0.92285,-0.4897 -1.43504,-0.59448 v -0.90441 z m 0.81813,2.45454 c 1.35564,0 2.45454,1.09889 2.45454,2.45454 0,1.35557 -1.0989,2.45453 -2.45454,2.45453 -1.35557,0 -2.45453,-1.09896 -2.45453,-2.45453 0,-1.35565 1.09896,-2.45454 2.45453,-2.45454 z"
       class="ColorScheme-Text"
       id="path804-7-7-6" />
  </g>
</svg>
