<?xml version="1.0" encoding="UTF-8" standalone="no"?>
<svg
   width="64"
   version="1.1"
   height="64"
   id="svg15"
   sodipodi:docname="folder-Pop_OS.svg"
   inkscape:version="1.3 (0e150ed6c4, 2023-07-21)"
   xmlns:inkscape="http://www.inkscape.org/namespaces/inkscape"
   xmlns:sodipodi="http://sodipodi.sourceforge.net/DTD/sodipodi-0.dtd"
   xmlns:xlink="http://www.w3.org/1999/xlink"
   xmlns="http://www.w3.org/2000/svg"
   xmlns:svg="http://www.w3.org/2000/svg"
   xmlns:rdf="http://www.w3.org/1999/02/22-rdf-syntax-ns#"
   xmlns:cc="http://creativecommons.org/ns#"
   xmlns:dc="http://purl.org/dc/elements/1.1/">
  <sodipodi:namedview
     pagecolor="#ffffff"
     bordercolor="#666666"
     borderopacity="1"
     objecttolerance="10"
     gridtolerance="10"
     guidetolerance="10"
     inkscape:pageopacity="0"
     inkscape:pageshadow="2"
     inkscape:window-width="1920"
     inkscape:window-height="994"
     id="namedview17"
     showgrid="true"
     inkscape:zoom="9.8125"
     inkscape:cx="19.363057"
     inkscape:cy="36.738854"
     inkscape:window-x="0"
     inkscape:window-y="0"
     inkscape:window-maximized="1"
     inkscape:current-layer="layer1"
     inkscape:document-rotation="0"
     inkscape:showpageshadow="2"
     inkscape:pagecheckerboard="0"
     inkscape:deskcolor="#d1d1d1">
    <inkscape:grid
       type="xygrid"
       id="grid919"
       originx="0"
       originy="0"
       spacingy="1"
       spacingx="1"
       units="px"
       visible="true" />
  </sodipodi:namedview>
  <defs
     id="defs5455">
    <linearGradient
       inkscape:collect="always"
       id="linearGradient1523">
      <stop
         style="stop-color:#00cccc;stop-opacity:1;"
         offset="0"
         id="stop1517" />
      <stop
         style="stop-color:#ffe680;stop-opacity:1"
         offset="0.5061571"
         id="stop1519" />
      <stop
         style="stop-color:#00bdff;stop-opacity:1;"
         offset="1"
         id="stop1521" />
    </linearGradient>
    <clipPath
       clipPathUnits="userSpaceOnUse"
       id="clipPath79425-9-5-3">
      <rect
         style="opacity:0.5;fill:#000000;fill-opacity:1;stroke:none;stroke-width:0.855869;stroke-dasharray:none;stroke-opacity:1;paint-order:stroke fill markers"
         id="rect79427-1-9-6"
         width="26.417742"
         height="29.037542"
         x="-16.227774"
         y="-6.4845476" />
    </clipPath>
    <clipPath
       clipPathUnits="userSpaceOnUse"
       id="clipPath79425-9-5-5">
      <rect
         style="opacity:0.5;fill:#000000;fill-opacity:1;stroke:none;stroke-width:0.855869;stroke-dasharray:none;stroke-opacity:1;paint-order:stroke fill markers"
         id="rect79427-1-9-62"
         width="26.417742"
         height="29.037542"
         x="-16.227774"
         y="-6.4845476" />
    </clipPath>
    <linearGradient
       inkscape:collect="always"
       xlink:href="#linearGradient1523"
       id="linearGradient4"
       gradientUnits="userSpaceOnUse"
       gradientTransform="translate(0.999952,4.023174)"
       x1="397.57144"
       y1="511.27505"
       x2="415.57144"
       y2="511.27505" />
    <linearGradient
       inkscape:collect="always"
       xlink:href="#linearGradient1523"
       id="linearGradient5"
       gradientUnits="userSpaceOnUse"
       gradientTransform="translate(-3.5e-5,-1.49e-4)"
       x1="387.57144"
       y1="537.79797"
       x2="445.57144"
       y2="492.798" />
    <linearGradient
       inkscape:collect="always"
       xlink:href="#linearGradient1523"
       id="linearGradient1"
       gradientUnits="userSpaceOnUse"
       gradientTransform="translate(5e-6,-1.6e-4)"
       x1="392.57144"
       y1="536.79797"
       x2="444.57144"
       y2="507.798" />
  </defs>
  <metadata
     id="metadata5458">
    <rdf:RDF>
      <cc:Work
         rdf:about="">
        <dc:format>image/svg+xml</dc:format>
        <dc:type
           rdf:resource="http://purl.org/dc/dcmitype/StillImage" />
      </cc:Work>
    </rdf:RDF>
  </metadata>
  <g
     inkscape:label="Capa 1"
     inkscape:groupmode="layer"
     id="layer1"
     transform="translate(-384.57143,-483.798)">
    <path
       inkscape:connector-curvature="0"
       id="fill-3"
       d="m 393.5714,509.19784 3e-5,26.355 c -0.0932,0.57145 -0.23037,0.90721 -0.644,1.24501 l 49.644,-1e-5 c 1.25773,0 2,-0.20551 2,-1.99362 v -25.50638 c 0,-0.66722 -0.33428,-1.5 -1.9,-1.5 h -47.10899 c -0.99101,0 -1.99101,0 -1.99104,1.4 z"
       style="color:#1e92ff;opacity:0.4;fill:url(#linearGradient1);fill-opacity:0.4;fill-rule:nonzero;stroke:none;stroke-width:8.11634"
       sodipodi:nodetypes="ccccccccc" />
    <rect
       x="398.57135"
       y="513.79773"
       width="18"
       height="3"
       ry="1.5"
       stroke-width="5.07132"
       style="opacity:0.8;fill:url(#linearGradient4);fill-opacity:1;paint-order:stroke markers fill"
       id="rect12-5-9-3-9-7-7-9"
       rx="1.5000117" />
    <path
       d="m 443.46966,505.807 -0.89826,-0.009 v -2.5759 c -0.002,-1.58874 -1,-3.4241 -3.371,-3.4241 h -21.84697 c -3.78203,0 -3.78203,-1 -5.08103,-2.46383 l -1.527,-2.91564 c -0.52262,-0.98802 -1.70328,-1.61594 -2.88972,-1.62053 h -18.28425 c -1.71233,0.002 -2.99826,1.41164 -3,3 l 10e-6,39.5 c 0,2.0466 1.46781,3.5 3.4,3.5 h 53.49825 c 1.71233,-0.002 3.1,-1.28887 3.10174,-2.87723 v -27.23662 c -0.002,-1.58827 -1.3895,-2.87535 -3.10174,-2.877 z m -54.89826,29.49085 v -38.5 c 7.7e-4,-0.82599 0,-2 2,-2 h 15.7 c 1,0 2.1,0 2.736,1.324 l 1.526,2.515 c 1.21959,2.31102 3.038,3.161 6.038,3.161 l 22.53,-2e-5 c 0.89087,4.4e-4 1.46876,0.69766 1.47001,1.52402 v 2.48513 l -46,-0.009 c -2,0 -3,1 -3,3 v 26.49987 c -0.0453,1.95192 -2.95472,1.95192 -3.00001,0 z m 56,-0.5 c 0,2 -1.10954,1.99931 -2,2 h -50 c 0,0 1,0.34375 1,-1.5 v -25.5 c 0,-1.38848 0,-2 2,-2 h 47 c 2,0 1.99923,1.17399 2,2 z"
       id="path6-5-2-5-1"
       style="opacity:0.7;fill:url(#linearGradient5)"
       sodipodi:nodetypes="cccccccccccccccccccccccccccccccccccccccc" />
    <path
       style="fill:#00cccc;stroke-width:0.0243466;fill-opacity:1"
       id="path2-3-6-4-3-6"
       d="m 438.94421,525.01271 c -0.0439,0.20293 -0.13847,0.38279 -0.29999,0.49577 -0.2538,0.17731 -0.56297,0.1259 -0.78213,-0.0899 -0.20541,-0.20039 -0.27461,-0.53945 -0.20999,-0.83233 0.0666,-0.30575 0.27917,-0.57544 0.55143,-0.66028 0.60686,-0.18748 0.85831,0.5472 0.74068,1.08677 z m -0.3715,-2.08606 c -0.37611,-0.16698 -0.24694,-2.36345 0.0973,-5.02997 0.0973,-0.74505 0.26302,-1.09711 0.44983,-1.27695 0.26769,-0.25424 0.75456,-0.26461 1.08444,-0.21067 0.3785,0.0607 0.74064,0.25701 1.01525,0.55239 0.24224,0.26212 0.27003,0.52921 0.18689,0.87607 -0.13617,0.55239 -0.36915,1.0816 -0.59303,1.59789 -0.0528,0.12586 -0.51681,1.10461 -0.57901,1.22534 -1.11915,2.19396 -1.34288,2.40728 -1.66135,2.2659 z" />
    <path
       style="fill:#00cccc;stroke-width:0.0243466;fill-opacity:1"
       id="path4-6-7-4-6-5"
       d="m 430.98168,521.93765 c 0.2215,1.05327 0.19844,2.2093 0.008,3.04162 -0.17763,0.78609 -0.65988,1.48996 -1.42591,1.72632 -0.67142,0.20811 -1.45361,0.0559 -1.93349,-0.45726 -0.78912,-0.84258 -1.25056,-2.82071 -1.04521,-4.25672 0.16606,-1.1535 0.72447,-2.63074 1.94965,-2.69499 0.0788,-0.004 0.15687,-0.002 0.23534,0.004 1.24826,0.12588 1.92893,1.29733 2.21039,2.63579 z m -2.25651,2.39676 c 0.0686,0.0135 0.1384,0.0135 0.20765,-0.008 0.23302,-0.0739 0.36685,-0.34434 0.42914,-0.60628 0.0946,-0.39823 0.0814,-0.82729 -0.0412,-1.2178 -0.0625,-0.19782 -0.15454,-0.3905 -0.29534,-0.53436 -0.49608,-0.50607 -0.99213,0.02 -1.07753,0.61914 -0.0666,0.46759 0.0305,1.00961 0.29308,1.38731 0.12224,0.17468 0.29765,0.32621 0.48451,0.36217 z" />
    <path
       style="fill:#00cccc;stroke-width:0.0243466;fill-opacity:1"
       id="path6-7-5-7-7-6"
       d="m 433.68356,524.1701 c -0.002,1.94463 0.17303,3.43217 -0.59535,3.60937 -0.62294,0.14134 -0.60212,-0.46753 -0.65064,-0.97875 -0.18452,-1.98068 -0.35293,-5.27156 -0.42452,-7.26249 0.0506,-0.85556 0.56533,-1.37967 1.10059,-1.50799 0.82601,-0.19783 1.70743,-0.14137 2.4388,0.36215 1.4467,0.99684 1.56205,2.82591 0.68527,4.31842 -0.47986,0.81447 -1.93118,1.40535 -2.55415,1.35393 z m 0.18457,-4.35956 c -0.0897,0.016 -0.23764,0.0607 -0.27916,0.15918 -0.0992,0.22863 -0.0927,1.68018 0.0814,2.28901 0.028,0.10102 0.0894,0.19521 0.17995,0.23119 0.32769,0.1336 0.62305,-0.31342 0.75686,-0.58318 0.18688,-0.37506 0.24684,-0.81685 0.12914,-1.22801 -0.11101,-0.38266 -0.4545,-0.93764 -0.86749,-0.86819 z" />
    <path
       style="fill:#00cccc;stroke-width:0.0243466;fill-opacity:1"
       id="path8-5-3-6-5-9"
       d="m 425.40951,520.7764 c -0.5422,1.27687 -1.44203,2.29163 -2.68797,2.79256 0.35765,1.04043 0.72221,2.06805 1.07749,3.10586 0.19851,0.55997 0.3876,1.17407 0.21464,1.72632 -0.18,0.56518 -0.88143,0.72186 -1.39137,0.12101 -0.98058,-1.16123 -4.29616,-8.51879 -4.54066,-9.07118 -0.20774,-0.47525 -0.51913,-0.98393 -0.51001,-1.53367 0.016,-0.82724 1.16527,-1.66474 1.7166,-2.09365 0.7707,-0.59867 1.66129,-1.00717 2.61416,-1.00965 0.74304,0 1.37752,0.22615 1.94051,0.62675 0.86291,0.6167 1.46287,1.60049 1.68438,2.71288 0.19373,0.97877 0.15223,1.98081 -0.11767,2.62304 m -2.52649,-1.39764 c -0.19379,-0.78342 -0.63223,-1.50529 -1.18366,-2.01141 -0.11999,-0.11016 -0.24924,-0.21333 -0.39913,-0.26973 -1.03367,-0.3777 -0.58604,1.54648 -0.41758,2.03204 0.233,0.68078 0.58605,1.54134 1.05901,2.05511 0.10351,0.11277 0.22611,0.21328 0.36684,0.24406 0.21458,0.0491 0.41297,-0.11842 0.52151,-0.31336 0.0893,-0.16188 0.12446,-0.35454 0.14535,-0.542 0.0387,-0.39819 0.004,-0.8042 -0.0927,-1.19471 z" />
    <path
       style="fill:#ffe680;stroke-width:0.0243466;fill-opacity:1"
       id="path10-5-3-3-3"
       d="m 437.77061,530.55578 c -0.004,1.12783 -0.62301,2.25569 -1.98659,2.25569 -1.36364,0 -1.99813,-1.10987 -1.99813,-2.24276 0,-1.41296 0.88371,-2.28646 2.02577,-2.28646 1.32442,0.0132 1.97049,1.10733 1.95895,2.27353 z m -1.95895,-1.56191 c -0.85601,0 -1.33594,0.66284 -1.34046,1.5671 0,0.78609 0.39451,1.52343 1.32431,1.52343 0.92986,0 1.28519,-0.79894 1.28519,-1.53115 0.0125,-0.76037 -0.35068,-1.54139 -1.26904,-1.55938 z m 2.53114,3.23947 c 0,0.16701 0.004,-0.79382 0,-0.94023 h 0.62762 l 0.044,0.58835 c 0.20542,0.13103 0.5238,0.22864 0.78451,0.22864 0.48456,0 0.98986,-0.13626 0.98986,-0.66283 -0.016,-0.47786 -0.57916,-0.57545 -1.03366,-0.62688 -0.77296,-0.088 -1.39595,-0.29793 -1.39595,-1.26387 0,-0.86067 0.87444,-1.28961 1.52511,-1.28961 0.52377,-0.0133 0.89524,0.0787 1.3682,0.50087 0,0.34688 -0.004,0.55238 -0.004,0.8992 h -0.60671 l -0.0387,-0.5703 c -0.24451,-0.13109 -0.4961,-0.16703 -0.68984,-0.16184 -0.4177,0.004 -0.8629,0.22344 -0.8629,0.61394 0,0.3828 0.28832,0.4881 0.80054,0.57037 0.83533,0.12344 1.64055,0.3339 1.64055,1.32557 -0.004,1.08414 -0.91831,1.36926 -1.70278,1.36926 -0.59761,0.002 -0.97139,-0.121 -1.4444,-0.58065 z"
       inkscape:connector-curvature="0" />
    <path
       style="fill:#ffe680;stroke-width:0.0243466;fill-opacity:1"
       id="path12-6-1-5-7"
       d="m 432.93905,532.44146 c 0,0.19784 -0.14302,0.35706 -0.32071,0.35706 h -3.7078 c -0.17761,0 -0.32067,-0.15922 -0.32067,-0.35706 v -0.0314 c 0,-0.19778 0.14306,-0.35711 0.32067,-0.35711 h 3.7078 c 0.17769,0 0.32071,0.15933 0.32071,0.35711 z"
       inkscape:connector-curvature="0" />
  </g>
</svg>
