<?xml version="1.0" encoding="UTF-8" standalone="no"?>
<svg
   width="64"
   version="1.1"
   height="64"
   id="svg17"
   sodipodi:docname="folder-inkscape.svg"
   inkscape:version="1.3 (0e150ed6c4, 2023-07-21)"
   xmlns:inkscape="http://www.inkscape.org/namespaces/inkscape"
   xmlns:sodipodi="http://sodipodi.sourceforge.net/DTD/sodipodi-0.dtd"
   xmlns:xlink="http://www.w3.org/1999/xlink"
   xmlns="http://www.w3.org/2000/svg"
   xmlns:svg="http://www.w3.org/2000/svg"
   xmlns:rdf="http://www.w3.org/1999/02/22-rdf-syntax-ns#"
   xmlns:cc="http://creativecommons.org/ns#"
   xmlns:dc="http://purl.org/dc/elements/1.1/">
  <sodipodi:namedview
     pagecolor="#ffffff"
     bordercolor="#666666"
     borderopacity="1"
     objecttolerance="10"
     gridtolerance="10"
     guidetolerance="10"
     inkscape:pageopacity="0"
     inkscape:pageshadow="2"
     inkscape:window-width="1920"
     inkscape:window-height="994"
     id="namedview19"
     showgrid="true"
     inkscape:zoom="5.6568545"
     inkscape:cx="5.2149122"
     inkscape:cy="33.145629"
     inkscape:window-x="0"
     inkscape:window-y="0"
     inkscape:window-maximized="1"
     inkscape:current-layer="layer1"
     inkscape:document-rotation="0"
     inkscape:showpageshadow="2"
     inkscape:pagecheckerboard="0"
     inkscape:deskcolor="#d1d1d1">
    <inkscape:grid
       type="xygrid"
       id="grid908"
       originx="0"
       originy="0"
       spacingy="1"
       spacingx="1"
       units="px"
       visible="true" />
  </sodipodi:namedview>
  <defs
     id="defs5455">
    <clipPath
       clipPathUnits="userSpaceOnUse"
       id="clipPath79425-9-5-3">
      <rect
         style="opacity:0.5;fill:#000000;fill-opacity:1;stroke:none;stroke-width:0.855869;stroke-dasharray:none;stroke-opacity:1;paint-order:stroke fill markers"
         id="rect79427-1-9-6"
         width="26.417742"
         height="29.037542"
         x="-16.227774"
         y="-6.4845476" />
    </clipPath>
    <clipPath
       clipPathUnits="userSpaceOnUse"
       id="clipPath79425-9-5-5">
      <rect
         style="opacity:0.5;fill:#000000;fill-opacity:1;stroke:none;stroke-width:0.855869;stroke-dasharray:none;stroke-opacity:1;paint-order:stroke fill markers"
         id="rect79427-1-9-62"
         width="26.417742"
         height="29.037542"
         x="-16.227774"
         y="-6.4845476" />
    </clipPath>
    <linearGradient
       inkscape:collect="always"
       xlink:href="#linearGradient24"
       id="linearGradient17"
       x1="392.57144"
       y1="536.79797"
       x2="444.57144"
       y2="507.798"
       gradientUnits="userSpaceOnUse"
       gradientTransform="translate(-5e-6,-1.6e-4)" />
    <linearGradient
       inkscape:collect="always"
       xlink:href="#linearGradient24"
       id="linearGradient4"
       gradientUnits="userSpaceOnUse"
       gradientTransform="translate(0.999942,4.023174)"
       x1="397.57144"
       y1="511.27505"
       x2="415.57144"
       y2="511.27505" />
    <linearGradient
       inkscape:collect="always"
       xlink:href="#linearGradient24"
       id="linearGradient5"
       gradientUnits="userSpaceOnUse"
       gradientTransform="translate(-4.5e-5,-1.49e-4)"
       x1="387.57144"
       y1="537.79797"
       x2="445.57144"
       y2="492.798" />
    <linearGradient
       id="linearGradient24"
       inkscape:collect="always">
      <stop
         style="stop-color:#0066ff;stop-opacity:1"
         offset="0"
         id="stop22" />
      <stop
         style="stop-color:#ffb7ff;stop-opacity:1;"
         offset="0.48888862"
         id="stop23" />
      <stop
         style="stop-color:#944cff;stop-opacity:1;"
         offset="1"
         id="stop24" />
    </linearGradient>
    <linearGradient
       inkscape:collect="always"
       xlink:href="#linearGradient24"
       id="linearGradient10"
       x1="421.61206"
       y1="523.77283"
       x2="439.59921"
       y2="523.77283"
       gradientUnits="userSpaceOnUse"
       gradientTransform="translate(0.95935478,0.0251666)" />
    <linearGradient
       inkscape:collect="always"
       xlink:href="#linearGradient24"
       id="linearGradient11"
       x1="423.56177"
       y1="525.005"
       x2="439.61209"
       y2="525.005"
       gradientUnits="userSpaceOnUse"
       gradientTransform="translate(0.95935478,0.0251666)" />
  </defs>
  <metadata
     id="metadata5458">
    <rdf:RDF>
      <cc:Work
         rdf:about="">
        <dc:format>image/svg+xml</dc:format>
        <dc:type
           rdf:resource="http://purl.org/dc/dcmitype/StillImage" />
      </cc:Work>
    </rdf:RDF>
  </metadata>
  <g
     inkscape:label="Capa 1"
     inkscape:groupmode="layer"
     id="layer1"
     transform="translate(-384.57143,-483.798)">
    <path
       inkscape:connector-curvature="0"
       id="fill-3"
       d="m 393.57139,509.19784 3e-5,26.355 c -0.0932,0.57145 -0.23037,0.90721 -0.644,1.24501 l 49.644,-1e-5 c 1.25773,0 2,-0.20551 2,-1.99362 v -25.50638 c 0,-0.66722 -0.33428,-1.5 -1.9,-1.5 h -47.10899 c -0.99101,0 -1.99101,0 -1.99104,1.4 z"
       style="color:#1e92ff;opacity:0.4;fill:url(#linearGradient17);fill-opacity:0.4;fill-rule:nonzero;stroke:none;stroke-width:8.11634"
       sodipodi:nodetypes="ccccccccc" />
    <rect
       x="398.57141"
       y="513.79822"
       width="18"
       height="3"
       ry="1.5"
       stroke-width="5.07132"
       style="opacity:0.8;fill:url(#linearGradient4);fill-opacity:1;paint-order:stroke markers fill"
       id="rect12-5-9-3-9-7-7-9"
       rx="1.5000117" />
    <path
       d="m 443.46965,505.807 -0.89826,-0.009 v -2.5759 c -0.002,-1.58874 -1,-3.4241 -3.371,-3.4241 h -21.84697 c -3.78203,0 -3.78203,-1 -5.08102,-2.46383 l -1.527,-2.91564 c -0.52263,-0.98802 -1.70328,-1.61594 -2.88973,-1.62053 h -18.28424 c -1.71234,0.002 -2.99827,1.41164 -3,3 v 39.5 c 0,2.0466 1.46781,3.5 3.4,3.5 h 53.49825 c 1.71233,-0.002 3.1,-1.28887 3.10174,-2.87723 v -27.23662 c -0.002,-1.58827 -1.3895,-2.87535 -3.10174,-2.877 z m -54.89826,29.49085 v -38.5 c 7.7e-4,-0.82599 0,-2 2,-2 h 15.7 c 1,0 2.1,0 2.736,1.324 l 1.526,2.515 c 1.21959,2.31102 3.038,3.161 6.038,3.161 l 22.53001,-2e-5 c 0.89087,4.4e-4 1.46875,0.69766 1.47,1.52402 v 2.48513 l -46,-0.009 c -2,0 -3,1 -3,3 v 26.49987 c -0.0453,1.95192 -2.95472,1.95192 -3.00001,0 z m 56,-0.5 c 0,2 -1.10954,1.99931 -2,2 h -50 c 0,0 1,0.34375 1,-1.5 v -25.5 c 0,-1.38848 0,-2 2,-2 h 47 c 2,0 1.99923,1.17399 2,2 z"
       id="path6-5-2-5-1"
       style="opacity:0.7;fill:url(#linearGradient5)"
       sodipodi:nodetypes="cccccccccccccccccccccccccccccccccccccccc" />
    <path
       d="m 431.45946,532.79797 c -0.25647,0 -0.49495,-0.0337 -0.70193,-0.10877 -0.42446,-0.1545 -0.69818,-0.4673 -0.77017,-0.88059 -0.0653,-0.37429 -0.18899,-0.43129 -0.73868,-0.53106 -0.35922,-0.0653 -0.80767,-0.14701 -1.13614,-0.49956 -0.63594,-0.66307 0.0315,-1.36814 0.28197,-1.63368 0.0457,-0.048 0.10799,-0.11326 0.15899,-0.17326 -0.31497,-0.17477 -1.05665,-0.41931 -1.52835,-0.57532 -1.11214,-0.36754 -1.81332,-0.61657 -2.15904,-0.9781 -0.18223,-0.18604 -0.26247,-0.42681 -0.22048,-0.67283 0.0863,-0.50931 0.63669,-0.78084 1.21863,-1.06737 0,0 7.5e-4,0 7.5e-4,0 -0.26772,-0.0908 -0.57144,-0.17328 -0.86841,-0.25503 -1.0559,-0.28803 -2.14704,-0.58657 -2.38326,-1.45891 -0.20623,-0.76734 0.39146,-1.48892 0.86016,-1.96522 l 6.19514,-6.45297 c 0.48295,-0.48755 1.13164,-0.75608 1.81482,-0.74708 0.004,0 0.008,0 0.0112,0 0.66894,0 1.31611,0.25803 1.81257,0.72833 l 6.44261,6.70424 c 0.65468,0.66608 0.91415,1.31715 0.77017,1.93372 -0.27447,1.18288 -1.88382,1.74469 -3.4384,2.28775 -0.46947,0.16427 -0.95016,0.33153 -1.32437,0.50031 0.0119,0.008 0.0232,0.0128 0.0346,0.0188 0.56994,0.32105 1.43009,0.80635 1.11213,1.61194 -0.35695,0.92485 -1.03265,1.10563 -1.62959,1.26614 -0.40645,0.10877 -0.82492,0.22053 -1.26963,0.57982 0.22124,0.1245 0.46796,0.31053 0.50997,0.64806 0.0225,0.18303 -0.0157,0.45681 -0.32322,0.72383 -0.65695,0.55282 -1.80734,0.99687 -2.73198,0.99687 z m -2.39751,-2.7168 c 0.10574,0.0383 0.24822,0.0638 0.38846,0.0892 0.5377,0.0975 1.43761,0.26177 1.64459,1.44316 0.18598,0.17177 1.21113,0.0383 1.98881,-0.40805 -0.18974,-0.12301 -0.37347,-0.29928 -0.42146,-0.57981 -0.0299,-0.17702 -0.0104,-0.4478 0.25721,-0.72683 0.76943,-0.7906 1.51786,-0.99086 2.06455,-1.13787 0.4882,-0.13052 0.67793,-0.19278 0.81591,-0.45906 -0.13348,-0.11026 -0.40195,-0.26253 -0.56019,-0.35104 -0.47769,-0.26928 -0.92765,-0.5228 -0.9539,-0.99986 -0.009,-0.14777 0.0247,-0.4298 0.33822,-0.65557 0.48595,-0.34729 1.26437,-0.61957 2.08629,-0.90686 1.02739,-0.35929 2.579,-0.90159 2.71398,-1.48066 0.0668,-0.28503 -0.27072,-0.68107 -0.47846,-0.89185 -0.003,-0.002 -0.004,-0.003 -0.006,-0.005 l -6.42568,-6.68773 c -0.26698,-0.25203 -0.63969,-0.4013 -1.03041,-0.4013 -0.009,0 -0.018,0 -0.0278,0 -0.37121,0 -0.72443,0.14777 -0.98165,0.4073 l -6.19433,6.45151 c -0.63669,0.64657 -0.58044,0.88585 -0.58044,0.88809 0.0675,0.24978 1.06039,0.52132 1.59359,0.66683 0.64943,0.17702 1.32212,0.36078 1.80507,0.67283 0.34497,0.22877 0.36371,0.5363 0.35621,0.65857 -0.0315,0.49505 -0.52269,0.73733 -1.09264,1.01786 -0.09,0.0442 -0.20548,0.10126 -0.31647,0.15977 0.37947,0.16576 0.94491,0.35329 1.33262,0.48155 1.08289,0.35779 1.76533,0.59933 2.10504,0.94511 0.64644,0.67432 -0.0195,1.37939 -0.27072,1.64417 -0.0427,0.0465 -0.10049,0.10802 -0.15073,0.16503 z m 6.80557,-1.71094 h 0.009 z m -0.01,-0.19727 c -7.5e-4,7.4e-4 -7.5e-4,0.002 -0.002,0.003 7.5e-4,-7.5e-4 7.5e-4,-0.002 0.002,-0.003 z m -10.18264,-1.53768 c 0,7.5e-4 7.5e-4,0.002 0.001,0.002 -7.5e-4,0 -0.001,-7.5e-4 -0.001,-0.002 z"
       id="path2-4"
       style="fill:url(#linearGradient10);stroke-width:0.75001" />
    <path
       d="m 430.96526,521.93826 c -0.0705,0 -0.14099,-0.0135 -0.20848,-0.0398 -0.16873,-0.0675 -0.29472,-0.21228 -0.33747,-0.38855 l -0.16873,-0.68857 -0.22198,0.48755 c -0.0915,0.20027 -0.29097,0.32929 -0.51145,0.32929 -7.5e-4,0 -0.001,0 -0.002,0 l -4.36154,-0.015 c -0.31046,-7.5e-4 -0.56093,-0.25353 -0.56018,-0.56407 7.5e-4,-0.31053 0.25272,-0.56106 0.56244,-0.56106 7.5e-4,0 0.001,0 0.002,0 l 3.99708,0.0143 0.74318,-1.63443 c 0.099,-0.21902 0.32396,-0.35329 0.56469,-0.32778 0.23847,0.0225 0.4372,0.19352 0.4942,0.42604 l 0.36746,1.50017 1.01765,-0.65407 c 0.17323,-0.11102 0.39221,-0.11777 0.57445,-0.0202 l 0.3307,0.18152 0.11925,-0.73134 c 0.0322,-0.19877 0.16948,-0.36529 0.35847,-0.43654 0.18597,-0.0705 0.4012,-0.0353 0.55644,0.0937 l 0.76567,0.63608 0.4837,-0.72233 c 0.17174,-0.25728 0.52044,-0.32779 0.77992,-0.15527 0.25798,0.17252 0.32772,0.52206 0.15449,0.78084 l -0.82942,1.24138 c -0.0877,0.13202 -0.22872,0.22128 -0.38697,0.24378 -0.15223,0.024 -0.31721,-0.0225 -0.4402,-0.12376 l -0.48895,-0.40655 -0.0892,0.54531 c -0.0293,0.18002 -0.14399,0.33454 -0.30821,0.4148 -0.165,0.0802 -0.35697,0.0758 -0.5167,-0.012 l -0.73497,-0.4028 -1.39936,0.89935 c -0.093,0.06 -0.19948,0.09 -0.30597,0.09 z m 6.39986,9.57407 c -0.37271,0 -0.72892,-0.15301 -0.95689,-0.4448 -0.30447,-0.39079 -0.35248,-1.02612 0.23021,-1.56543 0.132,-0.12226 0.31047,-0.17477 0.49121,-0.13951 0.83542,0.16502 1.23063,0.70132 1.31386,1.10937 0.0668,0.32554 -0.045,0.63158 -0.29021,0.79884 -0.003,0.003 -0.007,0.004 -0.01,0.007 -0.24223,0.15902 -0.51445,0.23552 -0.77842,0.23552 z m 0.47096,-0.70583 h 0.009 z m -12.05206,0.33978 c -0.31197,0 -0.60444,-0.10951 -0.84592,-0.32102 -0.52119,-0.44781 -0.4312,-0.93237 -0.36821,-1.12064 0.20623,-0.61356 0.96816,-0.9331 1.58909,-0.96986 0.0113,-7.4e-4 0.0225,-7.4e-4 0.0337,-7.4e-4 0.54595,-0.0241 1.00865,0.16201 1.27413,0.51755 0.11623,0.15602 0.14323,0.3608 0.0727,0.54231 -0.25272,0.64058 -0.82342,1.16788 -1.42186,1.3119 -0.11249,0.027 -0.22423,0.0405 -0.33371,0.0405 z m -0.0637,-1.13862 c 0.0285,0.0142 0.0697,0.0195 0.13423,0.005 0.087,-0.0209 0.18073,-0.0728 0.27073,-0.14402 -0.17024,0.0255 -0.31497,0.0848 -0.40496,0.1395 z m 13.29618,-1.02462 c -0.54444,0 -1.09563,-0.10125 -1.37461,-0.23701 -0.40346,-0.19653 -0.44696,-0.51156 -0.44696,-0.63834 0,-0.0473 0.007,-0.0938 0.0172,-0.13951 0.17697,-0.69233 0.82791,-1.18138 1.62808,-1.22788 0.0151,-0.002 0.0293,-0.003 0.0442,-0.004 0.86541,-0.0352 1.5291,0.4403 1.67084,1.18138 0.0601,0.29253 -0.0488,0.57906 -0.29248,0.76959 -0.27221,0.21374 -0.75666,0.2955 -1.24637,0.2955 z m 0.43721,-0.83858 c 0,0 0,7.4e-4 0,7.4e-4 z"
       id="path4-5"
       style="fill:url(#linearGradient11);stroke-width:0.75001" />
  </g>
</svg>
