<?xml version="1.0" encoding="UTF-8" standalone="no"?>
<svg
   width="64"
   version="1.1"
   height="64"
   id="svg15"
   sodipodi:docname="folder-download.svg"
   inkscape:version="1.3 (0e150ed6c4, 2023-07-21)"
   xmlns:inkscape="http://www.inkscape.org/namespaces/inkscape"
   xmlns:sodipodi="http://sodipodi.sourceforge.net/DTD/sodipodi-0.dtd"
   xmlns:xlink="http://www.w3.org/1999/xlink"
   xmlns="http://www.w3.org/2000/svg"
   xmlns:svg="http://www.w3.org/2000/svg"
   xmlns:rdf="http://www.w3.org/1999/02/22-rdf-syntax-ns#"
   xmlns:cc="http://creativecommons.org/ns#"
   xmlns:dc="http://purl.org/dc/elements/1.1/">
  <sodipodi:namedview
     pagecolor="#ffffff"
     bordercolor="#666666"
     borderopacity="1"
     objecttolerance="10"
     gridtolerance="10"
     guidetolerance="10"
     inkscape:pageopacity="0"
     inkscape:pageshadow="2"
     inkscape:window-width="1920"
     inkscape:window-height="994"
     id="namedview17"
     showgrid="true"
     inkscape:zoom="3.4692426"
     inkscape:cx="14.556491"
     inkscape:cy="37.61628"
     inkscape:window-x="0"
     inkscape:window-y="0"
     inkscape:window-maximized="1"
     inkscape:current-layer="layer1"
     inkscape:document-rotation="0"
     showguides="true"
     inkscape:showpageshadow="2"
     inkscape:pagecheckerboard="0"
     inkscape:deskcolor="#d1d1d1">
    <inkscape:grid
       type="xygrid"
       id="grid919"
       originx="0"
       originy="0"
       spacingy="1"
       spacingx="1"
       units="px"
       visible="true" />
  </sodipodi:namedview>
  <defs
     id="defs5455">
    <linearGradient
       inkscape:collect="always"
       id="linearGradient3">
      <stop
         style="stop-color:#a78bda;stop-opacity:1;"
         offset="0"
         id="stop2" />
      <stop
         style="stop-color:#de87cd;stop-opacity:1"
         offset="0.49999994"
         id="stop4" />
      <stop
         style="stop-color:#00b0ee;stop-opacity:1;"
         offset="1"
         id="stop3" />
    </linearGradient>
    <clipPath
       clipPathUnits="userSpaceOnUse"
       id="clipPath79425-9-5-3">
      <rect
         style="opacity:0.5;fill:#000000;fill-opacity:1;stroke:none;stroke-width:0.855869;stroke-dasharray:none;stroke-opacity:1;paint-order:stroke fill markers"
         id="rect79427-1-9-6"
         width="26.417742"
         height="29.037542"
         x="-16.227774"
         y="-6.4845476" />
    </clipPath>
    <clipPath
       clipPathUnits="userSpaceOnUse"
       id="clipPath79425-9-5-5">
      <rect
         style="opacity:0.5;fill:#000000;fill-opacity:1;stroke:none;stroke-width:0.855869;stroke-dasharray:none;stroke-opacity:1;paint-order:stroke fill markers"
         id="rect79427-1-9-62"
         width="26.417742"
         height="29.037542"
         x="-16.227774"
         y="-6.4845476" />
    </clipPath>
    <linearGradient
       inkscape:collect="always"
       id="linearGradient2303">
      <stop
         style="stop-color:#a78bda;stop-opacity:1;"
         offset="0"
         id="stop2299" />
      <stop
         style="stop-color:#00bdff;stop-opacity:1;"
         offset="1"
         id="stop2301" />
    </linearGradient>
    <linearGradient
       inkscape:collect="always"
       xlink:href="#linearGradient2303"
       id="linearGradient17"
       x1="392.57144"
       y1="536.79797"
       x2="444.57144"
       y2="507.798"
       gradientUnits="userSpaceOnUse"
       gradientTransform="translate(3.9496094e-6,-1.567e-4)" />
    <linearGradient
       inkscape:collect="always"
       xlink:href="#linearGradient2303"
       id="linearGradient4"
       gradientUnits="userSpaceOnUse"
       gradientTransform="translate(0.99995095,4.0231773)"
       x1="397.57144"
       y1="511.27505"
       x2="415.57144"
       y2="511.27505" />
    <linearGradient
       inkscape:collect="always"
       xlink:href="#linearGradient3"
       id="linearGradient5"
       gradientUnits="userSpaceOnUse"
       gradientTransform="translate(-3.6050391e-5,-1.457e-4)"
       x1="404.57147"
       y1="527.79816"
       x2="434.57147"
       y2="502.79816" />
    <linearGradient
       inkscape:collect="always"
       xlink:href="#linearGradient2303"
       id="linearGradient2"
       x1="422.57144"
       y1="524.79797"
       x2="440.57111"
       y2="524.79797"
       gradientUnits="userSpaceOnUse"
       gradientTransform="translate(0,-1)" />
  </defs>
  <metadata
     id="metadata5458">
    <rdf:RDF>
      <cc:Work
         rdf:about="">
        <dc:format>image/svg+xml</dc:format>
        <dc:type
           rdf:resource="http://purl.org/dc/dcmitype/StillImage" />
      </cc:Work>
    </rdf:RDF>
  </metadata>
  <g
     inkscape:label="Capa 1"
     inkscape:groupmode="layer"
     id="layer1"
     transform="translate(-384.57143,-483.798)">
    <g
       transform="matrix(0.30872123,0,0,0.34545448,401.36492,176.76352)"
       id="g4" />
    <path
       inkscape:connector-curvature="0"
       id="fill-3"
       d="m 393.5714,509.19784 3e-5,26.355 c -0.0932,0.57145 -0.23037,0.90721 -0.644,1.24501 l 49.644,-1e-5 c 1.25773,0 2,-0.20551 2,-1.99362 v -25.50638 c 0,-0.66722 -0.33428,-1.5 -1.9,-1.5 h -47.10899 c -0.99101,0 -1.99101,0 -1.99104,1.4 z"
       style="color:#1e92ff;opacity:0.4;fill:url(#linearGradient17);fill-opacity:0.4;fill-rule:nonzero;stroke:none;stroke-width:8.11634"
       sodipodi:nodetypes="ccccccccc" />
    <rect
       x="398.57144"
       y="513.79822"
       width="18"
       height="3"
       ry="1.5"
       stroke-width="5.07132"
       style="opacity:0.8;fill:url(#linearGradient4);fill-opacity:1;paint-order:stroke markers fill"
       id="rect12-5-9-3-9-7-7-9"
       rx="1.5000117" />
    <path
       d="m 443.46966,505.807 -0.89826,-0.009 v -2.5759 c -0.002,-1.58874 -1,-3.4241 -3.371,-3.4241 h -21.84697 c -3.78203,0 -3.78203,-1 -5.08102,-2.46383 l -1.527,-2.91564 c -0.52263,-0.98802 -1.70328,-1.61594 -2.88973,-1.62053 h -18.28424 c -1.71234,0.002 -2.99827,1.41164 -3,3 v 39.5 c 0,2.0466 1.46781,3.5 3.4,3.5 h 53.49825 c 1.71233,-0.002 3.1,-1.28887 3.10174,-2.87723 v -27.23662 c -0.002,-1.58827 -1.3895,-2.87535 -3.10174,-2.877 z m -54.89826,29.49085 v -38.5 c 7.7e-4,-0.82599 0,-2 2,-2 h 15.7 c 1,0 2.1,0 2.736,1.324 l 1.526,2.515 c 1.21959,2.31102 3.038,3.161 6.038,3.161 l 22.53001,-2e-5 c 0.89087,4.4e-4 1.46875,0.69766 1.47,1.52402 v 2.48513 l -46,-0.009 c -2,0 -3,1 -3,3 v 26.49987 c -0.0453,1.95192 -2.95472,1.95192 -3.00001,0 z m 56,-0.5 c 0,2 -1.10954,1.99931 -2,2 h -50 c 0,0 1,0.34375 1,-1.5 v -25.5 c 0,-1.38848 0,-2 2,-2 h 47 c 2,0 1.99923,1.17399 2,2 z"
       id="path6-5-2-5-1"
       style="opacity:0.7;fill:url(#linearGradient5)"
       sodipodi:nodetypes="cccccccccccccccccccccccccccccccccccccccc" />
    <path
       fill-rule="evenodd"
       clip-rule="evenodd"
       d="m 434.94648,519.86051 c 0,-0.31064 0.25183,-0.56251 0.56235,-0.56251 0.31057,0 0.56233,0.25189 0.56233,0.56251 0,0.31062 -0.2518,0.5625 -0.56233,0.5625 -0.31053,0 -0.56235,-0.2519 -0.56235,-0.5625 z m 4.97628,5.5286 -6.75984,6.76153 c -0.43919,0.43946 -1.01484,0.64736 -1.59051,0.64736 -0.57568,0 -1.15135,-0.20776 -1.59054,-0.64736 l -6.76,-6.76153 c -0.47033,-0.47077 -0.68041,-1.09726 -0.64701,-1.71333 v 0.1222 c 0,-1.24257 1.00702,-2.25 2.24937,-2.25 h 1.1247 c 0.62114,0 1.12471,-0.50373 1.12471,-1.125 v -3.37497 c 0,-1.24257 1.00705,-2.25001 2.2494,-2.25001 h 4.49881 c 1.24221,0 2.24939,1.00744 2.24939,2.25001 v 0.56249 c 0,0.31063 -0.25179,0.56251 -0.56233,0.56251 -0.31053,0 -0.56236,-0.25189 -0.56236,-0.56251 v -0.56249 c 0,-0.62129 -0.50356,-1.125 -1.12467,-1.125 h -4.49887 c -0.62111,0 -1.1247,0.50371 -1.1247,1.125 v 3.37499 c 0,1.24257 -1.00703,2.25001 -2.24941,2.25001 h -1.12467 c -0.6211,0 -1.12466,0.50371 -1.12466,1.125 0,0 -0.004,0.002 -0.0113,0.004 7.5e-4,0.28647 0.1104,0.57267 0.32894,0.79102 l 6.75983,6.76184 c 0.43933,0.43947 1.15132,0.43947 1.59068,0 l 6.75966,-6.76162 c 0.21876,-0.21867 0.32822,-0.50481 0.32905,-0.79158 -0.009,-0.002 -0.0147,-0.003 -0.0147,-0.003 0,-0.62128 -0.50357,-1.125 -1.12468,-1.125 h -0.56155 c -0.31034,0 -0.56235,-0.25189 -0.56235,-0.5625 0,-0.31064 0.25179,-0.5625 0.56235,-0.5625 h 0.56253 c 1.2422,0 2.24939,1.00744 2.24939,2.25001 v -0.12224 c 0.0348,0.61607 -0.17685,1.24257 -0.64725,1.71334 z"
       id="path2-7-8"
       style="fill:url(#linearGradient2);fill-opacity:1;fill-rule:nonzero;stroke-width:0.0351562" />
  </g>
</svg>
