<?xml version="1.0" encoding="UTF-8" standalone="no"?>
<svg
   width="64"
   version="1.1"
   height="64"
   id="svg15"
   sodipodi:docname="folder-database.svg"
   inkscape:version="1.3 (0e150ed6c4, 2023-07-21)"
   xmlns:inkscape="http://www.inkscape.org/namespaces/inkscape"
   xmlns:sodipodi="http://sodipodi.sourceforge.net/DTD/sodipodi-0.dtd"
   xmlns:xlink="http://www.w3.org/1999/xlink"
   xmlns="http://www.w3.org/2000/svg"
   xmlns:svg="http://www.w3.org/2000/svg"
   xmlns:rdf="http://www.w3.org/1999/02/22-rdf-syntax-ns#"
   xmlns:cc="http://creativecommons.org/ns#"
   xmlns:dc="http://purl.org/dc/elements/1.1/">
  <sodipodi:namedview
     pagecolor="#ffffff"
     bordercolor="#666666"
     borderopacity="1"
     objecttolerance="10"
     gridtolerance="10"
     guidetolerance="10"
     inkscape:pageopacity="0"
     inkscape:pageshadow="2"
     inkscape:window-width="1920"
     inkscape:window-height="994"
     id="namedview17"
     showgrid="true"
     inkscape:zoom="9.8125"
     inkscape:cx="28.33121"
     inkscape:cy="54.573248"
     inkscape:window-x="0"
     inkscape:window-y="0"
     inkscape:window-maximized="1"
     inkscape:current-layer="layer1"
     inkscape:document-rotation="0"
     showguides="false"
     inkscape:showpageshadow="2"
     inkscape:pagecheckerboard="0"
     inkscape:deskcolor="#d1d1d1">
    <inkscape:grid
       type="xygrid"
       id="grid919"
       originx="0"
       originy="0"
       spacingy="1"
       spacingx="1"
       units="px"
       visible="true" />
  </sodipodi:namedview>
  <defs
     id="defs5455">
    <clipPath
       clipPathUnits="userSpaceOnUse"
       id="clipPath79425-9-5-3">
      <rect
         style="opacity:0.5;fill:#000000;fill-opacity:1;stroke:none;stroke-width:0.855869;stroke-dasharray:none;stroke-opacity:1;paint-order:stroke fill markers"
         id="rect79427-1-9-6"
         width="26.417742"
         height="29.037542"
         x="-16.227774"
         y="-6.4845476" />
    </clipPath>
    <clipPath
       clipPathUnits="userSpaceOnUse"
       id="clipPath79425-9-5-5">
      <rect
         style="opacity:0.5;fill:#000000;fill-opacity:1;stroke:none;stroke-width:0.855869;stroke-dasharray:none;stroke-opacity:1;paint-order:stroke fill markers"
         id="rect79427-1-9-62"
         width="26.417742"
         height="29.037542"
         x="-16.227774"
         y="-6.4845476" />
    </clipPath>
    <linearGradient
       inkscape:collect="always"
       xlink:href="#linearGradient9"
       id="linearGradient17"
       x1="392.57144"
       y1="536.79797"
       x2="444.57144"
       y2="507.798"
       gradientUnits="userSpaceOnUse"
       gradientTransform="translate(0,-1.6e-4)" />
    <linearGradient
       id="linearGradient9"
       inkscape:collect="always">
      <stop
         style="stop-color:#3385ff;stop-opacity:1"
         offset="0"
         id="stop7" />
      <stop
         style="stop-color:#3aacbe;stop-opacity:1;"
         offset="0.48888862"
         id="stop8" />
      <stop
         style="stop-color:#b07bff;stop-opacity:1;"
         offset="1"
         id="stop9" />
    </linearGradient>
    <linearGradient
       inkscape:collect="always"
       xlink:href="#linearGradient24"
       id="linearGradient4"
       gradientUnits="userSpaceOnUse"
       gradientTransform="translate(0.9999473,4.023174)"
       x1="397.57144"
       y1="511.27505"
       x2="415.57144"
       y2="511.27505" />
    <linearGradient
       id="linearGradient24"
       inkscape:collect="always">
      <stop
         style="stop-color:#5398ff;stop-opacity:1;"
         offset="0"
         id="stop22" />
      <stop
         style="stop-color:#61c0cf;stop-opacity:1"
         offset="0.48888862"
         id="stop23" />
      <stop
         style="stop-color:#b07bff;stop-opacity:1;"
         offset="1"
         id="stop24" />
    </linearGradient>
    <linearGradient
       inkscape:collect="always"
       xlink:href="#linearGradient12"
       id="linearGradient5"
       gradientUnits="userSpaceOnUse"
       gradientTransform="translate(-3.97e-5,-1.49e-4)"
       x1="386.38025"
       y1="541.81329"
       x2="439.20044"
       y2="499.79816" />
    <linearGradient
       id="linearGradient12"
       inkscape:collect="always">
      <stop
         style="stop-color:#5398ff;stop-opacity:1;"
         offset="0"
         id="stop10" />
      <stop
         style="stop-color:#47b7c7;stop-opacity:1;"
         offset="0.48888862"
         id="stop11" />
      <stop
         style="stop-color:#b07bff;stop-opacity:1;"
         offset="1"
         id="stop12" />
    </linearGradient>
    <linearGradient
       inkscape:collect="always"
       xlink:href="#linearGradient9"
       id="linearGradient2"
       x1="407.57144"
       y1="522.79797"
       x2="425.57339"
       y2="522.79797"
       gradientUnits="userSpaceOnUse"
       gradientTransform="translate(14.999,1)" />
  </defs>
  <metadata
     id="metadata5458">
    <rdf:RDF>
      <cc:Work
         rdf:about="">
        <dc:format>image/svg+xml</dc:format>
        <dc:type
           rdf:resource="http://purl.org/dc/dcmitype/StillImage" />
      </cc:Work>
    </rdf:RDF>
  </metadata>
  <g
     inkscape:label="Capa 1"
     inkscape:groupmode="layer"
     id="layer1"
     transform="translate(-384.57143,-483.798)">
    <g
       transform="matrix(0.30872123,0,0,0.34545448,401.36492,176.76352)"
       id="g4" />
    <path
       inkscape:connector-curvature="0"
       id="fill-3"
       d="m 393.5714,509.19784 3e-5,26.355 c -0.0932,0.57145 -0.23037,0.90721 -0.644,1.24501 l 49.644,-1e-5 c 1.25773,0 2,-0.20551 2,-1.99362 v -25.50638 c 0,-0.66722 -0.33428,-1.5 -1.9,-1.5 h -47.10899 c -0.99101,0 -1.99101,0 -1.99104,1.4 z"
       style="color:#1e92ff;opacity:0.4;fill:url(#linearGradient17);fill-opacity:0.4;fill-rule:nonzero;stroke:none;stroke-width:8.11634"
       sodipodi:nodetypes="ccccccccc" />
    <rect
       x="398.57147"
       y="513.79797"
       width="18"
       height="3"
       ry="1.5"
       stroke-width="5.07132"
       style="opacity:0.8;fill:url(#linearGradient4);fill-opacity:1;paint-order:stroke markers fill"
       id="rect12-5-9-3-9-7-7-9"
       rx="1.5000117" />
    <path
       d="m 443.46966,505.807 -0.89826,-0.009 v -2.5759 c -0.002,-1.58874 -1,-3.4241 -3.371,-3.4241 h -21.84697 c -3.78203,0 -3.78203,-1 -5.08103,-2.46383 l -1.527,-2.91564 c -0.52262,-0.98802 -1.70328,-1.61594 -2.88973,-1.62053 h -18.28424 c -1.71234,0.002 -2.99827,1.41164 -3,3 l 10e-6,39.5 c 0,2.0466 1.46781,3.5 3.4,3.5 h 53.49825 c 1.71233,-0.002 3.1,-1.28887 3.10174,-2.87723 v -27.23662 c -0.002,-1.58827 -1.3895,-2.87535 -3.10174,-2.877 z m -54.89826,29.49085 v -38.5 c 7.7e-4,-0.82599 0,-2 2,-2 h 15.7 c 1,0 2.1,0 2.736,1.324 l 1.526,2.515 c 1.21959,2.31102 3.038,3.161 6.038,3.161 l 22.53,-2e-5 c 0.89087,4.4e-4 1.46876,0.69766 1.47,1.52402 v 2.48513 l -46,-0.009 c -2,0 -3,1 -3,3 v 26.49987 c -0.0453,1.95192 -2.95472,1.95192 -3,0 z m 56,-0.5 c 0,2 -1.10954,1.99931 -2,2 h -50 c 0,0 1,0.34375 1,-1.5 v -25.5 c 0,-1.38848 0,-2 2,-2 h 47 c 2,0 1.99923,1.17399 2,2 z"
       id="path6-5-2-5-1"
       style="fill:url(#linearGradient5)"
       sodipodi:nodetypes="cccccccccccccccccccccccccccccccccccccccc" />
    <path
       fill-rule="evenodd"
       clip-rule="evenodd"
       d="m 440.00793,529.42326 c -0.31036,0 -0.56279,-0.25212 -0.56279,-0.56254 0,-0.31085 0.25243,-0.56303 0.56279,-0.56303 0.31064,0 0.5625,0.25217 0.5625,0.56303 0,0.31042 -0.25186,0.56254 -0.5625,0.56254 z m 0.54165,-4.20668 c -0.008,0.0608 -0.0175,0.12032 -0.0296,0.17899 -0.006,0.0283 -0.0141,0.0555 -0.0215,0.0832 -0.0125,0.0489 -0.0259,0.0982 -0.0415,0.14612 -0.007,0.0208 -0.0151,0.0421 -0.023,0.0627 -0.0203,0.0549 -0.0412,0.10933 -0.0646,0.16154 -0.007,0.0142 -0.0137,0.0285 -0.0203,0.0426 -0.0266,0.0544 -0.0544,0.1077 -0.0838,0.1593 -0.01,0.0165 -0.0192,0.0328 -0.0291,0.0488 -0.0332,0.0533 -0.0678,0.10606 -0.10489,0.15599 -0.006,0.008 -0.011,0.0154 -0.0173,0.0224 -0.0431,0.0571 -0.089,0.11206 -0.13795,0.16531 -0.002,0.002 -0.004,0.003 -0.005,0.006 -0.0522,0.056 -0.10662,0.11046 -0.16465,0.16096 -0.39607,0.34884 -0.91509,0.56249 -1.48507,0.56249 v 0.0283 c -0.0912,-0.0181 -0.18449,-0.0283 -0.2813,-0.0283 h -12.93711 c -0.77683,0 -1.4069,0.62948 -1.4069,1.40627 v 1.68694 c 0,0.77676 0.63007,1.40623 1.4069,1.40623 h 12.93721 c 0.66337,0 1.22993,-0.52784 1.54636,-0.93102 l 0.002,5.3e-4 c 0.1033,-0.11814 0.25213,-0.19394 0.42131,-0.19394 0.31075,0 0.5626,0.25157 0.5626,0.5625 0,0.58335 -1.00723,1.6875 -2.25,1.6875 h -13.50121 c -1.24262,0 -2.24977,-1.00741 -2.24977,-2.25 v -2.25063 c 0,-1.24249 1.00716,-2.24944 2.24977,-2.24944 h 0.84371 12.37526 c 0.77686,0 1.40599,-0.62949 1.40599,-1.40628 v -1.68761 c 0,-0.77677 -0.62913,-1.40625 -1.40599,-1.40625 h -12.37526 -0.84371 c -1.24262,0 -2.24977,-1.00771 -2.24977,-2.24974 v -2.25029 c 0,-1.24281 1.00716,-2.24975 2.24977,-2.24975 h 13.50023 c 1.24296,0 2.25,1.00694 2.25,2.24975 v 1.68776 c 0,0.31008 -0.25186,0.56253 -0.56239,0.56253 -0.31047,0 -0.56288,-0.25245 -0.56288,-0.56253 v -1.40614 c 0,-0.77679 -0.62913,-1.40683 -1.40599,-1.40683 h -12.93727 c -0.77685,0 -1.4069,0.63004 -1.4069,1.40683 v 1.68719 c 0,0.77679 0.63004,1.40598 1.4069,1.40598 h 12.93708 c 0.0965,0 0.19006,-0.01 0.28121,-0.0283 v 0.0283 c 0.57,0 1.08903,0.21375 1.48506,0.56282 0.058,0.0504 0.11243,0.10486 0.16463,0.16093 0.002,0.002 0.004,0.004 0.005,0.006 0.0486,0.053 0.0948,0.10793 0.13791,0.16532 0.006,0.007 0.0109,0.0154 0.0173,0.0229 0.0371,0.0502 0.0717,0.10275 0.10495,0.1557 0.01,0.0162 0.0197,0.0326 0.0291,0.0486 0.0294,0.0519 0.0579,0.10497 0.0838,0.15941 0.007,0.0136 0.0137,0.0277 0.0203,0.0426 0.0239,0.0524 0.0446,0.10689 0.0645,0.16181 0.008,0.0208 0.0162,0.0421 0.0228,0.0626 0.0157,0.0475 0.0283,0.0972 0.0415,0.14615 0.007,0.028 0.0157,0.0549 0.0215,0.0832 0.0121,0.0585 0.0226,0.11901 0.0296,0.17907 0.002,0.0168 0.005,0.032 0.007,0.0492 0.009,0.0801 0.0134,0.16178 0.0134,0.24415 v 2.24987 c 0,0.0818 -0.005,0.16369 -0.0134,0.24402 -8.3e-4,0.017 -0.005,0.0327 -0.007,0.0491 z m -17.41654,-2.54321 c 0.31025,0 0.56195,0.25161 0.56195,0.56248 v 1.12425 c 0,0.31101 -0.2517,0.56313 -0.56195,0.56313 -0.31089,0 -0.56261,-0.25212 -0.56261,-0.56313 v -1.12425 c 0,-0.31087 0.25172,-0.56248 0.56261,-0.56248 z"
       id="path2-5-6-3"
       style="fill:url(#linearGradient2);stroke-width:0.0351562" />
  </g>
</svg>
