<?xml version="1.0" encoding="UTF-8" standalone="no"?>
<svg
   width="64"
   version="1.1"
   height="64"
   id="svg15"
   sodipodi:docname="folder-rpm.svg"
   inkscape:version="1.3 (0e150ed6c4, 2023-07-21)"
   xmlns:inkscape="http://www.inkscape.org/namespaces/inkscape"
   xmlns:sodipodi="http://sodipodi.sourceforge.net/DTD/sodipodi-0.dtd"
   xmlns:xlink="http://www.w3.org/1999/xlink"
   xmlns="http://www.w3.org/2000/svg"
   xmlns:svg="http://www.w3.org/2000/svg"
   xmlns:rdf="http://www.w3.org/1999/02/22-rdf-syntax-ns#"
   xmlns:cc="http://creativecommons.org/ns#"
   xmlns:dc="http://purl.org/dc/elements/1.1/">
  <sodipodi:namedview
     pagecolor="#ffffff"
     bordercolor="#666666"
     borderopacity="1"
     objecttolerance="10"
     gridtolerance="10"
     guidetolerance="10"
     inkscape:pageopacity="0"
     inkscape:pageshadow="2"
     inkscape:window-width="1920"
     inkscape:window-height="994"
     id="namedview17"
     showgrid="true"
     inkscape:zoom="4.90625"
     inkscape:cx="12.229299"
     inkscape:cy="32.509554"
     inkscape:window-x="0"
     inkscape:window-y="0"
     inkscape:window-maximized="1"
     inkscape:current-layer="layer1"
     inkscape:document-rotation="0"
     inkscape:showpageshadow="2"
     inkscape:pagecheckerboard="0"
     inkscape:deskcolor="#d1d1d1">
    <inkscape:grid
       type="xygrid"
       id="grid547"
       originx="0"
       originy="0"
       spacingy="1"
       spacingx="1"
       units="px"
       visible="true" />
  </sodipodi:namedview>
  <defs
     id="defs5455">
    <clipPath
       clipPathUnits="userSpaceOnUse"
       id="clipPath79425-9-5-3">
      <rect
         style="opacity:0.5;fill:#000000;fill-opacity:1;stroke:none;stroke-width:0.855869;stroke-dasharray:none;stroke-opacity:1;paint-order:stroke fill markers"
         id="rect79427-1-9-6"
         width="26.417742"
         height="29.037542"
         x="-16.227774"
         y="-6.4845476" />
    </clipPath>
    <clipPath
       clipPathUnits="userSpaceOnUse"
       id="clipPath79425-9-5-5">
      <rect
         style="opacity:0.5;fill:#000000;fill-opacity:1;stroke:none;stroke-width:0.855869;stroke-dasharray:none;stroke-opacity:1;paint-order:stroke fill markers"
         id="rect79427-1-9-62"
         width="26.417742"
         height="29.037542"
         x="-16.227774"
         y="-6.4845476" />
    </clipPath>
    <linearGradient
       inkscape:collect="always"
       xlink:href="#linearGradient12"
       id="linearGradient17"
       x1="392.57144"
       y1="536.79797"
       x2="444.57144"
       y2="507.798"
       gradientUnits="userSpaceOnUse"
       gradientTransform="translate(7.3496094e-6,-1.618e-4)" />
    <linearGradient
       inkscape:collect="always"
       xlink:href="#linearGradient12"
       id="linearGradient4"
       gradientUnits="userSpaceOnUse"
       gradientTransform="translate(0.99995435,4.0231722)"
       x1="397.57144"
       y1="511.27505"
       x2="415.57144"
       y2="511.27505" />
    <linearGradient
       inkscape:collect="always"
       xlink:href="#linearGradient12"
       id="linearGradient5"
       gradientUnits="userSpaceOnUse"
       gradientTransform="translate(-3.2650391e-5,-1.508e-4)"
       x1="386.38025"
       y1="541.81329"
       x2="439.20044"
       y2="499.79816" />
    <linearGradient
       id="linearGradient12"
       inkscape:collect="always">
      <stop
         style="stop-color:#ff5599;stop-opacity:1"
         offset="0"
         id="stop10" />
      <stop
         style="stop-color:#d35f8d;stop-opacity:1"
         offset="0.53372043"
         id="stop11" />
      <stop
         style="stop-color:#a02c5a;stop-opacity:1"
         offset="1"
         id="stop12" />
    </linearGradient>
    <linearGradient
       inkscape:collect="always"
       xlink:href="#linearGradient12"
       id="linearGradient2"
       x1="422.57144"
       y1="523.79797"
       x2="440.57144"
       y2="523.79797"
       gradientUnits="userSpaceOnUse" />
  </defs>
  <metadata
     id="metadata5458">
    <rdf:RDF>
      <cc:Work
         rdf:about="">
        <dc:format>image/svg+xml</dc:format>
        <dc:type
           rdf:resource="http://purl.org/dc/dcmitype/StillImage" />
      </cc:Work>
    </rdf:RDF>
  </metadata>
  <g
     inkscape:label="Capa 1"
     inkscape:groupmode="layer"
     id="layer1"
     transform="translate(-384.57143,-483.798)">
    <path
       inkscape:connector-curvature="0"
       id="fill-3"
       d="m 393.57141,509.19784 3e-5,26.355 c -0.0932,0.57145 -0.23037,0.90721 -0.644,1.24501 l 49.644,-1e-5 c 1.25773,0 2,-0.20551 2,-1.99362 v -25.50638 c 0,-0.66722 -0.33428,-1.5 -1.9,-1.5 h -47.10899 c -0.99101,0 -1.99101,0 -1.99104,1.4 z"
       style="color:#1e92ff;opacity:0.4;fill:url(#linearGradient17);fill-opacity:0.4;fill-rule:nonzero;stroke:none;stroke-width:8.11634"
       sodipodi:nodetypes="ccccccccc" />
    <rect
       x="398.57144"
       y="513.79761"
       width="18"
       height="3"
       ry="1.5"
       stroke-width="5.07132"
       style="opacity:0.8;fill:url(#linearGradient4);fill-opacity:1;paint-order:stroke markers fill"
       id="rect12-5-9-3-9-7-7-9"
       rx="1.5000117" />
    <path
       d="m 443.46967,505.807 -0.89826,-0.009 v -2.5759 c -0.002,-1.58874 -1,-3.4241 -3.371,-3.4241 h -21.84697 c -3.78203,0 -3.78203,-1 -5.08103,-2.46383 l -1.527,-2.91564 c -0.52262,-0.98802 -1.70328,-1.61594 -2.88973,-1.62053 h -18.28424 c -1.71234,0.002 -2.99827,1.41164 -3,3 l 1e-5,39.5 c 0,2.0466 1.46781,3.5 3.4,3.5 h 53.49825 c 1.71233,-0.002 3.1,-1.28887 3.10174,-2.87723 v -27.23662 c -0.002,-1.58827 -1.3895,-2.87535 -3.10174,-2.877 z m -54.89826,29.49085 v -38.5 c 7.7e-4,-0.82599 0,-2 2,-2 h 15.7 c 1,0 2.1,0 2.736,1.324 l 1.526,2.515 c 1.21959,2.31102 3.038,3.161 6.038,3.161 l 22.53,-2e-5 c 0.89087,4.4e-4 1.46876,0.69766 1.47,1.52402 v 2.48513 l -46,-0.009 c -2,0 -3,1 -3,3 v 26.49987 c -0.0453,1.95192 -2.95472,1.95192 -3,0 z m 56,-0.5 c 0,2 -1.10954,1.99931 -2,2 h -50 c 0,0 1,0.34375 1,-1.5 v -25.5 c 0,-1.38848 0,-2 2,-2 h 47 c 2,0 1.99923,1.17399 2,2 z"
       id="path6-5-2-5-1"
       style="fill:url(#linearGradient5)"
       sodipodi:nodetypes="cccccccccccccccccccccccccccccccccccccccc" />
    <path
       fill-rule="evenodd"
       clip-rule="evenodd"
       d="m 424.82097,523.23497 c 0,-0.31056 0.25186,-0.56242 0.56248,-0.56242 0.31065,0 0.56252,0.25186 0.56252,0.56242 0,0.31069 -0.25187,0.56258 -0.56252,0.56258 -0.31062,0 -0.56248,-0.25189 -0.56248,-0.56258 z m 1.96879,-3.93742 c 0,-0.3107 0.25183,-0.56258 0.56242,-0.56258 0.3107,0 0.56258,0.25188 0.56258,0.56258 0,0.31053 -0.25188,0.56242 -0.56258,0.56242 -0.31059,0 -0.56242,-0.25189 -0.56242,-0.56242 z m 4.21869,-1.68758 c 0,-0.31056 0.25187,-0.56242 0.56252,-0.56242 0.31059,0 0.56248,0.25186 0.56248,0.56242 0,0.31069 -0.25189,0.56258 -0.56248,0.56258 -0.31065,0 -0.56252,-0.25189 -0.56252,-0.56258 z m 5.17456,1.84772 c 0.22358,0.22331 0.22358,0.58551 0,0.80882 l -3.63977,3.63998 c -0.22355,0.22333 -0.58553,0.22333 -0.80883,0 -0.22344,-0.22328 -0.22344,-0.5855 0,-0.80881 l 3.63977,-3.63999 c 0.22354,-0.22332 0.58553,-0.22332 0.80883,0 z m 1.57544,3.21486 c 0.31065,0 0.56252,0.25186 0.56252,0.56242 0,0.31069 -0.25187,0.56258 -0.56252,0.56258 -0.31062,0 -0.56248,-0.25189 -0.56248,-0.56258 0,-0.31056 0.25186,-0.56242 0.56248,-0.56242 z m -7.875,5.625 h 3.375 c 0.31065,0 0.56252,0.25186 0.56252,0.56242 0,0.31069 -0.25187,0.56258 -0.56252,0.56258 h -3.375 c -0.31062,0 -0.56248,-0.25189 -0.56248,-0.56258 0,-0.31056 0.25186,-0.56242 0.56248,-0.56242 z m 1.68752,4.5 c -2.48017,0 -4.72593,-1.00368 -6.3538,-2.62628 -0.11304,-0.10318 -0.18528,-0.24996 -0.18528,-0.41483 0,-0.31055 0.25187,-0.56242 0.56253,-0.56242 0.15982,0 0.30332,0.0677 0.40566,0.17442 l 0.002,-0.002 c 1.42512,1.42514 3.39388,2.30656 5.5685,2.30656 4.34918,0 7.875,-3.52581 7.875,-7.875 0,-4.34918 -3.52582,-7.875 -7.875,-7.875 -4.34929,0 -7.875,3.52582 -7.875,7.875 0,0.52049 0.0594,1.02561 0.15996,1.51606 0.15915,0.42823 0.56949,0.73394 1.05287,0.73394 h 4.48246 c 0.14113,0 0.26614,-0.0694 0.34272,-0.17583 0.003,-0.004 0.008,-0.007 0.0137,-0.008 0.4081,-0.56832 1.07056,-0.94123 1.82367,-0.94123 0.75307,0 1.41555,0.37291 1.82373,0.94125 0.006,8.1e-4 0.0109,0.004 0.0137,0.008 0.076,0.10664 0.20159,0.17581 0.34273,0.17581 h 2.88286 c 0.31059,0 0.56245,0.25186 0.56245,0.56255 0,0.31059 -0.25186,0.56245 -0.56245,0.56245 h -2.96193 c -0.47952,0 -0.90222,-0.24091 -1.15602,-0.60758 -0.20019,-0.3106 -0.54736,-0.51742 -0.94457,-0.51742 -0.39721,0 -0.74438,0.20682 -0.94459,0.51742 -0.2538,0.36667 -0.67624,0.60758 -1.156,0.60758 h -4.56152 c -1.05368,0 -1.93152,-0.72703 -2.17624,-1.7048 -0.10255,-0.54161 -0.16168,-1.09858 -0.16168,-1.6702 0,-4.97083 4.02941,-9 9,-9 4.97045,0 9,4.02917 9,9 0,4.97045 -4.02955,9 -9,9 z"
       id="path5690-1-7-4"
       style="fill:url(#linearGradient2);fill-opacity:1;stroke-width:0.0351562" />
  </g>
</svg>
