<?xml version="1.0" encoding="UTF-8" standalone="no"?>
<svg
   width="64"
   version="1.1"
   height="64"
   id="svg17"
   sodipodi:docname="folder_html.svg"
   inkscape:version="1.3 (0e150ed6c4, 2023-07-21)"
   xmlns:inkscape="http://www.inkscape.org/namespaces/inkscape"
   xmlns:sodipodi="http://sodipodi.sourceforge.net/DTD/sodipodi-0.dtd"
   xmlns:xlink="http://www.w3.org/1999/xlink"
   xmlns="http://www.w3.org/2000/svg"
   xmlns:svg="http://www.w3.org/2000/svg"
   xmlns:rdf="http://www.w3.org/1999/02/22-rdf-syntax-ns#"
   xmlns:cc="http://creativecommons.org/ns#"
   xmlns:dc="http://purl.org/dc/elements/1.1/">
  <sodipodi:namedview
     pagecolor="#ffffff"
     bordercolor="#666666"
     borderopacity="1"
     objecttolerance="10"
     gridtolerance="10"
     guidetolerance="10"
     inkscape:pageopacity="0"
     inkscape:pageshadow="2"
     inkscape:window-width="1920"
     inkscape:window-height="994"
     id="namedview19"
     showgrid="true"
     inkscape:zoom="6.9384853"
     inkscape:cx="21.618551"
     inkscape:cy="27.45556"
     inkscape:window-x="0"
     inkscape:window-y="0"
     inkscape:window-maximized="1"
     inkscape:current-layer="layer1"
     inkscape:document-rotation="0"
     inkscape:showpageshadow="2"
     inkscape:pagecheckerboard="0"
     inkscape:deskcolor="#d1d1d1">
    <inkscape:grid
       type="xygrid"
       id="grid925"
       originx="0"
       originy="0"
       spacingy="1"
       spacingx="1"
       units="px"
       visible="true" />
  </sodipodi:namedview>
  <defs
     id="defs5455">
    <clipPath
       clipPathUnits="userSpaceOnUse"
       id="clipPath79425-9-5-3">
      <rect
         style="opacity:0.5;fill:#000000;fill-opacity:1;stroke:none;stroke-width:0.855869;stroke-dasharray:none;stroke-opacity:1;paint-order:stroke fill markers"
         id="rect79427-1-9-6"
         width="26.417742"
         height="29.037542"
         x="-16.227774"
         y="-6.4845476" />
    </clipPath>
    <clipPath
       clipPathUnits="userSpaceOnUse"
       id="clipPath79425-9-5-5">
      <rect
         style="opacity:0.5;fill:#000000;fill-opacity:1;stroke:none;stroke-width:0.855869;stroke-dasharray:none;stroke-opacity:1;paint-order:stroke fill markers"
         id="rect79427-1-9-62"
         width="26.417742"
         height="29.037542"
         x="-16.227774"
         y="-6.4845476" />
    </clipPath>
    <linearGradient
       inkscape:collect="always"
       xlink:href="#linearGradient24"
       id="linearGradient17"
       x1="392.57144"
       y1="536.79797"
       x2="444.57144"
       y2="507.798"
       gradientUnits="userSpaceOnUse"
       gradientTransform="translate(-6.7e-6,-3.7777344e-4)" />
    <linearGradient
       id="linearGradient24"
       inkscape:collect="always">
      <stop
         style="stop-color:#ff73ff;stop-opacity:1;"
         offset="0"
         id="stop22" />
      <stop
         style="stop-color:#0066ff;stop-opacity:1"
         offset="0.48888862"
         id="stop23" />
      <stop
         style="stop-color:#ffe680;stop-opacity:1"
         offset="1"
         id="stop24" />
    </linearGradient>
    <linearGradient
       inkscape:collect="always"
       xlink:href="#linearGradient3"
       id="linearGradient4"
       gradientUnits="userSpaceOnUse"
       gradientTransform="translate(0.9999406,4.0229562)"
       x1="397.57144"
       y1="511.27505"
       x2="415.57144"
       y2="511.27505" />
    <linearGradient
       id="linearGradient3"
       inkscape:collect="always">
      <stop
         style="stop-color:#ff73ff;stop-opacity:1;"
         offset="0"
         id="stop1" />
      <stop
         style="stop-color:#0066ff;stop-opacity:1"
         offset="0.48888862"
         id="stop2" />
      <stop
         style="stop-color:#00aad4;stop-opacity:1"
         offset="1"
         id="stop3" />
    </linearGradient>
    <linearGradient
       inkscape:collect="always"
       xlink:href="#linearGradient3"
       id="linearGradient5"
       gradientUnits="userSpaceOnUse"
       gradientTransform="translate(-4.67e-5,-3.6677344e-4)"
       x1="387.57144"
       y1="537.79797"
       x2="445.57144"
       y2="492.798" />
    <linearGradient
       inkscape:collect="always"
       xlink:href="#linearGradient24"
       id="linearGradient6"
       x1="422.57144"
       y1="523.79797"
       x2="440.57147"
       y2="523.79797"
       gradientUnits="userSpaceOnUse" />
  </defs>
  <metadata
     id="metadata5458">
    <rdf:RDF>
      <cc:Work
         rdf:about="">
        <dc:format>image/svg+xml</dc:format>
        <dc:type
           rdf:resource="http://purl.org/dc/dcmitype/StillImage" />
      </cc:Work>
    </rdf:RDF>
  </metadata>
  <g
     inkscape:label="Capa 1"
     inkscape:groupmode="layer"
     id="layer1"
     transform="translate(-384.57143,-483.798)">
    <path
       inkscape:connector-curvature="0"
       id="fill-3"
       d="m 393.57139,509.19762 3e-5,26.355 c -0.0932,0.57145 -0.23037,0.90721 -0.644,1.24501 l 49.644,-10e-6 c 1.25773,0 2,-0.20551 2,-1.99362 v -25.50638 c 0,-0.66722 -0.33428,-1.5 -1.9,-1.5 h -47.10899 c -0.99101,0 -1.99101,0 -1.99104,1.4 z"
       style="color:#1e92ff;opacity:0.4;fill:url(#linearGradient17);fill-opacity:0.4;fill-rule:nonzero;stroke:none;stroke-width:8.11634"
       sodipodi:nodetypes="ccccccccc" />
    <rect
       x="398.57135"
       y="513.79797"
       width="18"
       height="3"
       ry="1.5"
       stroke-width="5.07132"
       style="opacity:0.8;fill:url(#linearGradient4);fill-opacity:1;paint-order:stroke markers fill"
       id="rect12-5-9-3-9-7-7-9"
       rx="1.5000117" />
    <path
       d="m 443.46965,505.80678 -0.89826,-0.009 v -2.5759 c -0.002,-1.58874 -1,-3.4241 -3.371,-3.4241 h -21.84697 c -3.78203,0 -3.78203,-1 -5.08102,-2.46383 l -1.527,-2.91564 c -0.52263,-0.98802 -1.70328,-1.61594 -2.88973,-1.62053 h -18.28424 c -1.71234,0.002 -2.99827,1.41164 -3,3 v 39.5 c 0,2.0466 1.46781,3.5 3.4,3.5 h 53.49825 c 1.71233,-0.002 3.1,-1.28887 3.10174,-2.87723 v -27.23662 c -0.002,-1.58827 -1.3895,-2.87535 -3.10174,-2.877 z m -54.89826,29.49085 v -38.5 c 7.7e-4,-0.82599 0,-2 2,-2 h 15.7 c 1,0 2.1,0 2.736,1.324 l 1.526,2.515 c 1.21959,2.31102 3.038,3.161 6.038,3.161 l 22.53001,-2e-5 c 0.89087,4.4e-4 1.46875,0.69766 1.47,1.52402 v 2.48513 l -46,-0.009 c -2,0 -3,1 -3,3 v 26.49987 c -0.0453,1.95192 -2.95472,1.95192 -3.00001,0 z m 56,-0.5 c 0,2 -1.10954,1.99931 -2,2 h -50 c 0,0 1,0.34375 1,-1.5 v -25.5 c 0,-1.38848 0,-2 2,-2 h 47 c 2,0 1.99923,1.17399 2,2 z"
       id="path6-5-2-5-1"
       style="opacity:0.701;fill:url(#linearGradient5)"
       sodipodi:nodetypes="cccccccccccccccccccccccccccccccccccccccc" />
    <path
       d="m 440.21346,521.70397 z m -6.47653,10.83874 c -4.39913,1.0737 -9.06304,-1.31691 -10.63125,-5.71314 -0.57022,-1.60053 -0.69245,-3.24152 -0.32581,-4.90278 0.0206,-0.0405 0.0408,-0.10129 0.0613,-0.14178 0,0.0408 0,0.10123 0.0206,0.14178 0,0.0205 0.0206,0.061 0.041,0.0811 0,-0.0406 0.0206,-0.061 0.0206,-0.10129 0,-0.12153 0,-0.24311 0.0206,-0.38494 0.12218,0.10132 0.0408,0.24312 0.0813,0.34443 0.0613,0.16207 0.0613,0.32416 0.0613,0.50645 -0.0206,0.2634 0.224,0.44574 0.40733,0.46595 0.34618,0.0408 0.54988,0.30394 0.85535,0.40521 0.14259,0.0408 0.22405,0.18233 0.2444,0.24312 0.0411,0.26337 0.24442,0.34442 0.40735,0.44573 0.041,0.0205 0.0812,0.061 0.12216,0 0.14257,-0.28365 0.16295,-0.0811 0.22403,0.0405 0.14262,0.30388 0.0206,0.54701 -0.14255,0.79014 -0.12216,0.16205 -0.26474,0.32412 -0.12216,0.54697 0.0206,0.0205 0,0.0811 -0.0206,0.1013 -0.10187,0.16209 -0.041,0.28361 0.0613,0.42544 0.14256,0.20261 0.26477,0.40516 0.36663,0.62805 0.14254,0.28365 0.26473,0.54702 0.59059,0.68881 0.20371,0.0811 0.32589,0.26338 0.34625,0.50647 0.0613,0.68884 0.16295,1.37765 0.26475,2.04622 0.0613,0.40518 0.38699,0.68882 0.52954,1.05344 0.0613,0.16207 0.16292,0.30389 0.28509,0.44574 0.22404,0.26336 0.5499,0.28362 0.83506,0.42542 0.0206,0 0.0613,0 0.0813,0 -0.0206,-0.0205 -0.0613,-0.0407 -0.0813,-0.061 -0.1833,-0.16208 -0.57029,-0.20257 -0.32588,-0.58749 0,-0.0205 -0.0206,-0.061 -0.0206,-0.061 -0.28512,-0.061 -0.14257,-0.26335 -0.12217,-0.40519 0,-0.0811 0.0815,-0.14178 -0.041,-0.16206 -0.0206,0 -0.0408,-0.0408 -0.0408,-0.061 0.22403,0.061 0.14257,-0.26336 0.32587,-0.26336 0.26475,0 0.36658,-0.10129 0.22404,-0.36468 -0.0409,-0.061 -0.10187,-0.14183 0.0613,-0.1013 0.16295,0.0409 0.24442,-0.0205 0.28514,-0.16206 0.0407,-0.14184 0.10179,-0.28364 0.22404,-0.40517 0.1018,-0.12158 0.16293,-0.26341 0.12217,-0.44573 -0.0613,-0.30391 0.24441,-0.36466 0.4277,-0.38494 0.38697,-0.0407 0.40735,-0.30387 0.48882,-0.56726 0.0613,-0.20256 0.0613,-0.40518 0.041,-0.62802 -0.0206,-0.22287 0.16293,-0.36466 0.28514,-0.52674 0.16288,-0.20261 0.26472,-0.46595 0.10179,-0.64833 -0.16294,-0.18234 -0.36658,-0.3849 -0.65174,-0.40519 -0.40728,-0.0205 -0.71282,-0.28358 -1.05899,-0.4254 -0.12224,-0.0408 -0.12224,-0.24313 -0.16293,-0.36472 -0.10185,-0.28359 -0.28519,-0.40515 -0.5703,-0.44564 -0.34624,-0.0408 -0.48877,-0.30391 -0.63133,-0.54703 -0.10184,-0.18233 -0.24441,-0.1013 -0.32589,-0.0811 -0.20367,0.061 -0.3666,0 -0.50915,-0.0811 -0.34619,-0.18238 -0.63136,-0.12158 -0.87576,0.24313 -0.0409,0.061 -0.10181,0.16205 -0.20366,0.061 -0.0613,-0.061 -0.14253,-0.061 -0.2444,-0.0205 -0.18329,0.0811 -0.34622,-0.061 -0.32587,-0.26334 0,-0.0811 0.0206,-0.16206 0.0408,-0.2431 0.0613,-0.34441 0.041,-0.38498 -0.30549,-0.34441 -0.14256,0.0205 -0.16292,-0.0205 -0.10183,-0.14182 0.0613,-0.12158 0.1222,-0.24309 0.14259,-0.38492 0.0206,-0.0811 0.14253,-0.18233 0,-0.24312 -0.10185,-0.0407 -0.28517,0 -0.30549,0.14182 -0.041,0.24313 -0.18333,0.30387 -0.387,0.26337 -0.22403,-0.061 -0.20365,-0.28367 -0.16295,-0.44574 0.041,-0.32415 0.0613,-0.68876 0.40736,-0.8914 0.0814,-0.061 0.16291,-0.0811 0.26476,-0.061 0.10185,0.0205 0.18332,0.0205 0.28511,-0.0811 0.14261,-0.14182 0.30554,-0.0408 0.46848,0 0.12217,0.0405 0.0613,0.16208 0.0817,0.24311 0.0206,0.12157 0.0206,0.30388 0.14259,0.28364 0.14255,0 0.16292,-0.18233 0.12218,-0.32413 -0.0812,-0.3039 0.0206,-0.56727 0.30548,-0.70909 0.30553,-0.16209 0.4481,-0.42545 0.63136,-0.68884 0.12221,-0.20257 0.34625,-0.30392 0.54991,-0.44569 0.20365,-0.12153 0.36659,-0.34441 0.63139,-0.44569 0.0408,-0.0205 0.0817,-0.0205 0.10178,-0.0408 -0.0206,0.0408 -0.0206,0.061 -0.041,0.10132 -0.0206,0.0409 -0.0409,0.061 0,0.0811 0.0206,0 0.0613,0 0.0815,-0.0205 0.0613,-0.0811 0.16295,-0.10131 0.26481,-0.12153 0.0613,-0.0205 0.1629,-0.061 0.18324,-0.10131 0,-0.0811 -0.1018,-0.0408 -0.14253,-0.0811 -0.0815,-0.061 -0.0815,-0.12156 -0.041,-0.18234 0.041,-0.1013 0.18327,-0.20257 -0.0613,-0.20257 0,0 -0.0206,-0.0205 -0.0206,-0.0408 0.0206,0 0.0408,-0.0205 0.0613,-0.0205 0.28512,-0.061 0.59062,0.0407 0.85536,-0.16207 0.0206,0 0.041,0.0205 0.0613,0.0205 -0.0206,0.0205 -0.0206,0.0408 -0.0408,0.061 -0.0613,0.14182 -0.32585,0.20258 -0.24439,0.36464 0.0408,0.0811 0.28511,-0.061 0.44803,0.061 0.0613,0.0407 0.16293,0 0.12222,-0.061 -0.0613,-0.10129 0.14259,-0.26338 -0.0408,-0.26338 -0.18326,-0.0205 -0.12217,-0.0811 -0.0815,-0.16208 0.12223,-0.20257 0.16294,-0.36465 -0.10178,-0.46594 -0.14258,-0.061 -0.0613,-0.20257 -0.10183,-0.30388 -0.041,-0.16208 -0.0613,-0.28363 -0.26482,-0.12156 -0.0815,0.061 -0.30547,0.26337 -0.24439,-0.10128 0.0206,-0.0811 -0.12217,-0.16209 -0.18324,-0.16209 -0.16293,0 -0.36665,-0.10131 -0.44812,0.1013 -0.0813,0.16207 -0.28511,0.26335 -0.28511,0.48622 0,0.061 -0.10182,0.12154 -0.18328,0.16206 -0.16295,0.061 -0.28511,0.14186 -0.30549,0.32413 -0.0206,0.10132 -0.10187,0.18235 -0.20366,0.14187 -0.1222,-0.061 -0.0206,-0.16208 0.0206,-0.2229 0.0817,-0.10124 0.0817,-0.18228 -0.0815,-0.16206 -0.16292,0.0205 -0.26471,-0.14181 -0.44806,-0.16206 -0.0613,0 -0.0613,-0.16208 0.0206,-0.22287 0.2647,-0.26334 0.61092,-0.34439 0.91644,-0.547 0.0815,-0.061 0.10184,0.18235 0.16295,0.061 0.0613,-0.12152 0.44802,0.0811 0.26476,-0.26332 0.1018,-0.0405 0.18326,-0.061 0.2851,-0.10133 0.14257,-0.061 0.1833,-0.24311 0.36664,-0.28361 0.16292,-0.0205 0.34619,-0.0407 0.36656,0.10126 0.0206,0.14184 -0.18332,0.18235 -0.30549,0.24311 -0.0613,0.0205 -0.12224,0 -0.1833,0.0205 -0.041,0.0205 -0.10184,0.061 -0.10184,0.0811 0,0.061 0.0812,0.0408 0.12221,0.0408 0.12217,-0.0205 0.22405,-0.0205 0.30552,0.1013 0.0613,0.0811 0.28507,0.12157 0.28507,0.0811 0.0206,-0.18236 0.48881,-0.0408 0.24441,-0.36466 0,-0.0205 0,-0.061 0,-0.061 0.041,-0.0408 0.0815,-0.0205 0.12221,0.0205 0.14259,0.16208 0.26478,0.0205 0.32589,-0.061 0.0815,-0.12154 -0.14255,-0.12154 -0.14255,-0.16208 0,-0.26339 -0.2444,-0.22283 -0.36663,-0.30388 -0.12217,-0.0811 -0.22403,-0.0811 -0.34624,-0.061 0.0408,0.0205 0.0408,0.0811 0,0.061 -0.1629,-0.10134 -0.2851,-0.0205 -0.42768,0 -0.14252,0.0406 -0.26477,0.0406 -0.38693,-0.0408 -0.0815,-0.061 -0.16295,-0.0408 -0.2444,0 -0.0206,0 -0.041,0.0205 -0.041,0.0408 0,0 0.0206,0.0205 0.041,0.0205 0.0613,0 0.12217,-0.10132 0.18325,-0.0205 -0.0815,0.061 -0.16291,0.10131 -0.26473,0.12154 v 0 c 0,0 0,0 0,0 -0.2444,-0.0408 -0.32588,0.0406 -0.30547,0.24309 0,0.0406 -0.0206,0.0811 -0.041,0.12159 -0.10183,-0.0811 -0.30546,0.061 -0.30546,-0.0205 0,-0.12153 -0.0613,-0.30387 0.10185,-0.4052 1.95513,-1.15476 4.03252,-1.58023 6.27282,-1.19533 1.48672,0.26344 2.81056,0.85091 4.01218,1.76261 0.0613,0.0409 0.10181,0.10129 0.14257,0.14178 -0.0813,0.0409 -0.12221,-0.0406 -0.18335,-0.061 -0.18327,-0.0811 -0.34621,-0.22281 -0.54986,-0.26337 -0.26475,-0.0409 -0.52951,-0.0811 -0.73322,0.14182 -0.14252,0.14186 -0.30547,0.2431 -0.5091,0.28364 -0.16295,0.0406 -0.20372,0.12154 -0.12225,0.28361 0.0613,0.16208 0.14259,0.26336 0.30551,0.18233 0.14259,-0.0811 0.20367,-0.0205 0.28514,0.081 0.10182,0.12156 0.0613,0.16209 -0.0206,0.24313 -0.0206,0.0205 0.0206,0.10133 -0.0613,0.0811 -0.10187,0.0205 -0.0815,-0.0205 -0.0815,-0.0811 0,-0.061 0.0815,-0.16208 -0.041,-0.16208 -0.10177,0 -0.18325,0.10135 -0.14255,0.20259 0.0815,0.16207 -0.0206,0.20261 -0.14258,0.20261 -0.20362,0.0205 -0.28509,0.26339 -0.4684,0.28362 -0.10182,0.22285 -0.34624,0.10129 -0.50918,0.20264 -0.041,0.0205 -0.12216,0 -0.14256,0.061 0,0.0205 0.0613,0.061 0.10188,0.0812 0.0816,0.0408 0.14252,0.1013 0.20362,0.16208 0.0816,0.10128 0.0613,0.20257 0.0206,0.30387 -0.041,0.12152 -0.14252,0.061 -0.22399,0.061 -0.0206,0 -0.0412,0 -0.0412,0 -0.52952,-0.061 -0.69245,0.10134 -0.61099,0.62803 0.0206,0.10135 0.0206,0.24312 0.20368,0.22286 0.1426,0 0.20369,0.10131 0.10184,0.2229 -0.20362,0.24311 -0.42768,0.48619 -0.5295,0.81033 -0.0613,0.14187 -0.28517,0.14187 -0.38697,0.32418 -0.14259,0.3241 -0.50919,0.54696 -0.36661,0.99272 0.0613,0.18228 0,0.3646 -0.0613,0.56725 -0.0613,0.18232 -0.0613,0.40515 0.12222,0.56722 0.3055,0.24311 0.40729,0.64832 0.75354,0.85093 0.14255,0.0811 0.24437,0.10125 0.40731,0.0811 0.38698,-0.0406 0.75358,-0.16207 1.12016,-0.18234 0.22404,-0.0205 0.46842,0.22282 0.71282,0.32418 0.14257,0.061 0,0.32417 -0.0206,0.48622 -0.0206,0.1418 -0.0206,0.24309 0.0815,0.34437 0.30549,0.32416 0.34625,0.72936 0.42772,1.13452 0.041,0.18239 -0.16292,0.30392 -0.20369,0.48624 -0.0613,0.24313 -0.10178,0.46594 0.0409,0.68882 0.14257,0.22282 0.20364,0.46594 0.16294,0.72932 -0.0206,0.26343 0.20364,0.4052 0.2444,0.62805 0.0815,0.44569 0.10179,0.42549 0.57026,0.34445 0.5295,-0.10135 0.7739,-0.52681 0.99795,-0.95219 0.0613,-0.10135 0.0613,-0.20264 0.1833,-0.24313 0.12218,-0.061 0.18327,-0.22284 0.14253,-0.34442 -0.0613,-0.26339 0.0815,-0.44568 0.26481,-0.56728 0.38694,-0.24312 0.42763,-0.60778 0.32585,-0.95219 -0.18332,-0.66851 0.14256,-1.1345 0.52951,-1.58023 0.30551,-0.34439 0.40733,-0.72932 0.46844,-1.1345 0.0206,-0.10129 0,-0.18232 -0.14258,-0.10129 -0.0613,0.0408 -0.12223,0.061 -0.20368,0.0809 -0.10179,0.0205 -0.22402,0.061 -0.28512,-0.0809 -0.0816,-0.18236 0.10186,-0.14184 0.16294,-0.16208 0.36657,-0.20261 0.75354,-0.4052 0.81467,-0.89145 0.0206,-0.14179 0,-0.28357 -0.10186,-0.40516 -0.0613,-0.0811 -0.10184,-0.18232 -0.0613,-0.28359 0.44804,0.48622 0.38697,1.13449 0.40734,1.70173 0.22403,4.31525 -2.68839,8.06326 -6.82276,9.0762 z m -7.84102,-10.27148 c -0.22405,-0.14186 -0.40732,-0.36469 -0.71283,-0.36469 -0.0815,0.0205 -0.1833,0.0408 -0.26476,0.12158 -0.0206,0.0205 -0.0408,0.10125 0.0206,0.0811 0.32589,-0.12156 0.50914,0.0205 0.71285,0.2431 0.0408,0.0405 0.1629,0.0811 0.26471,0.0205 0,-0.0408 -0.0206,-0.10131 -0.0206,-0.10131 z m 0.61096,0.22286 c -0.0815,-0.12161 -0.20364,-0.14184 -0.34624,-0.16208 -0.18328,-0.0408 -0.10181,0.22282 -0.24441,0.20255 0.0613,0.0205 0.12225,0.061 0.20372,0.0811 0.12216,-0.061 0.26476,-0.0811 0.38693,-0.12152 z m 7.04679,-5.85497 c 0,-0.0808 -0.0815,-0.10129 -0.1426,-0.10129 -0.16294,0 -0.32586,0 -0.48878,0 -0.0613,0 -0.14258,-0.061 -0.18327,0.0205 0.0813,0.0408 0.0206,0.18234 0.14253,0.22287 0.0613,0.0205 0.14258,0.0205 0.22405,0.0408 0.10182,-0.0205 0.224,-0.061 0.32587,-0.0812 0.0613,-0.0408 0.1222,-0.0408 0.1222,-0.10133 z m 0.65168,1.09402 c 0.12225,0.061 0.32586,0.0811 0.10186,0.28362 -0.0613,0.061 0,0.20262 -0.0815,0.28365 0.10184,0.061 0.18331,-0.0205 0.26478,-0.0205 0.12215,0 0.26472,-0.0205 0.38693,-0.0407 0,-0.18232 -0.10183,-0.32413 -0.24438,-0.46599 -0.041,-0.0408 -0.10187,-0.10124 -0.10187,-0.16209 0.0206,-0.20255 -0.10177,-0.30386 -0.26469,-0.26329 -0.16294,0.061 -0.14263,0.22282 -0.0613,0.3849 z m -0.18323,-0.0408 c -0.10189,0.0205 -0.26483,0.061 -0.26483,0.1824 0,0.0811 -0.12215,0.20257 0,0.24307 0.0811,0.0205 0.24441,-0.0205 0.30552,-0.0811 0.0813,-0.0811 0.10184,-0.20262 0.14254,-0.30392 -0.0613,-0.0205 -0.12217,-0.0406 -0.18323,-0.0406 z m -1.32387,-1.41814 c 0.0813,0 0.16294,-0.061 0.24442,-0.10127 0.041,-0.0205 0.0813,-0.0408 0.0613,-0.0811 -0.224,-0.2431 0.0815,-0.10131 0.12223,-0.16206 0.041,-0.0408 0.16295,-0.061 0.1833,-0.10132 0.0613,-0.26339 0.26476,-0.30386 0.50916,-0.30386 -0.0206,0 0.0206,-0.0205 0.0408,-0.0205 -0.0206,-0.0205 -0.0408,-0.0408 -0.0815,-0.0408 -0.22408,-0.0408 -0.44811,-0.0811 -0.67214,-0.12156 -0.95722,-0.12153 -1.91443,0.0811 -2.89205,0.0205 -0.54988,-0.0408 -1.059,0.20256 -1.60889,0.26338 -0.0812,0 -0.16295,0.061 -0.2444,0.0811 -0.0206,0 -0.0818,0.061 -0.0206,0.061 0.18333,0.0408 0,0.0811 0,0.0811 -0.0613,0.0811 -0.16293,0.0407 -0.24439,0.061 -0.0409,0.0205 -0.10184,0.061 -0.10184,0.0811 0.0206,0.061 0.0815,0.0205 0.12222,0.0205 0.14254,0 0.28511,0 0.42766,-0.0205 v 0 c 0.30553,-0.22288 0.65174,-0.3039 0.99799,-0.42547 0.041,-0.0205 0.0815,0 0.12215,-0.0205 0,0.36469 0.26479,0.12158 0.38698,0.16209 0.16291,0.0408 0.40732,-0.061 0.34623,0.26338 0,0.0205 0.0206,0.0408 0.0408,0.061 0.12216,0.10129 0.0815,0.20259 -0.0408,0.24309 -0.24439,0.061 -0.20363,0.2634 -0.22403,0.44572 0,0.28363 0.24441,0.3039 0.42772,0.38494 0.16293,0.061 0.22405,-0.0811 0.30551,-0.16208 0.16293,-0.14184 0.26469,-0.34442 0.48878,-0.36468 0.44802,-0.061 0.85538,-0.28362 1.30342,-0.3039 z m 7.08747,10.35254 c -0.0206,-0.061 -0.0408,-0.10127 -0.0408,-0.16206 -0.0408,0.0408 -0.0815,0.0811 -0.10186,0.12152 -0.041,0.061 -0.0613,0.18233 -0.14252,0.22283 -0.38698,0.26342 -0.28515,0.68888 -0.42776,1.05354 -0.0206,0.061 -0.0206,0.14177 0.0613,0.16207 0.0613,0.0205 0.1222,-0.0205 0.16293,-0.0811 0.20365,-0.42546 0.38697,-0.85091 0.48874,-1.31685 z m -1.44595,-5.8144 c -0.0613,0.14178 -0.20366,0 -0.28513,0.0205 -0.34628,0.081 -0.61099,-0.0811 -0.89617,-0.22288 -0.10177,-0.0408 -0.22399,-0.0205 -0.24438,0.061 -0.14255,0.46596 -0.32585,-0.0408 -0.46843,0.0205 -0.0206,0 -0.0613,-0.10125 -0.0815,-0.10125 -0.32587,-0.0408 -0.54988,-0.14186 -0.44804,-0.54705 0.0206,-0.061 -0.10184,-0.10127 -0.16296,-0.0808 -0.40729,0.061 -0.85534,-0.081 -1.22199,0.20259 -0.041,0.0408 -0.12215,0 -0.18324,0 -0.0613,0 -0.18332,0.0205 -0.18332,-0.061 0,-0.10136 0.10187,-0.0811 0.18332,-0.10136 0.20365,-0.0205 0.30549,-0.14177 0.38696,-0.32412 0.1018,-0.26338 0.36659,-0.38494 0.54987,-0.5065 0.40735,-0.30389 0.54987,0.061 0.77393,0.2229 0.0815,0.061 0.16293,0.12153 0.26475,0.16205 0.0613,0.0407 0.12217,0.10128 0.10185,0.16206 -0.0206,0.1013 -0.10185,0.0811 -0.18331,0.0811 -0.041,0.0205 -0.12222,-0.0406 -0.14255,0.0408 0,0.0205 0.041,0.061 0.0815,0.0811 0.0613,0.0205 0.14255,0.12156 0.18326,0.0408 0.0412,-0.10133 0.12223,-0.16211 0.18331,-0.26341 0.20363,-0.3039 -0.14255,-0.26336 -0.22402,-0.38494 -0.0206,-0.0405 -0.10182,-0.0405 -0.10182,-0.0811 -0.0412,-0.10127 -0.2444,-0.1823 -0.14259,-0.28363 0.10186,-0.10129 0.18333,0.10133 0.28512,0.14184 0.38694,0.14179 0.4277,0.54698 0.63134,0.81034 0.0411,0.061 0.0613,0.18237 0.16293,0.14184 0.0816,-0.0408 0.12224,-0.14184 0.0816,-0.24311 -0.0206,-0.1013 -0.10179,-0.2026 0.041,-0.24313 0.16294,-0.0405 0.18323,0.10132 0.20363,0.20261 0.0408,0.26337 0.20369,0.36468 0.4684,0.36468 0.14258,0 0.26477,0.12157 0.42771,0.061 0.0206,0 0.0613,0.0205 0.0613,0.061 0.0206,0.24311 -0.041,0.40518 -0.10185,0.56727 z m -2.58656,-1.19531 c -0.0408,-0.10135 0.0206,-0.22288 -0.0815,-0.32418 -0.0206,0.1013 -0.0613,0.20261 -0.0815,0.30387 0.0613,0.0408 -0.0206,0.16209 0.10183,0.16209 0.0613,-0.0205 0.0816,-0.10128 0.0613,-0.14178 z m 2.40325,-0.38496 c -0.0816,0.0205 -0.14255,0.0205 -0.20371,-0.061 -0.0613,-0.0811 -0.12216,-0.22286 -0.22398,-0.1216 -0.12216,0.10134 -0.18332,0.26342 -0.1426,0.42548 0.0411,0.12152 0.16296,0.18235 0.2648,0.14182 0.24441,-0.10134 0.44805,-0.0408 0.6517,0.0811 0.0613,0.0408 0.16291,0.10128 0.20368,0 0.041,-0.10135 -0.0408,-0.14183 -0.10185,-0.18239 -0.10183,-0.0811 -0.22402,-0.16203 -0.30548,-0.2633 -0.041,-0.061 0.0408,-0.18235 -0.12217,-0.16208 -0.0206,0 -0.041,0 -0.041,0.0205 -0.0408,0.0811 0.0613,0.061 0.0817,0.10132 0,0.0205 -0.0206,0.0205 -0.0613,0.0205 z m 0.63136,2.63374 c -0.0613,-0.18234 -0.18332,-0.32416 -0.28515,-0.48625 -0.0206,-0.0407 -0.0613,-0.081 -0.12219,-0.061 -0.0815,0.0205 -0.041,0.0811 -0.0206,0.12153 0.24439,0.48624 0.44809,0.99273 0.65174,1.4789 0.041,0.10131 0.16294,0.18235 0.26477,0.28368 0.0206,0.0205 0.0409,0.0205 0.0613,0.0405 0,-0.0205 0.0206,-0.061 0,-0.0205 0,-0.58753 -0.38694,-0.91171 -0.54988,-1.35739 z m -2.24031,-4.55838 c -0.0815,-0.14182 -0.0206,-0.20257 0.10185,-0.26335 0.0206,-0.0205 0.0613,-0.061 0.0206,-0.061 -0.041,-0.0205 -0.12219,-0.0205 -0.12219,0 -0.0613,0.14185 -0.5295,0.12158 -0.16293,0.42549 0,0 0,0.061 0,0.061 -0.14253,0.10131 -0.10182,0.40521 -0.38693,0.36468 -0.0206,0 -0.0817,0 -0.041,0.0405 0.16295,0.20256 0.38703,0 0.59067,0.061 0.0613,0.0205 0.10185,-0.061 0.12218,-0.14182 0.0206,-0.22283 0.0815,-0.40519 0.36662,-0.26339 0.0206,0.0205 0.0813,0.0205 0.0813,-0.0205 0,0 -0.0408,-0.0405 -0.0813,-0.0405 -0.041,0 -0.10183,0 -0.14255,0 -0.14261,-0.0205 -0.26481,-0.0205 -0.34625,-0.16209 z m 3.66596,4.39629 c -0.20365,-0.10129 -0.38697,-0.22284 -0.44807,-0.44574 -0.0206,-0.0407 -0.0613,-0.12153 -0.12219,-0.081 -0.0613,0.0408 -0.041,0.10133 0,0.16207 0.0815,0.1216 0.18329,0.20264 0.22399,0.32417 0.10188,0.3849 0.2037,0.26336 0.34627,0.0408 0,0 0,0 0,0 z m -12.79008,-5.46999 c -0.14258,0.0811 0.0815,0.10124 0.0206,0.20255 -0.0613,0.10131 0.10183,0.16209 0.14252,0.1418 0.18331,-0.0205 0.18331,-0.18227 0.1426,-0.32415 -0.0206,-0.0811 -0.10182,-0.0205 -0.16292,0 -0.0613,0.0408 -0.10185,0.0408 -0.14256,-0.0205 -0.0206,0 0,0 0,0 z m -1.44603,2.59319 c 0.0206,-0.0811 -0.0613,-0.10134 -0.12219,-0.10134 -0.12216,0.0205 -0.24441,0.081 -0.30551,0.16207 -0.0206,0.0408 0.12221,-0.0205 0.16294,0.0408 0.0816,-0.061 0.24442,0.061 0.26476,-0.10134 z m -0.0206,0.3241 c -0.041,0.0409 0.0206,0.10135 0.041,0.0811 0.0818,-0.061 0.18331,-0.1216 0.24441,-0.20261 0.0206,-0.0205 -0.10181,-0.061 -0.18328,-0.061 -0.16293,-0.0408 -0.0408,0.12161 -0.10181,0.18238 z m 12.48457,5.81444 c -0.10181,0 -0.14255,0.061 -0.16296,0.14182 0,0.061 -0.0206,0.14183 0.0815,0.14183 0.10184,0 0.10184,-0.12157 0.14258,-0.18238 0.0408,-0.0811 -0.0206,-0.0811 -0.0613,-0.10127 z m -12.68823,-5.8955 c -0.10178,0.0205 -0.16289,0.10133 -0.20368,0.18236 -0.0408,0.061 -0.0815,0.16207 -0.10182,0.22282 0.0206,0 0.041,0.0205 0.0613,0 0.12216,-0.1013 0.12216,-0.28365 0.28512,-0.38489 -0.041,0 -0.041,-0.0205 -0.041,-0.0205 z"
       id="path2-2-3-7"
       style="fill:url(#linearGradient6);fill-opacity:1;stroke-width:0.203124" />
  </g>
</svg>
