<?xml version="1.0" encoding="UTF-8" standalone="no"?>
<svg
   width="64"
   version="1.1"
   height="64"
   id="svg17"
   sodipodi:docname="folder-Arch.svg"
   inkscape:version="1.3 (0e150ed6c4, 2023-07-21)"
   xmlns:inkscape="http://www.inkscape.org/namespaces/inkscape"
   xmlns:sodipodi="http://sodipodi.sourceforge.net/DTD/sodipodi-0.dtd"
   xmlns:xlink="http://www.w3.org/1999/xlink"
   xmlns="http://www.w3.org/2000/svg"
   xmlns:svg="http://www.w3.org/2000/svg"
   xmlns:rdf="http://www.w3.org/1999/02/22-rdf-syntax-ns#"
   xmlns:cc="http://creativecommons.org/ns#"
   xmlns:dc="http://purl.org/dc/elements/1.1/">
  <sodipodi:namedview
     pagecolor="#ffffff"
     bordercolor="#666666"
     borderopacity="1"
     objecttolerance="10"
     gridtolerance="10"
     guidetolerance="10"
     inkscape:pageopacity="0"
     inkscape:pageshadow="2"
     inkscape:window-width="1920"
     inkscape:window-height="994"
     id="namedview19"
     showgrid="true"
     inkscape:zoom="9.8125004"
     inkscape:cx="26.955413"
     inkscape:cy="39.082801"
     inkscape:window-x="0"
     inkscape:window-y="0"
     inkscape:window-maximized="1"
     inkscape:current-layer="layer1"
     inkscape:document-rotation="0"
     inkscape:lockguides="false"
     inkscape:showpageshadow="2"
     inkscape:pagecheckerboard="0"
     inkscape:deskcolor="#d1d1d1">
    <inkscape:grid
       type="xygrid"
       id="grid844"
       originx="0"
       originy="0"
       spacingy="1"
       spacingx="1"
       units="px"
       visible="true" />
  </sodipodi:namedview>
  <defs
     id="defs5455">
    <linearGradient
       id="linearGradient9"
       inkscape:collect="always">
      <stop
         style="stop-color:#2a7fff;stop-opacity:1"
         offset="0"
         id="stop6" />
      <stop
         style="stop-color:#37c8ab;stop-opacity:1"
         offset="0.52743679"
         id="stop7" />
      <stop
         style="stop-color:#8553cf;stop-opacity:1;"
         offset="1"
         id="stop8" />
    </linearGradient>
    <clipPath
       clipPathUnits="userSpaceOnUse"
       id="clipPath79425-9-5-3">
      <rect
         style="opacity:0.5;fill:#000000;fill-opacity:1;stroke:none;stroke-width:0.855869;stroke-dasharray:none;stroke-opacity:1;paint-order:stroke fill markers"
         id="rect79427-1-9-6"
         width="26.417742"
         height="29.037542"
         x="-16.227774"
         y="-6.4845476" />
    </clipPath>
    <clipPath
       clipPathUnits="userSpaceOnUse"
       id="clipPath79425-9-5-5">
      <rect
         style="opacity:0.5;fill:#000000;fill-opacity:1;stroke:none;stroke-width:0.855869;stroke-dasharray:none;stroke-opacity:1;paint-order:stroke fill markers"
         id="rect79427-1-9-62"
         width="26.417742"
         height="29.037542"
         x="-16.227774"
         y="-6.4845476" />
    </clipPath>
    <linearGradient
       inkscape:collect="always"
       xlink:href="#linearGradient9"
       id="linearGradient3"
       x1="422.64246"
       y1="532.96173"
       x2="439.57144"
       y2="516.79797"
       gradientUnits="userSpaceOnUse"
       gradientTransform="translate(12.98978,-69.03175)" />
    <linearGradient
       inkscape:collect="always"
       xlink:href="#linearGradient24"
       id="linearGradient17"
       x1="392.57144"
       y1="536.79797"
       x2="444.57144"
       y2="507.798"
       gradientUnits="userSpaceOnUse"
       gradientTransform="translate(3.4e-6,-1.567e-4)" />
    <linearGradient
       inkscape:collect="always"
       xlink:href="#linearGradient24"
       id="linearGradient4"
       gradientUnits="userSpaceOnUse"
       gradientTransform="translate(0.9999504,4.0231773)"
       x1="397.57144"
       y1="511.27505"
       x2="415.57144"
       y2="511.27505" />
    <linearGradient
       inkscape:collect="always"
       xlink:href="#linearGradient24"
       id="linearGradient5-3"
       gradientUnits="userSpaceOnUse"
       gradientTransform="translate(-3.66e-5,-1.457e-4)"
       x1="387.57144"
       y1="537.79797"
       x2="445.57144"
       y2="492.798" />
    <linearGradient
       id="linearGradient24"
       inkscape:collect="always">
      <stop
         style="stop-color:#0066ff;stop-opacity:1"
         offset="0"
         id="stop22" />
      <stop
         style="stop-color:#87aade;stop-opacity:1"
         offset="0.48888862"
         id="stop23" />
      <stop
         style="stop-color:#0066ff;stop-opacity:1"
         offset="1"
         id="stop24" />
    </linearGradient>
    <linearGradient
       inkscape:collect="always"
       xlink:href="#linearGradient24"
       id="linearGradient1"
       gradientUnits="userSpaceOnUse"
       gradientTransform="translate(3.6611097e-6,-1)"
       x1="422.64246"
       y1="532.96173"
       x2="439.57144"
       y2="516.79797" />
  </defs>
  <metadata
     id="metadata5458">
    <rdf:RDF>
      <cc:Work
         rdf:about="">
        <dc:format>image/svg+xml</dc:format>
        <dc:type
           rdf:resource="http://purl.org/dc/dcmitype/StillImage" />
      </cc:Work>
    </rdf:RDF>
  </metadata>
  <g
     inkscape:label="Capa 1"
     inkscape:groupmode="layer"
     id="layer1"
     transform="translate(-384.57143,-483.798)">
    <path
       d="m 436.12343,464.76625 c -0.144,0 -0.2865,-0.0555 -0.3945,-0.162 -0.18,-0.177 -0.21975,-0.453 -0.0967,-0.67425 3.1515,-5.661 4.986,-9.09975 6.13575,-11.49825 0.0427,-0.0908 0.1095,-0.1665 0.1905,-0.222 -0.008,-0.0967 0.008,-0.19575 0.051,-0.288 0.64575,-1.37925 1.05225,-2.3895 1.5675,-3.6675 l 0.4605,-1.13775 c 0.0855,-0.21 0.2895,-0.348 0.516,-0.35025 0.2475,0.0157 0.43275,0.13275 0.522,0.342 l 0.43875,1.03425 c 1.23675,2.9235 1.91774,4.5345 5.96025,12.05625 0.0952,0.177 0.087,0.38775 -0.012,0.55425 0.0113,0.009 0.0218,0.018 0.0322,0.027 0.14476,0.11775 0.282,0.23025 0.4185,0.33525 0.0622,0.048 0.11326,0.10875 0.15075,0.17775 l 1.42801,2.6415 c 0.11999,0.22125 0.0787,0.49575 -0.102,0.67125 -0.18149,0.17625 -0.45599,0.21 -0.6735,0.084 -2.79825,-1.6155 -4.7205,-2.448 -6.42825,-2.78175 -0.1485,-0.0292 -0.27974,-0.117 -0.36225,-0.24375 -0.0832,-0.12675 -0.111,-0.282 -0.0787,-0.42975 0.0555,-0.2505 0.0877,-0.52425 0.0952,-0.813 0.0368,-1.51575 -0.66676,-2.63475 -1.32,-2.6895 -0.20476,-0.0225 -0.39976,0.0622 -0.59251,0.234 -0.46347,0.41475 -0.76496,1.24275 -0.78821,2.16075 l -0.002,0.0802 c -0.003,0.339 0.0345,0.678 0.11175,1.008 0.0345,0.14925 0.007,0.30675 -0.0765,0.435 -0.084,0.12829 -0.21672,0.21754 -0.36672,0.24529 -1.731,0.327 -3.67575,1.1625 -6.504,2.7945 -0.087,0.0518 -0.1845,0.0765 -0.2805,0.0765 z m 10.91325,-3.8445 c 1.3125,0.321 2.751,0.906 4.55175,1.857 l -0.45751,-0.8475 c -0.1125,-0.0892 -0.22724,-0.18225 -0.345,-0.279 -0.58574,-0.477 -1.24949,-1.017 -2.38499,-1.59975 -0.255,-0.13125 -0.37125,-0.43275 -0.2685,-0.70125 0.102,-0.26775 0.39075,-0.41475 0.66675,-0.34425 0.32175,0.084 0.624,0.17325 0.906,0.26925 -3.2955,-6.17625 -4.0575,-7.935 -5.13375,-10.47825 -0.438,1.08675 -0.831,2.055 -1.38,3.24975 0.4425,0.453 0.996,0.969 1.81575,1.542 0.23475,0.16425 0.309,0.47925 0.17175,0.73125 -0.13725,0.25125 -0.441,0.35925 -0.708,0.24975 -0.78075,-0.321 -1.437,-0.66375 -1.98675,-1.03725 -1.038,2.11275 -2.56275,4.9755 -4.9155,9.22725 1.81275,-0.95325 3.2625,-1.5375 4.58925,-1.85475 -0.0292,-0.237 -0.0435,-0.4755 -0.0412,-0.714 0,-0.003 0,-0.006 0,-0.01 l 0.002,-0.0855 c 0.0315,-1.23526 0.46575,-2.34601 1.16175,-2.97 0.42675,-0.3825 0.92475,-0.561 1.43775,-0.5175 1.3665,0.11475 2.39925,1.80076 2.3505,3.8385 -0.006,0.16276 -0.0157,0.32026 -0.0322,0.474 z"
       id="path2"
       style="opacity:0.7;fill:url(#linearGradient3);fill-opacity:1;stroke-width:0.749997" />
    <path
       inkscape:connector-curvature="0"
       id="fill-3"
       d="m 393.5714,509.19784 3e-5,26.355 c -0.0932,0.57145 -0.23037,0.90721 -0.644,1.24501 l 49.644,-1e-5 c 1.25773,0 2,-0.20551 2,-1.99362 v -25.50638 c 0,-0.66722 -0.33428,-1.5 -1.9,-1.5 h -47.10899 c -0.99101,0 -1.99101,0 -1.99104,1.4 z"
       style="color:#1e92ff;opacity:0.4;fill:url(#linearGradient17);fill-opacity:0.4;fill-rule:nonzero;stroke:none;stroke-width:8.11634"
       sodipodi:nodetypes="ccccccccc" />
    <rect
       x="398.57147"
       y="513.79779"
       width="18"
       height="3"
       ry="1.5"
       stroke-width="5.07132"
       style="opacity:0.8;fill:url(#linearGradient4);fill-opacity:1;paint-order:stroke markers fill"
       id="rect12-5-9-3-9-7-7-9"
       rx="1.5000117" />
    <path
       d="m 443.46966,505.807 -0.89826,-0.009 v -2.5759 c -0.002,-1.58874 -1,-3.4241 -3.371,-3.4241 h -21.84697 c -3.78203,0 -3.78203,-1 -5.08103,-2.46383 l -1.527,-2.91564 c -0.52262,-0.98802 -1.70328,-1.61594 -2.88973,-1.62053 h -18.28424 c -1.71234,0.002 -2.99827,1.41164 -3,3 l 10e-6,39.5 c 0,2.0466 1.46781,3.5 3.4,3.5 h 53.49825 c 1.71233,-0.002 3.1,-1.28887 3.10174,-2.87723 v -27.23662 c -0.002,-1.58827 -1.3895,-2.87535 -3.10174,-2.877 z m -54.89826,29.49085 v -38.5 c 7.7e-4,-0.82599 0,-2 2,-2 h 15.7 c 1,0 2.1,0 2.736,1.324 l 1.526,2.515 c 1.21959,2.31102 3.038,3.161 6.038,3.161 l 22.53,-2e-5 c 0.89087,4.4e-4 1.46876,0.69766 1.47,1.52402 v 2.48513 l -46,-0.009 c -2,0 -3,1 -3,3 v 26.49987 c -0.0453,1.95192 -2.95472,1.95192 -3,0 z m 56,-0.5 c 0,2 -1.10954,1.99931 -2,2 h -50 c 0,0 1,0.34375 1,-1.5 v -25.5 c 0,-1.38848 0,-2 2,-2 h 47 c 2,0 1.99923,1.17399 2,2 z"
       id="path6-5-2-5-1"
       style="opacity:0.7;fill:url(#linearGradient5-3)"
       sodipodi:nodetypes="cccccccccccccccccccccccccccccccccccccccc" />
    <path
       d="m 423.13365,532.79799 c -0.144,0 -0.2865,-0.0555 -0.3945,-0.16199 -0.18,-0.17701 -0.21975,-0.453 -0.0967,-0.67426 3.1515,-5.661 4.986,-9.09974 6.13574,-11.49825 0.0427,-0.0908 0.10951,-0.16649 0.1905,-0.22199 -0.008,-0.0967 0.008,-0.19575 0.051,-0.288 0.64575,-1.37926 1.05225,-2.3895 1.5675,-3.66751 l 0.4605,-1.13774 c 0.0855,-0.21001 0.2895,-0.348 0.51601,-0.35025 0.2475,0.0157 0.43275,0.13275 0.52199,0.34199 l 0.43876,1.03425 c 1.23674,2.9235 1.91774,4.5345 5.96024,12.05625 0.0952,0.177 0.087,0.38775 -0.012,0.55425 0.0113,0.009 0.0218,0.018 0.0322,0.027 0.14477,0.11776 0.282,0.23025 0.4185,0.33525 0.0622,0.048 0.11327,0.10875 0.15075,0.17775 l 1.42801,2.6415 c 0.11999,0.22125 0.0787,0.49575 -0.102,0.67125 -0.18149,0.17625 -0.45598,0.21 -0.67349,0.084 -2.79825,-1.6155 -4.72051,-2.448 -6.42825,-2.78175 -0.14851,-0.0292 -0.27974,-0.117 -0.36226,-0.24375 -0.0832,-0.12675 -0.11099,-0.28199 -0.0787,-0.42975 0.0555,-0.2505 0.0877,-0.52424 0.0952,-0.813 0.0368,-1.51575 -0.66676,-2.63475 -1.32,-2.6895 -0.20476,-0.0225 -0.39976,0.0622 -0.59251,0.234 -0.46347,0.41475 -0.76496,1.24275 -0.78821,2.16075 l -0.002,0.0802 c -0.003,0.339 0.0345,0.678 0.11175,1.008 0.0345,0.14925 0.007,0.30675 -0.0765,0.435 -0.084,0.12829 -0.21672,0.21754 -0.36672,0.24529 -1.731,0.327 -3.67575,1.1625 -6.504,2.7945 -0.087,0.0518 -0.1845,0.0765 -0.2805,0.0765 z m 10.91325,-3.8445 c 1.3125,0.32101 2.75099,0.906 4.55175,1.857 l -0.45751,-0.84749 c -0.1125,-0.0892 -0.22724,-0.18226 -0.345,-0.279 -0.58574,-0.47701 -1.24949,-1.01701 -2.385,-1.59976 -0.255,-0.13124 -0.37124,-0.43275 -0.2685,-0.70125 0.102,-0.26775 0.39075,-0.41475 0.66675,-0.34425 0.32175,0.084 0.624,0.17326 0.906,0.26926 -3.2955,-6.17625 -4.0575,-7.93501 -5.13375,-10.47826 -0.438,1.08675 -0.831,2.055 -1.38,3.24975 0.4425,0.453 0.996,0.969 1.81575,1.54201 0.23475,0.16424 0.309,0.47924 0.17175,0.73124 -0.13725,0.25125 -0.441,0.35925 -0.708,0.24976 -0.78075,-0.32101 -1.437,-0.66376 -1.98675,-1.03726 -1.038,2.11275 -2.56275,4.9755 -4.9155,9.22726 1.81275,-0.95325 3.2625,-1.53751 4.58925,-1.85476 -0.0292,-0.23699 -0.0435,-0.4755 -0.0412,-0.714 0,-0.003 0,-0.006 0,-0.01 l 0.002,-0.0855 c 0.0315,-1.23527 0.46575,-2.34601 1.16175,-2.97001 0.42675,-0.3825 0.92475,-0.561 1.43775,-0.5175 1.3665,0.11476 2.39925,1.80076 2.3505,3.8385 -0.006,0.16276 -0.0157,0.32026 -0.0322,0.474 z"
       id="path2-3"
       style="opacity:1;fill:url(#linearGradient1);fill-opacity:1;stroke-width:0.749997" />
  </g>
</svg>
