<?xml version="1.0" encoding="UTF-8" standalone="no"?>
<svg
   width="64"
   version="1.1"
   height="64"
   id="svg15"
   sodipodi:docname="folder-crash.svg"
   inkscape:version="1.3 (0e150ed6c4, 2023-07-21)"
   xmlns:inkscape="http://www.inkscape.org/namespaces/inkscape"
   xmlns:sodipodi="http://sodipodi.sourceforge.net/DTD/sodipodi-0.dtd"
   xmlns:xlink="http://www.w3.org/1999/xlink"
   xmlns="http://www.w3.org/2000/svg"
   xmlns:svg="http://www.w3.org/2000/svg"
   xmlns:rdf="http://www.w3.org/1999/02/22-rdf-syntax-ns#"
   xmlns:cc="http://creativecommons.org/ns#"
   xmlns:dc="http://purl.org/dc/elements/1.1/">
  <sodipodi:namedview
     pagecolor="#ffffff"
     bordercolor="#666666"
     borderopacity="1"
     objecttolerance="10"
     gridtolerance="10"
     guidetolerance="10"
     inkscape:pageopacity="0"
     inkscape:pageshadow="2"
     inkscape:window-width="1920"
     inkscape:window-height="994"
     id="namedview17"
     showgrid="true"
     inkscape:zoom="4.90625"
     inkscape:cx="-16.101911"
     inkscape:cy="32.509554"
     inkscape:window-x="0"
     inkscape:window-y="0"
     inkscape:window-maximized="1"
     inkscape:current-layer="layer1"
     inkscape:document-rotation="0"
     inkscape:showpageshadow="2"
     inkscape:pagecheckerboard="0"
     inkscape:deskcolor="#d1d1d1">
    <inkscape:grid
       type="xygrid"
       id="grid1384"
       originx="0"
       originy="0"
       spacingy="1"
       spacingx="1"
       units="px"
       visible="true" />
  </sodipodi:namedview>
  <defs
     id="defs5455">
    <linearGradient
       inkscape:collect="always"
       id="linearGradient2">
      <stop
         style="stop-color:#ff5555;stop-opacity:1"
         offset="0"
         id="stop1" />
      <stop
         style="stop-color:#c83771;stop-opacity:1"
         offset="0.57311165"
         id="stop3" />
      <stop
         style="stop-color:#de8787;stop-opacity:1"
         offset="1"
         id="stop2" />
    </linearGradient>
    <clipPath
       clipPathUnits="userSpaceOnUse"
       id="clipPath79425-9-5-3">
      <rect
         style="opacity:0.5;fill:#000000;fill-opacity:1;stroke:none;stroke-width:0.855869;stroke-dasharray:none;stroke-opacity:1;paint-order:stroke fill markers"
         id="rect79427-1-9-6"
         width="26.417742"
         height="29.037542"
         x="-16.227774"
         y="-6.4845476" />
    </clipPath>
    <clipPath
       clipPathUnits="userSpaceOnUse"
       id="clipPath79425-9-5-5">
      <rect
         style="opacity:0.5;fill:#000000;fill-opacity:1;stroke:none;stroke-width:0.855869;stroke-dasharray:none;stroke-opacity:1;paint-order:stroke fill markers"
         id="rect79427-1-9-62"
         width="26.417742"
         height="29.037542"
         x="-16.227774"
         y="-6.4845476" />
    </clipPath>
    <linearGradient
       inkscape:collect="always"
       xlink:href="#linearGradient2"
       id="linearGradient17"
       x1="392.57144"
       y1="536.79797"
       x2="444.57144"
       y2="507.798"
       gradientUnits="userSpaceOnUse"
       gradientTransform="translate(0,-1.6e-4)" />
    <linearGradient
       inkscape:collect="always"
       xlink:href="#linearGradient2"
       id="linearGradient4"
       gradientUnits="userSpaceOnUse"
       gradientTransform="translate(0.999947,4.023174)"
       x1="397.57144"
       y1="511.27505"
       x2="415.57144"
       y2="511.27505" />
    <linearGradient
       inkscape:collect="always"
       xlink:href="#linearGradient2"
       id="linearGradient5"
       gradientUnits="userSpaceOnUse"
       gradientTransform="translate(-4e-5,-1.49e-4)"
       x1="386.38025"
       y1="541.81329"
       x2="439.20044"
       y2="499.79816" />
    <linearGradient
       inkscape:collect="always"
       xlink:href="#linearGradient2"
       id="linearGradient6"
       x1="420.57095"
       y1="523.79797"
       x2="438.57095"
       y2="523.79797"
       gradientUnits="userSpaceOnUse" />
    <linearGradient
       inkscape:collect="always"
       xlink:href="#linearGradient2"
       id="linearGradient7"
       x1="424.92825"
       y1="520.34058"
       x2="427.17819"
       y2="520.34058"
       gradientUnits="userSpaceOnUse" />
    <linearGradient
       inkscape:collect="always"
       xlink:href="#linearGradient2"
       id="linearGradient8"
       x1="428.34158"
       y1="522.57117"
       x2="430.59152"
       y2="522.57117"
       gradientUnits="userSpaceOnUse" />
    <linearGradient
       inkscape:collect="always"
       xlink:href="#linearGradient2"
       id="linearGradient10"
       x1="424.64737"
       y1="527.09021"
       x2="426.89731"
       y2="527.09021"
       gradientUnits="userSpaceOnUse" />
    <linearGradient
       inkscape:collect="always"
       xlink:href="#linearGradient2"
       id="linearGradient11"
       x1="432.03561"
       y1="527.09021"
       x2="434.28555"
       y2="527.09021"
       gradientUnits="userSpaceOnUse" />
    <linearGradient
       inkscape:collect="always"
       xlink:href="#linearGradient2"
       id="linearGradient12"
       x1="427.04764"
       y1="525.89075"
       x2="429.29758"
       y2="525.89075"
       gradientUnits="userSpaceOnUse" />
    <linearGradient
       inkscape:collect="always"
       xlink:href="#linearGradient2"
       id="linearGradient13"
       x1="429.63568"
       y1="525.89075"
       x2="431.88562"
       y2="525.89075"
       gradientUnits="userSpaceOnUse" />
    <linearGradient
       inkscape:collect="always"
       xlink:href="#linearGradient2"
       id="linearGradient14"
       x1="431.67844"
       y1="520.34058"
       x2="433.92838"
       y2="520.34058"
       gradientUnits="userSpaceOnUse" />
  </defs>
  <metadata
     id="metadata5458">
    <rdf:RDF>
      <cc:Work
         rdf:about="">
        <dc:format>image/svg+xml</dc:format>
        <dc:type
           rdf:resource="http://purl.org/dc/dcmitype/StillImage" />
      </cc:Work>
    </rdf:RDF>
  </metadata>
  <g
     inkscape:label="Capa 1"
     inkscape:groupmode="layer"
     id="layer1"
     transform="translate(-384.57143,-483.798)">
    <path
       inkscape:connector-curvature="0"
       id="fill-3"
       d="m 393.5714,509.19784 3e-5,26.355 c -0.0932,0.57145 -0.23037,0.90721 -0.644,1.24501 l 49.644,-1e-5 c 1.25773,0 2,-0.20551 2,-1.99362 v -25.50638 c 0,-0.66722 -0.33428,-1.5 -1.9,-1.5 h -47.10899 c -0.99101,0 -1.99101,0 -1.99104,1.4 z"
       style="color:#1e92ff;opacity:0.4;fill:url(#linearGradient17);fill-opacity:0.4;fill-rule:nonzero;stroke:none;stroke-width:8.11634"
       sodipodi:nodetypes="ccccccccc" />
    <rect
       x="398.57138"
       y="513.79816"
       width="18"
       height="3"
       ry="1.5"
       stroke-width="5.07132"
       style="opacity:0.8;fill:url(#linearGradient4);fill-opacity:1;paint-order:stroke markers fill"
       id="rect12-5-9-3-9-7-7-9"
       rx="1.5000117" />
    <path
       d="m 443.46966,505.807 -0.89826,-0.009 v -2.5759 c -0.002,-1.58874 -1,-3.4241 -3.371,-3.4241 h -21.84697 c -3.78203,0 -3.78203,-1 -5.08103,-2.46383 l -1.527,-2.91564 c -0.52262,-0.98802 -1.70328,-1.61594 -2.88973,-1.62053 h -18.28424 c -1.71234,0.002 -2.99827,1.41164 -3,3 l 10e-6,39.5 c 0,2.0466 1.46781,3.5 3.4,3.5 h 53.49825 c 1.71233,-0.002 3.1,-1.28887 3.10174,-2.87723 v -27.23662 c -0.002,-1.58827 -1.3895,-2.87535 -3.10174,-2.877 z m -54.89826,29.49085 v -38.5 c 7.7e-4,-0.82599 0,-2 2,-2 h 15.7 c 1,0 2.1,0 2.736,1.324 l 1.526,2.515 c 1.21959,2.31102 3.038,3.161 6.038,3.161 l 22.53,-2e-5 c 0.89087,4.4e-4 1.46876,0.69766 1.47,1.52402 v 2.48513 l -46,-0.009 c -2,0 -3,1 -3,3 v 26.49987 c -0.0453,1.95192 -2.95472,1.95192 -3,0 z m 56,-0.5 c 0,2 -1.10954,1.99931 -2,2 h -50 c 0,0 1,0.34375 1,-1.5 v -25.5 c 0,-1.38848 0,-2 2,-2 h 47 c 2,0 1.99923,1.17399 2,2 z"
       id="path6-5-2-5-1"
       style="fill:url(#linearGradient5)"
       sodipodi:nodetypes="cccccccccccccccccccccccccccccccccccccccc" />
    <path
       fill-rule="evenodd"
       clip-rule="evenodd"
       d="m 436.00016,532.798 h -9.6435 c -0.35454,0 -0.64225,-0.28848 -0.64225,-0.64285 0,-0.35535 0.28771,-0.64318 0.64225,-0.64318 h 9.6435 c 0.71001,0 1.28571,-0.57569 1.28571,-1.28574 V 517.3691 c 0,-0.71003 -0.5757,-1.28538 -1.28571,-1.28538 h -12.85745 c -0.70989,0 -1.28591,0.57535 -1.28591,1.28538 v 12.2143 c 0,0.35527 -0.28751,0.64283 -0.64285,0.64283 -0.35472,0 -0.64301,-0.28756 -0.64301,-0.64283 v -12.2143 c 0,-1.42007 1.15183,-2.5711 2.57177,-2.5711 h 12.85744 c 1.41976,0 2.57079,1.15103 2.57079,2.5711 v 12.85713 c 0,1.42007 -1.15103,2.57177 -2.57078,2.57177 z m -12.21445,-1.28603 c 0.35453,0 0.64285,0.28783 0.64285,0.64318 0,0.35437 -0.28832,0.64285 -0.64285,0.64285 -0.35534,0 -0.643,-0.28848 -0.643,-0.64285 0,-0.35535 0.28765,-0.64318 0.643,-0.64318 z"
       id="path2-0-1-4"
       style="fill:url(#linearGradient6);fill-opacity:1;stroke-width:0.0401785" />
    <rect
       x="424.92825"
       y="519.21558"
       width="2.249933"
       height="2.2499382"
       id="rect6-6-2-5"
       style="fill:url(#linearGradient7);fill-opacity:1;stroke-width:0.190028" />
    <rect
       x="428.34158"
       y="521.44617"
       width="2.249933"
       height="2.2499382"
       id="rect8-3-7-0"
       style="fill:url(#linearGradient8);fill-opacity:1;stroke-width:0.190028" />
    <rect
       x="424.64737"
       y="525.96527"
       width="2.249933"
       height="2.2499382"
       id="rect10-2-0-3"
       style="fill:url(#linearGradient10);fill-opacity:1;stroke-width:0.190028" />
    <rect
       x="432.03561"
       y="525.96527"
       width="2.249933"
       height="2.2499382"
       id="rect12-0-9-6"
       style="fill:url(#linearGradient11);fill-opacity:1;stroke-width:0.190028" />
    <rect
       x="427.04764"
       y="524.76575"
       width="2.249933"
       height="2.2499382"
       id="rect14-6-3-1"
       style="fill:url(#linearGradient12);fill-opacity:1;stroke-width:0.190028" />
    <rect
       x="429.63568"
       y="524.76575"
       width="2.249933"
       height="2.2499382"
       id="rect16-1-6-0"
       style="fill:url(#linearGradient13);fill-opacity:1;stroke-width:0.190028" />
    <rect
       x="431.67844"
       y="519.21558"
       width="2.249933"
       height="2.2499382"
       id="rect18-5-0-6"
       style="fill:url(#linearGradient14);fill-opacity:1;stroke-width:0.190028" />
  </g>
</svg>
