<?xml version="1.0" encoding="UTF-8" standalone="no"?>
<svg
   width="64"
   version="1.1"
   height="64"
   id="svg17"
   sodipodi:docname="folder-images.svg"
   inkscape:version="1.3 (0e150ed6c4, 2023-07-21)"
   xmlns:inkscape="http://www.inkscape.org/namespaces/inkscape"
   xmlns:sodipodi="http://sodipodi.sourceforge.net/DTD/sodipodi-0.dtd"
   xmlns:xlink="http://www.w3.org/1999/xlink"
   xmlns="http://www.w3.org/2000/svg"
   xmlns:svg="http://www.w3.org/2000/svg"
   xmlns:rdf="http://www.w3.org/1999/02/22-rdf-syntax-ns#"
   xmlns:cc="http://creativecommons.org/ns#"
   xmlns:dc="http://purl.org/dc/elements/1.1/">
  <sodipodi:namedview
     pagecolor="#ffffff"
     bordercolor="#666666"
     borderopacity="1"
     objecttolerance="10"
     gridtolerance="10"
     guidetolerance="10"
     inkscape:pageopacity="0"
     inkscape:pageshadow="2"
     inkscape:window-width="1920"
     inkscape:window-height="994"
     id="namedview19"
     showgrid="true"
     inkscape:zoom="9.8125"
     inkscape:cx="39.541401"
     inkscape:cy="39.898089"
     inkscape:window-x="0"
     inkscape:window-y="0"
     inkscape:window-maximized="1"
     inkscape:current-layer="layer1"
     inkscape:document-rotation="0"
     inkscape:showpageshadow="2"
     inkscape:pagecheckerboard="0"
     inkscape:deskcolor="#d1d1d1"
     showguides="false">
    <inkscape:grid
       type="xygrid"
       id="grid874"
       originx="0"
       originy="0"
       spacingy="1"
       spacingx="1"
       units="px"
       visible="true" />
  </sodipodi:namedview>
  <defs
     id="defs5455">
    <linearGradient
       id="linearGradient7"
       inkscape:collect="always">
      <stop
         style="stop-color:#0066ff;stop-opacity:1"
         offset="0"
         id="stop4" />
      <stop
         style="stop-color:#9d7ed5;stop-opacity:1"
         offset="0.48888862"
         id="stop5" />
      <stop
         style="stop-color:#dc5297;stop-opacity:1;"
         offset="1"
         id="stop6" />
    </linearGradient>
    <linearGradient
       inkscape:collect="always"
       xlink:href="#linearGradient2303"
       id="linearGradient1419"
       x1="0.52915627"
       y1="5.0269842"
       x2="16.403845"
       y2="5.0269842"
       gradientUnits="userSpaceOnUse"
       gradientTransform="matrix(3.779602,0,0,3.8662747,318.56279,416.19989)" />
    <clipPath
       clipPathUnits="userSpaceOnUse"
       id="clipPath79425-9-5-3">
      <rect
         style="opacity:0.5;fill:#000000;fill-opacity:1;stroke:none;stroke-width:0.855869;stroke-dasharray:none;stroke-opacity:1;paint-order:stroke fill markers"
         id="rect79427-1-9-6"
         width="26.417742"
         height="29.037542"
         x="-16.227774"
         y="-6.4845476" />
    </clipPath>
    <filter
       inkscape:collect="always"
       style="color-interpolation-filters:sRGB"
       id="filter77953-2-4-7"
       x="-0.040508607"
       y="-0.067265661"
       width="1.0810172"
       height="1.1345313">
      <feGaussianBlur
         inkscape:collect="always"
         stdDeviation="0.44602907"
         id="feGaussianBlur77955-7-9-5" />
    </filter>
    <clipPath
       clipPathUnits="userSpaceOnUse"
       id="clipPath79425-9-5-5">
      <rect
         style="opacity:0.5;fill:#000000;fill-opacity:1;stroke:none;stroke-width:0.855869;stroke-dasharray:none;stroke-opacity:1;paint-order:stroke fill markers"
         id="rect79427-1-9-62"
         width="26.417742"
         height="29.037542"
         x="-16.227774"
         y="-6.4845476" />
    </clipPath>
    <filter
       inkscape:collect="always"
       style="color-interpolation-filters:sRGB"
       id="filter77953-2-4-9"
       x="-0.040520865"
       y="-0.064907304"
       width="1.0810417"
       height="1.1298146">
      <feGaussianBlur
         inkscape:collect="always"
         stdDeviation="0.44602907"
         id="feGaussianBlur77955-7-9-1" />
    </filter>
    <linearGradient
       inkscape:collect="always"
       xlink:href="#linearGradient2303"
       id="linearGradient1662"
       gradientUnits="userSpaceOnUse"
       gradientTransform="matrix(3.7757185,0,0,3.9032702,318.56792,415.59311)"
       x1="9.3259869"
       y1="14.831515"
       x2="9.3259869"
       y2="4.269978" />
    <linearGradient
       inkscape:collect="always"
       id="linearGradient2303">
      <stop
         style="stop-color:#a78bda;stop-opacity:1;"
         offset="0"
         id="stop2299" />
      <stop
         style="stop-color:#ffe680;stop-opacity:1"
         offset="1"
         id="stop2301" />
    </linearGradient>
    <linearGradient
       inkscape:collect="always"
       xlink:href="#linearGradient7"
       id="linearGradient17"
       x1="392.57144"
       y1="536.79797"
       x2="444.57144"
       y2="507.798"
       gradientUnits="userSpaceOnUse"
       gradientTransform="translate(-0.10003,-1.5e-4)" />
    <linearGradient
       inkscape:collect="always"
       xlink:href="#linearGradient7"
       id="linearGradient4"
       gradientUnits="userSpaceOnUse"
       gradientTransform="translate(0.999942,4.023174)"
       x1="397.57144"
       y1="511.27505"
       x2="415.57144"
       y2="511.27505" />
    <linearGradient
       inkscape:collect="always"
       xlink:href="#linearGradient7"
       id="linearGradient5"
       gradientUnits="userSpaceOnUse"
       gradientTransform="translate(-4.5e-5,-1.49e-4)"
       x1="387.57144"
       y1="537.79797"
       x2="445.57144"
       y2="492.798" />
    <linearGradient
       inkscape:collect="always"
       xlink:href="#linearGradient7"
       id="linearGradient2"
       x1="426.12186"
       y1="525.37207"
       x2="430.36826"
       y2="525.37207"
       gradientUnits="userSpaceOnUse" />
    <linearGradient
       inkscape:collect="always"
       xlink:href="#linearGradient7"
       id="linearGradient3"
       x1="420.87143"
       y1="523.79797"
       x2="440.57144"
       y2="523.79797"
       gradientUnits="userSpaceOnUse" />
  </defs>
  <metadata
     id="metadata5458">
    <rdf:RDF>
      <cc:Work
         rdf:about="">
        <dc:format>image/svg+xml</dc:format>
        <dc:type
           rdf:resource="http://purl.org/dc/dcmitype/StillImage" />
      </cc:Work>
    </rdf:RDF>
  </metadata>
  <g
     inkscape:label="Capa 1"
     inkscape:groupmode="layer"
     id="layer1"
     transform="translate(-384.57143,-483.798)">
    <path
       id="path32082-9"
       style="fill:url(#linearGradient1419);fill-opacity:1;stroke:none;stroke-width:5.11694;stroke-linecap:round;stroke-linejoin:round;stroke-opacity:0.03"
       d="m 327.56279,429.498 c -4,0 -7,3.06879 -7,7.16052 v 5.11466 c 0,0 2,-5.11466 5,-5.11466 h 8 12 6 24 c 3,0 5,2.04586 5,5.11466 v 0 0 -5.11466 c 0,-4.09173 -3,-7.16052 -7,-7.16052 h -24.07114 -5.92886 -9 z"
       sodipodi:nodetypes="sccsccccccccccccs" />
    <rect
       x="344.56271"
       y="430.5209"
       width="12"
       height="2.0458624"
       ry="1.0248643"
       stroke-width="3.41941"
       style="fill:#222638;fill-opacity:1;paint-order:stroke markers fill"
       id="rect12-5-9-3-9"
       rx="1.0248643" />
    <path
       d="m 352.29612,433.58973 h -3.46666 -4.33334 -16.93333 c -2,0 -3,1.02292 -3,3.06879 v 0 0 h 52 v 0 0 c 0,-2.04587 -1,-3.06879 -3,-3.06879 z"
       style="fill:#222638;fill-opacity:1;stroke-width:2.33915;paint-order:markers stroke fill"
       id="path8-7-2-9-6-1-7-5"
       sodipodi:nodetypes="cccccccccccc"
       opacity="0.6" />
    <path
       style="display:inline;fill:#ffffff;fill-opacity:1;stroke:none;stroke-width:2.77827;stroke-linecap:round;stroke-linejoin:round;stroke-opacity:0.03;filter:url(#filter77953-2-4-7)"
       d="m -14.025629,3.0793846 h 6.1660045 4.8447182 3.08300239 7.92771991 c 1.3212868,0 2.202145,0.9435823 2.202145,2.3589558 l -0.0082,11.1961006 c 0.0082,1.415373 -1.496833,2.225381 -2.6343739,2.232069 L -14.02563,18.993397 c -1.321286,0.0078 -2.202145,-0.943583 -2.202145,-2.358956 l 1e-6,-11.3229881 c -1e-6,-1.288486 0.882451,-2.2155179 2.202145,-2.2320683 z"
       id="path1611-1-8-0-7-3"
       clip-path="url(#clipPath79425-9-5-3)"
       transform="matrix(2.270514,0,0,2.1681872,357.40818,429.98184)"
       sodipodi:nodetypes="cccccccssccc" />
    <path
       style="display:inline;fill:#4f4f4f;fill-opacity:1;stroke:none;stroke-width:2.77827;stroke-linecap:round;stroke-linejoin:round;stroke-opacity:0.03;filter:url(#filter77953-2-4-9)"
       d="m -14.026297,2.5011118 6.1666725,0.1211316 H -3.014907 0.06809547 L 7.9884881,2.5011118 C 9.3097749,2.5157128 10.189967,3.444358 10.189967,4.874457 l -2.06e-4,11.759984 c 0.0082,1.415373 -0.872618,2.358956 -2.6343739,2.358956 H -14.02563 c -1.321306,0 -2.202145,-0.943583 -2.202145,-2.358956 V 4.874457 c 0,-1.4240071 0.880591,-2.3733452 2.201478,-2.3733452 z"
       id="path1611-1-8-0-7-2"
       clip-path="url(#clipPath79425-9-5-5)"
       transform="matrix(2.271201,0,0,2.155042,357.41933,431.26852)"
       sodipodi:nodetypes="cccccccssccc" />
    <path
       d="m 352.56279,436.65852 h -4 -5 -18 c -3,0 -4.99999,2.04587 -4.99999,5.11466 v 26.59622 c 0,3.06876 1.99999,5.11463 4.99999,5.11463 h 49.99999 c 3,0 5,-2.04587 5,-5.11463 v -26.59622 c 0,-3.06879 -2,-5.11466 -5,-5.11466 z"
       style="fill:url(#linearGradient1662);fill-opacity:1;stroke-width:3.83803;paint-order:markers stroke fill"
       id="path8-7-2-9-6-1-9"
       sodipodi:nodetypes="ccccsssssscc"
       opacity="0.6" />
    <path
       d="m 320.56279,454.448 17.1,19 h -10e-6 0.65001 l -17.75,-19.65 v 0 0 z"
       id="path2653-4"
       style="fill:#bac8df;fill-opacity:1;stroke-width:0.48092"
       sodipodi:nodetypes="cccccccc" />
    <path
       d="m 320.56279,460.49794 11.48548,12.98879 -10e-6,0.0113 0.64953,-0.006 v 0.006 l -12.12986,-13.65007 v 0 0 z"
       id="path2653-4-3"
       style="fill:#bac8df;fill-opacity:1;stroke-width:0.330034"
       sodipodi:nodetypes="ccccccccc" />
    <path
       d="m 371.87293,448.93815 h -5.24615 l -0.90219,-2.00131 a 1.5833511,1.6187239 0 0 0 -1.43417,-0.93884 h -3.51283 a 1.583443,1.6188179 0 0 0 -1.43418,0.93867 l -0.90205,2.00148 h -0.43071 a 2.9222208,2.9875046 0 0 0 -2.91886,2.98407 v 9.0916 a 2.9223121,2.9875987 0 0 0 2.91886,2.98418 h 13.86228 a 2.9223121,2.9875987 0 0 0 2.91886,-2.98418 v -9.0916 a 2.9222208,2.9875046 0 0 0 -2.91886,-2.98407 z m -11.53548,-1.53323 a 0.48601012,0.49686793 0 0 1 0.44013,-0.288 h 3.51284 a 0.48593359,0.49678962 0 0 1 0.44013,0.28812 l 0.69111,1.53311 h -5.77533 z m 13.35993,13.6089 a 1.8265804,1.8673876 0 0 1 -1.82445,1.8653 h -13.86228 a 1.8265804,1.8673876 0 0 1 -1.82445,-1.8653 v -9.0916 a 1.8265565,1.8673624 0 0 1 1.82445,-1.86517 h 13.86228 a 1.8265565,1.8673624 0 0 1 1.82445,1.86517 z m -11.16337,-9.10469 a 4.4592767,4.5588992 0 1 0 4.45921,4.55898 4.4643068,4.5640421 0 0 0 -4.45921,-4.55899 z m 0,7.99889 a 3.364832,3.440004 0 1 1 3.36478,-3.43991 3.3685518,3.4438082 0 0 1 -3.36478,3.4399 z m 9.4122,-7.70366 a 0.54718091,0.5594053 0 0 1 -0.54719,0.55946 h -2.84561 a 0.54722408,0.55944937 0 0 1 0,-1.11887 h 2.84561 a 0.54718091,0.5594053 0 0 1 0.54719,0.55941 z"
       id="path4-1-2"
       style="fill:#d8f0f3;fill-opacity:1;stroke-width:0.221325" />
    <path
       d="m 362.46544,458.74272 c 1.16007,0 2.12318,-0.96225 2.12318,-2.17056 0,-1.20847 -0.94119,-2.17077 -2.12318,-2.17077 -1.18202,0 -2.12321,0.9623 -2.12321,2.17077 0,1.20831 0.96312,2.17056 2.12321,2.17056 z m 0,-3.20004 c 0.54716,0 1.00687,0.46994 1.00687,1.02948 0,0.55934 -0.45971,1.02929 -1.00687,1.02929 -0.54717,0 -1.00686,-0.46995 -1.00686,-1.02929 0,-0.55954 0.45969,-1.02948 1.00686,-1.02948 z"
       id="path4-3-3-0-7"
       style="fill:#d8f0f3;fill-opacity:1;stroke-width:0.221325" />
    <path
       inkscape:connector-curvature="0"
       id="fill-3"
       d="m 393.47136,509.19785 3e-5,26.355 c -0.0932,0.57145 -0.23037,0.90721 -0.644,1.24501 l 49.644,-10e-6 c 1.25773,0 2,-0.20551 2,-1.99362 v -25.50638 c 0,-0.66722 -0.33428,-1.5 -1.9,-1.5 H 395.4624 c -0.99101,0 -1.99101,0 -1.99104,1.4 z"
       style="color:#1e92ff;opacity:0.22;fill:url(#linearGradient17);fill-rule:nonzero;stroke:none;stroke-width:8.11634"
       sodipodi:nodetypes="ccccccccc" />
    <rect
       x="398.57147"
       y="513.79779"
       width="18"
       height="3"
       ry="1.5"
       stroke-width="5.07132"
       style="opacity:0.8;fill:url(#linearGradient4);fill-opacity:1;paint-order:stroke markers fill"
       id="rect12-5-9-3-9-7-7-9"
       rx="1.5000117" />
    <path
       d="m 443.46965,505.807 -0.89826,-0.009 v -2.5759 c -0.002,-1.58874 -1,-3.4241 -3.371,-3.4241 h -21.84697 c -3.78203,0 -3.78203,-1 -5.08102,-2.46383 l -1.527,-2.91564 c -0.52263,-0.98802 -1.70328,-1.61594 -2.88973,-1.62053 h -18.28424 c -1.71234,0.002 -2.99827,1.41164 -3,3 v 39.5 c 0,2.0466 1.46781,3.5 3.4,3.5 h 53.49825 c 1.71233,-0.002 3.1,-1.28887 3.10174,-2.87723 v -27.23662 c -0.002,-1.58827 -1.3895,-2.87535 -3.10174,-2.877 z m -54.89826,29.49085 v -38.5 c 7.7e-4,-0.82599 0,-2 2,-2 h 15.7 c 1,0 2.1,0 2.736,1.324 l 1.526,2.515 c 1.21959,2.31102 3.038,3.161 6.038,3.161 l 22.53001,-2e-5 c 0.89087,4.4e-4 1.46875,0.69766 1.47,1.52402 v 2.48513 l -46,-0.009 c -2,0 -3,1 -3,3 v 26.49987 c -0.0453,1.95192 -2.95472,1.95192 -3.00001,0 z m 56,-0.5 c 0,2 -1.10954,1.99931 -2,2 h -50 c 0,0 1,0.34375 1,-1.5 v -25.5 c 0,-1.38848 0,-2 2,-2 h 47 c 2,0 1.99923,1.17399 2,2 z"
       id="path6-5-2-5-1"
       style="opacity:0.7;fill:url(#linearGradient5)"
       sodipodi:nodetypes="cccccccccccccccccccccccccccccccccccccccc" />
    <path
       d="m 437.65257,517.73815 h -5.24615 l -0.90219,-2.00131 a 1.5833511,1.6187239 0 0 0 -1.43417,-0.93884 h -3.51283 a 1.583443,1.6188179 0 0 0 -1.43418,0.93867 l -0.90205,2.00148 h -0.43071 a 2.9222208,2.9875046 0 0 0 -2.91886,2.98407 v 9.0916 a 2.9223121,2.9875987 0 0 0 2.91886,2.98418 h 13.86228 a 2.9223121,2.9875987 0 0 0 2.91886,-2.98418 v -9.0916 a 2.9222208,2.9875046 0 0 0 -2.91886,-2.98407 z m -11.53548,-1.53323 a 0.48601012,0.49686793 0 0 1 0.44013,-0.288 h 3.51284 a 0.48593359,0.49678962 0 0 1 0.44013,0.28812 l 0.69111,1.53311 h -5.77533 z m 13.35993,13.6089 a 1.8265804,1.8673876 0 0 1 -1.82445,1.8653 h -13.86228 a 1.8265804,1.8673876 0 0 1 -1.82445,-1.8653 v -9.0916 a 1.8265565,1.8673624 0 0 1 1.82445,-1.86517 h 13.86228 a 1.8265565,1.8673624 0 0 1 1.82445,1.86517 z m -11.16337,-9.10469 a 4.4592767,4.5588992 0 1 0 4.45921,4.55898 4.4643068,4.5640421 0 0 0 -4.45921,-4.55899 z m 0,7.99889 a 3.364832,3.440004 0 1 1 3.36478,-3.43991 3.3685518,3.4438082 0 0 1 -3.36478,3.4399 z m 9.4122,-7.70366 a 0.54718091,0.5594053 0 0 1 -0.54719,0.55946 h -2.84561 a 0.54722408,0.55944937 0 0 1 0,-1.11887 h 2.84561 a 0.54718091,0.5594053 0 0 1 0.54719,0.55941 z"
       id="path4-1-2-5"
       style="fill:url(#linearGradient3);fill-opacity:1;stroke-width:0.221325" />
    <path
       d="m 428.24508,527.54272 c 1.16007,0 2.12318,-0.96225 2.12318,-2.17056 0,-1.20847 -0.94119,-2.17077 -2.12318,-2.17077 -1.18202,0 -2.12321,0.9623 -2.12321,2.17077 0,1.20831 0.96312,2.17056 2.12321,2.17056 z m 0,-3.20004 c 0.54716,0 1.00687,0.46994 1.00687,1.02948 0,0.55934 -0.45971,1.02929 -1.00687,1.02929 -0.54717,0 -1.00686,-0.46995 -1.00686,-1.02929 0,-0.55954 0.45969,-1.02948 1.00686,-1.02948 z"
       id="path4-3-3-0-7-4"
       style="fill:url(#linearGradient2);fill-opacity:1;stroke-width:0.221325" />
  </g>
</svg>
