<?xml version="1.0" encoding="UTF-8" standalone="no"?>
<svg
   id="svg2"
   version="1.1"
   viewBox="0 0 26 26"
   sodipodi:docname="checkmarks.svg"
   width="26"
   height="26"
   inkscape:version="1.3.2 (091e20ef0f, 2023-11-25)"
   xmlns:inkscape="http://www.inkscape.org/namespaces/inkscape"
   xmlns:sodipodi="http://sodipodi.sourceforge.net/DTD/sodipodi-0.dtd"
   xmlns="http://www.w3.org/2000/svg"
   xmlns:svg="http://www.w3.org/2000/svg">
  <defs
     id="defs41" />
  <sodipodi:namedview
     id="namedview39"
     pagecolor="#280b17"
     bordercolor="#000000"
     borderopacity="1"
     inkscape:pageshadow="2"
     inkscape:pageopacity="1"
     inkscape:pagecheckerboard="true"
     showgrid="true"
     height="32px"
     inkscape:current-layer="svg2"
     inkscape:zoom="6.9384858"
     inkscape:cx="18.447829"
     inkscape:cy="33.724938"
     inkscape:window-width="1920"
     inkscape:window-height="994"
     inkscape:window-x="0"
     inkscape:window-y="0"
     inkscape:window-maximized="1"
     showguides="true"
     inkscape:lockguides="true"
     inkscape:showpageshadow="true"
     inkscape:deskcolor="#280b17">
    <inkscape:grid
       type="xygrid"
       id="grid965"
       originx="-2"
       originy="-2.0000001"
       spacingy="1"
       spacingx="1"
       units="px"
       visible="true" />
  </sodipodi:namedview>
  <style
     id="current-color-scheme"
     type="text/css">.ColorScheme-Text { color:#d1d5e9; }
.ColorScheme-Highlight { color:#565d8a; }
</style>
  <g
     id="g2181"
     transform="translate(-2,-2.0000001)" />
  <g
     id="g2187"
     transform="translate(-2,-2.0000001)" />
  <g
     id="checkbox"
     transform="translate(26.720602,22.301138)">
    <rect
       x="-26.720602"
       y="-22.301138"
       width="26"
       height="26"
       ry="13"
       style="fill:#3a6ab0;fill-opacity:1;stroke-width:1.625"
       id="rect1257-3"
       rx="13" />
    <rect
       x="-25.095633"
       y="-20.676134"
       width="22.749998"
       height="22.749998"
       ry="11.374999"
       style="fill:#3b445e;fill-opacity:1;stroke-width:1.625"
       id="rect1259-3-6"
       rx="11.374999" />
    <path
       d="m -6.4422705,-16.610722 c -0.524844,0.01718 -1.076462,0.237878 -1.488903,0.648214 l -8.9330575,8.890719 -2.977705,-2.963461 c -0.824837,-0.821016 -2.100849,-0.872739 -2.884662,-0.09311 l -0.186091,0.1852171 c -0.783819,0.7800001 -0.731775,2.0498399 0.0934,2.8708548 l 4.140835,4.0749135 c 0.0726,0.1113045 0.134758,0.1804401 0.232623,0.2778581 l 0.18613,0.1858681 c 0.07462,0.067923 0.152455,0.1316259 0.232608,0.1850559 0.01992,0.017069 0.0261,0.034297 0.0467,0.046631 0.09969,0.065169 0.219604,0.093103 0.325697,0.1379653 0.09321,0.037378 0.181955,0.069536 0.279195,0.091497 0.0338,0.018697 0.05941,0.038503 0.0934,0.046631 0.257187,0.048269 0.529391,0.05102 0.790967,0 0.0494,-0.017069 0.0912,-0.034297 0.139971,-0.046631 0.353353,-0.0949 0.694558,-0.2746251 0.977046,-0.5555547 l 0.0934,-0.093103 c 0.0979,-0.097329 0.16005,-0.1664809 0.232591,-0.277843 L -4.9518745,-13.001004 c 0.824833,-0.820727 0.876873,-2.090747 0.0934,-2.871005 l -0.186133,-0.18512 c -0.391887,-0.389951 -0.870925,-0.568977 -1.395761,-0.555806 z"
       style="fill:#d3dae3;fill-opacity:1;stroke-width:1.55239"
       id="path1264-6-7"
       inkscape:connector-curvature="0" />
  </g>
  <g
     id="radiobutton"
     transform="translate(-66.839293,20.781461)">
    <rect
       style="fill:#3b445e;fill-opacity:1;stroke:#3a6ab0;stroke-width:1.85718;stroke-linejoin:round;stroke-opacity:1"
       width="24.142817"
       height="24.14282"
       x="67.767883"
       y="12.147129"
       rx="11.692961"
       ry="11.916672"
       id="rect1673-5" />
    <rect
       style="fill:#d3dae3;fill-opacity:1;stroke-width:2.63218"
       width="10.521537"
       height="10.535516"
       x="74.534653"
       y="18.979151"
       rx="5.2581363"
       ry="5.2677574"
       id="rect1657-3" />
  </g>
</svg>
