<?xml version="1.0" encoding="UTF-8" standalone="no"?>
<svg
   inkscape:version="1.3.2 (091e20ef0f, 2023-11-25)"
   sodipodi:docname="tabbar.svg"
   id="svg112"
   version="1.1"
   height="136"
   width="120"
   xmlns:inkscape="http://www.inkscape.org/namespaces/inkscape"
   xmlns:sodipodi="http://sodipodi.sourceforge.net/DTD/sodipodi-0.dtd"
   xmlns:xlink="http://www.w3.org/1999/xlink"
   xmlns="http://www.w3.org/2000/svg"
   xmlns:svg="http://www.w3.org/2000/svg"
   xmlns:rdf="http://www.w3.org/1999/02/22-rdf-syntax-ns#"
   xmlns:cc="http://creativecommons.org/ns#"
   xmlns:dc="http://purl.org/dc/elements/1.1/">
  <metadata
     id="metadata116">
    <rdf:RDF>
      <cc:Work
         rdf:about="">
        <dc:format>image/svg+xml</dc:format>
        <dc:type
           rdf:resource="http://purl.org/dc/dcmitype/StillImage" />
      </cc:Work>
    </rdf:RDF>
  </metadata>
  <sodipodi:namedview
     inkscape:document-rotation="0"
     inkscape:bbox-nodes="true"
     inkscape:snap-bbox-edge-midpoints="true"
     inkscape:snap-bbox="true"
     inkscape:current-layer="svg112"
     inkscape:window-maximized="1"
     inkscape:window-y="0"
     inkscape:window-x="0"
     inkscape:cy="98.641393"
     inkscape:cx="54.800774"
     inkscape:zoom="2.8284272"
     inkscape:guide-bbox="true"
     showguides="true"
     showgrid="true"
     id="namedview114"
     inkscape:window-height="992"
     inkscape:window-width="1920"
     inkscape:pageshadow="2"
     inkscape:pageopacity="1"
     guidetolerance="10"
     gridtolerance="10"
     objecttolerance="10"
     borderopacity="1"
     bordercolor="#000000"
     pagecolor="#300d1c"
     inkscape:pagecheckerboard="true"
     inkscape:showpageshadow="true"
     inkscape:lockguides="false"
     inkscape:deskcolor="#300d1c">
    <inkscape:grid
       type="xygrid"
       id="grid2892"
       originx="0"
       originy="0"
       spacingy="1"
       spacingx="1"
       units="px"
       visible="true" />
  </sodipodi:namedview>
  <defs
     id="defs3">
    <linearGradient
       id="linearGradient6"
       inkscape:collect="always">
      <stop
         style="stop-color:#2c5186;stop-opacity:1;"
         offset="0"
         id="stop5" />
      <stop
         style="stop-color:#1a1a1a;stop-opacity:0.60000002;"
         offset="1"
         id="stop6" />
    </linearGradient>
    <style
       type="text/css"
       id="current-color-scheme">.ColorScheme-Highlight { color:#008080; }
.ColorScheme-Text { color:#31363b; }
.ColorScheme-Background {  }
.ColorScheme-ViewText { color:#31363b; }
.ColorScheme-ViewBackground { color:#fcfcfc; }
.ColorScheme-ViewHover { color:#3daee9; }
.ColorScheme-ViewFocus { color:#3daee9; }
.ColorScheme-ButtonText { color:#31363b; }
.ColorScheme-ButtonBackground { color:#eff0f1; }
.ColorScheme-ButtonHover { color:#3daee9; }
.ColorScheme-ButtonFocus { color:#3daee9; }
</style>
    <linearGradient
       id="linearGradient934"
       x1="33"
       x2="127"
       y1="362.35999"
       y2="362.35999"
       gradientUnits="userSpaceOnUse"
       xlink:href="#linearGradient16" />
    <linearGradient
       id="linearGradient16">
      <stop
         style="stop-color:#4e51ac;stop-opacity:1;"
         offset="0"
         id="stop15" />
      <stop
         style="stop-color:#008080;stop-opacity:1"
         offset="1"
         id="stop16" />
    </linearGradient>
    <linearGradient
       id="linearGradient936"
       x1="276"
       x2="370"
       y1="226.36"
       y2="226.36"
       gradientUnits="userSpaceOnUse"
       xlink:href="#linearGradient16" />
    <linearGradient
       id="linearGradient932"
       x1="276"
       x2="370"
       y1="227.36"
       y2="227.36"
       gradientUnits="userSpaceOnUse"
       xlink:href="#linearGradient16" />
    <linearGradient
       inkscape:collect="always"
       xlink:href="#linearGradient6"
       id="linearGradient6-3"
       x1="7.0000076"
       y1="33.999992"
       x2="7.0000076"
       y2="39.999996"
       gradientUnits="userSpaceOnUse"
       gradientTransform="matrix(1.9999979,0,0,1.9999979,87.000007,20.000085)" />
    <linearGradient
       id="linearGradient16-3"
       inkscape:collect="always">
      <stop
         style="stop-color:#2c5186;stop-opacity:1;"
         offset="0"
         id="stop15-6" />
      <stop
         style="stop-color:#1a1a1a;stop-opacity:0.60000002;"
         offset="1"
         id="stop16-7" />
    </linearGradient>
    <linearGradient
       inkscape:collect="always"
       xlink:href="#linearGradient16-3"
       id="linearGradient10-5"
       x1="14.999999"
       y1="34"
       x2="14.999999"
       y2="40.000008"
       gradientUnits="userSpaceOnUse"
       gradientTransform="matrix(1.9999979,0,0,2.1538433,87.000041,13.846248)" />
    <linearGradient
       id="linearGradient910"
       x1="32.998001"
       x2="126.998"
       y1="363.362"
       y2="363.362"
       gradientUnits="userSpaceOnUse"
       xlink:href="#linearGradient16" />
    <linearGradient
       id="linearGradient916"
       x1="32.998001"
       x2="126.998"
       y1="358.362"
       y2="358.362"
       gradientUnits="userSpaceOnUse"
       xlink:href="#linearGradient16" />
    <linearGradient
       id="linearGradient914"
       x1="218"
       x2="218"
       y1="269.35999"
       y2="363.35999"
       gradientUnits="userSpaceOnUse"
       xlink:href="#linearGradient16" />
    <linearGradient
       id="linearGradient912"
       x1="407"
       x2="407"
       y1="269.35999"
       y2="363.35999"
       gradientUnits="userSpaceOnUse"
       xlink:href="#linearGradient16" />
  </defs>
  <rect
     style="opacity:1;fill:#975cf6;fill-opacity:1;fill-rule:nonzero;stroke:none;stroke-width:1"
     id="south-active-tab-hint-left-margin"
     width="15"
     height="2"
     x="77.5"
     y="-27" />
  <rect
     y="-27"
     x="97.5"
     height="2"
     width="15"
     id="south-active-tab-hint-right-margin"
     style="opacity:1;fill:#975cf6;fill-opacity:1;fill-rule:nonzero;stroke:none;stroke-width:1" />
  <rect
     style="opacity:1;fill:#975cf6;fill-opacity:1;fill-rule:nonzero;stroke:none;stroke-width:0.707108"
     id="south-active-tab-hint-top-margin"
     width="2"
     height="10"
     x="94.5"
     y="-38.5" />
  <rect
     y="-23.5"
     x="94.5"
     height="9.0000038"
     width="2"
     id="south-active-tab-hint-bottom-margin"
     style="opacity:1;fill:#975cf6;fill-opacity:1;fill-rule:nonzero;stroke:none;stroke-width:0.948683" />
  <rect
     style="opacity:0.01;fill:#3485fd;fill-opacity:0.01;stroke:none;stroke-width:0.969893"
     id="hint-tile-center"
     width="40"
     height="40"
     x="-40"
     y="0" />
  <rect
     id="north-active-tab-right"
     style="opacity:0.00100002"
     width="10"
     height="12"
     x="-112.99995"
     y="-128.00006"
     transform="scale(-1)" />
  <rect
     id="north-active-tab-center"
     style="opacity:0.00100002"
     width="80"
     height="12"
     x="-102.99995"
     y="-128.00006"
     transform="scale(-1)" />
  <rect
     id="north-active-tab-left"
     style="opacity:0.00100002"
     width="10"
     height="12"
     x="-23.000015"
     y="-128.00006"
     transform="scale(-1)" />
  <rect
     id="north-active-tab-topleft"
     style="opacity:0.00100002"
     width="10"
     height="4"
     x="-23.000015"
     y="-116"
     transform="scale(-1)" />
  <rect
     id="north-active-tab-top"
     style="opacity:0.00100002"
     width="80"
     height="4"
     x="-102.99995"
     y="-116"
     transform="scale(-1)" />
  <rect
     id="north-active-tab-topright"
     style="opacity:0.00100002"
     width="10"
     height="4"
     x="-112.99995"
     y="-116"
     transform="scale(-1)" />
  <g
     id="north-active-tab-bottom"
     style="opacity:1;fill:#3a6ab0;fill-opacity:1"
     transform="translate(-17,-233.3601)">
    <path
       id="rect3003-6"
       style="opacity:1;fill:#3a6ab0;fill-opacity:1"
       d="m 40,359.36218 h 80 v 3 H 40 Z" />
  </g>
  <g
     id="north-active-tab-bottomleft"
     style="opacity:1;fill:#3a6ab0;fill-opacity:1"
     transform="matrix(1,0,0,0.99926566,-17,-233.09401)">
    <rect
       id="rect3073-5-7"
       style="opacity:0.00100002;fill:#3a6ab0;fill-opacity:1"
       width="10"
       height="3"
       x="30"
       y="359.35999" />
    <path
       id="rect3542-3"
       style="opacity:1;fill:#3a6ab0;fill-opacity:1"
       transform="matrix(1,0,0,1.0007349,-243,134.83306)"
       d="m 277.5,224.36133 a 1.5,1.5 0 0 0 -1.5,1.5 1.5,1.5 0 0 0 1.5,1.5 c 0,0 5.50001,-4.2e-4 5.5,0 v -3 z" />
  </g>
  <g
     id="north-active-tab-bottomright"
     style="opacity:1;fill:#3a6ab0;fill-opacity:1"
     transform="matrix(1,0,0,0.99927074,-260,-101.1921)">
    <rect
       id="rect3073-45-6"
       style="opacity:0.00100002;fill:#3a6ab0;fill-opacity:1"
       width="10"
       height="3"
       x="363"
       y="227.36" />
    <rect
       id="rect3073-45-0"
       style="opacity:0.00100002;fill:#3a6ab0;fill-opacity:1"
       width="10"
       height="3"
       x="363"
       y="227.36" />
    <path
       id="rect3542-9-8"
       style="opacity:1;fill:#3a6ab0;fill-opacity:1"
       transform="matrix(1,0,0,1.0007298,0,2.8342025)"
       d="m 368.5,224.36133 c 0,0 -5.5,0.002 -5.5,0.004 v 2.9961 h 5.5 a 1.5,1.5 0 0 0 1.5,-1.5 1.5,1.5 0 0 0 -1.5,-1.5 z" />
  </g>
  <g
     id="south-active-tab-center"
     transform="matrix(0.77777708,0,0,0.77777708,10.555636,-60.555482)">
    <rect
       style="color:#000000;display:inline;overflow:visible;visibility:visible;fill:#3b5a87;fill-opacity:0.2;fill-rule:nonzero;stroke:none;stroke-width:2.79999;marker:none;enable-background:accumulate"
       id="selected-center-6"
       width="11.99999"
       height="11.99999"
       x="103.00001"
       y="104.00001"
       inkscape:label="#selected-center" />
  </g>
  <g
     id="south-active-tab-topleft"
     transform="matrix(0.77777708,0,0,0.77777708,10.555636,-60.555482)">
    <path
       inkscape:connector-curvature="0"
       id="path3895-54-1"
       d="M 99.000029,88.000017 V 100.00001 H 87.000041 c -3.4e-5,-7.000014 3.52816,-11.999993 11.999988,-11.999993 z"
       style="fill:#3b5a87;fill-opacity:0.2;fill-rule:nonzero;stroke:none;stroke-width:2"
       sodipodi:nodetypes="cccc" />
    <path
       style="fill:url(#linearGradient6-3);fill-opacity:1;fill-rule:nonzero;stroke:none;stroke-width:2"
       d="m 98.999995,88.000017 v 0.999979 c -6.999988,0 -10.999988,3.668394 -10.999988,11.000014 h -1 c 3.4e-5,-7.947652 4.447323,-11.999993 11.999988,-11.999993 z"
       id="path3897-9-8"
       inkscape:connector-curvature="0"
       sodipodi:nodetypes="ccccc" />
    <rect
       style="opacity:0.003;fill:#000000;stroke-width:1.88876;stroke-linejoin:round"
       id="rect1097-6-6-6"
       width="17.000002"
       height="16.999664"
       x="83"
       y="-98.999664"
       transform="rotate(90)" />
  </g>
  <g
     id="south-active-tab-topright"
     transform="matrix(0.77777708,0,0,0.72222135,10.555636,-54.999951)">
    <path
       inkscape:connector-curvature="0"
       id="path3895-6-72-9"
       d="M 131,99.999985 H 119.00001 V 87.076923 c 8.60794,0 12,5.384614 11.99999,12.923062 z"
       style="fill:#3b5a87;fill-opacity:0.2;fill-rule:nonzero;stroke:none;stroke-width:2.0755"
       sodipodi:nodetypes="cccc" />
    <path
       style="fill:url(#linearGradient10-5);fill-opacity:1;fill-rule:nonzero;stroke:none;stroke-width:2.0755"
       d="m 131,99.999985 h -0.99999 c 0,-8.014603 -3.71848,-11.846139 -11,-11.846139 v -1.076923 c 7.61312,0 11.99999,4.49183 11.99999,12.923062 z"
       id="path3897-3-8-2"
       inkscape:connector-curvature="0"
       sodipodi:nodetypes="ccccc" />
    <rect
       style="opacity:0.003;fill:#000000;stroke-width:2.67116;stroke-linejoin:round"
       id="rect1097-6-6-6-2"
       width="18.307693"
       height="17.000069"
       x="81.692307"
       y="-136.00005"
       transform="rotate(90)" />
  </g>
  <g
     id="south-active-tab-top"
     transform="matrix(0.77777708,0,0,0.77777708,10.555636,-60.555482)">
    <rect
       y="87.999992"
       x="103.00042"
       height="11.999988"
       width="11.999988"
       id="rect4846-6-6-4-8-6-9"
       style="color:#000000;display:inline;overflow:visible;visibility:visible;fill:#3b5a87;fill-opacity:0.2;fill-rule:nonzero;stroke:none;stroke-width:1.464;marker:none;enable-background:accumulate" />
    <path
       id="rect3311-3-4-5-2-1"
       d="m 103.00001,88.000028 v 0.999968 H 115 l 4.3e-4,-0.999968 z"
       style="fill:#2c5186;fill-opacity:1;stroke:none;stroke-width:1.41419"
       inkscape:connector-curvature="0"
       sodipodi:nodetypes="ccccc" />
    <rect
       style="opacity:0.003;fill:#000000;stroke-width:1.58692;stroke-linejoin:round"
       id="rect1097-6-6-6-7"
       width="17.000002"
       height="12.000032"
       x="83"
       y="-115.00003"
       transform="rotate(90)" />
  </g>
  <g
     id="south-active-tab-bottomright"
     transform="matrix(0.77777708,0,0,0.77777708,10.555636,-60.555482)">
    <path
       inkscape:connector-curvature="0"
       id="path3895-3-7-5"
       d="M 119.00005,131.99999 V 120 h 11.99998 c -3e-5,6.92433 -3.44734,11.99999 -11.99998,11.99999 z"
       style="fill:#3b5a87;fill-opacity:0.2;fill-rule:nonzero;stroke:none;stroke-width:2"
       sodipodi:nodetypes="cccc" />
    <path
       style="fill:#1a1a1a;fill-opacity:0.6;fill-rule:nonzero;stroke:none;stroke-width:2"
       d="M 119.00001,131.99999 V 131 c 7,0 11,-3.53217 11,-11 H 131 c 3e-5,7.89237 -4.33266,11.99999 -11.99999,11.99999 z"
       id="path3897-1-7-9"
       inkscape:connector-curvature="0"
       sodipodi:nodetypes="ccccc" />
    <rect
       style="opacity:0.003;fill:#000000;stroke-width:1.88879;stroke-linejoin:round"
       id="rect1097-6-6-6-0"
       width="17"
       height="17.000002"
       x="120"
       y="-136"
       transform="rotate(90)" />
  </g>
  <g
     id="south-active-tab-bottomleft"
     transform="matrix(0.77777708,0,0,0.77777708,10.555636,-60.555482)">
    <path
       inkscape:connector-curvature="0"
       id="path3895-5-2-2"
       d="m 87.000024,120 h 11.999988 v 11.99999 C 90.502598,131.99999 87.000007,127 87.000024,120 Z"
       style="fill:#3b5a87;fill-opacity:0.2;fill-rule:nonzero;stroke:none;stroke-width:2"
       sodipodi:nodetypes="cccc" />
    <path
       style="fill:#1a1a1a;fill-opacity:0.6;fill-rule:nonzero;stroke:none;stroke-width:2"
       d="m 87.000024,120 h 0.999983 c 0,7.58238 4.140119,11 11,11 l 5e-6,0.99999 C 91.549781,131.99999 87.000007,128 87.000024,120 Z"
       id="path3897-6-8-3"
       inkscape:connector-curvature="0"
       sodipodi:nodetypes="ccccc" />
    <rect
       style="opacity:0.003;fill:#000000;stroke-width:1.88879;stroke-linejoin:round"
       id="rect1097-6-6-6-9"
       width="17"
       height="17"
       x="120"
       y="-99"
       transform="rotate(90)" />
  </g>
  <g
     id="south-active-tab-bottom"
     transform="matrix(0.77777708,0,0,0.77777708,10.555636,-60.555482)">
    <g
       id="g1">
      <rect
         transform="scale(-1)"
         y="-131.99998"
         x="-115.0004"
         height="11.999988"
         width="11.999988"
         id="rect4846-5-6-5-3-3"
         style="color:#000000;display:inline;overflow:visible;visibility:visible;fill:#3b5a87;fill-opacity:0.2;fill-rule:nonzero;stroke:none;stroke-width:1.464;marker:none;enable-background:accumulate" />
      <path
         inkscape:connector-curvature="0"
         style="fill:#1a1a1a;fill-opacity:0.6;stroke:none;stroke-width:1.41423"
         d="M 103.00044,132.00002 103.00001,131 H 115 l 4.3e-4,1.00002 z"
         id="path5290-8-3-2-4-6"
         sodipodi:nodetypes="ccccc" />
      <rect
         style="opacity:0.003;fill:#000000;stroke-width:1.5869;stroke-linejoin:round"
         id="rect1097-6-6-6-3"
         width="17"
         height="12.000002"
         x="120"
         y="-115"
         transform="rotate(90)" />
    </g>
  </g>
  <g
     id="south-active-tab-right"
     transform="matrix(0.77777708,0,0,0.77777708,10.555636,-60.555482)">
    <rect
       transform="rotate(90)"
       y="-131"
       x="103.99999"
       height="11.999988"
       width="11.999988"
       id="rect4846-4-2-9-6-5-7-6"
       style="color:#000000;display:inline;overflow:visible;visibility:visible;fill:#3b5a87;fill-opacity:0.2;fill-rule:nonzero;stroke:none;stroke-width:1.464;marker:none;enable-background:accumulate" />
    <path
       inkscape:connector-curvature="0"
       style="fill:#1a1a1a;fill-opacity:0.6;stroke:none;stroke-width:1.41403"
       d="m 130.99996,116.00002 h -0.99995 v -11.99999 h 0.99995 z"
       id="path5270-4-2-3-9-2"
       sodipodi:nodetypes="ccccc" />
    <rect
       style="opacity:0.003;fill:#000000;stroke-width:1.5869;stroke-linejoin:round"
       id="rect1097-6-6-6-6"
       width="12.000017"
       height="17.000002"
       x="103.99999"
       y="-136"
       transform="rotate(90)" />
  </g>
  <g
     id="south-active-tab-left"
     transform="matrix(0.77777708,0,0,0.77777708,10.555636,-60.555482)">
    <rect
       transform="rotate(-90)"
       y="87.000008"
       x="-115.99998"
       height="11.999988"
       width="11.999988"
       id="rect4846-4-6-1-7-3-7"
       style="color:#000000;display:inline;overflow:visible;visibility:visible;fill:#3b5a87;fill-opacity:0.2;fill-rule:nonzero;stroke:none;stroke-width:1.464;marker:none;enable-background:accumulate" />
    <path
       inkscape:connector-curvature="0"
       style="fill:#1a1a1a;fill-opacity:0.6;stroke:none;stroke-width:1.41435"
       d="m 87.000037,116.00002 h 0.99997 v -11.99999 h -0.99997 z"
       id="path5280-4-6-2-4-0"
       sodipodi:nodetypes="ccccc" />
    <rect
       style="opacity:0.003;fill:#000000;stroke-width:1.58689;stroke-linejoin:round"
       id="rect1097-6-6-6-06"
       width="12.00001"
       height="17"
       x="104"
       y="-99"
       transform="rotate(90)" />
  </g>
  <rect
     id="east-active-tab-bottom"
     style="opacity:0.00100002"
     width="10"
     height="12"
     x="-101.70002"
     y="48.100071"
     transform="rotate(-90)" />
  <rect
     id="east-active-tab-center"
     style="opacity:0.00100002"
     width="80"
     height="12"
     x="-91.70002"
     y="48.100071"
     transform="rotate(-90)" />
  <rect
     id="east-active-tab-top"
     style="opacity:0.00100002"
     width="10"
     height="12"
     x="-12"
     y="48.100071"
     transform="rotate(-90)" />
  <rect
     id="east-active-tab-topright"
     style="opacity:0.00100002"
     width="10"
     height="4"
     x="-12"
     y="60.100071"
     transform="rotate(-90)" />
  <rect
     id="east-active-tab-right"
     style="opacity:0.00100002"
     width="80"
     height="4"
     x="-91.70002"
     y="60.100071"
     transform="rotate(-90)" />
  <rect
     id="east-active-tab-bottomright"
     style="opacity:0.00100002"
     width="10"
     height="4"
     x="-101.70002"
     y="60.100071"
     transform="rotate(-90)" />
  <rect
     id="east-active-tab-hint-bottom-margin"
     style="fill:#9955ff"
     width="6"
     height="5"
     x="-109"
     y="142.30002"
     transform="rotate(-90)" />
  <rect
     id="east-active-tab-hint-top-margin"
     style="fill:#9955ff"
     width="6"
     height="5"
     x="-15.000002"
     y="142.30002"
     transform="rotate(-90)" />
  <g
     id="east-active-tab-left"
     style="opacity:0.8"
     transform="rotate(90,218.73013,190.73233)">
    <path
       id="rect3003-5-6"
       style="opacity:1;fill:#3a6ab0;fill-opacity:1"
       d="m 40,359.36218 h 80 v 3 H 40 Z" />
  </g>
  <rect
     id="east-active-tab-hint-left-margin"
     style="fill:#008080"
     width="5"
     height="8"
     x="-55"
     y="135"
     transform="rotate(-90)" />
  <rect
     id="east-active-tab-hint-right-margin"
     style="fill:#008080"
     width="5"
     height="4"
     x="-55"
     y="148"
     transform="rotate(-90)" />
  <rect
     id="west-active-tab-top"
     style="opacity:0.00100002"
     width="10"
     height="12"
     x="2.0000019"
     y="-20.000053"
     transform="rotate(90)" />
  <rect
     id="west-active-tab-center"
     style="opacity:0.00100002"
     width="80"
     height="12"
     x="12"
     y="-20.000053"
     transform="rotate(90)" />
  <rect
     id="west-active-tab-bottom"
     style="opacity:0.00100002"
     width="10"
     height="12"
     x="91.999992"
     y="-20.000053"
     transform="rotate(90)" />
  <rect
     id="west-active-tab-bottomleft"
     style="opacity:0.00100002"
     width="10"
     height="4"
     x="91.999992"
     y="-8"
     transform="rotate(90)" />
  <rect
     id="west-active-tab-left"
     style="opacity:0.00100002"
     width="80"
     height="4"
     x="12"
     y="-8"
     transform="rotate(90)" />
  <rect
     id="west-active-tab-topleft"
     style="opacity:0.00100002"
     width="10"
     height="4"
     x="2.0000019"
     y="-8"
     transform="rotate(90)" />
  <rect
     id="west-active-tab-hint-top-margin"
     style="fill:#9955ff"
     width="6"
     height="5"
     x="9.000001"
     y="14.799995"
     transform="rotate(90)" />
  <rect
     id="west-active-tab-hint-bottom-margin"
     style="fill:#9955ff"
     width="6"
     height="5"
     x="103"
     y="14.799995"
     transform="rotate(90)" />
  <g
     id="west-active-tab-right"
     style="opacity:0.8"
     transform="rotate(90,204.18001,176.18221)">
    <path
       id="rect3003-5"
       style="opacity:1;fill:#3a6ab0;fill-opacity:1"
       d="m 40,359.36218 h 80 v 3 H 40 Z" />
  </g>
  <g
     id="west-active-tab-topright"
     style="opacity:0.8"
     transform="matrix(0,1,-0.99926566,0,380.09612,-27.997804)">
    <rect
       id="rect3073-5-5"
       style="opacity:0.00100002"
       width="10"
       height="3"
       x="30"
       y="359.35999" />
    <path
       id="rect3542-0"
       style="opacity:1;fill:#3a6ab0;fill-opacity:1"
       transform="matrix(0,-1.0007349,1,0,-236.36218,576.51945)"
       d="m 215.5,269.36133 a 1.5,1.5 0 0 0 -1.5,1.5 c 0,0 0.002,5.50001 0,5.5 h 2.99805 l 0.002,-5.5 a 1.5,1.5 0 0 0 -1.5,-1.5 z" />
  </g>
  <g
     id="west-active-tab-bottomright"
     style="opacity:0.8"
     transform="matrix(0,1,-0.99926566,0,380.09612,-27.997804)">
    <rect
       id="rect3073-45-07"
       style="opacity:0.00100002"
       width="10"
       height="3"
       x="120"
       y="359.35999" />
    <path
       id="rect3542-9-4"
       style="opacity:1;fill:#3a6ab0;fill-opacity:1"
       transform="matrix(0,-1.0007349,1,0,-236.36218,576.51945)"
       d="m 214,356.36133 c 0.002,10e-6 0,5.5 0,5.5 a 1.5,1.5 0 0 0 1.5,1.5 1.5,1.5 0 0 0 1.5,-1.5 l -0.002,-5.5 z" />
  </g>
  <rect
     id="west-active-tab-hint-right-margin"
     style="fill:#008080"
     width="5"
     height="8"
     x="50"
     y="6"
     transform="rotate(90)" />
  <rect
     id="west-active-tab-hint-left-margin"
     style="fill:#008080"
     width="5"
     height="4"
     x="50"
     y="18.999985"
     transform="rotate(90)" />
  <g
     id="east-active-tab-topleft"
     style="opacity:0.8"
     transform="matrix(0,1,-0.99926566,0,409.19635,-27.997804)">
    <rect
       id="rect3073-5-5-1"
       style="opacity:0.00100002"
       width="10"
       height="3"
       x="30"
       y="359.35999" />
    <path
       id="rect3542-0-7"
       style="opacity:1;fill:#3a6ab0;fill-opacity:1"
       transform="matrix(0,-1.0007349,1,0,-236.36218,770.66226)"
       d="m 409.5,269.36133 a 1.5,1.5 0 0 0 -1.5,1.5 c 0,0 0.002,5.50001 0,5.5 h 2.99805 l 0.002,-5.5 a 1.5,1.5 0 0 0 -1.5,-1.5 z" />
  </g>
  <g
     id="east-active-tab-bottomleft"
     style="opacity:0.8"
     transform="matrix(0,1,-0.99926566,0,409.19635,-27.997804)">
    <rect
       id="rect3073-45-07-7"
       style="opacity:0.00100002"
       width="10"
       height="3"
       x="120"
       y="359.35999" />
    <path
       id="rect3542-9-4-6"
       style="opacity:1;fill:#3a6ab0;fill-opacity:1"
       transform="matrix(0,-1.0007349,1,0,-236.36218,770.66226)"
       d="m 408,356.36133 v 5.5 a 1.5,1.5 0 0 0 1.5,1.5 1.5,1.5 0 0 0 1.5,-1.5 l -0.002,-5.5 z" />
  </g>
  <rect
     id="north-focus-hint-right-margin"
     style="fill:#b380ff"
     width="6"
     height="5"
     x="-107.00996"
     y="-158.00441"
     transform="scale(-1)" />
  <rect
     id="north-focus-hint-left-margin"
     style="fill:#b380ff"
     width="6"
     height="5"
     x="-13.009977"
     y="-158.00441"
     transform="scale(-1)" />
  <rect
     id="north-focus-hint-bottom-margin"
     style="fill:#008080"
     width="5"
     height="8"
     x="-59.522873"
     y="-165.00441"
     transform="scale(-1)" />
  <rect
     id="north-focus-hint-top-margin"
     style="fill:#008080"
     width="5"
     height="4"
     x="-59.522873"
     y="-152.00441"
     transform="scale(-1)" />
</svg>
